<svg width="33" height="33" viewBox="0 0 33 33" fill="none" xmlns="http://www.w3.org/2000/svg">
<path d="M32.4458 14.7522L17.6398 1.26107C16.9899 0.668814 16.0099 0.668878 15.3602 1.26101L0.55417 14.7523C0.0335828 15.2267 -0.138378 15.9576 0.115954 16.6143C0.37035 17.271 0.989743 17.6953 1.69402 17.6953H4.0588V31.2124C4.0588 31.7484 4.49334 32.1829 5.02927 32.1829H13.1448C13.6807 32.1829 14.1153 31.7484 14.1153 31.2124V23.0053H18.8849V31.2125C18.8849 31.7484 19.3195 32.183 19.8554 32.183H27.9705C28.5065 32.183 28.941 31.7485 28.941 31.2125V17.6953H31.3062C32.0105 17.6953 32.6299 17.2709 32.8843 16.6143C33.1383 15.9575 32.9664 15.2267 32.4458 14.7522Z" fill="#F39200"/>
</svg>
