<svg width="33" height="33" viewBox="0 0 33 33" fill="none" xmlns="http://www.w3.org/2000/svg">
<g clip-path="url(#clip0)">
<path d="M32.1416 28.0581L19.2017 15.1181L4.08359 0H2.9021L2.66085 0.613014C2.02411 2.23105 1.75206 3.88594 1.8742 5.39859C2.01342 7.12284 2.66845 8.61564 3.7686 9.71579L15.5706 21.5178L17.1273 19.9611L28.0382 32.1617C29.1236 33.2471 30.9918 33.3115 32.1416 32.1617C33.2731 31.0302 33.2731 29.1895 32.1416 28.0581Z" fill="#F39200"/>
<path d="M10.1016 18.7844L0.858349 28.0277C-0.272933 29.159 -0.272933 30.9998 0.858349 32.1311C1.93304 33.2058 3.79219 33.3007 4.96176 32.1311L14.2051 22.8878L10.1016 18.7844Z" fill="#F39200"/>
<path d="M31.5983 5.49449L26.355 10.7378L24.9871 9.36993L30.2305 4.1266L28.8626 2.75878L23.6194 8.00204L22.2515 6.63421L27.4949 1.39095L26.1271 0.0231934L19.288 6.86231C18.4513 7.69898 17.9518 8.80989 17.8811 9.99055C17.8633 10.2897 17.7955 10.5839 17.683 10.8638L22.1257 15.3064C22.4055 15.1938 22.6998 15.1261 22.9989 15.1083C24.1795 15.0378 25.2905 14.5381 26.1271 13.7014L32.9662 6.86238L31.5983 5.49449Z" fill="#F39200"/>
</g>
<defs>
<clipPath id="clip0">
<rect width="33" height="33" fill="white"/>
</clipPath>
</defs>
</svg>
