<svg width="33" height="33" viewBox="0 0 33 33" fill="none" xmlns="http://www.w3.org/2000/svg">
<path d="M13.2359 33.0002C15.3904 33.0002 17.137 31.2536 17.137 29.0991C17.137 26.9446 15.3904 25.198 13.2359 25.198C11.0814 25.198 9.33484 26.9446 9.33484 29.0991C9.33484 31.2536 11.0814 33.0002 13.2359 33.0002Z" fill="#F39200"/>
<path d="M24.6207 25.1978C22.4662 25.1978 20.7196 26.9444 20.7196 29.0988C20.7196 31.2533 22.4662 32.9999 24.6207 32.9999C26.7752 32.9999 28.5218 31.2533 28.5218 29.0988C28.5218 26.9444 26.7752 25.1978 24.6207 25.1978Z" fill="#F39200"/>
<path d="M31.2684 21.2172H10.9271L10.529 18.9084H27.2479C27.7397 18.9099 28.1822 18.6096 28.3625 18.1521L32.3432 8.12073C32.5851 7.50714 32.2836 6.81363 31.67 6.57183C31.5295 6.5164 31.3797 6.48818 31.2286 6.48864H8.45905L7.50368 0.995291C7.40557 0.414437 6.89849 -0.00812279 6.30948 0.000118482H1.73168C1.07215 0.000118482 0.537476 0.534791 0.537476 1.19433C0.537476 1.85386 1.07215 2.38853 1.73168 2.38853H5.3143L8.7377 22.6104C8.83581 23.1913 9.34289 23.6139 9.9319 23.6056H31.2684C31.9279 23.6056 32.4626 23.0709 32.4626 22.4114C32.4626 21.7519 31.9279 21.2172 31.2684 21.2172Z" fill="#F39200"/>
</svg>
