<svg width="33" height="33" viewBox="0 0 33 33" fill="none" xmlns="http://www.w3.org/2000/svg">
<path d="M32.0332 23.7832H30.873V21.6562C30.873 21.1223 30.4402 20.6895 29.9062 20.6895C29.3723 20.6895 28.9395 21.1223 28.9395 21.6562V23.7832H27.6504V33H32.0332C32.5671 33 33 32.5671 33 32.0332V24.75C33 24.2161 32.5671 23.7832 32.0332 23.7832Z" fill="#F39200"/>
<path d="M5.34961 23.7832H4.06055V21.6562C4.06055 21.1223 3.62768 20.6895 3.09375 20.6895C2.55982 20.6895 2.12695 21.1223 2.12695 21.6562V23.7832H0.966797C0.432867 23.7832 0 24.2161 0 24.75V32.0332C0 32.5671 0.432867 33 0.966797 33H5.34961V23.7832Z" fill="#F39200"/>
<path d="M7.2832 33H11.9238V27.8438C11.9238 27.3098 12.3567 26.877 12.8906 26.877H20.1094C20.6433 26.877 21.0762 27.3098 21.0762 27.8438V33H25.7168C25.7168 31.4018 25.7168 2.44232 25.7168 0.966797C25.7168 0.432867 25.2839 0 24.75 0H8.25C7.71607 0 7.2832 0.432867 7.2832 0.966797V33ZM13.9219 22.623H12.8906C12.3567 22.623 11.9238 22.1902 11.9238 21.6562C11.9238 21.1223 12.3567 20.6895 12.8906 20.6895H13.9219C14.4558 20.6895 14.8887 21.1223 14.8887 21.6562C14.8887 22.1902 14.4558 22.623 13.9219 22.623ZM13.9219 18.498H12.8906C12.3567 18.498 11.9238 18.0652 11.9238 17.5312C11.9238 16.9973 12.3567 16.5645 12.8906 16.5645H13.9219C14.4558 16.5645 14.8887 16.9973 14.8887 17.5312C14.8887 18.0652 14.4558 18.498 13.9219 18.498ZM13.9219 14.373H12.8906C12.3567 14.373 11.9238 13.9402 11.9238 13.4062C11.9238 12.8723 12.3567 12.4395 12.8906 12.4395H13.9219C14.4558 12.4395 14.8887 12.8723 14.8887 13.4062C14.8887 13.9402 14.4558 14.373 13.9219 14.373ZM13.9219 10.248H12.8906C12.3567 10.248 11.9238 9.81518 11.9238 9.28125C11.9238 8.74732 12.3567 8.31445 12.8906 8.31445H13.9219C14.4558 8.31445 14.8887 8.74732 14.8887 9.28125C14.8887 9.81518 14.4558 10.248 13.9219 10.248ZM20.1094 22.623H19.0781C18.5442 22.623 18.1113 22.1902 18.1113 21.6562C18.1113 21.1223 18.5442 20.6895 19.0781 20.6895H20.1094C20.6433 20.6895 21.0762 21.1223 21.0762 21.6562C21.0762 22.1902 20.6433 22.623 20.1094 22.623ZM20.1094 18.498H19.0781C18.5442 18.498 18.1113 18.0652 18.1113 17.5312C18.1113 16.9973 18.5442 16.5645 19.0781 16.5645H20.1094C20.6433 16.5645 21.0762 16.9973 21.0762 17.5312C21.0762 18.0652 20.6433 18.498 20.1094 18.498ZM20.1094 14.373H19.0781C18.5442 14.373 18.1113 13.9402 18.1113 13.4062C18.1113 12.8723 18.5442 12.4395 19.0781 12.4395H20.1094C20.6433 12.4395 21.0762 12.8723 21.0762 13.4062C21.0762 13.9402 20.6433 14.373 20.1094 14.373ZM20.1094 10.248H19.0781C18.5442 10.248 18.1113 9.81518 18.1113 9.28125C18.1113 8.74732 18.5442 8.31445 19.0781 8.31445H20.1094C20.6433 8.31445 21.0762 8.74732 21.0762 9.28125C21.0762 9.81518 20.6433 10.248 20.1094 10.248ZM12.375 4.18945H20.625C21.1589 4.18945 21.5918 4.62232 21.5918 5.15625C21.5918 5.69018 21.1589 6.12305 20.625 6.12305H12.375C11.8411 6.12305 11.4082 5.69018 11.4082 5.15625C11.4082 4.62232 11.8411 4.18945 12.375 4.18945Z" fill="#F39200"/>
<path d="M13.8574 33H19.1426V28.8105H13.8574V33Z" fill="#F39200"/>
</svg>
