<svg width="33" height="33" viewBox="0 0 33 33" fill="none" xmlns="http://www.w3.org/2000/svg">
<g clip-path="url(#clip0)">
<path d="M26.125 26.8125V19.9375C26.125 17.6632 27.9757 15.8125 30.25 15.8125C31.009 15.8125 31.625 16.4285 31.625 17.1875C31.625 17.952 31.0007 18.5721 30.2335 18.5625C29.48 18.5529 28.875 19.184 28.875 19.9375V24.0625C28.875 25.5819 27.6444 26.8125 26.125 26.8125Z" fill="#F39200"/>
<path d="M6.875 26.8125V19.9375C6.875 17.6632 5.02425 15.8125 2.75 15.8125C1.991 15.8125 1.375 16.4285 1.375 17.1875C1.375 17.952 1.99925 18.5721 2.7665 18.5625C3.52 18.5529 4.125 19.184 4.125 19.9375V24.0625C4.125 25.5819 5.35562 26.8125 6.875 26.8125Z" fill="#F39200"/>
<path d="M22.3438 33H10.6562C9.89725 33 9.28125 32.384 9.28125 31.625C9.28125 30.866 9.89725 30.25 10.6562 30.25H22.3438C23.1027 30.25 23.7188 30.866 23.7188 31.625C23.7188 32.384 23.1027 33 22.3438 33Z" fill="#F39200"/>
<path d="M16.5 33C15.741 33 15.125 32.384 15.125 31.625V25.7812C15.125 25.0222 15.741 24.4062 16.5 24.4062C17.259 24.4062 17.875 25.0222 17.875 25.7812V31.625C17.875 32.384 17.259 33 16.5 33Z" fill="#F39200"/>
<path d="M23.4588 17.875H9.54105C8.8288 17.875 8.1578 17.5615 7.69993 17.017C7.24068 16.4725 7.04818 15.7575 7.17055 15.0562L9.44205 1.99375C9.6428 0.83875 10.6397 0 11.8126 0H21.1859C22.3602 0 23.3571 0.83875 23.5564 1.99512L25.8279 15.0576C25.9503 15.7589 25.7578 16.4739 25.2986 17.0184C24.8421 17.5615 24.1711 17.875 23.4588 17.875Z" fill="#F39200"/>
<path d="M26.4688 26.8125H6.53125C5.962 26.8125 5.5 26.3505 5.5 25.7812V23.0312C5.5 20.9454 7.19538 19.25 9.28125 19.25H23.7188C25.8046 19.25 27.5 20.9454 27.5 23.0312V25.7812C27.5 26.3505 27.038 26.8125 26.4688 26.8125Z" fill="#F39200"/>
</g>
<defs>
<clipPath id="clip0">
<rect width="33" height="33" fill="white"/>
</clipPath>
</defs>
</svg>
