<svg width="33" height="31" viewBox="0 0 33 31" fill="none" xmlns="http://www.w3.org/2000/svg">
<path d="M11.6066 16.3525L21.9824 5.97678L16.9069 0.9012C16.5232 0.517486 15.9015 0.516961 15.5172 0.899758L0 16.3525H11.6066Z" fill="#F39200"/>
<path d="M32.0162 15.8277H29.7209C28.0936 15.8277 26.7698 17.1516 26.7698 18.7789V22.1235H24.3781C23.7787 20.3491 21.7506 19.519 20.0884 20.3469L18.3893 18.6477L21.8116 15.2254C22.9621 14.0749 22.9621 12.2029 21.8116 11.0523L20.7502 9.99097L12.7097 18.0316C12.5252 18.2161 12.275 18.3198 12.0141 18.3198H6.375L11.947 23.8917C12.3389 24.188 12.8871 24.15 13.2343 23.8028L16.9983 20.0388L18.6974 21.738C17.6825 23.7755 19.1721 26.1895 21.4578 26.1895C22.8134 26.1895 23.9666 25.3094 24.3781 24.0909H26.7698V27.4355C26.7698 29.0628 28.0937 30.3866 29.721 30.3866H32.0163C32.5596 30.3866 33 29.9462 33 29.4029V16.8114C32.9999 16.2682 32.5595 15.8277 32.0162 15.8277Z" fill="#F39200"/>
<path d="M4.51735 19.2446L3.44877 20.3132C3.0646 20.6973 3.0646 21.3202 3.44877 21.7044L7.12131 25.3769C7.50548 25.7611 8.1283 25.7611 8.51247 25.3769L9.58105 24.3083L4.51735 19.2446Z" fill="#F39200"/>
</svg>
