<svg width="93" height="93" viewBox="0 0 93 93" fill="none" xmlns="http://www.w3.org/2000/svg">
<g clip-path="url(#clip0_73:555)">
<path d="M80.723 64.9613L80.723 64.9582L80.7295 59.1466V59.1463V39.0581C80.7297 35.0741 77.4888 31.8334 73.5049 31.8334C71.9676 31.8334 70.5418 32.3175 69.3697 33.139C68.7179 29.8206 65.7891 27.3088 62.282 27.3088C60.4707 27.3088 58.813 27.9789 57.5439 29.0836C56.3653 26.6924 53.9018 25.0426 51.0591 25.0426C49.5813 25.0426 48.2064 25.4898 47.0609 26.2542V13.3148C47.0609 9.33083 43.8202 6.08997 39.8361 6.08997C35.852 6.08997 32.6113 9.33083 32.6113 13.3148V35.8702C32.6113 36.7612 33.3337 37.4836 34.2247 37.4836C35.1157 37.4836 35.838 36.7612 35.838 35.8702V13.3148C35.838 11.1105 37.6318 9.31663 39.8361 9.31663C42.0404 9.31663 43.8343 11.1105 43.8343 13.3148V43.8915C43.8343 44.7825 44.5566 45.5048 45.4476 45.5048C46.3386 45.5048 47.0609 44.7825 47.0609 43.8915V32.2672C47.0609 30.0629 48.8547 28.2691 51.0591 28.2691C53.2634 28.2691 55.0572 30.0627 55.0572 32.2672V43.8915C55.0572 44.7825 55.7795 45.5048 56.6705 45.5048C57.5615 45.5048 58.2839 44.7825 58.2839 43.8915V34.5336C58.2839 32.3293 60.0775 30.5355 62.282 30.5355C64.4865 30.5355 66.2801 32.3293 66.2801 34.5336V43.8915C66.2801 44.7825 67.0025 45.5048 67.8935 45.5048C68.7845 45.5048 69.5068 44.7825 69.5068 43.8915V39.0581C69.5068 36.8537 71.3006 35.0599 73.5049 35.0599C75.7092 35.0599 77.5031 36.8536 77.5031 39.0581V59.1445V59.1448L77.4965 64.9341C77.4965 64.9346 77.4965 64.9351 77.4965 64.9356C77.431 69.6663 76.5237 74.293 74.7997 78.6878L74.365 79.7958L74.5978 79.8871L74.365 79.7958C74.0633 80.565 73.9102 81.3744 73.9102 82.2009V91.6366C73.9102 92.5276 74.6326 93.2499 75.5236 93.2499C76.4146 93.2499 77.1369 92.5276 77.1369 91.6366V82.2009C77.1369 81.7791 77.2148 81.3668 77.3688 80.9743L77.1361 80.883L77.3688 80.9743L77.8035 79.8662C79.6699 75.1082 80.6522 70.0991 80.723 64.9613Z" fill="white" stroke="white" stroke-width="0.5"/>
<path d="M15.0044 42.895C11.9934 45.3957 11.3888 49.7198 13.5985 52.9505L28.277 74.4122C30.801 78.1027 34.5355 80.7175 38.8464 81.8286V91.6363C38.8464 92.5273 39.5687 93.2496 40.4597 93.2496C41.3507 93.2496 42.0731 92.5273 42.0731 91.6363V81.1702C42.0733 80.0545 41.2837 79.0729 40.1938 78.8336L40.1402 79.0778L40.1938 78.8336C36.4121 78.0035 33.1262 75.7866 30.9406 72.591L16.2619 51.1291C16.2619 51.1291 16.2619 51.1291 16.2619 51.1291C14.9975 49.2801 15.343 46.8084 17.0662 45.3772L17.0662 45.3772C18.8348 43.9081 21.4394 44.0832 22.9956 45.7758L22.9956 45.7758L31.6256 55.1608C32.3069 55.9018 33.3554 56.1448 34.2932 55.7791C35.231 55.4134 35.8383 54.5249 35.8383 53.5183V41.6802C35.8383 40.7892 35.1159 40.0669 34.225 40.0669C33.334 40.0669 32.6116 40.7892 32.6116 41.6802V51.4661L25.3708 43.5916L25.3708 43.5916C22.6502 40.6332 18.0968 40.3267 15.0044 42.895ZM15.0044 42.895L15.1641 43.0874L15.0044 42.895Z" fill="white" stroke="white" stroke-width="0.5"/>
<path d="M50.7617 20.7559L50.7616 20.7559C50.353 21.5476 50.6631 22.5208 51.455 22.9296L51.4551 22.9296C51.6914 23.0516 51.9444 23.1096 52.1941 23.1096C52.7776 23.1096 53.342 22.7916 53.6287 22.2362C54.7653 20.0348 55.342 17.6586 55.342 15.1755C55.342 11.7986 54.269 8.58952 52.2396 5.89776C51.7033 5.18636 50.6916 5.04443 49.9801 5.58067L49.98 5.58072C49.2687 6.11718 49.1267 7.12861 49.6629 7.84017L49.663 7.84022C51.2677 9.96844 52.1153 12.5041 52.1153 15.1755C52.1153 17.1394 51.66 19.0162 50.7617 20.7559Z" fill="white" stroke="white" stroke-width="0.5"/>
<path d="M28.3794 22.9296L28.3793 22.9296C28.143 23.0515 27.89 23.1098 27.6403 23.1098C27.0568 23.1098 26.4924 22.7918 26.2057 22.2363L28.3794 22.9296ZM28.3794 22.9296C29.171 22.5209 29.4814 21.5475 29.0725 20.7559C28.1742 19.0164 27.7188 17.1396 27.7188 15.1755C27.7188 8.44929 33.1915 2.97666 39.9177 2.97666C41.9638 2.97666 43.9885 3.49389 45.7723 4.47189C46.5535 4.9004 47.5343 4.61404 47.9626 3.83284C48.3911 3.05151 48.1049 2.07102 47.3235 1.64255L47.3235 1.64255M28.3794 22.9296L47.3235 1.64255M47.3235 1.64255C45.065 0.404351 42.5044 -0.25 39.9177 -0.25M47.3235 1.64255L39.9177 -0.25M39.9177 -0.25C31.4117 -0.25 24.4922 6.66967 24.4922 15.1755M39.9177 -0.25L24.4922 15.1755M24.4922 15.1755C24.4922 17.6587 25.0688 20.035 26.2057 22.2362L24.4922 15.1755Z" fill="white" stroke="white" stroke-width="0.5"/>
<path d="M21.4614 23.9303L21.4614 23.9303C20.1559 21.184 19.4942 18.239 19.4942 15.1754C19.4942 12.1119 20.1561 9.16686 21.4614 6.42054L21.2356 6.31322L21.4614 6.42053C21.8439 5.6158 21.5016 4.65342 20.6969 4.27076L20.6969 4.27074C19.8917 3.88807 18.9298 4.23058 18.5471 5.03521L18.5471 5.03526C17.0345 8.21776 16.2676 11.6299 16.2676 15.1752C16.2676 18.7206 17.0345 22.1329 18.5471 25.3152L18.5471 25.3152C18.8236 25.8969 19.4025 26.2366 20.0053 26.2366C20.2378 26.2366 20.4738 26.1861 20.6969 26.0801C21.5017 25.6976 21.8438 24.7352 21.4614 23.9303Z" fill="white" stroke="white" stroke-width="0.5"/>
<path d="M58.3733 23.9303L58.3733 23.9303C59.6786 21.1838 60.3405 18.2387 60.3405 15.1754C60.3405 12.112 59.6786 9.16702 58.3733 6.42051L58.3733 23.9303ZM58.3733 23.9303C57.9908 24.7354 58.3333 25.6978 59.138 26.0802C59.3611 26.1863 59.5971 26.2368 59.8295 26.2368M58.3733 23.9303L59.8295 26.2368M59.8295 26.2368C60.4323 26.2368 61.0112 25.8971 61.2876 25.3155M59.8295 26.2368L61.2876 25.3155M61.2876 25.3155C62.8002 22.1329 63.5671 18.7208 63.5671 15.1756M61.2876 25.3155L63.5671 15.1756M63.5671 15.1756C63.5671 11.6304 62.8002 8.21828 61.2876 5.0356M63.5671 15.1756L61.2876 5.0356M61.2876 5.0356C60.9051 4.23066 59.9427 3.88844 59.138 4.2709C58.3333 4.65335 57.9908 5.61574 58.3733 6.42051L61.2876 5.0356Z" fill="white" stroke="white" stroke-width="0.5"/>
</g>
<defs>
<clipPath id="clip0_73:555">
<rect width="93" height="93" fill="white"/>
</clipPath>
</defs>
</svg>
