<svg width="83" height="83" viewBox="0 0 83 83" fill="none" xmlns="http://www.w3.org/2000/svg">
<g clip-path="url(#clip0_73:549)">
<path d="M82.6439 75.215L44.0172 5.01473C43.5123 4.09697 42.5474 3.52673 41.5 3.52673C40.4524 3.52673 39.488 4.09697 38.9828 5.01473L0.355909 75.215C-0.133885 76.105 -0.117107 77.1876 0.399809 78.0623C0.916725 78.9369 1.85701 79.4733 2.87291 79.4733H80.1269C81.143 79.4733 82.0833 78.9369 82.6002 78.0623C83.1171 77.1876 83.1337 76.105 82.6439 75.215ZM7.73316 73.727L41.5 12.3593L75.2668 73.727H7.73316Z" fill="white"/>
<path d="M37.9004 32.887V53.6535C37.9004 55.6416 39.5125 57.254 41.5009 57.254C43.489 57.254 45.1014 55.6416 45.1014 53.6535V32.887C45.1014 30.8986 43.489 29.2865 41.5009 29.2865C39.5125 29.2865 37.9004 30.8988 37.9004 32.887Z" fill="white"/>
<path d="M41.4994 60.9919C39.4086 60.9919 37.707 62.6925 37.707 64.7843C37.707 66.8755 39.4086 68.5768 41.4994 68.5768C43.5903 68.5768 45.2918 66.8755 45.2918 64.7843C45.2918 62.6928 43.5901 60.9919 41.4994 60.9919Z" fill="white"/>
</g>
<defs>
<clipPath id="clip0_73:549">
<rect width="83" height="83" fill="white"/>
</clipPath>
</defs>
</svg>
