<svg width="83" height="83" viewBox="0 0 83 83" fill="none" xmlns="http://www.w3.org/2000/svg">
<g clip-path="url(#clip0_73:385)">
<path d="M13.3807 33.6445C12.8875 34.2912 12.2441 34.8226 11.4952 35.1914C6.55719 37.6237 3.49219 42.5252 3.49219 47.9844C3.49219 48.5156 3.69017 49.9021 4.06645 51.4015C4.6759 53.8252 4.55044 56.3456 3.70356 58.6887C3.57875 59.0354 3.51373 59.2964 3.49311 59.4037C3.5308 60.9964 4.81987 62.2857 6.41258 62.3233C6.52015 62.3025 6.78119 62.2374 7.12974 62.1121C7.12986 62.1121 7.12998 62.112 7.1301 62.112L7.21468 62.3473L13.3807 33.6445ZM13.3807 33.6445H22.2889H13.3807ZM-0.237252 59.082H-0.25V59.332C-0.25 63.0456 2.77082 66.0664 6.48438 66.0664C7.11219 66.0664 7.96621 65.7881 8.3987 65.6326L8.39903 65.6325C10.0378 65.0406 11.8028 64.9529 13.5038 65.3797C15.1294 65.7876 16.8677 66.0664 17.832 66.0664C18.7964 66.0664 20.5347 65.7876 22.1608 65.3793L22.1608 65.3793C23.8608 64.9522 25.625 65.0396 27.2669 65.6331L27.2673 65.6332C27.6979 65.7881 28.5517 66.0664 29.1795 66.0664C32.8931 66.0664 35.9139 63.0456 35.9139 59.332C35.9139 58.7042 35.6358 57.8503 35.4801 57.4175L35.48 57.4172C34.8879 55.7788 34.8003 54.014 35.2271 52.3126C35.6353 50.6865 35.9139 48.9482 35.9139 47.9844C35.9139 41.0889 32.0458 34.8999 25.8223 31.8343C25.1706 31.5132 24.8265 30.8223 25.0303 30.1726L29.1792 22.9819L28.9626 22.8569L29.1792 22.9819C29.5132 22.4029 29.513 21.6897 29.1786 21.1109C28.8445 20.5322 28.2269 20.1758 27.5586 20.1758C27.4931 20.1758 27.4488 20.1684 27.4097 20.1541C27.3701 20.1396 27.3219 20.1128 27.2562 20.0564C27.1162 19.9365 26.9337 19.7163 26.6238 19.3031L26.6238 19.3031L26.6138 19.2897C25.9379 18.3887 24.8465 16.9336 22.6953 16.9336C20.5441 16.9336 19.4527 18.3887 18.7768 19.2897L18.7668 19.3031L18.7668 19.3031C18.457 19.7163 18.2744 19.9365 18.1345 20.0564C18.0687 20.1128 18.0205 20.1396 17.9809 20.1541C17.9418 20.1684 17.8975 20.1758 17.832 20.1758C17.7665 20.1758 17.7223 20.1684 17.6832 20.1541C17.6436 20.1396 17.5953 20.1128 17.5296 20.0564C17.3896 19.9365 17.2071 19.7163 16.8973 19.3031L16.8973 19.3031L16.8872 19.2897C16.2114 18.3887 15.1199 16.9336 12.9688 16.9336C10.8176 16.9336 9.72613 18.3887 9.05029 19.2897L9.04025 19.3031L9.04023 19.3031C8.73039 19.7163 8.54788 19.9365 8.40791 20.0564C8.34217 20.1128 8.29391 20.1396 8.25432 20.1541C8.21522 20.1684 8.17098 20.1758 8.10547 20.1758C7.43716 20.1758 6.81951 20.5322 6.4853 21.1111C6.15092 21.6898 6.15074 22.4031 6.48473 22.982L6.48474 22.982L10.4776 29.9025H4.86328C4.10748 29.9025 3.49219 29.2872 3.49219 28.5314C3.49219 27.498 2.65432 26.6603 1.62109 26.6603C0.587871 26.6603 -0.25 27.498 -0.25 28.5314C-0.25 31.3512 2.04371 33.6431 4.86328 33.6431H6.89797C2.4224 37.0106 -0.25 42.254 -0.25 47.9844C-0.25 48.9482 0.0287762 50.6865 0.436915 52.3134L0.436948 52.3135C0.864332 54.0131 0.776637 55.7774 0.183129 57.4194L0.183008 57.4198C0.0478566 57.7954 -0.181041 58.4932 -0.237252 59.082ZM12.034 21.5484L12.034 21.5484C12.3438 21.1353 12.5263 20.9151 12.6663 20.7951C12.7321 20.7388 12.7803 20.712 12.8199 20.6974C12.859 20.6831 12.9032 20.6758 12.9688 20.6758C13.0343 20.6758 13.0785 20.6831 13.1176 20.6974C13.1572 20.712 13.2054 20.7388 13.2712 20.7951C13.4112 20.9151 13.5937 21.1353 13.9035 21.5484L13.9035 21.5485L13.9136 21.5618C14.5894 22.4629 15.6808 23.918 17.832 23.918C19.9832 23.918 21.0747 22.4629 21.7505 21.5618L21.7605 21.5485L21.7606 21.5484C22.0704 21.1353 22.2529 20.9151 22.3929 20.7951C22.4586 20.7388 22.5069 20.712 22.5465 20.6974C22.5856 20.6831 22.6298 20.6758 22.6953 20.6758C22.7608 20.6758 22.8051 20.6831 22.8442 20.6974C22.8838 20.712 22.932 20.7388 22.9977 20.7951C23.1377 20.9151 23.3202 21.1353 23.63 21.5484C23.6301 21.5484 23.6301 21.5484 23.6301 21.5484L23.6346 21.5545C23.9422 21.9649 24.3388 22.4939 24.88 22.9455L21.7084 28.4425L21.7084 28.4425C21.5467 28.7231 21.355 29.2879 21.2728 29.9023H14.3912C14.3091 29.2878 14.1174 28.7231 13.9557 28.4425L13.9556 28.4425L10.7841 22.9455C11.3242 22.4949 11.7201 21.9669 12.0276 21.557L12.034 21.5484ZM14.4145 61.7498L14.4145 61.7498L32.1948 58.6016L31.9595 58.6862C31.9596 58.6863 31.9596 58.6864 31.9596 58.6865C32.085 59.0351 32.15 59.2963 32.1708 59.404C32.133 60.9967 30.8441 62.2858 29.2513 62.3234C29.1437 62.3026 28.8828 62.2376 28.536 62.113C26.1927 61.2659 23.6725 61.1409 21.2488 61.7499C19.75 62.1262 18.3636 62.3242 17.832 62.3242C17.3005 62.3242 15.9141 62.1262 14.4145 61.7498Z" fill="white" stroke="white" stroke-width="0.5"/>
<path d="M16.7344 52.0481L16.7344 52.048C16.1136 51.2221 14.9409 51.0549 14.1145 51.6758C13.2882 52.2964 13.1215 53.4692 13.7422 54.2955L13.9418 54.1456L13.7422 54.2955C14.3157 55.059 15.0906 55.6376 15.9609 55.981V57.7109C15.9609 58.7444 16.7988 59.582 17.832 59.582C18.8653 59.582 19.7031 58.7444 19.7031 57.7109V55.9843C21.599 55.2362 22.9453 53.3868 22.9453 51.2266C22.9453 48.4069 20.6517 46.1133 17.832 46.1133C17.0762 46.1133 16.4609 45.498 16.4609 44.7422C16.4609 43.9864 17.0762 43.3711 17.832 43.3711C18.2678 43.3711 18.6668 43.5706 18.9296 43.9206L18.9297 43.9207C19.5503 44.7467 20.7231 44.9136 21.5495 44.293L21.5496 44.293C22.3758 43.6724 22.5425 42.4995 21.9219 41.6733L21.9219 41.6733C21.3484 40.9098 20.5735 40.3311 19.7031 39.9877V38.2578C19.7031 37.2244 18.8653 36.3867 17.832 36.3867C16.7988 36.3867 15.9609 37.2244 15.9609 38.2578V39.9844C14.065 40.7325 12.7188 42.582 12.7188 44.7422C12.7188 47.5619 15.0123 49.8555 17.832 49.8555C18.5878 49.8555 19.2031 50.4708 19.2031 51.2266C19.2031 51.9824 18.5878 52.5977 17.832 52.5977C17.3962 52.5977 16.9973 52.3982 16.7344 52.0481Z" fill="white" stroke="white" stroke-width="0.5"/>
<path d="M64.6816 55.8398C63.6484 55.8398 62.8105 56.6775 62.8105 57.7109C62.8105 58.7444 63.6484 59.582 64.6816 59.582H67.9238C68.9571 59.582 69.7949 58.7444 69.7949 57.7109C69.7949 56.6775 68.9571 55.8398 67.9238 55.8398H64.6816Z" fill="white" stroke="white" stroke-width="0.5"/>
<path d="M76.7656 51.2266C76.7656 50.1931 75.9278 49.3555 74.8945 49.3555H64.6816C63.6484 49.3555 62.8105 50.1931 62.8105 51.2266C62.8105 52.26 63.6484 53.0977 64.6816 53.0977H74.8945C75.9278 53.0977 76.7656 52.26 76.7656 51.2266Z" fill="white" stroke="white" stroke-width="0.5"/>
<path d="M60.932 69.1499L60.9321 69.1498C61.7774 68.5549 62.9442 68.7575 63.5392 69.6023C64.1342 70.4471 63.9318 71.6144 63.087 72.2095C56.747 76.6749 49.2815 79.0351 41.4995 79.0351C35.2801 79.0351 29.244 77.5196 23.8308 74.6249L23.8537 74.7102C24.1212 75.7083 23.5289 76.7344 22.5307 77.0019L60.932 69.1499ZM60.932 69.1499C55.2261 73.1688 48.5071 75.293 41.4995 75.293C35.9516 75.293 30.5676 73.9547 25.7314 71.3973M60.932 69.1499L25.7314 71.3973M25.7314 71.3973L25.7728 71.3862L25.7728 71.3862C26.771 71.1189 27.3634 70.0928 27.0958 69.0947C26.8283 68.0966 25.8023 67.5039 24.8043 67.7716C24.8043 67.7717 24.8043 67.7717 24.8042 67.7717L20.3755 68.9583L25.7314 71.3973ZM19.0524 71.25C18.7849 70.2517 19.378 69.2255 20.3755 68.9583L19.0524 71.25ZM19.0524 71.25C19.0524 71.25 19.0524 71.25 19.0524 71.25M19.0524 71.25L19.0524 71.25M19.0524 71.25L20.2391 75.6788L20.4806 75.6141M19.0524 71.25L20.4806 75.6141M20.4806 75.6141L20.2391 75.6788C20.5066 76.6774 21.5334 77.2694 22.5306 77.0019L20.4806 75.6141Z" fill="white" stroke="white" stroke-width="0.5"/>
<path d="M22.0679 13.85L22.068 13.8499C27.7737 9.83123 34.4929 7.70703 41.5003 7.70703C47.0473 7.70703 52.4316 9.04557 57.2681 11.6027L57.227 11.6137C56.2288 11.8811 55.6364 12.9072 55.904 13.9053C56.1715 14.9038 57.1981 15.4959 58.1955 15.2283C58.1955 15.2283 58.1956 15.2283 58.1956 15.2283L62.6243 14.0417C63.6218 13.7745 64.215 12.7483 63.9474 11.75L62.7607 7.32116L62.7607 7.32113C62.4932 6.32324 61.4674 5.73037 60.4692 5.9981C59.471 6.26549 58.8786 7.29161 59.1462 8.28983L59.1691 8.37536C53.7556 5.4807 47.7189 3.96484 41.5003 3.96484C33.7183 3.96484 26.2528 6.32508 19.9129 10.7905C19.0681 11.3855 18.8656 12.5529 19.4606 13.3977C20.0528 14.2387 21.2188 14.4476 22.0679 13.85Z" fill="white" stroke="white" stroke-width="0.5"/>
<path d="M81.3789 43.3711C82.4123 43.3711 83.25 42.5334 83.25 41.5C83.25 40.4666 82.4123 39.6289 81.3789 39.6289C80.3455 39.6289 79.5078 40.4666 79.5078 41.5C79.5078 42.5334 80.3455 43.3711 81.3789 43.3711Z" fill="white" stroke="white" stroke-width="0.5"/>
<path d="M81.3789 16.9336H47.9844C46.9512 16.9336 46.1133 17.7713 46.1133 18.8047V64.1953C46.1133 65.2287 46.9512 66.0664 47.9844 66.0664H81.3789C82.4121 66.0664 83.25 65.2287 83.25 64.1953V48.7949C83.25 47.7615 82.4121 46.9238 81.3789 46.9238C80.3457 46.9238 79.5078 47.7615 79.5078 48.7949V62.3242H49.8555V20.6758H56.3262V36.6367C56.3262 37.3455 56.7266 37.9933 57.3605 38.3102L60.6027 39.9313C61.1293 40.1946 61.7495 40.1946 62.276 39.9313L64.6816 38.7286L67.0871 39.9313C67.6128 40.1942 68.2328 40.1952 68.7604 39.9313L72.0026 38.3102C72.0026 38.3102 72.0026 38.3102 72.0026 38.3102C72.6367 37.9933 73.0371 37.3455 73.0371 36.6367V20.6758H79.5078V34.2051C79.5078 35.2385 80.3457 36.0762 81.3789 36.0762C82.4121 36.0762 83.25 35.2385 83.25 34.2051V18.8047C83.25 17.7713 82.4121 16.9336 81.3789 16.9336ZM69.2949 20.6758V35.4804L67.9238 36.1659L65.5184 34.9632C64.9918 34.6999 64.3716 34.6999 63.845 34.9632L61.4395 36.1659L60.0684 35.4804V20.6758H69.2949Z" fill="white" stroke="white" stroke-width="0.5"/>
</g>
<defs>
<clipPath id="clip0_73:385">
<rect width="83" height="83" fill="white"/>
</clipPath>
</defs>
</svg>
