<svg width="47" height="47" viewBox="0 0 47 47" fill="none" xmlns="http://www.w3.org/2000/svg">
<g clip-path="url(#clip0_189:12)">
<path d="M42.4516 12.5554H28.8065C27.9691 12.5554 27.2903 13.2342 27.2903 14.0716C27.2903 14.9089 27.9691 15.5877 28.8065 15.5877H34.9798C35.6466 20.2287 39.3269 23.9089 43.9677 24.5757V32.3739C39.3268 33.0407 35.6466 36.7209 34.9798 41.3619H12.0202C11.3534 36.7209 7.67313 33.0407 3.03226 32.3739V24.5757C7.67322 23.9089 11.3534 20.2287 12.0202 15.5877H18.1935C19.0309 15.5877 19.7097 14.9089 19.7097 14.0716C19.7097 13.2342 19.0309 12.5554 18.1935 12.5554H4.54839C2.04033 12.5554 0 14.5958 0 17.1038V39.8458C0 42.3538 2.04033 44.3941 4.54839 44.3941H42.4516C44.9597 44.3941 47 42.3538 47 39.8458V17.1038C47 14.5958 44.9597 12.5554 42.4516 12.5554ZM38.0558 15.5877H42.4516C43.2876 15.5877 43.9677 16.2679 43.9677 17.1038V21.4996C41.0018 20.8952 38.6602 18.5536 38.0558 15.5877ZM4.54839 15.5877H8.94421C8.33975 18.5536 5.99819 20.8952 3.03226 21.4996V17.1038C3.03226 16.2678 3.71243 15.5877 4.54839 15.5877ZM3.03226 39.8458V35.4499C5.99819 36.0544 8.33975 38.396 8.94421 41.3619H4.54839C3.71243 41.3619 3.03226 40.6817 3.03226 39.8458ZM42.4516 41.3619H38.0558C38.6602 38.396 41.0018 36.0544 43.9677 35.4499V39.8458C43.9677 40.6817 43.2876 41.3619 42.4516 41.3619ZM15.1613 28.4748C15.1613 33.0727 18.9021 36.8135 23.5 36.8135C28.0979 36.8135 31.8387 33.0727 31.8387 28.4748C31.8387 23.8768 28.0979 20.1361 23.5 20.1361C18.9021 20.1361 15.1613 23.8767 15.1613 28.4748ZM28.8065 28.4748C28.8065 31.4008 26.426 33.7812 23.5 33.7812C20.574 33.7812 18.1935 31.4008 18.1935 28.4748C18.1935 25.5487 20.574 23.1683 23.5 23.1683C26.426 23.1683 28.8065 25.5487 28.8065 28.4748ZM11.371 26.9587C12.2083 26.9587 12.8871 27.6374 12.8871 28.4748C12.8871 29.3122 12.2083 29.9909 11.371 29.9909H10.6129C9.77553 29.9909 9.09677 29.3122 9.09677 28.4748C9.09677 27.6374 9.77553 26.9587 10.6129 26.9587H11.371ZM35.629 29.9909C34.7917 29.9909 34.1129 29.3122 34.1129 28.4748C34.1129 27.6374 34.7917 26.9587 35.629 26.9587H36.3871C37.2245 26.9587 37.9032 27.6374 37.9032 28.4748C37.9032 29.3122 37.2245 29.9909 36.3871 29.9909H35.629ZM19.301 8.32098C18.7088 7.72893 18.7088 6.76894 19.301 6.17689L22.428 3.04987C23.0201 2.45782 23.98 2.45782 24.5721 3.04987L27.6991 6.17689C28.2913 6.76894 28.2913 7.72893 27.6991 8.32098C27.107 8.91312 26.1471 8.91303 25.555 8.32098L25.0161 7.78218V15.0191C25.0161 15.8565 24.3374 16.5353 23.5 16.5353C22.6626 16.5353 21.9839 15.8565 21.9839 15.0191V7.78218L21.445 8.32107C20.8529 8.91303 19.893 8.91303 19.301 8.32098Z" fill="#5D3DE3"/>
</g>
<defs>
<clipPath id="clip0_189:12">
<rect width="47" height="47" fill="white"/>
</clipPath>
</defs>
</svg>
