<svg width="47" height="47" viewBox="0 0 47 47" fill="none" xmlns="http://www.w3.org/2000/svg">
<g clip-path="url(#clip0_189:7)">
<path d="M34.4162 33.9554C33.6812 33.5631 32.8331 33.4058 32.0129 33.2536C31.3985 33.1396 30.7632 33.0218 30.4039 32.8301C30.2207 32.7322 30.2207 32.7069 30.2207 32.542C30.2207 32.4444 30.3795 32.2663 30.6832 32.1145C31.435 31.7387 32.4952 31.7694 33.0469 32.1832C33.6554 32.6395 34.5183 32.5161 34.9746 31.9078C35.4309 31.2994 35.3076 30.4364 34.6992 29.98C34.2464 29.6404 33.7119 29.3977 33.1386 29.2533V28.916C33.1386 28.1556 32.5221 27.5391 31.7617 27.5391C31.0013 27.5391 30.3847 28.1556 30.3847 28.916V29.2945C30.064 29.3834 29.7506 29.5018 29.4516 29.6513C28.1902 30.282 27.4668 31.3356 27.4668 32.542C27.4668 33.747 28.0341 34.6867 29.1073 35.2595C29.8422 35.6518 30.6903 35.8091 31.5105 35.9613C32.1249 36.0753 32.7602 36.1931 33.1195 36.3849C33.3027 36.4826 33.3027 36.5081 33.3027 36.6729C33.3027 36.7672 33.1398 36.9489 32.8378 37.0999C32.0867 37.4755 31.0273 37.4449 30.4765 37.0318C29.8682 36.5755 29.0051 36.6989 28.5488 37.3072C28.0925 37.9156 28.2159 38.7787 28.8242 39.2349C29.277 39.5746 29.8116 39.8171 30.3847 39.9614V40.2988C30.3847 41.0593 31.0013 41.6758 31.7617 41.6758C32.5221 41.6758 33.1386 41.0593 33.1386 40.2988V39.9183C33.4586 39.8295 33.7712 39.7122 34.0695 39.563C35.3323 38.9315 36.0566 37.8781 36.0566 36.6728C36.0566 35.4678 35.4894 34.5281 34.4162 33.9554Z" fill="#5D3DE3"/>
<path d="M4.22266 41.4922H5.59961V45.623C5.59961 46.3835 6.21612 47 6.97656 47H31.7617C38.595 47 44.1543 41.4407 44.1543 34.6074C44.1543 28.2396 39.3263 22.979 33.1387 22.2918V18.084C33.1387 17.3235 32.5222 16.707 31.7617 16.707H9.73047C8.97002 16.707 8.35352 17.3235 8.35352 18.084V22.2148H4.22266C3.46221 22.2148 2.8457 22.8314 2.8457 23.5918V29.0996C2.8457 29.8601 3.46221 30.4766 4.22266 30.4766H5.59961V33.2305H4.22266C3.46221 33.2305 2.8457 33.847 2.8457 34.6074V40.1152C2.8457 40.8757 3.46221 41.4922 4.22266 41.4922ZM8.35352 44.2461V41.4922H21.4627C22.1601 42.5321 23.0109 43.4607 23.9821 44.2461H8.35352ZM8.35352 33.2305V30.4756H20.078C19.767 31.3537 19.5521 32.2759 19.4461 33.2305H8.35352ZM41.4004 34.6074C41.4004 39.9222 37.0765 44.2461 31.7617 44.2461C26.447 44.2461 22.123 39.9222 22.123 34.6074C22.123 29.2927 26.447 24.9688 31.7617 24.9688C37.0765 24.9688 41.4004 29.2927 41.4004 34.6074ZM11.1074 19.4609H30.3848V22.2148H11.1074V19.4609ZM5.59961 24.9678H23.9821C23.0109 25.7532 22.1601 26.6828 21.4627 27.7227C20.4717 27.7227 6.50968 27.7227 5.59961 27.7227V24.9678ZM5.59961 35.9844H19.4461C19.5521 36.939 19.767 37.8612 20.078 38.7383C17.516 38.7383 7.3398 38.7383 5.59961 38.7383V35.9844Z" fill="#5D3DE3"/>
<path d="M15.2384 8.26176H16.6153V12.5762C16.6153 13.3367 17.2318 13.9532 17.9923 13.9532H23.5001C24.2605 13.9532 24.877 13.3367 24.877 12.5762V8.26176H26.254C26.8109 8.26176 27.313 7.92625 27.5261 7.41173C27.7392 6.8972 27.6214 6.30493 27.2276 5.91112L21.7198 0.40331C21.1821 -0.134437 20.3102 -0.134437 19.7725 0.40331L14.2647 5.91112C13.8709 6.30493 13.7531 6.8972 13.9661 7.41173C14.1793 7.92625 14.6814 8.26176 15.2384 8.26176ZM20.7462 3.32429L23.0168 5.59497C22.4947 5.79068 22.1231 6.29437 22.1231 6.88481V11.1993H19.3692V6.88481C19.3692 6.29437 18.9976 5.79068 18.4755 5.59497L20.7462 3.32429Z" fill="#5D3DE3"/>
</g>
<defs>
<clipPath id="clip0_189:7">
<rect width="47" height="47" fill="white"/>
</clipPath>
</defs>
</svg>
