<svg width="43" height="43" viewBox="0 0 43 43" fill="none" xmlns="http://www.w3.org/2000/svg">
<g clip-path="url(#clip0_189:14)">
<path d="M12.6465 0H15.1759V2.52941H12.6465V0Z" fill="#5D3DE3"/>
<path d="M7.58789 0H10.1173V2.52941H7.58789V0Z" fill="#5D3DE3"/>
<path d="M2.5293 0H5.05871V2.52941H2.5293V0Z" fill="#5D3DE3"/>
<path d="M10.1172 5.05884H12.6466V7.58825H10.1172V5.05884Z" fill="#5D3DE3"/>
<path d="M5.05859 5.05884H7.58801V7.58825H5.05859V5.05884Z" fill="#5D3DE3"/>
<path d="M0 5.05884H2.52941V7.58825H0V5.05884Z" fill="#5D3DE3"/>
<path d="M24.5879 8.69934L31.6752 3.99432L33.0739 6.10125L25.9866 10.8063L24.5879 8.69934Z" fill="#5D3DE3"/>
<path d="M31.043 10.3176L40.978 3.72202L42.3767 5.82895L32.4417 12.4245L31.043 10.3176Z" fill="#5D3DE3"/>
<path d="M29.6725 20.3212C29.3583 18.8968 28.2369 17.7306 26.7222 17.424C25.7288 17.223 24.7167 17.4207 23.8722 17.9808L22.2285 19.071V18.9706C22.2285 17.9996 21.8614 17.113 21.2593 16.4412C21.8615 15.7694 22.2285 14.8828 22.2285 13.9118C22.2285 11.8196 20.5264 10.1177 18.4344 10.1177C16.3423 10.1177 14.6402 11.8196 14.6402 13.9118C14.6402 14.8828 15.0073 15.7694 15.6094 16.4412C15.0073 17.113 14.6402 17.9996 14.6402 18.9706V24.1039L11.2248 26.3693C9.48133 27.5256 9.00369 29.8847 10.1601 31.6282C10.4046 31.9969 10.7037 32.3075 11.0385 32.5595L0 39.8092V43.0001H43V11.568L29.6725 20.3212ZM18.4344 12.6471C19.1317 12.6471 19.6991 13.2144 19.6991 13.9118C19.6991 14.6092 19.1317 15.1765 18.4344 15.1765C17.737 15.1765 17.1696 14.6092 17.1696 13.9118C17.1696 13.2144 17.737 12.6471 18.4344 12.6471ZM17.1696 22.4262V18.9706C17.1696 18.2733 17.737 17.7059 18.4344 17.7059C19.1317 17.7059 19.6991 18.2733 19.6991 18.9706V20.7486C19.2218 21.0651 17.9015 21.9408 17.1696 22.4262ZM12.6228 28.4772C15.4625 26.5936 24.0347 20.908 25.2703 20.0886C25.8528 19.7023 26.6368 19.8611 27.0232 20.4436C27.4096 21.0261 27.2509 21.8101 26.6683 22.1966L14.0209 30.585C13.4396 30.9705 12.6533 30.8112 12.2678 30.2301C11.8824 29.649 12.0417 28.8626 12.6228 28.4772ZM40.4706 16.2556V23.2469C36.111 24.3708 32.4354 27.4027 30.5103 31.5216C29.8082 33.0235 28.3421 34.1147 26.3089 34.1493C21.5917 34.2326 17.3862 36.6967 14.9146 40.4707H3.60062L40.4706 16.2556ZM18.0993 40.4706C20.2027 38.1374 23.2448 36.6971 26.4712 36.6769C29.1666 36.6566 31.6515 35.0534 32.8017 32.5926C34.3126 29.3599 37.116 26.9299 40.4706 25.8755V40.4706H18.0993Z" fill="#5D3DE3"/>
</g>
<defs>
<clipPath id="clip0_189:14">
<rect width="43" height="43" fill="white"/>
</clipPath>
</defs>
</svg>
