<svg width="39" height="39" viewBox="0 0 39 39" fill="none" xmlns="http://www.w3.org/2000/svg">
<g clip-path="url(#clip0_73:343)">
<mask id="path-1-outside-1_73:343" maskUnits="userSpaceOnUse" x="23.584" y="23.3485" width="12" height="16" fill="black">
<rect fill="white" x="23.584" y="23.3485" width="12" height="16"/>
<path d="M32.308 32.8583L31.4487 32.5691C31.3219 32.5269 31.2068 32.4537 31.113 32.3549C30.964 32.1996 30.8819 31.994 30.8819 31.7759V30.8919L31.138 30.7356C31.6715 30.4104 32.0027 29.8198 32.0027 29.1946V27.6742C32.0027 27.6721 32.0027 27.6703 32.0027 27.6685V26.3409C32.0027 25.2423 31.1101 24.3485 30.0127 24.3485H28.2569C27.1595 24.3485 26.2669 25.2423 26.2669 26.3409V27.4841V27.4858V29.1946C26.2669 29.8198 26.5984 30.4104 27.1319 30.7356L27.3887 30.8922V31.7759C27.3887 32.0077 27.2908 32.232 27.1215 32.3903C27.0346 32.4712 26.9328 32.5316 26.8195 32.5697L25.9613 32.8583C25.5147 33.0086 25.1166 33.249 24.7768 33.5722C24.7735 33.5751 24.7705 33.5781 24.7673 33.5811C24.764 33.5841 24.7607 33.587 24.7575 33.59C24.7542 33.5933 24.7515 33.5965 24.7482 33.5998C24.7402 33.6082 24.7322 33.6165 24.7244 33.6254C24.7191 33.6314 24.714 33.6376 24.709 33.6439C24.7027 33.6519 24.6965 33.6599 24.6905 33.6683C24.6852 33.676 24.6798 33.6837 24.6747 33.6918C24.6703 33.6989 24.6655 33.706 24.6613 33.7135C24.656 33.7227 24.6509 33.7319 24.6462 33.7412C24.6429 33.748 24.6393 33.7548 24.6364 33.7617C24.6319 33.7718 24.6274 33.7816 24.6236 33.7917C24.6206 33.7989 24.6182 33.806 24.6155 33.8132C24.6123 33.823 24.609 33.8328 24.606 33.8432C24.6039 33.851 24.6018 33.859 24.5998 33.867C24.5977 33.8765 24.5956 33.8858 24.5938 33.895C24.592 33.9042 24.5905 33.9137 24.5893 33.923C24.5882 33.9313 24.5873 33.9396 24.5864 33.948C24.5855 33.9584 24.5849 33.9688 24.5843 33.9792C24.584 33.9866 24.584 33.9944 24.584 34.0018C24.584 34.0128 24.5843 34.0235 24.5849 34.0345C24.5852 34.042 24.5858 34.0497 24.5867 34.0574C24.5876 34.0676 24.589 34.078 24.5905 34.0884C24.592 34.097 24.5935 34.1054 24.5953 34.114C24.5971 34.1229 24.5992 34.1321 24.6012 34.1414C24.6039 34.1512 24.6069 34.161 24.6099 34.1708C24.6123 34.1783 24.6146 34.186 24.6173 34.1934C24.6212 34.2044 24.6256 34.2154 24.6304 34.2268C24.6322 34.2306 24.6334 34.2348 24.6352 34.2387C24.797 34.5915 24.8789 34.9682 24.8789 35.3586V38.2999C24.8789 38.6156 25.1347 38.8712 25.4501 38.8712C25.7655 38.8712 26.0214 38.6156 26.0214 38.2999V35.3586C26.0214 34.9546 25.9589 34.5606 25.8364 34.1821C25.9872 34.0813 26.1506 34.0003 26.3261 33.9411L27.1836 33.6528C27.3381 33.6007 27.4833 33.5308 27.6187 33.4442C27.8558 33.5135 28.0962 33.5659 28.3396 33.5998L27.4794 36.641C27.4261 36.8297 27.4732 37.032 27.6038 37.1778L28.6541 38.3493C28.7592 38.4665 28.9079 38.5352 29.0653 38.5391H29.0796C29.2317 38.5391 29.3778 38.4784 29.4852 38.3701L30.6468 37.1989C30.7959 37.0484 30.8494 36.8279 30.7863 36.6259L29.8345 33.5826C30.0883 33.5412 30.3385 33.4796 30.5846 33.3996C30.7387 33.507 30.9077 33.5933 31.086 33.6528L31.9432 33.9411C32.7882 34.2259 33.356 35.0176 33.356 35.9109V38.2999C33.356 38.6156 33.6115 38.8712 33.9272 38.8712C34.2426 38.8712 34.4985 38.6156 34.4985 38.2999V35.9109C34.4985 34.5267 33.6184 33.2999 32.308 32.8583ZM29.1135 32.5046C28.8767 32.5093 28.6416 32.4927 28.4101 32.4552C28.4893 32.2391 28.5312 32.0094 28.5312 31.7759V31.545C28.7267 31.6149 28.9308 31.65 29.135 31.65C29.3394 31.65 29.5438 31.6146 29.7393 31.5447V31.7759C29.7393 31.9975 29.7756 32.2139 29.8452 32.418C29.6048 32.4697 29.3602 32.4989 29.1135 32.5046ZM27.4098 27.8396L28.4381 27.3028L30.8601 28.0827V29.1944C30.8601 29.4241 30.7387 29.641 30.5429 29.7603L29.4777 30.4098C29.2662 30.5387 29.0037 30.5387 28.7922 30.4098L27.727 29.7603C27.5312 29.641 27.4098 29.4241 27.4098 29.1944V27.8396ZM28.2569 25.4911H30.013C30.4802 25.4911 30.8601 25.8722 30.8601 26.3409V26.8821L28.5607 26.1418C28.4149 26.0948 28.2566 26.1085 28.1209 26.1793L27.4098 26.5507V26.3409C27.4098 25.8722 27.7898 25.4911 28.2569 25.4911ZM29.1004 37.1356L28.6645 36.6494L29.107 35.0849L29.5932 36.6387L29.1004 37.1356Z"/>
</mask>
<path d="M32.308 32.8583L31.4487 32.5691C31.3219 32.5269 31.2068 32.4537 31.113 32.3549C30.964 32.1996 30.8819 31.994 30.8819 31.7759V30.8919L31.138 30.7356C31.6715 30.4104 32.0027 29.8198 32.0027 29.1946V27.6742C32.0027 27.6721 32.0027 27.6703 32.0027 27.6685V26.3409C32.0027 25.2423 31.1101 24.3485 30.0127 24.3485H28.2569C27.1595 24.3485 26.2669 25.2423 26.2669 26.3409V27.4841V27.4858V29.1946C26.2669 29.8198 26.5984 30.4104 27.1319 30.7356L27.3887 30.8922V31.7759C27.3887 32.0077 27.2908 32.232 27.1215 32.3903C27.0346 32.4712 26.9328 32.5316 26.8195 32.5697L25.9613 32.8583C25.5147 33.0086 25.1166 33.249 24.7768 33.5722C24.7735 33.5751 24.7705 33.5781 24.7673 33.5811C24.764 33.5841 24.7607 33.587 24.7575 33.59C24.7542 33.5933 24.7515 33.5965 24.7482 33.5998C24.7402 33.6082 24.7322 33.6165 24.7244 33.6254C24.7191 33.6314 24.714 33.6376 24.709 33.6439C24.7027 33.6519 24.6965 33.6599 24.6905 33.6683C24.6852 33.676 24.6798 33.6837 24.6747 33.6918C24.6703 33.6989 24.6655 33.706 24.6613 33.7135C24.656 33.7227 24.6509 33.7319 24.6462 33.7412C24.6429 33.748 24.6393 33.7548 24.6364 33.7617C24.6319 33.7718 24.6274 33.7816 24.6236 33.7917C24.6206 33.7989 24.6182 33.806 24.6155 33.8132C24.6123 33.823 24.609 33.8328 24.606 33.8432C24.6039 33.851 24.6018 33.859 24.5998 33.867C24.5977 33.8765 24.5956 33.8858 24.5938 33.895C24.592 33.9042 24.5905 33.9137 24.5893 33.923C24.5882 33.9313 24.5873 33.9396 24.5864 33.948C24.5855 33.9584 24.5849 33.9688 24.5843 33.9792C24.584 33.9866 24.584 33.9944 24.584 34.0018C24.584 34.0128 24.5843 34.0235 24.5849 34.0345C24.5852 34.042 24.5858 34.0497 24.5867 34.0574C24.5876 34.0676 24.589 34.078 24.5905 34.0884C24.592 34.097 24.5935 34.1054 24.5953 34.114C24.5971 34.1229 24.5992 34.1321 24.6012 34.1414C24.6039 34.1512 24.6069 34.161 24.6099 34.1708C24.6123 34.1783 24.6146 34.186 24.6173 34.1934C24.6212 34.2044 24.6256 34.2154 24.6304 34.2268C24.6322 34.2306 24.6334 34.2348 24.6352 34.2387C24.797 34.5915 24.8789 34.9682 24.8789 35.3586V38.2999C24.8789 38.6156 25.1347 38.8712 25.4501 38.8712C25.7655 38.8712 26.0214 38.6156 26.0214 38.2999V35.3586C26.0214 34.9546 25.9589 34.5606 25.8364 34.1821C25.9872 34.0813 26.1506 34.0003 26.3261 33.9411L27.1836 33.6528C27.3381 33.6007 27.4833 33.5308 27.6187 33.4442C27.8558 33.5135 28.0962 33.5659 28.3396 33.5998L27.4794 36.641C27.4261 36.8297 27.4732 37.032 27.6038 37.1778L28.6541 38.3493C28.7592 38.4665 28.9079 38.5352 29.0653 38.5391H29.0796C29.2317 38.5391 29.3778 38.4784 29.4852 38.3701L30.6468 37.1989C30.7959 37.0484 30.8494 36.8279 30.7863 36.6259L29.8345 33.5826C30.0883 33.5412 30.3385 33.4796 30.5846 33.3996C30.7387 33.507 30.9077 33.5933 31.086 33.6528L31.9432 33.9411C32.7882 34.2259 33.356 35.0176 33.356 35.9109V38.2999C33.356 38.6156 33.6115 38.8712 33.9272 38.8712C34.2426 38.8712 34.4985 38.6156 34.4985 38.2999V35.9109C34.4985 34.5267 33.6184 33.2999 32.308 32.8583ZM29.1135 32.5046C28.8767 32.5093 28.6416 32.4927 28.4101 32.4552C28.4893 32.2391 28.5312 32.0094 28.5312 31.7759V31.545C28.7267 31.6149 28.9308 31.65 29.135 31.65C29.3394 31.65 29.5438 31.6146 29.7393 31.5447V31.7759C29.7393 31.9975 29.7756 32.2139 29.8452 32.418C29.6048 32.4697 29.3602 32.4989 29.1135 32.5046ZM27.4098 27.8396L28.4381 27.3028L30.8601 28.0827V29.1944C30.8601 29.4241 30.7387 29.641 30.5429 29.7603L29.4777 30.4098C29.2662 30.5387 29.0037 30.5387 28.7922 30.4098L27.727 29.7603C27.5312 29.641 27.4098 29.4241 27.4098 29.1944V27.8396ZM28.2569 25.4911H30.013C30.4802 25.4911 30.8601 25.8722 30.8601 26.3409V26.8821L28.5607 26.1418C28.4149 26.0948 28.2566 26.1085 28.1209 26.1793L27.4098 26.5507V26.3409C27.4098 25.8722 27.7898 25.4911 28.2569 25.4911ZM29.1004 37.1356L28.6645 36.6494L29.107 35.0849L29.5932 36.6387L29.1004 37.1356Z" fill="#5D3DE3"/>
<path d="M32.308 32.8583L31.4487 32.5691C31.3219 32.5269 31.2068 32.4537 31.113 32.3549C30.964 32.1996 30.8819 31.994 30.8819 31.7759V30.8919L31.138 30.7356C31.6715 30.4104 32.0027 29.8198 32.0027 29.1946V27.6742C32.0027 27.6721 32.0027 27.6703 32.0027 27.6685V26.3409C32.0027 25.2423 31.1101 24.3485 30.0127 24.3485H28.2569C27.1595 24.3485 26.2669 25.2423 26.2669 26.3409V27.4841V27.4858V29.1946C26.2669 29.8198 26.5984 30.4104 27.1319 30.7356L27.3887 30.8922V31.7759C27.3887 32.0077 27.2908 32.232 27.1215 32.3903C27.0346 32.4712 26.9328 32.5316 26.8195 32.5697L25.9613 32.8583C25.5147 33.0086 25.1166 33.249 24.7768 33.5722C24.7735 33.5751 24.7705 33.5781 24.7673 33.5811C24.764 33.5841 24.7607 33.587 24.7575 33.59C24.7542 33.5933 24.7515 33.5965 24.7482 33.5998C24.7402 33.6082 24.7322 33.6165 24.7244 33.6254C24.7191 33.6314 24.714 33.6376 24.709 33.6439C24.7027 33.6519 24.6965 33.6599 24.6905 33.6683C24.6852 33.676 24.6798 33.6837 24.6747 33.6918C24.6703 33.6989 24.6655 33.706 24.6613 33.7135C24.656 33.7227 24.6509 33.7319 24.6462 33.7412C24.6429 33.748 24.6393 33.7548 24.6364 33.7617C24.6319 33.7718 24.6274 33.7816 24.6236 33.7917C24.6206 33.7989 24.6182 33.806 24.6155 33.8132C24.6123 33.823 24.609 33.8328 24.606 33.8432C24.6039 33.851 24.6018 33.859 24.5998 33.867C24.5977 33.8765 24.5956 33.8858 24.5938 33.895C24.592 33.9042 24.5905 33.9137 24.5893 33.923C24.5882 33.9313 24.5873 33.9396 24.5864 33.948C24.5855 33.9584 24.5849 33.9688 24.5843 33.9792C24.584 33.9866 24.584 33.9944 24.584 34.0018C24.584 34.0128 24.5843 34.0235 24.5849 34.0345C24.5852 34.042 24.5858 34.0497 24.5867 34.0574C24.5876 34.0676 24.589 34.078 24.5905 34.0884C24.592 34.097 24.5935 34.1054 24.5953 34.114C24.5971 34.1229 24.5992 34.1321 24.6012 34.1414C24.6039 34.1512 24.6069 34.161 24.6099 34.1708C24.6123 34.1783 24.6146 34.186 24.6173 34.1934C24.6212 34.2044 24.6256 34.2154 24.6304 34.2268C24.6322 34.2306 24.6334 34.2348 24.6352 34.2387C24.797 34.5915 24.8789 34.9682 24.8789 35.3586V38.2999C24.8789 38.6156 25.1347 38.8712 25.4501 38.8712C25.7655 38.8712 26.0214 38.6156 26.0214 38.2999V35.3586C26.0214 34.9546 25.9589 34.5606 25.8364 34.1821C25.9872 34.0813 26.1506 34.0003 26.3261 33.9411L27.1836 33.6528C27.3381 33.6007 27.4833 33.5308 27.6187 33.4442C27.8558 33.5135 28.0962 33.5659 28.3396 33.5998L27.4794 36.641C27.4261 36.8297 27.4732 37.032 27.6038 37.1778L28.6541 38.3493C28.7592 38.4665 28.9079 38.5352 29.0653 38.5391H29.0796C29.2317 38.5391 29.3778 38.4784 29.4852 38.3701L30.6468 37.1989C30.7959 37.0484 30.8494 36.8279 30.7863 36.6259L29.8345 33.5826C30.0883 33.5412 30.3385 33.4796 30.5846 33.3996C30.7387 33.507 30.9077 33.5933 31.086 33.6528L31.9432 33.9411C32.7882 34.2259 33.356 35.0176 33.356 35.9109V38.2999C33.356 38.6156 33.6115 38.8712 33.9272 38.8712C34.2426 38.8712 34.4985 38.6156 34.4985 38.2999V35.9109C34.4985 34.5267 33.6184 33.2999 32.308 32.8583ZM29.1135 32.5046C28.8767 32.5093 28.6416 32.4927 28.4101 32.4552C28.4893 32.2391 28.5312 32.0094 28.5312 31.7759V31.545C28.7267 31.6149 28.9308 31.65 29.135 31.65C29.3394 31.65 29.5438 31.6146 29.7393 31.5447V31.7759C29.7393 31.9975 29.7756 32.2139 29.8452 32.418C29.6048 32.4697 29.3602 32.4989 29.1135 32.5046ZM27.4098 27.8396L28.4381 27.3028L30.8601 28.0827V29.1944C30.8601 29.4241 30.7387 29.641 30.5429 29.7603L29.4777 30.4098C29.2662 30.5387 29.0037 30.5387 28.7922 30.4098L27.727 29.7603C27.5312 29.641 27.4098 29.4241 27.4098 29.1944V27.8396ZM28.2569 25.4911H30.013C30.4802 25.4911 30.8601 25.8722 30.8601 26.3409V26.8821L28.5607 26.1418C28.4149 26.0948 28.2566 26.1085 28.1209 26.1793L27.4098 26.5507V26.3409C27.4098 25.8722 27.7898 25.4911 28.2569 25.4911ZM29.1004 37.1356L28.6645 36.6494L29.107 35.0849L29.5932 36.6387L29.1004 37.1356Z" stroke="#5D3DE3" stroke-width="0.8" mask="url(#path-1-outside-1_73:343)"/>
<mask id="path-2-outside-2_73:343" maskUnits="userSpaceOnUse" x="3.60156" y="20.2561" width="21" height="20" fill="black">
<rect fill="white" x="3.60156" y="20.2561" width="21" height="20"/>
<path d="M23.4148 31.7265L22.3579 31.3703C22.1806 31.3108 22.019 31.2084 21.8908 31.0748C21.8908 31.0745 21.8905 31.0742 21.8902 31.0739C21.6819 30.8552 21.5674 30.569 21.5674 30.2673V29.106L21.9467 28.8748C22.5644 28.4981 22.9483 27.8143 22.9483 27.0901V25.2164C22.9483 25.2144 22.9483 25.2126 22.9483 25.2108V23.577C22.9483 22.2972 21.9084 21.2561 20.6304 21.2561H18.4687C17.1908 21.2561 16.1511 22.2972 16.1511 23.577V24.9864V24.9882V27.0901C16.1511 27.8143 16.5347 28.4981 17.1524 28.8748L17.532 29.1063V30.2673C17.532 30.5898 17.3964 30.9017 17.1616 31.1207C17.039 31.2343 16.8977 31.3182 16.7406 31.3706L15.6849 31.7268C14.9107 31.9877 14.2424 32.4938 13.777 33.1544C13.5774 33.0336 13.364 32.9345 13.1382 32.8583L12.2786 32.5691C12.1503 32.5266 12.0378 32.4552 11.9432 32.3558C11.7939 32.1993 11.7114 31.9937 11.7114 31.7759V30.8921L11.9679 30.7356C12.5014 30.4104 12.8326 29.8198 12.8326 29.1946V27.6742C12.8326 27.6721 12.8326 27.6703 12.8326 27.6685V26.3409C12.8326 25.2423 11.94 24.3485 10.8426 24.3485H9.08678C7.98943 24.3485 7.09679 25.2423 7.09679 26.3409V27.484V27.4858V29.1946C7.09679 29.8198 7.42825 30.4104 7.96176 30.7356L8.21824 30.8921V31.7759C8.21824 32.0082 8.12065 32.2323 7.95104 32.3903C7.86386 32.4715 7.7624 32.5319 7.64963 32.5697L6.7918 32.8583C5.48171 33.2999 4.60156 34.5264 4.60156 35.9109V38.2999C4.60156 38.6153 4.85715 38.8711 5.17285 38.8711C5.48825 38.8711 5.74414 38.6153 5.74414 38.2999V35.9109C5.74414 35.0173 6.31186 34.2259 7.1563 33.9411L8.01383 33.6528C8.16825 33.6007 8.31316 33.5305 8.44854 33.4439C8.68569 33.5135 8.9261 33.5659 9.1695 33.5995L8.30929 36.641C8.25603 36.8294 8.30304 37.032 8.43366 37.1778L9.484 38.3493C9.58904 38.4665 9.73781 38.5349 9.89491 38.5391H9.9092C10.0615 38.5391 10.2076 38.4784 10.3151 38.3701L11.4764 37.1986C11.6254 37.0484 11.6793 36.8279 11.6159 36.6259L10.6641 33.5826C10.9179 33.5412 11.1684 33.4796 11.4145 33.3993C11.5692 33.5073 11.7382 33.5936 11.9161 33.6525L12.7734 33.9411C12.9492 34.0003 13.1129 34.0812 13.2634 34.1821C13.1411 34.5606 13.0787 34.9545 13.0787 35.3583V38.2999C13.0787 38.6153 13.3343 38.8711 13.65 38.8711C13.9654 38.8711 14.2212 38.6153 14.2212 38.2999V35.3583C14.2212 34.9682 14.3031 34.5915 14.4649 34.2381C14.772 33.5662 15.3495 33.0452 16.05 32.8092L17.1042 32.4537C17.3029 32.3873 17.4892 32.2948 17.6618 32.1778C18.0147 32.2853 18.3747 32.3593 18.7395 32.4007L17.6386 36.2935C17.5853 36.4818 17.632 36.6845 17.7629 36.8303L19.0558 38.2725C19.1608 38.3894 19.3096 38.4582 19.467 38.462C19.4717 38.4623 19.4765 38.4623 19.4813 38.4623C19.6333 38.4623 19.7794 38.4016 19.8868 38.2933L21.3168 36.8511C21.4659 36.7008 21.5195 36.4804 21.4564 36.2783L20.2382 32.3831C20.6176 32.3314 20.9916 32.2439 21.357 32.1204C21.5504 32.2635 21.7655 32.3769 21.9938 32.4534L23.0494 32.8092C23.1101 32.8295 23.1717 32.8393 23.2321 32.8393C23.4705 32.8393 23.693 32.6887 23.7734 32.4504C23.8745 32.1514 23.7139 31.8273 23.4148 31.7265ZM9.94341 32.5045C9.70657 32.5093 9.47151 32.4926 9.24002 32.4552C9.31886 32.2391 9.36082 32.0094 9.36082 31.7759V31.5447C9.55631 31.6149 9.76072 31.65 9.96484 31.65C10.1693 31.65 10.3734 31.6149 10.5689 31.5447V31.7759C10.5689 31.9972 10.6055 32.2138 10.6748 32.418C10.4347 32.4697 10.1901 32.4989 9.94341 32.5045ZM8.23966 27.8396L9.26798 27.3028L11.6903 28.0827V29.1943C11.6903 29.424 11.5686 29.641 11.3731 29.7603L10.3076 30.4098C10.0964 30.5387 9.83362 30.5387 9.62236 30.4098L8.55685 29.7603C8.36136 29.641 8.23966 29.424 8.23966 29.1943V27.8396ZM9.08708 25.4911H10.8429C11.31 25.4911 11.6903 25.8722 11.6903 26.3409V26.8821L9.39057 26.1418C9.24507 26.0948 9.08648 26.1085 8.9511 26.1793L8.23966 26.5506V26.3409C8.23966 25.8722 8.61993 25.4911 9.08708 25.4911ZM9.93032 37.1356L9.49442 36.6494L9.93717 35.0849L10.4231 36.6387L9.93032 37.1356ZM19.5259 31.2968C19.1718 31.3042 18.8201 31.2727 18.4747 31.2046C18.605 30.9118 18.6749 30.5925 18.6749 30.2673V29.7859C18.9528 29.915 19.2513 29.9805 19.5497 29.9805C19.8484 29.9805 20.1466 29.9147 20.4248 29.7856V30.2673C20.4248 30.5753 20.4858 30.8752 20.6012 31.1528C20.2489 31.2406 19.8895 31.2891 19.5259 31.2968ZM18.4687 22.3987H20.6307C21.2784 22.3987 21.8057 22.9271 21.8057 23.577V24.4247L18.802 23.4574C18.6565 23.4106 18.4982 23.424 18.3625 23.4948L17.2937 24.053V23.577C17.2937 22.9271 17.821 22.3987 18.4687 22.3987ZM17.2937 25.342L18.6794 24.6184L21.8057 25.625V27.0901C21.8057 27.4186 21.6319 27.7286 21.3519 27.8991L20.0404 28.6989C19.7378 28.8834 19.3617 28.8834 19.059 28.6989L17.7475 27.8991C17.4678 27.7286 17.2937 27.4183 17.2937 27.0901V25.342ZM19.5024 37.0588L18.8237 36.3018L19.5089 33.8792L20.2635 36.2911L19.5024 37.0588Z"/>
</mask>
<path d="M23.4148 31.7265L22.3579 31.3703C22.1806 31.3108 22.019 31.2084 21.8908 31.0748C21.8908 31.0745 21.8905 31.0742 21.8902 31.0739C21.6819 30.8552 21.5674 30.569 21.5674 30.2673V29.106L21.9467 28.8748C22.5644 28.4981 22.9483 27.8143 22.9483 27.0901V25.2164C22.9483 25.2144 22.9483 25.2126 22.9483 25.2108V23.577C22.9483 22.2972 21.9084 21.2561 20.6304 21.2561H18.4687C17.1908 21.2561 16.1511 22.2972 16.1511 23.577V24.9864V24.9882V27.0901C16.1511 27.8143 16.5347 28.4981 17.1524 28.8748L17.532 29.1063V30.2673C17.532 30.5898 17.3964 30.9017 17.1616 31.1207C17.039 31.2343 16.8977 31.3182 16.7406 31.3706L15.6849 31.7268C14.9107 31.9877 14.2424 32.4938 13.777 33.1544C13.5774 33.0336 13.364 32.9345 13.1382 32.8583L12.2786 32.5691C12.1503 32.5266 12.0378 32.4552 11.9432 32.3558C11.7939 32.1993 11.7114 31.9937 11.7114 31.7759V30.8921L11.9679 30.7356C12.5014 30.4104 12.8326 29.8198 12.8326 29.1946V27.6742C12.8326 27.6721 12.8326 27.6703 12.8326 27.6685V26.3409C12.8326 25.2423 11.94 24.3485 10.8426 24.3485H9.08678C7.98943 24.3485 7.09679 25.2423 7.09679 26.3409V27.484V27.4858V29.1946C7.09679 29.8198 7.42825 30.4104 7.96176 30.7356L8.21824 30.8921V31.7759C8.21824 32.0082 8.12065 32.2323 7.95104 32.3903C7.86386 32.4715 7.7624 32.5319 7.64963 32.5697L6.7918 32.8583C5.48171 33.2999 4.60156 34.5264 4.60156 35.9109V38.2999C4.60156 38.6153 4.85715 38.8711 5.17285 38.8711C5.48825 38.8711 5.74414 38.6153 5.74414 38.2999V35.9109C5.74414 35.0173 6.31186 34.2259 7.1563 33.9411L8.01383 33.6528C8.16825 33.6007 8.31316 33.5305 8.44854 33.4439C8.68569 33.5135 8.9261 33.5659 9.1695 33.5995L8.30929 36.641C8.25603 36.8294 8.30304 37.032 8.43366 37.1778L9.484 38.3493C9.58904 38.4665 9.73781 38.5349 9.89491 38.5391H9.9092C10.0615 38.5391 10.2076 38.4784 10.3151 38.3701L11.4764 37.1986C11.6254 37.0484 11.6793 36.8279 11.6159 36.6259L10.6641 33.5826C10.9179 33.5412 11.1684 33.4796 11.4145 33.3993C11.5692 33.5073 11.7382 33.5936 11.9161 33.6525L12.7734 33.9411C12.9492 34.0003 13.1129 34.0812 13.2634 34.1821C13.1411 34.5606 13.0787 34.9545 13.0787 35.3583V38.2999C13.0787 38.6153 13.3343 38.8711 13.65 38.8711C13.9654 38.8711 14.2212 38.6153 14.2212 38.2999V35.3583C14.2212 34.9682 14.3031 34.5915 14.4649 34.2381C14.772 33.5662 15.3495 33.0452 16.05 32.8092L17.1042 32.4537C17.3029 32.3873 17.4892 32.2948 17.6618 32.1778C18.0147 32.2853 18.3747 32.3593 18.7395 32.4007L17.6386 36.2935C17.5853 36.4818 17.632 36.6845 17.7629 36.8303L19.0558 38.2725C19.1608 38.3894 19.3096 38.4582 19.467 38.462C19.4717 38.4623 19.4765 38.4623 19.4813 38.4623C19.6333 38.4623 19.7794 38.4016 19.8868 38.2933L21.3168 36.8511C21.4659 36.7008 21.5195 36.4804 21.4564 36.2783L20.2382 32.3831C20.6176 32.3314 20.9916 32.2439 21.357 32.1204C21.5504 32.2635 21.7655 32.3769 21.9938 32.4534L23.0494 32.8092C23.1101 32.8295 23.1717 32.8393 23.2321 32.8393C23.4705 32.8393 23.693 32.6887 23.7734 32.4504C23.8745 32.1514 23.7139 31.8273 23.4148 31.7265ZM9.94341 32.5045C9.70657 32.5093 9.47151 32.4926 9.24002 32.4552C9.31886 32.2391 9.36082 32.0094 9.36082 31.7759V31.5447C9.55631 31.6149 9.76072 31.65 9.96484 31.65C10.1693 31.65 10.3734 31.6149 10.5689 31.5447V31.7759C10.5689 31.9972 10.6055 32.2138 10.6748 32.418C10.4347 32.4697 10.1901 32.4989 9.94341 32.5045ZM8.23966 27.8396L9.26798 27.3028L11.6903 28.0827V29.1943C11.6903 29.424 11.5686 29.641 11.3731 29.7603L10.3076 30.4098C10.0964 30.5387 9.83362 30.5387 9.62236 30.4098L8.55685 29.7603C8.36136 29.641 8.23966 29.424 8.23966 29.1943V27.8396ZM9.08708 25.4911H10.8429C11.31 25.4911 11.6903 25.8722 11.6903 26.3409V26.8821L9.39057 26.1418C9.24507 26.0948 9.08648 26.1085 8.9511 26.1793L8.23966 26.5506V26.3409C8.23966 25.8722 8.61993 25.4911 9.08708 25.4911ZM9.93032 37.1356L9.49442 36.6494L9.93717 35.0849L10.4231 36.6387L9.93032 37.1356ZM19.5259 31.2968C19.1718 31.3042 18.8201 31.2727 18.4747 31.2046C18.605 30.9118 18.6749 30.5925 18.6749 30.2673V29.7859C18.9528 29.915 19.2513 29.9805 19.5497 29.9805C19.8484 29.9805 20.1466 29.9147 20.4248 29.7856V30.2673C20.4248 30.5753 20.4858 30.8752 20.6012 31.1528C20.2489 31.2406 19.8895 31.2891 19.5259 31.2968ZM18.4687 22.3987H20.6307C21.2784 22.3987 21.8057 22.9271 21.8057 23.577V24.4247L18.802 23.4574C18.6565 23.4106 18.4982 23.424 18.3625 23.4948L17.2937 24.053V23.577C17.2937 22.9271 17.821 22.3987 18.4687 22.3987ZM17.2937 25.342L18.6794 24.6184L21.8057 25.625V27.0901C21.8057 27.4186 21.6319 27.7286 21.3519 27.8991L20.0404 28.6989C19.7378 28.8834 19.3617 28.8834 19.059 28.6989L17.7475 27.8991C17.4678 27.7286 17.2937 27.4183 17.2937 27.0901V25.342ZM19.5024 37.0588L18.8237 36.3018L19.5089 33.8792L20.2635 36.2911L19.5024 37.0588Z" fill="#5D3DE3"/>
<path d="M23.4148 31.7265L22.3579 31.3703C22.1806 31.3108 22.019 31.2084 21.8908 31.0748C21.8908 31.0745 21.8905 31.0742 21.8902 31.0739C21.6819 30.8552 21.5674 30.569 21.5674 30.2673V29.106L21.9467 28.8748C22.5644 28.4981 22.9483 27.8143 22.9483 27.0901V25.2164C22.9483 25.2144 22.9483 25.2126 22.9483 25.2108V23.577C22.9483 22.2972 21.9084 21.2561 20.6304 21.2561H18.4687C17.1908 21.2561 16.1511 22.2972 16.1511 23.577V24.9864V24.9882V27.0901C16.1511 27.8143 16.5347 28.4981 17.1524 28.8748L17.532 29.1063V30.2673C17.532 30.5898 17.3964 30.9017 17.1616 31.1207C17.039 31.2343 16.8977 31.3182 16.7406 31.3706L15.6849 31.7268C14.9107 31.9877 14.2424 32.4938 13.777 33.1544C13.5774 33.0336 13.364 32.9345 13.1382 32.8583L12.2786 32.5691C12.1503 32.5266 12.0378 32.4552 11.9432 32.3558C11.7939 32.1993 11.7114 31.9937 11.7114 31.7759V30.8921L11.9679 30.7356C12.5014 30.4104 12.8326 29.8198 12.8326 29.1946V27.6742C12.8326 27.6721 12.8326 27.6703 12.8326 27.6685V26.3409C12.8326 25.2423 11.94 24.3485 10.8426 24.3485H9.08678C7.98943 24.3485 7.09679 25.2423 7.09679 26.3409V27.484V27.4858V29.1946C7.09679 29.8198 7.42825 30.4104 7.96176 30.7356L8.21824 30.8921V31.7759C8.21824 32.0082 8.12065 32.2323 7.95104 32.3903C7.86386 32.4715 7.7624 32.5319 7.64963 32.5697L6.7918 32.8583C5.48171 33.2999 4.60156 34.5264 4.60156 35.9109V38.2999C4.60156 38.6153 4.85715 38.8711 5.17285 38.8711C5.48825 38.8711 5.74414 38.6153 5.74414 38.2999V35.9109C5.74414 35.0173 6.31186 34.2259 7.1563 33.9411L8.01383 33.6528C8.16825 33.6007 8.31316 33.5305 8.44854 33.4439C8.68569 33.5135 8.9261 33.5659 9.1695 33.5995L8.30929 36.641C8.25603 36.8294 8.30304 37.032 8.43366 37.1778L9.484 38.3493C9.58904 38.4665 9.73781 38.5349 9.89491 38.5391H9.9092C10.0615 38.5391 10.2076 38.4784 10.3151 38.3701L11.4764 37.1986C11.6254 37.0484 11.6793 36.8279 11.6159 36.6259L10.6641 33.5826C10.9179 33.5412 11.1684 33.4796 11.4145 33.3993C11.5692 33.5073 11.7382 33.5936 11.9161 33.6525L12.7734 33.9411C12.9492 34.0003 13.1129 34.0812 13.2634 34.1821C13.1411 34.5606 13.0787 34.9545 13.0787 35.3583V38.2999C13.0787 38.6153 13.3343 38.8711 13.65 38.8711C13.9654 38.8711 14.2212 38.6153 14.2212 38.2999V35.3583C14.2212 34.9682 14.3031 34.5915 14.4649 34.2381C14.772 33.5662 15.3495 33.0452 16.05 32.8092L17.1042 32.4537C17.3029 32.3873 17.4892 32.2948 17.6618 32.1778C18.0147 32.2853 18.3747 32.3593 18.7395 32.4007L17.6386 36.2935C17.5853 36.4818 17.632 36.6845 17.7629 36.8303L19.0558 38.2725C19.1608 38.3894 19.3096 38.4582 19.467 38.462C19.4717 38.4623 19.4765 38.4623 19.4813 38.4623C19.6333 38.4623 19.7794 38.4016 19.8868 38.2933L21.3168 36.8511C21.4659 36.7008 21.5195 36.4804 21.4564 36.2783L20.2382 32.3831C20.6176 32.3314 20.9916 32.2439 21.357 32.1204C21.5504 32.2635 21.7655 32.3769 21.9938 32.4534L23.0494 32.8092C23.1101 32.8295 23.1717 32.8393 23.2321 32.8393C23.4705 32.8393 23.693 32.6887 23.7734 32.4504C23.8745 32.1514 23.7139 31.8273 23.4148 31.7265ZM9.94341 32.5045C9.70657 32.5093 9.47151 32.4926 9.24002 32.4552C9.31886 32.2391 9.36082 32.0094 9.36082 31.7759V31.5447C9.55631 31.6149 9.76072 31.65 9.96484 31.65C10.1693 31.65 10.3734 31.6149 10.5689 31.5447V31.7759C10.5689 31.9972 10.6055 32.2138 10.6748 32.418C10.4347 32.4697 10.1901 32.4989 9.94341 32.5045ZM8.23966 27.8396L9.26798 27.3028L11.6903 28.0827V29.1943C11.6903 29.424 11.5686 29.641 11.3731 29.7603L10.3076 30.4098C10.0964 30.5387 9.83362 30.5387 9.62236 30.4098L8.55685 29.7603C8.36136 29.641 8.23966 29.424 8.23966 29.1943V27.8396ZM9.08708 25.4911H10.8429C11.31 25.4911 11.6903 25.8722 11.6903 26.3409V26.8821L9.39057 26.1418C9.24507 26.0948 9.08648 26.1085 8.9511 26.1793L8.23966 26.5506V26.3409C8.23966 25.8722 8.61993 25.4911 9.08708 25.4911ZM9.93032 37.1356L9.49442 36.6494L9.93717 35.0849L10.4231 36.6387L9.93032 37.1356ZM19.5259 31.2968C19.1718 31.3042 18.8201 31.2727 18.4747 31.2046C18.605 30.9118 18.6749 30.5925 18.6749 30.2673V29.7859C18.9528 29.915 19.2513 29.9805 19.5497 29.9805C19.8484 29.9805 20.1466 29.9147 20.4248 29.7856V30.2673C20.4248 30.5753 20.4858 30.8752 20.6012 31.1528C20.2489 31.2406 19.8895 31.2891 19.5259 31.2968ZM18.4687 22.3987H20.6307C21.2784 22.3987 21.8057 22.9271 21.8057 23.577V24.4247L18.802 23.4574C18.6565 23.4106 18.4982 23.424 18.3625 23.4948L17.2937 24.053V23.577C17.2937 22.9271 17.821 22.3987 18.4687 22.3987ZM17.2937 25.342L18.6794 24.6184L21.8057 25.625V27.0901C21.8057 27.4186 21.6319 27.7286 21.3519 27.8991L20.0404 28.6989C19.7378 28.8834 19.3617 28.8834 19.059 28.6989L17.7475 27.8991C17.4678 27.7286 17.2937 27.4183 17.2937 27.0901V25.342ZM19.5024 37.0588L18.8237 36.3018L19.5089 33.8792L20.2635 36.2911L19.5024 37.0588Z" stroke="#5D3DE3" stroke-width="0.8" mask="url(#path-2-outside-2_73:343)"/>
<path d="M38.9743 28.0889L38.9743 28.089C39.2752 28.3902 39.2752 28.8786 38.9739 29.1799L38.9738 29.1801C38.8234 29.33 38.6259 29.4057 38.4288 29.4057C38.2313 29.4057 38.0337 29.33 37.8833 29.1796L38.0247 29.0381L37.8832 29.1796L25.2607 16.5543L23.1078 17.9748L23.1078 17.9748C22.8436 18.1491 22.4998 18.1443 22.2406 17.9628C22.2406 17.9628 22.2405 17.9627 22.2405 17.9627L20.2631 16.5786L18.4461 17.947C18.1843 18.1444 17.8264 18.1543 17.5538 17.9724L17.5537 17.9724L15.6891 16.7274L12.4571 17.9905L1.11683 29.3334L1.11682 29.3334C0.966148 29.4841 0.768485 29.5592 0.571326 29.5592C0.374521 29.5592 0.176542 29.4841 0.0258369 29.3334C-0.275062 29.0325 -0.275496 28.5441 0.0258369 28.2427L11.4797 16.7864C11.4834 16.7824 11.4873 16.7786 11.4913 16.7748L14.02 14.2453L14.02 14.2452C14.3211 13.9442 14.8094 13.9444 15.1106 14.2451L15.1107 14.2452C15.3927 14.5273 15.4108 14.9731 15.1648 15.276L15.5019 15.1442C15.5019 15.1442 15.502 15.1442 15.502 15.1442C15.7371 15.0522 16.0017 15.0812 16.2112 15.2209L16.2113 15.221L17.9553 16.3853L19.7826 15.0092L19.7826 15.0091C20.0493 14.8083 20.4152 14.8018 20.6889 14.9935C20.6889 14.9935 20.6889 14.9935 20.6889 14.9935L22.696 16.3982L24.1475 15.4407L20.2001 11.4922C20.0331 11.3253 19.8126 11.2339 19.5768 11.2339C19.3412 11.2339 19.1205 11.3253 18.9539 11.4921L18.9538 11.4922L16.9221 13.5243L38.9743 28.0889ZM38.9743 28.0889L25.9078 15.0195L25.9078 15.0195M38.9743 28.0889L25.9078 15.0195M25.9078 15.0195C25.9053 15.017 25.903 15.0148 25.901 15.0129L21.2908 10.4016C21.2908 10.4016 21.2908 10.4016 21.2908 10.4016C21.0021 10.1127 20.6526 9.90586 20.2713 9.79259V6.54577H26.3409C26.7605 6.54577 27.1293 6.2912 27.2775 5.89847C27.426 5.50584 27.3179 5.0706 27.0027 4.79328L25.6869 3.63423L27.0027 2.47518C27.3179 2.19786 27.426 1.76262 27.2775 1.36999C27.1294 0.977384 26.7606 0.722394 26.3409 0.722394H20.2713C20.2707 0.296743 19.9254 -0.0476563 19.5 -0.0476563C19.0743 -0.0476563 18.7287 0.297411 18.7287 0.723633V9.84338C18.407 9.96334 18.1124 10.152 17.8631 10.4016L15.8312 12.4341C15.8312 12.4341 15.8312 12.4341 15.8312 12.4341C15.5299 12.7354 15.5299 13.2235 15.8312 13.5248L15.8313 13.5249M25.9078 15.0195L15.8313 13.5249M15.8313 13.5249C16.1323 13.8255 16.6207 13.8262 16.9219 13.5245L15.8313 13.5249ZM24.206 4.38567L24.9072 5.00319H20.2713V2.26497H24.9074L24.2059 2.88281L24.2059 2.88282C23.9901 3.07295 23.8668 3.34695 23.8668 3.63423C23.8668 3.92151 23.9901 4.19552 24.2059 4.38564L24.206 4.38567Z" fill="#5D3DE3" stroke="#5D3DE3" stroke-width="0.4"/>
</g>
<defs>
<clipPath id="clip0_73:343">
<rect width="39" height="39" fill="white"/>
</clipPath>
</defs>
</svg>
