<svg width="38" height="65" viewBox="0 0 38 65" fill="none" xmlns="http://www.w3.org/2000/svg">
<path d="M8.465 1.39531C6.47418 -0.518356 3.30897 -0.455812 1.39531 1.535C-0.518356 3.52582 -0.455812 6.69103 1.535 8.60469L8.465 1.39531ZM33 31.9149L36.5409 35.4451C37.4883 34.4948 38.014 33.2035 37.9997 31.8617C37.9854 30.5199 37.4324 29.2401 36.465 28.3102L33 31.9149ZM1.45911 56.4698C-0.490551 58.4254 -0.485747 61.5912 1.46984 63.5409C3.42542 65.4906 6.59124 65.4857 8.54089 63.5302L1.45911 56.4698ZM1.535 8.60469L29.535 35.5196L36.465 28.3102L8.465 1.39531L1.535 8.60469ZM29.4591 28.3847L1.45911 56.4698L8.54089 63.5302L36.5409 35.4451L29.4591 28.3847Z" fill="#C81F56" fill-opacity="0.1"/>
</svg>
