<svg width="32" height="32" viewBox="0 0 32 32" fill="none" xmlns="http://www.w3.org/2000/svg">
<g opacity="0.6">
<path fill-rule="evenodd" clip-rule="evenodd" d="M31.8408 15.9204C31.8408 24.7131 24.7131 31.8408 15.9204 31.8408C7.12772 31.8408 0 24.7131 0 15.9204C0 7.12772 7.12772 0 15.9204 0C24.7131 0 31.8408 7.12772 31.8408 15.9204Z" fill="#5D8BAD"/>
<path fill-rule="evenodd" clip-rule="evenodd" d="M15.2911 6.42534L15.2944 6.42519C15.534 6.41465 15.8475 6.40086 16.085 6.3999C16.926 6.40326 17.3652 6.7325 17.1934 7.37802C16.9817 8.17041 15.9002 9.24596 14.4477 10.2097C14.1731 10.3402 13.8899 9.96971 13.9485 9.81229C13.9602 9.78936 13.9765 9.7691 13.9965 9.75277C15.2651 8.91144 16.2093 7.97267 16.3965 7.2806C16.5604 6.65353 16.0675 6.37075 15.1674 6.43574L15.2911 6.42534ZM15.0741 6.44358L15.1674 6.43574C15.1368 6.43795 15.1057 6.44056 15.0741 6.44358ZM20.7177 8.61196C20.8804 8.00483 20.6773 7.58632 20.1897 7.35979C20.033 7.28483 19.8391 7.20313 19.6558 7.1259L19.6558 7.12589L19.6556 7.12584L19.6553 7.12568L19.6551 7.12562L19.655 7.12555L19.6549 7.12554L19.6549 7.12552L19.6539 7.12511L19.6533 7.12485C19.6028 7.10355 19.553 7.0826 19.5052 7.06223C19.4677 7.04591 19.4288 7.02959 19.3875 7.01423L19.5052 7.06223C19.966 7.27532 20.158 7.66935 20.0053 8.24192C19.5498 9.95435 16.1854 12.6103 12.4936 14.175C11.8513 14.4511 11.1932 14.6888 10.5226 14.8867C10.4646 14.9074 10.4143 14.9455 10.3786 14.9957C10.2308 15.2068 10.2884 15.7184 10.6422 15.6676C11.3546 15.4581 12.054 15.2063 12.7365 14.9136C16.6606 13.252 20.2329 10.4314 20.7177 8.61196ZM24.4363 11.4057L24.5544 11.6313C24.6265 11.8289 24.6529 11.9011 24.6632 11.9756C24.6691 12.0185 24.6696 12.0621 24.6705 12.1309C24.6692 12.1434 24.6636 12.1551 24.6547 12.164C24.5476 12.128 24.2884 11.6361 24.2639 11.4206C24.2656 11.2399 24.2224 11.0616 24.1382 10.9017L24.4363 11.4057ZM24.1003 10.8379L24.1382 10.9017C24.1262 10.8797 24.1137 10.8586 24.1003 10.8379ZM25.298 13.5765C25.3536 13.79 25.346 14.0391 25.2706 14.3237C24.7906 16.1163 21.7396 18.745 18.0444 20.6844C17.6316 20.8567 17.3787 20.5452 17.4775 20.2793C17.5178 20.1792 17.5926 20.0968 17.6883 20.047C21.4454 18.0754 24.5487 15.4031 25.0325 13.5808C25.1134 13.2776 25.1178 13.0142 25.0524 12.7907L25.086 12.893C25.1597 13.1165 25.2436 13.3714 25.298 13.5765ZM25.0325 12.7298L25.0524 12.7907C25.0463 12.7701 25.0397 12.7498 25.0325 12.7298ZM8.68225 10.0566C8.67311 10.091 8.66621 10.1259 8.66161 10.1612C8.6418 10.2761 8.66801 10.3942 8.73457 10.49C9.03122 10.8936 10.1444 10.801 11.5887 10.1914C12.0432 9.99706 12.4844 9.77325 12.9097 9.52145C13.0014 9.44226 12.9361 9.31987 12.9054 9.27428C12.8747 9.22868 12.723 9.0559 12.5925 9.1039C12.2544 9.30314 11.9037 9.48014 11.5427 9.63375C10.3954 10.1209 9.5098 10.1948 9.27363 9.87372C9.21027 9.78733 9.19395 9.67311 9.23235 9.52913C9.29069 9.34759 9.38469 9.17953 9.50884 9.03479C9.72448 8.77653 9.96842 8.54326 10.2361 8.33935C10.9131 7.85111 11.6424 7.43982 12.4105 7.1131C12.507 7.07192 12.6003 7.03705 12.6934 7.00228L12.7753 6.97152C13.9154 6.5986 14.6618 6.71331 14.5068 7.29452C14.4592 7.4745 14.3311 7.67655 14.1391 7.90644C14.2207 7.99043 14.6647 8.09314 14.8591 7.99715C15.0957 7.72599 15.2556 7.4697 15.3156 7.24604C15.4932 6.57845 14.7285 6.39991 13.504 6.72819C13.4087 6.75384 13.3541 6.77024 13.2876 6.79024L13.2875 6.79025C13.2582 6.79906 13.2266 6.80856 13.1882 6.81986C13.0624 6.85681 13.0201 6.87073 12.8814 6.9192C12.7427 6.96768 12.6683 6.99503 12.5723 7.03199C12.4758 7.06796 12.4086 7.09572 12.279 7.14928L12.2574 7.15821C12.1688 7.19606 12.1251 7.21567 12.0558 7.24679L12.0126 7.2662C11.9152 7.30988 11.8748 7.32955 11.7788 7.37659C11.7124 7.40915 11.6751 7.42837 11.6285 7.4524L11.5575 7.48889C11.4673 7.53497 11.4327 7.55369 11.3415 7.60456C11.281 7.63833 11.246 7.65878 11.2041 7.68331L11.2041 7.68331C11.1829 7.69573 11.1599 7.70921 11.1308 7.72599C11.0444 7.7759 11.0132 7.79462 10.9215 7.85221C10.858 7.89213 10.8237 7.91453 10.7791 7.94369L10.7791 7.94371L10.7791 7.94372L10.7103 7.98851C10.6261 8.04316 10.5924 8.06669 10.5117 8.12306L10.5116 8.12308L10.5116 8.12308L10.4981 8.1325C10.4208 8.18673 10.3821 8.21519 10.3249 8.25719L10.2745 8.29424C10.2054 8.34486 10.1681 8.37386 10.1108 8.41847L10.0527 8.46366C9.96616 8.53287 9.92339 8.5685 9.86018 8.62115L9.80837 8.66427C9.71188 8.74442 9.66868 8.7809 9.565 8.87689C9.37216 9.04807 9.19349 9.23458 9.03074 9.43458C8.91471 9.57526 8.81697 9.73008 8.73985 9.89532C8.71645 9.94748 8.69719 10.0014 8.68225 10.0566ZM7.59595 11.5833C7.60229 11.5322 7.61223 11.4817 7.62571 11.4321C7.64741 11.3525 7.67517 11.2747 7.70875 11.1993C7.75963 11.0947 7.83595 10.9593 7.89452 10.859C7.93869 10.7834 7.99625 10.702 8.05525 10.6185L8.05526 10.6185C8.07446 10.5914 8.09382 10.564 8.11292 10.5365L8.13492 10.5049C8.20592 10.4027 8.27896 10.2976 8.34333 10.2106L8.47533 10.0393L8.47773 10.0364C8.40629 10.129 8.34239 10.2242 8.27827 10.3196L8.24829 10.3642C8.1576 10.5055 8.08715 10.6588 8.039 10.8197C7.97852 11.0467 8.00444 11.2286 8.10524 11.3654C8.41533 11.7882 9.4368 11.7791 10.8159 11.3217C11.0161 11.2929 10.9969 11.661 10.9964 11.6649C10.9791 11.8655 10.9527 12.1683 9.19872 12.3848C8.69566 12.4462 8.02892 12.4414 7.71067 12.069L7.70299 12.0584C7.65962 11.9972 7.62834 11.9283 7.61083 11.8554C7.61083 11.8527 7.60977 11.8502 7.60868 11.8475C7.60782 11.8455 7.60693 11.8433 7.60651 11.841C7.59335 11.7558 7.5898 11.6693 7.59595 11.5833ZM6.89706 12.9751C6.88028 13.0382 6.86761 13.1023 6.85914 13.1671C6.82938 13.407 6.8769 13.6067 6.99307 13.7651C7.53452 14.5027 9.56835 14.3333 12.2084 13.2151C15.5517 11.7983 18.5994 9.39137 19.0131 7.83972C19.1624 7.28011 18.9488 6.9096 18.4275 6.71762L18.4114 6.71315L18.4113 6.71315C18.3207 6.68806 18.2241 6.66133 18.0579 6.62691C17.8334 6.57964 17.8228 6.58035 17.7376 6.58603L17.7363 6.58611C18.1851 6.75121 18.38 7.09101 18.2437 7.60263C17.8654 9.02086 15.0794 11.2214 12.0212 12.5172C9.61107 13.5385 7.75101 13.695 7.25563 13.0192C7.12267 12.8378 7.08811 12.5964 7.16827 12.2955C7.18715 12.2255 7.21039 12.1567 7.23787 12.0896C7.25467 12.0498 7.27196 12.0104 7.28828 11.9739C7.26956 12.0128 7.25323 12.0517 7.23787 12.0896C7.15239 12.2874 7.06241 12.5191 6.98522 12.7178L6.9852 12.7178L6.94506 12.821C6.9265 12.8729 6.9105 12.9242 6.89706 12.9751ZM6.47071 14.8565L6.54799 14.3377L6.61567 13.9926C6.62143 13.9662 6.62815 13.9393 6.63535 13.9119C6.62391 13.9648 6.61587 14.0183 6.60784 14.0718C6.60274 14.1058 6.59764 14.1398 6.59167 14.1735C6.57103 14.4168 6.62095 14.6223 6.74096 14.7854C6.83339 14.9079 6.95367 15.0066 7.09185 15.0734C7.21281 15.1814 7.14897 15.598 7.14801 15.6013C7.12641 15.7285 7.08321 15.8778 7.00017 15.8648C6.85218 15.7905 6.72488 15.6806 6.62959 15.5452V15.561C6.61846 15.5459 6.60952 15.5293 6.60059 15.5128L6.60058 15.5128C6.59565 15.5037 6.59072 15.4945 6.58543 15.4857L6.57764 15.4727C6.57197 15.4635 6.56637 15.4543 6.56143 15.4444C6.55771 15.437 6.55424 15.4317 6.55103 15.4268C6.54803 15.4223 6.54526 15.4181 6.54271 15.4127C6.51371 15.3461 6.49323 15.2761 6.48175 15.2044C6.47964 15.1939 6.47848 15.183 6.47732 15.1721C6.47662 15.1656 6.47593 15.159 6.47503 15.1526C6.46966 15.1222 6.46581 15.0917 6.46351 15.0609C6.46008 14.9919 6.46249 14.9227 6.47071 14.8541V14.8565ZM6.49618 17.1383C6.49952 17.1502 6.50283 17.162 6.50722 17.1732V17.1708L6.51125 17.1811C6.51356 17.1872 6.51581 17.1931 6.51826 17.1986C6.54517 17.2636 6.57948 17.3253 6.62051 17.3824C6.62027 17.3784 6.62027 17.3744 6.62051 17.3704C7.31509 18.3399 9.96189 18.1258 13.4017 16.6707C17.7535 14.8243 21.7175 11.6937 22.2541 9.67695C22.4015 9.1255 22.2772 8.71419 21.9311 8.44542L21.5471 8.15745L21.2187 7.93572C21.3891 8.06099 21.705 8.29376 21.6771 8.84425C21.5207 11.9989 9.30283 19.5157 6.57875 16.5996C6.4695 16.4476 6.40778 16.2671 6.40061 16.0809C6.40033 16.0606 6.40018 16.0407 6.40018 16.0213C6.3997 16.0412 6.39984 16.0611 6.40061 16.0809C6.40308 16.2611 6.4159 16.4735 6.4277 16.6691L6.42771 16.6691C6.43101 16.7239 6.43424 16.7775 6.43714 16.8286V16.8382C6.4405 16.8569 6.4405 16.8775 6.4405 16.8957C6.4429 16.9001 6.4429 16.9034 6.4429 16.9077C6.44385 16.9151 6.44562 16.9227 6.44745 16.9305C6.44933 16.9386 6.45129 16.947 6.4525 16.9557C6.4604 17.0099 6.47276 17.0634 6.48946 17.1156C6.4919 17.1231 6.49404 17.1307 6.49618 17.1383ZM7.00262 19.2014L6.99494 19.1913L6.99206 19.1875L6.9887 19.1831L6.98294 19.175C6.91646 19.096 6.86988 19.0021 6.8471 18.9014C6.82873 18.8341 6.80837 18.7612 6.78728 18.6857L6.78726 18.6856L6.78725 18.6856C6.73095 18.484 6.66943 18.2637 6.62658 18.0803C6.65689 18.2019 6.71037 18.3166 6.78422 18.4181L6.79526 18.433C7.54504 19.4135 10.2883 19.1798 13.8337 17.6785C18.3574 15.7588 22.4778 12.5052 23.0375 10.4074C23.1647 9.92748 23.0961 9.55312 22.8614 9.27908L22.9527 9.37727L22.9527 9.37733C23.1031 9.53886 23.2692 9.71724 23.3951 9.867C23.6304 10.1463 23.698 10.5284 23.5689 11.0121C22.9982 13.1522 18.7952 16.472 14.1808 18.4268C10.5591 19.9626 7.76201 20.1987 7.00118 19.1947L7.00262 19.2014ZM22.8009 9.21428L22.8614 9.27908C22.8422 9.257 22.8225 9.23492 22.8009 9.21428ZM6.61861 18.0457C6.62106 18.0573 6.62371 18.0688 6.62658 18.0803L6.61861 18.0457ZM7.595 20.6239C7.715 20.8831 7.75484 20.9119 7.75484 20.9119V20.9095C7.81112 20.9742 7.87174 21.035 7.93629 21.0914C8.89632 21.902 11.6079 21.6035 15.0669 20.144C17.8433 18.9676 20.4733 17.3051 22.2777 15.693L22.2778 15.6929C22.3507 15.5907 22.461 15.4361 22.3675 15.1823C22.3243 15.0652 22.1894 14.8104 21.8754 14.976C20.072 16.5852 17.4468 18.2449 14.6752 19.4193C10.9844 20.982 8.13693 21.2191 7.37899 20.1872C7.44235 20.3248 7.50971 20.4615 7.58108 20.5975L7.595 20.6239ZM8.64568 22.1698C8.54536 22.0518 8.44648 21.9322 8.36535 21.8271C8.36007 21.8209 8.35527 21.8142 8.35047 21.8075C8.35431 21.8125 8.35839 21.8172 8.36247 21.8219C8.36655 21.8265 8.37063 21.8312 8.37447 21.8363C8.82473 22.404 9.93884 22.5663 11.4946 22.31C11.8085 22.2932 12.0149 22.5552 12.0528 22.6262C12.0965 22.7088 12.1421 22.8552 11.9515 22.9109C10.4832 23.1508 9.41227 23.016 8.93801 22.5096C8.84825 22.4079 8.74505 22.286 8.64568 22.1674V22.1698ZM9.83695 23.3661C9.81591 23.3507 9.79562 23.3347 9.7761 23.3183V23.3159C9.79566 23.3323 9.81599 23.3491 9.83695 23.3661ZM9.83695 23.3661C10.7379 24.0278 13.0244 23.7948 15.9457 22.6382C16.3864 22.5029 16.5333 22.7976 16.5347 22.8005C16.5592 22.8595 16.5904 23.0102 16.3427 23.1331C13.5399 24.2427 11.3419 24.4702 10.4601 23.8477C10.4005 23.8017 10.335 23.7518 10.2671 23.7002C10.1226 23.5904 9.96759 23.4725 9.83695 23.3661ZM22.7721 22.6022C22.7106 22.7016 22.6343 22.7911 22.546 22.8677C21.6307 23.6039 20.4234 24.3324 19.1586 24.8685C18.0925 25.3202 17.1603 25.5611 16.4705 25.5961C16.2233 25.6009 15.9089 25.6014 15.6386 25.5961C16.434 25.5961 17.5668 25.323 18.8792 24.7673C20.3125 24.1597 21.6806 23.3342 22.7193 22.5C22.7443 22.4831 22.771 22.469 22.799 22.4578L22.8196 22.4957C22.8066 22.5316 22.7907 22.5664 22.7721 22.5998V22.6022ZM15.4725 25.5923C15.5258 25.5961 15.5815 25.5961 15.6386 25.5961L15.4725 25.5923ZM14.2556 25.4435C16.8731 25.8639 23.4478 22.5878 24.8807 19.6602C24.9666 19.4659 25.0501 19.214 25.1245 18.9892L25.1601 18.8821C25.171 18.852 25.1811 18.8221 25.1903 18.7925C25.1804 18.8213 25.1704 18.8513 25.1601 18.8821C24.5758 20.4913 21.5115 22.8712 18.1586 24.2921C16.0878 25.1694 14.3754 25.4827 13.4233 25.25C13.3992 25.2438 13.3756 25.2375 13.3526 25.2314C13.3757 25.2379 13.3993 25.2442 13.4233 25.25C13.6753 25.3154 13.9888 25.3846 14.2343 25.4388L14.2344 25.4388L14.2345 25.4388L14.2556 25.4435ZM25.5658 16.8837C25.5565 16.954 25.5471 17.0317 25.5373 17.1121C25.5156 17.2899 25.4924 17.481 25.4659 17.6344C25.4578 17.6824 25.4472 17.7275 25.4343 17.776C24.9643 19.5373 21.5049 22.2696 17.706 23.8789C15.2363 24.9256 13.2308 25.2395 12.2607 24.8455L12.1372 24.7884L12.1371 24.7883C11.9184 24.6874 11.6633 24.5696 11.4682 24.4673C14.801 25.8553 25.0862 20.2352 25.5773 16.7575L25.5658 16.8837ZM22.0683 19.9626C23.9207 18.5952 25.2479 17.1616 25.5407 16.0635H25.5412C25.5839 15.9113 25.6035 15.7536 25.5993 15.5956L25.5815 15.2865L25.525 14.7399C25.5441 14.9342 25.526 15.1305 25.4716 15.3182C25.1687 16.4547 23.7959 17.9396 21.8758 19.3554C21.7777 19.4347 21.7092 19.5448 21.6814 19.6679C21.6363 19.8814 21.7683 20.1464 22.0683 19.9626Z" fill="white"/>
</g>
</svg>
