<svg width="360" height="76" viewBox="0 0 360 76" fill="none" xmlns="http://www.w3.org/2000/svg">
<g opacity="0.15" clip-path="url(#clip0)">
<path fill-rule="evenodd" clip-rule="evenodd" d="M1.37012 45.8642L22.1411 51.5554L43.2582 33.8122L65.2325 27.6188L85.4924 6.36035L106.263 1.00391L127.38 16.4037L148.151 24.7731L169.615 18.4124L190.386 16.4037L211.503 23.0993L232.83 16.2363L253.391 27.7861L274.508 31.1339L295.625 18.4124H316.396L337.513 16.4037L358.63 3.34735L358.79 75.9996L1.37012 57.9162" fill="url(#paint0_linear)" fill-opacity="0.1"/>
<path fill-rule="evenodd" clip-rule="evenodd" d="M106.303 0.799316L127.471 16.2359L148.16 24.5724L169.232 18.2251L190.404 16.2112L211.502 22.5663L232.851 16.0314L253.452 27.6038L274.47 30.9358L295.573 18.2225H316.733L337.452 16.2189L358.532 3.1853L358.728 3.50969L337.574 16.5888L316.751 18.6025H295.676L274.545 31.3324L253.329 27.9688L232.808 16.4415L211.503 22.963L190.367 16.5964L169.304 18.5999L148.142 24.9742L127.289 16.5717L106.223 1.20878L85.2441 6.19753L65.3332 27.7876L43.3483 33.984L22.8832 51.7623L1.32764 46.719L1.412 46.3487L22.783 51.3488L43.1675 33.6406L65.1312 27.4502L85.0478 5.85391L106.303 0.799316Z" fill="#990505"/>
<path d="M2 46.5497C2 46.6802 1.87137 46.8797 1.59375 46.8797C1.31613 46.8797 1.1875 46.6802 1.1875 46.5497C1.1875 46.4193 1.31613 46.2197 1.59375 46.2197C1.87137 46.2197 2 46.4193 2 46.5497Z" fill="white" stroke="#990505" stroke-width="2"/>
<path d="M23 51.4902C23 51.6849 22.8476 51.8202 22.6875 51.8202C22.5274 51.8202 22.375 51.6849 22.375 51.4902C22.375 51.2954 22.5274 51.1602 22.6875 51.1602C22.8476 51.1602 23 51.2954 23 51.4902Z" fill="white" stroke="#990505" stroke-width="2"/>
<path d="M43.25 34.1052C43.25 34.3524 43.0557 34.5302 42.8438 34.5302C42.6318 34.5302 42.4375 34.3524 42.4375 34.1052C42.4375 33.8579 42.6318 33.6802 42.8438 33.6802C43.0557 33.6802 43.25 33.8579 43.25 34.1052Z" fill="white" stroke="#990505" stroke-width="2"/>
<path d="M85.4375 6.45994C85.4375 6.75966 85.2012 6.97994 84.9375 6.97994C84.6738 6.97994 84.4375 6.75966 84.4375 6.45994C84.4375 6.16022 84.6738 5.93994 84.9375 5.93994C85.2012 5.93994 85.4375 6.16022 85.4375 6.45994Z" fill="white" stroke="#990505" stroke-width="2"/>
<path d="M65 27.6452C65 27.8925 64.8057 28.0702 64.5938 28.0702C64.3818 28.0702 64.1875 27.8925 64.1875 27.6452C64.1875 27.398 64.3818 27.2202 64.5938 27.2202C64.8057 27.2202 65 27.398 65 27.6452Z" fill="white" stroke="#990505" stroke-width="2"/>
<path d="M106.427 1.33911C106.427 1.4879 106.29 1.67822 106.032 1.67822C105.774 1.67822 105.636 1.4879 105.636 1.33911C105.636 1.19032 105.774 1 106.032 1C106.29 1 106.427 1.19032 106.427 1.33911Z" fill="white" stroke="#990505" stroke-width="2"/>
<path d="M127.58 16.4041C127.58 16.5528 127.442 16.7432 127.185 16.7432C126.927 16.7432 126.789 16.5528 126.789 16.4041C126.789 16.2553 126.927 16.0649 127.185 16.0649C127.442 16.0649 127.58 16.2553 127.58 16.4041Z" fill="white" stroke="#990505" stroke-width="2"/>
<path d="M148.746 24.4392C148.746 24.588 148.608 24.7783 148.351 24.7783C148.093 24.7783 147.955 24.588 147.955 24.4392C147.955 24.2904 148.093 24.1001 148.351 24.1001C148.608 24.1001 148.746 24.2904 148.746 24.4392Z" fill="white" stroke="#990505" stroke-width="2"/>
<path d="M169.921 18.4987C169.921 18.746 169.727 18.9237 169.515 18.9237C169.303 18.9237 169.108 18.746 169.108 18.4987C169.108 18.2515 169.303 18.0737 169.515 18.0737C169.727 18.0737 169.921 18.2515 169.921 18.4987Z" fill="white" stroke="#990505" stroke-width="2"/>
<path d="M191.259 16.5849C191.259 16.8847 191.022 17.1049 190.759 17.1049C190.495 17.1049 190.259 16.8847 190.259 16.5849C190.259 16.2852 190.495 16.0649 190.759 16.0649C191.022 16.0649 191.259 16.2852 191.259 16.5849Z" fill="white" stroke="#990505" stroke-width="2"/>
<path d="M212 22.4198C212 22.6146 211.848 22.7498 211.687 22.7498C211.527 22.7498 211.375 22.6146 211.375 22.4198C211.375 22.2251 211.527 22.0898 211.687 22.0898C211.848 22.0898 212 22.2251 212 22.4198Z" fill="white" stroke="#990505" stroke-width="2"/>
<path d="M233.188 16.3398C233.188 16.5345 233.035 16.6698 232.875 16.6698C232.715 16.6698 232.562 16.5345 232.562 16.3398C232.562 16.145 232.715 16.0098 232.875 16.0098C233.035 16.0098 233.188 16.145 233.188 16.3398Z" fill="white" stroke="#990505" stroke-width="2"/>
<path d="M254.562 27.9301C254.562 28.1249 254.41 28.2601 254.25 28.2601C254.09 28.2601 253.938 28.1249 253.938 27.9301C253.938 27.7353 254.09 27.6001 254.25 27.6001C254.41 27.6001 254.562 27.7353 254.562 27.9301Z" fill="white" stroke="#990505" stroke-width="2"/>
<path d="M274.625 30.8751C274.625 31.0175 274.515 31.1101 274.406 31.1101C274.298 31.1101 274.188 31.0175 274.188 30.8751C274.188 30.7328 274.298 30.6401 274.406 30.6401C274.515 30.6401 274.625 30.7328 274.625 30.8751Z" fill="white" stroke="#990505" stroke-width="2"/>
<path d="M296.375 18.4301C296.375 18.6249 296.223 18.7601 296.062 18.7601C295.902 18.7601 295.75 18.6249 295.75 18.4301C295.75 18.2353 295.902 18.1001 296.062 18.1001C296.223 18.1001 296.375 18.2353 296.375 18.4301Z" fill="white" stroke="#990505" stroke-width="2"/>
<path d="M318.125 18.0502C318.125 18.245 317.973 18.3802 317.812 18.3802C317.652 18.3802 317.5 18.245 317.5 18.0502C317.5 17.8554 317.652 17.7202 317.812 17.7202C317.973 17.7202 318.125 17.8554 318.125 18.0502Z" fill="white" stroke="#990505" stroke-width="2"/>
<path d="M338.75 15.9599C338.75 16.2597 338.514 16.4799 338.25 16.4799C337.986 16.4799 337.75 16.2597 337.75 15.9599C337.75 15.6602 337.986 15.4399 338.25 15.4399C338.514 15.4399 338.75 15.6602 338.75 15.9599Z" fill="white" stroke="#990505" stroke-width="2"/>
<path d="M359.562 2.94496C359.562 3.08728 359.452 3.17996 359.344 3.17996C359.235 3.17996 359.125 3.08728 359.125 2.94496C359.125 2.80265 359.235 2.70996 359.344 2.70996C359.452 2.70996 359.562 2.80265 359.562 2.94496Z" fill="white" stroke="#990505" stroke-width="2"/>
</g>
<defs>
<linearGradient id="paint0_linear" x1="25.2845" y1="1.00391" x2="25.2845" y2="65.9639" gradientUnits="userSpaceOnUse">
<stop stop-color="#F31818"/>
<stop offset="1" stop-color="#5D7EF7" stop-opacity="0.01"/>
</linearGradient>
<clipPath id="clip0">
<rect width="360" height="76" fill="white"/>
</clipPath>
</defs>
</svg>
