<svg width="36" height="36" viewBox="0 0 36 36" fill="none" xmlns="http://www.w3.org/2000/svg">
<path fill-rule="evenodd" clip-rule="evenodd" d="M35.8473 18.0892C35.8473 27.9809 27.8286 35.9996 17.9368 35.9996C8.04505 35.9996 0.0263672 27.9809 0.0263672 18.0892C0.0263672 8.1974 8.04505 0.178711 17.9368 0.178711C27.8286 0.178711 35.8473 8.1974 35.8473 18.0892Z" fill="#FFC246"/>
<path fill-rule="evenodd" clip-rule="evenodd" d="M25.9537 15.6435C26.324 13.128 24.4277 11.7682 21.8244 10.8617L22.666 7.46224L20.5676 6.92967L19.7373 10.2611L18.099 9.86451L18.9181 6.52173L16.8647 6.00049L16.0231 9.39992L11.8713 8.38009L11.3663 10.6011C11.3663 10.6011 12.8924 10.9523 12.8587 10.975C13.4386 11.0623 13.8541 11.5856 13.8125 12.1761L11.5683 21.5359C11.5089 21.7283 11.3762 21.889 11.1994 21.9825C11.0226 22.0761 10.8162 22.0948 10.6257 22.0345L9.02112 21.6492L8 24.0288L10.6818 24.7087L12.1518 25.094L11.299 28.4934L13.3525 29.0033L14.194 25.6039L15.8548 26.0798L15.0132 29.4792L17.0779 30.0005L17.9307 26.5444C21.4429 27.2243 24.0798 26.9523 25.1907 23.7455C26.0884 21.162 25.1907 19.6662 23.3056 18.703C24.7733 18.4078 25.8604 17.1519 25.9537 15.6435ZM21.2521 22.3064C20.6125 24.89 16.3036 23.4396 14.9121 23.145L16.0343 18.6124C17.392 18.9183 21.8692 19.5982 21.2072 22.3064H21.2521ZM21.8806 15.6095C21.3084 17.9552 17.7176 16.7427 16.5619 16.4707L17.5381 12.3234C18.7051 12.618 22.4417 13.1619 21.8358 15.6095H21.8806Z" fill="white"/>
</svg>
