<svg width="296" height="114" viewBox="0 0 296 114" fill="none" xmlns="http://www.w3.org/2000/svg">
<path d="M109.598 55.1828H110.568V62.46H109.598V56.8521L105.975 62.46H105V55.1828H105.975V60.7906L109.598 55.1828Z" fill="#0068C7"/>
<path d="M116.11 57.137C116.11 56.7505 115.967 56.444 115.681 56.2174C115.398 55.9875 114.999 55.8725 114.484 55.8725C114.052 55.8725 113.69 55.9908 113.397 56.2274C113.108 56.4606 112.963 56.7505 112.963 57.097H111.993C111.993 56.7105 112.099 56.364 112.311 56.0574C112.527 55.7509 112.826 55.5127 113.21 55.3427C113.594 55.1695 114.019 55.0828 114.484 55.0828C115.305 55.0828 115.944 55.2661 116.398 55.6326C116.853 55.9958 117.081 56.5023 117.081 57.152C117.081 57.4886 116.976 57.7951 116.767 58.0717C116.558 58.3482 116.267 58.5665 115.893 58.7264C116.759 59.013 117.192 59.5811 117.192 60.4308C117.192 61.0838 116.946 61.602 116.454 61.9852C115.962 62.3684 115.305 62.5599 114.484 62.5599C113.995 62.5599 113.551 62.475 113.15 62.305C112.752 62.1318 112.442 61.8869 112.22 61.5703C111.998 61.2538 111.887 60.8773 111.887 60.4408H112.857C112.857 60.8239 113.01 61.1438 113.316 61.4004C113.623 61.6536 114.012 61.7802 114.484 61.7802C115.012 61.7802 115.433 61.6586 115.747 61.4154C116.063 61.1721 116.222 60.8506 116.222 60.4508C116.222 59.5978 115.688 59.1629 114.62 59.1463H113.711V58.3566H114.615C115.107 58.3466 115.479 58.2366 115.732 58.0267C115.984 57.8168 116.11 57.5202 116.11 57.137Z" fill="#0068C7"/>
<path d="M123.043 55.9725H119.496V62.46H118.521V55.1828H123.043V55.9725Z" fill="#0068C7"/>
<path d="M129.555 59.0563C129.555 59.7694 129.434 60.3924 129.191 60.9256C128.949 61.4554 128.605 61.8602 128.161 62.1401C127.716 62.42 127.197 62.5599 126.605 62.5599C126.025 62.5599 125.512 62.42 125.064 62.1401C124.616 61.8569 124.267 61.4554 124.018 60.9356C123.772 60.4124 123.645 59.8077 123.639 59.1213V58.5965C123.639 57.8967 123.762 57.2786 124.008 56.7422C124.253 56.2057 124.6 55.7959 125.048 55.5127C125.5 55.2261 126.015 55.0828 126.594 55.0828C127.184 55.0828 127.703 55.2244 128.151 55.5077C128.602 55.7875 128.949 56.1957 129.191 56.7322C129.434 57.2653 129.555 57.8867 129.555 58.5965V59.0563ZM128.59 58.5865C128.59 57.7235 128.415 57.0621 128.065 56.6022C127.714 56.1391 127.224 55.9075 126.594 55.9075C125.981 55.9075 125.498 56.1391 125.144 56.6022C124.794 57.0621 124.614 57.7018 124.604 58.5215V59.0563C124.604 59.8926 124.781 60.5507 125.134 61.0305C125.491 61.507 125.981 61.7453 126.605 61.7453C127.231 61.7453 127.716 61.5203 128.06 61.0705C128.403 60.6174 128.58 59.9693 128.59 59.1263V58.5865Z" fill="#0068C7"/>
<path d="M135.952 55.9725H133.587V62.46H132.622V55.9725H130.263V55.1828H135.952V55.9725Z" fill="#0068C7"/>
<path d="M142.56 59.0563C142.56 59.7694 142.439 60.3924 142.197 60.9256C141.954 61.4554 141.61 61.8602 141.166 62.1401C140.721 62.42 140.203 62.5599 139.61 62.5599C139.03 62.5599 138.517 62.42 138.069 62.1401C137.621 61.8569 137.272 61.4554 137.023 60.9356C136.777 60.4124 136.651 59.8077 136.644 59.1213V58.5965C136.644 57.8967 136.767 57.2786 137.013 56.7422C137.259 56.2057 137.606 55.7959 138.054 55.5127C138.505 55.2261 139.02 55.0828 139.6 55.0828C140.189 55.0828 140.708 55.2244 141.156 55.5077C141.607 55.7875 141.954 56.1957 142.197 56.7322C142.439 57.2653 142.56 57.8867 142.56 58.5965V59.0563ZM141.595 58.5865C141.595 57.7235 141.42 57.0621 141.07 56.6022C140.72 56.1391 140.229 55.9075 139.6 55.9075C138.987 55.9075 138.503 56.1391 138.15 56.6022C137.799 57.0621 137.619 57.7018 137.609 58.5215V59.0563C137.609 59.8926 137.786 60.5507 138.139 61.0305C138.496 61.507 138.987 61.7453 139.61 61.7453C140.236 61.7453 140.721 61.5203 141.065 61.0705C141.408 60.6174 141.585 59.9693 141.595 59.1263V58.5865Z" fill="#0068C7"/>
<path d="M144.015 62.46V55.1828H146.42C147.219 55.1828 147.818 55.3461 148.219 55.6726C148.623 55.9991 148.825 56.4823 148.825 57.122C148.825 57.4619 148.728 57.7635 148.532 58.0267C148.337 58.2866 148.071 58.4882 147.734 58.6315C148.132 58.7414 148.445 58.9513 148.674 59.2612C148.906 59.5678 149.023 59.9343 149.023 60.3608C149.023 61.0139 148.809 61.527 148.381 61.9002C147.953 62.2734 147.348 62.46 146.567 62.46H144.015ZM144.986 59.0563V61.6753H146.587C147.039 61.6753 147.394 61.5603 147.653 61.3304C147.916 61.0972 148.047 60.7773 148.047 60.3708C148.047 59.4945 147.566 59.0563 146.602 59.0563H144.986ZM144.986 58.2866H146.451C146.875 58.2866 147.214 58.1816 147.466 57.9717C147.722 57.7618 147.85 57.4769 147.85 57.117C147.85 56.7172 147.732 56.4273 147.497 56.2474C147.261 56.0641 146.902 55.9725 146.42 55.9725H144.986V58.2866Z" fill="#0068C7"/>
<path d="M156.025 55.1828V62.46H155.055V55.9725H152.418L152.286 58.8564C152.236 59.8227 152.135 60.549 151.983 61.0355C151.835 61.522 151.616 61.8802 151.326 62.1101C151.037 62.3367 150.649 62.4533 150.164 62.46H149.846V61.6753L150.048 61.6653C150.361 61.642 150.602 61.542 150.771 61.3654C150.939 61.1855 151.067 60.9006 151.155 60.5107C151.242 60.1209 151.305 59.5211 151.342 58.7114L151.493 55.1828H156.025Z" fill="#0068C7"/>
<path d="M161.947 59.0963H158.759V61.6753H162.462V62.46H157.789V55.1828H162.412V55.9725H158.759V58.3116H161.947V59.0963Z" fill="#0068C7"/>
<path d="M169.323 62.46H168.348V59.0963H164.64V62.46H163.67V55.1828H164.64V58.3116H168.348V55.1828H169.323V62.46Z" fill="#0068C7"/>
<path d="M175.685 55.1828H176.655V62.46H175.685V56.8521L172.062 62.46H171.087V55.1828H172.062V60.7906L175.685 55.1828Z" fill="#0068C7"/>
<path d="M182.581 59.0963H179.393V61.6753H183.097V62.46H178.423V55.1828H183.046V55.9725H179.393V58.3116H182.581V59.0963Z" fill="#0068C7"/>
<path d="M192.489 62.46H191.514V55.9725H187.886V62.46H186.916V55.1828H192.489V62.46Z" fill="#0068C7"/>
<path d="M198.416 59.0963H195.228V61.6753H198.931V62.46H194.258V55.1828H198.881V55.9725H195.228V58.3116H198.416V59.0963Z" fill="#0068C7"/>
<path d="M205.469 55.1828V62.46H204.494V59.4461C204.14 59.5461 203.819 59.6161 203.529 59.6561C203.239 59.6927 202.909 59.711 202.539 59.711C201.7 59.711 201.077 59.5311 200.669 59.1712C200.262 58.8114 200.053 58.2599 200.043 57.5169V55.1828H201.018V57.4919C201.021 57.9984 201.137 58.3632 201.367 58.5865C201.599 58.8097 201.99 58.9213 202.539 58.9213C203.179 58.9213 203.83 58.8314 204.494 58.6514V55.1828H205.469Z" fill="#0068C7"/>
<path d="M211.376 60.5607H208.293L207.601 62.46H206.601L209.41 55.1828H210.259L213.073 62.46H212.078L211.376 60.5607ZM208.587 59.771H211.088L209.835 56.3673L208.587 59.771Z" fill="#0068C7"/>
<path d="M218.489 55.9725H216.125V62.46H215.16V55.9725H212.8V55.1828H218.489V55.9725Z" fill="#0068C7"/>
<path d="M223.739 59.0963H220.551V61.6753H224.254V62.46H219.581V55.1828H224.204V55.9725H220.551V58.3116H223.739V59.0963Z" fill="#0068C7"/>
<path d="M230.1 55.1828H231.07V62.46H230.1V56.8521L226.477 62.46H225.502V55.1828H226.477V60.7906L230.1 55.1828ZM229.827 53.3735C229.827 53.7767 229.688 54.1015 229.408 54.3481C229.132 54.5913 228.768 54.713 228.317 54.713C227.865 54.713 227.5 54.5897 227.22 54.3431C226.941 54.0965 226.801 53.7733 226.801 53.3735H227.564C227.564 53.6067 227.628 53.79 227.756 53.9233C227.884 54.0532 228.071 54.1182 228.317 54.1182C228.552 54.1182 228.736 54.0532 228.867 53.9233C229.002 53.7933 229.069 53.6101 229.069 53.3735H229.827Z" fill="#0068C7"/>
<path d="M240.043 55.1828H241.014V62.46H240.043V56.8521L236.421 62.46H235.446V55.1828H236.421V60.7906L240.043 55.1828Z" fill="#0068C7"/>
<path d="M246.359 55.1828V61.6753H248.89V55.1828H249.855V61.6753H252.372V55.1828H253.342V62.46H245.384V55.1828H246.359Z" fill="#0068C7"/>
<path d="M260.021 55.9725H257.657V62.46H256.691V55.9725H254.332V55.1828H260.021V55.9725Z" fill="#0068C7"/>
<path d="M264.77 60.5607H261.688L260.996 62.46H259.996L262.805 55.1828H263.654L266.468 62.46H265.473L264.77 60.5607ZM261.981 59.771H264.482L263.229 56.3673L261.981 59.771Z" fill="#0068C7"/>
<path d="M268.711 55.1828L271.116 61.1205L273.521 55.1828H274.779V62.46H273.809V59.6261L273.9 56.5672L271.485 62.46H270.743L268.332 56.5822L268.428 59.6261V62.46H267.458V55.1828H268.711Z" fill="#0068C7"/>
<path d="M282.111 62.46H281.136V55.9725H277.508V62.46H276.538V55.1828H282.111V62.46Z" fill="#0068C7"/>
<path d="M289.538 59.0563C289.538 59.7694 289.417 60.3924 289.174 60.9256C288.932 61.4554 288.588 61.8602 288.143 62.1401C287.699 62.42 287.18 62.5599 286.587 62.5599C286.008 62.5599 285.494 62.42 285.046 62.1401C284.598 61.8569 284.25 61.4554 284 60.9356C283.754 60.4124 283.628 59.8077 283.621 59.1213V58.5965C283.621 57.8967 283.744 57.2786 283.99 56.7422C284.236 56.2057 284.583 55.7959 285.031 55.5127C285.482 55.2261 285.998 55.0828 286.577 55.0828C287.167 55.0828 287.685 55.2244 288.133 55.5077C288.585 55.7875 288.932 56.1957 289.174 56.7322C289.417 57.2653 289.538 57.8867 289.538 58.5965V59.0563ZM288.573 58.5865C288.573 57.7235 288.398 57.0621 288.047 56.6022C287.697 56.1391 287.207 55.9075 286.577 55.9075C285.964 55.9075 285.481 56.1391 285.127 56.6022C284.777 57.0621 284.596 57.7018 284.586 58.5215V59.0563C284.586 59.8926 284.763 60.5507 285.117 61.0305C285.474 61.507 285.964 61.7453 286.587 61.7453C287.214 61.7453 287.699 61.5203 288.042 61.0705C288.386 60.6174 288.563 59.9693 288.573 59.1263V58.5865Z" fill="#0068C7"/>
<path d="M290.993 62.46V55.1828H293.398C294.196 55.1828 294.796 55.3461 295.197 55.6726C295.601 55.9991 295.803 56.4823 295.803 57.122C295.803 57.4619 295.705 57.7635 295.51 58.0267C295.315 58.2866 295.048 58.4882 294.712 58.6315C295.109 58.7414 295.422 58.9513 295.651 59.2612C295.884 59.5678 296 59.9343 296 60.3608C296 61.0139 295.786 61.527 295.358 61.9002C294.931 62.2734 294.326 62.46 293.544 62.46H290.993ZM291.963 59.0563V61.6753H293.565C294.016 61.6753 294.371 61.5603 294.631 61.3304C294.893 61.0972 295.025 60.7773 295.025 60.3708C295.025 59.4945 294.543 59.0563 293.58 59.0563H291.963ZM291.963 58.2866H293.428C293.853 58.2866 294.191 58.1816 294.444 57.9717C294.7 57.7618 294.828 57.4769 294.828 57.117C294.828 56.7172 294.71 56.4273 294.474 56.2474C294.238 56.0641 293.88 55.9725 293.398 55.9725H291.963V58.2866Z" fill="#0068C7"/>
<path d="M122.673 46.7122H117.789V38.297H110.556V46.7122H105.645V26.5599H110.556V34.5599H117.789V26.5599H122.673V46.7122Z" fill="#0068C7"/>
<path d="M137.616 42.9475H130.886L129.71 46.7122H124.463L131.935 26.5599H136.552L144.08 46.7122H138.805L137.616 42.9475ZM132.061 39.1966H136.44L134.244 32.207L132.061 39.1966Z" fill="#0068C7"/>
<path d="M169.824 46.7122H164.913V30.3108H157.595V46.7122H152.684V26.5599H169.824V46.7122Z" fill="#0068C7"/>
<path d="M185.523 38.1724H177.799V42.9752H186.922V46.7122H172.888V26.5599H186.95V30.3108H177.799V34.5599H185.523V38.1724Z" fill="#0068C7"/>
<path d="M205.894 26.5599V46.7122H200.997V39.2658L199.556 39.4458L197.751 39.5565C195.009 39.5565 192.91 38.9706 191.455 37.7987C190 36.6176 189.263 34.9475 189.244 32.7883V26.5599H194.155V32.7191C194.155 33.8172 194.421 34.6107 194.953 35.0997C195.494 35.5796 196.427 35.8195 197.751 35.8195L198.171 35.8056C199.318 35.7503 200.26 35.6626 200.997 35.5426V26.5599H205.894Z" fill="#0068C7"/>
<path d="M220.781 42.9475H214.051L212.876 46.7122H207.629L215.101 26.5599H219.718L227.245 46.7122H221.971L220.781 42.9475ZM215.227 39.1966H219.606L217.409 32.207L215.227 39.1966Z" fill="#0068C7"/>
<path d="M243.056 30.3108H236.942V46.7122H232.031V30.3108H226.028V26.5599H243.056V30.3108Z" fill="#0068C7"/>
<path d="M250.304 33.4942H252.836C254.45 33.4942 255.877 33.7664 257.117 34.3108C258.358 34.8552 259.309 35.6257 259.972 36.6222C260.643 37.6095 260.979 38.7445 260.979 40.0271C260.979 42.0109 260.233 43.6211 258.74 44.8575C257.257 46.094 255.261 46.7122 252.752 46.7122H245.379V26.5599H250.304V33.4942ZM250.304 37.2312V42.9752H252.822C253.82 42.9752 254.608 42.6984 255.187 42.1447C255.774 41.5911 256.068 40.876 256.068 39.9994C256.068 39.1689 255.779 38.5 255.201 37.9925C254.622 37.485 253.82 37.2312 252.794 37.2312H250.304Z" fill="#0068C7"/>
<ellipse rx="30.9171" ry="18.035" transform="matrix(0.966532 -0.256547 0.26109 0.965314 60.8421 66.7459)" fill="#0068C7"/>
<ellipse rx="33.4935" ry="15.4586" transform="matrix(0.966532 -0.256547 0.26109 0.965314 59.497 61.7717)" fill="white"/>
<ellipse rx="33.4935" ry="15.4586" transform="matrix(0.966532 -0.256547 0.26109 0.965314 58.6 58.4557)" fill="#0068C7"/>
<ellipse rx="19.5546" ry="6.85268" transform="matrix(0.964265 -0.264939 0.252689 0.967547 57.4336 52.9331)" fill="white"/>
<path d="M38.69 35.264L51.3506 34.1484L63.9584 28.3214C63.9584 28.3214 60.4883 35.7947 72.122 43.8004C83.7557 51.8061 34.1878 64.8752 39.1631 52.8561C44.1383 40.837 38.69 35.264 38.69 35.264Z" fill="#0068C7"/>
<ellipse rx="21.8996" ry="12.4527" transform="matrix(0.966532 -0.256547 0.26109 0.965314 51.3462 33.2807)" fill="#0068C7"/>
<ellipse rx="12.4527" ry="5.58226" transform="matrix(0.966532 -0.256547 0.26109 0.965314 49.552 26.6485)" fill="white"/>
<ellipse rx="12.4527" ry="5.58226" transform="matrix(0.966532 -0.256547 0.26109 0.965314 48.8797 24.1615)" fill="#0068C7"/>
</svg>
