<svg width="360" height="76" viewBox="0 0 360 76" fill="none" xmlns="http://www.w3.org/2000/svg">
<g opacity="0.15" clip-path="url(#clip0)">
<path fill-rule="evenodd" clip-rule="evenodd" d="M1.37012 45.8644L22.1411 51.5556L43.2582 33.8124L65.2325 27.619L85.4924 6.3606L106.263 1.00415L127.38 16.4039L148.151 24.7734L169.615 18.4126L190.386 16.4039L211.503 23.0995L232.83 16.2366L253.391 27.7864L274.508 31.1342L295.625 18.4126H316.396L337.513 16.4039L358.63 3.3476L358.79 75.9998L1.37012 57.9164" fill="url(#paint0_linear)" fill-opacity="0.1"/>
<path fill-rule="evenodd" clip-rule="evenodd" d="M106.303 0.799561L127.471 16.2362L148.16 24.5726L169.232 18.2253L190.404 16.2115L211.502 22.5665L232.851 16.0316L253.452 27.604L274.47 30.936L295.573 18.2228H316.733L337.452 16.2191L358.532 3.18555L358.728 3.50993L337.574 16.5891L316.751 18.6028H295.676L274.545 31.3326L253.329 27.969L232.808 16.4418L211.503 22.9632L190.367 16.5967L169.304 18.6002L148.142 24.9744L127.289 16.572L106.223 1.20903L85.2441 6.19778L65.3332 27.7879L43.3483 33.9843L22.8832 51.7625L1.32764 46.7192L1.412 46.349L22.783 51.3491L43.1675 33.6408L65.1312 27.4504L85.0478 5.85415L106.303 0.799561Z" fill="#990505"/>
<path d="M2 46.55C2 46.6804 1.87137 46.88 1.59375 46.88C1.31613 46.88 1.1875 46.6804 1.1875 46.55C1.1875 46.4195 1.31613 46.22 1.59375 46.22C1.87137 46.22 2 46.4195 2 46.55Z" fill="white" stroke="#990505" stroke-width="2"/>
<path d="M23 51.4899C23 51.6847 22.8476 51.8199 22.6875 51.8199C22.5274 51.8199 22.375 51.6847 22.375 51.4899C22.375 51.2951 22.5274 51.1599 22.6875 51.1599C22.8476 51.1599 23 51.2951 23 51.4899Z" fill="white" stroke="#990505" stroke-width="2"/>
<path d="M43.25 34.1049C43.25 34.3522 43.0557 34.5299 42.8438 34.5299C42.6318 34.5299 42.4375 34.3522 42.4375 34.1049C42.4375 33.8577 42.6318 33.6799 42.8438 33.6799C43.0557 33.6799 43.25 33.8577 43.25 34.1049Z" fill="white" stroke="#990505" stroke-width="2"/>
<path d="M85.4375 6.45994C85.4375 6.75966 85.2012 6.97994 84.9375 6.97994C84.6738 6.97994 84.4375 6.75966 84.4375 6.45994C84.4375 6.16022 84.6738 5.93994 84.9375 5.93994C85.2012 5.93994 85.4375 6.16022 85.4375 6.45994Z" fill="white" stroke="#990505" stroke-width="2"/>
<path d="M65 27.645C65 27.8922 64.8057 28.07 64.5938 28.07C64.3818 28.07 64.1875 27.8922 64.1875 27.645C64.1875 27.3977 64.3818 27.22 64.5938 27.22C64.8057 27.22 65 27.3977 65 27.645Z" fill="white" stroke="#990505" stroke-width="2"/>
<path d="M106.427 1.33911C106.427 1.4879 106.29 1.67822 106.032 1.67822C105.774 1.67822 105.636 1.4879 105.636 1.33911C105.636 1.19032 105.774 1 106.032 1C106.29 1 106.427 1.19032 106.427 1.33911Z" fill="white" stroke="#990505" stroke-width="2"/>
<path d="M127.58 16.4043C127.58 16.5531 127.442 16.7434 127.185 16.7434C126.927 16.7434 126.789 16.5531 126.789 16.4043C126.789 16.2555 126.927 16.0652 127.185 16.0652C127.442 16.0652 127.58 16.2555 127.58 16.4043Z" fill="white" stroke="#990505" stroke-width="2"/>
<path d="M148.746 24.439C148.746 24.5877 148.608 24.7781 148.351 24.7781C148.093 24.7781 147.955 24.5877 147.955 24.439C147.955 24.2902 148.093 24.0999 148.351 24.0999C148.608 24.0999 148.746 24.2902 148.746 24.439Z" fill="white" stroke="#990505" stroke-width="2"/>
<path d="M169.921 18.4987C169.921 18.746 169.727 18.9237 169.515 18.9237C169.303 18.9237 169.108 18.746 169.108 18.4987C169.108 18.2515 169.303 18.0737 169.515 18.0737C169.727 18.0737 169.921 18.2515 169.921 18.4987Z" fill="white" stroke="#990505" stroke-width="2"/>
<path d="M191.259 16.5852C191.259 16.8849 191.022 17.1052 190.759 17.1052C190.495 17.1052 190.259 16.8849 190.259 16.5852C190.259 16.2855 190.495 16.0652 190.759 16.0652C191.022 16.0652 191.259 16.2855 191.259 16.5852Z" fill="white" stroke="#990505" stroke-width="2"/>
<path d="M212 22.4201C212 22.6149 211.848 22.7501 211.687 22.7501C211.527 22.7501 211.375 22.6149 211.375 22.4201C211.375 22.2253 211.527 22.0901 211.687 22.0901C211.848 22.0901 212 22.2253 212 22.4201Z" fill="white" stroke="#990505" stroke-width="2"/>
<path d="M233.188 16.34C233.188 16.5348 233.035 16.67 232.875 16.67C232.715 16.67 232.562 16.5348 232.562 16.34C232.562 16.1452 232.715 16.01 232.875 16.01C233.035 16.01 233.188 16.1452 233.188 16.34Z" fill="white" stroke="#990505" stroke-width="2"/>
<path d="M254.562 27.9301C254.562 28.1249 254.41 28.2601 254.25 28.2601C254.09 28.2601 253.938 28.1249 253.938 27.9301C253.938 27.7353 254.09 27.6001 254.25 27.6001C254.41 27.6001 254.562 27.7353 254.562 27.9301Z" fill="white" stroke="#990505" stroke-width="2"/>
<path d="M274.625 30.8749C274.625 31.0172 274.515 31.1099 274.406 31.1099C274.298 31.1099 274.188 31.0172 274.188 30.8749C274.188 30.7326 274.298 30.6399 274.406 30.6399C274.515 30.6399 274.625 30.7326 274.625 30.8749Z" fill="white" stroke="#990505" stroke-width="2"/>
<path d="M296.375 18.4301C296.375 18.6249 296.223 18.7601 296.062 18.7601C295.902 18.7601 295.75 18.6249 295.75 18.4301C295.75 18.2353 295.902 18.1001 296.062 18.1001C296.223 18.1001 296.375 18.2353 296.375 18.4301Z" fill="white" stroke="#990505" stroke-width="2"/>
<path d="M318.125 18.05C318.125 18.2448 317.973 18.38 317.812 18.38C317.652 18.38 317.5 18.2448 317.5 18.05C317.5 17.8552 317.652 17.72 317.812 17.72C317.973 17.72 318.125 17.8552 318.125 18.05Z" fill="white" stroke="#990505" stroke-width="2"/>
<path d="M338.75 15.9599C338.75 16.2597 338.514 16.4799 338.25 16.4799C337.986 16.4799 337.75 16.2597 337.75 15.9599C337.75 15.6602 337.986 15.4399 338.25 15.4399C338.514 15.4399 338.75 15.6602 338.75 15.9599Z" fill="white" stroke="#990505" stroke-width="2"/>
<path d="M359.562 2.94496C359.562 3.08728 359.452 3.17996 359.344 3.17996C359.235 3.17996 359.125 3.08728 359.125 2.94496C359.125 2.80265 359.235 2.70996 359.344 2.70996C359.452 2.70996 359.562 2.80265 359.562 2.94496Z" fill="white" stroke="#990505" stroke-width="2"/>
</g>
<defs>
<linearGradient id="paint0_linear" x1="25.2845" y1="1.00415" x2="25.2845" y2="65.9642" gradientUnits="userSpaceOnUse">
<stop stop-color="#F31818"/>
<stop offset="1" stop-color="#5D7EF7" stop-opacity="0.01"/>
</linearGradient>
<clipPath id="clip0">
<rect width="360" height="76" fill="white"/>
</clipPath>
</defs>
</svg>
