<svg width="360" height="79" viewBox="0 0 360 79" fill="none" xmlns="http://www.w3.org/2000/svg">
<g opacity="0.15" clip-path="url(#clip0)">
<path fill-rule="evenodd" clip-rule="evenodd" d="M0.930664 53.3919L21.6351 42.0711L43.0413 48.8636L64.2721 28.6604L84.9765 3.5805L106.383 9.15381L126.912 26.3962L148.318 37.1945L169.373 25.6995L189.727 21.3454L211.308 0.968018L232.364 16.8171L253.77 42.0711L274.474 50.0827L296.056 27.18L316.524 4.45133L337.29 9.15381L358.696 11.5921V78.9999H0.930664" fill="url(#paint0_linear)" fill-opacity="0.1"/>
<path fill-rule="evenodd" clip-rule="evenodd" d="M211.668 0.793945L232.825 16.7378L254.173 41.9531L274.679 49.8972L296.131 27.1051L296.134 27.1019L316.632 4.31174L337.454 9.03235L358.809 11.4678L358.768 11.8536L337.393 9.41596L316.761 4.73843L296.406 27.3694L296.404 27.371L296.403 27.3726L274.777 50.3498L253.952 42.2823L232.57 17.026L211.695 1.29463L190.23 21.5862L169.891 25.9424L148.814 37.4623L127.344 26.6187L106.869 9.40185L85.6572 3.87259L65.0605 28.8514L43.7825 49.1235L22.387 42.3265L1.57597 53.4201L1.40381 53.0751L22.3509 41.9089L43.6866 48.6869L64.7894 28.5818L85.5227 3.43718L107.042 9.04646L127.547 26.2895L148.808 37.0268L169.762 25.5735L190.052 21.2277L211.668 0.793945Z" fill="#75ACFE"/>
<path d="M1.25342 53.0871C1.25342 53.3702 1.03966 53.5429 0.844974 53.5429C0.650286 53.5429 0.436523 53.3702 0.436523 53.0871C0.436523 52.804 0.650286 52.6313 0.844974 52.6313C1.03966 52.6313 1.25342 52.804 1.25342 53.0871Z" fill="white" stroke="#2B69DD" stroke-width="2"/>
<path d="M22.4741 42.0234C22.4741 42.3065 22.2604 42.4792 22.0657 42.4792C21.871 42.4792 21.6572 42.3065 21.6572 42.0234C21.6572 41.7403 21.871 41.5676 22.0657 41.5676C22.2604 41.5676 22.4741 41.7403 22.4741 42.0234Z" fill="white" stroke="#2B69DD" stroke-width="2"/>
<path d="M43.8828 48.6228C43.8828 48.9059 43.6691 49.0786 43.4744 49.0786C43.2797 49.0786 43.0659 48.9059 43.0659 48.6228C43.0659 48.3396 43.2797 48.167 43.4744 48.167C43.6691 48.167 43.8828 48.3396 43.8828 48.6228Z" fill="white" stroke="#2B69DD" stroke-width="2"/>
<path d="M85.9482 3.78512C85.9482 4.06824 85.7345 4.24089 85.5398 4.24089C85.3451 4.24089 85.1313 4.06824 85.1313 3.78512C85.1313 3.502 85.3451 3.32935 85.5398 3.32935C85.7345 3.32935 85.9482 3.502 85.9482 3.78512Z" fill="white" stroke="#2B69DD" stroke-width="2"/>
<path d="M64.54 29.4067C64.54 29.6898 64.3263 29.8625 64.1316 29.8625C63.9369 29.8625 63.7231 29.6898 63.7231 29.4067C63.7231 29.1236 63.9369 28.9509 64.1316 28.9509C64.3263 28.9509 64.54 29.1236 64.54 29.4067Z" fill="white" stroke="#2B69DD" stroke-width="2"/>
<path d="M106.588 9.11324C106.588 9.39637 106.375 9.56902 106.18 9.56902C105.985 9.56902 105.771 9.39637 105.771 9.11324C105.771 8.83012 105.985 8.65747 106.18 8.65747C106.375 8.65747 106.588 8.83012 106.588 9.11324Z" fill="white" stroke="#2B69DD" stroke-width="2"/>
<path d="M127.639 25.9128C127.639 26.1959 127.425 26.3686 127.23 26.3686C127.036 26.3686 126.822 26.1959 126.822 25.9128C126.822 25.6297 127.036 25.457 127.23 25.457C127.425 25.457 127.639 25.6297 127.639 25.9128Z" fill="white" stroke="#2B69DD" stroke-width="2"/>
<path d="M149.047 36.7824C149.047 37.0656 148.833 37.2382 148.638 37.2382C148.444 37.2382 148.23 37.0656 148.23 36.7824C148.23 36.4993 148.444 36.3267 148.638 36.3267C148.833 36.3267 149.047 36.4993 149.047 36.7824Z" fill="white" stroke="#2B69DD" stroke-width="2"/>
<path d="M170.161 25.8215C170.161 26.1046 169.947 26.2773 169.752 26.2773C169.558 26.2773 169.344 26.1046 169.344 25.8215C169.344 25.5384 169.558 25.3657 169.752 25.3657C169.947 25.3657 170.161 25.5384 170.161 25.8215Z" fill="white" stroke="#2B69DD" stroke-width="2"/>
<path d="M190.361 21.2544C190.361 21.5375 190.148 21.7101 189.953 21.7101C189.758 21.7101 189.544 21.5375 189.544 21.2544C189.544 20.9713 189.758 20.7986 189.953 20.7986C190.148 20.7986 190.361 20.9713 190.361 21.2544Z" fill="white" stroke="#2B69DD" stroke-width="2"/>
<path d="M212.146 1.45577C212.146 1.7389 211.932 1.91155 211.737 1.91155C211.542 1.91155 211.329 1.7389 211.329 1.45577C211.329 1.17265 211.542 1 211.737 1C211.932 1 212.146 1.17265 212.146 1.45577Z" fill="white" stroke="#2B69DD" stroke-width="2"/>
<path d="M233.732 17.1193C233.732 17.4025 233.519 17.5751 233.324 17.5751C233.129 17.5751 232.916 17.4025 232.916 17.1193C232.916 16.8362 233.129 16.6636 233.324 16.6636C233.519 16.6636 233.732 16.8362 233.732 17.1193Z" fill="white" stroke="#2B69DD" stroke-width="2"/>
<path d="M254.57 41.8327C254.57 42.1159 254.357 42.2885 254.162 42.2885C253.967 42.2885 253.753 42.1159 253.753 41.8327C253.753 41.5496 253.967 41.377 254.162 41.377C254.357 41.377 254.57 41.5496 254.57 41.8327Z" fill="white" stroke="#2B69DD" stroke-width="2"/>
<path d="M275.056 49.7876C275.056 50.0707 274.842 50.2433 274.648 50.2433C274.453 50.2433 274.239 50.0707 274.239 49.7876C274.239 49.5044 274.453 49.3318 274.648 49.3318C274.842 49.3318 275.056 49.5044 275.056 49.7876Z" fill="white" stroke="#2B69DD" stroke-width="2"/>
<path d="M297.028 26.6892C297.028 26.9723 296.815 27.1449 296.62 27.1449C296.425 27.1449 296.211 26.9723 296.211 26.6892C296.211 26.406 296.425 26.2334 296.62 26.2334C296.815 26.2334 297.028 26.406 297.028 26.6892Z" fill="white" stroke="#2B69DD" stroke-width="2"/>
<path d="M317.122 4.1733C317.122 4.45643 316.908 4.62908 316.714 4.62908C316.519 4.62908 316.305 4.45643 316.305 4.1733C316.305 3.89018 316.519 3.71753 316.714 3.71753C316.908 3.71753 317.122 3.89018 317.122 4.1733Z" fill="white" stroke="#2B69DD" stroke-width="2"/>
<path d="M338.98 9.11324C338.98 9.39637 338.766 9.56902 338.572 9.56902C338.377 9.56902 338.163 9.39637 338.163 9.11324C338.163 8.83012 338.377 8.65747 338.572 8.65747C338.766 8.65747 338.98 8.83012 338.98 9.11324Z" fill="white" stroke="#2B69DD" stroke-width="2"/>
<path d="M360.523 11.8979C360.523 12.181 360.31 12.3537 360.115 12.3537C359.92 12.3537 359.707 12.181 359.707 11.8979C359.707 11.6148 359.92 11.4421 360.115 11.4421C360.31 11.4421 360.523 11.6148 360.523 11.8979Z" fill="white" stroke="#2B69DD" stroke-width="2"/>
</g>
<defs>
<linearGradient id="paint0_linear" x1="0.930664" y1="0.968018" x2="0.930664" y2="78.9999" gradientUnits="userSpaceOnUse">
<stop stop-color="#3A96FD"/>
<stop offset="1" stop-color="#2E5BFF" stop-opacity="0.01"/>
</linearGradient>
<clipPath id="clip0">
<rect width="360" height="79" fill="white"/>
</clipPath>
</defs>
</svg>
