<svg width="156" height="65" viewBox="0 0 156 65" fill="none" xmlns="http://www.w3.org/2000/svg">
<path d="M23.8405 56.9971L9.01792 40.2027L22.6934 28.1329L37.5159 44.9273L33.9171 48.1036L21.9532 34.5481L15.4754 40.2653L27.4393 53.8208L23.8405 56.9971Z" fill="#1B1B1B"/>
<path d="M50.0324 36.1363C49.4361 38.1785 47.9932 39.7956 45.7036 40.9877C43.414 42.1798 41.2523 42.4395 39.2184 41.7667C37.1935 41.0652 35.5407 39.4845 34.26 37.0246C32.9792 34.5647 32.637 32.3137 33.2332 30.2715C33.8386 28.2006 35.2861 26.569 37.5756 25.3769C39.8652 24.1848 42.0224 23.9395 44.0473 24.6411C46.0812 25.3138 47.7385 26.8801 49.0193 29.34C50.3 31.7999 50.6377 34.0653 50.0324 36.1363ZM40.8686 37.6605C41.8765 38.0257 42.8724 37.9521 43.8563 37.4398C44.8403 36.9275 45.4717 36.1538 45.7505 35.1187C46.0195 34.0647 45.7845 32.8281 45.0456 31.4089C44.3067 29.9898 43.4333 29.0976 42.4254 28.7325C41.4077 28.3484 40.4069 28.4125 39.4229 28.9248C38.439 29.4371 37.8125 30.2203 37.5435 31.2743C37.2647 32.3094 37.4947 33.5365 38.2336 34.9557C38.9725 36.3748 39.8509 37.2765 40.8686 37.6605Z" fill="#1B1B1B"/>
<path d="M52.5485 40.8831L50.5297 33.142L52.0779 32.7383C52.3338 31.944 52.4496 31.1201 52.4254 30.2666C52.4165 29.387 52.2156 28.1938 51.8226 26.6869L50.0864 20.0295L63.0915 16.6379L66.3215 29.0237L68.3342 28.4988L70.353 36.2399L66.1728 37.33L65.2038 33.6143L55.7597 36.0772L56.7287 39.793L52.5485 40.8831ZM56.2581 31.6481L61.9865 30.1542L59.8062 21.7938L55.4712 22.9244L56.1576 25.5563C56.7282 27.7445 56.7617 29.7751 56.2581 31.6481Z" fill="#1B1B1B"/>
<path d="M76.2857 28.9635C77.3305 28.9279 78.1628 28.6115 78.7829 28.014C79.4235 27.3945 79.7275 26.6051 79.6949 25.6456L79.6786 25.1659L75.8408 25.2965C75.0945 25.3219 74.5353 25.5117 74.1632 25.8659C73.8116 26.198 73.6445 26.6199 73.6619 27.1316C73.6815 27.7073 73.9107 28.1691 74.3494 28.5171C74.7875 28.8437 75.4329 28.9925 76.2857 28.9635ZM75.2915 32.6794C73.4792 32.7411 72.0234 32.2997 70.9239 31.3552C69.8245 30.4107 69.2483 29.1602 69.1954 27.6038C69.1417 26.026 69.6636 24.7382 70.7609 23.7403C71.8789 22.7204 73.4826 22.1749 75.5721 22.1038L79.5698 21.9678L79.5426 21.1682C79.5157 20.3794 79.2396 19.7911 78.7141 19.4034C78.1886 19.0157 77.4781 18.8371 76.5826 18.8675C75.9643 18.8886 75.4253 19.0457 74.9657 19.3388C74.5274 19.6312 74.2298 19.9829 74.0731 20.3938L69.5956 20.5461C69.9066 19.02 70.642 17.7356 71.8019 16.6928C72.9831 15.6494 74.5865 15.0932 76.612 15.0243C78.872 14.9474 80.6498 15.4419 81.9455 16.5078C83.2625 17.573 83.9558 19.129 84.0254 21.1758L84.3953 32.0495L80.5576 32.1801L80.0126 30.2775L79.8527 30.283C78.9013 31.8095 77.381 32.6083 75.2915 32.6794Z" fill="#1B1B1B"/>
<path d="M84.6875 38.3155L89.0522 15.3669L92.8246 16.0844L92.9374 18.0603L93.0946 18.0902C94.6311 16.8623 96.3424 16.4277 98.2286 16.7865C100.408 17.201 102.015 18.2883 103.048 20.0484C104.085 21.7875 104.341 24.0403 103.815 26.8067C103.289 29.5731 102.222 31.5852 100.614 32.8431C99.0111 34.0799 97.1197 34.4911 94.9401 34.0765C92.991 33.7058 91.6011 32.7357 90.7704 31.1662L90.6132 31.1363L89.0886 39.1526L84.6875 38.3155ZM92.2621 28.2903C92.8271 29.2012 93.6546 29.7603 94.7444 29.9676C95.8342 30.1749 96.8091 29.9586 97.6691 29.3187C98.5332 28.6578 99.1146 27.5414 99.4136 25.9696C99.7126 24.3978 99.5795 23.1564 99.0144 22.2455C98.4533 21.3135 97.6279 20.7439 96.5381 20.5367C95.4483 20.3294 94.4714 20.5562 93.6074 21.217C92.7473 21.857 92.1678 22.9628 91.8689 24.5346C91.5699 26.1065 91.701 27.3583 92.2621 28.2903Z" fill="#1B1B1B"/>
<path d="M102.719 35.3242L109.615 19.8293L113.708 21.6508L109.544 31.0062L109.691 31.0713L119.409 24.1879L123.94 26.2045L117.045 41.6994L112.952 39.8779L117.18 30.3763L117.034 30.3113L107.251 37.3409L102.719 35.3242Z" fill="#1B1B1B"/>
<path d="M118.475 42.1687L129.063 28.9197L133.937 32.8153L130.519 42.9871L130.644 43.0869L139.812 37.5099L144.687 41.4055L134.099 54.6545L130.599 51.8577L137.191 43.6083L137.066 43.5084L127.474 49.3605L125.099 47.4627L128.692 36.816L128.567 36.7161L121.975 44.9655L118.475 42.1687Z" fill="#1B1B1B"/>
</svg>
