<svg width="88" height="72" viewBox="0 0 88 72" fill="none" xmlns="http://www.w3.org/2000/svg">
<circle cx="36" cy="36" r="36" fill="#E07153"/>
<rect x="50" y="24" width="29" height="21" fill="white"/>
<path d="M42.3301 18H85V21H42.3301V18Z" fill="white"/>
<path fill-rule="evenodd" clip-rule="evenodd" d="M56.1672 0.132969C54.8909 0.412611 53.9392 0.9507 53.053 1.89364C51.3997 3.65282 51.0179 6.27015 52.0941 8.46807L52.3798 9.05163L55.1178 9.04426L57.8557 9.03688L57.005 8.82138C55.9144 8.5451 55.4833 8.32158 55.0112 7.7876C54.049 6.69965 54.0755 4.9388 55.0712 3.81005C55.4915 3.33359 56.3605 2.90044 57.0373 2.83004C58.0829 2.72127 59.1138 3.14629 59.6751 3.91761C60.1784 4.60911 60.7111 6.26959 60.9928 8.02457L61.1501 9.00495L62.5422 9.03091L63.9341 9.05677L63.8755 8.36583C63.7494 6.88116 63.0485 4.25076 62.4793 3.12593C61.3057 0.806817 58.7096 -0.424168 56.1672 0.132969ZM69.3469 0.139971C68.3884 0.344918 67.2583 0.949673 66.5887 1.61633C65.4371 2.76254 64.5564 5.03954 64.1418 7.94212C64.0658 8.47536 64.0026 8.94314 64.0017 8.98161C64.0008 9.02007 64.6323 9.05163 65.4053 9.05163C66.7883 9.05163 66.8113 9.04827 66.8507 8.84155C66.8727 8.72605 66.9562 8.23232 67.0362 7.74446C67.3286 5.96175 67.9875 4.16831 68.5592 3.59894C69.3357 2.82575 70.8339 2.5955 71.8877 3.08728C73.7131 3.93899 74.245 6.31646 72.9477 7.82513C72.524 8.31775 72.0727 8.54809 70.995 8.82213L70.1443 9.03838L72.8646 9.02166L75.585 9.00495L75.8885 8.39805C76.362 7.45081 76.5056 6.7413 76.455 5.59808C76.4222 4.85897 76.3505 4.44422 76.1643 3.91845C75.1875 1.15845 72.2357 -0.477575 69.3469 0.139971ZM40.6328 12.0647C40.0185 12.4732 39.9776 12.6676 40.0068 15.044C40.0352 17.3701 40.0413 17.3958 40.6785 17.8693L40.9376 18.0618H64H87.0624L87.3215 17.8693C87.9587 17.3958 87.9648 17.3701 87.9932 15.044C88.0224 12.6676 87.9815 12.4732 87.3672 12.0647L87.0484 11.8527H64H40.9516L40.6328 12.0647ZM42.3309 32.4361C42.3309 40.5523 42.3618 44.109 42.4355 44.4575C42.7734 46.0568 44.0733 47.35 45.689 47.6941C48.5302 48.2993 81.5985 47.8451 82.311 47.6958C83.9029 47.3621 85.2323 46.0392 85.565 44.4575C85.6381 44.1104 85.6691 40.5201 85.6691 32.4361V20.9096H64H42.3309V32.4361ZM57.6107 26.0506C59.1282 26.3988 60.4551 27.7195 60.8049 29.2299C61.3399 31.5393 59.7464 33.8699 57.3534 34.2784C55.5891 34.5795 53.7574 33.655 52.9501 32.0557C52.0961 30.3645 52.3884 28.5451 53.7279 27.2117C54.7847 26.1598 56.2184 25.7311 57.6107 26.0506ZM68.4055 26.6285C69.0514 26.9582 69.3631 27.8154 69.0526 28.4087C68.713 29.0576 61.4099 41.6215 61.2872 41.7679C61.2056 41.8653 60.9574 42.0257 60.7357 42.1245C59.5687 42.6441 58.4007 41.3587 58.9952 40.2091C59.5531 39.13 66.6045 27.0685 66.7997 26.8595C67.227 26.4016 67.7996 26.3192 68.4055 26.6285ZM56.025 28.9229C55.656 29.1152 55.2761 29.7548 55.2761 30.1836C55.2761 30.8406 56.0257 31.5537 56.7165 31.5537C57.1614 31.5537 57.6947 31.2125 57.9117 30.789C58.5373 29.5685 57.2431 28.2883 56.025 28.9229ZM72.3247 34.4874C73.9913 34.929 75.1752 36.2258 75.4687 37.9315C75.7658 39.6579 74.7606 41.5529 73.1497 42.3032C71.45 43.0949 69.6524 42.7954 68.3552 41.5043C66.6265 39.7835 66.6813 37.1148 68.4794 35.472C69.5323 34.5099 70.9957 34.1352 72.3247 34.4874ZM70.6807 37.3112C70.0124 37.639 69.7204 38.5547 70.075 39.21C70.2669 39.5643 70.9145 39.957 71.3071 39.957C71.7633 39.957 72.3249 39.5981 72.5307 39.1749C72.7686 38.6857 72.7707 38.4348 72.5413 37.9317C72.2345 37.259 71.3728 36.9716 70.6807 37.3112Z" fill="#1B1B1B"/>
</svg>
