<svg width="166" height="69" viewBox="0 0 166 69" fill="none" xmlns="http://www.w3.org/2000/svg">
<path d="M25.6071 64.0269L19.4782 57.491L20.9954 56.0682C20.72 54.7765 20.1425 53.4902 19.263 52.2092C18.3845 50.8981 17.1645 49.41 15.6031 47.7449L9.91195 41.6758L21.3497 30.9502L33.7171 44.1387L35.7012 42.2781L41.8301 48.814L38.5622 51.8785L35.3882 48.4938L25.7011 57.5778L28.875 60.9624L25.6071 64.0269ZM24.3801 52.8943L30.2157 47.4221L20.8034 37.3848L16.3683 41.5437L19.1045 44.4615C22.2857 47.854 24.0442 50.6649 24.3801 52.8943Z" fill="#1B1B1B"/>
<path d="M50.5238 36.9037C49.9733 38.9587 48.5668 40.6076 46.3044 41.8505C44.042 43.0935 41.8866 43.4013 39.8382 42.7741C37.7982 42.118 36.1105 40.5746 34.7752 38.1439C33.4398 35.7132 33.0474 33.4704 33.598 31.4154C34.1569 29.3314 35.5676 27.668 37.83 26.4251C40.0924 25.1822 42.2436 24.8888 44.2836 25.545C46.332 26.1721 48.0239 27.7011 49.3592 30.1317C50.6946 32.5624 51.0828 34.8197 50.5238 36.9037ZM41.3963 38.6321C42.4121 38.9747 43.4061 38.8789 44.3784 38.3448C45.3507 37.8106 45.9646 37.023 46.2203 35.982C46.4657 34.9222 46.2032 33.6912 45.4328 32.2889C44.6624 30.8865 43.7693 30.0141 42.7535 29.6716C41.7274 29.3103 40.7283 29.3967 39.756 29.9309C38.7837 30.465 38.1749 31.262 37.9295 32.3217C37.6739 33.3628 37.9313 34.5845 38.7017 35.9868C39.4721 37.3891 40.3703 38.2709 41.3963 38.6321Z" fill="#1B1B1B"/>
<path d="M61.216 35.6519C58.7374 36.3728 56.5666 36.2043 54.7038 35.1465C52.8554 34.0622 51.544 32.1886 50.7695 29.5256C49.995 26.8626 50.0999 24.5881 51.0844 22.7021C52.0834 20.7897 53.8222 19.4731 56.3009 18.7522C58.4517 18.1266 60.2894 18.1809 61.8137 18.9151C63.3585 19.6433 64.5963 20.8052 65.5269 22.4008L61.2251 23.6519C60.1824 22.5111 58.9133 22.1581 57.4179 22.593C56.3118 22.9147 55.5369 23.5734 55.0932 24.5689C54.6436 25.5439 54.6363 26.7791 55.0712 28.2744C55.5061 29.7698 56.1778 30.8186 57.0861 31.4209C57.9885 32.0027 58.9928 32.1328 60.0989 31.8111C61.5943 31.3762 62.4761 30.3976 62.7444 28.8755L67.0461 27.6244C67.1164 29.4702 66.6949 31.1146 65.7816 32.5578C64.8887 33.995 63.3669 35.0264 61.216 35.6519Z" fill="#1B1B1B"/>
<path d="M73.5405 32.8088L72.4315 20.057L67.1713 20.5144L66.8109 16.3701L81.7944 15.067L82.1548 19.2114L76.8946 19.6688L78.0036 32.4207L73.5405 32.8088Z" fill="#1B1B1B"/>
<path d="M89.3193 29.3326C90.3586 29.4447 91.2273 29.2487 91.9253 28.7446C92.6469 28.2216 93.0591 27.4829 93.1621 26.5284L93.2135 26.0512L89.3957 25.6395C88.6533 25.5595 88.0729 25.6685 87.6545 25.9667C87.2597 26.246 87.0348 26.6402 86.9799 27.1492C86.9181 27.7219 87.0799 28.2114 87.4652 28.6177C87.8528 29.0028 88.4709 29.2411 89.3193 29.3326ZM87.8112 32.8713C86.0083 32.6769 84.6292 32.0347 83.6739 30.9447C82.7186 29.8546 82.3244 28.5354 82.4914 26.9871C82.6606 25.4175 83.3588 24.2161 84.5859 23.3829C85.8364 22.5307 87.501 22.2167 89.5797 22.4408L93.5566 22.8697L93.6424 22.0743C93.727 21.2895 93.5365 20.6681 93.0709 20.2103C92.6053 19.7524 91.9271 19.4754 91.0363 19.3793C90.4212 19.313 89.8654 19.3925 89.3691 19.618C88.8939 19.8457 88.5498 20.1519 88.3366 20.5366L83.8825 20.0563C84.4054 18.5892 85.3146 17.4213 86.6098 16.5525C87.9263 15.686 89.5921 15.3613 91.607 15.5786C93.8553 15.8211 95.5457 16.5612 96.6782 17.7991C97.8319 19.0393 98.299 20.6775 98.0794 22.7137L96.9129 33.5309L93.0951 33.1193L92.8237 31.1589L92.6646 31.1417C91.5076 32.5189 89.8898 33.0955 87.8112 32.8713Z" fill="#1B1B1B"/>
<path d="M103.55 31.6598L106.897 32.7492C107.486 32.9407 107.978 32.9439 108.375 32.759C108.792 32.5806 109.08 32.248 109.238 31.7611C109.588 30.686 109.154 29.9503 107.937 29.5542L104.59 28.4648L103.55 31.6598ZM98.1513 33.7726L103.4 17.6453L111.768 20.3688C113.35 20.8838 114.449 21.6788 115.064 22.7539C115.706 23.8152 115.802 25.0357 115.353 26.4151C114.825 28.038 113.735 28.9733 112.084 29.2212C113.469 30.4797 113.901 31.9102 113.379 33.5128C112.884 35.0342 112.048 36.0521 110.871 36.5664C109.714 37.0874 108.264 37.0639 106.519 36.4961L98.1513 33.7726ZM105.63 25.2697L108.825 26.3096C109.941 26.6728 110.647 26.3979 110.944 25.485C111.241 24.5722 110.832 23.9342 109.716 23.571L106.521 22.5311L105.63 25.2697Z" fill="#1B1B1B"/>
<path d="M112.988 38.6369L121.648 24.0544L125.5 26.3418L120.271 35.1464L120.409 35.2281L130.865 29.528L135.13 32.0605L126.47 46.6431L122.618 44.3556L127.928 35.4135L127.791 35.3318L117.253 41.1695L112.988 38.6369Z" fill="#1B1B1B"/>
<path d="M127.692 47.1761L139.752 35.2518L144.14 39.6891L139.559 49.393L139.671 49.5068L149.427 45.0366L153.814 49.4739L141.754 61.3982L138.604 58.2125L146.113 50.7879L146.001 50.6741L135.791 55.368L133.654 53.2063L138.463 43.051L138.351 42.9373L130.842 50.3618L127.692 47.1761Z" fill="#1B1B1B"/>
</svg>
