<svg width="32" height="32" viewBox="0 0 32 32" fill="none" xmlns="http://www.w3.org/2000/svg">
<path d="M26.6665 3.19995H5.33339C4.16027 3.19995 3.19995 4.16027 3.19995 5.33339V26.6668C3.19995 27.8393 4.16027 28.7999 5.33339 28.7999H26.6665C27.8396 28.7999 28.7999 27.8393 28.7999 26.6668V5.33339C28.7999 4.16027 27.8396 3.19995 26.6665 3.19995ZM26.6665 26.6668H18.1334V18.1331H23.4665V16H18.1334V13.8665C18.1334 12.0988 19.5667 10.6665 21.3334 10.6665H23.4665V8.53307H21.3334C18.3884 8.53339 16 10.9203 16 13.8665V16H13.8665V18.1331H16V26.6668H5.33339V5.33339H26.6665V26.6668Z" fill="white"/>
</svg>
