<svg width="32" height="32" viewBox="0 0 32 32" fill="none" xmlns="http://www.w3.org/2000/svg">
<path d="M22.4 3.19971H9.59995C6.08027 3.19971 3.19995 6.08003 3.19995 9.59971V22.4003C3.19995 25.9191 6.08027 28.8003 9.59995 28.8003H22.4C25.9196 28.8003 28.7999 25.9191 28.7999 22.4003V9.59971C28.7999 6.08003 25.9196 3.19971 22.4 3.19971ZM26.6665 22.4003C26.6665 24.7523 24.7532 26.6669 22.4 26.6669H9.59995C7.24763 26.6669 5.33339 24.7523 5.33339 22.4003V9.59971C5.33339 7.24707 7.24763 5.33315 9.59995 5.33315H22.4C24.7532 5.33315 26.6665 7.24707 26.6665 9.59971V22.4003Z" fill="white"/>
<path d="M22.9335 10.6663C23.8172 10.6663 24.5335 9.94996 24.5335 9.06631C24.5335 8.18265 23.8172 7.46631 22.9335 7.46631C22.0498 7.46631 21.3335 8.18265 21.3335 9.06631C21.3335 9.94996 22.0498 10.6663 22.9335 10.6663Z" fill="white"/>
<path d="M16 9.59961C12.4646 9.59961 9.59998 12.4646 9.59998 15.9996C9.59998 19.5334 12.4646 22.4002 16 22.4002C19.5344 22.4002 22.4 19.5334 22.4 15.9996C22.4 12.4646 19.5344 9.59961 16 9.59961ZM16 20.2668C13.6438 20.2668 11.7334 18.3564 11.7334 15.9996C11.7334 13.6428 13.6438 11.733 16 11.733C18.3561 11.733 20.2665 13.6428 20.2665 15.9996C20.2665 18.3564 18.3561 20.2668 16 20.2668Z" fill="white"/>
</svg>
