<svg width="26" height="26" viewBox="0 0 26 26" fill="none" xmlns="http://www.w3.org/2000/svg">
<path d="M25.5517 4.48291H0.448296C0.200738 4.48291 0 4.6836 0 4.93116V21.0691C0 21.3166 0.200738 21.5173 0.448296 21.5173H25.5517C25.7993 21.5173 26 21.3166 26 21.0691V4.93116C25.9999 4.6836 25.7992 4.48291 25.5517 4.48291Z" fill="#82C3D2"/>
<path d="M3.02228 6.52277C2.98171 6.35098 2.9716 6.28766 3.04869 6.21062C3.08627 6.17304 3.08627 6.11216 3.04869 6.07458C3.01111 6.037 2.95022 6.037 2.91265 6.07458C2.75665 6.23063 2.79387 6.39257 2.83424 6.56406C2.71125 6.52389 2.58368 6.5537 2.51533 6.63993C2.48141 6.68294 2.4158 6.80359 2.53874 6.99626C2.56733 7.04099 2.62644 7.05415 2.67159 7.02581C2.71643 6.99722 2.72948 6.93765 2.70089 6.89297C2.65478 6.8204 2.65341 6.77566 2.66631 6.75931C2.68154 6.73996 2.72877 6.72976 2.77823 6.74728C2.81017 6.75835 2.88441 6.79669 2.88441 6.91247C2.88441 7.00494 2.84165 7.08969 2.76711 7.14474C2.69241 7.19999 2.59572 7.21558 2.50254 7.18664C2.38747 7.15149 2.30708 7.03028 2.30708 6.8918C2.30708 6.79273 2.32831 6.69259 2.36731 6.60484C2.3735 6.59189 2.52056 6.28725 2.55845 6.1737C2.63335 5.9491 2.55723 5.83616 2.50528 5.78899C2.43576 5.72566 2.33415 5.70987 2.2467 5.74821C2.2334 5.7541 2.22243 5.76263 2.2109 5.77055C2.19937 5.76258 2.18835 5.7541 2.1751 5.74821C2.08771 5.70987 1.98614 5.72566 1.91652 5.78899C1.86457 5.83616 1.78845 5.94915 1.86335 6.1737C1.90124 6.28725 2.04825 6.59189 2.05312 6.60204C2.09339 6.69264 2.11467 6.79278 2.11467 6.89185C2.11467 7.03038 2.03433 7.15155 1.91921 7.18669C1.82567 7.21558 1.72929 7.20019 1.65464 7.14479C1.5801 7.08969 1.53734 7.00499 1.53734 6.91252C1.53734 6.79674 1.61158 6.75845 1.64352 6.74733C1.69314 6.72986 1.74011 6.73996 1.75544 6.75936C1.76834 6.77571 1.76697 6.82045 1.72086 6.89302C1.69227 6.93776 1.70532 6.99732 1.75016 7.02586C1.79536 7.05445 1.85467 7.0411 1.88301 6.99631C2.0059 6.80364 1.94034 6.68304 1.90642 6.63998C1.83801 6.55375 1.7105 6.52394 1.58751 6.56411C1.62793 6.39272 1.6651 6.23068 1.50911 6.07463C1.47153 6.03705 1.41064 6.03705 1.37306 6.07463C1.33548 6.11221 1.33548 6.17309 1.37306 6.21067C1.4501 6.28771 1.44009 6.35103 1.39947 6.52282C1.37509 6.62576 1.34483 6.75413 1.34483 6.91237C1.34483 7.01764 1.38185 7.11833 1.44411 7.20106H1.44101C1.38784 7.20106 1.34478 7.24407 1.34478 7.29729C1.34478 7.35046 1.38779 7.39352 1.44101 7.39352H1.44411C1.38185 7.47624 1.34483 7.57689 1.34483 7.68216C1.34483 7.84039 1.37509 7.96877 1.39942 8.07175C1.43999 8.24354 1.4501 8.30687 1.37301 8.3839C1.33543 8.42148 1.33543 8.48237 1.37301 8.51995C1.3918 8.53873 1.41643 8.54813 1.44106 8.54813C1.46564 8.54813 1.49032 8.53873 1.50911 8.51995C1.6651 8.36389 1.62788 8.2019 1.58751 8.03047C1.7105 8.07048 1.83807 8.04083 1.90642 7.9546C1.94034 7.91159 2.00595 7.79093 1.88301 7.59827C1.85452 7.55353 1.79505 7.54022 1.75016 7.56871C1.70532 7.5973 1.69227 7.65687 1.72086 7.70156C1.76697 7.77412 1.76834 7.81886 1.75544 7.83521C1.74016 7.85436 1.69314 7.86451 1.64352 7.84725C1.61158 7.83618 1.53734 7.79784 1.53734 7.68206C1.53734 7.58958 1.5801 7.50483 1.65464 7.44978C1.72934 7.39453 1.82593 7.37874 1.91921 7.40789C2.03428 7.44303 2.11467 7.56424 2.11467 7.70272C2.11467 7.8018 2.09344 7.90194 2.05312 7.99253L1.42288 9.41039C1.37108 9.52689 1.34478 9.65079 1.34478 9.77835C1.34478 9.94253 1.41943 10.0924 1.53693 10.1839C1.41948 10.2755 1.34478 10.4254 1.34478 10.5895C1.34478 10.7171 1.37113 10.841 1.42288 10.9575L2.05302 12.3753C2.09329 12.4658 2.11457 12.566 2.11457 12.6651C2.11457 12.8036 2.03423 12.9248 1.91911 12.9599C1.82557 12.989 1.72919 12.9734 1.65454 12.918C1.58 12.8629 1.53724 12.7782 1.53724 12.6857C1.53724 12.5699 1.61148 12.5317 1.64342 12.5205C1.69303 12.5032 1.74001 12.5132 1.75534 12.5326C1.76824 12.5489 1.76687 12.5937 1.72076 12.6662C1.69217 12.711 1.70522 12.7705 1.75006 12.7991C1.79526 12.8277 1.85457 12.8145 1.88291 12.7695C2.0058 12.5769 1.94024 12.4562 1.90632 12.4132C1.83791 12.327 1.7104 12.2973 1.58741 12.3373C1.62783 12.1659 1.665 12.0039 1.509 11.8478C1.47143 11.8103 1.41054 11.8103 1.37296 11.8478C1.33538 11.8854 1.33538 11.9463 1.37296 11.9839C1.45 12.0609 1.43999 12.1242 1.39937 12.296C1.37504 12.399 1.34478 12.5274 1.34478 12.6856C1.34478 12.7909 1.3818 12.8916 1.44405 12.9743H1.44096C1.38779 12.9743 1.34473 13.0173 1.34473 13.0705C1.34473 13.1238 1.38774 13.1668 1.44096 13.1668H1.44405C1.38175 13.2495 1.34478 13.3501 1.34478 13.4555C1.34478 13.6137 1.37504 13.7421 1.39937 13.8451C1.43994 14.0169 1.45005 14.0802 1.37296 14.1572C1.33538 14.1948 1.33538 14.2557 1.37296 14.2933C1.39175 14.312 1.41638 14.3214 1.44101 14.3214C1.46559 14.3214 1.49027 14.312 1.50905 14.2933C1.66505 14.1372 1.62783 13.9752 1.58746 13.8038C1.71045 13.8438 1.83801 13.8141 1.90637 13.7279C1.94029 13.6849 2.0059 13.5642 1.88296 13.3716C1.85447 13.3268 1.795 13.3135 1.75011 13.342C1.70527 13.3706 1.69222 13.4302 1.72081 13.4749C1.76692 13.5474 1.76829 13.5922 1.75539 13.6085C1.74011 13.6279 1.69309 13.6381 1.64347 13.6206C1.61153 13.6095 1.53729 13.5711 1.53729 13.4554C1.53729 13.3629 1.58005 13.2781 1.65459 13.2231C1.72929 13.1678 1.82588 13.152 1.91916 13.1812C2.03423 13.2163 2.11462 13.3376 2.11462 13.476C2.11462 13.5751 2.09339 13.6752 2.05307 13.7658L1.42288 15.1839C1.37108 15.3003 1.34478 15.4243 1.34478 15.5518C1.34478 15.716 1.41943 15.8659 1.53693 15.9574C1.41948 16.0489 1.34478 16.1988 1.34478 16.363C1.34478 16.4906 1.37113 16.6145 1.42288 16.731L2.05302 18.1487C2.09329 18.2393 2.11457 18.3394 2.11457 18.4385C2.11457 18.5771 2.03423 18.6982 1.91911 18.7334C1.82557 18.7625 1.72919 18.7467 1.65454 18.6915C1.58 18.6364 1.53724 18.5517 1.53724 18.4592C1.53724 18.3434 1.61148 18.3051 1.64342 18.294C1.69303 18.2767 1.74001 18.2866 1.75534 18.306C1.76824 18.3224 1.76687 18.3671 1.72076 18.4397C1.69217 18.4844 1.70522 18.5439 1.75006 18.5725C1.79526 18.6011 1.85457 18.5879 1.88291 18.543C2.0058 18.3503 1.94024 18.2297 1.90632 18.1866C1.83791 18.1002 1.7104 18.0706 1.58741 18.1108C1.62783 17.9394 1.665 17.7774 1.509 17.6213C1.47143 17.5837 1.41054 17.5837 1.37296 17.6213C1.33538 17.6589 1.33538 17.7198 1.37296 17.7573C1.45 17.8344 1.43999 17.8977 1.39937 18.0695C1.37504 18.1725 1.34478 18.3008 1.34478 18.459C1.34478 18.6099 1.41704 18.7535 1.53785 18.844C1.41704 18.9344 1.34478 19.0781 1.34478 19.2289C1.34478 19.3871 1.37504 19.5155 1.39937 19.6185C1.43994 19.7902 1.45005 19.8536 1.37296 19.9306C1.33538 19.9682 1.33538 20.0291 1.37296 20.0667C1.39175 20.0855 1.41638 20.0949 1.44101 20.0949C1.46559 20.0949 1.49027 20.0855 1.50905 20.0667C1.66505 19.9106 1.62783 19.7486 1.58746 19.5772C1.71045 19.6172 1.83801 19.5875 1.90637 19.5013C1.94029 19.4583 2.0059 19.3377 1.88296 19.145C1.85447 19.1003 1.795 19.0871 1.75011 19.1154C1.70527 19.144 1.69222 19.2036 1.72081 19.2483C1.76692 19.3208 1.76829 19.3656 1.75539 19.3819C1.74011 19.4013 1.69309 19.4112 1.64347 19.394C1.61153 19.3829 1.53729 19.3446 1.53729 19.2288C1.53729 19.1363 1.58005 19.0516 1.65459 18.9965C1.72929 18.9413 1.82588 18.9257 1.91916 18.9546C2.03423 18.9898 2.11462 19.111 2.11462 19.2494C2.11462 19.3485 2.09339 19.4487 2.05439 19.5364C2.0482 19.5494 1.90114 19.854 1.86325 19.9675C1.78835 20.1921 1.86447 20.3051 1.91642 20.3523C1.96085 20.3927 2.01808 20.4139 2.07658 20.4139C2.10974 20.4139 2.14336 20.407 2.17505 20.3931C2.18835 20.3872 2.19932 20.3787 2.21085 20.3707C2.22238 20.3787 2.2334 20.3872 2.24665 20.3931C2.27829 20.407 2.31195 20.4139 2.34512 20.4139C2.40346 20.4139 2.46079 20.3927 2.50528 20.3523C2.55723 20.3051 2.63335 20.1921 2.55845 19.9675C2.52056 19.854 2.37355 19.5494 2.36868 19.5392C2.32841 19.4486 2.30713 19.3485 2.30713 19.2494C2.30713 19.1109 2.38747 18.9896 2.50259 18.9546C2.59618 18.9256 2.69251 18.9412 2.76716 18.9965C2.8417 19.0516 2.88446 19.1363 2.88446 19.2287C2.88446 19.3445 2.81022 19.3828 2.77828 19.3939C2.72887 19.4112 2.68154 19.4013 2.66636 19.3819C2.65346 19.3655 2.65483 19.3208 2.70094 19.2482C2.72953 19.2035 2.71648 19.144 2.67164 19.1154C2.6267 19.0872 2.56743 19.1004 2.53879 19.1449C2.4159 19.3376 2.48146 19.4582 2.51538 19.5013C2.58379 19.5875 2.7113 19.6172 2.83429 19.5771C2.79387 19.7485 2.7567 19.9106 2.9127 20.0666C2.93149 20.0854 2.95611 20.0948 2.98074 20.0948C3.00537 20.0948 3.03 20.0854 3.04879 20.0666C3.08637 20.029 3.08637 19.9682 3.04879 19.9306C2.97175 19.8535 2.98176 19.7902 3.02238 19.6184C3.04671 19.5154 3.07697 19.3871 3.07697 19.2288C3.07697 19.078 3.00471 18.9344 2.8839 18.8439C3.00471 18.7534 3.07697 18.6099 3.07697 18.459C3.07697 18.3008 3.04671 18.1724 3.02238 18.0694C2.98181 17.8977 2.9717 17.8343 3.04879 17.7572C3.08637 17.7197 3.08637 17.6588 3.04879 17.6212C3.01121 17.5836 2.95032 17.5836 2.91275 17.6212C2.75675 17.7772 2.79397 17.9392 2.83434 18.1107C2.71135 18.0705 2.58379 18.1001 2.51544 18.1865C2.48151 18.2296 2.4159 18.3502 2.53885 18.5429C2.56743 18.5876 2.62654 18.6008 2.67169 18.5724C2.71653 18.5438 2.72958 18.4843 2.70099 18.4396C2.65488 18.367 2.65351 18.3223 2.66641 18.3059C2.68164 18.2866 2.72887 18.2766 2.77833 18.2939C2.81027 18.305 2.88451 18.3433 2.88451 18.4591C2.88451 18.5516 2.84175 18.6363 2.76721 18.6914C2.69251 18.7466 2.59582 18.7624 2.50264 18.7333C2.38757 18.6981 2.30718 18.5769 2.30718 18.4384C2.30718 18.3393 2.32841 18.2392 2.36873 18.1486L2.99887 16.7309C3.05067 16.6144 3.07697 16.4905 3.07697 16.3629C3.07697 16.1987 3.00232 16.0488 2.88482 15.9573C3.00227 15.8658 3.07697 15.7159 3.07697 15.5517C3.07697 15.4241 3.05062 15.3002 2.99887 15.1838L2.36878 13.7661C2.32851 13.6755 2.30723 13.5754 2.30723 13.4763C2.30723 13.3378 2.38757 13.2166 2.50269 13.1815C2.59628 13.1525 2.69261 13.1681 2.76726 13.2233C2.84181 13.2784 2.88456 13.3631 2.88456 13.4556C2.88456 13.5714 2.81032 13.6097 2.77838 13.6208C2.72897 13.6383 2.68164 13.6282 2.66646 13.6088C2.65356 13.5924 2.65493 13.5477 2.70104 13.4751C2.72963 13.4304 2.71658 13.3709 2.67174 13.3423C2.6268 13.3141 2.56754 13.3272 2.5389 13.3718C2.41601 13.5645 2.48156 13.6851 2.51549 13.7282C2.58389 13.8144 2.7114 13.8441 2.83439 13.804C2.79397 13.9754 2.7568 14.1375 2.9128 14.2935C2.93159 14.3123 2.95622 14.3217 2.98084 14.3217C3.00547 14.3217 3.0301 14.3123 3.04889 14.2935C3.08647 14.2559 3.08647 14.195 3.04889 14.1575C2.97186 14.0804 2.98186 14.0171 3.02248 13.8453C3.04681 13.7423 3.07707 13.614 3.07707 13.4557C3.07707 13.3505 3.04005 13.2498 2.9778 13.167H2.9809C3.03406 13.167 3.07713 13.124 3.07713 13.0708C3.07713 13.0176 3.03411 12.9746 2.9809 12.9746H2.9778C3.04011 12.8918 3.07707 12.7913 3.07707 12.6859C3.07707 12.5276 3.04681 12.3993 3.02248 12.2963C2.98191 12.1245 2.97181 12.0612 3.04889 11.9841C3.08647 11.9466 3.08647 11.8857 3.04889 11.8481C3.01131 11.8105 2.95043 11.8105 2.91285 11.8481C2.75685 12.0041 2.79407 12.1661 2.83444 12.3376C2.71145 12.2976 2.58389 12.3272 2.51554 12.4134C2.48161 12.4564 2.41601 12.5771 2.53895 12.7698C2.56754 12.8145 2.62665 12.8275 2.67179 12.7993C2.71663 12.7707 2.72968 12.7112 2.70109 12.6665C2.65498 12.5939 2.65361 12.5492 2.66651 12.5328C2.68174 12.5135 2.72897 12.5035 2.77843 12.5208C2.81037 12.5319 2.88461 12.5702 2.88461 12.686C2.88461 12.7785 2.84186 12.8632 2.76731 12.9183C2.69261 12.9735 2.59592 12.9891 2.50274 12.9601C2.38767 12.925 2.30728 12.8038 2.30728 12.6653C2.30728 12.5662 2.32851 12.4661 2.36883 12.3755L2.99897 10.9577C3.05077 10.8413 3.07707 10.7173 3.07707 10.5898C3.07707 10.4256 3.00243 10.2757 2.88492 10.1842C3.00238 10.0927 3.07707 9.94278 3.07707 9.77861C3.07707 9.65099 3.05072 9.52714 2.99897 9.41065L2.36883 7.99289C2.32856 7.90229 2.30728 7.80215 2.30728 7.70308C2.30728 7.56455 2.38762 7.44338 2.50274 7.40824C2.59633 7.3793 2.69266 7.39489 2.76731 7.45014C2.84186 7.50524 2.88461 7.58994 2.88461 7.68241C2.88461 7.79819 2.81037 7.83648 2.77843 7.8476C2.72902 7.86492 2.68169 7.85471 2.66651 7.83557C2.65361 7.81922 2.65498 7.77448 2.70109 7.70191C2.72968 7.65717 2.71663 7.59761 2.67179 7.56907C2.62685 7.54088 2.56759 7.55383 2.53895 7.59857C2.41606 7.79124 2.48161 7.91184 2.51554 7.9549C2.58394 8.04113 2.71145 8.07084 2.83444 8.03077C2.79402 8.20216 2.75685 8.3642 2.91285 8.52025C2.93164 8.53904 2.95627 8.54843 2.9809 8.54843C3.00552 8.54843 3.03015 8.53904 3.04894 8.52025C3.08652 8.48267 3.08652 8.42178 3.04894 8.38421C2.97191 8.30717 2.98191 8.24385 3.02254 8.07205C3.04686 7.96907 3.07713 7.8407 3.07713 7.68246C3.07713 7.57719 3.04011 7.47649 2.97785 7.39377H2.98095C3.03411 7.39377 3.07718 7.35076 3.07718 7.29754C3.07718 7.24437 3.03416 7.20131 2.98095 7.20131H2.97785C3.04016 7.11859 3.07713 7.01799 3.07713 6.91262C3.07682 6.75413 3.04655 6.62576 3.02228 6.52277ZM2.04576 6.11272C2.01158 6.01014 2.02352 5.95169 2.04606 5.93117C2.06079 5.91726 2.08314 5.91782 2.0973 5.92422C2.11467 5.93193 2.11467 5.94417 2.11467 5.95016C2.11467 6.00333 2.15768 6.04639 2.2109 6.04639C2.26407 6.04639 2.30713 6.00338 2.30713 5.95016C2.30713 5.94417 2.30713 5.93193 2.3245 5.92422C2.33841 5.91782 2.3606 5.91726 2.37574 5.93117C2.39828 5.95169 2.41022 6.01014 2.37604 6.11272C2.35116 6.18711 2.26112 6.38079 2.21095 6.48591C2.1618 6.38323 2.0708 6.18762 2.04576 6.11272ZM2.21085 10.083C2.23847 10.1206 2.26971 10.1555 2.30769 10.1839C2.26971 10.2124 2.23847 10.2473 2.21085 10.2848C2.18322 10.2473 2.15199 10.2124 2.11401 10.1839C2.15199 10.1555 2.18322 10.1206 2.21085 10.083ZM2.21085 15.8565C2.23847 15.894 2.26971 15.9289 2.30769 15.9574C2.26971 15.9858 2.23847 16.0207 2.21085 16.0583C2.18322 16.0207 2.15199 15.9858 2.11401 15.9574C2.15199 15.9289 2.18322 15.8941 2.21085 15.8565ZM2.37589 20.0286C2.41006 20.1312 2.39813 20.1897 2.37558 20.2102C2.36045 20.2239 2.33826 20.2233 2.32435 20.2171C2.30698 20.2094 2.30698 20.1972 2.30698 20.1912C2.30698 20.138 2.26397 20.095 2.21075 20.095C2.15753 20.095 2.11452 20.138 2.11452 20.1912C2.11452 20.1972 2.11452 20.2094 2.09715 20.2171C2.08303 20.2233 2.06069 20.2239 2.04591 20.2102C2.02337 20.1897 2.01143 20.1312 2.04561 20.0286C2.07049 19.9542 2.16053 19.7606 2.2107 19.6554C2.25985 19.7581 2.35085 19.9537 2.37589 20.0286ZM2.30678 18.8441C2.27037 18.8724 2.23807 18.9063 2.21085 18.9447C2.18368 18.9063 2.15133 18.8724 2.11492 18.8441C2.15133 18.8157 2.18363 18.7818 2.21085 18.7435C2.23802 18.7818 2.27031 18.8157 2.30678 18.8441ZM2.82281 16.6527L2.2108 18.0297L1.59878 16.6527C1.55852 16.5621 1.53724 16.462 1.53724 16.3629C1.53724 16.2244 1.61757 16.1031 1.73269 16.0681C1.82623 16.0391 1.92272 16.0547 1.99726 16.11C2.07181 16.165 2.11457 16.2498 2.11457 16.3422C2.11457 16.458 2.04033 16.4963 2.00839 16.5074C1.95877 16.5247 1.9116 16.5148 1.89646 16.4954C1.88357 16.479 1.88494 16.4343 1.93105 16.3617C1.95964 16.317 1.94658 16.2574 1.90174 16.2289C1.8568 16.2007 1.79754 16.2139 1.7689 16.2584C1.64601 16.4511 1.71157 16.5717 1.74549 16.6148C1.81516 16.7027 1.94623 16.733 2.07156 16.6892C2.08583 16.6842 2.1003 16.6781 2.11457 16.6708V16.9142C2.11457 16.9141 2.11442 16.914 2.11442 16.914C2.11152 16.8633 2.06958 16.8234 2.01839 16.8234C1.96522 16.8234 1.92216 16.8664 1.92216 16.9196C1.92216 16.9824 1.96603 17.0912 2.11457 17.125V17.3045C2.11457 17.3576 2.15758 17.4007 2.2108 17.4007C2.26402 17.4007 2.30703 17.3577 2.30703 17.3045V17.125C2.45556 17.0912 2.49944 16.9824 2.49944 16.9196C2.49944 16.8664 2.45653 16.8202 2.40341 16.8202C2.35024 16.8202 2.30738 16.8601 2.30738 16.9133C2.30733 16.9134 2.30703 16.9137 2.30698 16.9138V16.6709C2.32125 16.6782 2.33572 16.6843 2.34999 16.6893C2.47532 16.733 2.60633 16.7028 2.67606 16.6149C2.70998 16.5719 2.77559 16.4512 2.65265 16.2585C2.62406 16.2138 2.56469 16.2006 2.5198 16.229C2.47496 16.2576 2.46191 16.3171 2.4905 16.3618C2.53661 16.4344 2.53798 16.4791 2.52508 16.4955C2.50985 16.5148 2.46267 16.5248 2.41316 16.5075C2.38122 16.4964 2.30698 16.4581 2.30698 16.3423C2.30698 16.2499 2.34974 16.1651 2.42428 16.1101C2.49898 16.0548 2.59567 16.039 2.68885 16.0682C2.80392 16.1033 2.88431 16.2245 2.88431 16.363C2.88441 16.462 2.86318 16.5622 2.82281 16.6527ZM2.82281 15.262C2.86308 15.3526 2.88436 15.4527 2.88436 15.5518C2.88436 15.6903 2.80402 15.8115 2.6889 15.8467C2.59552 15.8758 2.49888 15.86 2.42433 15.8048C2.34979 15.7497 2.30703 15.665 2.30703 15.5725C2.30703 15.4567 2.38127 15.4184 2.41321 15.4073C2.46272 15.39 2.50995 15.3999 2.52513 15.4193C2.53803 15.4357 2.53666 15.4804 2.49055 15.553C2.46196 15.5977 2.47501 15.6572 2.51985 15.6858C2.56505 15.7144 2.62436 15.7012 2.6527 15.6563C2.77559 15.4636 2.71003 15.343 2.67611 15.2999C2.60638 15.212 2.47537 15.1821 2.35004 15.2255C2.33577 15.2305 2.3213 15.2367 2.30703 15.2439V15.0005L2.30718 15.0008C2.31008 15.0513 2.35202 15.0914 2.40321 15.0914C2.45638 15.0914 2.49944 15.0484 2.49944 14.9952C2.49944 14.9324 2.45556 14.8235 2.30703 14.7898V14.6103C2.30703 14.5571 2.26402 14.5141 2.2108 14.5141C2.15758 14.5141 2.11457 14.5571 2.11457 14.6103V14.7898C1.96603 14.8235 1.92216 14.9324 1.92216 14.9952C1.92216 15.0483 1.96507 15.0945 2.01819 15.0945C2.07135 15.0945 2.11421 15.0547 2.11421 15.0015C2.11426 15.0013 2.11457 15.0011 2.11457 15.0011L2.11462 15.2438C2.10035 15.2366 2.08588 15.2304 2.07161 15.2255C1.94628 15.1821 1.81521 15.212 1.74554 15.2999C1.71162 15.3429 1.64601 15.4636 1.76895 15.6562C1.79754 15.701 1.85691 15.714 1.9018 15.6858C1.94664 15.6572 1.95969 15.5976 1.9311 15.5529C1.88499 15.4804 1.88362 15.4356 1.89651 15.4193C1.91165 15.3999 1.95882 15.39 2.00844 15.4072C2.04038 15.4183 2.11462 15.4567 2.11462 15.5724C2.11462 15.6649 2.07186 15.7497 1.99732 15.8047C1.92262 15.86 1.82613 15.8757 1.73275 15.8466C1.61768 15.8115 1.53729 15.6902 1.53729 15.5518C1.53729 15.4527 1.55852 15.3525 1.59884 15.262L2.21085 13.885L2.82281 15.262ZM2.30678 13.0707C2.27037 13.099 2.23807 13.133 2.21085 13.1713C2.18368 13.133 2.15133 13.0991 2.11492 13.0707C2.15133 13.0424 2.18363 13.0084 2.21085 12.9701C2.23802 13.0084 2.27031 13.0423 2.30678 13.0707ZM2.82281 10.8793L2.2108 12.2563L1.59878 10.8793C1.55852 10.7887 1.53724 10.6886 1.53724 10.5895C1.53724 10.451 1.61757 10.3298 1.73269 10.2947C1.82623 10.2658 1.92272 10.2813 1.99726 10.3366C2.07181 10.3917 2.11457 10.4764 2.11457 10.5689C2.11457 10.6846 2.04033 10.7229 2.00839 10.7341C1.95877 10.7515 1.9116 10.7414 1.89646 10.722C1.88357 10.7057 1.88494 10.6609 1.93105 10.5884C1.95964 10.5436 1.94658 10.4841 1.90174 10.4555C1.8568 10.4272 1.79754 10.4403 1.7689 10.4851C1.64601 10.6777 1.71157 10.7983 1.74549 10.8414C1.81516 10.9294 1.94623 10.9594 2.07156 10.9158C2.08583 10.9109 2.1003 10.9047 2.11457 10.8975V11.1408L2.11442 11.1405C2.11152 11.09 2.06958 11.0499 2.01839 11.0499C1.96522 11.0499 1.92216 11.0929 1.92216 11.1461C1.92216 11.2089 1.96603 11.3178 2.11457 11.3515V11.531C2.11457 11.5842 2.15758 11.6272 2.2108 11.6272C2.26402 11.6272 2.30703 11.5842 2.30703 11.531V11.3515C2.45556 11.3178 2.49944 11.2089 2.49944 11.1461C2.49944 11.093 2.45653 11.0467 2.40341 11.0467C2.35024 11.0467 2.30738 11.0866 2.30738 11.1397C2.30733 11.1399 2.30703 11.1402 2.30703 11.1402L2.30698 10.8974C2.32125 10.9047 2.33572 10.9108 2.34999 10.9158C2.47532 10.9593 2.60633 10.9293 2.67606 10.8414C2.70998 10.7983 2.77559 10.6777 2.65265 10.485C2.62406 10.4401 2.56469 10.427 2.5198 10.4555C2.47496 10.4841 2.46191 10.5436 2.4905 10.5883C2.53661 10.6609 2.53798 10.7056 2.52508 10.722C2.50985 10.7413 2.46267 10.7515 2.41316 10.734C2.38122 10.7229 2.30698 10.6846 2.30698 10.5688C2.30698 10.4763 2.34974 10.3916 2.42428 10.3365C2.49898 10.2813 2.59567 10.2657 2.68885 10.2946C2.80392 10.3298 2.88431 10.451 2.88431 10.5895C2.88441 10.6886 2.86318 10.7887 2.82281 10.8793ZM2.82281 9.4886C2.86308 9.57919 2.88436 9.67933 2.88436 9.7784C2.88436 9.91693 2.80402 10.0381 2.6889 10.0732C2.59552 10.1024 2.49888 10.0866 2.42433 10.0313C2.34979 9.97625 2.30703 9.89154 2.30703 9.79907C2.30703 9.68329 2.38127 9.645 2.41321 9.63388C2.46272 9.61656 2.50995 9.62652 2.52513 9.64592C2.53803 9.66227 2.53666 9.70701 2.49055 9.77957C2.46196 9.82431 2.47501 9.88383 2.51985 9.91242C2.56505 9.94075 2.62436 9.9278 2.6527 9.88286C2.77559 9.6902 2.71003 9.56959 2.67611 9.52653C2.60638 9.43858 2.47537 9.40851 2.35004 9.45213C2.33577 9.45706 2.3213 9.46321 2.30703 9.47047V9.22712C2.30703 9.22717 2.30718 9.22728 2.30718 9.22728C2.31008 9.27796 2.35202 9.31792 2.40321 9.31792C2.45638 9.31792 2.49944 9.27491 2.49944 9.22169C2.49944 9.15892 2.45556 9.05005 2.30703 9.01633V8.83682C2.30703 8.78365 2.26402 8.74059 2.2108 8.74059C2.15758 8.74059 2.11457 8.7836 2.11457 8.83682V9.01633C1.96603 9.05005 1.92216 9.15892 1.92216 9.22169C1.92216 9.27486 1.96507 9.32112 2.01819 9.32112C2.07135 9.32112 2.11421 9.28126 2.11421 9.22809C2.11426 9.22794 2.11457 9.22768 2.11462 9.22753V9.47042C2.10035 9.46315 2.08588 9.45701 2.07161 9.45208C1.94628 9.40851 1.81521 9.43858 1.74554 9.52648C1.71162 9.56949 1.64601 9.69015 1.76895 9.88281C1.79754 9.92755 1.85691 9.94055 1.9018 9.91236C1.94664 9.88377 1.95969 9.82421 1.9311 9.77952C1.88499 9.70695 1.88362 9.66222 1.89651 9.64587C1.91165 9.62652 1.95882 9.61656 2.00844 9.63383C2.04038 9.6449 2.11462 9.68324 2.11462 9.79902C2.11462 9.89149 2.07186 9.97625 1.99732 10.0313C1.92262 10.0865 1.82613 10.1023 1.73275 10.0732C1.61768 10.038 1.53729 9.91683 1.53729 9.77835C1.53729 9.67928 1.55852 9.57914 1.59884 9.48855L2.21085 8.11156L2.82281 9.4886ZM2.11487 7.29729C2.15128 7.26895 2.18358 7.23503 2.2108 7.19669C2.23797 7.23503 2.27031 7.2689 2.30672 7.29729C2.27031 7.32562 2.23802 7.35954 2.2108 7.39788C2.18363 7.35954 2.15133 7.32562 2.11487 7.29729Z" fill="#FFE15A"/>
<path d="M13.7485 14.2512C15.0276 14.2512 16.0645 13.2143 16.0645 11.9353C16.0645 10.6563 15.0276 9.61938 13.7485 9.61938C12.4695 9.61938 11.4326 10.6563 11.4326 11.9353C11.4326 13.2143 12.4695 14.2512 13.7485 14.2512Z" fill="#FFE15A"/>
<path d="M13.9225 8.98254C13.9225 9.07847 13.8447 9.15626 13.7488 9.15626C13.6529 9.15626 13.5751 9.07847 13.5751 8.98254C13.5751 8.88662 13.7488 8.46143 13.7488 8.46143C13.7488 8.46143 13.9225 8.88662 13.9225 8.98254Z" fill="#FFE15A"/>
<path d="M13.5751 14.8883C13.5751 14.7924 13.6529 14.7146 13.7488 14.7146C13.8447 14.7146 13.9225 14.7924 13.9225 14.8883C13.9225 14.9842 13.7488 15.4094 13.7488 15.4094C13.7488 15.4094 13.5751 14.9843 13.5751 14.8883Z" fill="#FFE15A"/>
<path d="M16.7018 12.1092C16.6059 12.1092 16.5281 12.0314 16.5281 11.9354C16.5281 11.8395 16.6059 11.7617 16.7018 11.7617C16.7977 11.7617 17.2229 11.9354 17.2229 11.9354C17.2229 11.9354 16.7977 12.1092 16.7018 12.1092Z" fill="#FFE15A"/>
<path d="M10.7958 11.762C10.8917 11.762 10.9695 11.8398 10.9695 11.9357C10.9695 12.0316 10.8917 12.1094 10.7958 12.1094C10.6998 12.1094 10.2747 11.9357 10.2747 11.9357C10.2747 11.9357 10.6998 11.762 10.7958 11.762Z" fill="#FFE15A"/>
<path d="M15.9598 9.97012C15.8919 10.038 15.782 10.038 15.7141 9.97012C15.6462 9.90228 15.6463 9.79233 15.7141 9.72444C15.782 9.65654 16.2054 9.47876 16.2054 9.47876C16.2054 9.47876 16.0277 9.90228 15.9598 9.97012Z" fill="#FFE15A"/>
<path d="M11.5379 13.9005C11.6057 13.8326 11.7157 13.8326 11.7836 13.9005C11.8515 13.9683 11.8514 14.0783 11.7836 14.1462C11.7157 14.2141 11.2922 14.3918 11.2922 14.3918C11.2922 14.3918 11.47 13.9684 11.5379 13.9005Z" fill="#FFE15A"/>
<path d="M15.7142 14.1464C15.6464 14.0786 15.6464 13.9686 15.7142 13.9008C15.7821 13.8329 15.892 13.8329 15.9599 13.9008C16.0278 13.9686 16.2056 14.3921 16.2056 14.3921C16.2056 14.3921 15.7821 14.2142 15.7142 14.1464Z" fill="#FFE15A"/>
<path d="M11.7835 9.72438C11.8513 9.79223 11.8513 9.90217 11.7835 9.97006C11.7156 10.038 11.6057 10.0379 11.5378 9.97006C11.4699 9.90222 11.2921 9.47876 11.2921 9.47876C11.2921 9.47876 11.7156 9.65659 11.7835 9.72438Z" fill="#FFE15A"/>
<path d="M12.7793 9.14063C12.816 9.22929 12.7739 9.33086 12.6852 9.36757C12.5965 9.40429 12.495 9.36219 12.4583 9.27352C12.4215 9.18486 12.4193 8.72559 12.4193 8.72559C12.4193 8.72559 12.7425 9.05196 12.7793 9.14063Z" fill="#FFE15A"/>
<path d="M14.7185 14.7302C14.6818 14.6415 14.7238 14.54 14.8125 14.5033C14.9012 14.4665 15.0027 14.5086 15.0394 14.5973C15.0761 14.686 15.0784 15.1452 15.0784 15.1452C15.0784 15.1452 14.7551 14.8188 14.7185 14.7302Z" fill="#FFE15A"/>
<path d="M16.5434 10.9657C16.4548 11.0024 16.3532 10.9603 16.3165 10.8716C16.2798 10.7829 16.3219 10.6814 16.4105 10.6447C16.4992 10.6079 16.9584 10.6057 16.9584 10.6057C16.9584 10.6057 16.6321 10.9289 16.5434 10.9657Z" fill="#FFE15A"/>
<path d="M10.9542 12.9049C11.0429 12.8682 11.1444 12.9103 11.1811 12.9989C11.2179 13.0876 11.1758 13.1892 11.0871 13.2259C10.9984 13.2626 10.5392 13.2648 10.5392 13.2648C10.5392 13.2648 10.8655 12.9416 10.9542 12.9049Z" fill="#FFE15A"/>
<path d="M15.0394 9.27371C15.0027 9.36237 14.9011 9.40442 14.8125 9.36775C14.7238 9.33104 14.6818 9.22942 14.7184 9.14081C14.7552 9.0522 15.0783 8.72583 15.0783 8.72583C15.0783 8.72583 15.0761 9.18509 15.0394 9.27371Z" fill="#FFE15A"/>
<path d="M12.4583 14.5973C12.495 14.5086 12.5967 14.4666 12.6853 14.5032C12.774 14.5399 12.816 14.6416 12.7793 14.7302C12.7426 14.8188 12.4194 15.1451 12.4194 15.1451C12.4194 15.1451 12.4216 14.6859 12.4583 14.5973Z" fill="#FFE15A"/>
<path d="M16.4106 13.2261C16.322 13.1894 16.2799 13.0878 16.3166 12.9991C16.3533 12.9105 16.4549 12.8684 16.5435 12.9051C16.6321 12.9418 16.9585 13.265 16.9585 13.265C16.9585 13.265 16.4992 13.2628 16.4106 13.2261Z" fill="#FFE15A"/>
<path d="M11.0869 10.6446C11.1756 10.6813 11.2176 10.7829 11.181 10.8716C11.1443 10.9602 11.0427 11.0023 10.954 10.9656C10.8654 10.9289 10.5391 10.6057 10.5391 10.6057C10.5391 10.6057 10.9984 10.6078 11.0869 10.6446Z" fill="#FFE15A"/>
<path d="M13.3432 9.00531C13.3619 9.0994 13.3008 9.19086 13.2066 9.20955C13.1125 9.22829 13.0211 9.1672 13.0024 9.07305C12.9836 8.97895 13.0711 8.52808 13.0711 8.52808C13.0711 8.52808 13.3244 8.91121 13.3432 9.00531Z" fill="#FFE15A"/>
<path d="M14.1546 14.8653C14.1359 14.7712 14.197 14.6798 14.2911 14.6611C14.3853 14.6424 14.4767 14.7034 14.4954 14.7976C14.5141 14.8917 14.4267 15.3426 14.4267 15.3426C14.4267 15.3426 14.1733 14.9594 14.1546 14.8653Z" fill="#FFE15A"/>
<path d="M16.6789 11.5297C16.5848 11.5484 16.4934 11.4873 16.4747 11.3932C16.456 11.299 16.517 11.2076 16.6112 11.1889C16.7053 11.1702 17.1562 11.2576 17.1562 11.2576C17.1562 11.2576 16.773 11.511 16.6789 11.5297Z" fill="#FFE15A"/>
<path d="M10.8187 12.3413C10.9128 12.3225 11.0042 12.3836 11.0229 12.4778C11.0417 12.5719 10.9806 12.6633 10.8864 12.682C10.7923 12.7008 10.3414 12.6133 10.3414 12.6133C10.3414 12.6133 10.7246 12.36 10.8187 12.3413Z" fill="#FFE15A"/>
<path d="M15.5339 9.57648C15.4806 9.65625 15.3727 9.67768 15.2929 9.62436C15.2131 9.57104 15.1917 9.46318 15.245 9.38341C15.2983 9.30363 15.6789 9.04663 15.6789 9.04663C15.6789 9.04663 15.5871 9.49665 15.5339 9.57648Z" fill="#FFE15A"/>
<path d="M11.9638 14.2942C12.0171 14.2145 12.125 14.193 12.2048 14.2464C12.2845 14.2996 12.306 14.4075 12.2527 14.4873C12.1994 14.5671 11.8187 14.8241 11.8187 14.8241C11.8187 14.8241 11.9105 14.3741 11.9638 14.2942Z" fill="#FFE15A"/>
<path d="M16.1077 13.7205C16.0279 13.6672 16.0065 13.5593 16.0598 13.4796C16.1132 13.3998 16.221 13.3783 16.3008 13.4317C16.3806 13.4849 16.6376 13.8656 16.6376 13.8656C16.6376 13.8656 16.1875 13.7738 16.1077 13.7205Z" fill="#FFE15A"/>
<path d="M11.3901 10.1505C11.4699 10.2037 11.4913 10.3116 11.438 10.3914C11.3847 10.4712 11.2768 10.4926 11.197 10.4393C11.1172 10.386 10.8602 10.0054 10.8602 10.0054C10.8602 10.0054 11.3104 10.0972 11.3901 10.1505Z" fill="#FFE15A"/>
<path d="M12.2527 9.3836C12.3059 9.46338 12.2845 9.57123 12.2048 9.62455C12.125 9.67787 12.0171 9.65639 11.9638 9.57667C11.9105 9.49689 11.8187 9.04688 11.8187 9.04688C11.8187 9.04688 12.1994 9.30387 12.2527 9.3836Z" fill="#FFE15A"/>
<path d="M15.2451 14.4873C15.1918 14.4075 15.2133 14.2996 15.293 14.2463C15.3727 14.1931 15.4806 14.2145 15.534 14.2942C15.5872 14.374 15.6791 14.824 15.6791 14.824C15.6791 14.824 15.2984 14.567 15.2451 14.4873Z" fill="#FFE15A"/>
<path d="M16.3006 10.4393C16.2209 10.4926 16.113 10.4711 16.0597 10.3914C16.0064 10.3116 16.0278 10.2038 16.1076 10.1505C16.1873 10.0972 16.6374 10.0054 16.6374 10.0054C16.6374 10.0054 16.3804 10.386 16.3006 10.4393Z" fill="#FFE15A"/>
<path d="M11.197 13.4316C11.2767 13.3784 11.3846 13.3998 11.4379 13.4795C11.4912 13.5593 11.4698 13.6672 11.39 13.7205C11.3103 13.7738 10.8602 13.8656 10.8602 13.8656C10.8602 13.8656 11.1172 13.4849 11.197 13.4316Z" fill="#FFE15A"/>
<path d="M14.4954 9.07306C14.4766 9.16715 14.3852 9.22829 14.2911 9.20955C14.197 9.19082 14.1359 9.09941 14.1546 9.00531C14.1734 8.91122 14.4266 8.52808 14.4266 8.52808C14.4266 8.52808 14.514 8.97896 14.4954 9.07306Z" fill="#FFE15A"/>
<path d="M13.0024 14.7976C13.0211 14.7035 13.1125 14.6424 13.2066 14.6611C13.3007 14.6798 13.3619 14.7712 13.3431 14.8653C13.3244 14.9594 13.0711 15.3426 13.0711 15.3426C13.0711 15.3426 12.9837 14.8917 13.0024 14.7976Z" fill="#FFE15A"/>
<path d="M16.6112 12.6818C16.5171 12.663 16.456 12.5716 16.4747 12.4775C16.4934 12.3834 16.5848 12.3223 16.6789 12.341C16.773 12.3598 17.1562 12.6131 17.1562 12.6131C17.1562 12.6131 16.7053 12.7005 16.6112 12.6818Z" fill="#FFE15A"/>
<path d="M10.8864 11.1889C10.9805 11.2076 11.0416 11.299 11.0229 11.3931C11.0042 11.4872 10.9128 11.5484 10.8187 11.5297C10.7246 11.5109 10.3414 11.2576 10.3414 11.2576C10.3414 11.2576 10.7923 11.1702 10.8864 11.1889Z" fill="#FFE15A"/>
<path d="M19.1966 12.5448C19.1288 12.5162 19.0512 12.5489 19.0229 12.6164C19.0229 12.6167 19.0229 12.6167 19.0229 12.6167C19.0224 12.618 19.0198 12.6242 19.0153 12.6349C18.9149 12.8694 18.7072 13.2121 18.4975 13.5345C18.6928 12.9057 18.8714 12.2341 18.8838 12.1868C18.9025 12.1163 18.8607 12.0439 18.7903 12.0247C18.7198 12.0058 18.6473 12.0468 18.6275 12.1171C18.5364 12.4437 18.3499 12.8735 18.1779 13.2374C18.2095 12.8317 18.2154 12.4558 18.2158 12.4286C18.2169 12.3567 18.1606 12.2973 18.0887 12.2939C18.0211 12.296 17.9559 12.3453 17.9506 12.4171C17.7805 14.7565 15.5295 15.803 15.3103 15.8993C15.1956 15.9107 14.6614 15.9709 14.1766 16.1392C14.1217 16.1583 14.0749 16.1775 14.0283 16.1965C14.0109 16.19 13.9924 16.1863 13.9728 16.1875C12.4848 16.2951 11.2984 15.6847 10.4457 14.377C9.8014 13.3889 9.59934 12.3518 9.59736 12.3414C9.58375 12.2693 9.51469 12.2228 9.44227 12.2356C9.37016 12.2493 9.32279 12.3186 9.33645 12.3907C9.34183 12.4193 9.43049 12.872 9.67465 13.4678C9.34797 12.9521 9.12032 12.3274 9.04019 12.0021C9.03856 11.9956 9.0344 11.9907 9.03196 11.9847C9.0282 11.9755 9.02506 11.9662 9.01952 11.9583C9.01561 11.9526 9.01048 11.9485 9.00586 11.9436C8.9986 11.9359 8.99164 11.9284 8.98276 11.9227C8.97768 11.9194 8.97199 11.9177 8.96646 11.9151C8.95665 11.9106 8.94706 11.9061 8.93614 11.904C8.92857 11.9025 8.92085 11.9035 8.91298 11.9033C8.90501 11.9032 8.89749 11.9012 8.88932 11.9026C8.88754 11.9029 8.88617 11.9041 8.88439 11.9045C8.88267 11.9049 8.88104 11.9043 8.87931 11.9047C8.87221 11.9064 8.86677 11.9109 8.86027 11.9137C8.85199 11.9173 8.84351 11.92 8.83625 11.925C8.82909 11.9299 8.82376 11.9363 8.81782 11.9425C8.81188 11.9486 8.80568 11.9539 8.80101 11.961C8.79629 11.9682 8.79375 11.9762 8.7904 11.9842C8.7872 11.992 8.78349 11.9993 8.78181 12.0077C8.78009 12.0163 8.78085 12.0251 8.7809 12.0341C8.7809 12.0412 8.77892 12.0481 8.78019 12.0554C8.7807 12.0586 8.78171 12.0617 8.78227 12.0647V12.0653C8.78242 12.0658 8.78263 12.0666 8.78278 12.0672C8.86494 12.5513 9.06076 13.0531 9.23783 13.4358C8.95665 13.1167 8.72169 12.7491 8.63841 12.5314C8.63602 12.5251 8.6312 12.5207 8.62795 12.515C8.62302 12.5062 8.61871 12.4972 8.61205 12.4899C8.60733 12.4848 8.60159 12.4814 8.59621 12.4771C8.58814 12.4706 8.58047 12.464 8.57112 12.4596C8.56513 12.4567 8.55863 12.4558 8.55228 12.4538C8.54248 12.4509 8.53299 12.4476 8.52258 12.447C8.5144 12.4464 8.50628 12.4485 8.498 12.4496C8.49033 12.4505 8.48277 12.4496 8.47515 12.452C8.47368 12.4524 8.47266 12.4536 8.47129 12.4541C8.46987 12.4545 8.46844 12.4542 8.46702 12.4548C8.45981 12.4575 8.45468 12.4629 8.44823 12.4667C8.44067 12.4711 8.43259 12.4749 8.42614 12.4806C8.41954 12.4866 8.41497 12.4939 8.40979 12.501C8.40487 12.5077 8.39938 12.5136 8.39573 12.521C8.39192 12.5288 8.3905 12.5372 8.38831 12.5456C8.38613 12.5538 8.38323 12.5614 8.38268 12.57C8.38207 12.5786 8.3842 12.5871 8.38532 12.5958C8.38628 12.6033 8.38527 12.6108 8.3876 12.6182C8.53212 13.0844 8.87967 13.639 9.15196 14.0297C8.92507 13.8549 8.7583 13.6658 8.70991 13.6087C8.70468 13.6025 8.69955 13.5963 8.69432 13.5901C8.6475 13.5337 8.56478 13.5257 8.50805 13.5716C8.45154 13.6178 8.44265 13.7009 8.48835 13.7576C8.49084 13.7607 8.50079 13.7732 8.51745 13.7926C8.71671 14.0297 8.9338 14.251 9.13048 14.4378L8.86144 14.3231C8.8001 14.2967 8.72799 14.3205 8.69442 14.3789C8.6608 14.4373 8.67599 14.5112 8.72982 14.5517C8.75602 14.5711 9.23245 14.927 9.64489 15.1374C9.60599 15.1397 9.56034 15.1369 9.50925 15.133C9.44689 15.127 9.38555 15.1716 9.37037 15.2349C9.35544 15.2984 9.38865 15.3633 9.44898 15.3882C9.45913 15.3924 9.58482 15.4442 9.74 15.4995C9.7038 15.5143 9.675 15.5446 9.66307 15.584C9.64519 15.6429 9.67033 15.7068 9.72375 15.7373C9.73767 15.7454 9.9254 15.8531 10.1577 15.9485C10.1515 15.9581 10.1465 15.9684 10.1426 15.9799C10.1245 16.0356 10.1452 16.0969 10.1936 16.1303C10.234 16.1581 11.1361 16.7703 12.1897 16.7703C12.2588 16.7703 12.3287 16.7677 12.399 16.762C12.472 16.7563 12.5267 16.6922 12.5208 16.6191C12.515 16.5459 12.4516 16.4906 12.3778 16.4974C11.7159 16.5514 11.0782 16.3028 10.699 16.1129C10.7491 16.1007 10.7779 16.0896 10.785 16.0867C10.8435 16.0628 10.8772 16.0014 10.8658 15.9393C10.8544 15.8774 10.801 15.8319 10.7378 15.8306C10.5838 15.8275 10.3706 15.7525 10.1869 15.6721C10.2563 15.6374 10.2968 15.6041 10.3004 15.6012C10.3403 15.5678 10.3572 15.5144 10.3436 15.464C10.3299 15.414 10.288 15.3763 10.2367 15.3681C10.1803 15.3587 10.11 15.3405 10.0364 15.3182C10.108 15.277 10.1384 15.2316 10.1501 15.2085C10.1685 15.1717 10.169 15.1286 10.1513 15.0915C10.1335 15.0544 10.0997 15.0277 10.0594 15.0191C10.0247 15.0116 9.98533 14.9989 9.94282 14.9823C9.95059 14.9745 9.95775 14.9657 9.96354 14.9556C9.99736 14.8982 9.9834 14.8246 9.93089 14.7833C9.92815 14.7812 9.82506 14.7003 9.66896 14.5657C9.69374 14.5566 9.71563 14.5397 9.73147 14.5169C9.76494 14.4687 9.76265 14.4041 9.72589 14.3584C9.72294 14.3547 9.6197 14.2249 9.47741 14.0278C9.52439 14.0643 9.57131 14.1015 9.61823 14.1317C9.64032 14.1457 9.6653 14.1527 9.69009 14.1527C9.7237 14.1527 9.75686 14.14 9.78241 14.1153C9.79292 14.1052 9.80114 14.0935 9.80764 14.0811C9.88823 14.1671 9.97289 14.2453 10.0618 14.312C10.0734 14.3206 10.0874 14.3205 10.1004 14.3249C10.1381 14.388 10.1773 14.4513 10.2185 14.5146C11.025 15.7556 12.1623 16.4203 13.5262 16.4602C13.4007 16.5365 13.2643 16.6153 13.0484 16.6994C13.0013 16.7178 12.9597 16.7362 12.9178 16.7546C12.8976 16.7586 12.8787 16.7659 12.8629 16.7784C12.4861 16.9528 12.3301 17.1252 12.2668 17.2457C12.2036 17.3656 12.2581 17.4885 12.3353 17.5524C12.3592 17.5721 12.3898 17.5822 12.4203 17.5822C12.4414 17.5822 12.4624 17.5775 12.4814 17.5679C12.5284 17.5445 12.5598 17.495 12.5577 17.4429C12.5631 17.4369 12.5862 17.4177 12.6586 17.4154C12.7114 17.4109 12.8224 17.4229 12.952 17.4332C13.0753 17.4434 13.2232 17.4549 13.3804 17.463C13.282 17.5777 13.1677 17.7105 13.1677 17.7105C13.1334 17.7505 13.1258 17.807 13.1487 17.8545C13.1716 17.9022 13.2211 17.9318 13.2729 17.93C13.3779 17.9263 13.4492 17.9242 13.496 17.9233C13.5369 17.9767 13.587 17.998 13.6193 18.0062C13.7106 18.0296 13.8017 17.993 13.8702 17.9497C13.9221 17.9871 13.974 18.0029 14.0152 18.0089C14.1079 18.0216 14.1938 17.9946 14.2559 17.964C14.3202 18.0055 14.3832 18.0161 14.4313 18.0161C14.4319 18.0161 14.4327 18.0161 14.4334 18.0161C14.5371 18.0156 14.6278 17.9656 14.6919 17.9165C14.7486 17.9502 14.8028 17.9611 14.8447 17.963C14.9398 17.9663 15.0186 17.9298 15.0711 17.8955C15.2582 17.9331 15.4196 17.8449 15.5262 17.7476C15.5748 17.7759 15.6211 17.7829 15.658 17.7811C15.7528 17.7777 15.825 17.7201 15.8714 17.6685C16.0836 17.6941 16.2359 17.655 16.3239 17.5505C16.3719 17.4937 16.3914 17.4296 16.3966 17.3712C16.9854 17.3679 17.0387 17.0464 17.043 17.0067C17.0468 16.9706 17.0359 16.9346 17.0124 16.9069C16.9891 16.8792 16.9552 16.862 16.919 16.8599L15.3755 16.7671C15.3109 16.7624 15.2533 16.8057 15.2383 16.8688C15.238 16.8698 15.2117 16.9679 15.1293 17.0463C15.0185 17.1521 14.8401 17.2079 14.6461 17.2375C14.6468 17.2197 14.6443 17.2017 14.6375 17.184C14.6111 17.1155 14.534 17.0823 14.4658 17.108C14.1471 17.2317 13.6312 17.2161 13.2276 17.1881C13.2895 17.1375 13.364 17.0874 13.4236 17.0547C13.4739 17.0269 13.501 16.9701 13.4903 16.9136C13.4826 16.8725 13.4529 16.8439 13.417 16.8255C13.5292 16.7689 13.6213 16.7141 13.7085 16.6609C13.8601 16.5681 14.0032 16.4806 14.2639 16.3901C14.7672 16.2152 15.3496 16.1621 15.3554 16.1615C15.3686 16.1605 15.3816 16.1571 15.3939 16.1522C15.4146 16.1436 17.0574 15.4554 17.8314 13.8675C17.8212 13.9155 17.8103 13.9593 17.7985 13.9977C17.7783 14.0631 17.8109 14.1329 17.874 14.1593C17.9227 14.1798 17.9781 14.1691 18.0156 14.1344C17.9667 14.2633 17.9225 14.3647 17.8864 14.4246C17.8496 14.4856 17.8674 14.5648 17.9266 14.6042C17.9405 14.6133 17.9554 14.6194 17.9707 14.6231C17.9108 14.7108 17.85 14.7938 17.7895 14.8698C17.7491 14.9204 17.7515 14.9925 17.7936 15.0403C17.6896 15.1492 17.5974 15.239 17.5273 15.2961C17.4816 15.3331 17.4666 15.3951 17.4877 15.4481C17.4201 15.4867 17.3646 15.514 17.3261 15.5256C17.2615 15.5451 17.2218 15.6102 17.234 15.6766C17.2404 15.7116 17.2601 15.7412 17.2873 15.7607C17.2061 15.7824 17.1172 15.8035 17.0207 15.8226C16.9664 15.8335 16.9245 15.8768 16.9156 15.9315C16.9068 15.9863 16.9327 16.0408 16.9808 16.0682C16.9849 16.0706 17.0303 16.0963 17.0998 16.1258C16.8428 16.2293 16.384 16.3645 15.6312 16.4387C15.5583 16.4459 15.5049 16.5111 15.5121 16.584C15.5192 16.6569 15.5823 16.7075 15.6574 16.7033C17.0865 16.5619 17.5278 16.2042 17.5458 16.1889C17.5871 16.1544 17.6034 16.0981 17.587 16.0468C17.5762 16.0128 17.5523 15.9853 17.5216 15.9694C17.9782 15.8257 18.1742 15.6667 18.1845 15.6581C18.2346 15.6166 18.2472 15.5448 18.2142 15.4885C18.181 15.4321 18.1119 15.4078 18.0515 15.4321C18.0346 15.4386 18.0075 15.4454 17.9732 15.4521C18.2796 15.2423 18.6049 14.9924 18.7479 14.8809C18.773 14.8622 18.7959 14.8443 18.816 14.8274C18.8716 14.7807 18.8793 14.6982 18.8335 14.6419C18.788 14.5859 18.705 14.5765 18.6482 14.6214C18.6275 14.6378 18.6059 14.6546 18.5836 14.672C18.5176 14.7211 18.4332 14.7766 18.341 14.8336C18.6888 14.4388 19.0389 14.0107 19.1389 13.8878C19.148 13.8766 19.1569 13.8655 19.166 13.8543C19.2119 13.7972 19.203 13.7137 19.1459 13.6678C19.0886 13.6211 19.005 13.6307 18.9592 13.6875L18.9589 13.6878L18.9588 13.6881C18.9563 13.691 18.9451 13.705 18.9261 13.7283C18.8214 13.8562 18.7111 13.98 18.6023 14.0956C18.9565 13.4536 19.2247 12.8216 19.264 12.728C19.2655 12.7246 19.2668 12.7213 19.2682 12.7178C19.2963 12.6507 19.2643 12.5728 19.1966 12.5448ZM12.9714 17.022L13.0076 17.0267C12.9631 17.0683 12.9269 17.1149 12.8982 17.1631C12.8351 17.158 12.7779 17.1535 12.733 17.1515C12.7948 17.1112 12.8744 17.0674 12.9714 17.022Z" fill="#FFE15A"/>
</svg>
