<svg width="37" height="37" viewBox="0 0 37 37" fill="none" xmlns="http://www.w3.org/2000/svg">
<path d="M32.8871 11.4485C32.7317 10.1524 31.5103 8.90887 30.2324 8.74274C22.4394 7.77482 14.5592 7.77482 6.76882 8.74311C5.48973 8.90887 4.26836 10.1524 4.11296 11.4485C3.56277 16.1975 3.56277 20.8033 4.11296 25.5522C4.26836 26.8483 5.48973 28.0923 6.76882 28.2577C14.5592 29.2252 22.4398 29.2252 30.2324 28.2577C31.5103 28.0926 32.7317 26.8483 32.8871 25.5522C33.4373 20.8033 33.4373 16.1975 32.8871 11.4485ZM30.4373 25.2681C30.4096 25.4401 30.0925 25.7724 29.9097 25.8123C26.1505 26.2785 22.3059 26.5168 18.5 26.5168C14.6942 26.5168 10.8495 26.2782 7.07222 25.8101C6.90609 25.7724 6.59048 25.4401 6.56162 25.2573C6.03511 20.7141 6.03511 16.2867 6.56421 11.7327C6.59048 11.5599 6.90757 11.228 7.09183 11.1884C10.8495 10.7215 14.6942 10.484 18.5011 10.484C22.3059 10.484 26.1505 10.7219 29.929 11.191C30.0914 11.2277 30.4096 11.5596 30.4385 11.7438C30.9646 16.2867 30.9646 20.7137 30.4373 25.2681Z" fill="white"/>
<path d="M16.0332 13.5669V23.4337L23.4332 18.5005L16.0332 13.5669Z" fill="white"/>
</svg>
