<svg width="70" height="70" viewBox="0 0 70 70" fill="none" xmlns="http://www.w3.org/2000/svg">
<mask id="path-1-outside-1_5:1362" maskUnits="userSpaceOnUse" x="0.132812" y="-0.132812" width="70" height="70" fill="black">
<rect fill="white" x="0.132812" y="-0.132812" width="70" height="70"/>
<path d="M1.52191 52.5407L17.4594 68.4782C17.9782 68.997 18.8187 68.997 19.3375 68.4782L28.1031 59.7125C28.6219 59.1937 28.6219 58.3533 28.1031 57.8345L27.714 57.4454H46.8588C48.5402 57.4454 50.1448 56.815 51.3822 55.6664L67.4945 40.5657C69.0369 39.1333 69.548 36.8579 68.7656 34.9041C68.2001 33.4898 67.0453 32.4076 65.5978 31.935C64.1498 31.4613 62.5794 31.6533 61.2876 32.4605C61.2793 32.4657 57.7105 34.8076 57.7105 34.8076C57.6861 27.6082 53.3349 19.931 47.3454 16.4748C47.6873 16.082 47.956 15.6172 48.1272 15.0968C48.8126 13.0118 47.6733 10.755 45.5851 10.0655C45.5197 10.0437 45.4544 10.0245 45.389 10.0043L48.8079 3.86274C49.0045 3.50943 49.0299 3.08557 48.8759 2.71204C48.7223 2.33798 48.4069 2.0542 48.0183 1.94162C45.567 1.22879 43.0191 0.867188 40.4454 0.867188C37.8721 0.867188 35.3238 1.22879 32.8725 1.9411C32.4839 2.0542 32.1684 2.33747 32.0144 2.71152C31.8608 3.08557 31.8857 3.50943 32.0828 3.86274L35.5017 10.0043C35.4353 10.025 35.3689 10.0448 35.3025 10.0665C33.2175 10.755 32.0787 13.0112 32.764 15.0979C32.9352 15.6172 33.206 16.0805 33.549 16.4737C27.4702 19.9813 23.1797 27.7374 23.1797 34.8672C23.1797 35.0618 23.1844 35.2537 23.1906 35.4441C20.8119 36.0932 18.6003 37.2755 16.7404 38.904L12.7041 42.4355L12.1656 41.897C11.6468 41.3782 10.8063 41.3782 10.2875 41.897L1.52191 50.6626C1.00311 51.1814 1.00311 52.0219 1.52191 52.5407ZM35.2434 4.07908C36.945 3.70969 38.6882 3.52344 40.4454 3.52344C42.2025 3.52344 43.9457 3.70969 45.6479 4.07908L42.6881 9.39521C41.1961 9.18717 39.6936 9.18717 38.2031 9.39521L35.2434 4.07908ZM36.1315 12.59C38.8568 11.6982 41.828 11.6307 44.7556 12.5889C45.4523 12.8188 45.8326 13.5721 45.6038 14.2673C45.4316 14.7907 44.9646 15.1461 44.4235 15.1778C41.8046 14.3451 39.0846 14.3435 36.4667 15.1752C36.4667 15.1752 36.4667 15.1752 36.4662 15.1752C35.9204 15.1409 35.4571 14.784 35.2869 14.2678C35.0582 13.5715 35.4384 12.8183 36.1315 12.59ZM36.8662 17.8428C39.1691 17.0133 41.5551 16.9935 43.8637 17.7868C50.0343 19.9087 55.0548 27.5708 55.0548 34.8672C55.0548 35.4856 55.0159 36.075 54.9391 36.626L48.5552 40.8142C47.5669 39.5899 46.0692 38.8516 44.4298 38.8516H41.7735V37.2952C43.3195 36.7468 44.4298 35.2703 44.4298 33.5391C44.4298 31.342 42.6425 29.5547 40.4454 29.5547C39.7133 29.5547 39.1172 28.9591 39.1172 28.2266C39.1172 27.4941 39.7133 26.8985 40.4454 26.8985C40.9159 26.8985 41.4124 27.1387 41.8819 27.5926C42.409 28.1026 43.25 28.0886 43.76 27.562C44.27 27.0349 44.256 26.1939 43.7289 25.684C43.0549 25.0313 42.3805 24.6624 41.7735 24.4611V22.9141C41.7735 22.1805 41.179 21.586 40.4454 21.586C39.7118 21.586 39.1172 22.1805 39.1172 22.9141V24.4705C37.5717 25.0189 36.461 26.4954 36.461 28.2266C36.461 30.4237 38.2483 32.211 40.4454 32.211C41.1779 32.211 41.7735 32.8066 41.7735 33.5391C41.7735 34.2716 41.1779 34.8672 40.4454 34.8672C39.8778 34.8672 39.2656 34.5103 38.7209 33.8623C38.2488 33.301 37.4109 33.2283 36.8496 33.7005C36.2882 34.1726 36.2156 35.0104 36.6877 35.5718C37.3974 36.4164 38.2327 37.0047 39.1172 37.3014V38.8516H38.6752C38.0226 38.8516 37.7295 38.4262 37.2698 38.1289C34.4636 36.0257 30.9877 34.8672 27.4816 34.8672C26.9332 34.8672 26.3838 34.8958 25.837 34.9513C25.837 34.9233 25.836 34.8958 25.836 34.8672C25.836 27.673 30.7843 20.0363 36.8662 17.8428ZM18.4898 40.9024C20.9852 38.7172 24.1919 37.5235 27.4816 37.5235C30.417 37.5235 33.3269 38.4931 35.675 40.2534C36.0138 40.4516 36.957 41.5079 38.6747 41.5079H44.4298C45.9415 41.5079 47.086 42.7369 47.086 44.1641C47.086 45.6287 45.8943 46.8204 44.4298 46.8204H35.1329C34.3993 46.8204 33.8047 47.4149 33.8047 48.1485C33.8047 48.8821 34.3993 49.4766 35.1329 49.4766H44.4298C47.3589 49.4766 49.7423 47.0933 49.7423 44.1641C49.7423 43.8596 49.7153 43.5592 49.6644 43.2635L62.7065 34.7064C63.327 34.323 64.0798 34.2333 64.7729 34.4595C65.4702 34.6877 66.0269 35.2091 66.2992 35.8908C66.6826 36.8475 66.4419 37.9188 65.6824 38.6239L49.5705 53.724C48.8307 54.4109 47.8678 54.7891 46.8588 54.7891H25.0578L14.5868 44.3177L18.4898 40.9024ZM11.2266 44.714L25.286 58.7735L18.3985 65.6611L4.33899 51.6016L11.2266 44.714Z"/>
</mask>
<path d="M1.52191 52.5407L17.4594 68.4782C17.9782 68.997 18.8187 68.997 19.3375 68.4782L28.1031 59.7125C28.6219 59.1937 28.6219 58.3533 28.1031 57.8345L27.714 57.4454H46.8588C48.5402 57.4454 50.1448 56.815 51.3822 55.6664L67.4945 40.5657C69.0369 39.1333 69.548 36.8579 68.7656 34.9041C68.2001 33.4898 67.0453 32.4076 65.5978 31.935C64.1498 31.4613 62.5794 31.6533 61.2876 32.4605C61.2793 32.4657 57.7105 34.8076 57.7105 34.8076C57.6861 27.6082 53.3349 19.931 47.3454 16.4748C47.6873 16.082 47.956 15.6172 48.1272 15.0968C48.8126 13.0118 47.6733 10.755 45.5851 10.0655C45.5197 10.0437 45.4544 10.0245 45.389 10.0043L48.8079 3.86274C49.0045 3.50943 49.0299 3.08557 48.8759 2.71204C48.7223 2.33798 48.4069 2.0542 48.0183 1.94162C45.567 1.22879 43.0191 0.867188 40.4454 0.867188C37.8721 0.867188 35.3238 1.22879 32.8725 1.9411C32.4839 2.0542 32.1684 2.33747 32.0144 2.71152C31.8608 3.08557 31.8857 3.50943 32.0828 3.86274L35.5017 10.0043C35.4353 10.025 35.3689 10.0448 35.3025 10.0665C33.2175 10.755 32.0787 13.0112 32.764 15.0979C32.9352 15.6172 33.206 16.0805 33.549 16.4737C27.4702 19.9813 23.1797 27.7374 23.1797 34.8672C23.1797 35.0618 23.1844 35.2537 23.1906 35.4441C20.8119 36.0932 18.6003 37.2755 16.7404 38.904L12.7041 42.4355L12.1656 41.897C11.6468 41.3782 10.8063 41.3782 10.2875 41.897L1.52191 50.6626C1.00311 51.1814 1.00311 52.0219 1.52191 52.5407ZM35.2434 4.07908C36.945 3.70969 38.6882 3.52344 40.4454 3.52344C42.2025 3.52344 43.9457 3.70969 45.6479 4.07908L42.6881 9.39521C41.1961 9.18717 39.6936 9.18717 38.2031 9.39521L35.2434 4.07908ZM36.1315 12.59C38.8568 11.6982 41.828 11.6307 44.7556 12.5889C45.4523 12.8188 45.8326 13.5721 45.6038 14.2673C45.4316 14.7907 44.9646 15.1461 44.4235 15.1778C41.8046 14.3451 39.0846 14.3435 36.4667 15.1752C36.4667 15.1752 36.4667 15.1752 36.4662 15.1752C35.9204 15.1409 35.4571 14.784 35.2869 14.2678C35.0582 13.5715 35.4384 12.8183 36.1315 12.59ZM36.8662 17.8428C39.1691 17.0133 41.5551 16.9935 43.8637 17.7868C50.0343 19.9087 55.0548 27.5708 55.0548 34.8672C55.0548 35.4856 55.0159 36.075 54.9391 36.626L48.5552 40.8142C47.5669 39.5899 46.0692 38.8516 44.4298 38.8516H41.7735V37.2952C43.3195 36.7468 44.4298 35.2703 44.4298 33.5391C44.4298 31.342 42.6425 29.5547 40.4454 29.5547C39.7133 29.5547 39.1172 28.9591 39.1172 28.2266C39.1172 27.4941 39.7133 26.8985 40.4454 26.8985C40.9159 26.8985 41.4124 27.1387 41.8819 27.5926C42.409 28.1026 43.25 28.0886 43.76 27.562C44.27 27.0349 44.256 26.1939 43.7289 25.684C43.0549 25.0313 42.3805 24.6624 41.7735 24.4611V22.9141C41.7735 22.1805 41.179 21.586 40.4454 21.586C39.7118 21.586 39.1172 22.1805 39.1172 22.9141V24.4705C37.5717 25.0189 36.461 26.4954 36.461 28.2266C36.461 30.4237 38.2483 32.211 40.4454 32.211C41.1779 32.211 41.7735 32.8066 41.7735 33.5391C41.7735 34.2716 41.1779 34.8672 40.4454 34.8672C39.8778 34.8672 39.2656 34.5103 38.7209 33.8623C38.2488 33.301 37.4109 33.2283 36.8496 33.7005C36.2882 34.1726 36.2156 35.0104 36.6877 35.5718C37.3974 36.4164 38.2327 37.0047 39.1172 37.3014V38.8516H38.6752C38.0226 38.8516 37.7295 38.4262 37.2698 38.1289C34.4636 36.0257 30.9877 34.8672 27.4816 34.8672C26.9332 34.8672 26.3838 34.8958 25.837 34.9513C25.837 34.9233 25.836 34.8958 25.836 34.8672C25.836 27.673 30.7843 20.0363 36.8662 17.8428ZM18.4898 40.9024C20.9852 38.7172 24.1919 37.5235 27.4816 37.5235C30.417 37.5235 33.3269 38.4931 35.675 40.2534C36.0138 40.4516 36.957 41.5079 38.6747 41.5079H44.4298C45.9415 41.5079 47.086 42.7369 47.086 44.1641C47.086 45.6287 45.8943 46.8204 44.4298 46.8204H35.1329C34.3993 46.8204 33.8047 47.4149 33.8047 48.1485C33.8047 48.8821 34.3993 49.4766 35.1329 49.4766H44.4298C47.3589 49.4766 49.7423 47.0933 49.7423 44.1641C49.7423 43.8596 49.7153 43.5592 49.6644 43.2635L62.7065 34.7064C63.327 34.323 64.0798 34.2333 64.7729 34.4595C65.4702 34.6877 66.0269 35.2091 66.2992 35.8908C66.6826 36.8475 66.4419 37.9188 65.6824 38.6239L49.5705 53.724C48.8307 54.4109 47.8678 54.7891 46.8588 54.7891H25.0578L14.5868 44.3177L18.4898 40.9024ZM11.2266 44.714L25.286 58.7735L18.3985 65.6611L4.33899 51.6016L11.2266 44.714Z" fill="#5D3DE3"/>
<path d="M1.52191 52.5407L17.4594 68.4782C17.9782 68.997 18.8187 68.997 19.3375 68.4782L28.1031 59.7125C28.6219 59.1937 28.6219 58.3533 28.1031 57.8345L27.714 57.4454H46.8588C48.5402 57.4454 50.1448 56.815 51.3822 55.6664L67.4945 40.5657C69.0369 39.1333 69.548 36.8579 68.7656 34.9041C68.2001 33.4898 67.0453 32.4076 65.5978 31.935C64.1498 31.4613 62.5794 31.6533 61.2876 32.4605C61.2793 32.4657 57.7105 34.8076 57.7105 34.8076C57.6861 27.6082 53.3349 19.931 47.3454 16.4748C47.6873 16.082 47.956 15.6172 48.1272 15.0968C48.8126 13.0118 47.6733 10.755 45.5851 10.0655C45.5197 10.0437 45.4544 10.0245 45.389 10.0043L48.8079 3.86274C49.0045 3.50943 49.0299 3.08557 48.8759 2.71204C48.7223 2.33798 48.4069 2.0542 48.0183 1.94162C45.567 1.22879 43.0191 0.867188 40.4454 0.867188C37.8721 0.867188 35.3238 1.22879 32.8725 1.9411C32.4839 2.0542 32.1684 2.33747 32.0144 2.71152C31.8608 3.08557 31.8857 3.50943 32.0828 3.86274L35.5017 10.0043C35.4353 10.025 35.3689 10.0448 35.3025 10.0665C33.2175 10.755 32.0787 13.0112 32.764 15.0979C32.9352 15.6172 33.206 16.0805 33.549 16.4737C27.4702 19.9813 23.1797 27.7374 23.1797 34.8672C23.1797 35.0618 23.1844 35.2537 23.1906 35.4441C20.8119 36.0932 18.6003 37.2755 16.7404 38.904L12.7041 42.4355L12.1656 41.897C11.6468 41.3782 10.8063 41.3782 10.2875 41.897L1.52191 50.6626C1.00311 51.1814 1.00311 52.0219 1.52191 52.5407ZM35.2434 4.07908C36.945 3.70969 38.6882 3.52344 40.4454 3.52344C42.2025 3.52344 43.9457 3.70969 45.6479 4.07908L42.6881 9.39521C41.1961 9.18717 39.6936 9.18717 38.2031 9.39521L35.2434 4.07908ZM36.1315 12.59C38.8568 11.6982 41.828 11.6307 44.7556 12.5889C45.4523 12.8188 45.8326 13.5721 45.6038 14.2673C45.4316 14.7907 44.9646 15.1461 44.4235 15.1778C41.8046 14.3451 39.0846 14.3435 36.4667 15.1752C36.4667 15.1752 36.4667 15.1752 36.4662 15.1752C35.9204 15.1409 35.4571 14.784 35.2869 14.2678C35.0582 13.5715 35.4384 12.8183 36.1315 12.59ZM36.8662 17.8428C39.1691 17.0133 41.5551 16.9935 43.8637 17.7868C50.0343 19.9087 55.0548 27.5708 55.0548 34.8672C55.0548 35.4856 55.0159 36.075 54.9391 36.626L48.5552 40.8142C47.5669 39.5899 46.0692 38.8516 44.4298 38.8516H41.7735V37.2952C43.3195 36.7468 44.4298 35.2703 44.4298 33.5391C44.4298 31.342 42.6425 29.5547 40.4454 29.5547C39.7133 29.5547 39.1172 28.9591 39.1172 28.2266C39.1172 27.4941 39.7133 26.8985 40.4454 26.8985C40.9159 26.8985 41.4124 27.1387 41.8819 27.5926C42.409 28.1026 43.25 28.0886 43.76 27.562C44.27 27.0349 44.256 26.1939 43.7289 25.684C43.0549 25.0313 42.3805 24.6624 41.7735 24.4611V22.9141C41.7735 22.1805 41.179 21.586 40.4454 21.586C39.7118 21.586 39.1172 22.1805 39.1172 22.9141V24.4705C37.5717 25.0189 36.461 26.4954 36.461 28.2266C36.461 30.4237 38.2483 32.211 40.4454 32.211C41.1779 32.211 41.7735 32.8066 41.7735 33.5391C41.7735 34.2716 41.1779 34.8672 40.4454 34.8672C39.8778 34.8672 39.2656 34.5103 38.7209 33.8623C38.2488 33.301 37.4109 33.2283 36.8496 33.7005C36.2882 34.1726 36.2156 35.0104 36.6877 35.5718C37.3974 36.4164 38.2327 37.0047 39.1172 37.3014V38.8516H38.6752C38.0226 38.8516 37.7295 38.4262 37.2698 38.1289C34.4636 36.0257 30.9877 34.8672 27.4816 34.8672C26.9332 34.8672 26.3838 34.8958 25.837 34.9513C25.837 34.9233 25.836 34.8958 25.836 34.8672C25.836 27.673 30.7843 20.0363 36.8662 17.8428ZM18.4898 40.9024C20.9852 38.7172 24.1919 37.5235 27.4816 37.5235C30.417 37.5235 33.3269 38.4931 35.675 40.2534C36.0138 40.4516 36.957 41.5079 38.6747 41.5079H44.4298C45.9415 41.5079 47.086 42.7369 47.086 44.1641C47.086 45.6287 45.8943 46.8204 44.4298 46.8204H35.1329C34.3993 46.8204 33.8047 47.4149 33.8047 48.1485C33.8047 48.8821 34.3993 49.4766 35.1329 49.4766H44.4298C47.3589 49.4766 49.7423 47.0933 49.7423 44.1641C49.7423 43.8596 49.7153 43.5592 49.6644 43.2635L62.7065 34.7064C63.327 34.323 64.0798 34.2333 64.7729 34.4595C65.4702 34.6877 66.0269 35.2091 66.2992 35.8908C66.6826 36.8475 66.4419 37.9188 65.6824 38.6239L49.5705 53.724C48.8307 54.4109 47.8678 54.7891 46.8588 54.7891H25.0578L14.5868 44.3177L18.4898 40.9024ZM11.2266 44.714L25.286 58.7735L18.3985 65.6611L4.33899 51.6016L11.2266 44.714Z" stroke="#5D3DE3" stroke-width="0.6" mask="url(#path-1-outside-1_5:1362)"/>
</svg>
