<svg width="67" height="69" viewBox="0 0 67 69" fill="none" xmlns="http://www.w3.org/2000/svg">
<path d="M56.458 40.0288V28.6677H57.7756C58.8934 28.6677 59.7996 27.7615 59.7996 26.6437C59.7996 25.526 58.8934 24.6198 57.7756 24.6198H41.156C40.0382 24.6198 39.132 25.526 39.132 26.6437C39.132 27.7615 40.0382 28.6677 41.156 28.6677H42.7374V40.0288C36.7117 42.7141 32.7568 48.7237 32.7568 55.4128C32.7568 60.5478 35.057 65.3379 39.0678 68.555C39.4269 68.8432 39.8737 69.0001 40.3342 69.0001H58.8615C59.322 69.0001 59.7688 68.843 60.128 68.555C64.1387 65.3378 66.4389 60.5475 66.4389 55.4128C66.4387 48.7237 62.4836 42.7139 56.458 40.0288ZM45.4217 43.3173C46.2378 43.0356 46.7852 42.2674 46.7852 41.4041V28.6677H52.41V41.4041C52.41 42.2674 52.9576 43.0357 53.7735 43.3173C57.3317 44.5455 60.0831 47.2427 61.4464 50.5901H37.7489C39.1122 47.2427 41.8636 44.5455 45.4217 43.3173ZM58.1209 64.9521H41.0745C38.3525 62.522 36.8047 59.0831 36.8047 55.4127C36.8047 55.1528 36.8151 54.8948 36.8306 54.6379H62.3648C62.3803 54.8948 62.3907 55.1528 62.3907 55.4127C62.3907 59.083 60.8429 62.522 58.1209 64.9521Z" fill="#5D3DE3"/>
<path d="M41.6091 14.6157L42.7242 15.7307C43.1194 16.126 43.6374 16.3236 44.1553 16.3236C44.6732 16.3236 45.1913 16.1261 45.5864 15.7307C46.3768 14.9403 46.3768 13.6589 45.5864 12.8684L33.3109 0.592948C32.5206 -0.197486 31.239 -0.197486 30.4486 0.592948C29.6582 1.38338 29.6582 2.66484 30.4486 3.45527L31.5638 4.57049L24.1092 12.0251L3.09697 20.9633C1.82226 21.5056 0.903778 22.6412 0.639985 24.0012C0.376192 25.3611 0.803523 26.7578 1.78313 27.7372L18.6015 44.5556C19.391 45.345 20.4492 45.7753 21.5417 45.7753C21.8122 45.7753 22.0849 45.749 22.3561 45.6951C23.7221 45.4237 24.8562 44.4936 25.3898 43.2072L34.1611 22.0638L41.6091 14.6157ZM26.0549 15.5964C26.2935 15.4949 26.5105 15.3483 26.6937 15.165L34.4252 7.43348L38.7459 11.7542L31.6073 18.8928H18.3053L26.0549 15.5964ZM21.6507 41.6561V41.6563C21.6414 41.6788 21.6272 41.7128 21.5673 41.7247C21.5061 41.7363 21.48 41.7094 21.4637 41.6932L4.64546 24.8749C4.6294 24.8587 4.60241 24.8318 4.61402 24.7719C4.62562 24.712 4.6607 24.697 4.68175 24.6881L8.78964 22.9407H29.4147L21.6507 41.6561Z" fill="#5D3DE3"/>
<path d="M50.5259 11.2568C51.6438 11.2568 52.5499 10.3507 52.5499 9.23285C52.5499 8.11503 51.6438 7.20886 50.5259 7.20886C49.4081 7.20886 48.502 8.11503 48.502 9.23285C48.502 10.3507 49.4081 11.2568 50.5259 11.2568Z" fill="#5D3DE3"/>
<path d="M53.5357 19.9705C54.6535 19.9705 55.5597 19.0643 55.5597 17.9465C55.5597 16.8287 54.6535 15.9225 53.5357 15.9225C52.4179 15.9225 51.5117 16.8287 51.5117 17.9465C51.5117 19.0643 52.4179 19.9705 53.5357 19.9705Z" fill="#5D3DE3"/>
</svg>
