<svg width="69" height="69" viewBox="0 0 69 69" fill="none" xmlns="http://www.w3.org/2000/svg">
<mask id="path-1-outside-1_5:2126" maskUnits="userSpaceOnUse" x="-1" y="-1.00098" width="71" height="71" fill="black">
<rect fill="white" x="-1" y="-1.00098" width="71" height="71"/>
<path d="M63.25 32.1986C63.8851 32.1986 64.4 31.6837 64.4 31.0486V27.5986H65.55C66.1851 27.5986 66.7 27.0837 66.7 26.4486V22.9986H67.85C68.4851 22.9986 69 22.4837 69 21.8486V16.0986C69 15.6455 68.7338 15.235 68.3206 15.0497L34.9706 0.0996765C34.6713 -0.0345276 34.3287 -0.0345276 34.0294 0.0996765L0.679443 15.0497C0.266162 15.235 0 15.6455 0 16.0986V21.8486C0 22.4837 0.514917 22.9986 1.15 22.9986H2.3V26.4486C2.3 27.0837 2.81492 27.5986 3.45 27.5986H4.6V31.0486C4.6 31.6837 5.11492 32.1986 5.75 32.1986H6.9V50.5986H5.75C5.11492 50.5986 4.6 51.1135 4.6 51.7486V55.1986H3.45C2.81492 55.1986 2.3 55.7135 2.3 56.3486V59.7986H1.15C0.514917 59.7986 0 60.3135 0 60.9486V65.5486C0 67.4538 1.54475 68.9986 3.45 68.9986H65.55C67.4552 68.9986 69 67.4538 69 65.5486V60.9486C69 60.3135 68.4851 59.7986 67.85 59.7986H66.7V56.3486C66.6944 56.2357 66.6719 56.1246 66.6332 56.0184C68.7776 52.8503 69.5076 48.9326 68.6474 45.204C67.7877 41.4761 65.4158 38.2737 62.1 36.3651V32.1986H63.25ZM62.1 29.8986H52.9V27.5986H62.1V29.8986ZM41.4 48.2986C41.4006 50.7233 42.0446 53.1041 43.2665 55.1986H41.4V51.7486C41.4 51.1135 40.8851 50.5986 40.25 50.5986H39.1V32.1986H40.25C40.8851 32.1986 41.4 31.6837 41.4 31.0486V27.5986H50.6V31.0486C50.6 31.6837 51.1149 32.1986 51.75 32.1986H52.9V34.7069C46.2678 35.8322 41.4118 41.5721 41.4 48.2986ZM18.4 55.1986V51.7486C18.4 51.1135 17.8851 50.5986 17.25 50.5986H16.1V32.1986H17.25C17.8851 32.1986 18.4 31.6837 18.4 31.0486V27.5986H27.6V31.0486C27.6 31.6837 28.1149 32.1986 28.75 32.1986H29.9V50.5986H28.75C28.1149 50.5986 27.6 51.1135 27.6 51.7486V55.1986H18.4ZM36.8 50.5986H32.2V32.1986H36.8V50.5986ZM29.9 29.8986V27.5986H39.1V29.8986H29.9ZM29.9 52.8986H39.1V55.1986H29.9V52.8986ZM2.3 16.8426L34.5 2.41371L66.7 16.8426V20.6986H2.3V16.8426ZM64.4 22.9986V25.2986H4.6V22.9986H64.4ZM16.1 27.5986V29.8986H6.9V27.5986H16.1ZM9.2 32.1986H13.8V50.5986H9.2V32.1986ZM6.9 52.8986H16.1V55.1986H6.9V52.8986ZM4.6 57.4986H44.9432C45.7237 58.374 46.6126 59.1472 47.588 59.7986H4.6V57.4986ZM66.7 65.5486C66.7 66.1837 66.1851 66.6986 65.55 66.6986H3.45C2.81492 66.6986 2.3 66.1837 2.3 65.5486V62.0986H66.7V65.5486ZM62.812 59.7986C63.3707 59.4235 63.9014 59.008 64.4 58.5554V59.7986H62.812ZM66.7 48.2986C66.7 54.65 61.5514 59.7986 55.2 59.7986C48.8486 59.7986 43.7 54.65 43.7 48.2986C43.7 41.9472 48.8486 36.7986 55.2 36.7986C61.5486 36.8053 66.6933 41.95 66.7 48.2986ZM59.8 35.3038C58.3238 34.7743 56.7683 34.502 55.2 34.4986V32.1986H59.8V35.3038Z"/>
</mask>
<path d="M63.25 32.1986C63.8851 32.1986 64.4 31.6837 64.4 31.0486V27.5986H65.55C66.1851 27.5986 66.7 27.0837 66.7 26.4486V22.9986H67.85C68.4851 22.9986 69 22.4837 69 21.8486V16.0986C69 15.6455 68.7338 15.235 68.3206 15.0497L34.9706 0.0996765C34.6713 -0.0345276 34.3287 -0.0345276 34.0294 0.0996765L0.679443 15.0497C0.266162 15.235 0 15.6455 0 16.0986V21.8486C0 22.4837 0.514917 22.9986 1.15 22.9986H2.3V26.4486C2.3 27.0837 2.81492 27.5986 3.45 27.5986H4.6V31.0486C4.6 31.6837 5.11492 32.1986 5.75 32.1986H6.9V50.5986H5.75C5.11492 50.5986 4.6 51.1135 4.6 51.7486V55.1986H3.45C2.81492 55.1986 2.3 55.7135 2.3 56.3486V59.7986H1.15C0.514917 59.7986 0 60.3135 0 60.9486V65.5486C0 67.4538 1.54475 68.9986 3.45 68.9986H65.55C67.4552 68.9986 69 67.4538 69 65.5486V60.9486C69 60.3135 68.4851 59.7986 67.85 59.7986H66.7V56.3486C66.6944 56.2357 66.6719 56.1246 66.6332 56.0184C68.7776 52.8503 69.5076 48.9326 68.6474 45.204C67.7877 41.4761 65.4158 38.2737 62.1 36.3651V32.1986H63.25ZM62.1 29.8986H52.9V27.5986H62.1V29.8986ZM41.4 48.2986C41.4006 50.7233 42.0446 53.1041 43.2665 55.1986H41.4V51.7486C41.4 51.1135 40.8851 50.5986 40.25 50.5986H39.1V32.1986H40.25C40.8851 32.1986 41.4 31.6837 41.4 31.0486V27.5986H50.6V31.0486C50.6 31.6837 51.1149 32.1986 51.75 32.1986H52.9V34.7069C46.2678 35.8322 41.4118 41.5721 41.4 48.2986ZM18.4 55.1986V51.7486C18.4 51.1135 17.8851 50.5986 17.25 50.5986H16.1V32.1986H17.25C17.8851 32.1986 18.4 31.6837 18.4 31.0486V27.5986H27.6V31.0486C27.6 31.6837 28.1149 32.1986 28.75 32.1986H29.9V50.5986H28.75C28.1149 50.5986 27.6 51.1135 27.6 51.7486V55.1986H18.4ZM36.8 50.5986H32.2V32.1986H36.8V50.5986ZM29.9 29.8986V27.5986H39.1V29.8986H29.9ZM29.9 52.8986H39.1V55.1986H29.9V52.8986ZM2.3 16.8426L34.5 2.41371L66.7 16.8426V20.6986H2.3V16.8426ZM64.4 22.9986V25.2986H4.6V22.9986H64.4ZM16.1 27.5986V29.8986H6.9V27.5986H16.1ZM9.2 32.1986H13.8V50.5986H9.2V32.1986ZM6.9 52.8986H16.1V55.1986H6.9V52.8986ZM4.6 57.4986H44.9432C45.7237 58.374 46.6126 59.1472 47.588 59.7986H4.6V57.4986ZM66.7 65.5486C66.7 66.1837 66.1851 66.6986 65.55 66.6986H3.45C2.81492 66.6986 2.3 66.1837 2.3 65.5486V62.0986H66.7V65.5486ZM62.812 59.7986C63.3707 59.4235 63.9014 59.008 64.4 58.5554V59.7986H62.812ZM66.7 48.2986C66.7 54.65 61.5514 59.7986 55.2 59.7986C48.8486 59.7986 43.7 54.65 43.7 48.2986C43.7 41.9472 48.8486 36.7986 55.2 36.7986C61.5486 36.8053 66.6933 41.95 66.7 48.2986ZM59.8 35.3038C58.3238 34.7743 56.7683 34.502 55.2 34.4986V32.1986H59.8V35.3038Z" fill="#5D3DE3"/>
<path d="M63.25 32.1986C63.8851 32.1986 64.4 31.6837 64.4 31.0486V27.5986H65.55C66.1851 27.5986 66.7 27.0837 66.7 26.4486V22.9986H67.85C68.4851 22.9986 69 22.4837 69 21.8486V16.0986C69 15.6455 68.7338 15.235 68.3206 15.0497L34.9706 0.0996765C34.6713 -0.0345276 34.3287 -0.0345276 34.0294 0.0996765L0.679443 15.0497C0.266162 15.235 0 15.6455 0 16.0986V21.8486C0 22.4837 0.514917 22.9986 1.15 22.9986H2.3V26.4486C2.3 27.0837 2.81492 27.5986 3.45 27.5986H4.6V31.0486C4.6 31.6837 5.11492 32.1986 5.75 32.1986H6.9V50.5986H5.75C5.11492 50.5986 4.6 51.1135 4.6 51.7486V55.1986H3.45C2.81492 55.1986 2.3 55.7135 2.3 56.3486V59.7986H1.15C0.514917 59.7986 0 60.3135 0 60.9486V65.5486C0 67.4538 1.54475 68.9986 3.45 68.9986H65.55C67.4552 68.9986 69 67.4538 69 65.5486V60.9486C69 60.3135 68.4851 59.7986 67.85 59.7986H66.7V56.3486C66.6944 56.2357 66.6719 56.1246 66.6332 56.0184C68.7776 52.8503 69.5076 48.9326 68.6474 45.204C67.7877 41.4761 65.4158 38.2737 62.1 36.3651V32.1986H63.25ZM62.1 29.8986H52.9V27.5986H62.1V29.8986ZM41.4 48.2986C41.4006 50.7233 42.0446 53.1041 43.2665 55.1986H41.4V51.7486C41.4 51.1135 40.8851 50.5986 40.25 50.5986H39.1V32.1986H40.25C40.8851 32.1986 41.4 31.6837 41.4 31.0486V27.5986H50.6V31.0486C50.6 31.6837 51.1149 32.1986 51.75 32.1986H52.9V34.7069C46.2678 35.8322 41.4118 41.5721 41.4 48.2986ZM18.4 55.1986V51.7486C18.4 51.1135 17.8851 50.5986 17.25 50.5986H16.1V32.1986H17.25C17.8851 32.1986 18.4 31.6837 18.4 31.0486V27.5986H27.6V31.0486C27.6 31.6837 28.1149 32.1986 28.75 32.1986H29.9V50.5986H28.75C28.1149 50.5986 27.6 51.1135 27.6 51.7486V55.1986H18.4ZM36.8 50.5986H32.2V32.1986H36.8V50.5986ZM29.9 29.8986V27.5986H39.1V29.8986H29.9ZM29.9 52.8986H39.1V55.1986H29.9V52.8986ZM2.3 16.8426L34.5 2.41371L66.7 16.8426V20.6986H2.3V16.8426ZM64.4 22.9986V25.2986H4.6V22.9986H64.4ZM16.1 27.5986V29.8986H6.9V27.5986H16.1ZM9.2 32.1986H13.8V50.5986H9.2V32.1986ZM6.9 52.8986H16.1V55.1986H6.9V52.8986ZM4.6 57.4986H44.9432C45.7237 58.374 46.6126 59.1472 47.588 59.7986H4.6V57.4986ZM66.7 65.5486C66.7 66.1837 66.1851 66.6986 65.55 66.6986H3.45C2.81492 66.6986 2.3 66.1837 2.3 65.5486V62.0986H66.7V65.5486ZM62.812 59.7986C63.3707 59.4235 63.9014 59.008 64.4 58.5554V59.7986H62.812ZM66.7 48.2986C66.7 54.65 61.5514 59.7986 55.2 59.7986C48.8486 59.7986 43.7 54.65 43.7 48.2986C43.7 41.9472 48.8486 36.7986 55.2 36.7986C61.5486 36.8053 66.6933 41.95 66.7 48.2986ZM59.8 35.3038C58.3238 34.7743 56.7683 34.502 55.2 34.4986V32.1986H59.8V35.3038Z" stroke="#5D3DE3" stroke-width="0.6" mask="url(#path-1-outside-1_5:2126)"/>
</svg>
