<svg width="68" height="68" viewBox="0 0 68 68" fill="none" xmlns="http://www.w3.org/2000/svg">
<path d="M36.3 34.7472C36.5293 35.3402 36.6562 35.9834 36.6562 36.6562C36.6562 39.5856 34.2731 41.9688 31.3438 41.9688C28.4144 41.9688 26.0312 39.5856 26.0312 36.6562C26.0312 33.7269 28.4144 31.3438 31.3438 31.3438C31.6241 31.3438 31.8994 31.3659 32.1682 31.408L40.4336 21.1747C41.3553 20.0334 43.0278 19.8555 44.1689 20.7773C45.3102 21.699 45.488 23.3714 44.5663 24.5127L36.3 34.7472ZM32.9128 62.641C32.3939 62.6718 31.866 62.6875 31.3438 62.6875C16.99 62.6875 5.3125 51.01 5.3125 36.6562C5.3125 22.3025 16.99 10.625 31.3438 10.625C45.4391 10.625 57.1148 22.0859 57.3706 36.1732C57.3973 37.6399 58.6088 38.8071 60.0747 38.7807C61.5415 38.754 62.7089 37.5434 62.6822 36.0767C62.5324 27.8261 59.206 20.0935 53.3159 14.3031C48.054 9.13046 41.2747 6.03341 34 5.42539V2.65625C34 1.1892 32.8108 0 31.3438 0C29.8767 0 28.6875 1.1892 28.6875 2.65625V5.42499C21.3172 6.03952 14.4698 9.20337 9.1804 14.4928C3.26028 20.4129 0 28.284 0 36.6562C0 45.0285 3.26028 52.8996 9.1804 58.8196C15.1004 64.7397 22.9715 68 31.3438 68C31.9706 68 32.6045 67.9813 33.2278 67.9442C34.6922 67.8572 35.8089 66.5996 35.7219 65.1352C35.6349 63.6708 34.3778 62.554 32.9128 62.641ZM49.436 6.55934L56.6018 12.5088C57.0978 12.9207 57.6992 13.1215 58.2971 13.1215C59.0599 13.1215 59.8169 12.7946 60.3422 12.1619C61.2793 11.0331 61.124 9.35863 59.9953 8.42138L52.8295 2.47191C51.7007 1.53478 50.0261 1.69004 49.089 2.81881C48.1521 3.94759 48.3074 5.62222 49.436 6.55934ZM4.39052 13.1215C4.98047 13.1215 5.57427 12.9258 6.06727 12.524L13.3659 6.57448C14.503 5.64759 14.6733 3.97441 13.7464 2.83727C12.8195 1.70013 11.1463 1.52973 10.0091 2.45677L2.71057 8.40623C1.57343 9.33313 1.40316 11.0063 2.33006 12.1434C2.85507 12.7876 3.61954 13.1215 4.39052 13.1215ZM68 52.0625C68 53.7289 67.1499 55.2407 65.7257 56.1065L47.3018 67.3078C46.5485 67.7659 45.6957 67.9958 44.8424 67.9958C44.0427 67.9958 43.2427 67.794 42.5224 67.3891C41.034 66.5521 40.1094 64.9713 40.1094 63.2638V40.8612C40.1094 39.1537 41.034 37.5729 42.5224 36.7359C44.011 35.8988 45.8426 35.9299 47.3018 36.8172L65.7257 48.0185C67.1499 48.8843 68 50.3961 68 52.0625ZM62.1512 52.0625L45.4219 41.8913V62.2335L62.1512 52.0625Z" fill="#5D3DE3"/>
</svg>
