<svg width="236" height="236" viewBox="0 0 236 236" fill="none" xmlns="http://www.w3.org/2000/svg">
<g clip-path="url(#clip0)">
<path d="M193.13 177.439C195.598 173.24 197.019 168.356 197.019 163.144V151.291C197.019 145.646 195.352 140.386 192.494 135.965C206.904 121.097 214.798 102.414 214.798 82.9689C214.798 60.6638 204.632 39.7391 186.173 24.0489C167.929 8.54022 143.718 0 118.002 0C101.622 0 85.429 3.57363 71.175 10.3346C68.875 11.4257 67.8946 14.1747 68.9856 16.4748C70.0766 18.7748 72.8257 19.7548 75.1253 18.6642C88.1527 12.4849 102.979 9.21871 118.002 9.21871C166.293 9.21871 205.58 42.3024 205.58 82.9684C205.58 99.805 198.757 116.053 186.287 129.12C181.453 125.279 175.345 122.975 168.705 122.975C153.092 122.975 140.39 135.677 140.39 151.29V154.279C133.116 155.896 125.599 156.718 118.002 156.718C102.609 156.718 87.4724 153.304 74.226 146.845C73.5171 146.5 72.733 146.342 71.943 146.386L71.7139 146.402C71.3986 146.42 71.087 146.471 70.7823 146.552L63.8784 148.405C53.6729 151.143 43.4677 153.881 33.2612 156.616C33.2414 156.621 33.2216 156.626 33.2022 156.632C32.1117 156.938 31.3539 156.339 31.0778 156.067C30.7427 155.737 30.2232 155.025 30.5039 153.971C33.6254 142.321 36.7505 130.672 39.8766 119.023C40.196 117.833 40.0255 116.564 39.4028 115.5C33.4452 105.324 30.4242 94.378 30.4242 82.9684C30.4242 68.6873 35.2917 54.8274 44.5002 42.8878C46.0545 40.8716 45.6812 37.9774 43.665 36.4227C41.6489 34.8684 38.7556 35.2418 37.1999 37.2574C26.7362 50.8251 21.2055 66.6315 21.2055 82.968C21.2055 95.4035 24.3251 107.334 30.4827 118.463C27.5198 129.504 24.5579 140.544 21.5982 151.591C20.5311 155.597 21.6558 159.725 24.6072 162.634C27.5194 165.504 31.7563 166.606 35.6747 165.514C45.8734 162.781 56.0702 160.045 66.2679 157.309L71.6959 155.853C85.8259 162.454 101.797 165.937 118.002 165.937C125.583 165.937 133.096 165.186 140.404 163.704C140.503 168.705 141.901 173.391 144.279 177.439C138.439 181.109 133.466 186.049 129.746 191.917C125.079 199.28 122.612 207.774 122.612 216.48V231.391C122.612 233.937 124.676 236 127.221 236H210.189C212.734 236 214.798 233.937 214.798 231.391V216.48C214.798 207.786 212.338 199.303 207.683 191.947C203.96 186.065 198.981 181.116 193.13 177.439ZM149.609 151.29C149.609 140.761 158.175 132.194 168.705 132.194C179.235 132.194 187.801 140.761 187.801 151.29V163.143C187.801 173.672 179.235 182.239 168.705 182.239C158.175 182.239 149.609 173.673 149.609 163.143V151.29ZM205.58 226.781H131.831V216.479C131.831 203.228 138.833 191.218 150.254 184.594C155.214 188.866 161.66 191.457 168.705 191.457C175.749 191.457 182.195 188.866 187.155 184.594C198.576 191.219 205.58 203.233 205.58 216.479V226.781Z" fill="black" fill-opacity="0.05"/>
<path d="M65.7385 75.9445C68.2838 75.9445 70.3479 73.8809 70.3479 71.3352C70.3479 67.5228 73.4495 64.4211 77.262 64.4211C81.0744 64.4211 84.176 67.5228 84.176 71.3352C84.176 73.1817 83.4394 74.9351 82.1018 76.2723C76.748 81.6261 72.6526 86.205 72.6526 92.2926C72.6526 94.8384 74.7167 96.902 77.262 96.902C79.8072 96.902 81.8713 94.8384 81.8713 92.2926C81.8713 90.2345 83.574 87.8367 88.6204 82.7909C91.6994 79.7123 93.3948 75.644 93.3948 71.3347C93.3948 62.4391 86.1576 55.2019 77.262 55.2019C68.3663 55.2019 61.1292 62.4391 61.1292 71.3347C61.1292 73.8809 63.1932 75.9445 65.7385 75.9445Z" fill="black" fill-opacity="0.05"/>
<path d="M77.262 101.512C74.7167 101.512 72.6526 103.576 72.6526 106.122V106.125C72.6526 108.671 74.7167 110.733 77.262 110.733C79.8073 110.733 81.8713 108.667 81.8713 106.122C81.8713 103.576 79.8077 101.512 77.262 101.512Z" fill="black" fill-opacity="0.05"/>
<path d="M109.146 64.422H170.267C172.812 64.422 174.876 62.3584 174.876 59.8126C174.876 57.2669 172.812 55.2032 170.267 55.2032H109.146C106.601 55.2032 104.537 57.2669 104.537 59.8126C104.537 62.3584 106.601 64.422 109.146 64.422Z" fill="black" fill-opacity="0.05"/>
<path d="M109.146 87.5781H170.267C172.812 87.5781 174.876 85.5145 174.876 82.9688C174.876 80.423 172.812 78.3594 170.267 78.3594H109.146C106.601 78.3594 104.537 80.423 104.537 82.9688C104.537 85.5145 106.601 87.5781 109.146 87.5781Z" fill="black" fill-opacity="0.05"/>
<path d="M109.146 110.734H170.267C172.812 110.734 174.876 108.671 174.876 106.125C174.876 103.579 172.812 101.516 170.267 101.516H109.146C106.601 101.516 104.537 103.579 104.537 106.125C104.537 108.671 106.601 110.734 109.146 110.734Z" fill="black" fill-opacity="0.05"/>
<path d="M55.4899 29.9863C58.0352 29.9863 60.0993 27.9227 60.0993 25.377C60.0993 22.8312 58.0352 20.7676 55.4899 20.7676H55.4867C52.9414 20.7676 50.8792 22.8312 50.8792 25.377C50.8792 27.9227 52.9442 29.9863 55.4899 29.9863Z" fill="black" fill-opacity="0.05"/>
</g>
<defs>
<clipPath id="clip0">
<rect width="236" height="236" fill="white"/>
</clipPath>
</defs>
</svg>
