<svg width="31" height="31" viewBox="0 0 31 31" fill="none" xmlns="http://www.w3.org/2000/svg">
<path d="M15.4985 9.52856C13.9145 9.52856 12.3953 10.1578 11.2752 11.2779C10.1551 12.398 9.52588 13.9172 9.52588 15.5012C9.52588 17.0853 10.1551 18.6045 11.2752 19.7245C12.3953 20.8446 13.9145 21.4739 15.4985 21.4739C17.0826 21.4739 18.6018 20.8446 19.7219 19.7245C20.842 18.6045 21.4712 17.0853 21.4712 15.5012C21.4712 13.9172 20.842 12.398 19.7219 11.2779C18.6018 10.1578 17.0826 9.52856 15.4985 9.52856ZM15.4985 19.3801C14.4695 19.3801 13.4825 18.9713 12.7549 18.2436C12.0272 17.516 11.6184 16.529 11.6184 15.4999C11.6184 14.4709 12.0272 13.4839 12.7549 12.7562C13.4825 12.0286 14.4695 11.6198 15.4985 11.6198C16.5276 11.6198 17.5146 12.0286 18.2422 12.7562C18.9699 13.4839 19.3787 14.4709 19.3787 15.4999C19.3787 16.529 18.9699 17.516 18.2422 18.2436C17.5146 18.9713 16.5276 19.3801 15.4985 19.3801Z" fill="white"/>
<path d="M21.7078 10.7013C22.4769 10.7013 23.1003 10.0779 23.1003 9.30892C23.1003 8.53991 22.4769 7.9165 21.7078 7.9165C20.9388 7.9165 20.3154 8.53991 20.3154 9.30892C20.3154 10.0779 20.9388 10.7013 21.7078 10.7013Z" fill="white"/>
<path d="M26.5217 7.89326C26.2226 7.12108 25.7657 6.41984 25.18 5.83442C24.5944 5.24901 23.893 4.79232 23.1207 4.4936C22.217 4.15435 21.2622 3.97091 20.2971 3.9511C19.0532 3.89685 18.6593 3.88135 15.505 3.88135C12.3508 3.88135 11.9465 3.88135 10.7129 3.9511C9.74857 3.9699 8.7945 4.15337 7.89194 4.4936C7.11944 4.79197 6.41785 5.24854 5.83216 5.834C5.24648 6.41946 4.78965 7.12088 4.49098 7.89326C4.15167 8.79693 3.96865 9.75176 3.94977 10.7168C3.89423 11.9594 3.87744 12.3534 3.87744 15.5089C3.87744 18.6632 3.87744 19.0649 3.94977 20.301C3.96915 21.2672 4.15127 22.2204 4.49098 23.1259C4.79049 23.898 5.24777 24.5991 5.83359 25.1845C6.41941 25.7699 7.1209 26.2266 7.89323 26.5256C8.79409 26.8784 9.74855 27.075 10.7155 27.1068C11.9594 27.1611 12.3534 27.1778 15.5076 27.1778C18.6619 27.1778 19.0662 27.1778 20.2997 27.1068C21.2647 27.0872 22.2194 26.9042 23.1233 26.5656C23.8954 26.2662 24.5966 25.8091 25.1822 25.2235C25.7677 24.6379 26.2248 23.9367 26.5242 23.1646C26.8639 22.2605 27.0461 21.3072 27.0654 20.3411C27.121 19.0985 27.1378 18.7045 27.1378 15.549C27.1378 12.3934 27.1378 11.993 27.0654 10.7569C27.0504 9.77816 26.8664 8.80938 26.5217 7.89326ZM24.9484 20.2054C24.9401 20.9498 24.8042 21.6873 24.5467 22.3858C24.3527 22.8881 24.0558 23.3442 23.6749 23.7248C23.2941 24.1054 22.8378 24.4021 22.3354 24.5958C21.6446 24.8521 20.915 24.988 20.1783 24.9975C18.9512 25.0543 18.605 25.0686 15.4585 25.0686C12.3094 25.0686 11.9878 25.0686 10.7375 24.9975C10.0011 24.9885 9.27186 24.8526 8.58169 24.5958C8.07754 24.4033 7.6194 24.1072 7.23692 23.7265C6.85445 23.3458 6.55615 22.889 6.36132 22.3858C6.10743 21.6948 5.97164 20.966 5.95961 20.23C5.90407 19.0029 5.89115 18.6567 5.89115 15.5102C5.89115 12.3624 5.89115 12.0408 5.95961 10.7892C5.96796 10.0452 6.10383 9.30818 6.36132 8.61014C6.75528 7.59101 7.56257 6.78889 8.58169 6.39881C9.2722 6.14324 10.0013 6.00738 10.7375 5.9971C11.9659 5.94156 12.3107 5.92606 15.4585 5.92606C18.6063 5.92606 18.9292 5.92606 20.1783 5.9971C20.9151 6.00596 21.6448 6.14186 22.3354 6.39881C22.8377 6.59291 23.294 6.8899 23.6748 7.27072C24.0556 7.65154 24.3526 8.10777 24.5467 8.61014C24.8006 9.30112 24.9364 10.0299 24.9484 10.7659C25.0039 11.9943 25.0181 12.3392 25.0181 15.487C25.0181 18.6335 25.0182 18.9719 24.9626 20.2067H24.9484V20.2054Z" fill="white"/>
</svg>
