<svg width="15" height="16" viewBox="0 0 15 16" fill="none" xmlns="http://www.w3.org/2000/svg">
<path d="M11.5541 15.5105C11.414 15.5101 11.2743 15.494 11.1374 15.4625C8.53184 14.898 6.13141 13.5747 4.21241 11.6446C2.33436 9.71032 1.03182 7.24755 0.46241 4.55428C0.395269 4.21861 0.411748 3.87051 0.510262 3.54344C0.608776 3.21638 0.786009 2.92137 1.02491 2.68679L2.69158 1.00693C2.7767 0.922627 2.87785 0.858069 2.98842 0.81747C3.09898 0.776871 3.21648 0.761143 3.33324 0.771314C3.45431 0.78454 3.57114 0.825381 3.67552 0.890963C3.7799 0.956546 3.86929 1.04528 3.93741 1.15092L6.02074 4.37538C6.09887 4.5005 6.13658 4.64857 6.12833 4.79781C6.12008 4.94704 6.0663 5.08957 5.97491 5.20441L4.92908 6.51339C5.3456 7.47874 5.93547 8.35124 6.66658 9.08336C7.39295 9.84205 8.25151 10.4478 9.19574 10.8679L10.4916 9.79021C10.6004 9.70014 10.7329 9.64689 10.8713 9.63753C11.0097 9.62818 11.1476 9.66317 11.2666 9.73785L14.4124 11.8671C14.5204 11.9346 14.6123 12.0268 14.6814 12.1368C14.7505 12.2468 14.795 12.3718 14.8114 12.5023C14.8278 12.6329 14.8158 12.7656 14.7763 12.8906C14.7368 13.0156 14.6708 13.1296 14.5832 13.2241L12.9582 14.9083C12.7737 15.1007 12.5546 15.2529 12.3136 15.3562C12.0726 15.4596 11.8145 15.512 11.5541 15.5105ZM3.26658 1.63524L1.59991 3.31511C1.46552 3.44624 1.36603 3.61176 1.31124 3.79536C1.25645 3.97897 1.24823 4.17435 1.28741 4.36229C1.81688 6.88956 3.03396 9.20218 4.79158 11.0207C6.59749 12.8365 8.85642 14.0812 11.3082 14.6116C11.4938 14.6523 11.6861 14.644 11.8679 14.5877C12.0497 14.5313 12.2153 14.4286 12.3499 14.2888L13.9749 12.6045L10.9374 10.5494L9.54574 11.7101C9.49247 11.7542 9.42969 11.7841 9.36287 11.797C9.29606 11.8099 9.22724 11.8055 9.16241 11.7842C8.00687 11.3384 6.95968 10.6307 6.09574 9.71167C5.20214 8.8378 4.5085 7.76391 4.06658 6.57011C4.04788 6.49784 4.04726 6.42175 4.06477 6.34915C4.08229 6.27656 4.11735 6.2099 4.16658 6.1556L5.29158 4.74626L3.26658 1.63524Z" fill="black"/>
</svg>
