<svg width="27" height="17" viewBox="0 0 27 17" fill="none" xmlns="http://www.w3.org/2000/svg">
<path d="M25.873 1.85432C26.0539 1.25369 25.873 0.813232 25.018 0.813232H22.1853C21.4646 0.813232 21.1352 1.19427 20.9544 1.61277C20.9544 1.61277 19.5142 5.12482 17.4733 7.40202C16.8146 8.06465 16.5136 8.2739 16.1545 8.2739C15.975 8.2739 15.7141 8.06465 15.7141 7.46402V1.85432C15.7141 1.13357 15.5061 0.813232 14.9055 0.813232H10.4544C10.0049 0.813232 9.73366 1.14648 9.73366 1.46423C9.73366 2.14623 10.7541 2.30382 10.8587 4.22582V8.39532C10.8587 9.30852 10.6947 9.47515 10.333 9.47515C9.37329 9.47515 7.03795 5.95019 5.652 1.91502C5.38204 1.13098 5.1095 0.814525 4.38616 0.814525H1.55483C0.744955 0.814525 0.583496 1.19557 0.583496 1.61407C0.583496 2.36582 1.5432 6.08582 5.05395 11.0058C7.39445 14.3654 10.6895 16.1866 13.6913 16.1866C15.4906 16.1866 15.7128 15.7824 15.7128 15.0849V12.5454C15.7128 11.7369 15.8846 11.5741 16.4542 11.5741C16.8727 11.5741 17.5935 11.7859 19.2739 13.4044C21.1933 15.3238 21.5111 16.1854 22.5896 16.1854H25.421C26.2295 16.1854 26.6338 15.7811 26.4013 14.9828C26.1469 14.1884 25.2298 13.0324 24.013 11.6645C23.3517 10.8844 22.3636 10.0448 22.0626 9.62498C21.6428 9.08377 21.7642 8.84482 22.0626 8.36432C22.0639 8.36561 25.514 3.50636 25.873 1.85432Z" fill="white"/>
</svg>
