<svg width="23" height="22" viewBox="0 0 23 22" fill="none" xmlns="http://www.w3.org/2000/svg">
<path d="M17.7847 22C17.5609 21.9993 17.3377 21.9753 17.1191 21.9283C12.9564 21.086 9.12152 19.1111 6.05573 16.2309C3.05537 13.3443 0.974451 9.66907 0.064759 5.64986C-0.0425052 5.14894 -0.0161783 4.62945 0.141207 4.14137C0.298592 3.65329 0.581738 3.21304 0.963405 2.86298L3.62606 0.356097C3.76206 0.230289 3.92365 0.133948 4.10029 0.0733612C4.27693 0.0127745 4.46464 -0.0106958 4.65118 0.00448221C4.8446 0.0242202 5.03125 0.085167 5.198 0.183037C5.36476 0.280906 5.50757 0.413322 5.61639 0.570973L8.94471 5.38289C9.06953 5.5696 9.12978 5.79057 9.11659 6.01328C9.10341 6.23599 9.0175 6.44868 8.87149 6.62005L7.20067 8.57347C7.8661 10.0141 8.80848 11.3161 9.97649 12.4087C11.1369 13.5409 12.5086 14.4449 14.0171 15.0718L16.0873 13.4635C16.2612 13.3291 16.4727 13.2496 16.6939 13.2357C16.9151 13.2217 17.1353 13.2739 17.3254 13.3854L22.3512 16.5629C22.5236 16.6637 22.6706 16.8013 22.781 16.9654C22.8913 17.1296 22.9623 17.3161 22.9886 17.5109C23.0148 17.7057 22.9957 17.9038 22.9326 18.0903C22.8694 18.2768 22.764 18.447 22.6241 18.588L20.028 21.1014C19.7331 21.3884 19.3831 21.6156 18.9981 21.7698C18.6131 21.924 18.2007 22.0022 17.7847 22ZM4.54468 1.29374L1.88202 3.80062C1.66731 3.99632 1.50837 4.24332 1.42084 4.51732C1.3333 4.79132 1.32019 5.08289 1.38277 5.36336C2.22865 9.13484 4.17305 12.586 6.981 15.2997C9.86612 18.0095 13.475 19.8671 17.392 20.6586C17.6885 20.7192 17.9957 20.707 18.2862 20.6229C18.5766 20.5388 18.8412 20.3855 19.0561 20.1768L21.6522 17.6634L16.7995 14.5965L14.5762 16.3285C14.4911 16.3944 14.3908 16.439 14.2841 16.4583C14.1773 16.4776 14.0674 16.471 13.9638 16.4392C12.1177 15.7739 10.4448 14.7177 9.06453 13.3463C7.63692 12.0422 6.52877 10.4396 5.82275 8.65812C5.79288 8.55027 5.79189 8.43671 5.81987 8.32837C5.84785 8.22004 5.90386 8.12057 5.98251 8.03954L7.7798 5.93636L4.54468 1.29374Z" fill="#003B66"/>
</svg>
