<svg width="23" height="18" viewBox="0 0 23 18" fill="none" xmlns="http://www.w3.org/2000/svg">
<path d="M3.63158 0H19.3684C20.3316 0 21.2553 0.379285 21.9363 1.05442C22.6174 1.72955 23 2.64522 23 3.6V14.4C23 15.3548 22.6174 16.2705 21.9363 16.9456C21.2553 17.6207 20.3316 18 19.3684 18H3.63158C2.66842 18 1.74472 17.6207 1.06366 16.9456C0.382612 16.2705 0 15.3548 0 14.4V3.6C0 2.64522 0.382612 1.72955 1.06366 1.05442C1.74472 0.379285 2.66842 0 3.63158 0ZM3.63158 1.2C3.04084 1.2 2.49853 1.41 2.07847 1.7592L11.5 7.824L20.9215 1.7592C20.4864 1.3973 19.9364 1.19926 19.3684 1.2H3.63158ZM11.5 9.2544L1.37274 2.736C1.26535 3.01161 1.21035 3.30454 1.21053 3.6V14.4C1.21053 15.0365 1.4656 15.647 1.91964 16.0971C2.37367 16.5471 2.98948 16.8 3.63158 16.8H19.3684C20.0105 16.8 20.6263 16.5471 21.0804 16.0971C21.5344 15.647 21.7895 15.0365 21.7895 14.4V3.6C21.7895 3.2952 21.7326 3.0036 21.6273 2.736L11.5 9.2532V9.2544Z" fill="#003B66"/>
</svg>
