<svg width="25" height="12" viewBox="0 0 25 12" fill="none" xmlns="http://www.w3.org/2000/svg">
<path d="M21.5582 4.24358C24.0417 1.05573 23.4909 0.996007 24.1016 0H19.3425C19.3425 0 19.0043 1.11337 18.901 1.31267C17.9869 3.07535 15.9367 5.72014 14.6967 5.99045C13.4758 6.25677 13.6378 3.52101 13.7131 2.33594C13.7839 1.2375 13.7719 0.853125 13.7378 0.663368C13.688 0.386111 13.4426 0.183854 13.1482 0.148611C12.5412 0.0756944 11.4398 -0.0274306 10.2064 0.0267361L9.10303 0.0614583C9.53809 0.984201 9.83197 0.701389 9.99219 1.76892C10.1731 3.01875 10.1019 6.0599 8.80365 6.0599C6.72247 6.0599 4.38641 0.133507 4.31207 0H0.101562L0.486816 0.914062C3.59174 8.28385 7.47504 11.6972 12.7882 11.9811L13.4796 12L13.5291 11.3634C13.6038 10.3802 14.124 8.96493 15.0466 8.96493C16.4099 8.96493 16.8037 9.34132 17.7028 10.3946C18.5672 11.4045 19.1628 12 20.5577 12H24.1016L23.5962 11.0365C22.807 9.5342 21.2241 8.24635 20.6059 7.49931C20.382 7.21806 20.1615 6.77344 20.3896 6.23559C20.5762 5.76719 21.1318 4.79028 21.5582 4.24358Z" fill="white"/>
</svg>
