<svg width="30" height="30" viewBox="0 0 30 30" fill="none" xmlns="http://www.w3.org/2000/svg">
<g clip-path="url(#clip0)">
<path d="M2.82168 7.96952C4.21233 5.56084 6.286 3.61862 8.78048 2.38848C11.275 1.15833 14.0782 0.695514 16.8357 1.05855C19.5932 1.42158 22.1812 2.59416 24.2723 4.428C26.3634 6.26184 27.8637 8.67459 28.5835 11.3611C29.5488 14.9637 29.0435 18.8021 27.1787 22.032C25.3139 25.262 22.2424 27.6188 18.6398 28.5841C15.0373 29.5494 11.1988 29.0441 7.9689 27.1793C4.73896 25.3145 2.3821 22.243 1.4168 18.6404C0.933776 16.8572 0.809235 14.9959 1.05038 13.1643C1.29153 11.3326 1.89358 9.56695 2.82168 7.96952ZM25.5549 21.0945C28.9149 15.2747 26.9138 7.80618 21.0939 4.44609C15.2741 1.08601 7.80557 3.08718 4.44548 8.90703C1.08539 14.7269 3.08657 22.1954 8.90642 25.5555C14.7263 28.9155 22.1948 26.9144 25.5549 21.0945Z" fill="white"/>
<path d="M14.9998 10.3535L7.77441 17.5789L9.10016 18.9047L14.9998 13.0052L20.8994 18.9047L22.2252 17.5789L14.9998 10.3535Z" fill="white"/>
</g>
<defs>
<clipPath id="clip0">
<rect width="30" height="30" fill="white"/>
</clipPath>
</defs>
</svg>
