<svg width="21" height="21" viewBox="0 0 21 21" fill="none" xmlns="http://www.w3.org/2000/svg">
<path d="M9.52572 2.94583C10.7893 2.94468 12.0248 3.31832 13.076 4.01948C14.1272 4.72065 14.9468 5.71784 15.4312 6.8849C15.9155 8.05196 16.0428 9.33645 15.797 10.5759C15.5512 11.8153 14.9433 12.954 14.0503 13.8479C13.1572 14.7418 12.0191 15.3507 10.7798 15.5977C9.54063 15.8446 8.25601 15.7185 7.08851 15.2352C5.92101 14.7519 4.92307 13.9332 4.22095 12.8826C3.51882 11.8321 3.14405 10.5969 3.14405 9.33333C3.15171 7.64263 3.82634 6.02327 5.02131 4.82721C6.21628 3.63114 7.83502 2.95504 9.52572 2.94583ZM9.52572 1.75C8.02588 1.75 6.55972 2.19475 5.31264 3.02802C4.06557 3.86129 3.0936 5.04564 2.51963 6.43132C1.94567 7.81699 1.79549 9.34175 2.0881 10.8128C2.3807 12.2838 3.10294 13.635 4.16349 14.6956C5.22404 15.7561 6.57526 16.4783 8.04628 16.771C9.51731 17.0636 11.0421 16.9134 12.4277 16.3394C13.8134 15.7655 14.9978 14.7935 15.831 13.5464C16.6643 12.2993 17.1091 10.8332 17.1091 9.33333C17.1091 7.32211 16.3101 5.39326 14.8879 3.97111C13.4658 2.54896 11.5369 1.75 9.52572 1.75Z" fill="white"/>
<path d="M20.4166 19.4192L16.1174 15.0908L15.2891 15.9133L19.5882 20.2417C19.6422 20.296 19.7064 20.3393 19.7771 20.3688C19.8478 20.3984 19.9237 20.4138 20.0003 20.4141C20.077 20.4143 20.1529 20.3995 20.2238 20.3704C20.2948 20.3413 20.3593 20.2986 20.4136 20.2446C20.468 20.1906 20.5113 20.1264 20.5408 20.0557C20.5704 19.985 20.5858 19.9091 20.5861 19.8325C20.5863 19.7558 20.5715 19.6799 20.5424 19.609C20.5133 19.538 20.4706 19.4735 20.4166 19.4192Z" fill="white"/>
</svg>
