<svg width="264" height="52" viewBox="0 0 264 52" fill="none" xmlns="http://www.w3.org/2000/svg">
<path d="M10.6402 44.0663L26.67 34.7327H23.5619L10.1973 40.1512L10.6402 44.0663Z" fill="#FF7800"/>
<path d="M26.6704 34.7327V36.7717L10.6406 46.1053V43.6504L26.6704 34.7327Z" fill="white"/>
<path d="M0 46.1057H10.6396L27.2006 17.2432L26.6783 0.000244141L0 46.1057Z" fill="white"/>
<path d="M26.6006 18.2872L26.6784 0L47.9322 36.8018H37.2656L26.6006 18.2872Z" fill="#FF7800"/>
<path d="M23.5615 31.0689H26.6008V25.8059L23.5615 31.0689Z" fill="white"/>
<path d="M26.6006 25.8059V31.0689H29.6383L26.6006 25.8059Z" fill="white"/>
<path d="M58.0884 12.5098V21.5681H67.1897V12.5098H73.5211V36.7735H67.1897V26.9522H58.0884V36.7735H51.793V12.5098H58.0884Z" fill="white"/>
<path d="M131.301 28.734H127.334V36.7735H121.04V12.5098H131.087C133.681 12.5098 135.73 13.2373 137.236 14.6924C138.741 16.1476 139.493 18.1123 139.492 20.5867C139.492 23.2047 138.777 25.2174 137.345 26.6246C135.914 28.0318 133.899 28.735 131.301 28.734ZM127.334 17.6037V23.6371H129.441C130.653 23.6371 131.538 23.3828 132.097 22.8741C132.63 22.4133 132.897 21.6733 132.898 20.654C132.898 19.6846 132.655 18.9571 132.169 18.4714C131.61 17.8889 130.712 17.5982 129.475 17.5992L127.334 17.6037Z" fill="white"/>
<path d="M149.314 12.5098V22.5136L157.028 12.5098H164.81L155.167 24.0051L165.683 36.7735H157.532L149.302 26.2611V36.7735H143.019V12.5098H149.314Z" fill="white"/>
<path d="M185.772 12.5098H192.103V27.7885L201.2 12.5098H207.635V36.7735H201.302V21.4948L192.205 36.7735H185.771L185.772 12.5098Z" fill="white"/>
<path d="M215.429 12.5098H233.769V31.8995H236.68V42.231H231.004V36.7735H216.234V42.231H210.548V31.8995C211.606 31.7347 212.579 31.2226 213.313 30.4439C214.166 29.5638 214.753 28.4608 215.006 27.2619C215.284 26.0122 215.423 24.4165 215.423 22.4747L215.429 12.5098ZM221.542 17.3853C221.542 17.3853 219.297 29.6914 218.849 31.8965H227.437V17.3853H221.542Z" fill="white"/>
<path d="M51.8438 49.0155V43.7227H55.7898V49.0155H55.2706V44.2148H52.363V49.0155H51.8438Z" fill="white"/>
<path d="M58.2429 48.0685V52H57.7236V43.7226H58.2429V44.6427C58.4758 44.3114 58.7874 44.0433 59.1497 43.8623C59.512 43.6814 59.9136 43.5933 60.3184 43.6059C61.0986 43.6059 61.7216 43.8632 62.1875 44.3779C62.6626 44.9148 62.9134 45.6137 62.8878 46.3302C62.9121 47.0669 62.6602 47.7861 62.1815 48.3468C61.7106 48.8883 61.0811 49.1586 60.293 49.1576C59.92 49.1635 59.5509 49.0815 59.2156 48.9183C58.9712 48.8105 58.7474 48.6612 58.5542 48.4769C58.4378 48.3509 58.3336 48.2141 58.2429 48.0685ZM58.7622 47.9967C59.1243 48.4455 59.6316 48.6654 60.2795 48.6654C60.9275 48.6654 61.4348 48.4455 61.7984 48.0042C62.1735 47.5288 62.3667 46.9352 62.3431 46.3302C62.3431 45.632 62.1436 45.0835 61.7445 44.6846C61.5557 44.4914 61.3295 44.3387 61.0796 44.2358C60.8298 44.1329 60.5617 44.082 60.2915 44.0862C60.0215 44.0826 59.7535 44.1325 59.5028 44.2329C59.2522 44.3332 59.0239 44.4822 58.831 44.6711C58.421 45.0601 58.2155 45.6006 58.2145 46.2928C58.1885 46.9078 58.3827 47.5119 58.7622 47.9967Z" fill="white"/>
<path d="M64.9444 44.4036C65.4031 43.9293 66.0126 43.6292 66.6683 43.5549C67.3241 43.4807 67.9853 43.6367 68.5385 43.9964C69.0918 44.3561 69.5027 44.897 69.7007 45.5264C69.8987 46.1557 69.8716 46.8344 69.6239 47.4459C69.3763 48.0575 68.9235 48.5639 68.3433 48.8783C67.7631 49.1926 67.0915 49.2954 66.4438 49.169C65.7961 49.0427 65.2125 48.6949 64.7931 48.1855C64.3737 47.676 64.1447 47.0366 64.1453 46.3769C64.1366 46.0108 64.2031 45.6469 64.3405 45.3075C64.4779 44.9682 64.6835 44.6605 64.9444 44.4036ZM65.3334 48.0045C65.542 48.2137 65.7898 48.3797 66.0626 48.493C66.3354 48.6062 66.628 48.6645 66.9234 48.6645C67.2188 48.6645 67.5113 48.6062 67.7842 48.493C68.057 48.3797 68.3048 48.2137 68.5133 48.0045C68.9258 47.5652 69.1553 46.9853 69.1553 46.3828C69.1553 45.7803 68.9258 45.2005 68.5133 44.7612C68.3048 44.552 68.057 44.386 67.7842 44.2727C67.5113 44.1595 67.2188 44.1012 66.9234 44.1012C66.628 44.1012 66.3354 44.1595 66.0626 44.2727C65.7898 44.386 65.542 44.552 65.3334 44.7612C64.921 45.2005 64.6915 45.7803 64.6915 46.3828C64.6915 46.9853 64.921 47.5652 65.3334 48.0045Z" fill="white"/>
<path d="M76.0336 46.4333H71.5039C71.4936 46.7299 71.5437 47.0254 71.6509 47.3021C71.7582 47.5788 71.9204 47.8308 72.1279 48.043C72.3196 48.2432 72.5504 48.4017 72.8061 48.5088C73.0617 48.6159 73.3367 48.6692 73.6138 48.6654C74.0073 48.6719 74.3931 48.5564 74.7182 48.3348C75.0378 48.113 75.2928 47.8105 75.4574 47.4581L75.8989 47.7184C75.6867 48.1135 75.3898 48.4567 75.0295 48.7237C74.6065 49.0264 74.0946 49.1791 73.5749 49.1576C72.7709 49.1576 72.1354 48.8963 71.6685 48.3737C71.1917 47.8269 70.9408 47.1193 70.9667 46.3944C70.9667 45.5208 71.2201 44.8376 71.7268 44.3449C71.9633 44.1065 72.2453 43.9182 72.5562 43.7912C72.867 43.6643 73.2003 43.6012 73.536 43.6059C73.8751 43.5978 74.2118 43.6646 74.5222 43.8014C74.8325 43.9381 75.1089 44.1416 75.3317 44.3973C75.7996 44.9239 76.0336 45.6025 76.0336 46.4333ZM71.5443 45.9411H75.4889C75.4361 45.4384 75.2089 44.97 74.8469 44.6172C74.6727 44.4474 74.4664 44.314 74.24 44.2249C74.0136 44.1358 73.7718 44.0926 73.5285 44.0981C73.2821 44.0924 73.0369 44.1359 72.8075 44.226C72.578 44.3162 72.3689 44.4512 72.1922 44.6232C71.8291 44.9735 71.5999 45.4397 71.5443 45.9411Z" fill="white"/>
<path d="M77.6299 43.7227H78.1491V46.2389L80.8218 43.7227H81.5221L78.8285 46.2389L81.7346 49.0155H80.9864L78.4424 46.589L78.1581 46.8613V49.0155H77.6389L77.6299 43.7227Z" fill="white"/>
<path d="M83.847 49.0155V44.2148H82.0049V43.7227H86.2098V44.2148H84.3648V49.0155H83.847Z" fill="white"/>
<path d="M87.3096 49.0155V43.7227H87.8288V46.0579H90.8217V43.7227H91.3395V49.0155H90.8217V46.5501H87.8288V49.0155H87.3096Z" fill="white"/>
<path d="M97.5766 44.6426V43.7225H98.0959V49.0154H97.5766V48.0684C97.1008 48.7955 96.4129 49.1585 95.513 49.1575C95.1707 49.1644 94.8307 49.0999 94.5146 48.9683C94.1985 48.8367 93.9132 48.6408 93.6769 48.3931C93.1781 47.8824 92.9287 47.2077 92.9287 46.369C92.9287 45.5472 93.1666 44.881 93.6425 44.3703C93.8813 44.1167 94.1716 43.9172 94.4941 43.7854C94.8165 43.6535 95.1635 43.5923 95.5116 43.6059C95.9153 43.5904 96.3164 43.6774 96.6775 43.8587C97.0386 44.0399 97.3479 44.3096 97.5766 44.6426ZM95.5385 44.098C95.2684 44.0942 95.0003 44.1453 94.7505 44.2482C94.5008 44.351 94.2745 44.5035 94.0854 44.6964C93.6784 45.0954 93.4749 45.6379 93.4749 46.3241C93.4619 46.9211 93.6595 47.5037 94.0331 47.9697C94.2139 48.1966 94.4456 48.3777 94.7095 48.4983C94.9734 48.6189 95.262 48.6756 95.552 48.6639C95.8373 48.6754 96.1213 48.6198 96.3812 48.5016C96.6411 48.3834 96.8697 48.2058 97.0484 47.9832C97.4218 47.514 97.6174 46.9279 97.6006 46.3286C97.6006 45.6105 97.3886 45.059 96.9646 44.674C96.5808 44.3061 96.0702 44.0999 95.5385 44.098Z" fill="white"/>
<path d="M99.457 49.0155L101.145 46.7056C100.764 46.6989 100.398 46.5615 100.106 46.3167C99.9585 46.1865 99.8414 46.0249 99.7637 45.8438C99.6861 45.6626 99.6498 45.4664 99.6575 45.2695C99.6575 44.7598 99.8177 44.3704 100.138 44.1011C100.424 43.8518 100.844 43.7266 101.396 43.7256H103.161V49.0185H102.655V46.7326H101.747L100.086 49.0155H99.457ZM102.655 46.2389V44.2148H101.41C101.11 44.1964 100.813 44.2785 100.566 44.4482C100.451 44.5472 100.359 44.671 100.298 44.8104C100.238 44.9498 100.21 45.1011 100.216 45.253C100.208 45.3957 100.234 45.5382 100.293 45.6684C100.352 45.7986 100.442 45.9127 100.554 46.001C100.806 46.1699 101.107 46.2518 101.41 46.2344L102.655 46.2389Z" fill="white"/>
<path d="M108.192 43.7227H108.712V46.2389L111.386 43.7227H112.083L109.39 46.2389L112.297 49.0155H111.549L109.005 46.589L108.719 46.8613V49.0155H108.192V43.7227Z" fill="white"/>
<path d="M113.595 44.4031C114.055 43.9257 114.666 43.6231 115.325 43.5473C115.983 43.4715 116.647 43.6271 117.204 43.9876C117.76 44.348 118.173 44.8907 118.373 45.5226C118.572 46.1544 118.545 46.836 118.297 47.4503C118.049 48.0647 117.594 48.5734 117.012 48.8893C116.429 49.2052 115.755 49.3085 115.104 49.1814C114.454 49.0544 113.868 48.705 113.447 48.1931C113.026 47.6813 112.796 47.0389 112.798 46.3763C112.789 46.0105 112.856 45.6469 112.993 45.3076C113.13 44.9683 113.335 44.6606 113.595 44.4031ZM113.984 48.004C114.193 48.2132 114.441 48.3792 114.713 48.4925C114.986 48.6057 115.279 48.664 115.574 48.664C115.87 48.664 116.162 48.6057 116.435 48.4925C116.708 48.3792 116.956 48.2132 117.164 48.004C117.577 47.5647 117.806 46.9848 117.806 46.3823C117.806 45.7798 117.577 45.2 117.164 44.7607C116.956 44.5515 116.708 44.3855 116.435 44.2722C116.162 44.1589 115.87 44.1006 115.574 44.1006C115.279 44.1006 114.986 44.1589 114.713 44.2722C114.441 44.3855 114.193 44.5515 113.984 44.7607C113.572 45.2 113.342 45.7798 113.342 46.3823C113.342 46.9848 113.572 47.5647 113.984 48.004Z" fill="white"/>
<path d="M119.325 49.0155L120.572 43.3979L122.686 48.1717L124.802 43.3979L126.047 49.0155H125.502L124.652 44.8805L122.692 49.3431L120.727 44.8805L119.864 49.0155H119.325Z" fill="white"/>
<path d="M127.358 49.0155V43.7227H131.303V49.0155H130.788V44.2148H127.878V49.0155H127.358Z" fill="white"/>
<path d="M137.545 44.6426V43.7225H138.065V49.0154H137.545V48.0684C137.069 48.7955 136.382 49.1585 135.482 49.1575C135.14 49.1635 134.801 49.0987 134.486 48.9671C134.171 48.8355 133.887 48.6401 133.652 48.3931C133.153 47.8824 132.903 47.2077 132.903 46.369C132.903 45.5472 133.141 44.881 133.617 44.3703C133.856 44.1167 134.146 43.9172 134.469 43.7854C134.791 43.6535 135.138 43.5923 135.486 43.6059C135.889 43.5914 136.289 43.6789 136.649 43.8601C137.009 44.0414 137.317 44.3105 137.545 44.6426ZM135.507 44.098C135.237 44.0942 134.969 44.1453 134.719 44.2482C134.469 44.351 134.243 44.5035 134.054 44.6964C133.647 45.0954 133.444 45.6379 133.444 46.3241C133.431 46.9211 133.628 47.5037 134.002 47.9697C134.183 48.1966 134.414 48.3776 134.678 48.4983C134.942 48.6189 135.231 48.6756 135.521 48.6639C135.806 48.6754 136.09 48.6198 136.35 48.5016C136.61 48.3834 136.838 48.2058 137.017 47.9832C137.39 47.514 137.586 46.9279 137.569 46.3286C137.569 45.6105 137.357 45.059 136.933 44.674C136.549 44.3061 136.039 44.0999 135.507 44.098Z" fill="white"/>
<path d="M139.998 49.0155V43.7227H140.514V46.0579H143.507V43.7227H144.026V49.0155H143.507V46.5501H140.514V49.0155H139.998Z" fill="white"/>
<path d="M145.954 43.7225H146.473V47.9652L150.241 43.4233V49.0154H149.722V44.7997L145.959 49.3401L145.954 43.7225Z" fill="white"/>
<path d="M151.601 49.0155L153.287 46.7056C152.907 46.6989 152.54 46.5615 152.249 46.3167C152.102 46.1855 151.987 46.0236 151.91 45.8425C151.834 45.6615 151.799 45.4658 151.807 45.2695C151.807 44.7598 151.967 44.3704 152.287 44.1011C152.574 43.8518 152.993 43.7266 153.546 43.7256H155.312V49.0185H154.792V46.7326H153.884L152.223 49.0155H151.601ZM154.792 46.2389V44.2148H153.546C153.247 44.1968 152.951 44.2789 152.703 44.4482C152.588 44.5472 152.497 44.671 152.436 44.8104C152.375 44.9498 152.347 45.1011 152.353 45.253C152.346 45.3955 152.373 45.5376 152.431 45.6677C152.49 45.7978 152.578 45.912 152.69 46.001C152.942 46.1695 153.243 46.2514 153.546 46.2344L154.792 46.2389Z" fill="white"/>
<path d="M76.5 12.5098V17.858H81.6672H84.7064L81.6672 23.1224V36.7735H87.9626V17.858H93.1298V12.5098H76.5Z" fill="white"/>
<path d="M117.647 36.1839L108.893 12.927H102.301L93.3721 36.1839H99.7543L101.324 32.2779L102.999 27.6761L105.544 20.1437L108.046 27.3455L105.007 32.6085H109.885L111.195 36.1839H117.647Z" fill="white"/>
<path d="M166.586 12.5098V17.858H171.753H174.792L171.753 23.1224V36.7735H178.049V17.858H183.216V12.5098H166.586Z" fill="white"/>
<path d="M263.169 36.1839L254.415 12.927H247.823L238.896 36.1839H245.278L246.848 32.2779L248.521 27.6761L251.067 20.1437L253.568 27.3455L250.529 32.6085H255.409L256.716 36.1839H263.169Z" fill="white"/>
</svg>
