<svg width="71" height="59" viewBox="0 0 71 59" fill="none" xmlns="http://www.w3.org/2000/svg">
<path d="M16.6406 0.378906C7.46498 0.378906 0 7.84389 0 17.0195C0 25.4909 6.36296 32.5036 14.5605 33.5304V56.541C14.5605 57.6898 15.4919 58.6211 16.6406 58.6211C17.7894 58.6211 18.7207 57.6898 18.7207 56.541V33.5304C26.9183 32.5036 33.2812 25.4909 33.2812 17.0195C33.2812 7.84389 25.8163 0.378906 16.6406 0.378906ZM16.6406 29.5C9.75889 29.5 4.16016 23.9013 4.16016 17.0195C4.16016 10.1378 9.75889 4.53906 16.6406 4.53906C23.5224 4.53906 29.1211 10.1378 29.1211 17.0195C29.1211 23.9013 23.5224 29.5 16.6406 29.5Z" fill="white"/>
<path d="M71 17.0195C71 7.84389 63.535 0.378906 54.3594 0.378906C45.1837 0.378906 37.7188 7.84389 37.7188 17.0195C37.7188 25.4909 44.0817 32.5036 52.2793 33.5304V56.541C52.2793 57.6898 53.2106 58.6211 54.3594 58.6211C55.5081 58.6211 56.4395 57.6898 56.4395 56.541V33.5304C64.637 32.5036 71 25.4909 71 17.0195ZM54.3594 29.5C47.4776 29.5 41.8789 23.9013 41.8789 17.0195C41.8789 10.1378 47.4776 4.53906 54.3594 4.53906C61.2411 4.53906 66.8398 10.1378 66.8398 17.0195C66.8398 23.9013 61.2411 29.5 54.3594 29.5Z" fill="white"/>
<path d="M22.5243 11.1363C21.7121 10.3239 20.395 10.3239 19.5826 11.1363L16.641 14.0779L13.6993 11.1363C12.8873 10.3241 11.5702 10.3239 10.7577 11.1363C9.94535 11.9485 9.94535 13.2656 10.7577 14.0779L13.6993 17.0196L10.7577 19.9612C9.94535 20.7735 9.94535 22.0905 10.7577 22.9028C11.5699 23.7152 12.887 23.7153 13.6993 22.9028L16.641 19.9612L19.5826 22.9028C20.3948 23.7152 21.7119 23.7152 22.5243 22.9028C23.3366 22.0906 23.3366 20.7735 22.5243 19.9612L19.5826 17.0196L22.5243 14.0779C23.3366 13.2656 23.3366 11.9485 22.5243 11.1363Z" fill="white"/>
<path d="M59.3815 11.1362L52.2797 18.238L49.338 15.2964C48.5259 14.484 47.2088 14.484 46.3964 15.2964C45.584 16.1086 45.584 17.4257 46.3964 18.238L50.8088 22.6506C51.1988 23.0405 51.7279 23.2598 52.2797 23.2598C52.8314 23.2598 53.3605 23.0405 53.7504 22.6504L62.323 14.0777C63.1353 13.2654 63.1353 11.9484 62.323 11.1361C61.5108 10.3238 60.1937 10.3238 59.3815 11.1362Z" fill="white"/>
</svg>
