<svg width="60" height="60" viewBox="0 0 60 60" fill="none" xmlns="http://www.w3.org/2000/svg">
<g clip-path="url(#clip0_41:71)">
<path d="M59.7422 1.80889C59.6516 0.991785 59.0066 0.346338 58.189 0.255701C44.2785 -1.28925 32.4206 4.27532 22.7481 14.2321C19.98 17.0817 17.579 20.0979 15.5296 23.0088C12.0611 22.8679 8.21545 24.4371 5.48901 27.1635L0.516777 32.1357C-0.0458144 32.6983 -0.160255 33.569 0.237541 34.2579C0.635338 34.9469 1.44604 35.2824 2.21508 35.0769C3.36864 34.767 5.24319 34.4067 7.04403 34.3229C7.70229 34.2923 8.24932 34.3019 8.70388 34.3367C7.60662 36.447 6.76571 38.2148 6.48693 38.6575C6.05022 39.3524 6.15139 40.2565 6.73183 40.8369L9.60888 43.714C5.42171 49.4246 5.35259 52.3492 5.36724 52.7635C5.39791 53.641 6.08227 54.4632 7.21569 54.4632C8.19714 54.4632 11.0119 54.0466 16.1361 50.2412L19.1624 53.2675C19.747 53.852 20.6602 53.95 21.356 53.5032C21.8293 53.1988 23.4933 52.3932 25.4887 51.3504C25.5217 52.8376 25.3198 55.0216 24.8817 57.982C24.6327 59.6611 26.6738 60.6718 27.8636 59.4825L32.8358 54.5103C35.3997 51.9464 36.8866 48.1382 36.7767 44.5658C39.8433 42.4231 43.0334 39.8953 46.0121 36.9743C55.8741 27.3031 61.2675 15.5349 59.7422 1.80889ZM56.3795 3.61797C56.6601 7.40826 56.3607 11.0823 55.4887 14.6377C53.323 13.9557 51.2059 12.6158 49.2938 10.7042C47.3748 8.78475 46.0322 6.6589 45.3529 4.48544C48.907 3.62621 52.5833 3.33508 56.3795 3.61797ZM6.81469 30.8101L7.97466 29.6496C9.37771 28.247 11.2024 27.2367 13.0169 26.7826C12.0689 28.2873 11.2239 29.7242 10.4786 31.0504C9.32735 30.7963 8.04745 30.7492 6.81469 30.8101ZM10.1413 39.2746C10.5217 38.5238 10.9817 37.5827 11.8263 35.9869L14.1403 38.3014C13.2792 39.2251 12.5019 40.1027 11.8016 40.9344L10.1413 39.2746ZM18.7376 38.6021C20.0184 37.3217 21.2466 37.0878 22.7723 37.0549C22.7389 38.5417 22.5004 39.8115 21.2237 41.0882C15.7663 46.5457 12.0254 48.9828 9.78832 50.0705C10.892 47.7903 13.3355 44.0042 18.7376 38.6021ZM20.7147 49.848L18.9019 48.0348C19.7296 47.3317 20.6044 46.5521 21.5272 45.6878L23.9904 48.1511C22.3709 49.0158 21.6952 49.3412 20.7147 49.848ZM30.3492 52.0242L28.9421 53.4318C29.0561 51.7266 29.0167 50.4843 28.8556 49.5257C30.1483 48.7979 31.5522 47.9725 33.0235 47.0492C32.6042 48.9077 31.6616 50.7122 30.3492 52.0242ZM27.1907 46.3795L24.039 43.2273C26.3713 40.6611 26.2843 38.1883 26.2843 35.2993C26.2843 34.3284 25.4974 33.5415 24.5265 33.5415C21.8275 33.5415 19.2302 33.3969 16.5985 35.7873L13.5887 32.7775C21.8074 18.3657 31.3073 9.2416 41.981 5.48428C42.826 8.2185 44.4708 10.8529 46.8081 13.1903C49.1345 15.5171 51.7565 17.1577 54.4789 18.0059C50.6996 28.621 41.5777 38.115 27.1907 46.3795Z" fill="white"/>
<path d="M44.321 15.6756C40.8937 12.2488 35.3172 12.2488 31.8904 15.6756C28.4636 19.1029 28.4636 24.6794 31.8904 28.1062C35.3172 31.533 40.8937 31.5335 44.321 28.1062C47.7478 24.6794 47.7478 19.1029 44.321 15.6756ZM41.8349 25.6201C39.7786 27.6764 36.4324 27.6764 34.3765 25.6201C32.3203 23.5638 32.3203 20.218 34.3765 18.1618C36.4324 16.1059 39.7782 16.1055 41.8349 18.1618C43.8912 20.218 43.8912 23.5638 41.8349 25.6201Z" fill="white"/>
</g>
<defs>
<clipPath id="clip0_41:71">
<rect width="60" height="60" fill="white"/>
</clipPath>
</defs>
</svg>
