<svg width="63" height="63" viewBox="0 0 63 63" fill="none" xmlns="http://www.w3.org/2000/svg">
<g clip-path="url(#clip0_41:74)">
<path d="M36.143 30.1684L36.143 30.1684C36.7469 29.5647 36.7734 28.4713 36.1428 27.8408L36.143 30.1684ZM36.143 30.1684L31.5021 34.8093L26.8612 30.1684C26.2574 29.5647 26.2309 28.4712 26.8612 27.8408C27.4616 27.2403 28.5302 27.1822 29.1888 27.8408L31.3605 30.0126L31.502 30.154M36.143 30.1684L31.502 30.154M31.502 30.154L31.6434 30.0126M31.502 30.154L31.6434 30.0126M31.6434 30.0126L33.8152 27.8408L33.8152 27.8408M31.6434 30.0126L33.8152 27.8408M33.8152 27.8408C34.4736 27.1823 35.5421 27.2404 36.1428 27.8408L33.8152 27.8408ZM31.3607 40.4545L31.5021 40.5959L31.6435 40.4545L39.0362 33.0618C41.2702 30.8279 41.3024 27.2137 39.0362 24.9476C37.5288 23.4403 35.8635 23.1277 34.4506 23.3002C33.1522 23.4587 32.0673 24.0259 31.5021 24.4419C30.9369 24.0259 29.852 23.4587 28.5536 23.3002C27.1407 23.1277 25.4754 23.4403 23.968 24.9476C21.7019 27.2138 21.7341 30.8279 23.968 33.0618L31.3607 40.4545Z" fill="white" stroke="white" stroke-width="0.4"/>
<path d="M6.83985 58.7704L6.69843 58.6289C8.75699 56.5704 11.7748 55.7862 14.5751 56.5817C25.8061 59.7731 37.1935 59.7731 48.4243 56.5817C49.1472 56.3761 49.885 56.2761 50.6168 56.2761C52.7191 56.2761 54.7739 57.102 56.301 58.6291C56.9093 59.2373 57.9366 59.3209 58.6286 58.6291C58.6286 58.6291 58.6286 58.6291 58.6286 58.6291M6.83985 58.7704L58.77 6.84017C56.7626 8.84769 55.9978 11.7907 56.7737 14.5209C59.9752 25.7875 59.9752 37.2128 56.7737 48.4794C55.9978 51.2096 56.7626 54.1526 58.77 56.16C59.4897 56.8797 59.4896 58.0508 58.77 58.7705L58.6286 58.6291M6.83985 58.7704L6.69842 58.629C6.00088 59.3266 4.95839 59.2164 4.37081 58.6289C3.77104 58.0293 3.69614 56.9761 4.37084 56.3013C6.42938 54.2428 7.21374 51.2247 6.41811 48.4247C3.22682 37.1938 3.22682 25.8064 6.41811 14.5754C7.21375 11.7754 6.42925 8.7573 4.37083 6.69887C3.72925 6.0573 3.72922 5.01291 4.3708 4.37117C4.37082 4.37116 4.37083 4.37115 4.37084 4.37114L6.83985 58.7704ZM58.6286 58.6291C59.2701 57.9874 59.2702 56.943 58.6286 56.3015C56.5699 54.2428 55.7856 51.2247 56.5813 48.4248C59.7726 37.1938 59.7726 25.8064 56.5813 14.5756C55.7856 11.7756 56.5699 8.75755 58.6286 6.69876C59.2702 6.05703 59.2702 5.01262 58.6286 4.37104C58.0442 3.78669 56.9912 3.68086 56.301 4.37103C54.2423 6.42969 51.2248 7.21419 48.4243 6.41843C37.1935 3.22714 25.8059 3.22714 14.5751 6.41843C11.7749 7.21432 8.75697 6.42969 6.69843 4.37115L58.6286 58.6291ZM60.5174 49.5432L60.3386 49.4924L60.5174 49.5432C63.9193 37.5713 63.9193 25.4292 60.5174 13.4571C60.127 12.0834 60.5119 10.6023 61.522 9.59216C63.7592 7.35507 63.7592 3.7152 61.522 1.47799C59.2849 -0.759105 55.6449 -0.759105 53.4078 1.47811C52.3976 2.48823 50.9168 2.87306 49.5429 2.48288C37.5711 -0.919057 25.4288 -0.919056 13.4569 2.48288C12.0832 2.87306 10.6021 2.48811 9.59196 1.47799L9.45054 1.61941L9.59196 1.47798C7.35475 -0.759095 3.715 -0.759236 1.47791 1.47799C-0.759176 3.7152 -0.759182 7.35507 1.47791 9.59216C2.48804 10.6023 2.87298 12.0834 2.48269 13.4571C-0.919258 25.429 -0.919258 37.5712 2.48269 49.5431C2.87298 50.9168 2.48804 52.3979 1.47791 53.4081C-0.759301 55.6453 -0.759307 59.2851 1.47791 61.5222C3.715 63.7593 7.35487 63.7593 9.59196 61.5222C10.6022 60.5122 12.0834 60.1273 13.4569 60.5175C25.4287 63.9194 37.5708 63.9194 49.543 60.5174L49.5431 60.5174C50.9162 60.1269 52.3978 60.5121 53.408 61.5222C55.8377 63.952 59.5351 63.5091 61.522 61.5224L61.3806 61.3809L61.522 61.5224C63.9982 59.0462 63.4882 55.3744 61.522 53.4082C60.5119 52.398 60.1268 50.9169 60.5174 49.5432Z" fill="white" stroke="white" stroke-width="0.4"/>
</g>
<defs>
<clipPath id="clip0_41:74">
<rect width="63" height="63" fill="white"/>
</clipPath>
</defs>
</svg>
