<svg width="69" height="69" viewBox="0 0 69 69" fill="none" xmlns="http://www.w3.org/2000/svg">
<g clip-path="url(#clip0_41:96)">
<path d="M15.8783 13.1091C16.8901 12.6373 17.3278 11.4345 16.856 10.4227C16.3849 9.41245 16.8235 8.20738 17.8337 7.73624C18.8462 7.26415 20.0478 7.7012 20.5201 8.71396C20.8802 9.48603 20.7157 10.407 20.1109 11.0058C18.8902 12.2141 18.5576 14.0717 19.2831 15.6277L19.4187 15.9187C19.8927 16.9353 21.0976 17.3663 22.105 16.8967C23.1168 16.425 23.5548 15.2222 23.083 14.2104L22.9473 13.9193C22.9412 13.9061 22.9443 13.8896 22.955 13.8791C24.7697 12.0827 25.2636 9.32041 24.1842 7.0054C22.7678 3.96765 19.1631 2.65544 16.1249 4.07196C13.0873 5.48835 11.7749 9.09306 13.1916 12.1312C13.6637 13.1429 14.8663 13.5809 15.8783 13.1091Z" fill="white"/>
<path d="M22.9586 18.7288C21.9468 19.2006 21.5091 20.4034 21.9809 21.4152C22.4527 22.427 23.6555 22.8649 24.6673 22.3929C25.6791 21.9211 26.1169 20.7183 25.645 19.7065C25.1732 18.6947 23.9706 18.257 22.9586 18.7288Z" fill="white"/>
<path d="M45.7771 9.69181C46.789 10.1636 47.9918 9.72577 48.4635 8.71409C48.9357 7.70146 50.1372 7.26414 51.1499 7.73636C52.1624 8.20858 52.6 9.41001 52.1277 10.4228C51.7676 11.195 50.9568 11.6611 50.1086 11.5823C48.3987 11.4233 46.7618 12.3633 46.036 13.9199L45.9007 14.2101C45.4287 15.2219 45.8663 16.4247 46.8781 16.8966C47.8864 17.3671 49.0911 16.9344 49.5647 15.9192L49.7001 15.6288C49.7066 15.6148 49.7209 15.6061 49.7353 15.608C52.2778 15.8433 54.7122 14.4466 55.7918 12.1313C57.2082 9.09372 55.8965 5.48874 52.8585 4.07208C49.8209 2.6557 46.2159 3.96724 44.7992 7.00539C44.3274 8.01721 44.7653 9.21999 45.7771 9.69181Z" fill="white"/>
<path d="M44.318 22.3929C45.3298 22.8647 46.5326 22.427 47.0044 21.4152C47.4762 20.4034 47.0385 19.2006 46.0267 18.7288C45.0149 18.257 43.8121 18.6947 43.3403 19.7065C42.8685 20.7183 43.3062 21.9211 44.318 22.3929Z" fill="white"/>
<path d="M30.4492 8.08594C31.5656 8.08594 32.4707 7.18085 32.4707 6.06445C32.4707 4.94981 33.3775 4.04297 34.4922 4.04297C35.6068 4.04297 36.5137 4.94981 36.5137 6.06445C36.5137 6.91644 35.9753 7.68164 35.174 7.96869C33.5571 8.54764 32.4707 10.0908 32.4707 11.8087V12.1289C32.4707 13.2453 33.3758 14.1504 34.4922 14.1504C35.6086 14.1504 36.5137 13.2453 36.5137 12.1289V11.8087C36.5137 11.7933 36.5227 11.7801 36.5369 11.775C38.9412 10.914 40.5567 8.61921 40.5567 6.06445C40.5567 2.72051 37.8361 0 34.4922 0C31.1483 0 28.4277 2.72051 28.4277 6.06445C28.4277 7.18085 29.3328 8.08594 30.4492 8.08594Z" fill="white"/>
<path d="M34.4922 20.2148C35.6086 20.2148 36.5137 19.3098 36.5137 18.1934C36.5137 17.0769 35.6086 16.1719 34.4922 16.1719C33.3758 16.1719 32.4707 17.0769 32.4707 18.1934C32.4707 19.3098 33.3758 20.2148 34.4922 20.2148Z" fill="white"/>
<path d="M46.9672 29.0622C44.0977 24.707 38.3366 23.2297 33.7207 25.7677C27.1635 22.5478 19.3952 25.8489 17.0146 32.6467C13.2333 32.2942 9.61472 34.6675 8.54091 38.485C5.82363 40.3654 4.16992 43.4591 4.16992 46.7637C4.16992 54.4472 12.4377 59.2893 19.0918 55.6307C21.5368 56.8313 24.3646 57.2245 27.201 56.5211C29.4935 59.2969 32.8737 60.9141 36.5137 60.9141C37.933 60.9141 39.3221 60.6631 40.6378 60.176C41.2702 65.1454 45.5254 69 50.6641 69C51.5342 69 52.3066 68.4433 52.5818 67.6177L54.8165 60.9134C61.8442 60.8387 66.7293 53.7041 64.0925 47.1292C67.6534 36.4115 57.7379 26.1328 46.9672 29.0622ZM60.1051 48.1129C62.3276 52.5498 58.6295 57.5646 53.7285 56.766C52.749 56.6064 51.7991 57.1807 51.4853 58.1219L49.2616 64.7934C46.5914 64.159 44.5996 61.7541 44.5996 58.8926V57.8242C46.1497 56.4381 47.3126 54.6874 47.984 52.7346C51.0491 52.3141 53.8025 50.4944 55.3751 47.7759C55.9341 46.8095 55.6039 45.5729 54.6375 45.0139C53.671 44.4549 52.4345 44.785 51.8755 45.7515C49.5471 49.7762 43.7048 49.7933 41.3666 45.7515C40.8077 44.7852 39.5714 44.4547 38.6046 45.0139C37.6383 45.5729 37.308 46.8095 37.867 47.7759C39.1756 50.0381 41.3022 51.6774 43.7452 52.4065C41.431 57.0223 35.1843 58.445 31.1473 54.8097C31.7935 54.3747 32.4008 53.8789 32.961 53.3185C33.7504 52.5291 33.7504 51.2492 32.961 50.4598C32.1717 49.6703 30.8917 49.6703 30.1022 50.4598C28.5602 52.0019 26.4941 52.8281 24.3848 52.8281C22.8908 52.8281 21.4094 52.3932 20.1012 51.5705C19.4006 51.1298 18.502 51.1608 17.8331 51.6489C13.79 54.6003 8.21276 51.6627 8.21276 46.7637C8.21276 44.6039 9.40462 42.59 11.3233 41.508C11.8605 41.2049 12.23 40.6733 12.3267 40.0642C12.6403 38.0895 14.3108 36.6563 16.2988 36.6563C16.2988 39.896 17.5604 42.9419 19.8512 45.2327C20.6406 46.0221 21.9204 46.0223 22.71 45.2327C23.4995 44.4433 23.4995 43.1634 22.71 42.374C17.6381 37.3018 21.2525 28.5703 28.4277 28.5703C29.0543 28.5703 29.6782 28.6478 30.2884 28.7973C29.0954 30.4865 28.4277 32.5256 28.4277 34.6348C28.4277 35.7512 29.3328 36.6563 30.4492 36.6563C31.5656 36.6563 32.4707 35.7512 32.4707 34.6348C32.4707 31.1465 35.3966 28.5703 38.5352 28.5703C40.3561 28.5703 42.0347 29.3778 43.1665 30.7209C42.2629 31.2861 41.4226 31.9505 40.6583 32.7149C39.8688 33.5044 39.8688 34.7842 40.6583 35.5737C41.4476 36.3631 42.7276 36.3633 43.517 35.5737C44.4547 34.6361 45.5271 33.915 46.7769 33.3933C54.9585 29.9786 63.3707 38.1073 60.0353 46.4578C59.821 46.9941 59.8463 47.5965 60.1051 48.1129Z" fill="white"/>
</g>
<defs>
<clipPath id="clip0_41:96">
<rect width="69" height="69" fill="white"/>
</clipPath>
</defs>
</svg>
