<svg width="42" height="42" viewBox="0 0 42 42" fill="none" xmlns="http://www.w3.org/2000/svg">
<g clip-path="url(#clip0_188:807)">
<path d="M37.3403 4.65497C36.7404 4.04644 35.7633 4.05501 35.1548 4.65497L29.6694 10.1403C22.8727 7.0548 15.6218 7.80904 8.70515 12.3259C3.55408 15.6856 0.425725 19.9111 0.297163 20.091C-0.114237 20.6567 -0.0970956 21.4281 0.340017 21.9766C3.27124 25.5764 6.3396 28.379 9.47653 30.3332L4.65115 35.1586C4.05119 35.7585 4.05119 36.7356 4.65115 37.3441C4.95113 37.6441 5.34538 37.7984 5.73964 37.7984C6.1339 37.7984 6.52816 37.6441 6.82814 37.3441L37.3403 6.84053C37.9403 6.24057 37.9403 5.2635 37.3403 4.65497ZM17.1817 22.628C16.9589 22.1223 16.8474 21.5738 16.8474 20.9995C16.8474 19.8939 17.276 18.8483 18.0645 18.0598C19.2987 16.8256 21.1243 16.5341 22.6328 17.177L17.1817 22.628ZM24.9126 14.9057C22.1099 13.1058 18.3302 13.4315 15.8875 15.8742C14.5162 17.2455 13.7705 19.0625 13.7705 20.991C13.7705 22.3966 14.1733 23.7422 14.919 24.8993L11.7392 28.0791C8.95371 26.4677 6.21104 24.0851 3.54551 20.9738C4.68543 19.6368 7.09383 17.057 10.3936 14.9057C16.1018 11.1859 21.7842 10.3803 27.321 12.4973L24.9126 14.9057Z" fill="#5D3DE3"/>
<path d="M41.66 20.0225C39.5431 17.4169 37.3489 15.2228 35.1205 13.4829C34.4434 12.9601 33.4749 13.0801 32.9435 13.7486C32.4207 14.4171 32.5407 15.3856 33.2092 15.917C34.9748 17.2969 36.7404 19.0111 38.4546 21.0167C37.4432 22.1995 35.4719 24.325 32.7978 26.2706C27.6467 30.0161 22.4442 31.3702 17.3446 30.2903C16.5132 30.1103 15.6904 30.6503 15.519 31.4817C15.339 32.313 15.879 33.1358 16.7104 33.3073C18.0388 33.5901 19.3759 33.7272 20.7215 33.7272C22.7442 33.7272 24.7841 33.4101 26.8154 32.7759C29.4809 31.9445 32.1293 30.5732 34.692 28.7047C39.0117 25.5421 41.5915 22.0537 41.7029 21.908C42.1143 21.3424 42.0972 20.571 41.66 20.0225Z" fill="#5D3DE3"/>
</g>
<defs>
<clipPath id="clip0_188:807">
<rect width="42" height="42" fill="white"/>
</clipPath>
</defs>
</svg>
