<svg width="45" height="45" viewBox="0 0 45 45" fill="none" xmlns="http://www.w3.org/2000/svg">
<path d="M44.8291 37.7156L41.7765 32.2921C42.103 31.7065 42.2786 31.0425 42.2786 30.3652V9.27419C42.2786 7.09363 40.5046 5.31964 38.324 5.31964H3.95455C1.77398 5.31964 0 7.09354 0 9.27419V30.3652C0 32.5458 1.77398 34.3198 3.95455 34.3198H20.7491L18.843 37.7173C18.3507 38.5949 18.9864 39.6804 19.9927 39.6804H43.6803C44.6875 39.6803 45.3229 38.5931 44.8291 37.7156ZM35.4986 21.1378H39.6422V28.5L35.4986 21.1378ZM30.6679 16.64L29.6235 18.5015H2.63637V14.5513H39.6423V18.5015H34.0148L32.9662 16.6385C32.5692 15.9331 31.8078 15.9643 31.8166 15.9668C31.3401 15.9672 30.9009 16.2245 30.6679 16.64ZM3.95455 7.95601H38.3241C39.0509 7.95601 39.6423 8.54734 39.6423 9.27419V11.915H2.63637V9.27419C2.63637 8.54725 3.2277 7.95601 3.95455 7.95601ZM3.95455 31.6833C3.2277 31.6833 2.63637 31.092 2.63637 30.3651V21.1378H28.1444L22.2282 31.6833H3.95455ZM22.2437 37.0439C23.3143 35.1357 30.5474 22.2432 31.8194 19.9758C32.3205 20.8663 41.016 36.3159 41.4258 37.0439H22.2437Z" fill="#5D3DE3"/>
<path d="M31.7694 25.088C31.0414 25.088 30.4512 25.6781 30.4512 26.4061V29.0513C30.4512 29.7793 31.0414 30.3695 31.7694 30.3695C32.4974 30.3695 33.0875 29.7793 33.0875 29.0513V26.4061C33.0875 25.6781 32.4974 25.088 31.7694 25.088Z" fill="#5D3DE3"/>
<path d="M31.7687 34.3241C32.4748 34.3241 33.0471 33.7517 33.0471 33.0457C33.0471 32.3396 32.4748 31.7672 31.7687 31.7672C31.0626 31.7672 30.4902 32.3396 30.4902 33.0457C30.4902 33.7517 31.0626 34.3241 31.7687 34.3241Z" fill="#5D3DE3"/>
<path d="M9.31588 25.088H6.67951C5.95151 25.088 5.36133 25.6781 5.36133 26.4061C5.36133 27.1341 5.95151 27.7243 6.67951 27.7243H9.31588C10.0439 27.7243 10.6341 27.1341 10.6341 26.4061C10.6341 25.6781 10.0439 25.088 9.31588 25.088Z" fill="#5D3DE3"/>
<path d="M17.2124 25.088H14.576C13.848 25.088 13.2578 25.6781 13.2578 26.4061C13.2578 27.1341 13.848 27.7243 14.576 27.7243H17.2124C17.9404 27.7243 18.5305 27.1341 18.5305 26.4061C18.5305 25.6781 17.9404 25.088 17.2124 25.088Z" fill="#5D3DE3"/>
</svg>
