<svg width="43" height="43" viewBox="0 0 43 43" fill="none" xmlns="http://www.w3.org/2000/svg">
<path d="M30.1985 16.6836C29.2674 16.6836 27.2952 17.3185 25.4669 18.2327C26.2287 15.7779 26.3387 12.8577 26.3387 12.8069C26.3387 10.6315 24.1718 8.87085 21.5054 8.87085C18.8391 8.87085 16.6722 10.6399 16.6722 12.8069C16.6722 13.738 17.307 15.7187 18.2296 17.547C15.7749 16.7852 12.8631 16.6836 12.8208 16.6836C10.6454 16.6836 8.88477 18.8506 8.88477 21.5169C8.88477 24.1833 10.6539 26.3502 12.8208 26.3502C13.7434 26.3502 15.7072 25.7238 17.5271 24.8096C16.7737 27.2559 16.6722 30.1423 16.6722 30.1931C16.6722 32.3685 18.8391 34.1291 21.5054 34.1291C24.1718 34.1291 26.3387 32.36 26.3387 30.1931C26.3387 29.2789 25.7123 27.3151 24.8066 25.4953C27.2529 26.2486 30.1562 26.3502 30.1985 26.3502C32.3739 26.3502 34.1346 24.1833 34.1346 21.5169C34.1346 18.8506 32.3655 16.6836 30.1985 16.6836ZM18.3143 21.5169V21.5508C16.6129 22.8374 13.5572 23.9632 12.8208 23.9632C12.0844 23.9632 11.2718 22.9559 11.2718 21.5169C11.2718 20.0779 12.0844 19.0707 12.8208 19.0707C14.2852 19.0707 17.2393 19.5531 18.6021 20.2134C18.4159 20.6281 18.3143 21.0683 18.3143 21.5169ZM21.5054 31.7336C20.0665 31.7336 19.0592 30.921 19.0592 30.1846C19.0592 28.7287 19.5417 25.7915 20.2019 24.4203C20.6251 24.6149 21.0822 24.7081 21.5562 24.6996C22.8344 26.401 23.9517 29.4482 23.9517 30.1762C23.9517 30.921 22.9444 31.7336 21.5054 31.7336ZM20.7013 21.5C20.7013 21.0598 21.0568 20.6959 21.5054 20.6959C21.9456 20.6959 22.3096 21.0514 22.3096 21.5C22.3096 21.9401 21.9541 22.3041 21.5054 22.3041C21.0653 22.3041 20.7013 21.9401 20.7013 21.5ZM22.792 18.6051C22.3942 18.4273 21.9541 18.3342 21.5054 18.3342H21.4885C20.2019 16.6413 19.0676 13.5602 19.0676 12.8153C19.0676 12.0789 20.0749 11.2663 21.5139 11.2663C22.9529 11.2663 23.9602 12.0789 23.9602 12.8153C23.9517 14.3982 23.4184 17.2846 22.792 18.6051ZM30.1901 23.9632C28.7257 23.9632 25.7716 23.4807 24.4088 22.8205C24.595 22.4142 24.6881 21.974 24.6881 21.5254V21.4915C26.3895 20.2049 29.4452 19.0791 30.1816 19.0791C30.9265 19.0707 31.7391 20.0779 31.7391 21.5169C31.7391 22.9559 30.9265 23.9632 30.1901 23.9632Z" fill="#5D3DE3"/>
<path d="M39.4234 0H3.58442C1.61217 0 0.00390625 1.60827 0.00390625 3.58051V39.411C0.00390625 41.3917 1.61217 43 3.58442 43H39.4149C41.3872 43 42.9954 41.3917 42.9954 39.4195V3.58051C43.0039 1.60827 41.3956 0 39.4234 0ZM39.4234 40.613H3.58442C2.92418 40.613 2.39091 40.0797 2.39091 39.4195V3.58051C2.39091 2.92028 2.92418 2.38701 3.58442 2.38701H39.4149C40.0752 2.38701 40.6084 2.92028 40.6084 3.58051V39.4195H40.6169C40.6169 40.0797 40.0836 40.613 39.4234 40.613Z" fill="#5D3DE3"/>
<path d="M21.504 4.79089C12.2945 4.79089 4.79492 12.2905 4.79492 21.4999C4.79492 30.7094 12.2861 38.209 21.504 38.209C30.7219 38.209 38.213 30.7094 38.213 21.4999C38.213 12.2905 30.7134 4.79089 21.504 4.79089ZM21.504 35.822C13.6065 35.822 7.18193 29.3974 7.18193 21.4999C7.18193 13.6025 13.6065 7.1779 21.504 7.1779C29.4014 7.1779 35.826 13.6025 35.826 21.4999C35.826 29.3974 29.4014 35.822 21.504 35.822Z" fill="#5D3DE3"/>
</svg>
