<svg width="43" height="43" viewBox="0 0 43 43" fill="none" xmlns="http://www.w3.org/2000/svg">
<g clip-path="url(#clip0_188:841)">
<path d="M41.3161 30.5269C40.1735 29.3841 38.6541 28.7548 37.0381 28.7548C35.4221 28.7548 33.9028 29.3841 32.7601 30.5269L28.9785 34.3084H27.185C27.9492 33.2767 28.4016 32.0006 28.4016 30.621C28.4016 29.9249 27.8373 29.3606 27.1412 29.3606H22.9563C21.5886 29.3606 20.2752 28.7402 18.8847 28.0833C17.4263 27.3943 15.9181 26.6819 14.1547 26.5647C12.6126 26.4621 11.0666 26.6308 9.55988 27.0659C7.95561 27.5291 6.80012 28.9492 6.64905 30.5924H2.57676C1.88071 30.5924 1.31641 31.1567 1.31641 31.8528V41.7397C1.31641 42.4357 1.88071 43 2.57676 43H28.3134C29.8043 43 31.206 42.4194 32.2604 41.3652L41.3161 32.3093C41.8084 31.8171 41.8084 31.0192 41.3161 30.5269ZM3.83711 33.1131H6.63199V40.4793H3.83711V33.1131ZM30.478 39.5827C29.8997 40.1609 29.1311 40.4793 28.3134 40.4793H9.1527V30.9508C9.15463 30.2768 9.60962 29.6751 10.2594 29.4876C11.4838 29.1339 12.7384 28.9966 13.9876 29.0797C15.2739 29.1653 16.5048 29.7467 17.8081 30.3625C19.3889 31.1092 21.0233 31.8813 22.9564 31.8813H25.659C25.171 33.2194 23.9287 34.1972 22.4493 34.299C22.3889 34.2901 15.8764 34.284 15.8764 34.284C15.5704 34.284 15.29 34.3932 15.0717 34.5745C14.7841 34.8055 14.5995 35.1596 14.5995 35.5572C14.5995 36.2532 15.1638 36.8176 15.8599 36.8176L29.5006 36.8291C29.8349 36.8291 30.1555 36.6963 30.3918 36.4599L34.5425 32.3092C35.2092 31.6425 36.0954 31.2754 37.0381 31.2754C37.5431 31.2754 38.0319 31.3808 38.4794 31.5811L30.478 39.5827Z" fill="#5D3DE3"/>
<path d="M24.2915 26.3212C31.5483 26.3212 37.4521 20.4174 37.4521 13.1606C37.4521 5.90383 31.5483 0 24.2915 0C17.0346 0 11.1309 5.90383 11.1309 13.1606C11.1309 20.4174 17.0347 26.3212 24.2915 26.3212ZM24.2915 2.52071C30.1583 2.52071 34.9314 7.29375 34.9314 13.1606C34.9314 19.0275 30.1583 23.8005 24.2915 23.8005C18.4246 23.8005 13.6516 19.0275 13.6516 13.1606C13.6516 7.29375 18.4246 2.52071 24.2915 2.52071Z" fill="#5D3DE3"/>
<path d="M20.5611 11.1504C21.4087 11.1504 22.2207 10.4051 22.1815 9.5301C22.1422 8.65222 21.4696 7.90979 20.5611 7.90979C19.7136 7.90979 18.9016 8.65508 18.9408 9.5301C18.9801 10.408 19.6528 11.1504 20.5611 11.1504Z" fill="#5D3DE3"/>
<path d="M26.3998 16.9074C26.4391 17.7853 27.1117 18.5277 28.0201 18.5277C28.8677 18.5277 29.6797 17.7824 29.6404 16.9074C29.6011 16.0295 28.9285 15.2871 28.0201 15.2871C27.1726 15.287 26.3606 16.0323 26.3998 16.9074Z" fill="#5D3DE3"/>
<path d="M21.1303 20.8195C21.2896 20.8864 21.4549 20.918 21.6175 20.918C22.11 20.918 22.5777 20.6276 22.7802 20.1451L28.3031 6.98533C28.5725 6.34347 28.2705 5.60482 27.6287 5.33544C26.9869 5.06615 26.2483 5.36796 25.9788 6.00982L20.456 19.1696C20.1866 19.8114 20.4885 20.5501 21.1303 20.8195Z" fill="#5D3DE3"/>
</g>
<defs>
<clipPath id="clip0_188:841">
<rect width="43" height="43" fill="white"/>
</clipPath>
</defs>
</svg>
