<svg width="45" height="45" viewBox="0 0 45 45" fill="none" xmlns="http://www.w3.org/2000/svg">
<g clip-path="url(#clip0_188:836)">
<path d="M43.6816 10.6348H38.3379C30.4185 0.0782566 14.5781 0.0831785 6.66255 10.6348H1.31836C0.590273 10.6348 0 11.2251 0 11.9532V33.0469C0 33.775 0.590273 34.3653 1.31836 34.3653H6.66167C14.5827 44.9239 30.4241 44.915 38.3384 34.3653H43.6816C44.4097 34.3653 45 33.775 45 33.0469V11.9532C45 11.225 44.4097 10.6348 43.6816 10.6348ZM34.4821 31.7286H15.1359L18.8706 27.9938C23.2073 30.8714 29.1141 27.7737 29.1141 22.4889C29.1141 21.1442 28.7091 19.8928 28.0161 18.8484L33.5929 13.2715H34.4821C35.0651 17.3289 38.2968 20.5419 42.3633 21.0963V23.9038C38.2968 24.4582 35.0651 27.6711 34.4821 31.7286ZM10.5402 31.7286C9.95616 27.6636 6.71361 24.4462 2.63672 23.9006V21.0993C6.71361 20.5537 9.95616 17.3363 10.5402 13.2714H29.8641L26.1517 16.9838C21.8151 14.1064 15.9082 17.204 15.9082 22.4889C15.9082 23.8335 16.3132 25.085 17.0062 26.1294L11.4071 31.7286H10.5402ZM20.7986 26.0658L26.0881 20.7762C27.7015 24.1325 24.1596 27.6814 20.7986 26.0658ZM24.2237 18.9118L18.9342 24.2014C17.3208 20.8451 20.8628 17.2963 24.2237 18.9118ZM42.3633 18.424C39.7535 17.9196 37.687 15.8722 37.1569 13.2714H42.3633V18.424ZM33.6582 9.47746L32.5008 10.6348H10.1153C16.403 4.07957 26.7162 3.53579 33.6582 9.47746ZM7.86542 13.2715C7.33386 15.8796 5.25709 17.931 2.63672 18.4281V13.2715H7.86542ZM2.63672 26.572C5.25709 27.069 7.33386 29.1205 7.86542 31.7286H2.63672V26.572ZM11.3419 35.5225L12.4992 34.3653H34.8853C28.6073 40.9088 18.2971 41.4745 11.3419 35.5225ZM37.1569 31.7286C37.687 29.1278 39.7535 27.0804 42.3633 26.576V31.7286H37.1569Z" fill="#5D3DE3"/>
<path d="M11.9531 21.1816H9.31641C8.58832 21.1816 7.99805 21.7719 7.99805 22.5C7.99805 23.2281 8.58832 23.8184 9.31641 23.8184H11.9531C12.6812 23.8184 13.2715 23.2281 13.2715 22.5C13.2715 21.7719 12.6812 21.1816 11.9531 21.1816Z" fill="#5D3DE3"/>
<path d="M35.6836 21.1816H33.0469C32.3188 21.1816 31.7285 21.7719 31.7285 22.5C31.7285 23.2281 32.3188 23.8184 33.0469 23.8184H35.6836C36.4117 23.8184 37.002 23.2281 37.002 22.5C37.002 21.7719 36.4117 21.1816 35.6836 21.1816Z" fill="#5D3DE3"/>
</g>
<defs>
<clipPath id="clip0_188:836">
<rect width="45" height="45" fill="white"/>
</clipPath>
</defs>
</svg>
