<svg width="24" height="22" viewBox="0 0 24 22" fill="none" xmlns="http://www.w3.org/2000/svg">
<path d="M23.5251 10.5221C21.8289 8.05147 18.3224 11.6874 11.9229 12.4264C9.55343 12.6997 7.4185 14.6783 4.66609 14.4898C3.53753 14.4122 1.96162 11.1652 0.78183 11.6828C0.174853 11.9495 -0.103673 12.8396 0.520383 13.5083L7.44938 21.7761C7.44938 21.7761 7.80147 22.1821 8.98784 21.9009C9.28016 21.987 13.6748 20.2258 16.2157 16.7002C16.824 15.8561 17.5492 15.1532 18.3001 14.566C20.7378 12.7634 23.3878 12.1354 23.3878 12.1354C23.7267 11.8556 23.8062 11.558 23.7878 11.2998C23.8102 10.8689 23.5251 10.5221 23.5251 10.5221Z" fill="#5C913B"/>
<path d="M7.67712 6.57711C5.19206 10.0258 0.840092 11.6595 0.840092 11.6595C0.0281619 12.3473 0.713967 13.1579 0.713967 13.1579L7.5707 21.2766C7.5707 21.2766 7.9136 21.6819 9.06843 21.4007C9.06843 21.4007 13.4204 19.7703 15.9048 16.3216C18.4661 12.7677 23.0847 11.6458 23.0847 11.6458C23.896 10.958 23.2109 10.1461 23.2109 10.1461L16.3541 2.02872C16.3541 2.02872 16.0112 1.62276 14.8564 1.9026C14.8564 1.9026 10.2384 3.02196 7.67712 6.57711Z" fill="#A7D28B"/>
<path d="M14.5915 12.6375C16.5869 12.6375 18.2044 11.02 18.2044 9.02458C18.2044 7.0292 16.5869 5.41162 14.5915 5.41162C12.5961 5.41162 10.9785 7.0292 10.9785 9.02458C10.9785 11.02 12.5961 12.6375 14.5915 12.6375Z" fill="#77B255"/>
<path d="M8.59556 20.8018C8.01683 20.8018 7.80465 20.5863 7.77575 20.5535L1.59496 13.3387C1.58314 13.3249 1.2698 12.9663 1.3079 12.5104C1.33089 12.2338 1.47409 11.9875 1.73291 11.7779L1.7743 11.753C1.81437 11.7372 5.82278 10.0897 8.06938 7.11197L8.20076 7.21051L8.06938 7.11197C10.446 3.96147 14.5458 2.60957 14.5865 2.59643C15.7328 2.32973 16.1079 2.71073 16.148 2.7554L22.2473 10.0102C22.2584 10.022 22.5711 10.382 22.533 10.8386C22.51 11.1145 22.3668 11.3608 22.108 11.5704L22.043 11.6025C22.0029 11.6124 18.0168 12.603 15.7078 15.6629C13.4093 18.7109 9.39698 20.6829 9.35691 20.7019C9.0521 20.7742 8.80117 20.8018 8.59556 20.8018ZM8.0234 20.3374C8.02406 20.3374 8.32032 20.6106 9.24852 20.3952C9.25377 20.3879 13.1958 18.4494 15.447 15.4658C17.7048 12.4736 21.5069 11.4048 21.9287 11.2938C22.0975 11.1486 22.1908 10.9877 22.2059 10.8149C22.2335 10.4996 22.0009 10.2283 21.999 10.2257L15.8996 2.97021C15.8983 2.97021 15.604 2.6976 14.6752 2.91306C14.6482 2.92226 10.6451 4.24394 8.33214 7.3097C6.12101 10.2401 2.26303 11.9047 1.9221 12.0479C1.74605 12.1957 1.65014 12.3606 1.63503 12.5373C1.60876 12.85 1.83999 13.12 1.84196 13.1226L8.0234 20.3374Z" fill="#5C913B"/>
<path d="M14.1133 14.3888L14.1094 18.2908L14.4359 18.6784C15.0724 18.0977 15.684 17.4447 16.2128 16.7103C16.7613 15.9496 17.3985 15.2986 18.0705 14.7488L17.7532 14.3711L14.1133 14.3888Z" fill="#FFAC33"/>
<path d="M17.7406 14.3576L9.5254 4.62695C8.85799 5.17612 8.21685 5.8166 7.67162 6.57401C7.13888 7.31368 6.51876 7.96467 5.875 8.5388L6.83539 9.67589L6.83473 9.67655L14.1099 18.2912C14.7537 17.7164 15.3666 17.0588 15.9 16.3185C16.4452 15.5617 17.0857 14.9219 17.7524 14.3727L17.7399 14.3576H17.7406Z" fill="#FFE8B6"/>
<path d="M9.64902 14.6439C8.62623 13.4326 6.46108 15.398 5.84359 14.6669C5.5447 14.3128 5.73718 13.8537 6.13 13.5226C6.79019 12.9642 7.26644 13.2894 7.56533 13.0365C7.77751 12.8578 7.76634 12.6391 7.64022 12.4886C7.34724 12.1424 6.59837 12.3231 6.01636 12.6594L5.73324 12.3244C5.55653 12.1155 5.24384 12.0886 5.03495 12.2653C4.82606 12.4426 4.79978 12.754 4.97649 12.9629L5.26946 13.3104C4.82474 13.9003 4.67365 14.6833 5.19983 15.3054C6.18256 16.4681 8.37463 14.5355 9.06438 15.3527C9.30349 15.6365 9.23649 16.1778 8.7333 16.6021C7.97918 17.24 7.296 16.9411 6.98923 17.1999C6.83946 17.3254 6.81252 17.5645 6.97215 17.7543C7.22637 18.0545 8.03633 17.9902 8.81476 17.5054C8.81607 17.5067 8.81607 17.508 8.81607 17.5093L9.13598 17.8877C9.31269 18.0966 9.62603 18.1222 9.83493 17.9468C10.0445 17.7694 10.0701 17.4568 9.89339 17.2479L9.57348 16.8695C9.57019 16.8656 9.56494 16.8629 9.561 16.859C10.0859 16.2165 10.2632 15.3698 9.64902 14.6439Z" fill="#5C913B"/>
<path d="M21.4581 21.2348C21.464 21.2295 21.4706 21.2256 21.4765 21.221C21.5212 21.1763 21.556 21.1251 21.5954 21.0758C21.623 21.0416 21.6539 21.0088 21.6795 20.974C21.7025 20.9411 21.7215 20.9076 21.7425 20.8741C22.6753 19.4375 22.0644 17.0017 20.2179 15.1545C18.3707 13.3073 15.9342 12.6964 14.4982 13.6298C14.4641 13.6502 14.4306 13.6692 14.3977 13.6929C14.3629 13.7185 14.3294 13.7494 14.2966 13.7763C14.248 13.8164 14.1967 13.8505 14.1514 13.8959C14.1455 13.9018 14.1415 13.9083 14.1369 13.9143C14.1297 13.9215 14.1212 13.9261 14.1133 13.934L14.1172 13.9372C13.4603 14.6349 13.4524 15.7142 14.1133 16.3757C14.7754 17.0378 15.8541 17.0286 16.5524 16.3717L16.5596 16.3796C16.5458 16.3927 16.5307 16.4013 16.5175 16.4144C15.8219 17.1101 15.8055 18.2196 16.4788 18.8942C17.1528 19.5675 18.2636 19.5511 18.9586 18.8555C18.9717 18.8423 18.9803 18.8272 18.9934 18.8134L19.0006 18.8213C18.3437 19.5189 18.3352 20.5982 18.9973 21.2604C19.6588 21.9212 20.7375 21.9133 21.4351 21.2564L21.439 21.2604C21.4456 21.2512 21.4509 21.2426 21.4581 21.2348Z" fill="#E1E8ED"/>
<path d="M14.1143 16.4019C14.7094 16.9964 15.6389 17.045 16.328 16.5733C16.6164 16.0807 16.6992 15.6123 16.6992 15.4658C15.2494 16.5471 13.9553 15.4717 13.6656 14.8286C13.5454 15.3844 13.6912 15.9782 14.1143 16.4019ZM18.909 18.9244C19.1048 18.6491 19.2565 18.3831 19.3274 18.2031C18.4045 19.0492 16.6401 18.4297 16.1053 17.0877C15.8702 17.7118 15.9904 18.4304 16.4804 18.9205C17.1386 19.5787 18.2107 19.5734 18.909 18.9244ZM21.4407 21.286L21.4597 21.2623C21.4663 21.257 21.4729 21.2531 21.4781 21.2479C21.5235 21.2032 21.5583 21.1519 21.597 21.1033C21.6253 21.0685 21.6555 21.0363 21.6811 21.0009C21.7048 20.9687 21.7238 20.9345 21.7448 20.901C21.7875 20.8353 21.8105 20.7578 21.8467 20.6882C20.186 21.4311 18.9464 20.1705 18.5989 19.5419C18.4052 20.1443 18.5313 20.8189 18.999 21.2873C19.6598 21.9488 20.7385 21.9409 21.4368 21.2833L21.4407 21.286Z" fill="#CCD6DD"/>
<path d="M9.30503 8.03773L9.32342 8.02328C9.36875 7.97861 9.40357 7.92737 9.44232 7.87876C9.46991 7.8446 9.50013 7.81241 9.52575 7.77694C9.5494 7.74409 9.56845 7.71059 9.58947 7.67709C10.5223 6.24045 9.91069 3.804 8.06415 1.95745C6.21694 0.110246 3.78115 -0.501329 2.34451 0.431471C2.31101 0.452492 2.27685 0.471542 2.244 0.49519C2.20853 0.520809 2.17634 0.551027 2.14218 0.578617C2.09357 0.618031 2.04233 0.65219 1.99766 0.697516C1.99175 0.703428 1.98781 0.710654 1.98321 0.715909C1.97599 0.722478 1.96679 0.72839 1.95956 0.735616L1.96285 0.738901C1.30595 1.43653 1.29806 2.51582 1.95956 3.17732C2.62106 3.83882 3.70035 3.83093 4.39798 3.17403L4.40521 3.18126C4.39141 3.19374 4.3763 3.20294 4.36316 3.21607C3.66751 3.91173 3.65108 5.02124 4.32506 5.69588C4.99904 6.37051 6.10921 6.35343 6.80487 5.65778C6.818 5.64464 6.82654 5.62953 6.83968 5.61573L6.84691 5.62296C6.19001 6.32059 6.18147 7.39988 6.84362 8.06138C7.50512 8.72288 8.58375 8.71499 9.28138 8.05744L9.28467 8.06138C9.29189 8.05415 9.29781 8.04561 9.30503 8.03773Z" fill="#E1E8ED"/>
<path d="M1.95998 3.17811C2.55513 3.77326 3.48465 3.82187 4.17373 3.3489C4.46211 2.85623 4.54423 2.38851 4.54423 2.24202C3.0951 3.32263 1.80035 2.24662 1.51131 1.60352C1.3911 2.15991 1.53693 2.75441 1.95998 3.17811ZM6.75601 5.69929C6.95111 5.42405 7.10286 5.15932 7.17314 4.97933C6.24954 5.82542 4.48511 5.2053 3.95104 3.86326C3.71587 4.48731 3.83609 5.20596 4.32548 5.69601C4.98501 6.35488 6.05773 6.34897 6.75601 5.69929ZM9.28574 8.06217C9.29296 8.05494 9.29888 8.0464 9.30545 8.03852L9.32384 8.02407C9.36916 7.9794 9.40398 7.92816 9.44274 7.87955C9.47033 7.84539 9.50054 7.8132 9.52616 7.77773C9.54981 7.74488 9.56886 7.71138 9.58988 7.67788C9.63258 7.61219 9.65557 7.53402 9.6917 7.46439C8.03106 8.20734 6.79148 6.94741 6.44398 6.31875C6.2502 6.92113 6.37632 7.59577 6.84404 8.06348C7.50554 8.72498 8.58417 8.7171 9.2818 8.05954L9.28574 8.06217Z" fill="#CCD6DD"/>
</svg>
