<svg width="146" height="20" viewBox="0 0 146 20" fill="none" xmlns="http://www.w3.org/2000/svg">
<path d="M7.016 19.12C5.752 19.12 4.624 18.832 3.632 18.256C2.656 17.664 1.88 16.864 1.304 15.856C0.744 14.848 0.464 13.712 0.464 12.448C0.464 11.168 0.736 10.024 1.28 9.016C1.824 8.008 2.568 7.216 3.512 6.64C4.456 6.048 5.544 5.752 6.776 5.752C7.752 5.752 8.648 5.944 9.464 6.328C10.296 6.712 11.024 7.288 11.648 8.056C11.824 8.248 11.888 8.456 11.84 8.68C11.792 8.888 11.656 9.072 11.432 9.232C11.256 9.36 11.056 9.408 10.832 9.376C10.624 9.328 10.44 9.208 10.28 9.016C9.352 7.96 8.184 7.432 6.776 7.432C5.88 7.432 5.088 7.648 4.4 8.08C3.728 8.512 3.2 9.104 2.816 9.856C2.448 10.608 2.264 11.472 2.264 12.448C2.264 13.408 2.464 14.264 2.864 15.016C3.264 15.768 3.824 16.36 4.544 16.792C5.264 17.224 6.088 17.44 7.016 17.44C7.64 17.44 8.208 17.36 8.72 17.2C9.248 17.024 9.712 16.76 10.112 16.408C10.304 16.248 10.504 16.16 10.712 16.144C10.92 16.128 11.112 16.192 11.288 16.336C11.48 16.512 11.584 16.712 11.6 16.936C11.632 17.16 11.56 17.352 11.384 17.512C10.216 18.584 8.76 19.12 7.016 19.12ZM21.4329 19.12C20.1529 19.12 19.0089 18.832 18.0009 18.256C16.9929 17.68 16.2009 16.888 15.6249 15.88C15.0489 14.872 14.7609 13.728 14.7609 12.448C14.7609 11.152 15.0489 10 15.6249 8.992C16.2009 7.984 16.9929 7.192 18.0009 6.616C19.0089 6.04 20.1529 5.752 21.4329 5.752C22.7129 5.752 23.8489 6.04 24.8409 6.616C25.8489 7.192 26.6409 7.984 27.2169 8.992C27.7929 10 28.0889 11.152 28.1049 12.448C28.1049 13.728 27.8089 14.872 27.2169 15.88C26.6409 16.888 25.8489 17.68 24.8409 18.256C23.8489 18.832 22.7129 19.12 21.4329 19.12ZM21.4329 17.44C22.3609 17.44 23.1929 17.224 23.9289 16.792C24.6649 16.36 25.2409 15.768 25.6569 15.016C26.0729 14.264 26.2809 13.408 26.2809 12.448C26.2809 11.488 26.0729 10.632 25.6569 9.88C25.2409 9.112 24.6649 8.512 23.9289 8.08C23.1929 7.648 22.3609 7.432 21.4329 7.432C20.5049 7.432 19.6729 7.648 18.9369 8.08C18.2009 8.512 17.6169 9.112 17.1849 9.88C16.7689 10.632 16.5609 11.488 16.5609 12.448C16.5609 13.408 16.7689 14.264 17.1849 15.016C17.6169 15.768 18.2009 16.36 18.9369 16.792C19.6729 17.224 20.5049 17.44 21.4329 17.44ZM37.6751 19.12C36.3951 19.12 35.2511 18.832 34.2431 18.256C33.2351 17.68 32.4431 16.888 31.8671 15.88C31.2911 14.872 31.0031 13.728 31.0031 12.448C31.0031 11.152 31.2911 10 31.8671 8.992C32.4431 7.984 33.2351 7.192 34.2431 6.616C35.2511 6.04 36.3951 5.752 37.6751 5.752C38.9551 5.752 40.0911 6.04 41.0831 6.616C42.0911 7.192 42.8831 7.984 43.4591 8.992C44.0351 10 44.3311 11.152 44.3471 12.448C44.3471 13.728 44.0511 14.872 43.4591 15.88C42.8831 16.888 42.0911 17.68 41.0831 18.256C40.0911 18.832 38.9551 19.12 37.6751 19.12ZM37.6751 17.44C38.6031 17.44 39.4351 17.224 40.1711 16.792C40.9071 16.36 41.4831 15.768 41.8991 15.016C42.3151 14.264 42.5231 13.408 42.5231 12.448C42.5231 11.488 42.3151 10.632 41.8991 9.88C41.4831 9.112 40.9071 8.512 40.1711 8.08C39.4351 7.648 38.6031 7.432 37.6751 7.432C36.7471 7.432 35.9151 7.648 35.1791 8.08C34.4431 8.512 33.8591 9.112 33.4271 9.88C33.0111 10.632 32.8031 11.488 32.8031 12.448C32.8031 13.408 33.0111 14.264 33.4271 15.016C33.8591 15.768 34.4431 16.36 35.1791 16.792C35.9151 17.224 36.7471 17.44 37.6751 17.44ZM49.4533 14.608L48.3253 13.384L56.5333 5.968C56.7253 5.792 56.9253 5.712 57.1333 5.728C57.3413 5.728 57.5333 5.824 57.7093 6.016C57.8853 6.208 57.9653 6.416 57.9493 6.64C57.9493 6.848 57.8533 7.032 57.6613 7.192L49.4533 14.608ZM48.8533 19C48.5813 19 48.3573 18.92 48.1813 18.76C48.0213 18.584 47.9413 18.36 47.9413 18.088V1.168C47.9413 0.895999 48.0213 0.679999 48.1813 0.519999C48.3573 0.343999 48.5813 0.256 48.8533 0.256C49.1253 0.256 49.3413 0.343999 49.5013 0.519999C49.6773 0.679999 49.7653 0.895999 49.7653 1.168V18.088C49.7653 18.36 49.6773 18.584 49.5013 18.76C49.3413 18.92 49.1253 19 48.8533 19ZM57.7333 18.88C57.5253 19.056 57.3093 19.128 57.0853 19.096C56.8613 19.08 56.6693 18.968 56.5093 18.76L51.1573 12.184L52.4533 11.032L57.8533 17.68C58.0133 17.872 58.0853 18.08 58.0693 18.304C58.0533 18.512 57.9413 18.704 57.7333 18.88ZM65.6596 19.168C64.6196 19.168 63.7236 18.984 62.9716 18.616C62.2196 18.232 61.6356 17.704 61.2196 17.032C60.8036 16.36 60.5956 15.584 60.5956 14.704C60.5956 13.68 60.9156 12.736 61.5556 11.872C62.1956 10.992 63.1636 10.048 64.4596 9.04L66.4756 7.456C67.1636 6.912 67.6756 6.36 68.0116 5.8C68.3636 5.224 68.5396 4.632 68.5396 4.024C68.5396 3.368 68.3156 2.8 67.8676 2.32C67.4196 1.824 66.7876 1.576 65.9716 1.576C65.2516 1.576 64.6516 1.808 64.1716 2.272C63.7076 2.72 63.4756 3.248 63.4756 3.856C63.4756 4.352 63.5716 4.816 63.7636 5.248C63.9716 5.664 64.2836 6.08 64.6996 6.496L75.4756 17.248C75.6676 17.456 75.7796 17.648 75.8116 17.824C75.8436 18 75.7636 18.192 75.5716 18.4C75.1556 18.816 74.7476 18.816 74.3476 18.4L63.4516 7.504C62.9396 6.992 62.5316 6.432 62.2276 5.824C61.9396 5.2 61.7956 4.552 61.7956 3.88C61.7956 3.144 61.9796 2.488 62.3476 1.912C62.7156 1.336 63.2116 0.879999 63.8356 0.543999C64.4596 0.207999 65.1716 0.0399995 65.9716 0.0399995C66.7876 0.0399995 67.5156 0.216 68.1556 0.568C68.7956 0.919999 69.2996 1.4 69.6676 2.008C70.0356 2.6 70.2196 3.28 70.2196 4.048C70.2036 4.656 70.0756 5.224 69.8356 5.752C69.6116 6.264 69.2836 6.76 68.8516 7.24C68.4196 7.704 67.8996 8.176 67.2916 8.656L65.2996 10.192C64.6116 10.736 64.0516 11.264 63.6196 11.776C63.1876 12.272 62.8676 12.76 62.6596 13.24C62.4676 13.72 62.3716 14.208 62.3716 14.704C62.3716 15.568 62.6596 16.264 63.2356 16.792C63.8116 17.304 64.6356 17.56 65.7076 17.56C66.5236 17.56 67.2676 17.352 67.9396 16.936C68.6276 16.52 69.3316 15.928 70.0516 15.16L73.6996 11.296C73.8916 11.104 74.0756 10.992 74.2516 10.96C74.4276 10.912 74.6196 10.984 74.8276 11.176C75.0196 11.352 75.1236 11.544 75.1396 11.752C75.1556 11.96 75.0596 12.168 74.8516 12.376L71.2036 16.24C70.3716 17.152 69.5076 17.872 68.6116 18.4C67.7316 18.912 66.7476 19.168 65.6596 19.168ZM84.0851 19C83.2371 19 82.4771 18.8 81.8051 18.4C81.1491 18 80.6291 17.456 80.2451 16.768C79.8611 16.064 79.6691 15.264 79.6691 14.368V2.632C79.6691 2.36 79.7491 2.136 79.9091 1.96C80.0851 1.784 80.3091 1.696 80.5811 1.696C80.8531 1.696 81.0771 1.784 81.2531 1.96C81.4291 2.136 81.5171 2.36 81.5171 2.632V14.368C81.5171 15.184 81.7571 15.856 82.2371 16.384C82.7171 16.896 83.3331 17.152 84.0851 17.152H84.7331C84.9891 17.152 85.1971 17.24 85.3571 17.416C85.5171 17.592 85.5971 17.816 85.5971 18.088C85.5971 18.36 85.5011 18.584 85.3091 18.76C85.1171 18.92 84.8771 19 84.5891 19H84.0851ZM78.1091 7.96C77.8691 7.96 77.6691 7.888 77.5091 7.744C77.3491 7.584 77.2691 7.392 77.2691 7.168C77.2691 6.928 77.3491 6.736 77.5091 6.592C77.6691 6.432 77.8691 6.352 78.1091 6.352H84.2291C84.4691 6.352 84.6691 6.432 84.8291 6.592C84.9891 6.736 85.0691 6.928 85.0691 7.168C85.0691 7.392 84.9891 7.584 84.8291 7.744C84.6691 7.888 84.4691 7.96 84.2291 7.96H78.1091ZM89.3733 10.912C89.4213 9.92 89.6773 9.032 90.1413 8.248C90.6213 7.464 91.2373 6.848 91.9893 6.4C92.7573 5.952 93.6053 5.728 94.5333 5.728C95.2693 5.728 95.8373 5.832 96.2373 6.04C96.6373 6.248 96.7893 6.552 96.6933 6.952C96.6293 7.192 96.5173 7.352 96.3573 7.432C96.2133 7.512 96.0293 7.544 95.8053 7.528C95.5973 7.512 95.3573 7.496 95.0853 7.48C94.1893 7.4 93.3893 7.496 92.6853 7.768C91.9973 8.024 91.4453 8.424 91.0293 8.968C90.6293 9.512 90.4293 10.16 90.4293 10.912H89.3733ZM89.5173 19C89.2293 19 89.0053 18.92 88.8453 18.76C88.6853 18.6 88.6053 18.376 88.6053 18.088V6.784C88.6053 6.496 88.6853 6.272 88.8453 6.112C89.0053 5.952 89.2293 5.872 89.5173 5.872C89.8053 5.872 90.0293 5.952 90.1893 6.112C90.3493 6.272 90.4293 6.496 90.4293 6.784V18.088C90.4293 18.376 90.3493 18.6 90.1893 18.76C90.0293 18.92 89.8053 19 89.5173 19ZM104.421 19.12C103.189 19.12 102.085 18.832 101.109 18.256C100.133 17.664 99.3566 16.864 98.7806 15.856C98.2206 14.848 97.9406 13.712 97.9406 12.448C97.9406 11.168 98.2286 10.024 98.8046 9.016C99.3966 8.008 100.197 7.216 101.205 6.64C102.213 6.048 103.349 5.752 104.613 5.752C105.877 5.752 107.005 6.048 107.997 6.64C109.005 7.216 109.797 8.008 110.373 9.016C110.965 10.024 111.269 11.168 111.285 12.448L110.541 13.024C110.541 14.176 110.269 15.216 109.725 16.144C109.197 17.056 108.469 17.784 107.541 18.328C106.629 18.856 105.589 19.12 104.421 19.12ZM104.613 17.44C105.541 17.44 106.365 17.224 107.085 16.792C107.821 16.36 108.397 15.768 108.813 15.016C109.245 14.248 109.461 13.392 109.461 12.448C109.461 11.488 109.245 10.632 108.813 9.88C108.397 9.128 107.821 8.536 107.085 8.104C106.365 7.656 105.541 7.432 104.613 7.432C103.701 7.432 102.877 7.656 102.141 8.104C101.405 8.536 100.821 9.128 100.389 9.88C99.9566 10.632 99.7406 11.488 99.7406 12.448C99.7406 13.392 99.9566 14.248 100.389 15.016C100.821 15.768 101.405 16.36 102.141 16.792C102.877 17.224 103.701 17.44 104.613 17.44ZM110.349 19C110.077 19 109.853 18.92 109.677 18.76C109.501 18.584 109.413 18.36 109.413 18.088V13.984L109.869 12.088L111.285 12.448V18.088C111.285 18.36 111.197 18.584 111.021 18.76C110.845 18.92 110.621 19 110.349 19ZM118.64 19C118.256 19 117.968 18.792 117.776 18.376L112.448 7.072C112.352 6.864 112.344 6.656 112.424 6.448C112.504 6.24 112.664 6.08 112.904 5.968C113.128 5.856 113.344 5.84 113.552 5.92C113.76 6 113.92 6.144 114.032 6.352L119.144 17.416H118.16L123.2 6.352C123.296 6.128 123.456 5.984 123.68 5.92C123.92 5.84 124.152 5.848 124.376 5.944C124.6 6.056 124.752 6.224 124.832 6.448C124.912 6.656 124.904 6.856 124.808 7.048L119.552 18.376C119.36 18.792 119.056 19 118.64 19ZM132.901 19.12C131.605 19.12 130.453 18.84 129.445 18.28C128.453 17.704 127.669 16.912 127.093 15.904C126.533 14.896 126.253 13.744 126.253 12.448C126.253 11.136 126.517 9.984 127.045 8.992C127.589 7.984 128.333 7.192 129.277 6.616C130.221 6.04 131.309 5.752 132.541 5.752C133.757 5.752 134.813 6.032 135.709 6.592C136.621 7.136 137.325 7.896 137.821 8.872C138.317 9.848 138.565 10.96 138.565 12.208C138.565 12.464 138.485 12.672 138.325 12.832C138.165 12.976 137.957 13.048 137.701 13.048H127.501V11.512H137.893L136.861 12.256C136.877 11.328 136.709 10.496 136.357 9.76C136.005 9.024 135.501 8.448 134.845 8.032C134.205 7.616 133.437 7.408 132.541 7.408C131.629 7.408 130.829 7.624 130.141 8.056C129.453 8.488 128.917 9.088 128.533 9.856C128.165 10.608 127.981 11.472 127.981 12.448C127.981 13.424 128.189 14.288 128.605 15.04C129.037 15.792 129.621 16.384 130.357 16.816C131.093 17.248 131.941 17.464 132.901 17.464C133.477 17.464 134.053 17.368 134.629 17.176C135.221 16.968 135.693 16.712 136.045 16.408C136.221 16.264 136.421 16.192 136.645 16.192C136.869 16.176 137.061 16.232 137.221 16.36C137.429 16.552 137.533 16.76 137.533 16.984C137.549 17.208 137.461 17.4 137.269 17.56C136.741 18.008 136.069 18.384 135.253 18.688C134.437 18.976 133.653 19.12 132.901 19.12ZM144.523 19C143.883 19 143.307 18.824 142.795 18.472C142.299 18.12 141.907 17.632 141.619 17.008C141.347 16.384 141.211 15.664 141.211 14.848V1.168C141.211 0.895999 141.291 0.679999 141.451 0.519999C141.627 0.343999 141.851 0.256 142.123 0.256C142.395 0.256 142.611 0.343999 142.771 0.519999C142.947 0.679999 143.035 0.895999 143.035 1.168V14.848C143.035 15.536 143.171 16.096 143.443 16.528C143.731 16.96 144.091 17.176 144.523 17.176H145.123C145.363 17.176 145.555 17.264 145.699 17.44C145.843 17.6 145.915 17.816 145.915 18.088C145.915 18.36 145.811 18.584 145.603 18.76C145.411 18.92 145.155 19 144.835 19H144.523Z" fill="#0B141D"/>
</svg>
