<svg width="176" height="176" viewBox="0 0 176 176" fill="none" xmlns="http://www.w3.org/2000/svg">
<path d="M147 122.224V125.816C147 129.784 141.581 133 134.897 133H42.1034C35.4189 133 30 129.784 30 125.816V122.224C30 121.562 30.9031 121.026 32.0172 121.026H144.983C146.097 121.026 147 121.562 147 122.224Z" fill="#2B69DD"/>
<path d="M68.1875 120.812H108.812V123.088C108.812 124.972 106.084 126.5 102.719 126.5H74.2812C70.9158 126.5 68.1875 124.972 68.1875 123.088V120.812Z" fill="#75ACFE"/>
<path d="M39.75 127.312C38.8525 127.312 38.125 126.585 38.125 125.688C38.125 124.79 38.8525 124.062 39.75 124.062C40.6475 124.062 41.375 124.79 41.375 125.688C41.375 126.585 40.6475 127.312 39.75 127.312Z" fill="#FBAC00"/>
<path d="M46.25 127.312C45.3525 127.312 44.625 126.585 44.625 125.688C44.625 124.79 45.3525 124.062 46.25 124.062C47.1475 124.062 47.875 124.79 47.875 125.688C47.875 126.585 47.1475 127.312 46.25 127.312Z" fill="#E64C3C"/>
<path d="M58.1125 127.312H52.2625C51.1855 127.312 50.3125 126.585 50.3125 125.688C50.3125 124.79 51.1855 124.062 52.2625 124.062H58.1125C59.1895 124.062 60.0625 124.79 60.0625 125.688C60.0625 126.585 59.1895 127.312 58.1125 127.312Z" fill="#75ACFE"/>
<path d="M142.993 49.3513V121.026H34.0067V49.3513C34.0067 45.2913 37.6211 42 42.0798 42H134.92C139.379 42 142.993 45.2913 142.993 49.3513Z" fill="#2B69DD"/>
<path d="M133.377 49.9824C121.151 50.3845 43.4913 55.069 42.0363 114.64C42.0151 114.534 42.0151 114.425 42.0363 114.319V51.9929C42.0363 50.8826 42.9411 49.9824 44.0571 49.9824H132.972H133.377Z" fill="#75ACFE"/>
<path d="M134.979 51.9901V114.229C134.979 115.338 134.074 116.237 132.958 116.237H44.0412C43.55 116.236 43.0759 116.058 42.7075 115.735C42.3617 115.453 42.12 115.064 42.0204 114.631C43.4754 55.0619 121.136 50.384 133.362 49.9824C133.704 50.0619 134.023 50.2201 134.292 50.4442C134.739 50.834 134.99 51.3995 134.979 51.9901Z" fill="#75ACFE"/>
<rect opacity="0.4" x="64.5734" y="87.1577" width="48.0822" height="1.82456" rx="0.912281" fill="#2B69DD"/>
<path fill-rule="evenodd" clip-rule="evenodd" d="M105.865 79.1389C108.224 88.5658 102.465 98.1131 93.0015 100.463C83.5376 102.814 73.953 97.0773 71.5934 87.6504C69.2338 78.2234 74.9928 68.6762 84.4567 66.3258C93.9205 63.9754 103.505 69.712 105.865 79.1389Z" fill="#FFC246"/>
<path fill-rule="evenodd" clip-rule="evenodd" d="M95.8161 79.1588C95.5703 76.6734 93.4316 75.8281 90.7247 75.5828L90.7189 72.1431L88.5843 72.1342L88.5846 75.5064L86.9226 75.5177L86.9089 72.1373L84.8199 72.1285L84.8256 75.5682L80.6102 75.5828L80.6569 77.8194C80.6569 77.8194 82.2007 77.7915 82.1739 77.8211C82.7495 77.7666 83.2719 78.1665 83.373 78.7392L83.4585 88.1924C83.4476 88.3899 83.359 88.5746 83.2121 88.7057C83.0653 88.8368 82.8723 88.9037 82.6757 88.8915L81.0486 88.9056L80.6393 91.416L83.3673 91.4267L84.8655 91.4446L84.8605 94.8869L86.9468 94.885L86.9411 91.4453L88.6435 91.5043L88.6492 94.9439L90.7489 94.9501L90.7404 91.4538C94.2628 91.2672 96.7208 90.3814 97.0187 87.0613C97.2613 84.3859 96.0456 83.1737 94.0123 82.7037C95.3461 82.0736 96.0866 80.6184 95.8161 79.1588ZM92.9072 86.6256C92.9116 89.2398 88.4431 88.8813 87.0416 88.9312L87.0339 84.345C88.4059 84.3139 92.8516 83.898 92.8643 86.6363L92.9072 86.6256ZM91.9109 80.0941C91.9229 82.4654 88.1983 82.1632 87.0277 82.1786L86.9723 77.9942C88.1591 77.9977 91.8639 77.6282 91.868 80.1047L91.9109 80.0941Z" fill="white"/>
<rect x="63.8865" y="88.5264" width="49.456" height="1.82456" rx="0.912281" fill="#2B69DD"/>
<rect x="69.1528" y="90.3506" width="36.4051" height="16.4211" fill="#75ACFE"/>
<rect x="82.2036" y="57.7368" width="1.8317" height="7.07018" rx="0.915851" fill="#2B69DD"/>
<rect x="87.6986" y="52.2632" width="1.8317" height="10.9474" rx="0.915851" fill="#2B69DD"/>
<rect x="93.1936" y="54.0879" width="1.8317" height="3.64912" rx="0.915851" fill="#2B69DD"/>
<g clip-path="url(#clip0)">
<g filter="url(#filter0_d)">
<path fill-rule="evenodd" clip-rule="evenodd" d="M88.6144 110.649C92.7873 110.649 96.1701 107.28 96.1701 103.123C96.1701 98.9663 92.7873 95.5967 88.6144 95.5967C84.4414 95.5967 81.0586 98.9663 81.0586 103.123C81.0586 107.28 84.4414 110.649 88.6144 110.649Z" fill="#098B50"/>
<path d="M91.164 100.799C91.3766 100.564 91.7335 100.552 91.9613 100.771C92.1891 100.989 92.2014 101.357 91.9888 101.592L88.0397 105.949C87.8334 106.177 87.4896 106.196 87.2601 105.994L85.2855 104.251C85.049 104.042 85.0216 103.675 85.2243 103.432C85.4271 103.188 85.7833 103.16 86.0198 103.369L87.5838 104.749L91.164 100.799Z" fill="white"/>
</g>
</g>
<defs>
<filter id="filter0_d" x="77.0586" y="92.5967" width="23.1115" height="23.0526" filterUnits="userSpaceOnUse" color-interpolation-filters="sRGB">
<feFlood flood-opacity="0" result="BackgroundImageFix"/>
<feColorMatrix in="SourceAlpha" type="matrix" values="0 0 0 0 0 0 0 0 0 0 0 0 0 0 0 0 0 0 127 0"/>
<feOffset dy="1"/>
<feGaussianBlur stdDeviation="2"/>
<feColorMatrix type="matrix" values="0 0 0 0 0.2 0 0 0 0 0.2 0 0 0 0 0.2 0 0 0 0.25 0"/>
<feBlend mode="normal" in2="BackgroundImageFix" result="effect1_dropShadow"/>
<feBlend mode="normal" in="SourceGraphic" in2="effect1_dropShadow" result="shape"/>
</filter>
<clipPath id="clip0">
<rect width="20.1487" height="20.0702" fill="white" transform="translate(78.54 93.0879)"/>
</clipPath>
</defs>
</svg>
