<svg width="176" height="176" viewBox="0 0 176 176" fill="none" xmlns="http://www.w3.org/2000/svg">
<path d="M142 47.5486V64.3748H121.958V47.5486C121.949 41.7322 126.42 37.0093 131.945 37H131.995C137.514 37 141.99 41.7053 142 47.5151V47.5486Z" fill="#2B69DD"/>
<path d="M59.8883 37H131.945C126.42 37.0093 121.949 41.7322 121.959 47.5486V124.84C121.95 132.663 115.923 139 108.491 139H108.45C108.139 139 107.831 138.988 107.524 138.965C100.464 138.445 94.9903 132.26 94.9982 124.809V115.644H49.8674V115.517L50.3436 46.9211C50.3436 41.3962 54.6398 37 59.8883 37ZM99.1559 70.5411V56.9823L84.9545 49.639L70.7556 56.9609V70.5411C70.7556 74.0155 72.8931 78.2715 75.6223 80.232L84.9545 86.9302L94.2866 80.232C97.0158 78.2715 99.1559 74.0155 99.1559 70.5411Z" fill="#87B645"/>
<path d="M107.524 138.965L107.522 139H47.4678C40.036 139 34.0088 132.663 34 124.84V115.644H94.998V124.809C94.9901 132.26 100.463 138.445 107.524 138.965Z" fill="#2B69DD"/>
<path d="M99.1558 56.982V70.5408C99.1558 74.0153 97.0157 78.2712 94.2865 80.2317L84.9543 86.9299L75.6222 80.2317C72.893 78.2712 70.7555 74.0153 70.7555 70.5408V56.9607L84.9543 49.6387L99.1558 56.982Z" fill="#2B69DD"/>
<path d="M107.414 97.7425H64.0713C63.074 97.7425 62.2654 96.8922 62.2654 95.8415C62.2654 94.7916 63.074 93.9404 64.0713 93.9404H107.414C108.411 93.9404 109.22 94.7916 109.22 95.8415C109.22 96.8922 108.411 97.7425 107.414 97.7425Z" fill="#2B69DD"/>
<path d="M107.414 106.535H64.0713C63.074 106.535 62.2654 105.684 62.2654 104.633C62.2654 103.584 63.074 102.732 64.0713 102.732H107.414C108.411 102.732 109.22 103.584 109.22 104.633C109.22 105.684 108.411 106.535 107.414 106.535Z" fill="#2B69DD"/>
<path d="M83.1802 73.968H83.1758C82.6952 73.9662 82.2349 73.7638 81.8972 73.4046L78.2624 69.5403C77.8012 69.0595 77.6204 68.355 77.7897 67.694C77.959 67.0341 78.452 66.5207 79.0807 66.349C79.7094 66.1773 80.3769 66.375 80.8293 66.8651L83.1873 69.3714L89.0892 63.1614C89.7946 62.4188 90.9383 62.4188 91.6429 63.1614C92.3483 63.904 92.3483 65.107 91.6429 65.8496L84.4579 73.4111C84.1184 73.7675 83.659 73.968 83.1802 73.968Z" fill="#FBAC00"/>
</svg>
