<svg width="73" height="73" viewBox="0 0 73 73" fill="none" xmlns="http://www.w3.org/2000/svg">
<path d="M36.5 73C16.3731 73 0 56.6269 0 36.5C0 16.3731 16.3731 0 36.5 0C56.6269 0 73 16.3731 73 36.5C73 56.6269 56.6269 73 36.5 73ZM36.5 4.5625C18.8888 4.5625 4.5625 18.8888 4.5625 36.5C4.5625 54.1112 18.8888 68.4375 36.5 68.4375C54.1112 68.4375 68.4375 54.1112 68.4375 36.5C68.4375 18.8888 54.1112 4.5625 36.5 4.5625Z" fill="white"/>
<path d="M52.4688 38.7812H20.5312C19.272 38.7812 18.25 37.7593 18.25 36.5C18.25 35.2407 19.272 34.2188 20.5312 34.2188H52.4688C53.728 34.2188 54.75 35.2407 54.75 36.5C54.75 37.7593 53.728 38.7812 52.4688 38.7812Z" fill="white"/>
<path d="M36.5 54.75C35.2407 54.75 34.2188 53.728 34.2188 52.4688V20.5312C34.2188 19.272 35.2407 18.25 36.5 18.25C37.7593 18.25 38.7812 19.272 38.7812 20.5312V52.4688C38.7812 53.728 37.7593 54.75 36.5 54.75Z" fill="white"/>
</svg>
