<svg width="77" height="77" viewBox="0 0 77 77" fill="none" xmlns="http://www.w3.org/2000/svg">
<g clip-path="url(#clip0_73:540)">
<path d="M66.6362 43.4445C67.5259 40.3843 67.9771 37.2123 67.9771 33.9875C67.9771 15.2825 52.6929 0 33.9895 0C15.2845 0 0.00195312 15.2842 0.00195312 33.9875C0.00195312 52.6454 15.2487 67.8247 33.9895 67.8247C38.6505 67.8247 43.2561 66.8843 47.4541 65.0964C49.9506 70.5007 54.5884 74.7931 60.4963 76.7622L61.2096 77L61.9229 76.7622C70.9412 73.7563 77.0003 65.3376 77.0003 55.8134V45.2666H74.7445C71.6585 45.2666 68.8052 44.3859 66.6362 43.4445ZM45.4189 45.2666V55.8134C45.4189 57.5256 45.6158 59.2018 45.9894 60.8174C42.2686 62.4538 38.1572 63.3131 33.9895 63.3131C17.7364 63.3131 4.51358 50.1577 4.51358 33.9875C4.51358 17.7344 17.7364 4.51162 33.9895 4.51162C50.2426 4.51162 63.4654 17.7344 63.4654 33.9875C63.4654 36.4429 63.1633 38.8618 62.5685 41.2099C62.5643 41.2067 61.2119 40.2062 61.2119 40.2062L59.8667 41.1985C59.8113 41.2391 54.2742 45.2666 47.6748 45.2666H45.4189ZM72.4887 55.8134C72.4887 63.1386 67.9871 69.6412 61.2096 72.2273C54.4321 69.6412 49.9306 63.1386 49.9306 55.8134V49.6587C54.9867 49.1284 59.1644 46.9598 61.2096 45.711C63.2549 46.9598 67.4325 49.1284 72.4887 49.6587V55.8134Z" fill="white"/>
<path d="M60.2579 51.3279C57.4201 52.6471 55.4785 53.1136 54.4414 53.4617V55.8142C54.4414 60.0379 56.4819 64.0136 59.8997 66.4492L61.2088 67.382L62.518 66.4492C65.9358 64.0136 67.9763 60.038 67.9763 55.8142V53.4617C66.9742 53.1253 65.0412 52.6672 62.1597 51.3279L61.2088 50.8857L60.2579 51.3279ZM63.4164 56.7256C63.221 58.5614 62.4408 60.2789 61.2088 61.6189C59.977 60.2789 59.1967 58.5612 59.0013 56.7256C59.7387 56.4577 60.476 56.1642 61.2088 55.8463C61.9418 56.1642 62.679 56.4577 63.4164 56.7256Z" fill="white"/>
<path d="M31.7324 9.02332H36.2441V13.535H31.7324V9.02332Z" fill="white"/>
<path d="M31.7324 54.2899H36.2441V58.8016H31.7324V54.2899Z" fill="white"/>
<path d="M9.02344 31.7317H13.5352V36.2434H9.02344V31.7317Z" fill="white"/>
<path d="M54.4414 31.7317H58.9531V36.2434H54.4414V31.7317Z" fill="white"/>
<path d="M36.2453 18.0465H31.7337V33.0532L23.3711 41.4157L26.5613 44.606L34.9238 36.2434H45.4189V31.7318H36.2453V18.0465Z" fill="white"/>
</g>
<defs>
<clipPath id="clip0_73:540">
<rect width="77" height="77" fill="white"/>
</clipPath>
</defs>
</svg>
