<svg width="95" height="95" viewBox="0 0 95 95" fill="none" xmlns="http://www.w3.org/2000/svg">
<path d="M32.6562 61.1094H36.8623C36.9397 64.4629 38.5718 67.4293 41.0674 69.3319C35.1106 71.847 30.9219 77.7454 30.9219 84.6094V90.5469C30.9219 91.5014 31.7018 92.2812 32.6562 92.2812H62.3438C63.2982 92.2812 64.0781 91.5014 64.0781 90.5469V84.6094C64.0781 77.7454 59.8894 71.847 53.9326 69.3319C56.49 67.3822 58.1406 64.3152 58.1406 60.8594C58.1406 54.9916 53.3678 50.2188 47.5 50.2188C42.7465 50.2188 38.7185 53.3397 37.3551 57.6406H32.6562H32.4062V57.8906V60.8594V61.1094H32.6562ZM47.5 53.6875C50.3012 53.6875 52.7266 55.3022 53.9176 57.6406H41.0824C42.2734 55.3022 44.6988 53.6875 47.5 53.6875ZM54.6676 61.1094C54.5357 64.9526 51.3751 68.0312 47.5 68.0312C43.6249 68.0312 40.4643 64.9526 40.3324 61.1094H54.6676ZM34.3906 88.8125V84.6094C34.3906 77.3849 40.2756 71.5 47.5 71.5C54.7244 71.5 60.6094 77.3849 60.6094 84.6094V88.8125H34.3906Z" fill="white" stroke="white" stroke-width="0.5"/>
<path d="M25.898 52.0715L25.8988 52.0712C26.5456 51.8024 26.9688 51.1696 26.9688 50.4688V41.8125H34.1406C38.3711 41.8125 41.8125 38.3711 41.8125 34.1406V10.3906C41.8125 6.16013 38.3711 2.71875 34.1406 2.71875H10.3906C6.16013 2.71875 2.71875 6.16013 2.71875 10.3906V34.1406C2.71875 38.3711 6.16013 41.8125 10.3906 41.8125H14.1257L24.0081 51.695C24.3394 52.0263 24.7834 52.2031 25.2344 52.2031C25.4582 52.2031 25.6835 52.1597 25.898 52.0715ZM6.1875 10.3906C6.1875 8.07354 8.07354 6.1875 10.3906 6.1875H34.1406C36.4577 6.1875 38.3438 8.07354 38.3438 10.3906V34.1406C38.3438 36.4577 36.4577 38.3438 34.1406 38.3438H25.2344C24.2769 38.3438 23.5 39.1207 23.5 40.0781V46.2819L16.0705 38.8524C16.0703 38.8522 16.0702 38.8521 16.0701 38.852C15.7452 38.5255 15.3028 38.3438 14.8438 38.3438H10.3906C8.07354 38.3438 6.1875 36.4577 6.1875 34.1406V10.3906Z" fill="white" stroke="white" stroke-width="0.5"/>
<path d="M69.1012 52.0712L69.102 52.0715C69.3165 52.1597 69.5418 52.2031 69.7656 52.2031C70.2166 52.2031 70.6606 52.0263 70.9919 51.695L80.8743 41.8125H84.6094C88.8399 41.8125 92.2812 38.3711 92.2812 34.1406V10.3906C92.2812 6.16013 88.8399 2.71875 84.6094 2.71875H60.8594C56.6289 2.71875 53.1875 6.16013 53.1875 10.3906V34.1406C53.1875 38.3711 56.6289 41.8125 60.8594 41.8125H68.0312V50.4688C68.0312 51.1696 68.4544 51.8024 69.1012 52.0712ZM56.6562 10.3906C56.6562 8.07354 58.5423 6.1875 60.8594 6.1875H84.6094C86.9265 6.1875 88.8125 8.07354 88.8125 10.3906V34.1406C88.8125 36.4577 86.9265 38.3438 84.6094 38.3438H80.1562C79.6972 38.3438 79.2548 38.5255 78.9299 38.852C78.9298 38.8521 78.9297 38.8522 78.9295 38.8524L71.5 46.2819V40.0781C71.5 39.1207 70.7231 38.3438 69.7656 38.3438H60.8594C58.5423 38.3438 56.6562 36.4577 56.6562 34.1406V10.3906Z" fill="white" stroke="white" stroke-width="0.5"/>
<path d="M11.8367 28.8567L11.8367 28.8568C11.5436 29.3943 11.5557 30.0464 11.8679 30.5721C12.1802 31.0994 12.7474 31.4219 13.3594 31.4219H31.1719C31.7841 31.4219 32.3513 31.0993 32.6636 30.5719C32.9757 30.0463 32.9877 29.3943 32.6947 28.8568L32.6947 28.8567L23.7884 12.5286L23.7884 12.5286C23.4746 11.9536 22.8568 11.6825 22.2657 11.6825C21.6746 11.6825 21.0568 11.9536 20.743 12.5286L20.7429 12.5286L11.8367 28.8567ZM16.2817 27.9531L22.2657 16.9808L28.2511 27.9531H16.2817Z" fill="white" stroke="white" stroke-width="0.5"/>
<path d="M62.0938 22.2656C62.0938 28.1334 66.8666 32.9062 72.7344 32.9062C78.6021 32.9062 83.375 28.1334 83.375 22.2656C83.375 16.3979 78.6021 11.625 72.7344 11.625C66.8666 11.625 62.0938 16.3979 62.0938 22.2656ZM65.5625 22.2656C65.5625 18.3113 68.78 15.0938 72.7344 15.0938C76.6887 15.0938 79.9062 18.3113 79.9062 22.2656C79.9062 26.22 76.6887 29.4375 72.7344 29.4375C68.78 29.4375 65.5625 26.22 65.5625 22.2656Z" fill="white" stroke="white" stroke-width="0.5"/>
</svg>
