<svg width="82" height="82" viewBox="0 0 82 82" fill="none" xmlns="http://www.w3.org/2000/svg">
<g clip-path="url(#clip0_73:363)">
<path d="M43.4965 35.1049L41.5673 37.0341C41.4489 36.9787 41.3295 36.925 41.2071 36.8755C38.5181 35.7865 35.4548 36.4084 33.4032 38.4598C30.5932 41.2697 30.5932 45.842 33.4032 48.652C34.3399 49.5887 34.3399 51.1128 33.4032 52.0495C32.6913 52.7613 31.6006 52.9541 30.6888 52.5294C29.4982 51.9746 28.9138 50.5277 29.0849 48.5599C29.1999 47.2381 28.2216 46.0733 26.8999 45.9583C25.5784 45.8433 24.4133 46.8216 24.2983 48.1433C24.1247 50.1381 24.4357 51.9443 25.1659 53.4354L23.1118 55.4894C22.1737 56.4276 22.1737 57.9486 23.1118 58.8868C24.0499 59.825 25.5711 59.8251 26.5092 58.8868L28.5604 56.8357C28.5935 56.8517 28.6259 56.8688 28.6593 56.8843C29.628 57.3357 30.6634 57.5549 31.6922 57.5548C33.5686 57.5546 35.4221 56.8254 36.8006 55.4469C39.6107 52.637 39.6107 48.0647 36.8006 45.2546C35.864 44.3178 35.864 42.7938 36.8006 41.8572C37.4849 41.173 38.5066 40.9656 39.4034 41.329C40.4859 41.7673 41.1217 42.9527 41.1474 44.5811C41.1684 45.9077 42.2563 46.9679 43.5873 46.9452C44.9139 46.9242 45.9724 45.8318 45.9514 44.5052C45.9272 42.9793 45.5931 41.5881 44.9951 40.4011L46.8936 38.5026C47.8318 37.5644 47.8318 36.0434 46.8936 35.1052C45.9557 34.1667 44.4346 34.1667 43.4965 35.1049Z" fill="white"/>
<path d="M69.9882 0C64.2693 0 59.3533 4.02985 58.2201 9.60938H41.1601C40.5228 9.60938 39.912 9.86258 39.4615 10.3131L0.703646 49.0709C-0.234549 50.0091 -0.234549 51.5301 0.703646 52.4683L29.5318 81.2964C30.4698 82.2346 31.991 82.2348 32.9292 81.2964L71.687 42.5386C72.1375 42.0879 72.3905 41.4771 72.3905 40.8398V23.7818C77.8666 22.6658 81.9999 17.8126 81.9999 12.0117C81.9999 5.38846 76.6115 0 69.9882 0V0ZM57.2728 28.1244C56.336 29.0613 54.8121 29.061 53.8754 28.1244C52.9365 27.1854 52.9364 25.666 53.8754 24.727C54.8118 23.7904 56.3362 23.7903 57.2728 24.727C58.2118 25.666 58.2118 27.1854 57.2728 28.1244ZM67.5859 39.8448L31.2304 76.2003L5.79966 50.7695L42.1551 14.4141H57.6089L57.001 19.3648C54.7144 18.9064 52.2471 19.5607 50.478 21.3298C47.6679 24.1397 47.6679 28.712 50.478 31.5221C53.2879 34.3319 57.8601 34.3321 60.6702 31.5221C63.1763 29.0161 63.4453 25.1093 61.4813 22.3L62.4496 14.4141H67.5859V39.8448ZM72.3905 18.8055V12.0117C72.3905 10.685 71.3149 9.60938 69.9882 9.60938H63.1912C64.1905 6.76996 66.8933 4.80469 69.9882 4.80469C73.9622 4.80469 77.1952 8.03776 77.1952 12.0117C77.1952 15.1436 75.1867 17.8139 72.3905 18.8055Z" fill="white"/>
</g>
<defs>
<clipPath id="clip0_73:363">
<rect width="82" height="82" fill="white"/>
</clipPath>
</defs>
</svg>
