<svg width="59" height="59" viewBox="0 0 59 59" fill="none" xmlns="http://www.w3.org/2000/svg">
<g clip-path="url(#clip0_189:80)">
<path d="M55.4519 18.7033C56.6269 12.9004 52.5091 7.44395 46.7651 6.82668C43.7631 -0.260347 34.0731 -1.45014 29.5019 4.93022C24.9325 -1.4477 15.2422 -0.263718 12.2387 6.82668C6.49117 7.44442 2.37764 12.9043 3.55185 18.7033C-0.729427 22.291 -1.17198 28.6848 2.42751 32.8308C-3.53599 40.8617 2.13212 52.567 12.42 52.567C15.7052 59.4203 25.0844 60.233 29.5018 54.0673C33.9228 60.2381 43.3016 59.4137 46.5835 52.567C56.8457 52.5898 62.5411 40.8639 56.576 32.8308C60.1803 28.6796 59.7278 22.2865 55.4519 18.7033ZM21.1697 54.4606C15.9722 54.4606 12.9731 48.3538 16.3599 44.2555C17.0143 43.4636 16.9029 42.2913 16.111 41.6369C15.3191 40.9826 14.1469 41.0941 13.4925 41.8859C11.9288 43.778 11.0964 46.2284 11.2279 48.7387C4.1754 47.9891 1.03416 39.5568 5.69627 34.3585C5.7473 34.4162 7.49589 31.9165 11.2267 31.5191C11.1654 32.7239 11.3228 33.942 11.7088 35.1229C11.9653 35.9074 12.6935 36.4054 13.4764 36.4054C14.7366 36.4054 15.6384 35.1716 15.2446 33.967C14.1763 30.6987 15.9659 27.1704 19.2342 26.1021C20.2106 25.7829 20.7433 24.7327 20.4241 23.7563C20.1049 22.7798 19.0551 22.2467 18.0782 22.5664C17.6525 22.7055 17.2416 22.8734 16.8446 23.064C16.1036 21.1664 16.6148 18.9248 18.2672 17.5556C19.0581 16.9001 19.168 15.7276 18.5125 14.9367C17.8571 14.1457 16.6846 14.036 15.8936 14.6913C12.6723 17.3607 11.9269 21.8478 13.7996 25.3362C12.5451 26.7222 12.2538 27.7497 12.1489 27.7497C9.41898 27.7497 6.89292 28.6384 4.84394 30.1412C2.56131 27.2833 3.21148 22.9765 6.43293 20.9675C7.17505 20.5047 7.4945 19.5874 7.20028 18.7637C5.8339 14.9374 8.41111 10.437 13.3445 10.437C14.1854 10.437 14.9254 9.87097 15.142 9.05328C15.8647 6.32449 18.3433 4.41873 21.1696 4.41873C24.6081 4.41873 27.4056 7.21611 27.4056 10.6547V48.2246C27.4056 51.6632 24.6082 54.4606 21.1697 54.4606ZM53.6869 30.1413C51.4686 28.5144 48.7784 27.7062 46.3459 27.7516C45.9245 26.8681 45.4042 26.0796 44.7313 25.3362C46.6026 21.8506 45.8615 17.363 42.6374 14.6913C41.8461 14.0359 40.6737 14.1457 40.0184 14.9367C39.363 15.7277 39.473 16.9002 40.2638 17.5556C41.9162 18.9247 42.4276 21.1664 41.6864 23.064C41.2893 22.8734 40.8784 22.7055 40.4527 22.5664C39.4763 22.2469 38.4261 22.7799 38.1069 23.7563C37.7877 24.7326 38.3204 25.7829 39.2968 26.1021C42.5651 27.1704 44.3548 30.6987 43.2864 33.967C42.9672 34.9433 43.4999 35.9936 44.4763 36.3128C45.4473 36.6303 46.5013 36.1043 46.8222 35.1229C47.2082 33.9419 47.3657 32.7238 47.3042 31.519C51.6747 31.9846 55.0412 35.7009 55.0412 40.1287C55.0412 44.5922 51.6462 48.277 47.3031 48.7384C47.4344 46.2379 46.6084 43.785 45.0386 41.8856C44.3843 41.0936 43.2119 40.9824 42.4201 41.6366C41.6282 42.2911 41.5168 43.4635 42.1712 44.2552C45.5518 48.3461 42.5615 54.4604 37.3614 54.4604C33.9229 54.4604 31.1254 51.663 31.1254 48.2244V10.6547C31.1254 7.21622 33.9228 4.41873 37.3614 4.41873C40.1877 4.41873 42.6663 6.3246 43.389 9.05328C43.611 9.89096 44.3789 10.4664 45.2481 10.436C49.6047 10.2759 52.8158 14.6051 51.3307 18.7638C51.0365 19.5875 51.3559 20.5048 52.0981 20.9676C55.3228 22.9786 55.967 27.2868 53.6869 30.1413Z" fill="#5D3DE3"/>
</g>
<defs>
<clipPath id="clip0_189:80">
<rect width="59" height="59" fill="white"/>
</clipPath>
</defs>
</svg>
