<svg width="49" height="49" viewBox="0 0 49 49" fill="none" xmlns="http://www.w3.org/2000/svg">
<path d="M4.439 0V6.48111H1.91406V9.34665H4.439V14.7742H1.91406V17.6397H4.439V23.0672H1.91406V25.9328H4.439V31.3603H1.91406V34.2258H4.439V39.6533H1.91406V42.5189H4.439V49H47.0859V0H4.439ZM44.2148 46.1345H7.31009V42.5188H9.83493V39.6533H7.31009V34.2257H9.83493V31.3602H7.31009V25.9327H9.83493V23.0671H7.31009V17.6396H9.83493V14.7741H7.31009V9.34665H9.83493V6.48111H7.31009V2.86545H44.2148V46.1345Z" fill="#5D3DE3"/>
<path d="M29.5918 11.179H38.9022V14.0445H29.5918V11.179Z" fill="#5D3DE3"/>
<path d="M29.5918 23.0754H38.9022V25.941H29.5918V23.0754Z" fill="#5D3DE3"/>
<path d="M29.5918 35.9108H38.9022V38.7763H29.5918V35.9108Z" fill="#5D3DE3"/>
<path d="M25.1907 9.93553L23.1606 7.9093L18.5172 12.5436L16.3681 10.3987L14.3379 12.4249L18.5172 16.596L25.1907 9.93553Z" fill="#5D3DE3"/>
<path d="M25.1907 22.008L23.1606 19.9818L18.5172 24.6161L16.3681 22.4712L14.3379 24.4975L18.5172 28.6685L25.1907 22.008Z" fill="#5D3DE3"/>
<path d="M25.1907 34.0807L23.1606 32.0546L18.5172 36.6888L16.368 34.5439L14.3379 36.5701L18.5172 40.7411L25.1907 34.0807Z" fill="#5D3DE3"/>
</svg>
