<svg width="59" height="59" viewBox="0 0 59 59" fill="none" xmlns="http://www.w3.org/2000/svg">
<g clip-path="url(#clip0_189:61)">
<path d="M31.2292 28.6434V27.7563C31.2292 26.8017 30.4553 26.0278 29.5007 26.0278C28.5461 26.0278 27.7722 26.8017 27.7722 27.7563V28.3469H26.0293C25.0747 28.3469 24.3008 29.1208 24.3008 30.0754V43.9612C24.3008 44.9158 25.0747 45.6897 26.0293 45.6897H27.7722V46.2803C27.7722 47.2349 28.5461 48.0088 29.5007 48.0088C30.4553 48.0088 31.2292 47.2349 31.2292 46.2803V45.3932C33.2492 44.679 34.7007 42.7512 34.7007 40.4898C34.7007 39.1567 34.196 37.9396 33.3682 37.0183C34.196 36.097 34.7007 34.8799 34.7007 33.5469C34.7007 31.2854 33.2492 29.3575 31.2292 28.6434ZM27.7578 31.8038H29.5007C30.4618 31.8038 31.2437 32.5857 31.2437 33.5468C31.2437 34.5078 30.4618 35.2897 29.5007 35.2897H27.7578V31.8038ZM29.5007 42.2326H27.7578V38.7467H29.5007C30.4618 38.7467 31.2437 39.5286 31.2437 40.4896C31.2437 41.4507 30.4618 42.2326 29.5007 42.2326Z" fill="#5D3DE3"/>
<path d="M58.6767 36.0117C58.5449 35.8276 55.3897 31.4538 50.2671 27.0305C47.2371 24.414 44.1428 22.3242 41.0702 20.8194C37.1571 18.9026 33.2642 17.9308 29.5 17.9308C25.7357 17.9308 21.8429 18.9027 17.9297 20.8194C14.8571 22.3243 11.7629 24.414 8.73289 27.0305C3.61038 31.4538 0.455032 35.8276 0.323319 36.0117C-0.107773 36.6136 -0.107773 37.423 0.323319 38.0248C0.455147 38.2089 3.61038 42.5828 8.73301 47.0059C11.763 49.6224 14.8573 51.7122 17.9299 53.2172C21.843 55.1339 25.7358 56.1056 29.5001 56.1056C33.2643 56.1056 37.1572 55.1337 41.0703 53.2172C44.1428 51.7121 47.2372 49.6224 50.2672 47.0059C55.3897 42.5826 58.545 38.2088 58.6769 38.0248C59.1078 37.423 59.1078 36.6136 58.6767 36.0117ZM29.5 52.6487C20.8812 52.6487 13.8694 45.6368 13.8694 37.0182C13.8694 28.3995 20.8812 21.3876 29.5 21.3876C38.1187 21.3876 45.1306 28.3995 45.1306 37.0182C45.1306 45.6368 38.1187 52.6487 29.5 52.6487ZM3.90711 37.0182C5.10635 35.5124 7.63563 32.5365 11.0503 29.5969C11.4933 29.2155 11.9638 28.8263 12.4545 28.4354C11.1492 31.0171 10.4122 33.933 10.4122 37.0183C10.4122 40.1042 11.1494 43.0207 12.4552 45.6028C11.9637 45.2114 11.4939 44.8218 11.0501 44.4398C7.6354 41.4997 5.10612 38.5236 3.90711 37.0182ZM47.9497 44.4396C47.5059 44.8216 47.0366 45.2113 46.5451 45.6027C47.8508 43.0207 48.5876 40.1041 48.5876 37.0182C48.5876 33.9328 47.8515 31.0162 46.546 28.4344C47.0371 28.8257 47.5061 29.215 47.9496 29.5968C51.3642 32.5365 53.8935 35.5123 55.0927 37.0181C53.8936 38.5241 51.3643 41.4999 47.9497 44.4396Z" fill="#5D3DE3"/>
<path d="M29.5 13.2943C30.4546 13.2943 31.2285 12.5204 31.2285 11.5658V4.62292C31.2285 3.66832 30.4546 2.89441 29.5 2.89441C28.5454 2.89441 27.7715 3.66832 27.7715 4.62292V11.5658C27.7715 12.5205 28.5454 13.2943 29.5 13.2943Z" fill="#5D3DE3"/>
<path d="M19.2932 13.8159C19.5912 14.4334 20.2082 14.7935 20.8511 14.7935C21.1031 14.7935 21.359 14.7382 21.6012 14.6213C22.461 14.2064 22.8215 13.1731 22.4066 12.3133L19.389 6.06038C18.9742 5.20073 17.9412 4.8397 17.0811 5.25501C16.2214 5.66985 15.8608 6.70316 16.2757 7.56292L19.2932 13.8159Z" fill="#5D3DE3"/>
<path d="M37.6553 14.6213C37.8975 14.7382 38.1533 14.7936 38.4054 14.7936C39.048 14.7936 39.6653 14.4334 39.9633 13.8159L42.9809 7.56294C43.3958 6.70318 43.0352 5.66975 42.1755 5.25503C41.3155 4.83972 40.2823 5.20064 39.8676 6.0604L36.85 12.3134C36.435 13.1731 36.7955 14.2064 37.6553 14.6213Z" fill="#5D3DE3"/>
</g>
<defs>
<clipPath id="clip0_189:61">
<rect width="59" height="59" fill="white"/>
</clipPath>
</defs>
</svg>
