<svg width="54" height="54" viewBox="0 0 54 54" fill="none" xmlns="http://www.w3.org/2000/svg">
<path d="M47.25 11.25V9C47.25 5.27728 44.2227 2.25 40.5 2.25H6.75C3.02728 2.25 0 5.27728 0 9V45C0 48.7227 3.02728 51.75 6.75 51.75H47.25C50.9727 51.75 54 48.7227 54 45V18C54 14.2773 50.9727 11.25 47.25 11.25ZM6.75 6.75H40.5C41.7409 6.75 42.75 7.75909 42.75 9V11.25H6.75C5.50909 11.25 4.5 10.2409 4.5 9C4.5 7.75909 5.50909 6.75 6.75 6.75ZM47.25 47.25H6.75C5.50909 47.25 4.5 46.2409 4.5 45V15.3644C5.20422 15.6138 5.96118 15.75 6.75 15.75H47.25C48.4909 15.75 49.5 16.7591 49.5 18V23.625H37.125C32.7827 23.625 29.25 27.1588 29.25 31.5C29.25 35.8412 32.7827 39.375 37.125 39.375H49.5V45C49.5 46.2409 48.4909 47.25 47.25 47.25ZM49.5 34.875H44.2348C44.7297 33.8297 45 32.686 45 31.5C45 30.2915 44.7177 29.15 44.2293 28.125H49.5V34.875ZM33.75 31.5C33.75 29.6395 35.2645 28.125 37.125 28.125C38.9855 28.125 40.5 29.6395 40.5 31.5C40.5 32.4009 40.1479 33.254 39.5244 33.8829C38.879 34.5229 38.0259 34.875 37.125 34.875C35.2645 34.875 33.75 33.3605 33.75 31.5Z" fill="#5D3DE3"/>
</svg>
