<svg width="54" height="54" viewBox="0 0 54 54" fill="none" xmlns="http://www.w3.org/2000/svg">
<path d="M52.4279 9.59807C52.4246 9.59807 52.4213 9.59766 52.418 9.59766H38.0742V8.01562C38.0742 5.39868 35.9451 3.26953 33.3281 3.26953H20.6719C18.0549 3.26953 15.9258 5.39868 15.9258 8.01562V9.59766H1.58203C0.701203 9.59766 0 10.3195 0 11.1797V45.9844C0 48.6013 2.12915 50.7305 4.74609 50.7305H49.2539C51.8708 50.7305 54 48.6013 54 45.9844V11.2131C54 11.211 54 11.2089 54 11.2069C53.9394 10.1678 53.3004 9.60384 52.4279 9.59807ZM19.0898 8.01562C19.0898 7.14345 19.7997 6.43359 20.6719 6.43359H33.3281C34.2003 6.43359 34.9102 7.14345 34.9102 8.01562V9.59766H19.0898V8.01562ZM50.2229 12.7617L45.31 27.5002C45.0945 28.1474 44.4913 28.582 43.8095 28.582H34.9102V27C34.9102 26.1262 34.202 25.418 33.3281 25.418H20.6719C19.798 25.418 19.0898 26.1262 19.0898 27V28.582H10.1905C9.50867 28.582 8.90552 28.1474 8.69005 27.5002L3.7771 12.7617H50.2229ZM31.7461 28.582V31.7461H22.2539V28.582H31.7461ZM50.8359 45.9844C50.8359 46.8566 50.1261 47.5664 49.2539 47.5664H4.74609C3.87392 47.5664 3.16406 46.8566 3.16406 45.9844V20.9285L5.68831 28.5009C6.33513 30.4422 8.14458 31.7461 10.1905 31.7461H19.0898V33.3281C19.0898 34.202 19.798 34.9102 20.6719 34.9102H33.3281C34.202 34.9102 34.9102 34.202 34.9102 33.3281V31.7461H43.8095C45.8554 31.7461 47.6649 30.4422 48.3117 28.5009L50.8359 20.9285V45.9844Z" fill="#5D3DE3"/>
</svg>
