<svg width="65" height="65" viewBox="0 0 65 65" fill="none" xmlns="http://www.w3.org/2000/svg">
<path d="M63.0957 11.9325C60.9624 11.9325 59.1602 10.1884 59.1602 8.1239C59.1602 7.07222 58.3075 6.2196 57.2559 6.2196H7.74414C6.69246 6.2196 5.83984 7.07222 5.83984 8.1239C5.83984 10.1884 4.03762 11.9325 1.9043 11.9325C0.852617 11.9325 0 12.7851 0 13.8368V45.0673C0 46.1189 0.852617 46.9716 1.9043 46.9716C4.03762 46.9716 5.83984 48.7156 5.83984 50.7801C5.83984 51.8318 6.69246 52.6844 7.74414 52.6844H37.7051V56.8739C37.7051 58.3521 39.3216 59.2675 40.5891 58.5068L44.6875 56.0478L48.7859 58.5068C50.0537 59.2675 51.6699 58.3519 51.6699 56.8739V52.6844H57.2559C58.3075 52.6844 59.1602 51.8318 59.1602 50.7801C59.1602 48.7156 60.9624 46.9716 63.0957 46.9716C64.1474 46.9716 65 46.1189 65 45.0673V13.8368C65 12.7851 64.1474 11.9325 63.0957 11.9325ZM44.6875 42.7821C41.2574 42.7821 38.4668 39.9915 38.4668 36.5614C38.4668 33.1313 41.2574 30.3407 44.6875 30.3407C48.1176 30.3407 50.9082 33.1313 50.9082 36.5614C50.9082 39.9915 48.1176 42.7821 44.6875 42.7821ZM47.8613 53.5105L45.6672 52.1941C45.0642 51.8323 44.3107 51.8323 43.7077 52.1941L41.5137 53.5105V46.073C43.5754 46.7628 45.7957 46.7641 47.8613 46.073V53.5105ZM61.1914 43.3987C58.5306 44.0708 56.314 46.1695 55.5981 48.8759H51.6699V43.751C53.5472 41.9273 54.7168 39.379 54.7168 36.5614C54.7168 31.0312 50.2177 26.5321 44.6875 26.5321C39.1573 26.5321 34.6582 31.0312 34.6582 36.5614C34.6582 39.379 35.8278 41.9273 37.7051 43.751V48.8759H9.40189C8.68613 46.1697 6.46966 44.0708 3.80859 43.3987V15.5053C6.4694 14.8332 8.68601 12.7346 9.40189 10.0282H55.5981C56.3139 12.7343 58.5303 14.8332 61.1914 15.5053V43.3987Z" fill="#5D3DE3"/>
<path d="M36.5625 14.3446H28.4375C27.3858 14.3446 26.5332 15.1972 26.5332 16.2489C26.5332 17.3006 27.3858 18.1532 28.4375 18.1532H36.5625C37.6142 18.1532 38.4668 17.3006 38.4668 16.2489C38.4668 15.1972 37.6142 14.3446 36.5625 14.3446Z" fill="#5D3DE3"/>
<path d="M22.013 37.8411L20.2898 39.5643C18.9926 38.5843 17.1213 38.67 15.9192 39.8724L14.2188 41.5728L12.5184 39.8724C11.7748 39.1288 10.569 39.1288 9.82535 39.8724C9.08166 40.6159 9.08166 41.8217 9.82535 42.5654L11.8566 44.5968C13.159 45.899 15.2782 45.8992 16.5808 44.5967L18.3043 42.8733C19.612 43.8582 21.4842 43.7557 22.6745 42.5654L24.7058 40.5342C25.4495 39.7906 25.4495 38.5848 24.7058 37.8411C23.9623 37.0976 22.7565 37.0976 22.013 37.8411Z" fill="#5D3DE3"/>
<path d="M17.3044 22.9989C16.3555 22.6632 14.8082 22.0994 14.0329 21.4914C13.9859 21.4545 13.8981 21.2335 13.9598 20.905C13.9895 20.7474 14.1258 20.221 14.6367 20.067C15.4256 19.828 16.1744 19.985 16.6657 20.3489C17.4412 21.0551 18.6423 21.0014 19.3515 20.2275C20.0598 19.4545 20.0094 18.2553 19.2408 17.5438C19.2408 17.5438 18.3585 16.7582 17.0968 16.3865V16.2299C17.0968 15.1782 16.2442 14.3256 15.1925 14.3256C14.1408 14.3256 13.2882 15.1782 13.2882 16.2299V16.5053C9.86529 17.7502 9.06041 22.4325 11.6828 24.4887C12.8774 25.4253 14.5845 26.0765 16.0337 26.5894C16.9777 26.9232 17.0736 27.6002 16.988 28.1094C16.8927 28.676 16.4045 29.6371 15.1797 29.6451C13.9099 29.6532 13.6086 29.6067 12.6819 29.0001C11.8017 28.4242 10.6217 28.6704 10.0456 29.5505C9.46958 30.4306 9.716 31.6109 10.596 32.1868C11.6084 32.8494 12.4102 33.1777 13.2881 33.3315V33.5147C13.2881 34.5663 14.1407 35.4189 15.1924 35.4189C16.2441 35.4189 17.0967 34.5663 17.0967 33.5147V33.1161C21.7104 31.4485 22.3226 24.7741 17.3044 22.9989Z" fill="#5D3DE3"/>
</svg>
