<svg width="72" height="72" viewBox="0 0 72 72" fill="none" xmlns="http://www.w3.org/2000/svg">
<circle cx="36" cy="36" r="36" fill="#A1DCDC"/>
<path d="M20.2 44V33.2H16.2V30H27.8V33.2H23.8V44H20.2ZM39.8816 42.3C38.6682 43.5667 37.0416 44.2 35.0016 44.2C32.9616 44.2 31.3349 43.5667 30.1216 42.3C28.9082 41.0333 28.3016 39.2667 28.3016 37C28.3016 34.7333 28.9082 32.9667 30.1216 31.7C31.3349 30.4333 32.9616 29.8 35.0016 29.8C37.0416 29.8 38.6682 30.4333 39.8816 31.7C41.0949 32.9667 41.7016 34.7333 41.7016 37C41.7016 39.2667 41.0949 41.0333 39.8816 42.3ZM32.7016 39.94C33.2482 40.6467 34.0149 41 35.0016 41C35.9882 41 36.7482 40.6467 37.2816 39.94C37.8282 39.2333 38.1016 38.2533 38.1016 37C38.1016 35.7467 37.8282 34.7667 37.2816 34.06C36.7482 33.3533 35.9882 33 35.0016 33C34.0149 33 33.2482 33.3533 32.7016 34.06C32.1682 34.7667 31.9016 35.7467 31.9016 37C31.9016 38.2533 32.1682 39.2333 32.7016 39.94ZM43.7063 44V30H49.7063C51.2129 30 52.4396 30.4667 53.3863 31.4C54.3329 32.3333 54.8063 33.5333 54.8063 35C54.8063 36.4533 54.3263 37.6533 53.3663 38.6C52.4196 39.5333 51.1996 40 49.7063 40H47.3063V44H43.7063ZM47.3063 36.8H49.4063C49.9529 36.8 50.3863 36.64 50.7063 36.32C51.0396 35.9867 51.2063 35.5467 51.2063 35C51.2063 34.4533 51.0396 34.02 50.7063 33.7C50.3863 33.3667 49.9529 33.2 49.4063 33.2H47.3063V36.8Z" fill="white"/>
</svg>
