<svg width="51" height="59" viewBox="0 0 51 59" fill="none" xmlns="http://www.w3.org/2000/svg">
<path fill-rule="evenodd" clip-rule="evenodd" d="M26.393 1.63506C26.2519 1.67985 25.7822 2.43399 25.6195 2.87677C25.5202 3.14697 25.493 3.40945 25.5151 3.88214C25.5447 4.51352 25.5506 4.53054 25.9713 5.17763C26.3233 5.71917 26.4042 5.90462 26.4358 6.24268C26.4807 6.72397 26.3248 7.27493 25.9762 7.86642C25.632 8.45043 25.6803 8.6918 26.1412 8.6918C26.3922 8.6918 26.5276 8.58003 26.8025 8.1458C27.1764 7.55557 27.3503 6.91659 27.3143 6.26586C27.2836 5.70924 27.2641 5.65659 26.8489 5.0053L26.4156 4.32555V3.69731C26.4156 3.08729 26.4254 3.05299 26.7531 2.51333C26.9387 2.2077 27.0906 1.93203 27.0906 1.9008C27.0906 1.86958 27.0191 1.78747 26.9317 1.71836C26.7772 1.59611 26.6012 1.56891 26.393 1.63506ZM20.357 4.27843C19.7874 4.91936 19.4952 5.88446 19.6343 6.66573C19.6902 6.97941 19.8179 7.25332 20.1247 7.71803L20.5394 8.34627L20.5367 8.94309C20.5343 9.49249 20.5098 9.58484 20.2296 10.1053C20.0621 10.4163 19.9082 10.7439 19.8877 10.8334C19.8394 11.0431 20.054 11.2179 20.3284 11.1924C20.5968 11.1676 20.815 10.9056 21.1432 10.2143C21.3812 9.71319 21.4042 9.6023 21.4084 8.93694L21.4129 8.20831L20.9775 7.5234C20.5838 6.90402 20.5393 6.79251 20.5129 6.35815C20.4796 5.80995 20.6188 5.34782 20.9781 4.81532C21.197 4.49071 21.2083 4.36287 21.0335 4.18419C20.8928 4.04033 20.5228 4.09191 20.357 4.27843ZM32.0472 4.36494C31.9334 4.50749 31.747 4.81143 31.633 5.04029C31.4511 5.40549 31.4253 5.54935 31.422 6.21642L31.4183 6.97652L31.855 7.66136L32.2918 8.34627L32.2907 8.94309C32.2899 9.49305 32.266 9.58433 31.9867 10.1053C31.5888 10.8477 31.5674 10.9318 31.7385 11.0813C31.9146 11.2353 32.1871 11.24 32.3565 11.0919C32.5457 10.9265 32.9357 10.2183 33.0797 9.77852C33.2388 9.2929 33.2403 8.55736 33.0831 8.13851C33.016 7.95984 32.8105 7.59427 32.6265 7.32607C32.2965 6.84547 32.2918 6.82951 32.2918 6.21026C32.2918 5.59754 32.3003 5.56776 32.6407 5.00373C32.979 4.44303 32.9856 4.4206 32.8572 4.26555C32.6408 4.00414 32.3018 4.04573 32.0472 4.36494Z" fill="#1B1B1B"/>
<path fill-rule="evenodd" clip-rule="evenodd" d="M17.7417 25.2698L24.3362 30.6161C24.8381 30.9949 25.4497 31.1999 26.0784 31.1999C26.7072 31.1999 27.3188 30.9949 27.8207 30.6161L34.4152 25.2698C34.6441 25.0831 34.827 24.8462 34.9496 24.5774C35.0723 24.3087 35.1314 24.0153 35.1224 23.72V15.4925C35.1443 15.1973 35.1068 14.9007 35.0121 14.6202C34.9174 14.3397 34.7675 14.0811 34.5711 13.8595C34.6566 14.1999 34.64 14.5579 34.5235 14.889C34.407 15.22 34.1957 15.5095 33.9158 15.7213L27.311 21.0676C26.8233 21.4737 26.2087 21.6961 25.574 21.6961C24.9393 21.6961 24.3247 21.4737 23.8369 21.0676L17.2425 15.7213C16.9061 15.461 16.6678 15.0944 16.5664 14.6812L16.4 15.7213L17.0032 23.7928C17.0084 24.0793 17.0752 24.3614 17.199 24.6198C17.3229 24.8783 17.5008 25.107 17.7209 25.2906L17.7417 25.2698Z" fill="#1B1B1B"/>
<path fill-rule="evenodd" clip-rule="evenodd" d="M27.3943 17.2712L27.7063 17.0216L30.0778 15.0973C30.181 15.022 30.2649 14.9234 30.3228 14.8096C30.3807 14.6957 30.4108 14.5698 30.4108 14.442C30.4108 14.3143 30.3807 14.1884 30.3228 14.0745C30.2649 13.9607 30.181 13.8621 30.0778 13.7868L26.5726 10.968C26.3392 10.7908 26.0543 10.6949 25.7613 10.6949C25.4683 10.6949 25.1833 10.7908 24.9499 10.968L23.9826 11.7481C23.0049 12.549 23.6706 13.5683 24.3259 14.5253C24.5879 14.9215 24.88 15.2971 25.1996 15.6486C25.5844 16.0647 26.843 17.7289 27.3943 17.292V17.2712Z" fill="#E07153"/>
<path fill-rule="evenodd" clip-rule="evenodd" d="M21.216 15.2951L24.7212 18.1347C24.9051 18.2721 25.1209 18.3604 25.3484 18.3913C25.5758 18.4223 25.8075 18.3948 26.0214 18.3115C26.7807 18.0202 25.9173 17.521 25.5429 17.1777C25.1684 16.8345 24.7524 16.4496 24.5028 16.1376C24.1655 15.7692 23.8561 15.3764 23.577 14.9622C22.7137 13.7141 23.0778 12.5075 22.1105 13.298L21.2575 13.9845C21.1543 14.0609 21.0704 14.1605 21.0126 14.2752C20.9548 14.3899 20.9247 14.5166 20.9247 14.645C20.9247 14.7734 20.9548 14.9001 21.0126 15.0148C21.0704 15.1295 21.1543 15.2291 21.2575 15.3055L21.216 15.2951Z" fill="#E07153"/>
<path d="M3.06211 46V37.6H8.10211V38.92H4.56211V46H3.06211ZM12.8652 45.244C12.3212 45.828 11.5932 46.12 10.6812 46.12C9.76917 46.12 9.04117 45.828 8.49717 45.244C7.95317 44.66 7.68117 43.852 7.68117 42.82C7.68117 41.788 7.95317 40.98 8.49717 40.396C9.04117 39.812 9.76917 39.52 10.6812 39.52C11.5932 39.52 12.3212 39.812 12.8652 40.396C13.4092 40.98 13.6812 41.788 13.6812 42.82C13.6812 43.852 13.4092 44.66 12.8652 45.244ZM9.51717 44.344C9.82117 44.688 10.2092 44.86 10.6812 44.86C11.1532 44.86 11.5412 44.688 11.8452 44.344C12.1492 43.992 12.3012 43.484 12.3012 42.82C12.3012 42.156 12.1492 41.652 11.8452 41.308C11.5412 40.956 11.1532 40.78 10.6812 40.78C10.2092 40.78 9.82117 40.956 9.51717 41.308C9.21317 41.652 9.06117 42.156 9.06117 42.82C9.06117 43.484 9.21317 43.992 9.51717 44.344ZM14.9421 48.4V39.64H16.0821L16.2621 40.42H16.3221C16.5141 40.156 16.7701 39.94 17.0901 39.772C17.4181 39.604 17.7821 39.52 18.1821 39.52C19.0141 39.52 19.6821 39.808 20.1861 40.384C20.6901 40.96 20.9421 41.772 20.9421 42.82C20.9421 43.868 20.6901 44.68 20.1861 45.256C19.6821 45.832 19.0141 46.12 18.1821 46.12C17.7741 46.12 17.4061 46.036 17.0781 45.868C16.7581 45.692 16.5261 45.496 16.3821 45.28H16.3221V48.4H14.9421ZM16.7781 44.344C17.0821 44.688 17.4701 44.86 17.9421 44.86C18.4141 44.86 18.8021 44.688 19.1061 44.344C19.4101 43.992 19.5621 43.484 19.5621 42.82C19.5621 42.156 19.4101 41.652 19.1061 41.308C18.8021 40.956 18.4141 40.78 17.9421 40.78C17.4701 40.78 17.0821 40.956 16.7781 41.308C16.4741 41.652 16.3221 42.156 16.3221 42.82C16.3221 43.484 16.4741 43.992 16.7781 44.344ZM21.7277 46L23.3477 43.72C22.9477 43.624 22.6077 43.396 22.3277 43.036C22.0477 42.668 21.9077 42.236 21.9077 41.74C21.9077 41.116 22.1077 40.612 22.5077 40.228C22.9157 39.836 23.4357 39.64 24.0677 39.64H27.0077V46H25.6277V43.84H24.8597L23.2877 46H21.7277ZM24.1877 42.58H25.6277V40.9H24.1877C23.8997 40.9 23.6757 40.98 23.5157 41.14C23.3637 41.292 23.2877 41.492 23.2877 41.74C23.2877 41.996 23.3637 42.2 23.5157 42.352C23.6757 42.504 23.8997 42.58 24.1877 42.58ZM32.291 46V43.9C31.811 44.06 31.351 44.14 30.911 44.14C30.111 44.14 29.499 43.936 29.075 43.528C28.659 43.112 28.451 42.536 28.451 41.8V39.64H29.831V41.8C29.831 42.136 29.939 42.4 30.155 42.592C30.371 42.784 30.683 42.88 31.091 42.88C31.571 42.88 31.971 42.8 32.291 42.64V39.64H33.671V46H32.291ZM35.2273 46V39.64H36.6073V44.008H36.6673L39.2473 39.64H40.8673V46H39.4873V41.62H39.4273L36.8473 46H35.2273ZM42.4226 46V39.64H43.8026V44.008H43.8626L46.4426 39.64H48.0626V46H46.6826V41.62H46.6226L44.0426 46H42.4226ZM46.5146 38.32C46.1786 38.6 45.7546 38.74 45.2426 38.74C44.7306 38.74 44.3066 38.6 43.9706 38.32C43.6346 38.04 43.4386 37.6 43.3826 37H44.4626C44.5186 37.52 44.7786 37.78 45.2426 37.78C45.7066 37.78 45.9666 37.52 46.0226 37H47.1026C47.0466 37.6 46.8506 38.04 46.5146 38.32ZM12.3816 58.4V49.64H13.5216L13.7016 50.42H13.7616C13.9536 50.156 14.2096 49.94 14.5296 49.772C14.8576 49.604 15.2216 49.52 15.6216 49.52C16.4536 49.52 17.1216 49.808 17.6256 50.384C18.1296 50.96 18.3816 51.772 18.3816 52.82C18.3816 53.868 18.1296 54.68 17.6256 55.256C17.1216 55.832 16.4536 56.12 15.6216 56.12C15.2136 56.12 14.8456 56.036 14.5176 55.868C14.1976 55.692 13.9656 55.496 13.8216 55.28H13.7616V58.4H12.3816ZM14.2176 54.344C14.5216 54.688 14.9096 54.86 15.3816 54.86C15.8536 54.86 16.2416 54.688 16.5456 54.344C16.8496 53.992 17.0016 53.484 17.0016 52.82C17.0016 52.156 16.8496 51.652 16.5456 51.308C16.2416 50.956 15.8536 50.78 15.3816 50.78C14.9096 50.78 14.5216 50.956 14.2176 51.308C13.9136 51.652 13.7616 52.156 13.7616 52.82C13.7616 53.484 13.9136 53.992 14.2176 54.344ZM24.5312 55.244C23.9872 55.828 23.2592 56.12 22.3472 56.12C21.4352 56.12 20.7072 55.828 20.1632 55.244C19.6192 54.66 19.3472 53.852 19.3472 52.82C19.3472 51.788 19.6192 50.98 20.1632 50.396C20.7072 49.812 21.4352 49.52 22.3472 49.52C23.2592 49.52 23.9872 49.812 24.5312 50.396C25.0752 50.98 25.3472 51.788 25.3472 52.82C25.3472 53.852 25.0752 54.66 24.5312 55.244ZM21.1832 54.344C21.4872 54.688 21.8752 54.86 22.3472 54.86C22.8192 54.86 23.2072 54.688 23.5112 54.344C23.8152 53.992 23.9672 53.484 23.9672 52.82C23.9672 52.156 23.8152 51.652 23.5112 51.308C23.2072 50.956 22.8192 50.78 22.3472 50.78C21.8752 50.78 21.4872 50.956 21.1832 51.308C20.8792 51.652 20.7272 52.156 20.7272 52.82C20.7272 53.484 20.8792 53.992 21.1832 54.344ZM25.9481 56.12V54.74H26.1281C26.4881 54.74 26.7361 54.552 26.8721 54.176C27.0161 53.792 27.0881 53.12 27.0881 52.16V49.64H31.8281V56H30.4481V50.9H28.4681V52.28C28.4681 52.904 28.4361 53.436 28.3721 53.876C28.3081 54.316 28.1961 54.712 28.0361 55.064C27.8761 55.416 27.6481 55.68 27.3521 55.856C27.0561 56.032 26.6881 56.12 26.2481 56.12H25.9481ZM32.7333 56.12V54.74H32.9133C33.2733 54.74 33.5213 54.552 33.6573 54.176C33.8013 53.792 33.8733 53.12 33.8733 52.16V49.64H38.6133V56H37.2333V50.9H35.2533V52.28C35.2533 52.904 35.2213 53.436 35.1573 53.876C35.0933 54.316 34.9813 54.712 34.8213 55.064C34.6613 55.416 34.4333 55.68 34.1373 55.856C33.8413 56.032 33.4733 56.12 33.0333 56.12H32.7333Z" fill="#1B1B1B"/>
</svg>
