<svg width="392" height="115" viewBox="0 0 392 115" fill="none" xmlns="http://www.w3.org/2000/svg">
<g style="mix-blend-mode:color-dodge" opacity="0.3">
<path fill-rule="evenodd" clip-rule="evenodd" d="M397 0.880909V115H0V1.18372C16.8036 6.1939 24.6609 25.3399 44.6211 25.3399C67.6003 25.3399 106.652 0 129.576 0C152.5 0 159.489 25.3399 182.455 25.3399C205.42 25.3399 244.486 0 267.424 0C290.361 0 297.323 25.3399 320.302 25.3399C340.703 25.3399 373.759 5.34051 397 0.880909Z" fill="#ffffff"/>
</g>
<g style="mix-blend-mode:color-dodge" opacity="0.4">
<path fill-rule="evenodd" clip-rule="evenodd" d="M397 32.8294V113H0V33.2026C16.8036 38.2202 24.6609 57.4473 44.6211 57.4473C67.6003 57.4473 106.652 32 129.576 32C152.5 32 159.489 57.4473 182.455 57.4473C205.42 57.4473 244.486 32 267.424 32C290.361 32 297.323 57.4473 320.302 57.4473C340.703 57.4473 373.759 37.377 397 32.8294Z" fill="#ffffff"/>
</g>
<g style="mix-blend-mode:color-dodge" opacity="0.4">
<path fill-rule="evenodd" clip-rule="evenodd" d="M397 68.2206V115H0V67.9051C23.241 72.3623 56.2968 92.2754 76.6982 92.2754C99.6773 92.2754 106.611 67 129.576 67C152.542 67 191.608 92.248 214.545 92.248C237.483 92.248 244.444 67 267.424 67C290.403 67 329.455 92.248 352.379 92.248C372.353 92.2754 380.196 73.1989 397 68.2206Z" fill="#ffffff"/>
</g>
</svg>
