<svg width="42" height="40" viewBox="0 0 42 40" fill="none" xmlns="http://www.w3.org/2000/svg">
<g clip-path="url(#clip0)">
<path d="M41.9994 6.85968C41.9994 6.8553 41.9988 6.85093 41.9986 6.84648C41.9982 6.82905 41.9971 6.81187 41.995 6.79483C41.9941 6.78858 41.9929 6.78233 41.9919 6.77608C41.9895 6.76038 41.9864 6.74491 41.9827 6.72976C41.9812 6.72374 41.9795 6.7178 41.9778 6.71179C41.9731 6.6953 41.9676 6.67913 41.9614 6.66319C41.9603 6.66015 41.9595 6.65702 41.9583 6.65405L40.2894 2.58515C40.1211 2.17516 39.7137 1.91016 39.2514 1.91016H36.2127C35.8814 1.91016 35.6129 2.16586 35.6129 2.48133C35.6129 2.7968 35.8814 3.0525 36.2127 3.0525H39.1933L40.5215 6.2907H27.9647L27.1779 3.0525H31.8154C32.1466 3.0525 32.4151 2.7968 32.4151 2.48133C32.4151 2.16586 32.1466 1.91016 31.8154 1.91016H26.4236H20.3806H7.55264C7.09031 1.91016 6.68295 2.17516 6.5147 2.58531L4.84578 6.65405C4.84455 6.6571 4.84389 6.66023 4.84266 6.66319C4.83643 6.67905 4.83101 6.69523 4.82626 6.71179C4.82453 6.7178 4.82289 6.72374 4.82142 6.72976C4.81764 6.74499 4.81461 6.76046 4.81215 6.77608C4.81116 6.78233 4.80993 6.78858 4.80911 6.79483C4.80706 6.81187 4.80591 6.82905 4.80542 6.84648C4.80534 6.85085 4.80476 6.85523 4.80468 6.85968C4.80468 6.86038 4.8046 6.86108 4.8046 6.86179V15.2532C4.8046 15.5686 5.07309 15.8244 5.40433 15.8244C5.73557 15.8244 6.00406 15.5686 6.00406 15.2532V7.43304H18.7166V16.1149C18.7166 16.4544 18.9266 16.7638 19.2517 16.9031C19.3707 16.9541 19.4974 16.979 19.6234 16.979C19.8412 16.979 20.0567 16.9045 20.2257 16.7618L23.402 14.0819L26.5784 16.7618C26.845 16.987 27.2275 17.0424 27.5526 16.9031C27.8776 16.7637 28.0876 16.4544 28.0876 16.1149V7.43304H40.8V33.052C40.8 33.4618 40.4498 33.7953 40.0195 33.7953H29.023C29.023 33.7888 29.0221 33.7824 29.0221 33.7759C29.0214 33.7246 29.0194 33.6735 29.0148 33.6227C30.0474 33.8834 31.1506 33.378 31.5644 32.4116C31.782 31.9032 31.7788 31.3446 31.5553 30.8387C31.5342 30.791 31.511 30.7448 31.4865 30.6992C31.482 30.6909 31.4777 30.6824 31.4732 30.6742C31.4491 30.6307 31.4235 30.5883 31.3965 30.547C31.3913 30.5389 31.3859 30.5311 31.3805 30.5231C31.352 30.4807 31.3224 30.4391 31.2908 30.399C31.2902 30.3982 31.2896 30.3975 31.289 30.3968C31.2577 30.3572 31.2245 30.3191 31.1903 30.2818C31.1841 30.275 31.1779 30.2682 31.1716 30.2614C31.1377 30.2254 31.1025 30.1907 31.0661 30.1571C31.059 30.1506 31.0518 30.1442 31.0445 30.1378C31.0064 30.1037 30.9674 30.0705 30.9267 30.0392C30.9253 30.0382 30.9239 30.0371 30.9225 30.0361C30.8824 30.0054 30.8409 29.9764 30.7985 29.9484C30.7908 29.9433 30.7833 29.9382 30.7755 29.9332C30.7331 29.906 30.6896 29.8803 30.645 29.8558C30.6413 29.8538 30.6379 29.8514 30.6341 29.8494C30.8876 29.6405 31.0877 29.3761 31.218 29.0719C31.4356 28.5635 31.4324 28.005 31.2089 27.4989C31.0133 27.0562 30.6695 26.7001 30.2292 26.4792C30.1662 26.4476 30.1013 26.4188 30.0347 26.3929L20.7006 22.7682L25.0454 21.4874C26.0791 21.1826 26.6613 20.1326 26.3432 19.1469C26.2245 18.779 25.9891 18.4686 25.6851 18.2418C25.2327 17.9043 24.6281 17.7518 24.0284 17.8718C24.0256 17.8724 24.0228 17.8729 24.0199 17.8736C23.9867 17.8807 20.6559 18.594 17.1772 19.24C17.0229 19.2686 16.8725 19.2963 16.7243 19.3235C16.6057 19.3452 16.4887 19.3666 16.3739 19.3874C16.341 19.3934 16.3079 19.3993 16.2752 19.4053C16.0726 19.4419 15.8763 19.477 15.6854 19.5107C15.6087 19.5243 15.5325 19.5378 15.4576 19.5509C11.0889 20.3174 9.86165 20.3311 9.52106 20.2872C9.51975 20.2871 9.5186 20.2869 9.51729 20.2867C9.51212 20.286 9.50703 20.2853 9.50227 20.2846C9.49883 20.284 9.49563 20.2835 9.49243 20.283C9.49013 20.2826 9.48767 20.2822 9.48546 20.2819C9.46421 20.2782 9.44764 20.2744 9.43484 20.2707L9.33657 20.2326L9.45904 19.9466C9.57947 19.6654 9.57766 19.3563 9.45404 19.0764C9.42311 19.0064 9.38546 18.9403 9.34182 18.8787C9.2109 18.6941 9.02576 18.5504 8.80427 18.4643L5.58307 17.2135C5.28784 17.0987 4.96325 17.1005 4.66933 17.2183C4.37533 17.336 4.1472 17.5558 4.02678 17.8369L0.0878935 27.0371C-0.160661 27.6177 0.133093 28.2825 0.742666 28.5193L3.96394 29.7703C4.11103 29.8274 4.26319 29.8544 4.41306 29.8544C4.88417 29.8544 5.33157 29.5871 5.52016 29.1467L5.54977 29.0775L6.29248 29.3659C6.29289 29.366 6.2933 29.3663 6.29379 29.3664C7.00418 29.6423 7.65871 30.0359 8.22521 30.5243C8.32825 30.6132 8.42832 30.7051 8.52537 30.8C8.62241 30.8949 8.71625 30.9929 8.8069 31.0937C8.85218 31.1441 8.89672 31.1953 8.94028 31.2471C9.76576 32.2274 10.8479 32.9963 12.0696 33.4708L12.9052 33.7953H6.78467C6.35433 33.7953 6.00414 33.4617 6.00414 33.0519V31.6067C6.00414 31.2912 5.73565 31.0355 5.40441 31.0355C5.07317 31.0355 4.80468 31.2912 4.80468 31.6067V33.0519C4.80468 34.0917 5.69283 34.9376 6.78467 34.9376H15.8469L23.5727 37.9377C23.8386 38.041 24.1137 38.09 24.3847 38.0899C25.2361 38.0899 26.0447 37.6067 26.3856 36.8107C26.5254 36.4842 26.5702 36.143 26.5326 35.8149C26.9345 35.8699 27.3511 35.8195 27.7288 35.6642C28.1126 35.5063 28.4307 35.2548 28.6566 34.9375H40.0196C41.1113 34.9375 41.9995 34.0917 41.9995 33.0518V6.86187C41.9995 6.86108 41.9994 6.86046 41.9994 6.85968ZM20.8573 3.0525H25.9467L26.7335 6.2907H20.0706L20.8573 3.0525ZM18.8395 6.2907H6.28255L7.61072 3.0525H19.6262L18.8395 6.2907ZM26.8883 15.497H26.8882L24.0038 13.0634C23.8323 12.9187 23.6172 12.8464 23.4022 12.8464C23.1871 12.8464 22.9719 12.9187 22.8004 13.0634L19.9161 15.497V7.43304H26.8883V15.497ZM4.41159 28.7104L1.20065 27.4635L5.13535 18.2733L8.34629 19.5203L4.41159 28.7104ZM28.3716 32.1574L27.6833 31.89C27.683 31.8899 27.6827 31.8898 27.6823 31.8896C27.6821 31.8896 27.6818 31.8894 27.6816 31.8893C27.6815 31.8893 27.6814 31.8892 27.6813 31.8892L20.513 29.1056C20.2063 28.9865 19.8563 29.1267 19.7312 29.4189C19.6061 29.711 19.7534 30.0443 20.0602 30.1635L27.2287 32.9472C27.2586 32.9588 27.2876 32.9717 27.3156 32.9859C27.3234 32.9899 27.3307 32.9947 27.3385 32.9988C27.3581 33.0095 27.3779 33.0201 27.3965 33.0319C27.4055 33.0376 27.4137 33.0442 27.4224 33.0501C27.4389 33.0613 27.4557 33.0724 27.4713 33.0846C27.4807 33.092 27.4892 33.1002 27.4983 33.1078C27.5123 33.1196 27.5266 33.131 27.5397 33.1435C27.5488 33.1521 27.5569 33.1616 27.5656 33.1705C27.5777 33.1828 27.59 33.1949 27.6014 33.2079C27.61 33.2178 27.6175 33.2284 27.6257 33.2386C27.636 33.2514 27.6467 33.264 27.6561 33.2773C27.664 33.2884 27.6708 33.3001 27.6782 33.3114C27.6868 33.3246 27.6958 33.3374 27.7036 33.351C27.7106 33.3631 27.7165 33.3759 27.723 33.3883C27.7299 33.4017 27.7374 33.4148 27.7436 33.4285C27.7496 33.4416 27.7544 33.4552 27.7598 33.4685C27.7652 33.4821 27.7711 33.4953 27.7758 33.5091C27.7806 33.5229 27.7842 33.5371 27.7882 33.551C27.7923 33.5649 27.7968 33.5785 27.8001 33.5924C27.8035 33.6066 27.8056 33.621 27.8083 33.6352C27.811 33.6494 27.8142 33.6635 27.8161 33.6778C27.8181 33.6922 27.8188 33.7067 27.8201 33.7212C27.8213 33.7357 27.8231 33.7502 27.8236 33.7647C27.8241 33.779 27.8233 33.7935 27.8232 33.8078C27.823 33.8227 27.8233 33.8375 27.8223 33.8524C27.8214 33.8666 27.8192 33.8807 27.8175 33.8949C27.8158 33.9101 27.8145 33.9253 27.8119 33.9405C27.8095 33.9544 27.8058 33.9682 27.8028 33.9821C27.7993 33.9975 27.7964 34.0129 27.7921 34.0282C27.7883 34.0417 27.7832 34.0552 27.7787 34.0686C27.7736 34.0839 27.769 34.0992 27.763 34.1143C27.7579 34.1247 27.7529 34.1352 27.7482 34.1457C27.7471 34.1481 27.7466 34.1506 27.7456 34.153C27.6519 34.359 27.479 34.5227 27.2531 34.6156C27.0046 34.7177 26.72 34.7213 26.4723 34.625L25.2022 34.1318C25.1963 34.1296 25.1903 34.128 25.1844 34.1259C25.1784 34.1233 25.1728 34.1203 25.1667 34.118L19.3362 31.8539C19.0294 31.7348 18.6795 31.8749 18.5545 32.1671C18.4294 32.4592 18.5766 32.7926 18.8834 32.9117L24.7138 35.1759C24.72 35.1783 24.7263 35.18 24.7327 35.1822C24.7383 35.1845 24.7436 35.1874 24.7494 35.1896C25.2387 35.3797 25.4745 35.9135 25.275 36.3795C25.0755 36.8456 24.5153 37.0703 24.0257 36.8801L16.1922 33.8381C16.1918 33.8379 16.1915 33.8378 16.1912 33.8376L12.5227 32.413C11.877 32.1622 11.2773 31.8142 10.748 31.386C10.4304 31.129 10.1381 30.8433 9.87625 30.5324C9.61827 30.226 9.33526 29.9403 9.03076 29.6778C8.36081 29.1002 7.58685 28.6348 6.74693 28.3085C6.74685 28.3085 6.74677 28.3085 6.74669 28.3085L6.00299 28.0197L7.48423 24.56L8.88401 21.2905L8.98728 21.3306C9.08449 21.3683 9.22312 21.4219 9.5962 21.4354C10.0623 21.4554 10.8334 21.4091 12.2148 21.2232C13.1545 21.0968 14.3071 20.914 15.6526 20.6782C15.6858 20.6725 15.7187 20.6667 15.7521 20.6608C15.8151 20.6497 15.8786 20.6385 15.9425 20.6272C15.9921 20.6185 16.042 20.6096 16.0922 20.6006C16.1495 20.5904 16.207 20.5801 16.2649 20.5697C16.3264 20.5587 16.3885 20.5475 16.451 20.5362C16.5011 20.5272 16.551 20.5182 16.6016 20.509C16.6778 20.4952 16.7553 20.4811 16.8331 20.4668C16.8731 20.4595 16.9127 20.4523 16.9531 20.445C17.0722 20.4231 17.1929 20.4009 17.3157 20.3782C20.7825 19.736 24.1285 19.0212 24.2789 18.989C24.2939 18.9861 24.3089 18.9843 24.3239 18.9822C24.7091 18.9279 25.0865 19.1401 25.197 19.4825C25.2358 19.6028 25.2403 19.7255 25.2159 19.841C25.1622 20.0951 24.9683 20.3144 24.6911 20.3961L18.7453 22.1487C18.5032 22.2201 18.3344 22.4285 18.3235 22.6696C18.3125 22.9106 18.4616 23.1322 18.6962 23.2233L29.5821 27.4507C29.8192 27.5428 30.0044 27.7172 30.1036 27.942C30.2029 28.1667 30.2044 28.4149 30.1077 28.6406C30.011 28.8664 29.8279 29.0428 29.5919 29.1373C29.4739 29.1845 29.3498 29.2084 29.2255 29.2091C29.2237 29.2091 29.2219 29.2089 29.2201 29.2089C29.1909 29.2089 29.1618 29.2078 29.1326 29.2052C29.124 29.2044 29.1155 29.2027 29.1069 29.2017C29.0847 29.1992 29.0624 29.1967 29.0404 29.1927C29.0264 29.1901 29.0126 29.1862 28.9988 29.1831C28.9822 29.1793 28.9655 29.1761 28.9491 29.1715C28.9322 29.1667 28.9155 29.1604 28.8988 29.1547C28.8855 29.1502 28.8719 29.1464 28.8588 29.1414L21.6896 26.3573C21.3829 26.2382 21.033 26.3784 20.9079 26.6706C20.7828 26.9627 20.93 27.296 21.2368 27.4152L29.9284 30.7904C29.9877 30.8134 30.0438 30.8416 30.096 30.8744C30.2528 30.9728 30.3756 31.1131 30.45 31.2817C30.5369 31.4783 30.5488 31.6928 30.4857 31.8946C30.4766 31.9235 30.4661 31.9521 30.454 31.9803C30.4415 32.0094 30.4277 32.0376 30.4125 32.0648C30.3771 32.1281 30.3341 32.1853 30.286 32.2374C30.2561 32.2697 30.2242 32.2999 30.1903 32.3275C30.1849 32.3319 30.1799 32.3369 30.1744 32.3411C29.9556 32.5116 29.663 32.5849 29.3771 32.5299C29.3191 32.5187 29.2614 32.5028 29.2047 32.4808L28.3716 32.1574Z" fill="#3E3F53"/>
</g>
<defs>
<clipPath id="clip0">
<rect width="42" height="40" fill="white"/>
</clipPath>
</defs>
</svg>
