<svg width="124" height="124" viewBox="0 0 124 124" fill="none" xmlns="http://www.w3.org/2000/svg">
<g clip-path="url(#clip0_130:652)">
<path d="M104.803 50.5847H99.8695C100.374 49.2977 100.653 47.8991 100.653 46.4353C100.653 40.1411 95.5327 35.02 89.2385 35.02C86.2329 35.02 83.4967 36.1895 81.456 38.0948C79.4153 36.1893 76.6793 35.02 73.6738 35.02C67.3796 35.02 62.2585 40.1411 62.2585 46.4353C62.2585 47.8988 62.5385 49.2975 63.0427 50.5847H58.1094C56.1031 50.5847 54.4766 52.2112 54.4766 54.2175V69.7824C54.4766 71.7887 56.1031 73.4152 58.1094 73.4152H58.3678V85.3468C58.3678 87.3531 59.9943 88.9796 62.0006 88.9796H100.912C102.918 88.9796 104.545 87.3531 104.545 85.3468V73.415H104.803C106.809 73.415 108.436 71.7884 108.436 69.7822V54.2173C108.436 52.2112 106.81 50.5847 104.803 50.5847ZM77.8234 81.714H65.6334V73.415H77.8234V81.714ZM77.8234 66.1496H61.7424V57.8503H77.8234V66.1496ZM77.8234 50.5847H73.674C71.3861 50.5847 69.5244 48.7232 69.5244 46.4353C69.5244 44.1473 71.3861 42.2859 73.674 42.2859C75.962 42.2859 77.8234 44.1476 77.8234 46.4355V50.5847ZM85.0891 46.4353C85.0891 44.1473 86.9508 42.2856 89.2387 42.2856C91.5266 42.2856 93.3881 44.1473 93.3881 46.4353C93.3881 48.7232 91.5266 50.5847 89.2387 50.5847H85.0891V46.4353ZM97.2793 81.714H85.0891V73.415H97.2793V81.714ZM101.17 66.1496H85.0891V57.8503H101.17V66.1496Z" fill="#5D3DE3"/>
<path d="M108.694 19.4556H15.3063C6.86626 19.4556 0 26.3221 0 34.7618V89.238C0 97.678 6.8665 104.544 15.3063 104.544H108.694C117.134 104.544 124 97.6778 124 89.238V34.7618C124 26.3221 117.133 19.4556 108.694 19.4556ZM116.734 89.238C116.734 93.6717 113.127 97.2786 108.694 97.2786H15.3063C10.8725 97.2786 7.26562 93.6715 7.26562 89.238V34.7618C7.26562 30.3281 10.8728 26.7212 15.3063 26.7212H108.694C113.127 26.7212 116.734 30.3283 116.734 34.7618V89.238Z" fill="#5D3DE3"/>
<path d="M30.8707 81.7139H19.1973C17.191 81.7139 15.5645 83.3404 15.5645 85.3467C15.5645 87.353 17.191 88.9795 19.1973 88.9795H30.8707C32.877 88.9795 34.5035 87.353 34.5035 85.3467C34.5035 83.3404 32.877 81.7139 30.8707 81.7139Z" fill="#5D3DE3"/>
<path d="M19.1973 42.2859H30.8707C32.877 42.2859 34.5035 40.6594 34.5035 38.6531C34.5035 36.6468 32.877 35.0203 30.8707 35.0203H19.1973C17.191 35.0203 15.5645 36.6468 15.5645 38.6531C15.5645 40.6594 17.1907 42.2859 19.1973 42.2859Z" fill="#5D3DE3"/>
<path d="M42.5441 66.1494H19.1973C17.191 66.1494 15.5645 67.7759 15.5645 69.7822C15.5645 71.7885 17.191 73.415 19.1973 73.415H42.5441C44.5504 73.415 46.177 71.7885 46.177 69.7822C46.177 67.7759 44.5504 66.1494 42.5441 66.1494Z" fill="#5D3DE3"/>
</g>
<defs>
<clipPath id="clip0_130:652">
<rect width="124" height="124" fill="white"/>
</clipPath>
</defs>
</svg>
