<svg width="65" height="65" viewBox="0 0 65 65" fill="none" xmlns="http://www.w3.org/2000/svg">
<g clip-path="url(#clip0_130:635)">
<path d="M64.6502 26.9453L53.2356 10.7023C52.4743 9.61881 50.8672 9.6211 50.1075 10.7023L45.7633 16.8842C40.8451 10.5293 33.3838 6.95203 25.5478 6.95203C11.4608 6.95203 0 18.4128 0 32.5C0 46.5871 11.4608 58.0479 25.5479 58.0479C32.1123 58.0479 38.3106 55.5458 42.9895 51.1676L42.8713 53.0806C42.8034 54.1808 43.6784 55.1101 44.7794 55.1101H58.5639C59.6662 55.1101 60.5397 54.1795 60.4719 53.0806L59.0435 29.956H63.0862C64.6333 29.956 65.5381 28.2088 64.6502 26.9453ZM25.5479 54.2245C13.5689 54.2245 3.8234 44.4788 3.8234 32.5C3.8234 20.5211 13.5689 10.7754 25.5479 10.7754C32.781 10.7754 39.3819 14.2708 43.4444 20.1841L38.6931 26.9453C37.8035 28.2112 38.7129 29.9562 40.2572 29.9562H44.2999L43.376 44.9114C39.3069 50.7516 32.6807 54.2245 25.5479 54.2245ZM57.01 26.1326C55.9077 26.1326 55.0341 27.0633 55.1019 28.1622L56.5305 51.2867H46.813L48.2416 28.1622C48.3095 27.062 47.4346 26.1326 46.3335 26.1326H43.9373C45.0291 24.579 50.5777 16.6833 51.6718 15.1263L59.4063 26.1326H57.01Z" fill="#5D3DE3"/>
<path d="M27.9601 30.5884H23.1343C21.7988 30.5884 20.7121 29.5018 20.7121 28.1663C20.7121 26.8261 21.797 25.7441 23.1338 25.7441C23.1448 25.7441 23.1555 25.7442 23.1663 25.7442H27.7892C28.9263 25.7549 30.0255 26.3761 30.6574 27.364L30.6817 27.4022C31.2494 28.2926 32.4311 28.5544 33.3214 27.9867C34.2116 27.4193 34.4734 26.2374 33.906 25.3471L33.8798 25.3061C32.547 23.2227 30.3725 21.9207 27.4589 21.9207V19.6278C27.4589 18.572 26.6029 17.7162 25.5472 17.7162C24.4916 17.7162 23.6356 18.5721 23.6356 19.6278V21.9207C21.8087 21.9207 20.2269 22.252 18.7343 23.7337C17.5441 24.9151 16.8887 26.4893 16.8887 28.1662C16.8887 31.61 19.6906 34.4116 23.1343 34.4116H27.9601C29.2957 34.4116 30.3822 35.4982 30.3822 36.8337C30.3822 38.122 29.3617 39.2558 27.9281 39.2558H22.884C21.8905 39.2465 20.9377 38.7813 20.2691 37.9787C19.5932 37.1674 18.3878 37.0579 17.5767 37.7335C16.7656 38.4094 16.6559 39.6148 17.3316 40.4259C19.1206 42.5735 21.2027 43.0792 23.6355 43.0792V45.372C23.6355 46.4278 24.4914 47.2837 25.5471 47.2837C26.6028 47.2837 27.4587 46.4277 27.4587 45.372V43.0792C31.9114 43.0792 34.2055 39.9425 34.2055 36.8337C34.2057 33.39 31.404 30.5884 27.9601 30.5884Z" fill="#5D3DE3"/>
</g>
<defs>
<clipPath id="clip0_130:635">
<rect width="65" height="65" fill="white"/>
</clipPath>
</defs>
</svg>
