<svg width="58" height="58" viewBox="0 0 58 58" fill="none" xmlns="http://www.w3.org/2000/svg">
<path d="M16.0044 51.5248L16.0045 51.5248C18.2649 53.7862 21.2698 55.0313 24.4688 55.0313C27.606 55.0313 30.5567 53.8337 32.8015 51.6553L26.382 45.2366L23.6311 49.5593L23.6311 49.5594C23.4428 49.8552 23.1307 50.0495 22.7825 50.0877L16.0044 51.5248ZM16.0044 51.5248L6.47434 41.9965M16.0044 51.5248L6.47434 41.9965M6.47434 41.9965C6.47433 41.9965 6.47431 41.9965 6.47429 41.9965C4.21297 39.7342 2.96875 36.7293 2.96875 33.5313C2.96875 30.3951 4.16533 27.4446 6.34431 25.1981M6.47434 41.9965L6.34431 25.1981M6.34431 25.1981L12.7643 31.6181M28.8755 37.8193L28.874 37.8195C28.5257 37.8576 28.2135 38.052 28.0252 38.3479L28.0251 38.3479L22.455 47.1012L10.8997 35.5451L19.6521 29.9749L19.6522 29.9749C19.9481 29.7864 20.1424 29.4742 20.1806 29.1252C20.2187 28.7776 20.0976 28.4294 19.8486 28.1814C19.8485 28.1814 19.8484 28.1813 19.8483 28.1812L10.7862 19.1191C10.3343 18.6672 9.60323 18.6672 9.15125 19.1191L4.83932 23.4311L4.83929 23.4311C2.14165 26.1297 0.65625 29.7167 0.65625 33.5313C0.65625 37.3458 2.14165 40.9329 4.83929 43.6315L4.83933 43.6315L14.3695 53.1607C17.0662 55.8575 20.6533 57.3438 24.4688 57.3438C28.2842 57.3438 31.8713 55.8575 34.568 53.1598C34.5681 53.1598 34.5681 53.1598 34.5681 53.1598L38.8795 48.8492C38.8797 48.8491 38.8798 48.849 38.8799 48.8489C39.0977 48.6321 39.2188 48.3372 39.2188 48.0313C39.2188 47.7254 39.0977 47.4305 38.8799 47.2137C38.8798 47.2136 38.8797 47.2134 38.8795 47.2133L29.8175 38.1513C29.57 37.9038 29.2299 37.7826 28.8755 37.8193Z" fill="#5838E1" stroke="#5838E1" stroke-width="0.5"/>
<path d="M55.855 0.704733L55.8545 0.704881L48.378 2.94817C47.3757 2.62989 46.3465 2.46877 45.3123 2.46877C40.4712 2.46877 36.2606 5.90631 35.298 10.6449L35.2482 10.8899L35.4932 10.9397L37.2704 11.3004L37.5154 11.3501L37.5651 11.1051C38.3081 7.44194 41.5667 4.78127 45.3123 4.78127C46.2063 4.78127 47.0994 4.93826 47.9685 5.24965L47.9688 5.24976C48.2002 5.3323 48.4532 5.3374 48.6875 5.26996L48.6875 5.26997L48.6902 5.26917L54.2854 3.59068L52.4498 8.48516C52.3408 8.77495 52.3538 9.09625 52.483 9.37651L52.4832 9.37704C52.972 10.4311 53.2186 11.5452 53.2186 12.6875C53.2186 17.0463 49.672 20.5938 45.3123 20.5938C42.1683 20.5938 39.3228 18.7314 38.063 15.8499L37.9629 15.6209L37.7339 15.7209L36.0737 16.4459L35.8446 16.546L35.9446 16.7751C37.5712 20.5002 41.249 22.9063 45.3123 22.9063C50.9468 22.9063 55.5311 18.322 55.5311 12.6875C55.5311 11.3705 55.279 10.085 54.7794 8.85961L57.2697 2.21839L57.2698 2.21811C57.4234 1.80695 57.3322 1.34433 57.0315 1.02279L56.8489 1.19355L57.0308 1.02211C56.73 0.702873 56.2779 0.578778 55.855 0.704733Z" fill="#5838E1" stroke="#5838E1" stroke-width="0.5"/>
<path d="M31.9655 30.0746L31.9657 30.0745C32.2007 30.0043 32.4551 30.0096 32.6879 30.0944C33.5567 30.4056 34.4497 30.5625 35.3434 30.5625C39.089 30.5625 42.3476 27.9018 43.0906 24.2387L43.1403 23.9937L43.3853 24.0434L45.1624 24.4041L45.4075 24.4538L45.3577 24.6989C44.3951 29.4375 40.1845 32.875 35.3434 32.875C34.3091 32.875 33.2799 32.7139 32.2768 32.3956L24.8003 34.6389L24.7991 34.6392C24.6907 34.6712 24.5799 34.6875 24.4684 34.6875C24.1536 34.6875 23.8462 34.558 23.6243 34.3211L23.6242 34.321C23.3235 33.9994 23.2323 33.5368 23.3859 33.1257L23.386 33.1254L25.8763 26.4842C25.3767 25.2588 25.1246 23.9733 25.1246 22.6562C25.1246 17.0218 29.7089 12.4375 35.3434 12.4375C39.4066 12.4375 43.0844 14.8435 44.7111 18.5678L44.8111 18.7968L44.5821 18.8969L42.9219 19.6228L42.6928 19.723L42.5927 19.4939C41.3329 16.6124 38.4874 14.75 35.3434 14.75C30.9837 14.75 27.4371 18.2975 27.4371 22.6562C27.4371 23.7985 27.6837 24.9127 28.1724 25.9667L28.1727 25.9673C28.3018 26.2475 28.3149 26.5687 28.206 26.8584L31.9655 30.0746ZM31.9655 30.0746L26.3703 31.7531M31.9655 30.0746L26.3703 31.7531M26.3703 31.7531L28.2059 26.8586L26.3703 31.7531Z" fill="#5838E1" stroke="#5838E1" stroke-width="0.5"/>
<path d="M30.8125 21.5H30.5625V21.75V23.5625V23.8125H30.8125H32.625H32.875V23.5625V21.75V21.5H32.625H30.8125Z" fill="#5838E1" stroke="#5838E1" stroke-width="0.5"/>
<path d="M34.4375 21.5H34.1875V21.75V23.5625V23.8125H34.4375H36.25H36.5V23.5625V21.75V21.5H36.25H34.4375Z" fill="#5838E1" stroke="#5838E1" stroke-width="0.5"/>
<path d="M38.0625 21.5H37.8125V21.75V23.5625V23.8125H38.0625H39.875H40.125V23.5625V21.75V21.5H39.875H38.0625Z" fill="#5838E1" stroke="#5838E1" stroke-width="0.5"/>
<path d="M40.7812 11.5312H40.5312V11.7812V13.5938V13.8438H40.7812H42.5938H42.8438V13.5938V11.7812V11.5312H42.5938H40.7812Z" fill="#5838E1" stroke="#5838E1" stroke-width="0.5"/>
<path d="M44.4062 11.5312H44.1562V11.7812V13.5938V13.8438H44.4062H46.2188H46.4688V13.5938V11.7812V11.5312H46.2188H44.4062Z" fill="#5838E1" stroke="#5838E1" stroke-width="0.5"/>
<path d="M48.0312 11.5312H47.7812V11.7812V13.5938V13.8438H48.0312H49.8438H50.0938V13.5938V11.7812V11.5312H49.8438H48.0312Z" fill="#5838E1" stroke="#5838E1" stroke-width="0.5"/>
</svg>
