<svg width="170" height="36" viewBox="0 0 170 36" fill="none" xmlns="http://www.w3.org/2000/svg">
<g clip-path="url(#clip0_3868_672)">
<path fill-rule="evenodd" clip-rule="evenodd" d="M33.9537 6.20459H34.8481L41.9701 24.3871C42.2682 25.117 42.8313 25.482 43.7257 25.482H44.3551V26.4774H36.4381V25.482H37.0675C37.8956 25.482 38.4588 25.3825 38.8231 25.2166C39.055 25.0839 39.1875 24.8848 39.1875 24.6525C39.1875 24.4866 39.1544 24.3207 39.0881 24.1548L37.4319 19.9078H29.5811L28.6536 22.3299C28.4217 22.9604 28.2892 23.4912 28.2892 23.8562C28.2892 24.2875 28.488 24.6525 28.9186 24.9843C29.3161 25.2829 29.9124 25.4488 30.7074 25.4488H31.3699V26.4442H24.1817V25.4488C24.9436 25.4488 25.5729 25.2829 26.0036 24.9511C26.4342 24.6193 26.8648 23.9889 27.2292 23.0267L33.9537 6.20459ZM33.5562 10.0203L30.0118 18.8792H37.0344L33.5562 10.0203ZM24.3804 28.9991H44.2226V30.2599H24.3804V28.9991ZM44.852 26.4774V25.482H46.177C46.9389 25.482 47.3033 25.0839 47.3033 24.3207V15.7604C47.3033 15.1963 46.972 14.8977 46.3426 14.8977H44.9182V13.9023H51.974C53.2658 13.9023 54.2265 13.9686 54.889 14.1345C55.5184 14.3004 56.0815 14.6322 56.5121 15.1631C56.9428 15.6608 57.1747 16.2912 57.1747 17.0212C57.1747 17.917 56.8103 18.647 56.0815 19.1447C55.3528 19.6756 54.5577 19.941 53.6634 20.0074C56.3465 20.3723 57.7047 21.4673 57.7047 23.259C57.7047 25.4157 55.949 26.5106 52.4708 26.5106H44.852V26.4774ZM49.5889 19.5428H51.4439C53.6302 19.5428 54.7234 18.7797 54.7234 17.2866C54.7234 15.7272 53.7296 14.9309 51.7421 14.9309H50.9471C50.0196 14.9309 49.5889 15.2958 49.5889 16.059V19.5428ZM49.5889 20.5382V24.3539C49.5889 24.7521 49.6552 25.0507 49.8539 25.2498C50.0196 25.4157 50.3177 25.5152 50.7483 25.5152H51.8415C53.2327 25.5152 54.1602 25.3161 54.5577 24.8516C54.9552 24.4203 55.154 23.8562 55.154 23.1594C55.154 21.4009 54.0609 20.5382 51.9077 20.5382H49.5889ZM44.2226 28.9991V30.2599H58.9634V28.9991H44.2226ZM60.2885 18.3815H59.2947L59.5928 13.9023H71.7167L72.0149 18.3815H71.0211C70.723 16.8553 70.3586 15.8931 69.8617 15.4949C69.398 15.0968 68.8017 14.8977 68.1061 14.8977H66.6817V24.5862C66.6817 25.1834 67.0129 25.482 67.6754 25.482H69.0998V26.4774H61.9447V25.482H63.2697C64.0316 25.482 64.4291 25.117 64.4291 24.3539V14.8977H63.1704C62.3754 14.8977 61.746 15.1299 61.3153 15.5945C60.8847 16.059 60.5535 16.988 60.2885 18.3815ZM58.9634 28.9991H72.3461V30.2599H58.9634V28.9991ZM79.17 13.5041C80.8594 13.5041 82.2838 14.1014 83.4432 15.329C84.6026 16.5567 85.1657 18.1493 85.1657 20.1733C85.1657 21.5668 84.9007 22.7281 84.4038 23.6903C83.9069 24.6525 83.145 25.4157 82.2175 25.9797C81.2569 26.5438 80.23 26.8424 79.1369 26.8424C77.5137 26.8424 76.1224 26.212 74.9962 24.9843C73.8699 23.7567 73.3068 22.1309 73.3068 20.1733C73.3068 18.1825 73.8699 16.5898 74.9962 15.3622C76.1224 14.1345 77.5137 13.5041 79.17 13.5041ZM79.17 14.4663C78.1762 14.4663 77.3481 14.9309 76.6856 15.8267C76.0562 16.7226 75.7249 18.1825 75.7249 20.1401C75.7249 22.1309 76.0562 23.5908 76.6856 24.5198C77.315 25.4488 78.1431 25.9133 79.17 25.9133C80.23 25.9133 81.0581 25.4488 81.7206 24.5198C82.3832 23.5908 82.6813 22.0977 82.6813 20.0074C82.6813 18.0498 82.35 16.6562 81.7206 15.7935C81.0913 14.8977 80.23 14.4663 79.17 14.4663ZM72.3461 28.9991V30.2599H86.0932V28.9991H72.3461ZM91.4595 19.3106H93.8446C94.1758 17.3198 94.9046 15.8599 95.9646 14.8977C97.0577 13.9686 98.3165 13.5041 99.7078 13.5041C101.331 13.5041 102.755 14.1014 103.915 15.2958C105.107 16.4903 105.703 18.1161 105.703 20.2064C105.703 22.3299 105.107 23.9557 103.882 25.117C102.656 26.2783 101.265 26.8424 99.7078 26.8424C98.2171 26.8424 96.9252 26.3447 95.8321 25.3161C94.7058 24.3207 94.0433 22.6949 93.8114 20.4387H91.4264V24.5198C91.4264 25.117 91.7577 25.4157 92.4202 25.4157H93.8114V26.411H86.6895V25.4157H88.0145C88.7764 25.4157 89.1408 25.0507 89.1408 24.2875V15.7935C89.1408 15.1963 88.8095 14.8977 88.147 14.8977H86.6895V13.9023H93.8777V14.8977H92.5527C91.7908 14.8977 91.4264 15.2627 91.4264 16.0258V19.3106H91.4595ZM103.252 19.9742C103.252 17.917 102.921 16.4903 102.225 15.6608C101.563 14.8645 100.702 14.4332 99.7409 14.4332C98.6478 14.4332 97.7865 14.9309 97.1902 15.9262C96.594 16.9216 96.2959 18.3152 96.2959 20.1069C96.2959 22.0313 96.594 23.458 97.2234 24.4203C97.8528 25.3825 98.6809 25.8802 99.7409 25.8802C102.06 25.9133 103.252 23.9226 103.252 19.9742ZM86.0932 28.9991H106.631V30.2599H86.0932V28.9991ZM111.5 13.67C111.699 14.5991 111.832 15.5281 111.865 16.3908C112.494 15.3954 113.124 14.6986 113.819 14.3004C114.515 13.9023 115.244 13.67 116.039 13.67C116.9 13.67 117.728 13.9355 118.49 14.4663C119.285 14.9972 119.914 15.7604 120.411 16.7889C120.908 17.8175 121.14 18.9456 121.14 20.2396C121.14 22.2968 120.544 23.9557 119.351 25.2498C118.357 26.3115 117.165 26.8756 115.774 26.8756C114.979 26.8756 114.283 26.6765 113.654 26.2783C113.024 25.8802 112.461 25.2829 111.964 24.4866V29.5299C111.964 29.9281 112.064 30.1935 112.262 30.3594C112.494 30.5585 112.825 30.6912 113.256 30.6912H114.184V31.6534H107.492V30.6912H108.42C108.85 30.6912 109.182 30.5917 109.38 30.4258C109.612 30.2599 109.712 30.0276 109.712 29.7622V16.5235C109.712 15.8931 109.579 15.4617 109.281 15.1963C108.983 14.9309 108.387 14.7981 107.525 14.765V13.8691L111.5 13.67ZM115.409 14.8977C114.449 14.8977 113.62 15.3622 112.925 16.2912C112.262 17.2203 111.898 18.5806 111.898 20.3723C111.898 22.164 112.229 23.4912 112.892 24.3539C113.554 25.2166 114.382 25.6479 115.376 25.6479C116.337 25.6479 117.066 25.2829 117.562 24.553C118.225 23.5908 118.556 22.164 118.556 20.306C118.556 18.3484 118.258 16.9548 117.662 16.1253C117.099 15.2958 116.337 14.8977 115.409 14.8977ZM106.631 28.9991V30.2599H122.399V28.9991H106.631ZM134.125 16.0258V15.4949C134.059 15.0968 133.728 14.8645 133.165 14.8645H131.74V13.8691H138.796V14.8645H137.537C136.775 14.8645 136.411 15.2295 136.411 15.9926V24.5198C136.411 25.117 136.742 25.4157 137.405 25.4157H138.829V26.411H131.674V25.4157H132.999C133.761 25.4157 134.125 25.0507 134.125 24.2875V17.4525L127.798 24.0885V24.553C127.798 25.1502 128.129 25.4488 128.759 25.4488H130.216V26.4442H123.061V25.4488H124.386C125.148 25.4488 125.513 25.0839 125.513 24.3207V15.7935C125.513 15.1963 125.181 14.8977 124.552 14.8977H123.128V13.9023H130.216V14.8977H128.924C128.163 14.8977 127.798 15.2627 127.798 16.0258V22.7281L134.125 16.0258ZM122.399 28.9991H139.458V30.2599H122.432V28.9991H122.399ZM149.959 22.7613L150.82 23.0267C150.125 25.6147 148.601 26.8756 146.216 26.8756C144.46 26.8756 143.036 26.3115 141.943 25.1502C140.85 23.9889 140.287 22.4627 140.287 20.5382C140.287 18.3152 140.883 16.5898 142.108 15.3622C143.334 14.1345 144.758 13.5373 146.415 13.5373C147.64 13.5373 148.667 13.8691 149.462 14.5659C150.257 15.2627 150.655 15.9926 150.655 16.8553C150.655 17.353 150.522 17.7843 150.191 18.0829C149.893 18.4147 149.529 18.5806 149.131 18.5806C148.734 18.5806 148.402 18.4479 148.104 18.1493C147.839 17.8839 147.673 17.5189 147.673 17.1539C147.673 16.7557 147.839 16.3908 148.137 16.0258C148.27 15.8599 148.336 15.7272 148.336 15.6276C148.336 15.3622 148.17 15.1299 147.806 14.8645C147.442 14.6322 146.978 14.4995 146.382 14.4995C145.288 14.4995 144.46 14.8977 143.897 15.694C143.102 16.8553 142.705 18.3815 142.705 20.2728C142.705 22.0645 143.069 23.4249 143.765 24.3539C144.493 25.2829 145.388 25.7474 146.514 25.7474C148.071 25.7143 149.23 24.7189 149.959 22.7613ZM139.458 28.9991V30.2599H151.649V28.9991H139.458ZM152.841 6.60275H168.94L169.338 14.1014H168.41C167.814 9.68846 166.224 7.46542 163.64 7.46542C163.11 7.46542 162.779 7.56496 162.58 7.73086C162.381 7.89676 162.282 8.19537 162.282 8.62671V24.5198C162.282 24.8516 162.381 25.0839 162.58 25.2166C162.779 25.3825 163.077 25.4488 163.507 25.4488H165.495V26.4442H156.286V25.4488H158.572C158.87 25.4488 159.102 25.3825 159.267 25.2166C159.433 25.0507 159.499 24.8516 159.499 24.6193V8.52717C159.499 8.19537 159.4 7.92994 159.201 7.76404C159.002 7.59814 158.671 7.4986 158.207 7.4986C156.915 7.4986 155.822 8.12901 154.961 9.35666C154.232 10.3521 153.735 11.9779 153.404 14.1345H152.41L152.841 6.60275ZM151.649 28.9991H169.967V30.2599H151.649V28.9991Z" fill="white"/>
<path fill-rule="evenodd" clip-rule="evenodd" d="M12.0246 26.5107H16.4634V32.4831H169.967V35.9338H12.0246V35.3697V32.4831V26.5107Z" fill="#FFED00" stroke="#FFED00" stroke-width="0.216" stroke-miterlimit="22.9256"/>
<path fill-rule="evenodd" clip-rule="evenodd" d="M0.298188 13.5042L13.4821 0.298653C13.8134 -0.0331446 14.4096 -0.0331446 14.7409 0.298653L27.9248 13.5042C28.2561 13.836 28.2561 14.4332 27.9248 14.765L14.7409 27.9705C14.4096 28.3023 13.8134 28.3023 13.4821 27.9705L0.298188 14.765C-0.0661927 14.4332 -0.0661927 13.836 0.298188 13.5042Z" fill="white" stroke="black" stroke-width="0.216" stroke-miterlimit="22.9256"/>
<path fill-rule="evenodd" clip-rule="evenodd" d="M4.86947 13.7031L13.6808 4.87732C13.9127 4.64506 14.2771 4.64506 14.509 4.87732L23.3204 13.7031C23.5522 13.9354 23.5522 14.3004 23.3204 14.5326L14.5421 23.3916C14.3102 23.6239 13.9459 23.6239 13.714 23.3916L4.86947 14.5658C4.63759 14.3335 4.63759 13.9354 4.86947 13.7031Z" fill="#FFED00" stroke="black" stroke-width="0.216" stroke-miterlimit="22.9256"/>
<path d="M48.2078 9.18919L48.7318 9.05302C48.7715 9.25539 48.8772 9.45777 49.049 9.66014C49.2228 9.86252 49.4522 9.96371 49.7373 9.96371C50.0281 9.96371 50.2575 9.889 50.4256 9.73958C50.5937 9.59016 50.6777 9.40954 50.6777 9.1977C50.6777 8.96885 50.5889 8.78728 50.4114 8.65299C50.2339 8.51681 49.9922 8.44872 49.6863 8.44872H49.4229V7.96926C49.676 7.96926 49.8695 7.95508 50.0036 7.92671C50.1376 7.89645 50.2557 7.82174 50.3576 7.70258C50.4615 7.58153 50.5134 7.44441 50.5134 7.29121C50.5134 7.10964 50.4426 6.95171 50.301 6.81742C50.1612 6.68314 49.9715 6.61599 49.7317 6.61599C49.5221 6.61599 49.3427 6.66895 49.1935 6.77487C49.0462 6.87889 48.9443 7.01791 48.8876 7.19191C48.831 7.36403 48.8026 7.49264 48.8026 7.57775L48.2758 7.4586C48.4061 6.57533 48.8933 6.1337 49.7373 6.1337C50.1433 6.1337 50.4653 6.24718 50.7032 6.47414C50.9411 6.69921 51.0601 6.96306 51.0601 7.26568C51.0601 7.65341 50.8769 7.95413 50.5106 8.16786C50.7221 8.22649 50.8986 8.34659 51.0402 8.52816C51.1837 8.70784 51.2555 8.92346 51.2555 9.17501C51.2555 9.53248 51.1167 9.83226 50.8391 10.0744C50.5634 10.3146 50.1971 10.4347 49.7402 10.4347C48.9546 10.4347 48.4439 10.0195 48.2078 9.18919Z" fill="white"/>
<path d="M51.4849 10.3637L53.0796 6.20462H53.6715L55.371 10.3637H54.745L54.2607 9.10408H52.5244L52.0684 10.3637H51.4849ZM52.683 8.65583H54.0907L53.6574 7.50399C53.5252 7.15409 53.427 6.8666 53.3628 6.64153C53.3099 6.90821 53.2353 7.173 53.139 7.4359L52.683 8.65583Z" fill="white"/>
<path d="M55.8185 6.20462H56.368V9.87292H57.7474V6.20462H58.2969V9.87292H59.6762V6.20462H60.2257V9.87292H60.6024V11.5184H60.1124V10.3637H55.8185V6.20462Z" fill="white"/>
<path d="M61.2567 6.20462H61.7552V9.49843L63.9645 6.20462H64.5168V10.3637H64.0183V7.07843L61.8062 10.3637H61.2567V6.20462Z" fill="white"/>
<path d="M66.474 10.3637V6.69543H65.106V6.20462H68.3972V6.69543H67.0235V10.3637H66.474Z" fill="white"/>
<path d="M68.3151 10.3637L69.9097 6.20462H70.5017L72.2011 10.3637H71.5752L71.0908 9.10408H69.3546L68.8986 10.3637H68.3151ZM69.5132 8.65583H70.9209L70.4875 7.50399C70.3554 7.15409 70.2572 6.8666 70.193 6.64153C70.1401 6.90821 70.0655 7.173 69.9692 7.4359L69.5132 8.65583Z" fill="white"/>
<path d="M74.2603 6.20462H77.5261V10.3637H76.9737V6.69543H74.8098V10.3637H74.2603V6.20462Z" fill="white"/>
<path d="M78.4239 10.3637V6.20462H79.9903C80.2659 6.20462 80.4765 6.21786 80.6219 6.24434C80.8258 6.27839 80.9967 6.34364 81.1345 6.4401C81.2724 6.53467 81.3829 6.66801 81.4659 6.84012C81.5509 7.01223 81.5934 7.20137 81.5934 7.40753C81.5934 7.76121 81.481 8.061 81.2563 8.30687C81.0316 8.55086 80.6257 8.67285 80.0384 8.67285H78.9734V10.3637H78.4239ZM78.9734 8.18204H80.0469C80.4019 8.18204 80.654 8.11584 80.8032 7.98345C80.9523 7.85105 81.0269 7.66475 81.0269 7.42455C81.0269 7.25055 80.9825 7.10207 80.8938 6.97914C80.8069 6.85431 80.6917 6.77203 80.5482 6.73231C80.4557 6.70773 80.2848 6.69543 80.0356 6.69543H78.9734V8.18204Z" fill="white"/>
<path d="M81.4461 10.3637L83.0408 6.20462H83.6327L85.3322 10.3637H84.7062L84.2219 9.10408H82.4856L82.0296 10.3637H81.4461ZM82.6442 8.65583H84.0519L83.6186 7.50399C83.4864 7.15409 83.3882 6.8666 83.324 6.64153C83.2711 6.90821 83.1965 7.173 83.1002 7.4359L82.6442 8.65583Z" fill="white"/>
<path d="M85.7485 10.3637V6.20462H87.3064C87.6236 6.20462 87.8776 6.24718 88.0683 6.33229C88.2609 6.41551 88.411 6.54507 88.5186 6.72096C88.6282 6.89497 88.6829 7.07749 88.6829 7.26851C88.6829 7.4463 88.6348 7.61369 88.5385 7.77067C88.4422 7.92765 88.2968 8.05438 88.1023 8.15084C88.3534 8.2246 88.546 8.35037 88.6801 8.52816C88.816 8.70595 88.884 8.91589 88.884 9.15799C88.884 9.3528 88.8425 9.53437 88.7594 9.7027C88.6782 9.86914 88.5772 9.99775 88.4563 10.0885C88.3355 10.1793 88.1835 10.2484 88.0003 10.2956C87.819 10.341 87.5962 10.3637 87.3319 10.3637H85.7485ZM86.298 7.95224H87.1959C87.4395 7.95224 87.6142 7.93617 87.7199 7.90401C87.8596 7.8624 87.9644 7.79337 88.0343 7.69691C88.106 7.60045 88.1419 7.4794 88.1419 7.33377C88.1419 7.1957 88.1089 7.07465 88.0428 6.97062C87.9767 6.86471 87.8823 6.79284 87.7596 6.75501C87.6368 6.71529 87.4263 6.69543 87.1279 6.69543H86.298V7.95224ZM86.298 9.87292H87.3319C87.5094 9.87292 87.634 9.8663 87.7057 9.85306C87.8322 9.83037 87.938 9.79254 88.023 9.73958C88.1079 9.68662 88.1778 9.61002 88.2326 9.50978C88.2873 9.40765 88.3147 9.29038 88.3147 9.15799C88.3147 9.00289 88.275 8.86861 88.1957 8.75513C88.1164 8.63975 88.006 8.55937 87.8643 8.51398C87.7246 8.46669 87.5226 8.44305 87.2582 8.44305H86.298V9.87292Z" fill="white"/>
<path d="M90.7987 10.3637L92.3934 6.20462H92.9853L94.6848 10.3637H94.0588L93.5745 9.10408H91.8382L91.3822 10.3637H90.7987ZM91.9968 8.65583H93.4045L92.9712 7.50399C92.839 7.15409 92.7408 6.8666 92.6766 6.64153C92.6237 6.90821 92.5491 7.173 92.4528 7.4359L91.9968 8.65583Z" fill="white"/>
<path d="M95.1011 10.3637V6.20462H96.659C96.9762 6.20462 97.2302 6.24718 97.4209 6.33229C97.6135 6.41551 97.7636 6.54507 97.8712 6.72096C97.9808 6.89497 98.0355 7.07749 98.0355 7.26851C98.0355 7.4463 97.9874 7.61369 97.8911 7.77067C97.7948 7.92765 97.6494 8.05438 97.4549 8.15084C97.706 8.2246 97.8986 8.35037 98.0327 8.52816C98.1686 8.70595 98.2366 8.91589 98.2366 9.15799C98.2366 9.3528 98.1951 9.53437 98.112 9.7027C98.0308 9.86914 97.9298 9.99775 97.8089 10.0885C97.6881 10.1793 97.5361 10.2484 97.3529 10.2956C97.1716 10.341 96.9488 10.3637 96.6845 10.3637H95.1011ZM95.6506 7.95224H96.5485C96.7921 7.95224 96.9668 7.93617 97.0725 7.90401C97.2122 7.8624 97.317 7.79337 97.3869 7.69691C97.4587 7.60045 97.4945 7.4794 97.4945 7.33377C97.4945 7.1957 97.4615 7.07465 97.3954 6.97062C97.3293 6.86471 97.2349 6.79284 97.1122 6.75501C96.9894 6.71529 96.7789 6.69543 96.4805 6.69543H95.6506V7.95224ZM95.6506 9.87292H96.6845C96.862 9.87292 96.9866 9.8663 97.0583 9.85306C97.1849 9.83037 97.2906 9.79254 97.3756 9.73958C97.4605 9.68662 97.5304 9.61002 97.5852 9.50978C97.6399 9.40765 97.6673 9.29038 97.6673 9.15799C97.6673 9.00289 97.6277 8.86861 97.5483 8.75513C97.469 8.63975 97.3586 8.55937 97.217 8.51398C97.0772 8.46669 96.8752 8.44305 96.6108 8.44305H95.6506V9.87292Z" fill="white"/>
<path d="M99.6585 10.3637V6.69543H98.2904V6.20462H101.582V6.69543H100.208V10.3637H99.6585Z" fill="white"/>
<path d="M101.72 8.33808C101.72 7.64773 101.906 7.10775 102.276 6.71813C102.646 6.32662 103.123 6.13086 103.709 6.13086C104.092 6.13086 104.438 6.22259 104.745 6.40605C105.053 6.58951 105.287 6.84579 105.448 7.17489C105.61 7.5021 105.692 7.87375 105.692 8.28985C105.692 8.71162 105.607 9.08895 105.437 9.42183C105.267 9.75471 105.026 10.0072 104.714 10.1793C104.403 10.3495 104.067 10.4347 103.706 10.4347C103.315 10.4347 102.966 10.3401 102.658 10.151C102.35 9.96182 102.117 9.70364 101.958 9.37644C101.8 9.04923 101.72 8.70311 101.72 8.33808ZM102.287 8.34659C102.287 8.8478 102.421 9.2431 102.689 9.53248C102.959 9.81996 103.297 9.96371 103.703 9.96371C104.117 9.96371 104.457 9.81807 104.723 9.5268C104.991 9.23553 105.125 8.82227 105.125 8.28701C105.125 7.94846 105.067 7.65341 104.952 7.40186C104.839 7.14841 104.672 6.95266 104.451 6.81459C104.232 6.67463 103.985 6.60465 103.712 6.60465C103.323 6.60465 102.988 6.73893 102.706 7.00751C102.427 7.27419 102.287 7.72055 102.287 8.34659Z" fill="white"/>
<path d="M106.38 10.3637V6.20462H107.938C108.255 6.20462 108.509 6.24718 108.7 6.33229C108.892 6.41551 109.042 6.54507 109.15 6.72096C109.259 6.89497 109.314 7.07749 109.314 7.26851C109.314 7.4463 109.266 7.61369 109.17 7.77067C109.073 7.92765 108.928 8.05438 108.734 8.15084C108.985 8.2246 109.177 8.35037 109.311 8.52816C109.447 8.70595 109.515 8.91589 109.515 9.15799C109.515 9.3528 109.474 9.53437 109.391 9.7027C109.309 9.86914 109.208 9.99775 109.088 10.0885C108.967 10.1793 108.815 10.2484 108.632 10.2956C108.45 10.341 108.227 10.3637 107.963 10.3637H106.38ZM106.929 7.95224H107.827C108.071 7.95224 108.245 7.93617 108.351 7.90401C108.491 7.8624 108.596 7.79337 108.666 7.69691C108.737 7.60045 108.773 7.4794 108.773 7.33377C108.773 7.1957 108.74 7.07465 108.674 6.97062C108.608 6.86471 108.514 6.79284 108.391 6.75501C108.268 6.71529 108.058 6.69543 107.759 6.69543H106.929V7.95224ZM106.929 9.87292H107.963C108.141 9.87292 108.265 9.8663 108.337 9.85306C108.463 9.83037 108.569 9.79254 108.654 9.73958C108.739 9.68662 108.809 9.61002 108.864 9.50978C108.919 9.40765 108.946 9.29038 108.946 9.15799C108.946 9.00289 108.906 8.86861 108.827 8.75513C108.748 8.63975 108.637 8.55937 108.496 8.51398C108.356 8.46669 108.154 8.44305 107.889 8.44305H106.929V9.87292Z" fill="white"/>
<path d="M110.507 6.20462H113.107V10.3637H112.557V6.69543H111.056V8.8374C111.056 9.27241 111.035 9.59111 110.994 9.79348C110.954 9.99586 110.869 10.1538 110.739 10.2673C110.609 10.3789 110.443 10.4347 110.243 10.4347C110.122 10.4347 109.977 10.412 109.807 10.3666L109.9 9.8786C109.991 9.91642 110.069 9.93534 110.133 9.93534C110.257 9.93534 110.351 9.889 110.413 9.79632C110.475 9.70175 110.507 9.48046 110.507 9.13245V6.20462Z" fill="white"/>
<path d="M113.554 10.3637L115.149 6.20462H115.741L117.44 10.3637H116.814L116.33 9.10408H114.594L114.138 10.3637H113.554ZM114.752 8.65583H116.16L115.727 7.50399C115.595 7.15409 115.496 6.8666 115.432 6.64153C115.379 6.90821 115.305 7.173 115.208 7.4359L114.752 8.65583Z" fill="white"/>
<path d="M118.449 6.20462H120.975V9.87292H121.349V11.334H120.859V10.3637H118.114V11.334H117.624V9.87292H117.947C118.282 9.36793 118.449 8.34754 118.449 6.81175V6.20462ZM120.426 6.69543H118.978V6.90821C118.978 7.26189 118.946 7.74608 118.882 8.36078C118.82 8.97358 118.696 9.47763 118.511 9.87292H120.426V6.69543Z" fill="white"/>
<path d="M122.015 10.3637V6.20462H125.017V6.69543H122.564V7.96926H124.861V8.45724H122.564V9.87292H125.113V10.3637H122.015Z" fill="white"/>
<path d="M126.175 6.20462H128.776V10.3637H128.226V6.69543H126.725V8.8374C126.725 9.27241 126.704 9.59111 126.663 9.79348C126.623 9.99586 126.538 10.1538 126.408 10.2673C126.277 10.3789 126.112 10.4347 125.912 10.4347C125.791 10.4347 125.646 10.412 125.476 10.3666L125.569 9.8786C125.66 9.91642 125.737 9.93534 125.802 9.93534C125.926 9.93534 126.02 9.889 126.082 9.79632C126.144 9.70175 126.175 9.48046 126.175 9.13245V6.20462Z" fill="white"/>
<path d="M129.699 6.20462H130.248V7.98061H131.24C131.702 7.98061 132.038 8.03452 132.245 8.14232C132.453 8.25013 132.602 8.39671 132.693 8.58207C132.783 8.76742 132.829 8.95845 132.829 9.15515C132.829 9.47668 132.719 9.75849 132.5 10.0006C132.281 10.2427 131.873 10.3637 131.277 10.3637H129.699V6.20462ZM130.248 9.89562H131.254C131.662 9.89562 131.927 9.82375 132.05 9.68C132.175 9.53437 132.237 9.35942 132.237 9.15515C132.237 8.98871 132.192 8.8478 132.101 8.73243C132.012 8.61516 131.893 8.53951 131.744 8.50547C131.595 8.47142 131.342 8.4544 130.985 8.4544H130.248V9.89562Z" fill="white"/>
<path d="M133.489 6.20462H134.038V9.87292H136.202V6.20462H136.755V9.87292H137.134V11.5184H136.647V10.3637H133.489V6.20462Z" fill="white"/>
<path d="M137.791 10.3637V6.20462H140.794V6.69543H138.341V7.96926H140.638V8.45724H138.341V9.87292H140.89V10.3637H137.791Z" fill="white"/>
<path d="M141.626 10.3637V6.20462H143.184C143.501 6.20462 143.755 6.24718 143.946 6.33229C144.139 6.41551 144.289 6.54507 144.396 6.72096C144.506 6.89497 144.561 7.07749 144.561 7.26851C144.561 7.4463 144.512 7.61369 144.416 7.77067C144.32 7.92765 144.174 8.05438 143.98 8.15084C144.231 8.2246 144.424 8.35037 144.558 8.52816C144.694 8.70595 144.762 8.91589 144.762 9.15799C144.762 9.3528 144.72 9.53437 144.637 9.7027C144.556 9.86914 144.455 9.99775 144.334 10.0885C144.213 10.1793 144.061 10.2484 143.878 10.2956C143.697 10.341 143.474 10.3637 143.21 10.3637H141.626ZM142.176 7.95224H143.074C143.317 7.95224 143.492 7.93617 143.598 7.90401C143.737 7.8624 143.842 7.79337 143.912 7.69691C143.984 7.60045 144.02 7.4794 144.02 7.33377C144.02 7.1957 143.987 7.07465 143.921 6.97062C143.854 6.86471 143.76 6.79284 143.637 6.75501C143.515 6.71529 143.304 6.69543 143.006 6.69543H142.176V7.95224ZM142.176 9.87292H143.21C143.387 9.87292 143.512 9.8663 143.583 9.85306C143.71 9.83037 143.816 9.79254 143.901 9.73958C143.986 9.68662 144.056 9.61002 144.11 9.50978C144.165 9.40765 144.192 9.29038 144.192 9.15799C144.192 9.00289 144.153 8.86861 144.073 8.75513C143.994 8.63975 143.884 8.55937 143.742 8.51398C143.602 8.46669 143.4 8.44305 143.136 8.44305H142.176V9.87292Z" fill="white"/>
</g>
<defs>
<clipPath id="clip0_3868_672">
<rect width="170" height="36" fill="white"/>
</clipPath>
</defs>
</svg>
