<svg width="24" height="20" viewBox="0 0 24 20" fill="none" xmlns="http://www.w3.org/2000/svg">
<path d="M23.7797 4.80615C23.7797 4.80615 23.5219 3.02022 22.8328 2.2374C21.9188 1.20146 20.8781 1.20146 20.4281 1.15459C17.0625 0.915527 12.0187 0.868652 12.0187 0.868652C12.0187 0.868652 10.7578 0.882715 9.075 0.92959C7.39219 0.957715 5.29219 1.03271 3.60938 1.15459C3.15937 1.20146 2.12344 1.24365 1.20469 2.2374C0.473438 3.01553 0.2625 4.80615 0.2625 4.80615C0.2625 4.80615 0.0234375 6.9249 0.0234375 9.0249V10.9796C0.0234375 13.0843 0.2625 15.1562 0.2625 15.1562C0.2625 15.1562 0.515625 16.9374 1.20937 17.7202C2.12344 18.7562 3.32812 18.7093 3.86719 18.8452C5.775 19.0421 12.0234 19.0843 12.0234 19.0843C12.0234 19.0843 17.0719 19.0843 20.4328 18.7983C20.8828 18.7515 21.9188 18.7093 22.8375 17.7155C23.5266 16.9327 23.7844 15.1468 23.7844 15.1468C23.7844 15.1468 24.0234 13.0421 24.0234 10.9702V9.01553C24.0234 6.92022 23.7797 4.80615 23.7797 4.80615ZM9.12188 14.7765V5.79522L16.9922 10.389L9.12188 14.7765Z" fill="#E4F1F3"/>
</svg>
