<svg width="24" height="14" viewBox="0 0 24 14" fill="none" xmlns="http://www.w3.org/2000/svg">
<path d="M23.3156 13.8063H19.8187C18.9 13.8719 18.1875 13.5344 17.5781 12.8875C17.1046 12.3766 16.6593 11.8703 16.1859 11.3594C15.9843 11.1578 15.7781 10.9516 15.539 10.8156C15.0656 10.5109 14.6578 10.6141 14.3859 11.0875C14.114 11.5984 14.0484 12.1422 14.0109 12.7188C13.9781 13.5344 13.739 13.7734 12.8906 13.8063C11.1234 13.8719 9.45933 13.6375 7.89839 12.7188C6.53902 11.9359 5.45152 10.8156 4.53745 9.55938C2.73276 7.1125 1.34058 4.43125 0.11714 1.64688C-0.154735 1.0375 0.0515147 0.695313 0.726515 0.6625C1.87964 0.629688 2.99995 0.629688 4.15776 0.6625C4.6312 0.6625 4.94058 0.934375 5.10933 1.375C5.7187 2.90312 6.4687 4.32812 7.42027 5.6875C7.65933 6.025 7.9312 6.4 8.30152 6.63906C8.70933 6.91094 9.01402 6.80781 9.22027 6.36719C9.3562 6.09531 9.38902 5.75781 9.42183 5.44844C9.52495 4.39375 9.52495 3.34375 9.3562 2.28906C9.25308 1.64219 8.88277 1.20156 8.23589 1.09844C7.89839 1.03281 7.96402 0.896875 8.09995 0.723437C8.37183 0.385937 8.6437 0.179688 9.18745 0.179688H13.125C13.7343 0.315625 13.8703 0.5875 13.9734 1.19687V5.57969C13.9734 5.81875 14.1093 6.53125 14.5171 6.7C14.8546 6.80313 15.0937 6.53125 15.3 6.325C16.2515 5.30781 16.9312 4.11719 17.5406 2.89375C17.8125 2.35 18.0515 1.80625 18.2531 1.22969C18.4218 0.821875 18.6937 0.620313 19.1343 0.620313H22.9406C23.0437 0.620313 23.1796 0.620312 23.2781 0.653125C23.925 0.75625 24.0937 1.02813 23.8875 1.67031C23.5828 2.65469 22.9687 3.47031 22.3593 4.28594C21.7125 5.16719 21.0328 6.02031 20.4234 6.90156C19.9125 7.71719 19.95 8.125 20.6625 8.8375C21.4453 9.62031 22.2937 10.3328 23.0062 11.2141C23.3109 11.5891 23.6156 11.9969 23.8546 12.4375C24.1968 13.0562 23.8921 13.7688 23.3156 13.8063Z" fill="#E4F1F3"/>
</svg>
