<svg width="24" height="24" viewBox="0 0 24 24" fill="none" xmlns="http://www.w3.org/2000/svg">
<path d="M13.4069 12.0066L23.6947 1.71883C24.0918 1.33535 24.1028 0.702618 23.7193 0.305552C23.3358 -0.0915141 22.7031 -0.102524 22.306 0.280955C22.2977 0.288978 22.2895 0.297177 22.2814 0.305552L11.9935 10.5934L1.70569 0.305493C1.30863 -0.0779857 0.675896 -0.0669757 0.292417 0.33009C-0.0816925 0.717435 -0.0816925 1.33148 0.292417 1.71883L10.5802 12.0066L0.292417 22.2945C-0.0977978 22.6847 -0.0977978 23.3175 0.292417 23.7077C0.68269 24.0979 1.31542 24.0979 1.70569 23.7077L11.9935 13.4199L22.2814 23.7077C22.6784 24.0912 23.3111 24.0802 23.6946 23.6831C24.0687 23.2958 24.0687 22.6817 23.6946 22.2945L13.4069 12.0066Z" fill="black" fill-opacity="0.15"/>
</svg>
