<svg width="32" height="32" viewBox="0 0 32 32" fill="none" xmlns="http://www.w3.org/2000/svg">
<g clip-path="url(#clip0_2216_2976)">
<path d="M11.5999 14.0812C11.2437 14.0812 10.9062 13.8937 10.7249 13.5812C10.7124 13.5625 10.6999 13.5437 10.6874 13.5187L8.31245 10.1625C7.54995 8.92498 6.1812 8.15623 4.72495 8.15623C4.7187 8.15623 4.7187 8.15623 4.71245 8.15623L0.924948 8.19998C0.406198 8.20623 -0.00630198 8.63123 -5.19772e-05 9.14998C0.00619802 9.66248 0.424948 10.075 0.937448 10.075C0.943698 10.075 0.943698 10.075 0.949948 10.075L4.7312 10.0312C5.5437 10.0312 6.3062 10.4687 6.72495 11.1625C6.73745 11.1812 6.74995 11.2 6.76245 11.2187L9.13745 14.575C9.66245 15.425 10.6062 15.95 11.5999 15.95C12.7874 15.95 13.7562 16.9187 13.7562 18.1062V20.2375C13.7562 20.8 13.2999 21.2562 12.7374 21.2562H9.62495C9.21245 19.75 7.83745 18.6437 6.19995 18.6437C4.56245 18.6437 3.18745 19.75 2.77495 21.2562H0.937448C0.418698 21.2562 -5.19772e-05 21.675 -5.19772e-05 22.1937C-5.19772e-05 22.7125 0.418698 23.1312 0.937448 23.1312H2.7812C3.1937 24.6375 4.5687 25.7437 6.2062 25.7437C7.8437 25.7437 9.2187 24.6375 9.6312 23.1312H12.7374C14.3374 23.1312 15.6312 21.8312 15.6312 20.2375V18.1062C15.6312 15.8937 13.8249 14.0812 11.5999 14.0812ZM6.2062 23.8812C5.2812 23.8812 4.5312 23.1312 4.5312 22.2062C4.5312 21.2812 5.2812 20.5312 6.2062 20.5312C7.1312 20.5312 7.8812 21.2812 7.8812 22.2062C7.8812 23.1312 7.12495 23.8812 6.2062 23.8812ZM-5.19772e-05 15.65C-5.19772e-05 15.1312 0.418698 14.7125 0.937448 14.7125H4.7062C5.22495 14.7125 5.6437 15.1312 5.6437 15.65C5.6437 16.1687 5.22495 16.5875 4.7062 16.5875H0.937448C0.418698 16.5875 -5.19772e-05 16.1687 -5.19772e-05 15.65ZM31.0625 21.2687H29.2187C28.8062 19.7625 27.4312 18.6562 25.7937 18.6562C24.1562 18.6562 22.7812 19.7625 22.3687 21.2687H19.2625C18.7 21.2687 18.2437 20.8125 18.2437 20.25V18.1187C18.2437 16.9312 19.2125 15.9625 20.4 15.9625C21.4 15.9625 22.3375 15.4375 22.8624 14.5875L25.2375 11.2312C25.25 11.2125 25.2625 11.1937 25.275 11.175C25.6937 10.475 26.4625 10.0437 27.275 10.0437H31.0625C31.5812 10.0437 32 9.62498 32 9.10623C32 8.58748 31.5812 8.16873 31.0625 8.16873H27.275C25.8187 8.16873 24.45 8.93748 23.6875 10.175L21.3125 13.5312C21.3 13.55 21.2875 13.5687 21.275 13.5937C21.0937 13.9 20.7562 14.0937 20.4 14.0937C18.1812 14.0937 16.3687 15.9 16.3687 18.125V20.2562C16.3687 21.8562 17.6687 23.15 19.2625 23.15H22.375C22.7875 24.6562 24.1625 25.7625 25.8 25.7625C27.4375 25.7625 28.8125 24.6562 29.225 23.15H31.0625C31.5812 23.15 32 22.7312 32 22.2125C32 21.6937 31.5812 21.2687 31.0625 21.2687ZM25.7937 23.8812C24.8687 23.8812 24.1187 23.1312 24.1187 22.2062C24.1187 21.2812 24.8687 20.5312 25.7937 20.5312C26.7187 20.5312 27.4687 21.2812 27.4687 22.2062C27.4687 23.1312 26.7187 23.8812 25.7937 23.8812ZM32 15.65C32 16.1687 31.5812 16.5875 31.0625 16.5875H27.2937C26.775 16.5875 26.3562 16.1687 26.3562 15.65C26.3562 15.1312 26.775 14.7125 27.2937 14.7125H31.0625C31.5812 14.7125 32 15.1375 32 15.65ZM18.5625 12.4562C18.1937 12.0875 18.1937 11.4937 18.5625 11.1312L20.3687 9.32498C20.7374 8.95623 21.3312 8.95623 21.6937 9.32498C22.0625 9.69373 22.0625 10.2875 21.6937 10.65L19.8875 12.4562C19.7062 12.6375 19.4625 12.7312 19.225 12.7312C18.9875 12.7312 18.7437 12.6437 18.5625 12.4562ZM16 11.2125C15.4812 11.2125 15.0624 10.7937 15.0624 10.275V7.18123C15.0624 6.66248 15.4812 6.24373 16 6.24373C16.5187 6.24373 16.9375 6.66248 16.9375 7.18123V10.275C16.9375 10.7937 16.5187 11.2125 16 11.2125ZM10.2999 10.65C9.9312 10.2812 9.9312 9.68748 10.2999 9.32498C10.6687 8.95623 11.2624 8.95623 11.6249 9.32498L13.4312 11.1312C13.7999 11.5 13.7999 12.0937 13.4312 12.4562C13.2499 12.6375 13.0062 12.7312 12.7687 12.7312C12.5312 12.7312 12.2874 12.6375 12.1062 12.4562L10.2999 10.65Z" fill="white"/>
<path d="M11.5999 14.0812C11.2437 14.0812 10.9062 13.8937 10.7249 13.5812C10.7124 13.5625 10.6999 13.5437 10.6874 13.5187L8.31245 10.1625C7.54995 8.92498 6.1812 8.15623 4.72495 8.15623C4.7187 8.15623 4.7187 8.15623 4.71245 8.15623L0.924948 8.19998C0.406198 8.20623 -0.00630198 8.63123 -5.19772e-05 9.14998C0.00619802 9.66248 0.424948 10.075 0.937448 10.075C0.943698 10.075 0.943698 10.075 0.949948 10.075L4.7312 10.0312C5.5437 10.0312 6.3062 10.4687 6.72495 11.1625C6.73745 11.1812 6.74995 11.2 6.76245 11.2187L9.13745 14.575C9.66245 15.425 10.6062 15.95 11.5999 15.95C12.7874 15.95 13.7562 16.9187 13.7562 18.1062V20.2375C13.7562 20.8 13.2999 21.2562 12.7374 21.2562H9.62495C9.21245 19.75 7.83745 18.6437 6.19995 18.6437C4.56245 18.6437 3.18745 19.75 2.77495 21.2562H0.937448C0.418698 21.2562 -5.19772e-05 21.675 -5.19772e-05 22.1937C-5.19772e-05 22.7125 0.418698 23.1312 0.937448 23.1312H2.7812C3.1937 24.6375 4.5687 25.7437 6.2062 25.7437C7.8437 25.7437 9.2187 24.6375 9.6312 23.1312H12.7374C14.3374 23.1312 15.6312 21.8312 15.6312 20.2375V18.1062C15.6312 15.8937 13.8249 14.0812 11.5999 14.0812ZM6.2062 23.8812C5.2812 23.8812 4.5312 23.1312 4.5312 22.2062C4.5312 21.2812 5.2812 20.5312 6.2062 20.5312C7.1312 20.5312 7.8812 21.2812 7.8812 22.2062C7.8812 23.1312 7.12495 23.8812 6.2062 23.8812ZM-5.19772e-05 15.65C-5.19772e-05 15.1312 0.418698 14.7125 0.937448 14.7125H4.7062C5.22495 14.7125 5.6437 15.1312 5.6437 15.65C5.6437 16.1687 5.22495 16.5875 4.7062 16.5875H0.937448C0.418698 16.5875 -5.19772e-05 16.1687 -5.19772e-05 15.65ZM31.0625 21.2687H29.2187C28.8062 19.7625 27.4312 18.6562 25.7937 18.6562C24.1562 18.6562 22.7812 19.7625 22.3687 21.2687H19.2625C18.7 21.2687 18.2437 20.8125 18.2437 20.25V18.1187C18.2437 16.9312 19.2125 15.9625 20.4 15.9625C21.4 15.9625 22.3375 15.4375 22.8624 14.5875L25.2375 11.2312C25.25 11.2125 25.2625 11.1937 25.275 11.175C25.6937 10.475 26.4625 10.0437 27.275 10.0437H31.0625C31.5812 10.0437 32 9.62498 32 9.10623C32 8.58748 31.5812 8.16873 31.0625 8.16873H27.275C25.8187 8.16873 24.45 8.93748 23.6875 10.175L21.3125 13.5312C21.3 13.55 21.2875 13.5687 21.275 13.5937C21.0937 13.9 20.7562 14.0937 20.4 14.0937C18.1812 14.0937 16.3687 15.9 16.3687 18.125V20.2562C16.3687 21.8562 17.6687 23.15 19.2625 23.15H22.375C22.7875 24.6562 24.1625 25.7625 25.8 25.7625C27.4375 25.7625 28.8125 24.6562 29.225 23.15H31.0625C31.5812 23.15 32 22.7312 32 22.2125C32 21.6937 31.5812 21.2687 31.0625 21.2687ZM25.7937 23.8812C24.8687 23.8812 24.1187 23.1312 24.1187 22.2062C24.1187 21.2812 24.8687 20.5312 25.7937 20.5312C26.7187 20.5312 27.4687 21.2812 27.4687 22.2062C27.4687 23.1312 26.7187 23.8812 25.7937 23.8812ZM32 15.65C32 16.1687 31.5812 16.5875 31.0625 16.5875H27.2937C26.775 16.5875 26.3562 16.1687 26.3562 15.65C26.3562 15.1312 26.775 14.7125 27.2937 14.7125H31.0625C31.5812 14.7125 32 15.1375 32 15.65ZM18.5625 12.4562C18.1937 12.0875 18.1937 11.4937 18.5625 11.1312L20.3687 9.32498C20.7374 8.95623 21.3312 8.95623 21.6937 9.32498C22.0625 9.69373 22.0625 10.2875 21.6937 10.65L19.8875 12.4562C19.7062 12.6375 19.4625 12.7312 19.225 12.7312C18.9875 12.7312 18.7437 12.6437 18.5625 12.4562ZM16 11.2125C15.4812 11.2125 15.0624 10.7937 15.0624 10.275V7.18123C15.0624 6.66248 15.4812 6.24373 16 6.24373C16.5187 6.24373 16.9375 6.66248 16.9375 7.18123V10.275C16.9375 10.7937 16.5187 11.2125 16 11.2125ZM10.2999 10.65C9.9312 10.2812 9.9312 9.68748 10.2999 9.32498C10.6687 8.95623 11.2624 8.95623 11.6249 9.32498L13.4312 11.1312C13.7999 11.5 13.7999 12.0937 13.4312 12.4562C13.2499 12.6375 13.0062 12.7312 12.7687 12.7312C12.5312 12.7312 12.2874 12.6375 12.1062 12.4562L10.2999 10.65Z" fill="black" fill-opacity="0.75"/>
</g>
<defs>
<clipPath id="clip0_2216_2976">
<rect width="32" height="32" fill="white"/>
</clipPath>
</defs>
</svg>
