<svg width="20" height="14" viewBox="0 0 20 14" fill="none" xmlns="http://www.w3.org/2000/svg">
<path d="M0 0.8C0 0.358172 0.358172 0 0.8 0H19.2C19.6418 0 20 0.358172 20 0.8C20 1.24183 19.6418 1.6 19.2 1.6H0.799999C0.358172 1.6 0 1.24183 0 0.8Z" fill="#FFED00"/>
<path d="M0 7C0 6.55817 0.358172 6.2 0.8 6.2H19.2C19.6418 6.2 20 6.55817 20 7C20 7.44183 19.6418 7.8 19.2 7.8H0.799999C0.358172 7.8 0 7.44183 0 7Z" fill="#FFED00"/>
<path d="M0 13.2C0 12.7582 0.358172 12.4 0.8 12.4H19.2C19.6418 12.4 20 12.7582 20 13.2C20 13.6418 19.6418 14 19.2 14H0.799999C0.358172 14 0 13.6418 0 13.2Z" fill="#FFED00"/>
</svg>
