<svg width="132" height="28" viewBox="0 0 132 28" fill="none" xmlns="http://www.w3.org/2000/svg">
<g clip-path="url(#clip0_2216_2928)">
<path fill-rule="evenodd" clip-rule="evenodd" d="M26.3641 4.82579H27.0585L32.5885 18.9677C32.82 19.5355 33.2573 19.8193 33.9517 19.8193H34.4404V20.5935H28.2931V19.8193H28.7818C29.4248 19.8193 29.8621 19.7419 30.145 19.6129C30.3251 19.5097 30.428 19.3548 30.428 19.1742C30.428 19.0452 30.4022 18.9161 30.3508 18.7871L29.0648 15.4839H22.9689L22.2487 17.3677C22.0687 17.8581 21.9658 18.271 21.9658 18.5548C21.9658 18.8903 22.1201 19.1742 22.4545 19.4322C22.7631 19.6645 23.2261 19.7935 23.8434 19.7935H24.3578V20.5677H18.7764V19.7935C19.3679 19.7935 19.8566 19.6645 20.191 19.4064C20.5254 19.1484 20.8598 18.6581 21.1427 17.9097L26.3641 4.82579ZM26.0554 7.79353L23.3033 14.6839H28.7561L26.0554 7.79353ZM18.9307 22.5548H34.3376V23.5355H18.9307V22.5548ZM34.8262 20.5935V19.8193H35.8551C36.4467 19.8193 36.7296 19.5097 36.7296 18.9161V12.2581C36.7296 11.8193 36.4724 11.5871 35.9837 11.5871H34.8777V10.8129H40.3563C41.3594 10.8129 42.1053 10.8645 42.6197 10.9935C43.1084 11.1226 43.5457 11.3806 43.88 11.7935C44.2144 12.1806 44.3945 12.671 44.3945 13.2387C44.3945 13.9355 44.1115 14.5032 43.5457 14.8903C42.9798 15.3032 42.3625 15.5097 41.668 15.5613C43.7514 15.8451 44.806 16.6968 44.806 18.0903C44.806 19.7677 43.4428 20.6193 40.7421 20.6193H34.8262V20.5935ZM38.5043 15.2H39.9447C41.6423 15.2 42.4911 14.6064 42.4911 13.4451C42.4911 12.2322 41.7195 11.6129 40.1762 11.6129H39.5589C38.8387 11.6129 38.5043 11.8968 38.5043 12.4903V15.2ZM38.5043 15.9742V18.9419C38.5043 19.2516 38.5558 19.4839 38.7101 19.6387C38.8387 19.7677 39.0702 19.8451 39.4046 19.8451H40.2534C41.3337 19.8451 42.0538 19.6903 42.3625 19.329C42.6711 18.9935 42.8255 18.5548 42.8255 18.0129C42.8255 16.6452 41.9767 15.9742 40.3048 15.9742H38.5043ZM34.3376 22.5548V23.5355H45.7834V22.5548H34.3376ZM46.8122 14.2968H46.0406L46.2721 10.8129H55.686L55.9174 14.2968H55.1458C54.9143 13.1097 54.6314 12.3613 54.2456 12.0516C53.8855 11.7419 53.4225 11.5871 52.8824 11.5871H51.7764V19.1226C51.7764 19.5871 52.0336 19.8193 52.548 19.8193H53.654V20.5935H48.0983V19.8193H49.1271C49.7187 19.8193 50.0273 19.5355 50.0273 18.9419V11.5871H49.0499C48.4326 11.5871 47.9439 11.7677 47.6096 12.129C47.2752 12.4903 47.018 13.2129 46.8122 14.2968ZM45.7834 22.5548H56.1746V23.5355H45.7834V22.5548ZM61.4732 10.5032C62.7849 10.5032 63.8909 10.9677 64.7912 11.9226C65.6914 12.8774 66.1287 14.1161 66.1287 15.6903C66.1287 16.7742 65.9229 17.6774 65.5371 18.4258C65.1513 19.1742 64.5597 19.7677 63.8395 20.2064C63.0936 20.6452 62.2962 20.8774 61.4474 20.8774C60.1871 20.8774 59.1068 20.3871 58.2323 19.4322C57.3578 18.4774 56.9206 17.2129 56.9206 15.6903C56.9206 14.1419 57.3578 12.9032 58.2323 11.9484C59.1068 10.9935 60.1871 10.5032 61.4732 10.5032ZM61.4732 11.2516C60.7015 11.2516 60.0585 11.6129 59.5441 12.3097C59.0554 13.0064 58.7982 14.1419 58.7982 15.6645C58.7982 17.2129 59.0554 18.3484 59.5441 19.071C60.0328 19.7935 60.6758 20.1548 61.4732 20.1548C62.2962 20.1548 62.9393 19.7935 63.4537 19.071C63.9681 18.3484 64.1996 17.1871 64.1996 15.5613C64.1996 14.0387 63.9424 12.9548 63.4537 12.2839C62.965 11.5871 62.2962 11.2516 61.4732 11.2516ZM56.1746 22.5548V23.5355H66.8489V22.5548H56.1746ZM71.0157 15.0193H72.8676C73.1248 13.471 73.6906 12.3355 74.5137 11.5871C75.3625 10.8645 76.3399 10.5032 77.4202 10.5032C78.6805 10.5032 79.7865 10.9677 80.6867 11.8968C81.6127 12.8258 82.0757 14.0903 82.0757 15.7161C82.0757 17.3677 81.6127 18.6322 80.661 19.5355C79.7093 20.4387 78.6291 20.8774 77.4202 20.8774C76.2627 20.8774 75.2596 20.4903 74.4108 19.6903C73.5363 18.9161 73.0219 17.6516 72.8418 15.8968H70.9899V19.071C70.9899 19.5355 71.2471 19.7677 71.7616 19.7677H72.8418V20.5419H67.3118V19.7677H68.3407C68.9323 19.7677 69.2152 19.4839 69.2152 18.8903V12.2839C69.2152 11.8193 68.958 11.5871 68.4436 11.5871H67.3118V10.8129H72.8933V11.5871H71.8644C71.2729 11.5871 70.9899 11.871 70.9899 12.4645V15.0193H71.0157ZM80.1723 15.5355C80.1723 13.9355 79.9151 12.8258 79.375 12.1806C78.8605 11.5613 78.1918 11.2258 77.4459 11.2258C76.5971 11.2258 75.9284 11.6129 75.4654 12.3871C75.0024 13.1613 74.7709 14.2451 74.7709 15.6387C74.7709 17.1355 75.0024 18.2451 75.4911 18.9935C75.9798 19.7419 76.6228 20.129 77.4459 20.129C79.2464 20.1548 80.1723 18.6064 80.1723 15.5355ZM66.8489 22.5548H82.7959V23.5355H66.8489V22.5548ZM86.5768 10.6322C86.7312 11.3548 86.834 12.0774 86.8598 12.7484C87.3485 11.9742 87.8372 11.4322 88.3773 11.1226C88.9174 10.8129 89.4833 10.6322 90.1006 10.6322C90.7693 10.6322 91.4124 10.8387 92.004 11.2516C92.6213 11.6645 93.11 12.2581 93.4958 13.0581C93.8816 13.8581 94.0616 14.7355 94.0616 15.7419C94.0616 17.3419 93.5987 18.6322 92.6727 19.6387C91.9011 20.4645 90.9751 20.9032 89.8948 20.9032C89.2775 20.9032 88.7374 20.7484 88.2487 20.4387C87.76 20.129 87.3227 19.6645 86.9369 19.0452V22.9677C86.9369 23.2774 87.0141 23.4839 87.1684 23.6129C87.3485 23.7677 87.6057 23.871 87.94 23.871H88.6602V24.6193H83.4646V23.871H84.1848C84.5191 23.871 84.7764 23.7935 84.9307 23.6645C85.1107 23.5355 85.1879 23.3548 85.1879 23.1484V12.8516C85.1879 12.3613 85.085 12.0258 84.8535 11.8193C84.622 11.6129 84.1591 11.5097 83.4903 11.4839V10.7871L86.5768 10.6322ZM89.6119 11.5871C88.866 11.5871 88.223 11.9484 87.6828 12.671C87.1684 13.3935 86.8855 14.4516 86.8855 15.8451C86.8855 17.2387 87.1427 18.271 87.6571 18.9419C88.1715 19.6129 88.8146 19.9484 89.5862 19.9484C90.3321 19.9484 90.898 19.6645 91.2838 19.0968C91.7982 18.3484 92.0554 17.2387 92.0554 15.7935C92.0554 14.271 91.8239 13.1871 91.3609 12.5419C90.9237 11.8968 90.3321 11.5871 89.6119 11.5871ZM82.7959 22.5548V23.5355H95.039V22.5548H82.7959ZM104.144 12.4645V12.0516C104.093 11.7419 103.836 11.5613 103.398 11.5613H102.292V10.7871H107.771V11.5613H106.794C106.202 11.5613 105.919 11.8451 105.919 12.4387V19.071C105.919 19.5355 106.176 19.7677 106.691 19.7677H107.797V20.5419H102.241V19.7677H103.27C103.861 19.7677 104.144 19.4839 104.144 18.8903V13.5742L99.2315 18.7355V19.0968C99.2315 19.5613 99.4888 19.7935 99.9775 19.7935H101.109V20.5677H95.5535V19.7935H96.5823C97.1739 19.7935 97.4568 19.5097 97.4568 18.9161V12.2839C97.4568 11.8193 97.1996 11.5871 96.7109 11.5871H95.6049V10.8129H101.109V11.5871H100.106C99.5145 11.5871 99.2315 11.871 99.2315 12.4645V17.6774L104.144 12.4645ZM95.039 22.5548H108.285V23.5355H95.0648V22.5548H95.039ZM116.439 17.7032L117.108 17.9097C116.567 19.9226 115.384 20.9032 113.532 20.9032C112.169 20.9032 111.063 20.4645 110.214 19.5613C109.366 18.6581 108.928 17.471 108.928 15.9742C108.928 14.2451 109.391 12.9032 110.343 11.9484C111.295 10.9935 112.401 10.529 113.687 10.529C114.638 10.529 115.436 10.7871 116.053 11.329C116.67 11.871 116.979 12.4387 116.979 13.1097C116.979 13.4968 116.876 13.8322 116.619 14.0645C116.387 14.3226 116.105 14.4516 115.796 14.4516C115.487 14.4516 115.23 14.3484 114.999 14.1161C114.793 13.9097 114.664 13.6258 114.664 13.3419C114.664 13.0322 114.793 12.7484 115.024 12.4645C115.127 12.3355 115.179 12.2322 115.179 12.1548C115.179 11.9484 115.05 11.7677 114.767 11.5613C114.484 11.3806 114.124 11.2774 113.661 11.2774C112.812 11.2774 112.169 11.5871 111.732 12.2064C111.115 13.1097 110.806 14.2968 110.806 15.7677C110.806 17.1613 111.089 18.2193 111.629 18.9419C112.195 19.6645 112.889 20.0258 113.764 20.0258C114.973 20 115.873 19.2258 116.439 17.7032ZM108.285 22.5548V23.5355H117.751V22.5548H108.285ZM118.677 5.13547H131.177L131.486 10.9677H130.765C130.302 7.53547 129.068 5.80644 127.062 5.80644C126.65 5.80644 126.393 5.88386 126.239 6.01289C126.084 6.14192 126.007 6.37418 126.007 6.70966V19.071C126.007 19.329 126.084 19.5097 126.239 19.6129C126.393 19.7419 126.624 19.7935 126.959 19.7935H128.502V20.5677H121.352V19.7935H123.126C123.358 19.7935 123.538 19.7419 123.666 19.6129C123.795 19.4839 123.847 19.329 123.847 19.1484V6.63224C123.847 6.37418 123.769 6.16773 123.615 6.0387C123.461 5.90966 123.203 5.83224 122.843 5.83224C121.84 5.83224 120.991 6.32257 120.323 7.27741C119.757 8.0516 119.371 9.31612 119.114 10.9935H118.342L118.677 5.13547ZM117.751 22.5548H131.974V23.5355H117.751V22.5548Z" fill="black"/>
<path fill-rule="evenodd" clip-rule="evenodd" d="M9.33667 20.6193H12.7833V25.2645H131.974V27.9484H9.33667V27.5096V25.2645V20.6193Z" fill="#FFED00" stroke="#FFED00" stroke-width="0.216" stroke-miterlimit="22.9256"/>
<path fill-rule="evenodd" clip-rule="evenodd" d="M0.231485 10.5032L10.4684 0.232237C10.7256 -0.0258275 11.1886 -0.0258275 11.4458 0.232237L21.6828 10.5032C21.94 10.7613 21.94 11.2258 21.6828 11.4839L11.4458 21.7548C11.1886 22.0129 10.7256 22.0129 10.4684 21.7548L0.231485 11.4839C-0.0514455 11.2258 -0.0514455 10.7613 0.231485 10.5032Z" fill="white" stroke="black" stroke-width="0.216" stroke-miterlimit="22.9256"/>
<path fill-rule="evenodd" clip-rule="evenodd" d="M3.78091 10.658L10.6227 3.79353C10.8027 3.61289 11.0857 3.61289 11.2657 3.79353L18.1075 10.658C18.2875 10.8387 18.2875 11.1226 18.1075 11.3032L11.2914 18.1935C11.1114 18.3742 10.8285 18.3742 10.6484 18.1935L3.78091 11.329C3.60086 11.1484 3.60086 10.8387 3.78091 10.658Z" fill="#FFED00" stroke="black" stroke-width="0.216" stroke-miterlimit="22.9256"/>
<path d="M37.432 7.14696L37.8389 7.04105C37.8697 7.19845 37.9518 7.35585 38.0852 7.51326C38.2201 7.67066 38.3982 7.74936 38.6196 7.74936C38.8454 7.74936 39.0236 7.69125 39.154 7.57504C39.2845 7.45883 39.3498 7.31834 39.3498 7.15358C39.3498 6.97558 39.2809 6.83436 39.143 6.72992C39.0052 6.624 38.8176 6.57104 38.58 6.57104H38.3755V6.19813C38.572 6.19813 38.7223 6.18709 38.8264 6.16503C38.9304 6.14149 39.0221 6.08339 39.1013 5.99071C39.1819 5.89656 39.2222 5.78991 39.2222 5.67075C39.2222 5.52953 39.1672 5.4067 39.0573 5.30225C38.9488 5.19781 38.8014 5.14558 38.6152 5.14558C38.4525 5.14558 38.3132 5.18677 38.1974 5.26915C38.083 5.35006 38.0038 5.45818 37.9598 5.59352C37.9158 5.72739 37.8939 5.82742 37.8939 5.89362L37.4848 5.80094C37.586 5.11396 37.9642 4.77046 38.6196 4.77046C38.9348 4.77046 39.1848 4.85873 39.3696 5.03525C39.5543 5.21031 39.6467 5.41552 39.6467 5.65089C39.6467 5.95246 39.5045 6.18636 39.22 6.35259C39.3842 6.39819 39.5213 6.4916 39.6313 6.63283C39.7427 6.77258 39.7984 6.94028 39.7984 7.13593C39.7984 7.41396 39.6907 7.64712 39.4751 7.83542C39.2611 8.02224 38.9766 8.11566 38.6218 8.11566C38.0119 8.11566 37.6153 7.79276 37.432 7.14696Z" fill="black"/>
<path d="M39.9766 8.06049L41.2148 4.82563H41.6744L42.994 8.06049H42.5079L42.1319 7.08076H40.7837L40.4296 8.06049H39.9766ZM40.9069 6.73212H41.9999L41.6634 5.83625C41.5608 5.5641 41.4845 5.3405 41.4347 5.16544C41.3936 5.37286 41.3357 5.57881 41.261 5.78329L40.9069 6.73212Z" fill="black"/>
<path d="M43.3415 4.82563H43.7681V7.67875H44.8392V4.82563H45.2658V7.67875H46.3369V4.82563H46.7636V7.67875H47.0561V8.95857H46.6756V8.06049H43.3415V4.82563Z" fill="black"/>
<path d="M47.5641 4.82563H47.9512V7.38748L49.6666 4.82563H50.0955V8.06049H49.7084V5.50526L47.9908 8.06049H47.5641V4.82563Z" fill="black"/>
<path d="M51.6152 8.06049V5.20737H50.5529V4.82563H53.1085V5.20737H52.0418V8.06049H51.6152Z" fill="black"/>
<path d="M53.0447 8.06049L54.2829 4.82563H54.7425L56.0621 8.06049H55.5761L55.2 7.08076H53.8518L53.4977 8.06049H53.0447ZM53.975 6.73212H55.068L54.7315 5.83625C54.6289 5.5641 54.5527 5.3405 54.5028 5.16544C54.4618 5.37286 54.4039 5.57881 54.3291 5.78329L53.975 6.73212Z" fill="black"/>
<path d="M57.661 4.82563H60.1968V8.06049H59.7679V5.20737H58.0876V8.06049H57.661V4.82563Z" fill="black"/>
<path d="M60.8939 8.06049V4.82563H62.1101C62.3242 4.82563 62.4877 4.83593 62.6006 4.85652C62.7589 4.883 62.8916 4.93375 62.9986 5.00878C63.1057 5.08233 63.1914 5.18604 63.256 5.3199C63.3219 5.45377 63.3549 5.60088 63.3549 5.76122C63.3549 6.03631 63.2677 6.26947 63.0932 6.46071C62.9187 6.65048 62.6035 6.74536 62.1475 6.74536H61.3206V8.06049H60.8939ZM61.3206 6.36362H62.1541C62.4298 6.36362 62.6255 6.31213 62.7413 6.20916C62.8572 6.10619 62.9151 5.96129 62.9151 5.77446C62.9151 5.63912 62.8806 5.52365 62.8117 5.42803C62.7443 5.33094 62.6548 5.26695 62.5434 5.23605C62.4715 5.21693 62.3389 5.20737 62.1453 5.20737H61.3206V6.36362Z" fill="black"/>
<path d="M63.2406 8.06049L64.4788 4.82563H64.9384L66.258 8.06049H65.7719L65.3959 7.08076H64.0477L63.6936 8.06049H63.2406ZM64.1709 6.73212H65.2639L64.9274 5.83625C64.8248 5.5641 64.7485 5.3405 64.6987 5.16544C64.6576 5.37286 64.5997 5.57881 64.5249 5.78329L64.1709 6.73212Z" fill="black"/>
<path d="M66.5813 8.06049V4.82563H67.7909C68.0372 4.82563 68.2344 4.85873 68.3825 4.92493C68.532 4.98965 68.6486 5.09042 68.7322 5.22723C68.8172 5.36257 68.8597 5.50452 68.8597 5.6531C68.8597 5.79138 68.8223 5.92157 68.7476 6.04367C68.6728 6.16576 68.5599 6.26433 68.4089 6.33935C68.6039 6.39672 68.7534 6.49455 68.8575 6.63283C68.9631 6.77111 69.0159 6.93439 69.0159 7.12269C69.0159 7.27421 68.9836 7.41543 68.9191 7.54635C68.8561 7.67581 68.7776 7.77584 68.6838 7.84645C68.5899 7.91706 68.4719 7.97076 68.3297 8.00753C68.1889 8.04284 68.0159 8.06049 67.8107 8.06049H66.5813ZM67.0079 6.18489H67.7051C67.8942 6.18489 68.0299 6.17238 68.112 6.14738C68.2205 6.11501 68.3018 6.06132 68.3561 5.9863C68.4118 5.91127 68.4397 5.81712 68.4397 5.70385C68.4397 5.59646 68.414 5.50232 68.3627 5.42141C68.3114 5.33903 68.2381 5.28313 68.1428 5.25371C68.0475 5.22281 67.884 5.20737 67.6523 5.20737H67.0079V6.18489ZM67.0079 7.67875H67.8107C67.9485 7.67875 68.0453 7.6736 68.101 7.6633C68.1992 7.64565 68.2813 7.61623 68.3473 7.57504C68.4133 7.53385 68.4675 7.47427 68.51 7.39631C68.5526 7.31687 68.5738 7.22566 68.5738 7.12269C68.5738 7.00206 68.543 6.89762 68.4814 6.80935C68.4199 6.71962 68.3341 6.6571 68.2241 6.62179C68.1156 6.58502 67.9588 6.56663 67.7535 6.56663H67.0079V7.67875Z" fill="black"/>
<path d="M70.5026 8.06049L71.7408 4.82563H72.2004L73.52 8.06049H73.034L72.6579 7.08076H71.3097L70.9556 8.06049H70.5026ZM71.4329 6.73212H72.5259L72.1894 5.83625C72.0868 5.5641 72.0106 5.3405 71.9607 5.16544C71.9197 5.37286 71.8617 5.57881 71.787 5.78329L71.4329 6.73212Z" fill="black"/>
<path d="M73.8433 8.06049V4.82563H75.0529C75.2992 4.82563 75.4964 4.85873 75.6445 4.92493C75.7941 4.98965 75.9106 5.09042 75.9942 5.22723C76.0792 5.36257 76.1217 5.50452 76.1217 5.6531C76.1217 5.79138 76.0844 5.92157 76.0096 6.04367C75.9348 6.16576 75.8219 6.26433 75.6709 6.33935C75.8659 6.39672 76.0154 6.49455 76.1195 6.63283C76.2251 6.77111 76.2779 6.93439 76.2779 7.12269C76.2779 7.27421 76.2456 7.41543 76.1811 7.54635C76.1181 7.67581 76.0396 7.77584 75.9458 7.84645C75.852 7.91706 75.7339 7.97076 75.5917 8.00753C75.451 8.04284 75.278 8.06049 75.0727 8.06049H73.8433ZM74.27 6.18489H74.9671C75.1563 6.18489 75.2919 6.17238 75.374 6.14738C75.4825 6.11501 75.5639 6.06132 75.6181 5.9863C75.6738 5.91127 75.7017 5.81712 75.7017 5.70385C75.7017 5.59646 75.676 5.50232 75.6247 5.42141C75.5734 5.33903 75.5001 5.28313 75.4048 5.25371C75.3095 5.22281 75.146 5.20737 74.9143 5.20737H74.27V6.18489ZM74.27 7.67875H75.0727C75.2105 7.67875 75.3073 7.6736 75.363 7.6633C75.4612 7.64565 75.5433 7.61623 75.6093 7.57504C75.6753 7.53385 75.7295 7.47427 75.7721 7.39631C75.8146 7.31687 75.8358 7.22566 75.8358 7.12269C75.8358 7.00206 75.805 6.89762 75.7435 6.80935C75.6819 6.71962 75.5961 6.6571 75.4862 6.62179C75.3777 6.58502 75.2208 6.56663 75.0155 6.56663H74.27V7.67875Z" fill="black"/>
<path d="M77.3819 8.06049V5.20737H76.3197V4.82563H78.8752V5.20737H77.8086V8.06049H77.3819Z" fill="black"/>
<path d="M78.983 6.48498C78.983 5.94805 79.1267 5.52806 79.4141 5.22502C79.7014 4.92051 80.0724 4.76826 80.5269 4.76826C80.8245 4.76826 81.0929 4.8396 81.3318 4.9823C81.5708 5.12499 81.7526 5.32432 81.8773 5.58028C82.0034 5.83478 82.0664 6.12384 82.0664 6.44747C82.0664 6.77552 82.0004 7.069 81.8685 7.3279C81.7365 7.58681 81.5496 7.7832 81.3077 7.91706C81.0657 8.04946 80.8048 8.11566 80.5247 8.11566C80.2212 8.11566 79.95 8.0421 79.711 7.895C79.472 7.74789 79.2909 7.54709 79.1678 7.2926C79.0446 7.0381 78.983 6.7689 78.983 6.48498ZM79.4229 6.4916C79.4229 6.88144 79.527 7.18889 79.7352 7.41396C79.9448 7.63756 80.2073 7.74936 80.5225 7.74936C80.8436 7.74936 81.1075 7.63609 81.3143 7.40955C81.5224 7.183 81.6265 6.86158 81.6265 6.44527C81.6265 6.18195 81.5818 5.95246 81.4924 5.75681C81.4044 5.55969 81.2747 5.40743 81.1031 5.30005C80.933 5.19119 80.7417 5.13676 80.5291 5.13676C80.2271 5.13676 79.9668 5.2412 79.7484 5.45009C79.5314 5.65751 79.4229 6.00468 79.4229 6.4916Z" fill="black"/>
<path d="M82.6008 8.06049V4.82563H83.8104C84.0568 4.82563 84.254 4.85873 84.402 4.92493C84.5516 4.98965 84.6681 5.09042 84.7517 5.22723C84.8368 5.36257 84.8793 5.50452 84.8793 5.6531C84.8793 5.79138 84.8419 5.92157 84.7671 6.04367C84.6923 6.16576 84.5794 6.26433 84.4284 6.33935C84.6234 6.39672 84.773 6.49455 84.8771 6.63283C84.9826 6.77111 85.0354 6.93439 85.0354 7.12269C85.0354 7.27421 85.0032 7.41543 84.9387 7.54635C84.8756 7.67581 84.7972 7.77584 84.7033 7.84645C84.6095 7.91706 84.4915 7.97076 84.3493 8.00753C84.2085 8.04284 84.0355 8.06049 83.8302 8.06049H82.6008ZM83.0275 6.18489H83.7247C83.9138 6.18489 84.0494 6.17238 84.1315 6.14738C84.24 6.11501 84.3214 6.06132 84.3756 5.9863C84.4314 5.91127 84.4592 5.81712 84.4592 5.70385C84.4592 5.59646 84.4336 5.50232 84.3822 5.42141C84.3309 5.33903 84.2576 5.28313 84.1623 5.25371C84.067 5.22281 83.9035 5.20737 83.6719 5.20737H83.0275V6.18489ZM83.0275 7.67875H83.8302C83.968 7.67875 84.0648 7.6736 84.1205 7.6633C84.2188 7.64565 84.3009 7.61623 84.3668 7.57504C84.4328 7.53385 84.4871 7.47427 84.5296 7.39631C84.5721 7.31687 84.5934 7.22566 84.5934 7.12269C84.5934 7.00206 84.5626 6.89762 84.501 6.80935C84.4394 6.71962 84.3537 6.6571 84.2437 6.62179C84.1352 6.58502 83.9783 6.56663 83.773 6.56663H83.0275V7.67875Z" fill="black"/>
<path d="M85.8052 4.82563H87.8241V8.06049H87.3975V5.20737H86.2318V6.87334C86.2318 7.21169 86.2157 7.45956 86.1835 7.61697C86.1527 7.77437 86.0867 7.8972 85.9855 7.98547C85.8844 8.07226 85.7561 8.11566 85.6006 8.11566C85.5068 8.11566 85.3939 8.098 85.262 8.0627L85.3345 7.68316C85.4049 7.71258 85.465 7.72729 85.5149 7.72729C85.6116 7.72729 85.6842 7.69125 85.7326 7.61917C85.781 7.54562 85.8052 7.37351 85.8052 7.10283V4.82563Z" fill="black"/>
<path d="M88.1716 8.06049L89.4098 4.82563H89.8694L91.189 8.06049H90.703L90.3269 7.08076H88.9787L88.6247 8.06049H88.1716ZM89.1019 6.73212H90.1949L89.8585 5.83625C89.7558 5.5641 89.6796 5.3405 89.6297 5.16544C89.5887 5.37286 89.5308 5.57881 89.456 5.78329L89.1019 6.73212Z" fill="black"/>
<path d="M91.972 4.82563H93.9337V7.67875H94.224V8.81514H93.8436V8.06049H91.7124V8.81514H91.332V7.67875H91.5827C91.8422 7.28598 91.972 6.49234 91.972 5.29784V4.82563ZM93.5071 5.20737H92.3832V5.37286C92.3832 5.64795 92.3583 6.02454 92.3085 6.50264C92.2601 6.97926 92.164 7.3713 92.0203 7.67875H93.5071V5.20737Z" fill="black"/>
<path d="M94.7409 8.06049V4.82563H97.0721V5.20737H95.1675V6.19813H96.9511V6.57766H95.1675V7.67875H97.1469V8.06049H94.7409Z" fill="black"/>
<path d="M97.9716 4.82563H99.9905V8.06049H99.5639V5.20737H98.3983V6.87334C98.3983 7.21169 98.3821 7.45956 98.3499 7.61697C98.3191 7.77437 98.2531 7.8972 98.1519 7.98547C98.0508 8.07226 97.9225 8.11566 97.7671 8.11566C97.6732 8.11566 97.5603 8.098 97.4284 8.0627L97.501 7.68316C97.5713 7.71258 97.6314 7.72729 97.6813 7.72729C97.7781 7.72729 97.8506 7.69125 97.899 7.61917C97.9474 7.54562 97.9716 7.37351 97.9716 7.10283V4.82563Z" fill="black"/>
<path d="M100.708 4.82563H101.134V6.20695H101.904C102.263 6.20695 102.523 6.24888 102.685 6.33273C102.846 6.41658 102.962 6.53059 103.032 6.67475C103.103 6.81892 103.138 6.96749 103.138 7.12048C103.138 7.37056 103.053 7.58975 102.883 7.77805C102.713 7.96634 102.396 8.06049 101.933 8.06049H100.708V4.82563ZM101.134 7.6964H101.915C102.232 7.6964 102.438 7.6405 102.533 7.5287C102.63 7.41543 102.678 7.27936 102.678 7.12048C102.678 6.99103 102.643 6.88144 102.572 6.7917C102.504 6.7005 102.411 6.64165 102.295 6.61517C102.18 6.58869 101.983 6.57545 101.706 6.57545H101.134V7.6964Z" fill="black"/>
<path d="M103.65 4.82563H104.077V7.67875H105.757V4.82563H106.186V7.67875H106.481V8.95857H106.102V8.06049H103.65V4.82563Z" fill="black"/>
<path d="M106.991 8.06049V4.82563H109.322V5.20737H107.418V6.19813H109.201V6.57766H107.418V7.67875H109.397V8.06049H106.991Z" fill="black"/>
<path d="M109.969 8.06049V4.82563H111.178C111.425 4.82563 111.622 4.85873 111.77 4.92493C111.919 4.98965 112.036 5.09042 112.12 5.22723C112.205 5.36257 112.247 5.50452 112.247 5.6531C112.247 5.79138 112.21 5.92157 112.135 6.04367C112.06 6.16576 111.947 6.26433 111.796 6.33935C111.991 6.39672 112.141 6.49455 112.245 6.63283C112.35 6.77111 112.403 6.93439 112.403 7.12269C112.403 7.27421 112.371 7.41543 112.307 7.54635C112.243 7.67581 112.165 7.77584 112.071 7.84645C111.977 7.91706 111.859 7.97076 111.717 8.00753C111.576 8.04284 111.403 8.06049 111.198 8.06049H109.969ZM110.395 6.18489H111.092C111.282 6.18489 111.417 6.17238 111.499 6.14738C111.608 6.11501 111.689 6.06132 111.743 5.9863C111.799 5.91127 111.827 5.81712 111.827 5.70385C111.827 5.59646 111.801 5.50232 111.75 5.42141C111.699 5.33903 111.625 5.28313 111.53 5.25371C111.435 5.22281 111.271 5.20737 111.04 5.20737H110.395V6.18489ZM110.395 7.67875H111.198C111.336 7.67875 111.433 7.6736 111.488 7.6633C111.587 7.64565 111.669 7.61623 111.735 7.57504C111.801 7.53385 111.855 7.47427 111.897 7.39631C111.94 7.31687 111.961 7.22566 111.961 7.12269C111.961 7.00206 111.93 6.89762 111.869 6.80935C111.807 6.71962 111.722 6.6571 111.612 6.62179C111.503 6.58502 111.346 6.56663 111.141 6.56663H110.395V7.67875Z" fill="black"/>
</g>
<defs>
<clipPath id="clip0_2216_2928">
<rect width="132" height="28" fill="white"/>
</clipPath>
</defs>
</svg>
