<svg width="32" height="30" viewBox="0 0 32 30" fill="none" xmlns="http://www.w3.org/2000/svg">
<path d="M31.45 27.25L22.95 20.35C26.55 15.4 26 8.5 21.6 4.1C19.2 1.65 16 0.349998 12.65 0.349998C9.3 0.349998 6.15 1.65 3.75 4.05C1.35 6.45 0 9.65 0 13C0 16.35 1.35 19.55 3.75 21.95C6.3 24.5 9.5 25.7 12.7 25.7C15.75 25.7 18.85 24.65 21.25 22.35L29.9 29.4C30.15 29.65 30.45 29.65 30.7 29.65C31.1 29.65 31.5 29.5 31.75 29.1C32.15 28.6 32.15 27.8 31.45 27.25ZM12.65 23C10 23 7.45 21.95 5.6 20.05C3.75 18.2 2.65 15.65 2.65 13C2.65 10.35 3.7 7.8 5.6 5.95C7.5 4.1 10 3 12.65 3C15.3 3 17.85 4.05 19.7 5.95C21.55 7.85 22.65 10.35 22.65 13C22.65 15.65 21.6 18.2 19.7 20.05C17.85 21.95 15.35 23 12.65 23Z" fill="white"/>
<path d="M31.45 27.25L22.95 20.35C26.55 15.4 26 8.5 21.6 4.1C19.2 1.65 16 0.349998 12.65 0.349998C9.3 0.349998 6.15 1.65 3.75 4.05C1.35 6.45 0 9.65 0 13C0 16.35 1.35 19.55 3.75 21.95C6.3 24.5 9.5 25.7 12.7 25.7C15.75 25.7 18.85 24.65 21.25 22.35L29.9 29.4C30.15 29.65 30.45 29.65 30.7 29.65C31.1 29.65 31.5 29.5 31.75 29.1C32.15 28.6 32.15 27.8 31.45 27.25ZM12.65 23C10 23 7.45 21.95 5.6 20.05C3.75 18.2 2.65 15.65 2.65 13C2.65 10.35 3.7 7.8 5.6 5.95C7.5 4.1 10 3 12.65 3C15.3 3 17.85 4.05 19.7 5.95C21.55 7.85 22.65 10.35 22.65 13C22.65 15.65 21.6 18.2 19.7 20.05C17.85 21.95 15.35 23 12.65 23Z" fill="black" fill-opacity="0.75"/>
</svg>
