<svg width="63" height="63" viewBox="0 0 63 63" fill="none" xmlns="http://www.w3.org/2000/svg">
<path d="M31.5 63C23.0861 63 15.1756 59.7235 9.22606 53.7739C3.27649 47.8244 0 39.9139 0 31.5C0 23.0861 3.27662 15.1757 9.22606 9.22606C15.1755 3.27637 23.0861 0 31.5 0C39.9139 0 47.8244 3.27649 53.7739 9.22606C59.7235 15.1756 63 23.0861 63 31.5C63 39.9139 59.7234 47.8243 53.7739 53.7739C47.8245 59.7236 39.9139 63 31.5 63ZM31.5 3.9375C16.302 3.9375 3.9375 16.302 3.9375 31.5C3.9375 46.698 16.302 59.0625 31.5 59.0625C46.698 59.0625 59.0625 46.698 59.0625 31.5C59.0625 16.302 46.698 3.9375 31.5 3.9375Z" fill="white"/>
<path d="M31.5 29.5312C28.7861 29.5312 26.5781 27.3233 26.5781 24.6094C26.5781 21.8955 28.7861 19.6875 31.5 19.6875C34.2139 19.6875 36.4219 21.8955 36.4219 24.6094C36.4219 25.6966 37.3033 26.5781 38.3906 26.5781C39.478 26.5781 40.3594 25.6966 40.3594 24.6094C40.3594 20.401 37.409 16.8712 33.4688 15.9732V13.7812C33.4688 12.694 32.5874 11.8125 31.5 11.8125C30.4126 11.8125 29.5312 12.694 29.5312 13.7812V15.9732C25.591 16.8712 22.6406 20.401 22.6406 24.6094C22.6406 29.4945 26.6149 33.4688 31.5 33.4688C34.2139 33.4688 36.4219 35.6767 36.4219 38.3906C36.4219 41.1045 34.2139 43.3125 31.5 43.3125C28.7861 43.3125 26.5781 41.1045 26.5781 38.3906C26.5781 37.3034 25.6967 36.4219 24.6094 36.4219C23.522 36.4219 22.6406 37.3034 22.6406 38.3906C22.6406 42.599 25.591 46.1288 29.5312 47.0268V49.2188C29.5312 50.306 30.4126 51.1875 31.5 51.1875C32.5874 51.1875 33.4688 50.306 33.4688 49.2188V47.0268C37.409 46.1288 40.3594 42.599 40.3594 38.3906C40.3594 33.5055 36.3851 29.5312 31.5 29.5312Z" fill="white"/>
</svg>
