<svg width="69" height="69" viewBox="0 0 69 69" fill="none" xmlns="http://www.w3.org/2000/svg">
<path d="M46.7915 40.5929L37.171 33.3775V18.6797C37.171 17.2019 35.9764 16.0073 34.4986 16.0073C33.0207 16.0073 31.8262 17.2019 31.8262 18.6797V34.7139C31.8262 35.5556 32.2217 36.3494 32.8951 36.8518L43.5845 44.8689C44.0655 45.2296 44.6267 45.4034 45.1852 45.4034C46.0003 45.4034 46.802 45.0372 47.3258 44.3317C48.2133 43.153 47.9727 41.4775 46.7915 40.5929Z" fill="white"/>
<path d="M34.5 0C15.4755 0 0 15.4755 0 34.5C0 53.5245 15.4755 69 34.5 69C53.5245 69 69 53.5245 69 34.5C69 15.4755 53.5245 0 34.5 0ZM34.5 63.6553C18.4258 63.6553 5.34467 50.5742 5.34467 34.5C5.34467 18.4258 18.4258 5.34467 34.5 5.34467C50.5769 5.34467 63.6553 18.4258 63.6553 34.5C63.6553 50.5742 50.5742 63.6553 34.5 63.6553Z" fill="white"/>
</svg>
