<svg width="68" height="68" viewBox="0 0 68 68" fill="none" xmlns="http://www.w3.org/2000/svg">
<path d="M47.0295 53.0722L43.4146 48.9835L40.4297 51.6228L46.901 58.9418L57.3824 48.0848L54.5159 45.3175L47.0295 53.0722Z" fill="white"/>
<path d="M49.0688 35.2394C48.7056 35.2394 48.3454 35.2526 47.988 35.2759L46.8328 15.5021H37.4058V11.6571C37.4057 5.22938 32.1763 0 25.7486 0C19.3208 0 14.0914 5.22938 14.0914 11.6571V15.5021H4.66436L2.57043 51.3447C2.40747 54.1355 3.37409 56.7924 5.2923 58.8259C7.21052 60.8594 9.80649 61.9793 12.6019 61.9793H36.3903C39.3967 65.6519 43.9635 68 49.0688 68C58.1009 68 65.449 60.6519 65.449 51.6198C65.449 42.5876 58.1009 35.2394 49.0688 35.2394ZM18.0757 11.6571C18.0757 7.42637 21.5177 3.98439 25.7484 3.98439C29.9792 3.98439 33.4213 7.42637 33.4213 11.6571V15.5021H18.0757V11.6571ZM12.6019 57.9949C10.9149 57.9949 9.34828 57.319 8.19068 56.0919C7.03308 54.8647 6.44977 53.2612 6.54805 51.5771L8.42271 19.4866H14.0913V24.4788H18.0757V19.4866H33.4213V24.4788H37.4057V19.4866H43.0743L44.0408 36.03C37.4611 38.1572 32.6886 44.3412 32.6886 51.6199C32.6886 53.88 33.1488 56.0346 33.9802 57.9951H12.6019V57.9949ZM49.0688 64.0156C42.2337 64.0156 36.673 58.4549 36.673 51.6198C36.673 44.7846 42.2337 39.2238 49.0688 39.2238C55.9039 39.2238 61.4646 44.7846 61.4646 51.6198C61.4646 58.4549 55.9039 64.0156 49.0688 64.0156Z" fill="white"/>
</svg>
