<svg width="70" height="70" viewBox="0 0 70 70" fill="none" xmlns="http://www.w3.org/2000/svg">
<path d="M61.7647 65.8824C61.7647 59.0709 56.2232 53.5294 49.4118 53.5294H45.0985L42.5453 27.9979C44.0498 28.5319 45.6679 28.8235 47.3529 28.8235H63.8235V26.7647C63.8235 20.0078 59.149 14.3231 52.8643 12.772C55.7986 10.132 57.6471 6.30741 57.6471 2.05882V0H47.3529C42.1165 0 37.524 2.80755 35 6.99602C32.476 2.80755 27.8835 0 22.6471 0H12.3529V2.05882C12.3529 6.30741 14.2014 10.132 17.1357 12.772C10.851 14.3231 6.17647 20.0078 6.17647 26.7647V28.8235H22.6471C24.3321 28.8235 25.9501 28.5319 27.4545 27.9979L24.9015 53.5294H20.5882C13.7768 53.5294 8.23529 59.0709 8.23529 65.8824H0V70H70V65.8824H61.7647ZM30.275 41.1765H39.725L40.1368 45.2941H29.8632L30.275 41.1765ZM49.4118 16.4706C54.383 16.4706 58.5424 20.013 59.499 24.7059H47.3529C42.3817 24.7059 38.2223 21.1635 37.2657 16.4706H49.4118ZM47.3529 4.11765H53.3226C52.3659 8.81053 48.2065 12.3529 43.2353 12.3529H37.2657C38.2223 7.66006 42.3817 4.11765 47.3529 4.11765ZM22.6471 4.11765C27.6183 4.11765 31.7777 7.66006 32.7343 12.3529H26.7647C21.7935 12.3529 17.6341 8.81053 16.6774 4.11765H22.6471ZM10.501 24.7059C11.4576 20.013 15.617 16.4706 20.5882 16.4706H32.7343C31.7777 21.1635 27.6183 24.7059 22.6471 24.7059H10.501ZM35 21.8275C35.8405 23.2224 36.9104 24.4642 38.1573 25.4999L39.3132 37.0588H30.6868L31.8426 25.5C33.0896 24.4642 34.1595 23.2224 35 21.8275ZM29.4515 49.4118H40.5485L40.9603 53.5294H29.0397L29.4515 49.4118ZM12.3529 65.8824C12.3529 61.3414 16.0473 57.6471 20.5882 57.6471H49.4118C53.9527 57.6471 57.6471 61.3414 57.6471 65.8824H12.3529Z" fill="white"/>
<path d="M59.7058 35.738C58.1956 34.0249 55.9871 32.9412 53.5293 32.9412V37.0588C55.7998 37.0588 57.6469 38.906 57.6469 41.1765H61.7646C61.7646 38.906 63.6118 37.0588 65.8822 37.0588V32.9412C63.4244 32.9412 61.216 34.0249 59.7058 35.738Z" fill="white"/>
<path d="M8.23483 49.4117H12.3525C12.3525 47.1412 14.1997 45.294 16.4701 45.294V41.1764C14.0123 41.1764 11.8039 42.2602 10.2937 43.9732C8.78344 42.2602 6.57501 41.1764 4.11719 41.1764V45.294C6.38766 45.294 8.23483 47.1412 8.23483 49.4117Z" fill="white"/>
</svg>
