<svg width="71" height="71" viewBox="0 0 71 71" fill="none" xmlns="http://www.w3.org/2000/svg">
<path d="M35.5 0C15.9254 0 0 15.9251 0 35.5C0 55.0749 15.9254 71 35.5 71C55.0746 71 71 55.0749 71 35.5C71 15.9251 55.0746 0 35.5 0ZM35.5 65.8049C18.7899 65.8049 5.19506 52.2101 5.19506 35.5C5.19506 18.7899 18.7899 5.19506 35.5 5.19506C52.2101 5.19506 65.8049 18.7899 65.8049 35.5C65.8049 52.2101 52.2101 65.8049 35.5 65.8049Z" fill="white"/>
<path d="M35.5004 45.0244C33.0932 45.0244 30.852 45.7108 29.0197 47.0096C26.9294 48.4913 25.3686 50.7258 24.3809 53.6511L29.303 55.3132C30.4604 51.8858 32.4876 50.2195 35.5004 50.2195C38.5228 50.2195 40.6042 51.922 41.6866 55.2792L46.631 53.685C44.8565 48.181 40.7996 45.0244 35.5004 45.0244Z" fill="white"/>
<path d="M29.6234 30.4324C24.0644 31.945 18.8949 34.8388 14.6738 38.8012L18.2295 42.589C21.8332 39.206 26.2449 36.7358 30.9873 35.4452L29.6234 30.4324Z" fill="white"/>
<path d="M41.3758 30.4325L40.0117 35.4452C44.754 36.7355 49.1656 39.2058 52.7697 42.5889L56.3251 38.8011C52.1042 34.8388 46.9348 31.945 41.3758 30.4325Z" fill="white"/>
</svg>
