<svg width="89" height="89" viewBox="0 0 89 89" fill="none" xmlns="http://www.w3.org/2000/svg">
<g clip-path="url(#clip0_52:668)">
<mask id="path-1-outside-1_52:668" maskUnits="userSpaceOnUse" x="14.6582" y="-0.925171" width="57" height="70" fill="black">
<rect fill="white" x="14.6582" y="-0.925171" width="57" height="70"/>
<path d="M65.8414 36.3934C65.6529 36.0034 65.572 35.5692 65.6078 35.1377L66.8612 19.9894C67.0021 18.2845 66.3708 16.6319 65.1291 15.4552C63.8876 14.2785 62.202 13.7371 60.5086 13.969C59.205 14.1478 57.9434 14.5732 56.8001 15.2144C56.7098 15.0907 56.6168 14.9685 56.5175 14.8499C54.1584 12.0353 49.9498 11.6644 47.1356 14.0224L36.9412 22.5543V20.6457C36.9412 20.5033 36.9835 20.3662 37.0639 20.2487L39.1782 17.1547C39.5839 16.561 39.4315 15.7509 38.8379 15.3453C38.2439 14.9393 37.434 15.092 37.0285 15.6857L34.9141 18.7797C34.5369 19.3317 34.3375 19.9769 34.3375 20.6457V24.7334L26.2244 31.5235V19.2617C26.2244 17.8584 26.6429 16.5041 27.4348 15.3455L34.881 4.44822C35.4923 3.5536 36.4154 2.95059 37.4803 2.75028C38.5452 2.54997 39.6242 2.77614 40.519 3.38766C41.4136 3.99883 42.0166 4.92209 42.2169 5.98699C42.4172 7.05172 42.191 8.13103 41.5797 9.02548L40.2135 11.0251C39.8078 11.6189 39.9604 12.4288 40.5539 12.8345C41.1471 13.2401 41.9576 13.0876 42.3631 12.4941L43.7293 10.4945C44.7329 9.02565 45.1046 7.25394 44.7756 5.50566C44.4467 3.75738 43.4566 2.24152 41.9878 1.23789C40.5191 0.234263 38.7474 -0.137368 36.9988 0.191563C35.2505 0.520493 33.7348 1.51058 32.7312 2.9794L25.285 13.8766C24.1964 15.4701 23.6208 17.3322 23.6208 19.2619V33.7028L19.7163 36.9704C16.9101 39.319 15.406 42.8993 15.6929 46.5474L16.5218 57.0846C16.5754 57.7668 17.1454 58.2846 17.8182 58.2844C17.8524 58.2844 17.887 58.283 17.9217 58.2804C18.6384 58.2241 19.1739 57.5972 19.1175 56.8807L18.2886 46.3434C18.0677 43.5335 19.2261 40.7761 21.3875 38.9672L48.8073 16.0188C50.5216 14.5821 53.0853 14.8081 54.522 16.5223C55.9586 18.2368 55.7327 20.8003 54.0183 22.237L39.7451 34.1985C38.8585 34.4129 38.0097 34.8393 37.2741 35.4793L30.2976 41.5518C29.7554 42.0239 29.6984 42.8462 30.1704 43.3884C30.6425 43.9307 31.4646 43.9874 32.0072 43.5157L38.9837 37.4432C40.197 36.3866 41.9673 36.3766 43.1929 37.4191L53.7444 46.3939C54.5698 47.096 55.0723 48.0775 55.1594 49.1575C55.2467 50.2376 54.9081 51.2869 54.206 52.1121C53.6927 52.7155 53.0143 53.1494 52.2622 53.3713L44.8799 47.0921C42.6658 45.2086 39.4671 45.227 37.2743 47.1354L30.2978 53.2079C29.7555 53.68 29.6986 54.5023 30.1706 55.0445C30.6427 55.587 31.4648 55.6437 32.0074 55.1718L38.9838 49.0993C40.1971 48.0429 41.9675 48.0325 43.1931 49.0752L53.7446 58.05C54.5699 58.7522 55.0725 59.7336 55.1596 60.8136C55.2469 61.8938 54.9082 62.943 54.2061 63.7682C53.5042 64.5936 52.5228 65.0961 51.4428 65.1832C50.3612 65.2702 49.3131 64.9317 48.4881 64.2298L41.9567 58.6742C41.4398 58.2346 40.6724 58.2656 40.1926 58.7452L38.2543 60.6836C37.7459 61.1922 37.7459 62.0163 38.2543 62.5247C38.7627 63.033 39.587 63.033 40.0953 62.5247L41.1845 61.4355L46.8009 66.2129C48.0162 67.2467 49.5272 67.8005 51.1053 67.8005C51.2867 67.8005 51.4693 67.793 51.6521 67.7782C53.4252 67.6352 55.0365 66.81 56.1893 65.4549C57.342 64.0998 57.898 62.377 57.7548 60.6037C57.6117 58.8305 56.7865 57.2191 55.4314 56.0664L54.4609 55.241C55.1096 54.8642 55.6959 54.3785 56.1893 53.7986C58.5687 51.0014 58.2288 46.7897 55.4314 44.4101L50.7533 40.431L53.5807 26.0002L55.6909 24.2318C57.0544 23.0893 57.8914 21.4841 58.0476 19.7118C58.1111 18.9904 58.0568 18.2772 57.8954 17.5923C58.8018 17.0516 59.8129 16.6917 60.8625 16.548C61.7703 16.423 62.6731 16.7138 63.3386 17.3444C64.0039 17.975 64.3422 18.8604 64.2667 19.7741L63.0133 34.9225C62.9392 35.8171 63.1069 36.7176 63.4978 37.5262L65.8159 42.3206C68.7367 48.3616 68.8355 55.337 66.0869 61.4584L64.5963 64.7779C64.3018 65.4339 64.5948 66.2044 65.2507 66.4988C65.424 66.5766 65.605 66.6134 65.7833 66.6134C66.2801 66.6134 66.7548 66.3273 66.9716 65.8444L68.4621 62.5249C71.5268 55.7 71.4166 47.9226 68.1601 41.1871L65.8414 36.3934ZM48.4787 38.4973L44.8796 35.4359C44.4267 35.0508 43.9324 34.7465 43.4142 34.5203L50.4058 28.6613L48.4787 38.4973Z"/>
</mask>
<path d="M65.8414 36.3934C65.6529 36.0034 65.572 35.5692 65.6078 35.1377L66.8612 19.9894C67.0021 18.2845 66.3708 16.6319 65.1291 15.4552C63.8876 14.2785 62.202 13.7371 60.5086 13.969C59.205 14.1478 57.9434 14.5732 56.8001 15.2144C56.7098 15.0907 56.6168 14.9685 56.5175 14.8499C54.1584 12.0353 49.9498 11.6644 47.1356 14.0224L36.9412 22.5543V20.6457C36.9412 20.5033 36.9835 20.3662 37.0639 20.2487L39.1782 17.1547C39.5839 16.561 39.4315 15.7509 38.8379 15.3453C38.2439 14.9393 37.434 15.092 37.0285 15.6857L34.9141 18.7797C34.5369 19.3317 34.3375 19.9769 34.3375 20.6457V24.7334L26.2244 31.5235V19.2617C26.2244 17.8584 26.6429 16.5041 27.4348 15.3455L34.881 4.44822C35.4923 3.5536 36.4154 2.95059 37.4803 2.75028C38.5452 2.54997 39.6242 2.77614 40.519 3.38766C41.4136 3.99883 42.0166 4.92209 42.2169 5.98699C42.4172 7.05172 42.191 8.13103 41.5797 9.02548L40.2135 11.0251C39.8078 11.6189 39.9604 12.4288 40.5539 12.8345C41.1471 13.2401 41.9576 13.0876 42.3631 12.4941L43.7293 10.4945C44.7329 9.02565 45.1046 7.25394 44.7756 5.50566C44.4467 3.75738 43.4566 2.24152 41.9878 1.23789C40.5191 0.234263 38.7474 -0.137368 36.9988 0.191563C35.2505 0.520493 33.7348 1.51058 32.7312 2.9794L25.285 13.8766C24.1964 15.4701 23.6208 17.3322 23.6208 19.2619V33.7028L19.7163 36.9704C16.9101 39.319 15.406 42.8993 15.6929 46.5474L16.5218 57.0846C16.5754 57.7668 17.1454 58.2846 17.8182 58.2844C17.8524 58.2844 17.887 58.283 17.9217 58.2804C18.6384 58.2241 19.1739 57.5972 19.1175 56.8807L18.2886 46.3434C18.0677 43.5335 19.2261 40.7761 21.3875 38.9672L48.8073 16.0188C50.5216 14.5821 53.0853 14.8081 54.522 16.5223C55.9586 18.2368 55.7327 20.8003 54.0183 22.237L39.7451 34.1985C38.8585 34.4129 38.0097 34.8393 37.2741 35.4793L30.2976 41.5518C29.7554 42.0239 29.6984 42.8462 30.1704 43.3884C30.6425 43.9307 31.4646 43.9874 32.0072 43.5157L38.9837 37.4432C40.197 36.3866 41.9673 36.3766 43.1929 37.4191L53.7444 46.3939C54.5698 47.096 55.0723 48.0775 55.1594 49.1575C55.2467 50.2376 54.9081 51.2869 54.206 52.1121C53.6927 52.7155 53.0143 53.1494 52.2622 53.3713L44.8799 47.0921C42.6658 45.2086 39.4671 45.227 37.2743 47.1354L30.2978 53.2079C29.7555 53.68 29.6986 54.5023 30.1706 55.0445C30.6427 55.587 31.4648 55.6437 32.0074 55.1718L38.9838 49.0993C40.1971 48.0429 41.9675 48.0325 43.1931 49.0752L53.7446 58.05C54.5699 58.7522 55.0725 59.7336 55.1596 60.8136C55.2469 61.8938 54.9082 62.943 54.2061 63.7682C53.5042 64.5936 52.5228 65.0961 51.4428 65.1832C50.3612 65.2702 49.3131 64.9317 48.4881 64.2298L41.9567 58.6742C41.4398 58.2346 40.6724 58.2656 40.1926 58.7452L38.2543 60.6836C37.7459 61.1922 37.7459 62.0163 38.2543 62.5247C38.7627 63.033 39.587 63.033 40.0953 62.5247L41.1845 61.4355L46.8009 66.2129C48.0162 67.2467 49.5272 67.8005 51.1053 67.8005C51.2867 67.8005 51.4693 67.793 51.6521 67.7782C53.4252 67.6352 55.0365 66.81 56.1893 65.4549C57.342 64.0998 57.898 62.377 57.7548 60.6037C57.6117 58.8305 56.7865 57.2191 55.4314 56.0664L54.4609 55.241C55.1096 54.8642 55.6959 54.3785 56.1893 53.7986C58.5687 51.0014 58.2288 46.7897 55.4314 44.4101L50.7533 40.431L53.5807 26.0002L55.6909 24.2318C57.0544 23.0893 57.8914 21.4841 58.0476 19.7118C58.1111 18.9904 58.0568 18.2772 57.8954 17.5923C58.8018 17.0516 59.8129 16.6917 60.8625 16.548C61.7703 16.423 62.6731 16.7138 63.3386 17.3444C64.0039 17.975 64.3422 18.8604 64.2667 19.7741L63.0133 34.9225C62.9392 35.8171 63.1069 36.7176 63.4978 37.5262L65.8159 42.3206C68.7367 48.3616 68.8355 55.337 66.0869 61.4584L64.5963 64.7779C64.3018 65.4339 64.5948 66.2044 65.2507 66.4988C65.424 66.5766 65.605 66.6134 65.7833 66.6134C66.2801 66.6134 66.7548 66.3273 66.9716 65.8444L68.4621 62.5249C71.5268 55.7 71.4166 47.9226 68.1601 41.1871L65.8414 36.3934ZM48.4787 38.4973L44.8796 35.4359C44.4267 35.0508 43.9324 34.7465 43.4142 34.5203L50.4058 28.6613L48.4787 38.4973Z" fill="white"/>
<path d="M65.8414 36.3934C65.6529 36.0034 65.572 35.5692 65.6078 35.1377L66.8612 19.9894C67.0021 18.2845 66.3708 16.6319 65.1291 15.4552C63.8876 14.2785 62.202 13.7371 60.5086 13.969C59.205 14.1478 57.9434 14.5732 56.8001 15.2144C56.7098 15.0907 56.6168 14.9685 56.5175 14.8499C54.1584 12.0353 49.9498 11.6644 47.1356 14.0224L36.9412 22.5543V20.6457C36.9412 20.5033 36.9835 20.3662 37.0639 20.2487L39.1782 17.1547C39.5839 16.561 39.4315 15.7509 38.8379 15.3453C38.2439 14.9393 37.434 15.092 37.0285 15.6857L34.9141 18.7797C34.5369 19.3317 34.3375 19.9769 34.3375 20.6457V24.7334L26.2244 31.5235V19.2617C26.2244 17.8584 26.6429 16.5041 27.4348 15.3455L34.881 4.44822C35.4923 3.5536 36.4154 2.95059 37.4803 2.75028C38.5452 2.54997 39.6242 2.77614 40.519 3.38766C41.4136 3.99883 42.0166 4.92209 42.2169 5.98699C42.4172 7.05172 42.191 8.13103 41.5797 9.02548L40.2135 11.0251C39.8078 11.6189 39.9604 12.4288 40.5539 12.8345C41.1471 13.2401 41.9576 13.0876 42.3631 12.4941L43.7293 10.4945C44.7329 9.02565 45.1046 7.25394 44.7756 5.50566C44.4467 3.75738 43.4566 2.24152 41.9878 1.23789C40.5191 0.234263 38.7474 -0.137368 36.9988 0.191563C35.2505 0.520493 33.7348 1.51058 32.7312 2.9794L25.285 13.8766C24.1964 15.4701 23.6208 17.3322 23.6208 19.2619V33.7028L19.7163 36.9704C16.9101 39.319 15.406 42.8993 15.6929 46.5474L16.5218 57.0846C16.5754 57.7668 17.1454 58.2846 17.8182 58.2844C17.8524 58.2844 17.887 58.283 17.9217 58.2804C18.6384 58.2241 19.1739 57.5972 19.1175 56.8807L18.2886 46.3434C18.0677 43.5335 19.2261 40.7761 21.3875 38.9672L48.8073 16.0188C50.5216 14.5821 53.0853 14.8081 54.522 16.5223C55.9586 18.2368 55.7327 20.8003 54.0183 22.237L39.7451 34.1985C38.8585 34.4129 38.0097 34.8393 37.2741 35.4793L30.2976 41.5518C29.7554 42.0239 29.6984 42.8462 30.1704 43.3884C30.6425 43.9307 31.4646 43.9874 32.0072 43.5157L38.9837 37.4432C40.197 36.3866 41.9673 36.3766 43.1929 37.4191L53.7444 46.3939C54.5698 47.096 55.0723 48.0775 55.1594 49.1575C55.2467 50.2376 54.9081 51.2869 54.206 52.1121C53.6927 52.7155 53.0143 53.1494 52.2622 53.3713L44.8799 47.0921C42.6658 45.2086 39.4671 45.227 37.2743 47.1354L30.2978 53.2079C29.7555 53.68 29.6986 54.5023 30.1706 55.0445C30.6427 55.587 31.4648 55.6437 32.0074 55.1718L38.9838 49.0993C40.1971 48.0429 41.9675 48.0325 43.1931 49.0752L53.7446 58.05C54.5699 58.7522 55.0725 59.7336 55.1596 60.8136C55.2469 61.8938 54.9082 62.943 54.2061 63.7682C53.5042 64.5936 52.5228 65.0961 51.4428 65.1832C50.3612 65.2702 49.3131 64.9317 48.4881 64.2298L41.9567 58.6742C41.4398 58.2346 40.6724 58.2656 40.1926 58.7452L38.2543 60.6836C37.7459 61.1922 37.7459 62.0163 38.2543 62.5247C38.7627 63.033 39.587 63.033 40.0953 62.5247L41.1845 61.4355L46.8009 66.2129C48.0162 67.2467 49.5272 67.8005 51.1053 67.8005C51.2867 67.8005 51.4693 67.793 51.6521 67.7782C53.4252 67.6352 55.0365 66.81 56.1893 65.4549C57.342 64.0998 57.898 62.377 57.7548 60.6037C57.6117 58.8305 56.7865 57.2191 55.4314 56.0664L54.4609 55.241C55.1096 54.8642 55.6959 54.3785 56.1893 53.7986C58.5687 51.0014 58.2288 46.7897 55.4314 44.4101L50.7533 40.431L53.5807 26.0002L55.6909 24.2318C57.0544 23.0893 57.8914 21.4841 58.0476 19.7118C58.1111 18.9904 58.0568 18.2772 57.8954 17.5923C58.8018 17.0516 59.8129 16.6917 60.8625 16.548C61.7703 16.423 62.6731 16.7138 63.3386 17.3444C64.0039 17.975 64.3422 18.8604 64.2667 19.7741L63.0133 34.9225C62.9392 35.8171 63.1069 36.7176 63.4978 37.5262L65.8159 42.3206C68.7367 48.3616 68.8355 55.337 66.0869 61.4584L64.5963 64.7779C64.3018 65.4339 64.5948 66.2044 65.2507 66.4988C65.424 66.5766 65.605 66.6134 65.7833 66.6134C66.2801 66.6134 66.7548 66.3273 66.9716 65.8444L68.4621 62.5249C71.5268 55.7 71.4166 47.9226 68.1601 41.1871L65.8414 36.3934ZM48.4787 38.4973L44.8796 35.4359C44.4267 35.0508 43.9324 34.7465 43.4142 34.5203L50.4058 28.6613L48.4787 38.4973Z" stroke="white" stroke-width="1.6" mask="url(#path-1-outside-1_52:668)"/>
<path d="M64.1963 68.8466L64.1962 68.8465C63.339 68.4618 62.3318 68.844 61.9467 69.702C61.9467 69.702 61.9467 69.7021 61.9467 69.7021L58.6126 77.1268C58.5141 77.3461 58.4633 77.5837 58.4633 77.8239V87.6981C58.4633 88.6381 59.2251 89.3999 60.1651 89.3999C61.1052 89.3999 61.867 88.6381 61.867 87.6981V78.1885L65.0517 71.0962C65.0517 71.0962 65.0517 71.0962 65.0517 71.0962C65.4368 70.2388 65.0535 69.2316 64.1963 68.8466Z" fill="white" stroke="white" stroke-width="0.8"/>
<path d="M56.4737 8.50159C57.4137 8.50159 58.1755 7.7398 58.1755 6.79975V1.30184C58.1755 0.361791 57.4137 -0.4 56.4737 -0.4C55.5337 -0.4 54.7719 0.361791 54.7719 1.30184V6.79975C54.7719 7.73963 55.5338 8.50159 56.4737 8.50159Z" fill="white" stroke="white" stroke-width="0.8"/>
<path d="M61.8371 9.74595L61.8371 9.74597C62.0991 9.8919 62.3835 9.96109 62.6642 9.96109C63.2604 9.96109 63.8407 9.64648 64.1523 9.08712L64.1523 9.08709L66.8273 4.28383L66.8273 4.28379C67.2845 3.46266 66.9896 2.42617 66.1686 1.9689L66.1685 1.96888C65.3474 1.51169 64.3109 1.8066 63.8536 2.62763L63.8536 2.62764L61.1786 7.4309L61.5281 7.62552L61.1786 7.4309C60.7212 8.25224 61.0162 9.28852 61.8371 9.74595Z" fill="white" stroke="white" stroke-width="0.8"/>
<path d="M71.1426 8.20463L71.1425 8.20471L66.4684 11.0995L66.4684 11.0995C65.6695 11.5944 65.4228 12.6434 65.9177 13.4424C66.2399 13.9626 66.7971 14.2483 67.3657 14.2483C67.6719 14.2483 67.982 14.1656 68.2606 13.993L72.9346 11.0984C72.9346 11.0983 72.9346 11.0983 72.9347 11.0983C73.7339 10.6036 73.9804 9.55454 73.4854 8.75542C72.9904 7.95638 71.9418 7.7101 71.1426 8.20463Z" fill="white" stroke="white" stroke-width="0.8"/>
<path d="M16.5969 62.7549C17.0923 66.5552 18.6132 70.1464 20.9953 73.1399C20.9953 73.1399 20.9953 73.1399 20.9953 73.1399L26.2795 79.7808V87.6134C26.2795 88.5534 27.0415 89.3152 27.9814 89.3152C28.9212 89.3152 29.6832 88.5534 29.6832 87.6134V79.1863C29.6832 78.8015 29.5528 78.4278 29.3131 78.1266L23.6588 71.0207L23.6588 71.0207C21.6624 68.5119 20.3875 65.5015 19.972 62.3149L19.9719 62.3148C19.8502 61.3825 18.9968 60.728 18.0653 60.8471L18.0643 60.8472C17.1324 60.9689 16.4752 61.8228 16.5969 62.7549ZM16.5969 62.7549L16.9935 62.7032L16.5969 62.7549Z" fill="white" stroke="white" stroke-width="0.8"/>
</g>
<defs>
<clipPath id="clip0_52:668">
<rect width="89" height="89" fill="white"/>
</clipPath>
</defs>
</svg>
