<svg width="55" height="55" viewBox="0 0 55 55" fill="none" xmlns="http://www.w3.org/2000/svg">
<g clip-path="url(#clip0_52:647)">
<path d="M31.2125 54.8926H22.3875C20.9135 54.8926 19.7144 53.6958 19.7144 52.2247V32.3583H14.5657C13.0917 32.3583 11.8926 31.1612 11.8926 29.6904V21.1776C11.8926 19.7065 13.0917 18.5097 14.5657 18.5097H19.7144V14.2468C19.7144 10.02 21.0442 6.42391 23.5597 3.84789C26.0866 1.26011 29.6178 -0.107422 33.7717 -0.107422L40.5021 -0.0965119C41.9736 -0.0939941 43.1706 1.10275 43.1706 2.57141V10.4753C43.1706 11.9465 41.972 13.1432 40.4983 13.1432L35.9669 13.1449C34.5849 13.1449 34.233 13.4214 34.1577 13.5062C34.0337 13.6468 33.8861 14.0442 33.8861 15.1415V18.5093H40.1578C40.6299 18.5093 41.0874 18.6255 41.4805 18.8446C42.3285 19.3175 42.8557 20.2117 42.8557 21.1781L42.8524 29.6908C42.8524 31.1612 41.6533 32.3579 40.1792 32.3579H33.8861V52.2247C33.8861 53.6958 32.6866 54.8926 31.2125 54.8926ZM22.945 51.6683H30.655V30.9148C30.655 29.9325 31.456 29.1336 32.4398 29.1336H39.6217L39.6247 21.7341H32.4394C31.4556 21.7341 30.655 20.9351 30.655 19.9528V15.1415C30.655 13.8818 30.7833 12.4492 31.736 11.3725C32.8871 10.0708 34.7013 9.92058 35.966 9.92058L39.94 9.9189V3.12698L33.7692 3.11691C27.0935 3.11691 22.945 7.3819 22.945 14.2468V19.9528C22.945 20.9347 22.1445 21.7341 21.1607 21.7341H15.1232V29.1336H21.1607C22.1445 29.1336 22.945 29.9325 22.945 30.9148V51.6683ZM40.4958 3.12782H40.4962H40.4958Z" fill="white"/>
</g>
<defs>
<clipPath id="clip0_52:647">
<rect width="55" height="55" fill="white"/>
</clipPath>
</defs>
</svg>
