<svg width="64" height="64" viewBox="0 0 64 64" fill="none" xmlns="http://www.w3.org/2000/svg">
<path d="M52.1393 7.99209C51.4972 8.0388 50.867 8.18942 50.2733 8.43809H50.2653C49.6953 8.66409 46.9853 9.80409 42.8653 11.5321L28.1013 17.7501C17.5073 22.2101 7.09326 26.6021 7.09326 26.6021L7.21726 26.5541C7.21726 26.5541 6.49926 26.7901 5.74926 27.3041C5.28592 27.5989 4.88721 27.9847 4.57726 28.4381C4.20926 28.9781 3.91326 29.8041 4.02326 30.6581C4.20326 32.1021 5.13926 32.9681 5.81126 33.4461C6.49126 33.9301 7.13926 34.1561 7.13926 34.1561H7.15526L16.9213 37.4461C17.3593 38.8521 19.8973 47.1961 20.5073 49.1181C20.8673 50.2661 21.2173 50.9841 21.6553 51.5321C21.8673 51.8121 22.1153 52.0461 22.4133 52.2341C22.5682 52.3242 22.7334 52.3954 22.9053 52.4461L22.8053 52.4221C22.8353 52.4301 22.8593 52.4541 22.8813 52.4621C22.9613 52.4841 23.0153 52.4921 23.1173 52.5081C24.6633 52.9761 25.9053 52.0161 25.9053 52.0161L25.9753 51.9601L31.7413 46.7101L41.4053 54.1241L41.6253 54.2181C43.6393 55.1021 45.6793 54.6101 46.7573 53.7421C47.8433 52.8681 48.2653 51.7501 48.2653 51.7501L48.3353 51.5701L55.8033 13.3121C56.0153 12.3681 56.0693 11.4841 55.8353 10.6261C55.5939 9.75774 55.0368 9.0109 54.2733 8.53209C53.6321 8.14232 52.8886 7.95418 52.1393 7.99209ZM51.9373 12.0921C51.9293 12.2181 51.9533 12.2041 51.8973 12.4461V12.4681L44.4993 50.3281C44.4673 50.3821 44.4133 50.5001 44.2653 50.6181C44.1093 50.7421 43.9853 50.8201 43.3353 50.5621L31.5153 41.5001L24.3753 48.0081L25.8753 38.4281L45.1873 20.4281C45.9833 19.6881 45.7173 19.5321 45.7173 19.5321C45.7733 18.6241 44.5153 19.2661 44.5153 19.2661L20.1633 34.3521L20.1553 34.3121L8.48326 30.3821V30.3741L8.45326 30.3681C8.47372 30.3613 8.49376 30.3533 8.51326 30.3441L8.57726 30.3121L8.63926 30.2901C8.63926 30.2901 19.0613 25.8981 29.6553 21.4381C34.9593 19.2041 40.3033 16.9541 44.4133 15.2181C48.5233 13.4921 51.5613 12.2261 51.7333 12.1581C51.8973 12.0941 51.8193 12.0941 51.9373 12.0941V12.0921Z" fill="white"/>
</svg>
