<svg width="58" height="58" viewBox="0 0 58 58" fill="none" xmlns="http://www.w3.org/2000/svg">
<g clip-path="url(#clip0_52:649)">
<path d="M15.292 49.247C15.2171 52.7874 14.799 56.8329 17.8803 57.8092C20.9011 58.7928 22.6532 56.3641 26.5924 51.4341C41.2809 52.437 54.2463 48.3069 55.9815 33.5C57.5354 20.3364 55.5271 10.4885 50.3579 5.80256C42.7768 -1.46194 18.1002 -2.47935 9.06671 6.1554C5.34746 10.0245 3.53496 15.7012 3.3658 24.0218C3.22805 30.8175 2.94771 44.7133 15.292 49.247ZM6.9908 24.0967C7.14063 16.7428 8.6293 11.8394 11.6235 8.7219C19.166 1.5154 41.5177 2.34915 47.8856 8.45848C52.1365 12.3082 53.7775 21.2813 52.383 33.0771C51.1167 43.8941 44.1519 45.7404 41.5298 46.434C36.0995 47.8671 30.923 48.1788 25.9568 47.7486C24.6494 47.6085 24.1346 48.8458 23.6585 49.2953C21.2926 52.1397 19.5865 54.1939 19.1442 54.4694C18.818 53.9836 18.8687 51.6854 18.9074 49.8391C18.789 49.0077 19.5333 46.7095 17.5927 46.1899C6.60896 42.9467 6.85788 30.687 6.9908 24.0967Z" fill="white"/>
<path d="M13.9242 19.2849C15.8599 23.1443 17.7473 29.9641 24.9949 35.8995C27.5107 37.973 35.041 42.758 37.9893 42.758C42.2016 42.758 47.0132 36.1315 43.4897 33.1759C41.9043 31.6268 39.6738 30.1019 38.2431 29.2633C38.2407 29.2609 38.2383 29.2609 38.2383 29.2609C34.5238 27.1125 32.489 31.0661 32.2473 31.2208C26.805 36.0928 20.1012 27.6296 24.7992 23.5358C25.3768 22.8181 28.8229 21.1554 26.7784 17.3757C24.9659 14.0963 23.7697 12.9677 23.093 12.0325C19.5236 7.57615 11.7999 14.9784 13.9242 19.2849ZM36.0947 32.2696C36.3412 32.4243 38.4896 33.3644 41.0537 35.8608C41.3799 36.1339 39.2049 39.2949 37.8202 39.1136C37.5471 38.9904 35.5727 38.5191 31.3314 35.9261C35.3576 34.5582 35.3238 32.4146 36.0947 32.2696ZM19.9852 14.3259C20.135 14.2461 20.2123 14.2413 20.2051 14.222C20.9011 15.1911 21.9403 16.1142 23.5981 19.1133C24.0379 19.9277 22.9528 20.2443 22.252 20.9596C21.2539 21.8441 20.5217 22.8978 20.0722 24.0602C18.5883 21.2593 17.9238 19.2414 17.2471 17.8301C16.9764 16.5444 18.8348 14.9832 19.9852 14.3259Z" fill="white"/>
<path d="M30.9632 20.6625C30.9898 20.6649 33.6192 21.0008 34.0904 23.8307C34.4892 26.2329 38.0562 25.5877 37.6647 23.2362C36.9324 18.8403 33.2325 17.2743 31.3741 17.0617C28.9937 16.7934 28.5852 20.387 30.9632 20.6625Z" fill="white"/>
<path d="M29.0745 12.847C29.1156 12.847 34.8214 12.7455 38.5358 16.7185C42.2043 20.6431 41.3947 26.3489 41.3875 26.3996C41.0177 28.751 44.5896 29.3745 44.9665 26.9627C45.0149 26.6606 46.0806 19.4807 41.1845 14.2414C36.3245 9.04071 29.2558 9.20262 28.9634 9.22196C26.4863 9.30412 26.786 13.0355 29.0745 12.847Z" fill="white"/>
</g>
<defs>
<clipPath id="clip0_52:649">
<rect width="58" height="58" fill="white"/>
</clipPath>
</defs>
</svg>
