<svg width="61" height="61" viewBox="0 0 61 61" fill="none" xmlns="http://www.w3.org/2000/svg">
<g clip-path="url(#clip0_52:645)">
<path d="M30.8685 49.5625C39.6932 49.5625 36.5466 43.9759 37.2278 42.3696C37.2176 41.1699 37.2075 40.016 37.2481 39.3145C37.8073 39.4721 39.1264 40.1405 41.8511 42.789C46.0575 47.0335 47.1327 49.5625 50.5309 49.5625H56.7859C58.7684 49.5625 59.8003 48.7415 60.3163 48.0527C60.8145 47.3868 61.3025 46.2177 60.7687 44.3978C59.3733 40.016 51.2349 32.4495 50.7291 31.6514C50.8054 31.504 50.9274 31.3083 50.9909 31.2066H50.9858C52.5922 29.0843 58.7227 19.8987 59.625 16.2235C59.6275 16.2184 59.63 16.2108 59.63 16.2031C60.118 14.5256 59.6707 13.4378 59.2081 12.8227C58.5117 11.9026 57.4035 11.4375 55.9065 11.4375H49.6515C47.5571 11.4375 45.9686 12.4923 45.1654 14.4163C43.8209 17.8349 40.044 24.8651 37.2125 27.3534C37.1261 23.8281 37.1846 21.1365 37.2303 19.1362C37.3218 15.2347 37.6167 11.4375 33.5678 11.4375H23.7366C21.2 11.4375 18.7727 14.2079 21.4008 17.4968C23.6985 20.3791 22.2269 21.9854 22.7225 29.9815C20.7908 27.91 17.3545 22.3158 14.9247 15.1661C14.2435 13.2319 13.2116 11.44 10.3065 11.44H4.05142C1.51483 11.44 0 12.8227 0 15.1382C0 20.3384 11.5112 49.5625 30.8685 49.5625ZM10.3065 15.2525C10.858 15.2525 10.9139 15.2525 11.3231 16.4141C13.8114 23.7417 19.3929 34.5845 23.4697 34.5845C26.5325 34.5845 26.5325 31.4455 26.5325 30.2636L26.5299 20.8544C26.3622 17.7408 25.2286 16.1904 24.4839 15.25L33.4 15.2602C33.4051 15.3034 33.3492 25.6683 33.4255 28.1795C33.4255 31.7454 36.2569 33.7889 40.6768 29.3156C45.3408 24.0518 48.5662 16.1828 48.6958 15.8625C48.8864 15.405 49.0516 15.25 49.6515 15.25H55.9065H55.9319C55.9294 15.2576 55.9294 15.2652 55.9268 15.2729C55.355 17.9416 49.7099 26.446 47.8215 29.0868C47.791 29.1275 47.763 29.1707 47.735 29.2139C46.9039 30.5712 46.2278 32.0708 47.8494 34.1803H47.852C47.9994 34.3582 48.3832 34.7751 48.9423 35.3546C50.6808 37.149 56.6436 43.2846 57.1722 45.7246C56.8215 45.7805 56.4402 45.7398 50.5309 45.7525C49.2727 45.7525 48.2891 43.8717 44.5351 40.0846C41.1597 36.8008 38.9688 35.4588 36.9736 35.4588C33.1001 35.4588 33.3822 38.6028 33.4178 42.4052C33.4305 46.5278 33.4051 45.2239 33.4331 45.4831C33.2069 45.5721 32.5588 45.75 30.8685 45.75C14.7417 45.75 4.2395 20.1529 3.83537 15.2602C3.97517 15.2475 5.89921 15.2551 10.3065 15.2525Z" fill="white"/>
</g>
<defs>
<clipPath id="clip0_52:645">
<rect width="61" height="61" fill="white"/>
</clipPath>
</defs>
</svg>
