<svg width="49" height="49" viewBox="0 0 49 49" fill="none" xmlns="http://www.w3.org/2000/svg">
<g clip-path="url(#clip0_188:887)">
<path d="M39.676 -0.0957031H30.8078C28.7393 -0.0957031 27.0566 1.58696 27.0566 3.65504V12.5237C27.0566 14.5918 28.7393 16.2744 30.8078 16.2744H39.676C41.7441 16.2744 43.4268 14.5918 43.4268 12.5237V3.65504C43.4271 1.58696 41.7445 -0.0957031 39.676 -0.0957031ZM40.556 12.5237C40.556 13.0085 40.1613 13.4033 39.676 13.4033H30.8078C30.3225 13.4033 29.9281 13.0085 29.9281 12.5237V3.65504C29.9281 3.17017 30.3225 2.7754 30.8078 2.7754H39.676C40.1613 2.7754 40.556 3.17017 40.556 3.65504V12.5237Z" fill="#5D3DE3"/>
<path d="M32.8069 19.8584C32.1179 19.8584 31.4685 20.0293 30.8984 20.331C30.1638 19.2304 28.9111 18.5044 27.4916 18.5044C26.7585 18.5044 26.0699 18.698 25.474 19.0371C24.7281 18.0244 23.5277 17.366 22.1763 17.366C21.7509 17.366 21.3404 17.4311 20.9542 17.5522V16.2744H21.2952C23.3636 16.2744 25.0463 14.5918 25.0463 12.5233V3.65504C25.0463 1.58696 23.3636 -0.0957031 21.2952 -0.0957031H12.4269C10.3588 -0.0957031 8.67616 1.58696 8.67616 3.65504V12.5237C8.67616 14.5918 10.3588 16.2744 12.4269 16.2744H12.7682V25.1674C12.5462 24.9449 12.2968 24.7464 12.0232 24.5763C11.1413 24.0286 10.1072 23.838 9.09337 24.0331C8.00287 24.0769 7.02453 24.5528 6.389 25.3539C5.72132 26.1954 5.48954 27.3237 5.75235 28.4497L7.63912 36.5235C8.71504 43.2598 13.9697 48.2995 14.1937 48.5115C14.4602 48.7638 14.8135 48.9044 15.1806 48.9044H31.3268C31.8102 48.9044 32.2607 48.661 32.5265 48.2573C35.386 43.9073 36.8982 38.8567 36.8985 33.6513L36.9 23.9516C36.9 23.9516 36.9 23.9516 36.9 23.9513C36.9 21.6944 35.0637 19.8584 32.8069 19.8584ZM15.7836 46.0333C14.6266 44.8026 11.2172 40.8287 10.4669 36.0263C10.4613 35.9908 10.4545 35.9557 10.4463 35.9213L8.54793 27.7966C8.48475 27.5252 8.51653 27.2911 8.63803 27.1382C8.75915 26.9853 8.96701 26.9053 9.2444 26.8788C9.38384 26.8657 9.44179 26.8493 9.57114 26.8414C9.89675 26.8216 10.2306 26.8429 10.508 27.0153C10.7854 27.1876 10.9786 27.4575 11.053 27.7753L12.6905 34.7833C12.8273 35.3684 13.314 35.8065 13.9099 35.8813L14.0251 35.8955C14.4337 35.9467 14.8445 35.82 15.1533 35.5474C15.4621 35.2749 15.639 34.8827 15.639 34.4711V11.656C15.639 10.982 16.187 10.4339 16.861 10.4339C17.5347 10.4339 18.0831 10.982 18.0831 11.656V25.1176C18.0831 25.9102 18.7258 26.5532 19.5187 26.5532C20.3116 26.5532 20.9542 25.9102 20.9542 25.1176V21.4592C20.9542 20.7852 21.5023 20.2371 22.1763 20.2371C22.85 20.2371 23.3984 20.7852 23.3984 21.4592V25.281C23.3984 26.0739 24.041 26.7166 24.8339 26.7166C25.6269 26.7166 26.2695 26.0739 26.2695 25.281V22.5976C26.2695 21.9239 26.8179 21.3755 27.4916 21.3755C28.1656 21.3755 28.7137 21.9239 28.7137 22.5976V26.2836C28.7137 27.0762 29.3563 27.7192 30.1492 27.7192C30.9421 27.7192 31.5848 27.0762 31.5848 26.2836V23.9516C31.5848 23.2776 32.1332 22.7292 32.8069 22.7292C33.4809 22.7292 34.0289 23.2776 34.0289 23.9513L34.0274 33.6509C34.0271 38.0387 32.8226 42.3031 30.5376 46.0333H15.7836ZM11.5473 12.5237V3.65504C11.5473 3.17017 11.942 2.7754 12.4269 2.7754H21.2952C21.7804 2.7754 22.1752 3.17017 22.1752 3.65504V12.5237C22.1752 13.0085 21.7804 13.4033 21.2952 13.4033H20.9542V11.6556C20.9542 9.39874 19.1179 7.56243 16.861 7.56243C14.6042 7.56243 12.7679 9.39874 12.7679 11.6556V13.4033H12.4269C11.942 13.4033 11.5473 13.0085 11.5473 12.5237Z" fill="#5D3DE3"/>
</g>
<defs>
<clipPath id="clip0_188:887">
<rect width="49" height="49" fill="white"/>
</clipPath>
</defs>
</svg>
