<svg width="44" height="44" viewBox="0 0 44 44" fill="none" xmlns="http://www.w3.org/2000/svg">
<g clip-path="url(#clip0_188:890)">
<path d="M33.807 32.0883H30.1305C24.51 32.0883 19.9375 36.6611 19.9375 42.2812C19.9375 43.2306 20.7069 44 21.6562 44H42.2812C43.2306 44 44 43.2306 44 42.2812C44 36.6611 39.4275 32.0883 33.807 32.0883ZM23.5966 40.5625C24.3586 37.6671 26.9991 35.5258 30.1305 35.5258H33.807C36.9384 35.5258 39.5789 37.6671 40.3409 40.5625H23.5966Z" fill="#5D3DE3"/>
<path d="M42.2812 0H1.71875C0.769409 0 0 0.769409 0 1.71875V25.2707C0 26.22 0.769409 26.9894 1.71875 26.9894H26.2166C26.9579 29.4715 29.2607 31.2863 31.9805 31.2863C34.7003 31.2863 37.0031 29.4715 37.7447 26.9894H42.2812C43.2306 26.9894 44 26.22 44 25.2707V1.71875C44 0.769409 43.2306 0 42.2812 0ZM31.9805 27.8488C30.5592 27.8488 29.4024 26.6923 29.4024 25.2707C29.4024 23.849 30.5592 22.6925 31.9805 22.6925C33.4022 22.6925 34.5586 23.849 34.5586 25.2707C34.5586 26.6923 33.4022 27.8488 31.9805 27.8488ZM40.5625 23.5519H37.7447C37.0031 21.0701 34.7003 19.255 31.9805 19.255C29.2607 19.255 26.9579 21.0701 26.2166 23.5519H3.4375V3.4375H40.5625V23.5519Z" fill="#5D3DE3"/>
<path d="M27.5443 18.0902C28.2157 18.7616 29.3037 18.7616 29.9751 18.0902L32.1399 15.9254L34.3048 18.0902C34.9759 18.7613 36.0642 18.7616 36.7356 18.0902C37.4066 17.4189 37.4066 16.3309 36.7356 15.6595L34.5707 13.4946L36.7356 11.33C37.4066 10.6587 37.4066 9.57034 36.7356 8.89929C36.0642 8.22791 34.9759 8.22791 34.3048 8.89929L32.1399 11.0642L29.9751 8.89929C29.3037 8.22791 28.2157 8.22791 27.5443 8.89929C26.8733 9.57034 26.8733 10.6587 27.5443 11.33L29.7092 13.4946L27.5443 15.6595C26.8733 16.3309 26.8733 17.4192 27.5443 18.0902Z" fill="#5D3DE3"/>
<path d="M10.4785 17.6343C11.1062 18.4796 12.3345 18.5648 13.074 17.8253L19.3045 11.5948C19.9759 10.9234 19.9759 9.83511 19.3045 9.16406C18.6335 8.49301 17.5451 8.49267 16.8741 9.16406L12.0519 13.986L9.85877 11.0308C9.29313 10.2685 8.21656 10.1094 7.4542 10.675C6.69217 11.2407 6.53272 12.3172 7.09836 13.0793L10.4785 17.6343Z" fill="#5D3DE3"/>
</g>
<defs>
<clipPath id="clip0_188:890">
<rect width="44" height="44" fill="white"/>
</clipPath>
</defs>
</svg>
