<svg width="36" height="36" viewBox="0 0 36 36" fill="none" xmlns="http://www.w3.org/2000/svg">
<g clip-path="url(#clip0_188:897)">
<path d="M34.943 29.9653H32.8154V15.8931C32.8154 15.3103 32.3421 14.8378 31.7584 14.8378H25.9225C25.3387 14.8378 24.8655 15.3103 24.8655 15.8931V29.9653H21.975V11.7124C21.975 11.1296 21.5018 10.6572 20.918 10.6572H15.0821C14.4983 10.6572 14.0251 11.1296 14.0251 11.7124V29.9653H11.1346V14.7764C11.1346 14.1936 10.6614 13.7211 10.0776 13.7211H4.2416C3.65785 13.7211 3.18463 14.1936 3.18463 14.7764V29.9653H1.05697C0.473227 29.9653 0 30.4378 0 31.0206C0 31.6033 0.473227 32.0758 1.05697 32.0758H34.943C35.5268 32.0758 36 31.6033 36 31.0206C36 30.4378 35.5268 29.9653 34.943 29.9653ZM5.29857 29.9653V15.8316H9.02065V29.9653H5.29857ZM16.139 29.9653V12.7676H19.861V29.9653H16.139ZM26.9794 29.9653V16.9483H30.7015V29.9653H26.9794Z" fill="#5D3DE3"/>
<path d="M35.2271 7.93957C35.2621 7.49856 35.0051 6.95703 34.4165 6.82006L31.0071 5.99137C30.4406 5.85328 29.8701 6.20115 29.7325 6.76744C29.5949 7.33374 29.9423 7.9044 30.5086 8.042L31.4729 8.27639L28.7394 9.96325L18.3747 4.06251C18.0767 3.89277 17.7145 3.87849 17.4043 4.02432L7.10162 8.86014L2.17653 5.78645C1.6822 5.47769 1.03127 5.62852 0.72266 6.12292C0.414116 6.61725 0.5648 7.26818 1.0592 7.57679L6.47145 10.9545C6.77514 11.1441 7.15431 11.1668 7.47847 11.0146L17.8058 6.1671L28.239 12.1069C28.5105 12.2493 28.8889 12.3231 29.3153 12.0878L32.629 10.0429L32.4083 11.0764C32.1655 12.4512 34.1116 12.8417 34.4722 11.5172L35.2037 8.09173C35.212 8.04376 35.215 8.05051 35.2271 7.93957Z" fill="#5D3DE3"/>
</g>
<defs>
<clipPath id="clip0_188:897">
<rect width="36" height="36" fill="white"/>
</clipPath>
</defs>
</svg>
