<svg width="115" height="115" viewBox="0 0 115 115" fill="none" xmlns="http://www.w3.org/2000/svg">
<path d="M57.5 105.522C86.4949 105.522 110 83.6913 110 56.7612C110 29.8311 86.4949 8 57.5 8C28.5051 8 5 29.8311 5 56.7612C5 83.6913 28.5051 105.522 57.5 105.522Z" fill="white"/>
<path d="M79.7405 70.5378L70.0251 64.0583C68.7922 63.2426 67.1395 63.511 66.228 64.675L63.398 68.3139C63.0343 68.7935 62.3732 68.9326 61.8471 68.6403L61.3088 68.3435C59.5242 67.3708 57.3038 66.1597 52.83 61.684C48.3563 57.2084 47.1429 54.9861 46.1702 53.2047L45.875 52.6664C45.5787 52.1403 45.7152 51.4763 46.1949 51.1097L49.8311 48.2803C50.9946 47.3687 51.2633 45.7164 50.4487 44.483L43.9696 34.767C43.1347 33.511 41.4597 33.134 40.1671 33.911L36.1045 36.3516C34.828 37.1021 33.8915 38.3176 33.4913 39.7433C32.0284 45.074 33.129 54.2741 46.6806 67.8283C57.4606 78.6083 65.4858 81.5073 71.0018 81.5073C72.2713 81.5127 73.5358 81.3475 74.7613 81.0162C76.1872 80.6164 77.4028 79.6798 78.1528 78.4028L80.5956 74.3423C81.3737 73.0494 80.9969 71.3732 79.7405 70.5378ZM79.2173 73.5215L76.7801 77.5844C76.2416 78.5061 75.3673 79.1838 74.3404 79.4755C69.4195 80.8266 60.8224 79.7075 47.8123 66.6965C34.8022 53.6854 33.6833 45.0885 35.0343 40.1666C35.3264 39.1384 36.0049 38.2629 36.9276 37.7235L40.9902 35.2861C41.5511 34.9487 42.2781 35.1122 42.6404 35.6573L46.1599 40.9416L49.1139 45.3724C49.4676 45.9074 49.3514 46.6245 48.8467 47.0203L45.2097 49.8497C44.1028 50.6961 43.7867 52.2276 44.4682 53.443L44.757 53.9678C45.7793 55.8428 47.0503 58.1754 51.6904 62.8151C56.3305 67.4548 58.6622 68.7259 60.5363 69.7482L61.0618 70.0377C62.277 70.7192 63.8085 70.4032 64.6548 69.2962L67.484 65.6589C67.8799 65.1545 68.5966 65.0384 69.1318 65.3918L78.8463 71.8713C79.3917 72.2333 79.5552 72.9607 79.2173 73.5215Z" fill="#88B131" stroke="#88B131" stroke-width="0.5"/>
<g clip-path="url(#clip0)">
<path d="M98.492 17.2335C98.0917 16.8116 97.4245 16.793 97.0019 17.1942L90.2728 23.5758L87.0632 20.2804C86.6567 19.8634 85.9902 19.8542 85.5728 20.2608C85.1557 20.6669 85.147 21.3341 85.5531 21.7512L89.4882 25.7914C89.6945 26.0033 89.9685 26.1101 90.2433 26.1101C90.504 26.1101 90.7647 26.0138 90.9689 25.8209L98.4527 18.7236C98.8749 18.3231 98.8928 17.6559 98.492 17.2335Z" fill="#88B131"/>
<path d="M92 8.50745C84.8317 8.50745 79 14.3392 79 21.5074C79 28.6757 84.8317 34.5074 92 34.5074C99.1683 34.5074 105 28.6757 105 21.5074C105 14.3392 99.1683 8.50745 92 8.50745ZM92 32.3993C85.9944 32.3993 81.1081 27.5135 81.1081 21.5074C81.1081 15.5018 85.9943 10.6155 92 10.6155C98.006 10.6155 102.892 15.5017 102.892 21.5074C102.892 27.5134 98.006 32.3993 92 32.3993Z" fill="#88B131"/>
</g>
<defs>
<clipPath id="clip0">
<rect width="26" height="26" fill="white" transform="translate(79 8.50745)"/>
</clipPath>
</defs>
</svg>
