<svg width="14" height="14" viewBox="0 0 14 14" fill="none" xmlns="http://www.w3.org/2000/svg">
<path d="M8.28262 6.99996L13.734 1.54847C14.0887 1.19388 14.0887 0.620544 13.734 0.265948C13.3794 -0.0886492 12.806 -0.0886492 12.4514 0.265948L6.99993 5.71744L1.5486 0.265948C1.19384 -0.0886492 0.620669 -0.0886492 0.266072 0.265948C-0.0886908 0.620544 -0.0886908 1.19388 0.266072 1.54847L5.7174 6.99996L0.266072 12.4515C-0.0886908 12.806 -0.0886908 13.3794 0.266072 13.734C0.44279 13.9109 0.675146 13.9997 0.907337 13.9997C1.13953 13.9997 1.37172 13.9109 1.5486 13.734L6.99993 8.28249L12.4514 13.734C12.6283 13.9109 12.8605 13.9997 13.0927 13.9997C13.3249 13.9997 13.5571 13.9109 13.734 13.734C14.0887 13.3794 14.0887 12.806 13.734 12.4515L8.28262 6.99996Z" fill="#88B131"/>
</svg>
