<svg width="127" height="125" viewBox="0 0 127 125" fill="none" xmlns="http://www.w3.org/2000/svg">
<g clip-path="url(#clip0)">
<g filter="url(#filter0_d)">
<path d="M63.5 115.672C93.3357 115.672 117.522 91.8659 117.522 62.5C117.522 33.1341 93.3357 9.32837 63.5 9.32837C33.6642 9.32837 9.4776 33.1341 9.4776 62.5C9.4776 91.8659 33.6642 115.672 63.5 115.672Z" fill="white"/>
</g>
<g clip-path="url(#clip1)">
<path d="M83.9755 78.642L81.6663 49.5437C81.5223 47.669 79.9369 46.2004 78.0568 46.2004H73.4955V45.9954C73.4955 40.4839 69.0116 36 63.5001 36C57.9886 36 53.5047 40.4839 53.5047 45.9954V46.2004H48.9436C47.0633 46.2004 45.4778 47.6689 45.3344 49.5397L43.0244 78.646C42.8457 80.9765 43.6541 83.2966 45.2424 85.0113C46.8306 86.726 49.0821 87.7096 51.4195 87.7096H75.5807C77.9179 87.7096 80.1695 86.7261 81.7579 85.0113C83.3461 83.2965 84.1545 80.9765 83.9755 78.642ZM56.5336 45.9954C56.5336 42.154 59.6589 39.0289 63.5001 39.0289C67.3414 39.0289 70.4667 42.1542 70.4667 45.9954V46.2004H56.5336V45.9954ZM79.5357 82.9532C78.5037 84.0672 77.0992 84.6808 75.5807 84.6808H51.4196C49.901 84.6808 48.4966 84.0672 47.4646 82.9532C46.4327 81.8392 45.9284 80.3917 46.0443 78.8816L48.3541 49.7753C48.3775 49.469 48.6364 49.2293 48.9436 49.2293H53.5047V52.9595C53.5047 53.7959 54.1828 54.474 55.0191 54.474C55.8555 54.474 56.5336 53.7959 56.5336 52.9595V49.2293H70.4667V52.9595C70.4667 53.7959 71.1448 54.474 71.9811 54.474C72.8174 54.474 73.4955 53.7959 73.4955 52.9595V49.2293H78.0568C78.3638 49.2293 78.6228 49.4691 78.6466 49.7793L80.9559 78.8776C81.072 80.3917 80.5675 81.8391 79.5357 82.9532Z" fill="#88B131"/>
<path d="M70.3217 62.6816C69.7304 62.0902 68.7715 62.0902 68.1802 62.6816L61.4179 69.4439L58.8177 66.8436C58.2264 66.2522 57.2674 66.2522 56.676 66.8436C56.0846 67.435 56.0846 68.3939 56.676 68.9853L60.3471 72.6564C60.6428 72.9521 61.0304 73.1001 61.4178 73.1001C61.8052 73.1001 62.193 72.9522 62.4886 72.6564L70.3216 64.8234C70.9131 64.2319 70.9131 63.273 70.3217 62.6816Z" fill="#88B131"/>
</g>
<path d="M103.492 15.7262C103.092 15.3042 102.424 15.2857 102.002 15.6869L95.2726 22.0685L92.063 18.7732C91.6565 18.3561 90.99 18.3469 90.5726 18.7535C90.1555 19.1596 90.1467 19.8269 90.5529 20.2439L94.488 24.2841C94.6942 24.496 94.9683 24.6028 95.2431 24.6028C95.5038 24.6028 95.7645 24.5065 95.9686 24.3136L103.452 17.2164C103.875 16.8158 103.893 16.1486 103.492 15.7262Z" fill="#88B131"/>
<path d="M97 7C89.8317 7 84 12.8317 84 20C84 27.1683 89.8317 33 97 33C104.168 33 110 27.1683 110 20C110 12.8317 104.168 7 97 7ZM97 30.8919C90.9944 30.8919 86.1081 26.0061 86.1081 20C86.1081 13.9944 90.9943 9.10808 97 9.10808C103.006 9.10808 107.892 13.9943 107.892 20C107.892 26.006 103.006 30.8919 97 30.8919Z" fill="#88B131"/>
</g>
<defs>
<filter id="filter0_d" x="-0.5224" y="-0.671631" width="128.045" height="126.343" filterUnits="userSpaceOnUse" color-interpolation-filters="sRGB">
<feFlood flood-opacity="0" result="BackgroundImageFix"/>
<feColorMatrix in="SourceAlpha" type="matrix" values="0 0 0 0 0 0 0 0 0 0 0 0 0 0 0 0 0 0 127 0" result="hardAlpha"/>
<feOffset/>
<feGaussianBlur stdDeviation="5"/>
<feColorMatrix type="matrix" values="0 0 0 0 0.7375 0 0 0 0 0.7375 0 0 0 0 0.7375 0 0 0 0.25 0"/>
<feBlend mode="normal" in2="BackgroundImageFix" result="effect1_dropShadow"/>
<feBlend mode="normal" in="SourceGraphic" in2="effect1_dropShadow" result="shape"/>
</filter>
<clipPath id="clip0">
<rect width="127" height="125" fill="white"/>
</clipPath>
<clipPath id="clip1">
<rect width="41" height="52" fill="white" transform="translate(43 36)"/>
</clipPath>
</defs>
</svg>
