<svg width="88" height="72" viewBox="0 0 88 72" fill="none" xmlns="http://www.w3.org/2000/svg">
<circle cx="36" cy="36" r="36" fill="#E07153"/>
<path fill-rule="evenodd" clip-rule="evenodd" d="M71.6196 7.05524C72.2189 11.2311 72.1094 15.4816 71.2959 19.6193L41.4562 21L40.9304 20.1164L40 18.5562C52.0411 11.1972 57.9065 9.85798 71.6196 7V7.05524ZM50.9893 15.9467C51.1641 15.9385 51.3374 15.984 51.4868 16.0774C51.6361 16.1709 51.7547 16.308 51.8273 16.4711C51.8999 16.6342 51.9231 16.8158 51.894 16.9925C51.8649 17.1692 51.7848 17.3329 51.664 17.4626C51.5431 17.5923 51.3872 17.682 51.2162 17.7201C51.0451 17.7582 50.8669 17.743 50.7043 17.6765C50.5418 17.61 50.4025 17.4951 50.3043 17.3468C50.2061 17.1985 50.1535 17.0234 50.1533 16.8442C50.1496 16.6122 50.2353 16.3879 50.3917 16.22C50.5481 16.0521 50.7627 15.954 50.9893 15.9467ZM51.1781 15.0769C51.4846 15.0631 51.7882 15.1436 52.0497 15.308C52.3112 15.4723 52.5186 15.713 52.6454 15.9992C52.7721 16.2853 52.8123 16.6037 52.7608 16.9134C52.7094 17.2232 52.5685 17.51 52.3565 17.7371C52.1445 17.9642 51.8709 18.1211 51.571 18.1876C51.2712 18.2542 50.9587 18.2273 50.6739 18.1104C50.3891 17.9936 50.1449 17.7922 49.9728 17.5321C49.8007 17.2719 49.7087 16.965 49.7084 16.6509C49.7011 16.2431 49.8515 15.8488 50.1268 15.5541C50.4021 15.2593 50.7799 15.0878 51.1781 15.0769Z" fill="#1B1B1B"/>
<path fill-rule="evenodd" clip-rule="evenodd" d="M51.1781 15.0769C51.4846 15.0631 51.7882 15.1436 52.0497 15.308C52.3112 15.4723 52.5186 15.713 52.6454 15.9992C52.7721 16.2853 52.8123 16.6037 52.7608 16.9134C52.7094 17.2232 52.5685 17.51 52.3565 17.7371C52.1445 17.9642 51.8709 18.1211 51.571 18.1876C51.2712 18.2542 50.9587 18.2273 50.6739 18.1104C50.3891 17.9936 50.1449 17.7922 49.9728 17.5321C49.8007 17.2719 49.7087 16.965 49.7084 16.6509C49.7011 16.2431 49.8515 15.8488 50.1268 15.5541C50.4021 15.2593 50.7799 15.0878 51.1781 15.0769ZM51.4868 16.0774C51.3374 15.984 51.1641 15.9385 50.9893 15.9467C50.7627 15.954 50.5481 16.0521 50.3917 16.22C50.2353 16.3879 50.1496 16.6122 50.1533 16.8442C50.1535 17.0234 50.2061 17.1985 50.3043 17.3468C50.4025 17.4951 50.5418 17.61 50.7043 17.6765C50.8669 17.743 51.0451 17.7582 51.2162 17.7201C51.3872 17.682 51.5431 17.5923 51.664 17.4626C51.7848 17.3329 51.8649 17.1692 51.894 16.9925C51.9231 16.8158 51.8999 16.6342 51.8273 16.4711C51.7547 16.308 51.6361 16.1709 51.4868 16.0774Z" fill="white"/>
<path fill-rule="evenodd" clip-rule="evenodd" d="M81 12.0753C78.869 9.95164 76.2069 8.5358 73.3373 8C73.4859 12.6387 73.0359 17.2772 72 21.7846L73.6449 23C76.1991 21.5701 80.1307 15.4499 80.9732 12.0753H81Z" fill="#1B1B1B"/>
<path fill-rule="evenodd" clip-rule="evenodd" d="M86.9613 21.5941C86.2973 18.6846 84.8472 16.0449 82.7897 14C81 18.6659 78.7983 21.0741 75 24.0981L75.7339 26C80.3691 25.5758 83.4592 24.8917 87 21.5394L86.9613 21.5941Z" fill="#1B1B1B"/>
<path fill-rule="evenodd" clip-rule="evenodd" d="M85.9846 34C87.7208 30.9116 88.3572 27.4217 87.8082 24C83.5671 26.4273 80.3863 26.933 75.4665 26.9836L75 28.8167C77.474 31.0038 79.5239 32.6094 85.9846 34Z" fill="#1B1B1B"/>
<path fill-rule="evenodd" clip-rule="evenodd" d="M84 36.0264C80.5077 35.255 77.3251 33.5075 74.8456 31C73.8792 33.2398 71.5704 35.4144 66.8724 35.1149C67.1239 36.8967 66.8201 38.7107 66 40.3236C74.2148 44.2302 79.4228 40.7012 84 35.9613V36.0264Z" fill="#1B1B1B"/>
<path fill-rule="evenodd" clip-rule="evenodd" d="M64.6809 40C65.1701 39.5564 66.6512 38.2812 65.6729 34.8158L50.5358 26L50.957 30.5881L44 33.4297L64.6945 40H64.6809Z" fill="#1B1B1B"/>
<path fill-rule="evenodd" clip-rule="evenodd" d="M73.4874 25.1633C70.2227 26.619 68.7117 27.4218 67.7944 31C69.5635 29.2707 71.6796 27.9438 74 27.1088C73.9332 26.4369 73.7601 25.78 73.4874 25.1633ZM68.0912 21C68.8675 21.1585 69.6171 21.4288 70.3171 21.8027C66.877 24.932 66.27 25.2993 64.1115 29.4762C63.5719 25.3946 65.0019 24.2381 68.1586 21H68.0912ZM71.855 22.9456C72.2727 23.3491 72.6355 23.8066 72.9342 24.3061C70.1199 25.7008 67.6914 27.7761 65.8652 30.3469C66.1216 26.2653 67.727 25.381 71.3829 22.7959L71.855 23V22.9456Z" fill="#1B1B1B"/>
</svg>
