<svg width="88" height="72" viewBox="0 0 88 72" fill="none" xmlns="http://www.w3.org/2000/svg">
<circle cx="36" cy="36" r="36" fill="#E07153"/>
<path fill-rule="evenodd" clip-rule="evenodd" d="M61.8848 0.823113C61.7073 0.843947 61.168 0.903684 60.6863 0.955955C57.6448 1.28599 54.2766 2.42727 51.5588 4.04894C48.0997 6.11274 45.2883 8.92418 43.2245 12.3832C41.6161 15.0789 40.5478 18.2115 40.1119 21.5108C39.9627 22.6404 39.9627 26.0969 40.1119 27.2264C40.5478 30.5257 41.6161 33.6584 43.2245 36.354C45.2883 39.8131 48.0997 42.6245 51.5588 44.6883C54.2544 46.2967 57.387 47.365 60.6863 47.8009C61.8159 47.9501 65.2724 47.9501 66.402 47.8009C72.1423 47.0424 77.0081 44.5212 80.9791 40.2477C83.176 37.8835 84.8948 34.9428 85.9496 31.7436C86.781 29.2218 87.0922 27.2138 87.0922 24.3686C87.0922 22.2638 87.0033 21.3339 86.6255 19.4827C85.3301 13.1355 81.2521 7.46329 75.5295 4.04894C72.8614 2.45695 69.6796 1.3661 66.4942 0.951069C65.6857 0.845791 62.4563 0.756092 61.8848 0.823113ZM64.7426 9.12073C64.7426 10.1315 64.6111 10.5166 64.1551 10.842C63.7614 11.1227 62.933 11.1303 62.5599 10.8566C62.1131 10.5289 61.9772 10.1354 61.9772 9.16885L61.977 8.30422L61.3406 8.36691C59.842 8.51459 58.1545 9.04006 56.3996 9.90552C54.8065 10.6912 53.6653 11.4949 52.357 12.753C49.7136 15.2947 48.0551 18.5055 47.5594 22.0409L47.4398 22.8936H48.3044C49.2886 22.8936 49.6566 23.0095 50.0113 23.431C50.3568 23.8417 50.42 24.3479 50.1903 24.867C49.9032 25.5162 49.591 25.6585 48.4539 25.6589C47.9372 25.6591 47.4959 25.6903 47.4731 25.7284C47.4504 25.7665 47.4845 26.1709 47.5489 26.6272C48.2893 31.8741 51.5989 36.47 56.3074 38.7902C58.08 39.6636 59.7618 40.195 61.2856 40.3633C61.5898 40.3969 61.9112 40.4445 62 40.4691C62.147 40.5099 62.1613 40.4185 62.1613 39.443C62.1613 38.3072 62.231 38.0481 62.6366 37.6755C63.2859 37.0791 64.3713 37.3038 64.7974 38.123C64.887 38.2951 64.927 38.7028 64.927 39.443C64.927 40.4188 64.9413 40.5098 65.0883 40.4682C65.1771 40.4431 65.5153 40.394 65.84 40.3591C66.7535 40.2609 68.3798 39.8289 69.4696 39.3948C71.4655 38.5999 73.1057 37.5414 74.6832 36.0304C77.512 33.3208 79.1622 29.9752 79.628 26.005L79.6903 25.4749H78.591C77.6003 25.4749 77.4611 25.4542 77.1806 25.2652C76.7776 24.9937 76.4936 24.3365 76.58 23.8756C76.6572 23.4639 77.0373 23.0008 77.4341 22.835C77.6214 22.7568 78.0892 22.7093 78.6719 22.7093H79.6086L79.546 22.1331C79.2644 19.5442 77.8851 16.3813 76.0786 14.1819C73.4688 11.0045 69.834 8.94917 65.8028 8.37133C65.2957 8.29869 64.8498 8.2384 64.8117 8.23748C64.7737 8.23656 64.7426 8.63398 64.7426 9.12073ZM55.9557 14.9697C56.0985 15.0228 57.8642 16.713 59.8795 18.7258L63.5438 22.3853L65.4569 20.4765C67.5114 18.4265 67.7956 18.2231 68.4516 18.3339C68.9532 18.4188 69.4945 18.9622 69.5798 19.4667C69.6966 20.1584 69.4863 20.4321 66.7587 23.1391C64.5933 25.2883 64.1865 25.6524 63.8899 25.7077C63.0433 25.8652 63.2087 25.9997 58.5792 21.3886C56.1426 18.9616 54.2505 17.0044 54.1773 16.8353C53.671 15.6657 54.7586 14.5249 55.9557 14.9697Z" fill="white"/>
<path fill-rule="evenodd" clip-rule="evenodd" d="M61.8848 0.823113C61.7073 0.843947 61.168 0.903684 60.6863 0.955955C57.6448 1.28599 54.2766 2.42727 51.5588 4.04894C48.0997 6.11274 45.2883 8.92418 43.2245 12.3832C41.6161 15.0789 40.5478 18.2115 40.1119 21.5108C39.9627 22.6404 39.9627 26.0969 40.1119 27.2264C40.5478 30.5257 41.6161 33.6584 43.2245 36.354C45.2883 39.8131 48.0997 42.6245 51.5588 44.6883C54.2544 46.2967 57.387 47.365 60.6863 47.8009C61.8159 47.9501 65.2724 47.9501 66.402 47.8009C72.1423 47.0424 77.0081 44.5212 80.9791 40.2477C83.176 37.8835 84.8948 34.9428 85.9496 31.7436C86.781 29.2218 87.0922 27.2138 87.0922 24.3686C87.0922 22.2638 87.0033 21.3339 86.6255 19.4827C85.3301 13.1355 81.2521 7.46329 75.5295 4.04894C72.8614 2.45695 69.6796 1.3661 66.4942 0.951069C65.6857 0.845791 62.4563 0.756092 61.8848 0.823113ZM66.3098 5.61686C69.4523 6.07586 72.4275 7.34354 75.099 9.36161C76.0647 10.0911 77.8217 11.8481 78.5512 12.8138C81.1851 16.3005 82.4782 20.1054 82.4782 24.3686C82.4782 26.769 82.1222 28.8004 81.3415 30.8541C80.2781 33.6518 78.9691 35.6895 76.9171 37.7415C73.9707 40.6879 70.4045 42.4939 66.2637 43.1364C64.8881 43.3498 62.2003 43.3498 60.8246 43.1364C57.5598 42.6298 54.6671 41.3985 51.9893 39.3757C51.0236 38.6462 49.2666 36.8892 48.5371 35.9235C46.5143 33.2456 45.283 30.353 44.7764 27.0882C44.5628 25.7113 44.5629 23.0242 44.7768 21.6491C45.2814 18.4041 46.5296 15.4714 48.5371 12.8138C49.2666 11.8481 51.0236 10.0911 51.9893 9.36161C56.1904 6.18806 61.2186 4.87319 66.3098 5.61686ZM64.7426 9.12073C64.7426 10.1315 64.6111 10.5166 64.1551 10.842C63.7614 11.1227 62.933 11.1303 62.5599 10.8566C62.1131 10.5289 61.9772 10.1354 61.9772 9.16885L61.977 8.30422L61.3406 8.36691C59.842 8.51459 58.1545 9.04006 56.3996 9.90552C54.8065 10.6912 53.6653 11.4949 52.357 12.753C49.7136 15.2947 48.0551 18.5055 47.5594 22.0409L47.4398 22.8936H48.3044C49.2886 22.8936 49.6566 23.0095 50.0113 23.431C50.3568 23.8417 50.42 24.3479 50.1903 24.867C49.9032 25.5162 49.591 25.6585 48.4539 25.6589C47.9372 25.6591 47.4959 25.6903 47.4731 25.7284C47.4504 25.7665 47.4845 26.1709 47.5489 26.6272C48.2893 31.8741 51.5989 36.47 56.3074 38.7902C58.08 39.6636 59.7618 40.195 61.2856 40.3633C61.5898 40.3969 61.9112 40.4445 62 40.4691C62.147 40.5099 62.1613 40.4185 62.1613 39.443C62.1613 38.3072 62.231 38.0481 62.6366 37.6755C63.2859 37.0791 64.3713 37.3038 64.7974 38.123C64.887 38.2951 64.927 38.7028 64.927 39.443C64.927 40.4188 64.9413 40.5098 65.0883 40.4682C65.1771 40.4431 65.5153 40.394 65.84 40.3591C66.7535 40.2609 68.3798 39.8289 69.4696 39.3948C71.4655 38.5999 73.1057 37.5414 74.6832 36.0304C77.512 33.3208 79.1622 29.9752 79.628 26.005L79.6903 25.4749H78.591C77.6003 25.4749 77.4611 25.4542 77.1806 25.2653C76.7776 24.9937 76.4936 24.3365 76.58 23.8756C76.6572 23.4639 77.0373 23.0008 77.4341 22.835C77.6214 22.7568 78.0892 22.7093 78.6719 22.7093H79.6086L79.546 22.1331C79.2644 19.5442 77.8851 16.3813 76.0786 14.1819C73.4688 11.0045 69.834 8.94917 65.8028 8.37133C65.2957 8.29869 64.8498 8.2384 64.8117 8.23748C64.7737 8.23656 64.7426 8.63398 64.7426 9.12073ZM55.9557 14.9697C56.0985 15.0228 57.8642 16.713 59.8795 18.7258L63.5438 22.3853L65.4569 20.4765C67.5114 18.4265 67.7956 18.2231 68.4516 18.3339C68.9532 18.4188 69.4945 18.9622 69.5798 19.4667C69.6966 20.1584 69.4863 20.4321 66.7587 23.1391C64.5933 25.2883 64.1865 25.6524 63.8899 25.7077C63.0433 25.8652 63.2087 25.9997 58.5792 21.3886C56.1426 18.9616 54.2505 17.0044 54.1773 16.8353C53.671 15.6657 54.7586 14.5249 55.9557 14.9697Z" fill="#1B1B1B"/>
</svg>
