<svg width="138" height="59" viewBox="0 0 138 59" fill="none" xmlns="http://www.w3.org/2000/svg">
<path d="M28.7255 45.6312C26.0412 47.4503 23.3446 48.0536 20.6359 47.441C17.9272 46.8284 15.5556 45.021 13.5211 42.0187C11.4866 39.0165 10.6868 36.144 11.1216 33.4011C11.5564 30.6583 13.116 28.3773 15.8004 26.5582C18.0256 25.0502 20.1714 24.395 22.2379 24.5923C24.3101 24.76 26.2338 25.6212 28.0088 27.1757L23.9028 29.9582C22.0065 28.7951 20.1135 28.8538 18.2238 30.1344C16.7757 31.1157 15.966 32.4118 15.7948 34.0225C15.6236 35.6332 16.1902 37.401 17.4947 39.326C18.7992 41.251 20.2311 42.4324 21.7906 42.8703C23.3501 43.3081 24.8539 43.0364 26.3021 42.055C28.1917 40.7745 28.9478 39.0381 28.5702 36.8457L32.6762 34.0632C33.4623 36.288 33.5552 38.4026 32.955 40.4071C32.3606 42.3819 30.9507 44.1233 28.7255 45.6312Z" fill="#1B1B1B"/>
<path d="M40.0107 34.9975L43.306 33.7599C43.8851 33.5424 44.272 33.2376 44.4666 32.8455C44.6811 32.4459 44.6984 32.0064 44.5183 31.5271C44.1208 30.4686 43.3229 30.1644 42.1246 30.6144L38.8294 31.852L40.0107 34.9975ZM37.1105 40.0176L31.1477 24.1404L39.3859 21.0465C40.9437 20.4614 42.2982 20.3971 43.4495 20.8535C44.6132 21.2824 45.4501 22.1758 45.9601 23.5339C46.5602 25.1316 46.2924 26.5425 45.157 27.7665C47.0247 27.8854 48.2548 28.7338 48.8473 30.3115C49.4099 31.8093 49.3918 33.1265 48.7931 34.2628C48.2144 35.3917 47.0662 36.2787 45.3487 36.9237L37.1105 40.0176ZM37.6481 28.7065L40.7935 27.5252C41.892 27.1126 42.2724 26.457 41.9349 25.5583C41.5974 24.6596 40.8794 24.4165 39.781 24.829L36.6355 26.0103L37.6481 28.7065Z" fill="#1B1B1B"/>
<path d="M59.1097 33.8599C56.5554 34.2327 54.4285 33.767 52.729 32.4627C51.0475 31.1343 50.0065 29.098 49.606 26.3537C49.2055 23.6094 49.6226 21.3711 50.8574 19.6386C52.1101 17.8819 54.0137 16.8172 56.5679 16.4444C58.9955 16.0901 61.0622 16.5862 62.7679 17.9326C64.4735 19.2791 65.5066 21.1872 65.8671 23.6571L65.9629 25.4217L54.4053 27.1085C55.1088 29.2696 56.4844 30.2007 58.532 29.9018C59.3342 29.7848 59.9279 29.5687 60.3131 29.2538C60.6983 28.9389 61.0303 28.4808 61.3091 27.8796L66.0588 27.1864C65.8496 28.8554 65.1888 30.3101 64.0762 31.5504C62.9606 32.7697 61.3051 33.5395 59.1097 33.8599ZM53.9201 23.7837L61.0446 22.7439C60.7587 21.9664 60.2696 21.3479 59.5773 20.8884C58.9061 20.4258 58.0955 20.2638 57.1456 20.4025C55.288 20.6736 54.2128 21.8007 53.9201 23.7837Z" fill="#1B1B1B"/>
<path d="M65.2992 31.7235L72.951 23.8968L67.6894 14.9259L73.0947 15.5396L77.5288 23.2893L78.341 16.1353L82.7924 16.6406L81.9802 23.7947L88.0387 17.2363L93.444 17.85L86.3052 25.4129L92.0077 34.7558L86.6024 34.1422L81.7275 26.0204L80.8792 33.4924L76.4278 32.987L77.2761 25.515L70.7045 32.3372L65.2992 31.7235Z" fill="#1B1B1B"/>
<path d="M89.3734 34.834L95.5422 19.0357L99.7153 20.6651L95.9908 30.2038L96.1398 30.262L105.528 22.9348L110.148 24.7389L103.979 40.5372L99.8063 38.9077L103.589 29.2201L103.44 29.1619L93.9937 36.6381L89.3734 34.834Z" fill="#1B1B1B"/>
<path d="M111.664 45.8952C109.532 44.4391 108.283 42.6558 107.917 40.5451C107.58 38.4289 108.193 36.2257 109.758 33.9357C111.322 31.6457 113.145 30.2817 115.227 29.8438C117.339 29.4002 119.46 29.9064 121.592 31.3625C123.617 32.7464 124.802 34.5113 125.144 36.6572C125.487 38.8031 124.954 40.9065 123.546 42.9675L122.421 44.3305L112.777 37.7421C111.83 39.8083 112.211 41.4251 113.92 42.5923C114.59 43.0496 115.173 43.2929 115.669 43.3222C116.166 43.3515 116.721 43.2394 117.333 42.986L121.296 45.6935C120.012 46.7796 118.54 47.402 116.882 47.5608C115.235 47.7019 113.496 47.1467 111.664 45.8952ZM114.672 34.9677L120.617 39.029C120.934 38.2634 120.993 37.4771 120.795 36.6701C120.614 35.8751 120.128 35.2069 119.335 34.6654C117.785 33.6064 116.231 33.7072 114.672 34.9677Z" fill="#1B1B1B"/>
</svg>
