<svg width="186" height="79" viewBox="0 0 186 79" fill="none" xmlns="http://www.w3.org/2000/svg">
<path d="M26.9175 65.9283L29.2318 62.4715C29.8371 61.5674 30.0873 60.7337 29.9823 59.9702C29.8773 59.2067 29.4525 58.5757 28.708 58.0773C27.9635 57.5788 27.2182 57.4264 26.4723 57.6202C25.7264 57.814 25.0508 58.3629 24.4455 59.267L22.1312 62.7238L26.9175 65.9283ZM27.8368 72.3203L9.22337 59.8582L17.8578 46.9618L21.4475 49.3652L15.4835 58.2731L18.5414 60.3204L21.2119 56.3318C22.4937 54.4173 24.058 53.2695 25.9048 52.8886C27.7457 52.478 29.5703 52.8781 31.3784 54.0887C33.1866 55.2993 34.2604 56.8398 34.5999 58.7101C34.9335 60.5509 34.4594 62.4286 33.1776 64.3431L27.8368 72.3203Z" fill="#1B1B1B"/>
<path d="M43.9784 52.4194C42.0822 54.1709 40.0645 54.989 37.9253 54.8739C35.7873 54.7287 33.7775 53.6374 31.8957 51.6002C30.014 49.5629 29.0927 47.4807 29.1319 45.3536C29.1722 43.1964 30.1405 41.242 32.0367 39.4906C33.8389 37.826 35.8241 37.0669 37.9922 37.2133C40.1603 37.3598 42.0912 38.3497 43.7847 40.1833L44.8614 41.5847L36.2813 49.5097C38.0832 50.8946 39.7443 50.8851 41.2644 49.481C41.8599 48.931 42.2275 48.4172 42.3673 47.9396C42.507 47.4621 42.5219 46.8965 42.4119 46.243L45.938 42.9862C46.709 44.4812 46.9862 46.0547 46.7697 47.7068C46.5387 49.3431 45.6082 50.914 43.9784 52.4194ZM34.0015 47.0415L39.2906 42.1562C38.6152 41.6765 37.8621 41.4428 37.0313 41.4551C36.2161 41.453 35.4559 41.7776 34.7507 42.4289C33.3716 43.7027 33.1219 45.2402 34.0015 47.0415Z" fill="#1B1B1B"/>
<path d="M56.9228 42.8305C54.6912 44.1278 52.5438 44.4877 50.4809 43.9103C48.4256 43.3037 46.7011 41.8016 45.3073 39.4039C43.9135 37.0063 43.4669 34.7736 43.9676 32.7059C44.476 30.609 45.846 28.9119 48.0776 27.6146C50.0142 26.4889 51.8107 26.0985 53.4671 26.4434C55.1419 26.7776 56.6233 27.6068 57.9112 28.9309L54.0381 31.1824C52.751 30.3267 51.4343 30.2901 50.0879 31.0728C49.092 31.6517 48.4987 32.4778 48.3082 33.5509C48.107 34.6055 48.3977 35.8061 49.1804 37.1524C49.9631 38.4988 50.8678 39.3547 51.8946 39.7202C52.9106 40.0673 53.9166 39.9513 54.9126 39.3724C56.2589 38.5897 56.8788 37.4274 56.7721 35.8855L60.6452 33.634C61.1585 35.4084 61.1459 37.106 60.6076 38.7268C60.0876 40.3368 58.8594 41.7048 56.9228 42.8305Z" fill="#1B1B1B"/>
<path d="M64.4037 38.2281L59.2749 22.0622L73.6107 17.514L78.7395 33.6799L74.4693 35.0347L70.5985 22.834L64.8032 24.6726L68.674 36.8733L64.4037 38.2281Z" fill="#1B1B1B"/>
<path d="M78.5594 33.8169L78.1712 29.3538L78.6494 29.3122C79.6483 29.2253 80.2595 28.7439 80.4832 27.8679C80.7049 26.9706 80.7104 25.3106 80.4997 22.8877L79.9314 16.3524L93.3208 15.1879L94.7903 32.0841L90.3271 32.4723L89.2181 19.7204L84.7549 20.1086L85.0183 23.1371C85.1255 24.3698 85.1667 25.4584 85.1417 26.4027C85.138 27.3453 85.0369 28.2749 84.8382 29.1915C84.6608 30.1063 84.3739 30.8701 83.9775 31.4827C83.5792 32.0741 83.0123 32.5731 82.2768 32.9797C81.5625 33.3844 80.6953 33.6312 79.6751 33.7199L78.5594 33.8169Z" fill="#1B1B1B"/>
<path d="M103.246 29.5679C104.282 29.7034 105.155 29.527 105.864 29.0388C106.597 28.5322 107.026 27.8029 107.151 26.851L107.213 26.375L103.405 25.8775C102.665 25.7807 102.082 25.8767 101.657 26.1654C101.256 26.4357 101.022 26.8247 100.956 27.3324C100.881 27.9036 101.032 28.3966 101.408 28.8115C101.787 29.2052 102.399 29.4574 103.246 29.5679ZM101.658 33.0718C99.8602 32.8369 98.4959 32.1637 97.5653 31.0525C96.6348 29.9412 96.2704 28.6135 96.4722 27.0693C96.6768 25.5039 97.4018 24.3185 98.6473 23.5131C99.9168 22.6893 101.588 22.4129 103.661 22.6837L107.627 23.202L107.731 22.4087C107.833 21.6261 107.657 21.0006 107.202 20.5323C106.746 20.0641 106.075 19.7719 105.186 19.6558C104.573 19.5757 104.015 19.6427 103.514 19.8569C103.034 20.0738 102.683 20.3722 102.461 20.752L98.019 20.1715C98.5748 18.7166 99.51 17.5695 100.825 16.73C102.16 15.8934 103.833 15.6063 105.842 15.8689C108.085 16.1619 109.758 16.9399 110.862 18.203C111.988 19.4688 112.418 21.1171 112.152 23.1479L110.743 33.9361L106.935 33.4386L106.708 31.4726L106.549 31.4519C105.362 32.8027 103.731 33.3427 101.658 33.0718Z" fill="#1B1B1B"/>
<path d="M115.702 35.5476L119.731 23.3983L114.72 21.7362L116.029 17.7877L130.305 22.5221L128.995 26.4706L123.983 24.8085L119.954 36.9578L115.702 35.5476Z" fill="#1B1B1B"/>
<path d="M124.312 38.3309L132.699 23.5896L136.593 25.805L133.428 31.3677L138.713 34.3743L141.877 28.8115L145.771 31.0269L137.385 45.7682L133.491 43.5528L136.655 37.9901L131.371 34.9835L128.206 40.5463L124.312 38.3309Z" fill="#1B1B1B"/>
<path d="M145.424 48.2826C146.201 48.9817 147.02 49.3311 147.881 49.3309C148.772 49.329 149.539 48.9712 150.181 48.2575L150.502 47.9006L147.647 45.3326C147.092 44.8333 146.557 44.5821 146.044 44.5791C145.56 44.5745 145.147 44.7625 144.805 45.1431C144.419 45.5714 144.264 46.063 144.339 46.618C144.428 47.1571 144.789 47.712 145.424 48.2826ZM142.13 50.2697C140.782 49.057 140.039 47.7292 139.903 46.2862C139.766 44.8433 140.218 43.5429 141.26 42.385C142.315 41.2113 143.585 40.6457 145.067 40.6881C146.58 40.7289 148.114 41.4483 149.668 42.8465L152.642 45.5215L153.177 44.9267C153.705 44.3398 153.914 43.7245 153.804 43.0808C153.695 42.437 153.307 41.8155 152.641 41.2163C152.181 40.8026 151.684 40.5419 151.149 40.4342C150.631 40.3408 150.172 40.3877 149.774 40.5749L146.444 37.5789C147.726 36.6953 149.147 36.2803 150.706 36.3337C152.28 36.4015 153.821 37.113 155.328 38.4683C157.009 39.9806 157.947 41.57 158.14 43.2365C158.35 44.9173 157.77 46.519 156.401 48.0417L149.125 56.1308L146.27 53.5628L147.197 51.8143L147.078 51.7073C145.334 52.147 143.685 51.6678 142.13 50.2697Z" fill="#1B1B1B"/>
<path d="M149.512 56.3386L156.726 55.9301C156.483 54.8679 156.548 53.832 156.923 52.8225C157.31 51.8302 157.988 50.9834 158.955 50.2821C160.371 49.2552 161.822 48.8754 163.306 49.1426C164.791 49.4098 166.054 50.2601 167.093 51.6936L171.977 58.4293L158.247 68.3851L155.617 64.7582L160.15 61.4709L159.117 60.046L152.517 60.4836L149.512 56.3386ZM161.416 56.4026L163.389 59.1228L166.109 57.1504L164.137 54.4303C163.385 53.394 162.534 53.2203 161.585 53.909C160.721 54.5352 160.665 55.3664 161.416 56.4026Z" fill="#1B1B1B"/>
</svg>
