<svg width="88" height="72" viewBox="0 0 88 72" fill="none" xmlns="http://www.w3.org/2000/svg">
<circle cx="36" cy="36" r="36" fill="#E07153"/>
<path fill-rule="evenodd" clip-rule="evenodd" d="M45.625 23.9831V25.3893H48.4375H51.25V23.9831V22.5768H48.4375H45.625V23.9831ZM71.0312 24.0768V25.5768H71.2551C71.5954 25.5768 73.023 26.0116 73.7193 26.3274C74.6473 26.7481 75.7756 27.5377 76.5497 28.3079C78.5138 30.2624 79.4673 32.6396 79.4684 35.5846L79.4688 36.6393H80.875H82.2812V38.0456V39.4518H69.625H56.9688V38.0456V36.6393H58.3617H59.7546L59.807 35.1628C59.8794 33.124 60.2385 31.8242 61.1633 30.253C62.5159 27.9551 65.0646 26.1324 67.597 25.652L68.2188 25.5341V24.0555V22.5768H69.625H71.0312V24.0768ZM42.8125 29.6081V31.0143H45.625H48.4375V29.6081V28.2018H45.625H42.8125V29.6081ZM68.1727 28.3575C66.7755 28.6569 65.5944 29.3302 64.5592 30.4176C63.1671 31.88 62.5938 33.3929 62.5938 35.6041V36.6393H69.625H76.6562V35.6041C76.6562 33.8949 76.3097 32.6476 75.4852 31.3893C74.7376 30.2482 73.493 29.2152 72.2643 28.716C71.0416 28.2191 69.4639 28.0809 68.1727 28.3575ZM40 35.2331V36.6393H42.8125H45.625V35.2331V33.8268H42.8125H40V35.2331Z" fill="white"/>
<rect x="59" y="11.33" width="4" height="7" fill="white"/>
<path fill-rule="evenodd" clip-rule="evenodd" d="M68.2188 0.0482303C64.9938 0.393605 62.349 1.84598 60.4244 4.3282L59.7812 5.1577V8.24226V11.3268H56.9365H54.0918L54.0318 13.8815C53.9394 17.8129 53.6749 20.0262 52.7015 25.0143C51.3837 31.7679 51.2523 33.3157 51.2509 42.1003L51.25 47.9831H69.625H88L87.9995 42.1003C87.999 33.4566 87.846 31.6229 86.5946 25.2532C85.5287 19.8274 85.1907 16.8575 85.1884 12.8971L85.1875 11.3268H82.3281H79.4688V8.24226V5.1577L78.8273 4.3282C76.9532 1.90448 74.3918 0.467668 71.2656 0.0864803C70.4701 -0.0105509 68.946 -0.0296759 68.2188 0.0482303ZM71.9219 3.06717C73.5597 3.47254 74.9106 4.22226 76.0073 5.33423L76.6562 5.99226V8.65954V11.3268H78.0625H79.4688V14.1393V16.9518H78.0625H76.6562V14.1393V11.3268H69.625H62.5938V14.1393V16.9518H61.1875H59.7812V14.1393V11.3268H61.1875H62.5938L62.5943 8.67839L62.595 6.02995L62.9659 5.5972C63.38 5.11411 64.4807 4.25011 65.125 3.90257C65.9743 3.44442 67.1537 3.05414 68.1755 2.89326C69.0348 2.75798 71.0508 2.85154 71.9219 3.06717ZM45.625 23.9831V25.3893H48.4375H51.25V23.9831V22.5768H48.4375H45.625V23.9831ZM71.0312 24.0768V25.5768H71.2551C71.5954 25.5768 73.023 26.0116 73.7193 26.3274C74.6473 26.7481 75.7756 27.5377 76.5497 28.3079C78.5138 30.2624 79.4673 32.6396 79.4684 35.5846L79.4688 36.6393H80.875H82.2812V38.0456V39.4518H69.625H56.9688V38.0456V36.6393H58.3617H59.7546L59.807 35.1628C59.8794 33.124 60.2385 31.8242 61.1633 30.253C62.5159 27.9551 65.0646 26.1324 67.597 25.652L68.2188 25.5341V24.0555V22.5768H69.625H71.0312V24.0768ZM42.8125 29.6081V31.0143H45.625H48.4375V29.6081V28.2018H45.625H42.8125V29.6081ZM68.1727 28.3575C66.7755 28.6569 65.5944 29.3302 64.5592 30.4176C63.1671 31.88 62.5938 33.3929 62.5938 35.6041V36.6393H69.625H76.6562V35.6041C76.6562 33.8949 76.3097 32.6476 75.4852 31.3893C74.7376 30.2482 73.493 29.2152 72.2643 28.716C71.0416 28.2191 69.4639 28.0809 68.1727 28.3575ZM40 35.2331V36.6393H42.8125H45.625V35.2331V33.8268H42.8125H40V35.2331Z" fill="#1B1B1B"/>
</svg>
