<svg width="1452" height="486" viewBox="0 0 1452 486" fill="none" xmlns="http://www.w3.org/2000/svg">
<g opacity="0.5">
<circle cx="70.5" cy="1.5" r="0.5" fill="#8F8F8F" stroke="#8F8F8F" stroke-width="2"/>
<circle cx="1.5" cy="1.5" r="0.5" fill="#8F8F8F" stroke="#8F8F8F" stroke-width="2"/>
<circle cx="1.5" cy="70.5" r="0.5" fill="#8F8F8F" stroke="#8F8F8F" stroke-width="2"/>
<circle cx="70.5" cy="70.5" r="0.5" fill="#8F8F8F" stroke="#8F8F8F" stroke-width="2"/>
<circle cx="208.5" cy="1.5" r="0.5" fill="#8F8F8F" stroke="#8F8F8F" stroke-width="2"/>
<circle cx="139.5" cy="1.5" r="0.5" fill="#8F8F8F" stroke="#8F8F8F" stroke-width="2"/>
<circle cx="139.5" cy="70.5" r="0.5" fill="#8F8F8F" stroke="#8F8F8F" stroke-width="2"/>
<circle cx="208.5" cy="70.5" r="0.5" fill="#8F8F8F" stroke="#8F8F8F" stroke-width="2"/>
<circle cx="346.5" cy="1.5" r="0.5" fill="#8F8F8F" stroke="#8F8F8F" stroke-width="2"/>
<circle cx="277.5" cy="1.5" r="0.5" fill="#8F8F8F" stroke="#8F8F8F" stroke-width="2"/>
<circle cx="277.5" cy="70.5" r="0.5" fill="#8F8F8F" stroke="#8F8F8F" stroke-width="2"/>
<circle cx="346.5" cy="70.5" r="0.5" fill="#8F8F8F" stroke="#8F8F8F" stroke-width="2"/>
<circle cx="484.5" cy="1.5" r="0.5" fill="#8F8F8F" stroke="#8F8F8F" stroke-width="2"/>
<circle cx="415.5" cy="1.5" r="0.5" fill="#8F8F8F" stroke="#8F8F8F" stroke-width="2"/>
<circle cx="415.5" cy="70.5" r="0.5" fill="#8F8F8F" stroke="#8F8F8F" stroke-width="2"/>
<circle cx="484.5" cy="70.5" r="0.5" fill="#8F8F8F" stroke="#8F8F8F" stroke-width="2"/>
<circle cx="622.5" cy="1.5" r="0.5" fill="#8F8F8F" stroke="#8F8F8F" stroke-width="2"/>
<circle cx="553.5" cy="1.5" r="0.5" fill="#8F8F8F" stroke="#8F8F8F" stroke-width="2"/>
<circle cx="553.5" cy="70.5" r="0.5" fill="#8F8F8F" stroke="#8F8F8F" stroke-width="2"/>
<circle cx="622.5" cy="70.5" r="0.5" fill="#8F8F8F" stroke="#8F8F8F" stroke-width="2"/>
<circle cx="760.5" cy="1.5" r="0.5" fill="#8F8F8F" stroke="#8F8F8F" stroke-width="2"/>
<circle cx="691.5" cy="1.5" r="0.5" fill="#8F8F8F" stroke="#8F8F8F" stroke-width="2"/>
<circle cx="691.5" cy="70.5" r="0.5" fill="#8F8F8F" stroke="#8F8F8F" stroke-width="2"/>
<circle cx="760.5" cy="70.5" r="0.5" fill="#8F8F8F" stroke="#8F8F8F" stroke-width="2"/>
<circle cx="898.5" cy="1.5" r="0.5" fill="#8F8F8F" stroke="#8F8F8F" stroke-width="2"/>
<circle cx="829.5" cy="1.5" r="0.5" fill="#8F8F8F" stroke="#8F8F8F" stroke-width="2"/>
<circle cx="829.5" cy="70.5" r="0.5" fill="#8F8F8F" stroke="#8F8F8F" stroke-width="2"/>
<circle cx="898.5" cy="70.5" r="0.5" fill="#8F8F8F" stroke="#8F8F8F" stroke-width="2"/>
<circle cx="1036.5" cy="1.5" r="0.5" fill="#8F8F8F" stroke="#8F8F8F" stroke-width="2"/>
<circle cx="967.5" cy="1.5" r="0.5" fill="#8F8F8F" stroke="#8F8F8F" stroke-width="2"/>
<circle cx="967.5" cy="70.5" r="0.5" fill="#8F8F8F" stroke="#8F8F8F" stroke-width="2"/>
<circle cx="1036.5" cy="70.5" r="0.5" fill="#8F8F8F" stroke="#8F8F8F" stroke-width="2"/>
<circle cx="1174.5" cy="1.5" r="0.5" fill="#8F8F8F" stroke="#8F8F8F" stroke-width="2"/>
<circle cx="1105.5" cy="1.5" r="0.5" fill="#8F8F8F" stroke="#8F8F8F" stroke-width="2"/>
<circle cx="1105.5" cy="70.5" r="0.5" fill="#8F8F8F" stroke="#8F8F8F" stroke-width="2"/>
<circle cx="1174.5" cy="70.5" r="0.5" fill="#8F8F8F" stroke="#8F8F8F" stroke-width="2"/>
<circle cx="1312.5" cy="1.5" r="0.5" fill="#8F8F8F" stroke="#8F8F8F" stroke-width="2"/>
<circle cx="1243.5" cy="1.5" r="0.5" fill="#8F8F8F" stroke="#8F8F8F" stroke-width="2"/>
<circle cx="1243.5" cy="70.5" r="0.5" fill="#8F8F8F" stroke="#8F8F8F" stroke-width="2"/>
<circle cx="1312.5" cy="70.5" r="0.5" fill="#8F8F8F" stroke="#8F8F8F" stroke-width="2"/>
<circle cx="1450.5" cy="1.5" r="0.5" fill="#8F8F8F" stroke="#8F8F8F" stroke-width="2"/>
<circle cx="1381.5" cy="1.5" r="0.5" fill="#8F8F8F" stroke="#8F8F8F" stroke-width="2"/>
<circle cx="1381.5" cy="70.5" r="0.5" fill="#8F8F8F" stroke="#8F8F8F" stroke-width="2"/>
<circle cx="1450.5" cy="70.5" r="0.5" fill="#8F8F8F" stroke="#8F8F8F" stroke-width="2"/>
<circle cx="70.5" cy="139.5" r="0.5" fill="#8F8F8F" stroke="#8F8F8F" stroke-width="2"/>
<circle cx="1.5" cy="139.5" r="0.5" fill="#8F8F8F" stroke="#8F8F8F" stroke-width="2"/>
<circle cx="1.5" cy="208.5" r="0.5" fill="#8F8F8F" stroke="#8F8F8F" stroke-width="2"/>
<circle cx="70.5" cy="208.5" r="0.5" fill="#8F8F8F" stroke="#8F8F8F" stroke-width="2"/>
<circle cx="208.5" cy="139.5" r="0.5" fill="#8F8F8F" stroke="#8F8F8F" stroke-width="2"/>
<circle cx="139.5" cy="139.5" r="0.5" fill="#8F8F8F" stroke="#8F8F8F" stroke-width="2"/>
<circle cx="139.5" cy="208.5" r="0.5" fill="#8F8F8F" stroke="#8F8F8F" stroke-width="2"/>
<circle cx="208.5" cy="208.5" r="0.5" fill="#8F8F8F" stroke="#8F8F8F" stroke-width="2"/>
<circle cx="346.5" cy="139.5" r="0.5" fill="#8F8F8F" stroke="#8F8F8F" stroke-width="2"/>
<circle cx="277.5" cy="139.5" r="0.5" fill="#8F8F8F" stroke="#8F8F8F" stroke-width="2"/>
<circle cx="277.5" cy="208.5" r="0.5" fill="#8F8F8F" stroke="#8F8F8F" stroke-width="2"/>
<circle cx="346.5" cy="208.5" r="0.5" fill="#8F8F8F" stroke="#8F8F8F" stroke-width="2"/>
<circle cx="484.5" cy="139.5" r="0.5" fill="#8F8F8F" stroke="#8F8F8F" stroke-width="2"/>
<circle cx="415.5" cy="139.5" r="0.5" fill="#8F8F8F" stroke="#8F8F8F" stroke-width="2"/>
<circle cx="415.5" cy="208.5" r="0.5" fill="#8F8F8F" stroke="#8F8F8F" stroke-width="2"/>
<circle cx="484.5" cy="208.5" r="0.5" fill="#8F8F8F" stroke="#8F8F8F" stroke-width="2"/>
<circle cx="622.5" cy="139.5" r="0.5" fill="#8F8F8F" stroke="#8F8F8F" stroke-width="2"/>
<circle cx="553.5" cy="139.5" r="0.5" fill="#8F8F8F" stroke="#8F8F8F" stroke-width="2"/>
<circle cx="553.5" cy="208.5" r="0.5" fill="#8F8F8F" stroke="#8F8F8F" stroke-width="2"/>
<circle cx="622.5" cy="208.5" r="0.5" fill="#8F8F8F" stroke="#8F8F8F" stroke-width="2"/>
<circle cx="760.5" cy="139.5" r="0.5" fill="#8F8F8F" stroke="#8F8F8F" stroke-width="2"/>
<circle cx="691.5" cy="139.5" r="0.5" fill="#8F8F8F" stroke="#8F8F8F" stroke-width="2"/>
<circle cx="691.5" cy="208.5" r="0.5" fill="#8F8F8F" stroke="#8F8F8F" stroke-width="2"/>
<circle cx="760.5" cy="208.5" r="0.5" fill="#8F8F8F" stroke="#8F8F8F" stroke-width="2"/>
<circle cx="898.5" cy="139.5" r="0.5" fill="#8F8F8F" stroke="#8F8F8F" stroke-width="2"/>
<circle cx="829.5" cy="139.5" r="0.5" fill="#8F8F8F" stroke="#8F8F8F" stroke-width="2"/>
<circle cx="829.5" cy="208.5" r="0.5" fill="#8F8F8F" stroke="#8F8F8F" stroke-width="2"/>
<circle cx="898.5" cy="208.5" r="0.5" fill="#8F8F8F" stroke="#8F8F8F" stroke-width="2"/>
<circle cx="1036.5" cy="139.5" r="0.5" fill="#8F8F8F" stroke="#8F8F8F" stroke-width="2"/>
<circle cx="967.5" cy="139.5" r="0.5" fill="#8F8F8F" stroke="#8F8F8F" stroke-width="2"/>
<circle cx="967.5" cy="208.5" r="0.5" fill="#8F8F8F" stroke="#8F8F8F" stroke-width="2"/>
<circle cx="1036.5" cy="208.5" r="0.5" fill="#8F8F8F" stroke="#8F8F8F" stroke-width="2"/>
<circle cx="1174.5" cy="139.5" r="0.5" fill="#8F8F8F" stroke="#8F8F8F" stroke-width="2"/>
<circle cx="1105.5" cy="139.5" r="0.5" fill="#8F8F8F" stroke="#8F8F8F" stroke-width="2"/>
<circle cx="1105.5" cy="208.5" r="0.5" fill="#8F8F8F" stroke="#8F8F8F" stroke-width="2"/>
<circle cx="1174.5" cy="208.5" r="0.5" fill="#8F8F8F" stroke="#8F8F8F" stroke-width="2"/>
<circle cx="1312.5" cy="139.5" r="0.5" fill="#8F8F8F" stroke="#8F8F8F" stroke-width="2"/>
<circle cx="1243.5" cy="139.5" r="0.5" fill="#8F8F8F" stroke="#8F8F8F" stroke-width="2"/>
<circle cx="1243.5" cy="208.5" r="0.5" fill="#8F8F8F" stroke="#8F8F8F" stroke-width="2"/>
<circle cx="1312.5" cy="208.5" r="0.5" fill="#8F8F8F" stroke="#8F8F8F" stroke-width="2"/>
<circle cx="1450.5" cy="139.5" r="0.5" fill="#8F8F8F" stroke="#8F8F8F" stroke-width="2"/>
<circle cx="1381.5" cy="139.5" r="0.5" fill="#8F8F8F" stroke="#8F8F8F" stroke-width="2"/>
<circle cx="1381.5" cy="208.5" r="0.5" fill="#8F8F8F" stroke="#8F8F8F" stroke-width="2"/>
<circle cx="1450.5" cy="208.5" r="0.5" fill="#8F8F8F" stroke="#8F8F8F" stroke-width="2"/>
<circle cx="70.5" cy="277.5" r="0.5" fill="#8F8F8F" stroke="#8F8F8F" stroke-width="2"/>
<circle cx="1.5" cy="277.5" r="0.5" fill="#8F8F8F" stroke="#8F8F8F" stroke-width="2"/>
<circle cx="1.5" cy="346.5" r="0.5" fill="#8F8F8F" stroke="#8F8F8F" stroke-width="2"/>
<circle cx="70.5" cy="346.5" r="0.5" fill="#8F8F8F" stroke="#8F8F8F" stroke-width="2"/>
<circle cx="208.5" cy="277.5" r="0.5" fill="#8F8F8F" stroke="#8F8F8F" stroke-width="2"/>
<circle cx="139.5" cy="277.5" r="0.5" fill="#8F8F8F" stroke="#8F8F8F" stroke-width="2"/>
<circle cx="139.5" cy="346.5" r="0.5" fill="#8F8F8F" stroke="#8F8F8F" stroke-width="2"/>
<circle cx="208.5" cy="346.5" r="0.5" fill="#8F8F8F" stroke="#8F8F8F" stroke-width="2"/>
<circle cx="346.5" cy="277.5" r="0.5" fill="#8F8F8F" stroke="#8F8F8F" stroke-width="2"/>
<circle cx="277.5" cy="277.5" r="0.5" fill="#8F8F8F" stroke="#8F8F8F" stroke-width="2"/>
<circle cx="277.5" cy="346.5" r="0.5" fill="#8F8F8F" stroke="#8F8F8F" stroke-width="2"/>
<circle cx="346.5" cy="346.5" r="0.5" fill="#8F8F8F" stroke="#8F8F8F" stroke-width="2"/>
<circle cx="484.5" cy="277.5" r="0.5" fill="#8F8F8F" stroke="#8F8F8F" stroke-width="2"/>
<circle cx="415.5" cy="277.5" r="0.5" fill="#8F8F8F" stroke="#8F8F8F" stroke-width="2"/>
<circle cx="415.5" cy="346.5" r="0.5" fill="#8F8F8F" stroke="#8F8F8F" stroke-width="2"/>
<circle cx="484.5" cy="346.5" r="0.5" fill="#8F8F8F" stroke="#8F8F8F" stroke-width="2"/>
<circle cx="622.5" cy="277.5" r="0.5" fill="#8F8F8F" stroke="#8F8F8F" stroke-width="2"/>
<circle cx="553.5" cy="277.5" r="0.5" fill="#8F8F8F" stroke="#8F8F8F" stroke-width="2"/>
<circle cx="553.5" cy="346.5" r="0.5" fill="#8F8F8F" stroke="#8F8F8F" stroke-width="2"/>
<circle cx="622.5" cy="346.5" r="0.5" fill="#8F8F8F" stroke="#8F8F8F" stroke-width="2"/>
<circle cx="760.5" cy="277.5" r="0.5" fill="#8F8F8F" stroke="#8F8F8F" stroke-width="2"/>
<circle cx="691.5" cy="277.5" r="0.5" fill="#8F8F8F" stroke="#8F8F8F" stroke-width="2"/>
<circle cx="691.5" cy="346.5" r="0.5" fill="#8F8F8F" stroke="#8F8F8F" stroke-width="2"/>
<circle cx="760.5" cy="346.5" r="0.5" fill="#8F8F8F" stroke="#8F8F8F" stroke-width="2"/>
<circle cx="898.5" cy="277.5" r="0.5" fill="#8F8F8F" stroke="#8F8F8F" stroke-width="2"/>
<circle cx="829.5" cy="277.5" r="0.5" fill="#8F8F8F" stroke="#8F8F8F" stroke-width="2"/>
<circle cx="829.5" cy="346.5" r="0.5" fill="#8F8F8F" stroke="#8F8F8F" stroke-width="2"/>
<circle cx="898.5" cy="346.5" r="0.5" fill="#8F8F8F" stroke="#8F8F8F" stroke-width="2"/>
<circle cx="1036.5" cy="277.5" r="0.5" fill="#8F8F8F" stroke="#8F8F8F" stroke-width="2"/>
<circle cx="967.5" cy="277.5" r="0.5" fill="#8F8F8F" stroke="#8F8F8F" stroke-width="2"/>
<circle cx="967.5" cy="346.5" r="0.5" fill="#8F8F8F" stroke="#8F8F8F" stroke-width="2"/>
<circle cx="1036.5" cy="346.5" r="0.5" fill="#8F8F8F" stroke="#8F8F8F" stroke-width="2"/>
<circle cx="1174.5" cy="277.5" r="0.5" fill="#8F8F8F" stroke="#8F8F8F" stroke-width="2"/>
<circle cx="1105.5" cy="277.5" r="0.5" fill="#8F8F8F" stroke="#8F8F8F" stroke-width="2"/>
<circle cx="1105.5" cy="346.5" r="0.5" fill="#8F8F8F" stroke="#8F8F8F" stroke-width="2"/>
<circle cx="1174.5" cy="346.5" r="0.5" fill="#8F8F8F" stroke="#8F8F8F" stroke-width="2"/>
<circle cx="1312.5" cy="277.5" r="0.5" fill="#8F8F8F" stroke="#8F8F8F" stroke-width="2"/>
<circle cx="1243.5" cy="277.5" r="0.5" fill="#8F8F8F" stroke="#8F8F8F" stroke-width="2"/>
<circle cx="1243.5" cy="346.5" r="0.5" fill="#8F8F8F" stroke="#8F8F8F" stroke-width="2"/>
<circle cx="1312.5" cy="346.5" r="0.5" fill="#8F8F8F" stroke="#8F8F8F" stroke-width="2"/>
<circle cx="1450.5" cy="277.5" r="0.5" fill="#8F8F8F" stroke="#8F8F8F" stroke-width="2"/>
<circle cx="1381.5" cy="277.5" r="0.5" fill="#8F8F8F" stroke="#8F8F8F" stroke-width="2"/>
<circle cx="1381.5" cy="346.5" r="0.5" fill="#8F8F8F" stroke="#8F8F8F" stroke-width="2"/>
<circle cx="1450.5" cy="346.5" r="0.5" fill="#8F8F8F" stroke="#8F8F8F" stroke-width="2"/>
<circle cx="70.5" cy="415.5" r="0.5" fill="#8F8F8F" stroke="#8F8F8F" stroke-width="2"/>
<circle cx="1.5" cy="415.5" r="0.5" fill="#8F8F8F" stroke="#8F8F8F" stroke-width="2"/>
<circle cx="1.5" cy="484.5" r="0.5" fill="#8F8F8F" stroke="#8F8F8F" stroke-width="2"/>
<circle cx="70.5" cy="484.5" r="0.5" fill="#8F8F8F" stroke="#8F8F8F" stroke-width="2"/>
<circle cx="208.5" cy="415.5" r="0.5" fill="#8F8F8F" stroke="#8F8F8F" stroke-width="2"/>
<circle cx="139.5" cy="415.5" r="0.5" fill="#8F8F8F" stroke="#8F8F8F" stroke-width="2"/>
<circle cx="139.5" cy="484.5" r="0.5" fill="#8F8F8F" stroke="#8F8F8F" stroke-width="2"/>
<circle cx="208.5" cy="484.5" r="0.5" fill="#8F8F8F" stroke="#8F8F8F" stroke-width="2"/>
<circle cx="346.5" cy="415.5" r="0.5" fill="#8F8F8F" stroke="#8F8F8F" stroke-width="2"/>
<circle cx="277.5" cy="415.5" r="0.5" fill="#8F8F8F" stroke="#8F8F8F" stroke-width="2"/>
<circle cx="277.5" cy="484.5" r="0.5" fill="#8F8F8F" stroke="#8F8F8F" stroke-width="2"/>
<circle cx="346.5" cy="484.5" r="0.5" fill="#8F8F8F" stroke="#8F8F8F" stroke-width="2"/>
<circle cx="484.5" cy="415.5" r="0.5" fill="#8F8F8F" stroke="#8F8F8F" stroke-width="2"/>
<circle cx="415.5" cy="415.5" r="0.5" fill="#8F8F8F" stroke="#8F8F8F" stroke-width="2"/>
<circle cx="415.5" cy="484.5" r="0.5" fill="#8F8F8F" stroke="#8F8F8F" stroke-width="2"/>
<circle cx="484.5" cy="484.5" r="0.5" fill="#8F8F8F" stroke="#8F8F8F" stroke-width="2"/>
<circle cx="622.5" cy="415.5" r="0.5" fill="#8F8F8F" stroke="#8F8F8F" stroke-width="2"/>
<circle cx="553.5" cy="415.5" r="0.5" fill="#8F8F8F" stroke="#8F8F8F" stroke-width="2"/>
<circle cx="553.5" cy="484.5" r="0.5" fill="#8F8F8F" stroke="#8F8F8F" stroke-width="2"/>
<circle cx="622.5" cy="484.5" r="0.5" fill="#8F8F8F" stroke="#8F8F8F" stroke-width="2"/>
<circle cx="760.5" cy="415.5" r="0.5" fill="#8F8F8F" stroke="#8F8F8F" stroke-width="2"/>
<circle cx="691.5" cy="415.5" r="0.5" fill="#8F8F8F" stroke="#8F8F8F" stroke-width="2"/>
<circle cx="691.5" cy="484.5" r="0.5" fill="#8F8F8F" stroke="#8F8F8F" stroke-width="2"/>
<circle cx="760.5" cy="484.5" r="0.5" fill="#8F8F8F" stroke="#8F8F8F" stroke-width="2"/>
<circle cx="898.5" cy="415.5" r="0.5" fill="#8F8F8F" stroke="#8F8F8F" stroke-width="2"/>
<circle cx="829.5" cy="415.5" r="0.5" fill="#8F8F8F" stroke="#8F8F8F" stroke-width="2"/>
<circle cx="829.5" cy="484.5" r="0.5" fill="#8F8F8F" stroke="#8F8F8F" stroke-width="2"/>
<circle cx="898.5" cy="484.5" r="0.5" fill="#8F8F8F" stroke="#8F8F8F" stroke-width="2"/>
<circle cx="1036.5" cy="415.5" r="0.5" fill="#8F8F8F" stroke="#8F8F8F" stroke-width="2"/>
<circle cx="967.5" cy="415.5" r="0.5" fill="#8F8F8F" stroke="#8F8F8F" stroke-width="2"/>
<circle cx="967.5" cy="484.5" r="0.5" fill="#8F8F8F" stroke="#8F8F8F" stroke-width="2"/>
<circle cx="1036.5" cy="484.5" r="0.5" fill="#8F8F8F" stroke="#8F8F8F" stroke-width="2"/>
<circle cx="1174.5" cy="415.5" r="0.5" fill="#8F8F8F" stroke="#8F8F8F" stroke-width="2"/>
<circle cx="1105.5" cy="415.5" r="0.5" fill="#8F8F8F" stroke="#8F8F8F" stroke-width="2"/>
<circle cx="1105.5" cy="484.5" r="0.5" fill="#8F8F8F" stroke="#8F8F8F" stroke-width="2"/>
<circle cx="1174.5" cy="484.5" r="0.5" fill="#8F8F8F" stroke="#8F8F8F" stroke-width="2"/>
<circle cx="1312.5" cy="415.5" r="0.5" fill="#8F8F8F" stroke="#8F8F8F" stroke-width="2"/>
<circle cx="1243.5" cy="415.5" r="0.5" fill="#8F8F8F" stroke="#8F8F8F" stroke-width="2"/>
<circle cx="1243.5" cy="484.5" r="0.5" fill="#8F8F8F" stroke="#8F8F8F" stroke-width="2"/>
<circle cx="1312.5" cy="484.5" r="0.5" fill="#8F8F8F" stroke="#8F8F8F" stroke-width="2"/>
<circle cx="1450.5" cy="415.5" r="0.5" fill="#8F8F8F" stroke="#8F8F8F" stroke-width="2"/>
<circle cx="1381.5" cy="415.5" r="0.5" fill="#8F8F8F" stroke="#8F8F8F" stroke-width="2"/>
<circle cx="1381.5" cy="484.5" r="0.5" fill="#8F8F8F" stroke="#8F8F8F" stroke-width="2"/>
<circle cx="1450.5" cy="484.5" r="0.5" fill="#8F8F8F" stroke="#8F8F8F" stroke-width="2"/>
</g>
</svg>
