<svg width="229" height="36" viewBox="0 0 229 36" fill="none" xmlns="http://www.w3.org/2000/svg">
<path d="M24.968 35V5.672H13.592L13.4 12.008C13.24 16.584 12.872 20.376 12.296 23.384C11.752 26.36 10.968 28.712 9.944 30.44C8.92 32.168 7.64 33.384 6.104 34.088C4.568 34.792 2.728 35.144 0.584 35.144V30.44C1.768 30.44 2.808 30.168 3.704 29.624C4.6 29.048 5.352 28.04 5.96 26.6C6.6 25.16 7.096 23.144 7.448 20.552C7.832 17.928 8.088 14.584 8.216 10.52L8.552 0.919998H30.392V35H24.968ZM52.25 35.24C49.818 35.24 47.594 34.76 45.578 33.8C43.594 32.84 41.882 31.544 40.442 29.912C39.002 28.248 37.882 26.392 37.082 24.344C36.314 22.264 35.93 20.136 35.93 17.96C35.93 15.688 36.346 13.528 37.178 11.48C38.01 9.4 39.162 7.56 40.634 5.96C42.106 4.328 43.834 3.048 45.818 2.12C47.834 1.16 50.01 0.679998 52.346 0.679998C54.778 0.679998 56.986 1.176 58.97 2.168C60.986 3.16 62.698 4.488 64.106 6.152C65.546 7.816 66.65 9.672 67.418 11.72C68.218 13.768 68.618 15.864 68.618 18.008C68.618 20.28 68.202 22.456 67.37 24.536C66.57 26.584 65.434 28.424 63.962 30.056C62.49 31.656 60.746 32.92 58.73 33.848C56.746 34.776 54.586 35.24 52.25 35.24ZM41.402 17.96C41.402 20.104 41.85 22.136 42.746 24.056C43.642 25.944 44.89 27.48 46.49 28.664C48.122 29.816 50.058 30.392 52.298 30.392C53.994 30.392 55.514 30.04 56.858 29.336C58.202 28.632 59.338 27.688 60.266 26.504C61.194 25.288 61.898 23.944 62.378 22.472C62.858 21 63.098 19.496 63.098 17.96C63.098 15.816 62.65 13.8 61.754 11.912C60.89 10.024 59.642 8.504 58.01 7.352C56.378 6.168 54.474 5.576 52.298 5.576C50.57 5.576 49.034 5.928 47.69 6.632C46.346 7.336 45.21 8.28 44.282 9.464C43.354 10.648 42.634 11.976 42.122 13.448C41.642 14.92 41.402 16.424 41.402 17.96ZM74.2318 35V0.919998H94.5358V5.672H79.6078V35H74.2318ZM113.75 35.24C111.318 35.24 109.094 34.76 107.078 33.8C105.094 32.84 103.382 31.544 101.942 29.912C100.502 28.248 99.382 26.392 98.582 24.344C97.814 22.264 97.43 20.136 97.43 17.96C97.43 15.688 97.846 13.528 98.678 11.48C99.51 9.4 100.662 7.56 102.134 5.96C103.606 4.328 105.334 3.048 107.318 2.12C109.334 1.16 111.51 0.679998 113.846 0.679998C116.278 0.679998 118.486 1.176 120.47 2.168C122.486 3.16 124.198 4.488 125.606 6.152C127.046 7.816 128.15 9.672 128.918 11.72C129.718 13.768 130.118 15.864 130.118 18.008C130.118 20.28 129.702 22.456 128.87 24.536C128.07 26.584 126.934 28.424 125.462 30.056C123.99 31.656 122.246 32.92 120.23 33.848C118.246 34.776 116.086 35.24 113.75 35.24ZM102.902 17.96C102.902 20.104 103.35 22.136 104.246 24.056C105.142 25.944 106.39 27.48 107.99 28.664C109.622 29.816 111.558 30.392 113.798 30.392C115.494 30.392 117.014 30.04 118.358 29.336C119.702 28.632 120.838 27.688 121.766 26.504C122.694 25.288 123.398 23.944 123.878 22.472C124.358 21 124.598 19.496 124.598 17.96C124.598 15.816 124.15 13.8 123.254 11.912C122.39 10.024 121.142 8.504 119.51 7.352C117.878 6.168 115.974 5.576 113.798 5.576C112.07 5.576 110.534 5.928 109.19 6.632C107.846 7.336 106.71 8.28 105.782 9.464C104.854 10.648 104.134 11.976 103.622 13.448C103.142 14.92 102.902 16.424 102.902 17.96ZM159.754 5.672H148.426V35H143.002V5.672H131.626V0.919998H159.754V5.672ZM164.564 35V0.919998H169.94V27.416L188.132 0.919998H193.172V35H187.796V8.936L169.796 35H164.564ZM201.122 35V0.919998H228.05V35H222.626V5.672H206.498V35H201.122Z" fill="#FAD163"/>
</svg>
