<svg width="128" height="128" viewBox="0 0 128 128" fill="none" xmlns="http://www.w3.org/2000/svg">
<path fill-rule="evenodd" clip-rule="evenodd" d="M64 128C99.3462 128 128 99.3462 128 64C128 28.6538 99.3462 0 64 0C28.6538 0 0 28.6538 0 64C0 99.3462 28.6538 128 64 128Z" fill="#87B645"/>
<path d="M85.5946 44.2362C87.3954 42.2416 90.4193 42.1338 92.3486 43.9954C94.278 45.8571 94.3823 48.9833 92.5815 50.978L59.1309 88.0306C57.3838 89.9658 54.4717 90.1335 52.5276 88.4107L35.8023 73.5896C33.7984 71.814 33.5664 68.6951 35.2839 66.6235C37.0015 64.5519 40.0183 64.312 42.0221 66.0877L55.2695 77.8268L85.5946 44.2362Z" fill="white"/>
</svg>
