<svg width="128" height="128" viewBox="0 0 128 128" fill="none" xmlns="http://www.w3.org/2000/svg">
<path fill-rule="evenodd" clip-rule="evenodd" d="M64 128C99.3462 128 128 99.3462 128 64C128 28.6538 99.3462 0 64 0C28.6538 0 0 28.6538 0 64C0 99.3462 28.6538 128 64 128Z" fill="#EB5757"/>
<path d="M59.7196 76.0025C59.7722 72.9042 60.1273 70.4567 60.7849 68.6602C61.4426 66.8637 62.7841 64.8719 64.8096 62.6849L69.9785 57.4125C72.1882 54.9391 73.293 52.2834 73.293 49.4454C73.293 46.7116 72.5696 44.5766 71.1228 43.0405C69.676 41.4783 67.5716 40.6972 64.8096 40.6972C62.1265 40.6972 59.9695 41.4002 58.3386 42.8061C56.7077 44.2121 55.8922 46.0997 55.8922 48.469H48.5926C48.6452 44.2512 50.1577 40.8534 53.1302 38.2758C56.129 35.6722 60.0221 34.3704 64.8096 34.3704C69.7812 34.3704 73.6481 35.6982 76.4101 38.3539C79.1984 40.9836 80.5926 44.6026 80.5926 49.2111C80.5926 53.7674 78.4619 58.2587 74.2005 62.6849L69.8996 66.9028C67.9794 69.0117 67.0192 72.045 67.0192 76.0025H59.7196ZM59.4039 88.3828C59.4039 87.2111 59.7591 86.2348 60.4693 85.4537C61.2058 84.6465 62.2843 84.243 63.7048 84.243C65.1253 84.243 66.2038 84.6465 66.9403 85.4537C67.6768 86.2348 68.0451 87.2111 68.0451 88.3828C68.0451 89.5544 67.6768 90.5308 66.9403 91.3119C66.2038 92.0669 65.1253 92.4444 63.7048 92.4444C62.2843 92.4444 61.2058 92.0669 60.4693 91.3119C59.7591 90.5308 59.4039 89.5544 59.4039 88.3828Z" fill="#E7E9E8"/>
</svg>
