<svg width="24" height="24" viewBox="0 0 24 24" fill="none" xmlns="http://www.w3.org/2000/svg">
<path d="M19.9666 4.17286C18.1344 1.52114 15.2306 0 12.0004 0C8.77018 0 5.86641 1.52114 4.03421 4.17286C2.21101 6.81117 1.79002 10.1513 2.90584 13.1024C3.20429 13.9082 3.67871 14.6912 4.31256 15.4249L11.3615 23.7046C11.5209 23.892 11.7545 24 12.0004 24C12.2462 24 12.4798 23.892 12.6392 23.7046L19.6862 15.4271C20.3229 14.6892 20.7967 13.9071 21.0927 13.1077C22.2107 10.1513 21.7898 6.81117 19.9666 4.17286ZM19.5212 12.52C19.293 13.1368 18.9204 13.7466 18.4144 14.3331C18.413 14.3345 18.4116 14.3359 18.4104 14.3376L12.0004 21.8666L5.58638 14.3329C5.08065 13.7468 4.70804 13.1371 4.47756 12.5144C3.55477 10.0739 3.90498 7.31217 5.41463 5.12728C6.92902 2.93541 9.32959 1.67831 12.0004 1.67831C14.6711 1.67831 17.0714 2.93536 18.5859 5.12728C20.0958 7.31217 20.4463 10.0739 19.5212 12.52Z" fill="white"/>
<path d="M12.0003 4.979C9.40928 4.979 7.30103 7.08697 7.30103 9.67832C7.30103 12.2697 9.40899 14.3776 12.0003 14.3776C14.5917 14.3776 16.6996 12.2697 16.6996 9.67832C16.6996 7.08725 14.5914 4.979 12.0003 4.979ZM12.0003 12.6993C10.3346 12.6993 8.97934 11.344 8.97934 9.67827C8.97934 8.01252 10.3346 6.65727 12.0003 6.65727C13.6661 6.65727 15.0213 8.01252 15.0213 9.67827C15.0213 11.344 13.6661 12.6993 12.0003 12.6993Z" fill="white"/>
</svg>
