<svg width="17" height="17" viewBox="0 0 17 17" fill="none" xmlns="http://www.w3.org/2000/svg">
<path d="M14.5091 2.4882C11.1892 -0.830753 5.80727 -0.829956 2.48832 2.49002C-0.830631 5.81 -0.829834 11.1919 2.49015 14.5108C5.81013 17.8298 11.192 17.829 14.511 14.509C16.1049 12.9146 17.0001 10.7522 16.9996 8.4977C16.9992 6.24354 16.1033 4.08188 14.5091 2.4882ZM12.8726 11.8399C12.8722 11.8403 12.8719 11.8407 12.8715 11.8411V11.8382L12.4408 12.2661C11.8838 12.8301 11.0726 13.0621 10.3016 12.8781C9.52483 12.6701 8.78639 12.3392 8.11429 11.8977C7.48987 11.4987 6.91121 11.0322 6.38879 10.5066C5.90811 10.0294 5.47627 9.50545 5.09961 8.94255C4.68763 8.33686 4.36154 7.67705 4.13061 6.98188C3.86588 6.16521 4.08526 5.26909 4.69729 4.66705L5.20161 4.16273C5.34183 4.02188 5.56967 4.02139 5.71048 4.1616C5.71085 4.16197 5.71125 4.16233 5.71161 4.16273L7.30394 5.75505C7.44478 5.89527 7.44528 6.12311 7.30506 6.26393C7.3047 6.26429 7.30433 6.26466 7.30394 6.26505L6.36894 7.20005C6.10065 7.46541 6.06692 7.88709 6.28961 8.19173C6.62779 8.65584 7.00202 9.09256 7.40879 9.49791C7.86231 9.95339 8.35535 10.3677 8.88211 10.7361C9.18649 10.9484 9.59913 10.9126 9.86244 10.6511L10.7663 9.73309C10.9065 9.59224 11.1343 9.59174 11.2751 9.73196C11.2755 9.73232 11.2759 9.73269 11.2763 9.73309L12.8714 11.3311C13.0123 11.4713 13.0128 11.6991 12.8726 11.8399Z" fill="white"/>
</svg>
