<svg width="106" height="112" viewBox="0 0 106 112" fill="none" xmlns="http://www.w3.org/2000/svg">
<g filter="url(#filter0_d)">
<path d="M64.9499 40.2593C62.2016 36.2817 57.8459 34 53.0006 34C48.1553 34 43.7997 36.2817 41.0514 40.2593C38.3166 44.2168 37.6851 49.227 39.3588 53.6535C39.8065 54.8624 40.5181 56.0368 41.4689 57.1373L52.0423 69.5569C52.2815 69.838 52.6318 70 53.0006 70C53.3694 70 53.7198 69.8381 53.9589 69.5569L64.5294 57.1407C65.4844 56.0338 66.1951 54.8607 66.6391 53.6616C68.3162 49.227 67.6847 44.2168 64.9499 40.2593ZM64.2819 52.78C63.9396 53.7051 63.3807 54.6198 62.6216 55.4997C62.6195 55.5018 62.6174 55.5039 62.6157 55.5064L53.0006 66.7999L43.3796 55.4993C42.621 54.6203 42.0621 53.7056 41.7164 52.7716C40.3322 49.1108 40.8575 44.9683 43.122 41.6909C45.3936 38.4031 48.9944 36.5175 53.0006 36.5175C57.0068 36.5175 60.6072 38.403 62.8788 41.6909C65.1437 44.9683 65.6695 49.1108 64.2819 52.78Z" fill="#F39200"/>
<path d="M64.2819 52.78C63.9396 53.7051 63.3807 54.6198 62.6216 55.4997C62.6195 55.5018 62.6174 55.5039 62.6157 55.5064L53.0006 66.7999L43.3796 55.4993C42.621 54.6203 42.0621 53.7056 41.7164 52.7716C40.3322 49.1108 40.8575 44.9683 43.122 41.6909C45.3936 38.4031 48.9944 36.5175 53.0006 36.5175C57.0068 36.5175 60.6072 38.403 62.8788 41.6909C65.1437 44.9683 65.6695 49.1108 64.2819 52.78Z" fill="#F39200"/>
<path d="M53.0006 41.4685C49.114 41.4685 45.9517 44.6305 45.9517 48.5175C45.9517 52.4045 49.1136 55.5664 53.0006 55.5664C56.8876 55.5664 60.0496 52.4045 60.0496 48.5175C60.0496 44.6309 56.8872 41.4685 53.0006 41.4685ZM53.0006 53.0489C50.502 53.0489 48.4691 51.016 48.4691 48.5174C48.4691 46.0188 50.502 43.9859 53.0006 43.9859C55.4993 43.9859 57.5321 46.0188 57.5321 48.5174C57.5321 51.016 55.4993 53.0489 53.0006 53.0489Z" fill="white"/>
<path d="M53.0006 53.0489C50.502 53.0489 48.4691 51.016 48.4691 48.5174C48.4691 46.0188 50.502 43.9859 53.0006 43.9859C55.4993 43.9859 57.5321 46.0188 57.5321 48.5174C57.5321 51.016 55.4993 53.0489 53.0006 53.0489Z" fill="white"/>
</g>
<defs>
<filter id="filter0_d" x="-3" y="0" width="112" height="112" filterUnits="userSpaceOnUse" color-interpolation-filters="sRGB">
<feFlood flood-opacity="0" result="BackgroundImageFix"/>
<feColorMatrix in="SourceAlpha" type="matrix" values="0 0 0 0 0 0 0 0 0 0 0 0 0 0 0 0 0 0 127 0"/>
<feOffset dy="4"/>
<feGaussianBlur stdDeviation="19"/>
<feColorMatrix type="matrix" values="0 0 0 0 0 0 0 0 0 0 0 0 0 0 0 0 0 0 0.27 0"/>
<feBlend mode="normal" in2="BackgroundImageFix" result="effect1_dropShadow"/>
<feBlend mode="normal" in="SourceGraphic" in2="effect1_dropShadow" result="shape"/>
</filter>
</defs>
</svg>
