<svg width="19" height="15" viewBox="0 0 19 15" fill="none" xmlns="http://www.w3.org/2000/svg">
<path d="M17.3301 0.820312H1.66992C0.747271 0.820312 0 1.57222 0 2.49023V12.5098C0 13.4332 0.752764 14.1797 1.66992 14.1797H17.3301C18.245 14.1797 19 13.4364 19 12.5098V2.49023C19 1.57386 18.2557 0.820312 17.3301 0.820312ZM17.0962 1.93359C16.755 2.27296 10.8835 8.11353 10.6808 8.31518C10.3654 8.63061 9.94605 8.80428 9.5 8.80428C9.05395 8.80428 8.63461 8.63057 8.31814 8.31414C8.1818 8.17851 2.37511 2.40243 1.90379 1.93359H17.0962ZM1.11328 12.2832V2.71753L5.92407 7.50297L1.11328 12.2832ZM1.90449 13.0664L6.71338 8.28809L7.53198 9.10238C8.05767 9.62807 8.75659 9.91756 9.5 9.91756C10.2434 9.91756 10.9423 9.62807 11.467 9.10342L12.2866 8.28809L17.0955 13.0664H1.90449ZM17.8867 12.2832L13.0759 7.50297L17.8867 2.71753V12.2832Z" fill="white"/>
</svg>
