<svg width="22" height="22" viewBox="0 0 22 22" fill="none" xmlns="http://www.w3.org/2000/svg">
<path d="M21.9925 9.76604V9.76587C21.9566 9.42313 21.779 9.10724 21.5054 8.89793L20.2532 7.92308L20.7239 6.37015C20.8243 6.03882 20.7826 5.67677 20.6096 5.37666C20.4364 5.07672 20.1436 4.85969 19.8064 4.7808L18.2312 4.41305L18.0301 2.80809C17.987 2.46434 17.8017 2.15047 17.5217 1.94737C17.2414 1.74344 16.8854 1.66405 16.5455 1.72951L14.9568 2.03415L14.1201 0.649575C13.7871 0.0985322 13.0878 -0.109599 12.494 0.165C12.4522 0.184302 12.4119 0.207465 12.3768 0.232307L10.998 1.19273L9.67047 0.268058C9.3863 0.0703338 9.02929 -0.00167273 8.69058 0.0701659C8.35186 0.142005 8.05477 0.353492 7.87568 0.649911L7.0393 2.03432L5.45045 1.72951C5.11023 1.66438 4.75456 1.74377 4.47476 1.9472C4.19445 2.1508 4.00915 2.46468 3.96618 2.80809L3.7651 4.41322L2.09905 4.80212L2.02083 4.82763L1.99196 4.84022C1.3867 5.10492 1.08391 5.74845 1.27223 6.37015L1.74271 7.92308L0.436857 8.93889L0.361158 9.00469L0.339841 9.02802C-0.0984076 9.50672 -0.115528 10.2308 0.299055 10.7149L1.32141 11.9375L0.49275 13.4412L0.459684 13.5164L0.450117 13.5445C0.243497 14.162 0.524977 14.833 1.10472 15.1051L2.56902 15.7923L2.43189 17.4039C2.40252 17.7492 2.51867 18.0948 2.7503 18.3519C2.98192 18.6093 3.31342 18.7608 3.65986 18.7679L5.27707 18.8001L5.80747 20.328C5.92093 20.6553 6.1675 20.9239 6.48372 21.0645C6.79995 21.2053 7.16434 21.209 7.48392 21.0746L8.97457 20.4463L10.1446 21.695L10.2059 21.7495L10.2296 21.7671C10.4607 21.9378 10.7308 22.0214 10.9983 22.0214C11.3369 22.0214 11.6712 21.8875 11.9158 21.6265L13.0219 20.4463L14.5127 21.0748C14.8316 21.209 15.1958 21.2053 15.5121 21.0647C15.8286 20.9239 16.0752 20.6553 16.1886 20.3282L16.7192 18.8001L18.4299 18.766L18.5112 18.7571L18.5404 18.7513C19.1782 18.6212 19.6184 18.0419 19.5642 17.4041L19.4273 15.7923L20.8917 15.1051C21.2051 14.9581 21.4463 14.6848 21.5534 14.3553C21.6603 14.026 21.6259 13.6631 21.4587 13.3598L20.6749 11.9375L21.6974 10.7149C21.9208 10.4539 22.0284 10.1085 21.9925 9.76604ZM11.0665 16.5118C8.04571 16.5118 5.58809 14.0542 5.58809 11.0335C5.58809 8.01254 8.04571 5.55508 11.0665 5.55508C14.0874 5.55508 16.545 8.01254 16.545 11.0335C16.545 14.0542 14.0872 16.5118 11.0665 16.5118Z" fill="#F39200"/>
<path d="M11.0664 6.84521C8.75698 6.84521 6.87793 8.72409 6.87793 11.0337C6.87793 13.3431 8.75698 15.222 11.0664 15.222C13.376 15.222 15.2549 13.3431 15.2549 11.0337C15.2549 8.72409 13.376 6.84521 11.0664 6.84521ZM13.5532 10.2448L10.5524 13.2454C10.4266 13.3714 10.2616 13.4344 10.0964 13.4344C9.93141 13.4344 9.76625 13.3714 9.64036 13.2454L8.4938 12.0988C8.24186 11.8469 8.24186 11.4385 8.4938 11.1866C8.74557 10.9348 9.15394 10.9348 9.40588 11.1866L10.0966 11.8773L12.6411 9.33271C12.8929 9.08077 13.3015 9.08077 13.5532 9.33271C13.8052 9.58448 13.8052 9.99285 13.5532 10.2448Z" fill="#F39200"/>
</svg>
