<svg width="22" height="22" viewBox="0 0 22 22" fill="none" xmlns="http://www.w3.org/2000/svg">
<path d="M5.84302 9.02344C4.77679 9.02344 3.90942 9.8908 3.90942 10.957V16.1992C3.90942 17.2654 4.77679 18.1328 5.84302 18.1328C6.90924 18.1328 7.77661 17.2654 7.77661 16.1992V10.957C7.77661 9.8908 6.90924 9.02344 5.84302 9.02344Z" fill="#F39200"/>
<path d="M2.62036 10.9569C2.62036 10.771 2.6449 10.5914 2.67528 10.4141C1.89849 10.6651 1.3313 11.3867 1.3313 12.246V14.9101C1.3313 15.7694 1.89849 16.4909 2.67528 16.742C2.6449 16.5647 2.62036 16.3851 2.62036 16.1991V10.9569Z" fill="#F39200"/>
<path d="M16.1555 9.02344C15.0893 9.02344 14.2219 9.8908 14.2219 10.957V16.1992C14.2219 17.2654 15.0893 18.1328 16.1555 18.1328C16.3493 18.1328 16.5329 18.0955 16.7095 18.0422C16.4695 18.8375 15.7389 19.4219 14.8665 19.4219H12.8141C12.5472 18.6733 11.8384 18.1328 10.9993 18.1328C9.93304 18.1328 9.06567 19.0002 9.06567 20.0664C9.06567 21.1326 9.93304 22 10.9993 22C11.8384 22 12.5472 21.4595 12.8141 20.7109H14.8665C16.6433 20.7109 18.0891 19.2652 18.0891 17.4883V16.1992V10.957C18.0891 9.8908 17.2217 9.02344 16.1555 9.02344Z" fill="#F39200"/>
<path d="M19.3232 10.4141C19.3536 10.5914 19.3782 10.771 19.3782 10.9569V16.1991C19.3782 16.3851 19.3536 16.5647 19.3232 16.742C20.1 16.4909 20.6672 15.7694 20.6672 14.9101V12.246C20.6672 11.3867 20.1 10.6651 19.3232 10.4141Z" fill="#F39200"/>
<path d="M10.9993 0C5.66805 0 1.3313 4.33675 1.3313 9.66797V9.68443C1.71531 9.3937 2.15961 9.18096 2.64988 9.0857C2.95113 4.73735 6.57581 1.28906 10.9993 1.28906C15.4227 1.28906 19.0474 4.73735 19.3487 9.08566C19.8389 9.18092 20.2832 9.3937 20.6672 9.68438V9.66797C20.6672 4.33675 16.3305 0 10.9993 0Z" fill="#F39200"/>
</svg>
