<svg width="15" height="23" viewBox="0 0 15 23" fill="none" xmlns="http://www.w3.org/2000/svg">
<path d="M14.1047 0.643905V0.641529C13.6965 0.231129 13.1415 0.000237603 12.5627 0H2.43364C1.23059 0.00392045 0.256362 0.978153 0.252441 2.1812V20.8164C0.252679 21.3953 0.48357 21.9502 0.89397 22.3585C1.30164 22.7683 1.85561 22.9991 2.43364 23H12.565C13.1431 22.9991 13.697 22.7683 14.1047 22.3585C14.5145 21.9508 14.7454 21.3968 14.7462 20.8188V2.18357C14.7454 1.60554 14.5145 1.05157 14.1047 0.643905ZM7.49934 21.5197C7.17389 21.5197 6.91009 21.2559 6.91009 20.9305C6.91009 20.605 7.17389 20.3412 7.49934 20.3412C7.8248 20.3412 8.0886 20.605 8.0886 20.9305C8.0886 21.2559 7.8248 21.5197 7.49934 21.5197ZM13.0141 17.8202C13.0141 18.6076 12.3759 19.2459 11.5885 19.2459H3.40781C2.62046 19.2459 1.98219 18.6076 1.98219 17.8202V3.93233C1.98219 3.14498 2.62046 2.50671 3.40781 2.50671H11.5909C12.3782 2.50671 13.0165 3.14498 13.0165 3.93233L13.0141 17.8202Z" fill="#F39200"/>
</svg>
