<svg width="17" height="17" viewBox="0 0 17 17" fill="none" xmlns="http://www.w3.org/2000/svg">
<path d="M14.5082 2.4882C11.1882 -0.830753 5.80629 -0.829956 2.48734 2.49002C-0.831608 5.81 -0.830811 11.1919 2.48917 14.5108C5.80915 17.8298 11.191 17.829 14.51 14.509C16.1039 12.9146 16.9992 10.7522 16.9987 8.4977C16.9982 6.24354 16.1024 4.08188 14.5082 2.4882ZM12.8716 11.8399C12.8713 11.8403 12.8709 11.8407 12.8705 11.8411V11.8382L12.4398 12.2661C11.8828 12.8301 11.0716 13.0621 10.3006 12.8781C9.52385 12.6701 8.78541 12.3392 8.11331 11.8977C7.4889 11.4987 6.91023 11.0322 6.38781 10.5066C5.90713 10.0294 5.47529 9.50545 5.09864 8.94255C4.68665 8.33686 4.36056 7.67705 4.12964 6.98188C3.86491 6.16521 4.08428 5.26909 4.69631 4.66705L5.20064 4.16273C5.34085 4.02188 5.56869 4.02139 5.70951 4.1616C5.70987 4.16197 5.71027 4.16233 5.71064 4.16273L7.30296 5.75505C7.44381 5.89527 7.4443 6.12311 7.30409 6.26393C7.30372 6.26429 7.30336 6.26466 7.30296 6.26505L6.36796 7.20005C6.09968 7.46541 6.06594 7.88709 6.28864 8.19173C6.62681 8.65584 7.00104 9.09256 7.40781 9.49791C7.86134 9.95339 8.35437 10.3677 8.88114 10.7361C9.18551 10.9484 9.59816 10.9126 9.86146 10.6511L10.7653 9.73309C10.9055 9.59224 11.1333 9.59174 11.2742 9.73196C11.2745 9.73232 11.2749 9.73269 11.2753 9.73309L12.8705 11.3311C13.0113 11.4713 13.0118 11.6991 12.8716 11.8399Z" fill="white"/>
</svg>
