<svg width="18" height="18" viewBox="0 0 18 18" fill="none" xmlns="http://www.w3.org/2000/svg">
<path d="M17.999 8.76845C17.999 13.6108 14.043 17.5363 9.1619 17.5363C7.61294 17.5363 6.15789 17.1401 4.89125 16.4463L-0.000976562 18L1.59377 13.2944C0.789645 11.9738 0.326542 10.4231 0.326542 8.76786C0.327129 3.92552 4.282 0 9.16308 0C14.0436 0.0011739 17.999 3.92611 17.999 8.76845ZM9.16131 1.39812C5.06499 1.39812 1.73287 4.70499 1.73287 8.77021C1.73287 10.3831 2.25878 11.8763 3.14801 13.0913L2.22063 15.8283L5.07438 14.9214C6.24828 15.6915 7.65285 16.14 9.16131 16.14C13.2576 16.14 16.5909 12.8337 16.5909 8.76845C16.5921 4.70499 13.2582 1.39812 9.16131 1.39812ZM13.6245 10.7881C13.5693 10.6995 13.4249 10.6455 13.2089 10.5375C12.9935 10.4295 11.927 9.91007 11.7292 9.83963C11.5297 9.76744 11.3853 9.73105 11.2409 9.94646C11.0983 10.1619 10.6827 10.6455 10.5553 10.7899C10.4291 10.9337 10.3029 10.9519 10.0863 10.8457C9.86976 10.7365 9.17129 10.5111 8.34369 9.77918C7.69981 9.20866 7.26488 8.50608 7.13927 8.29067C7.0119 8.07585 7.12636 7.95963 7.23377 7.85281C7.33062 7.75596 7.45036 7.60159 7.55894 7.4754C7.66753 7.35038 7.70333 7.26175 7.77553 7.11794C7.84655 6.97414 7.81074 6.84912 7.75733 6.74054C7.70333 6.63254 7.27075 5.57603 7.08938 5.14579C6.90919 4.71614 6.72899 4.78717 6.60221 4.78717C6.47602 4.78717 6.33163 4.76956 6.18724 4.76956C6.04285 4.76956 5.80807 4.82179 5.61027 5.03721C5.41246 5.25262 4.85251 5.77207 4.85251 6.82975C4.85251 7.88861 5.62787 8.90932 5.73646 9.05253C5.84563 9.19516 7.23553 11.4367 9.43718 12.2972C11.64 13.1571 11.64 12.8701 12.0368 12.8337C12.4347 12.7973 13.3187 12.3142 13.4983 11.813C13.6791 11.3094 13.6791 10.8779 13.6245 10.7881Z" fill="white"/>
</svg>
