<svg width="14" height="7" viewBox="0 0 14 7" fill="none" xmlns="http://www.w3.org/2000/svg">
<path d="M13.1508 0.526031C13.0656 0.440113 12.9642 0.371919 12.8525 0.325381C12.7408 0.278843 12.621 0.254883 12.5 0.254883C12.379 0.254883 12.2591 0.278843 12.1474 0.325381C12.0357 0.371919 11.9344 0.440113 11.8491 0.526031L7.65081 4.72436C7.56559 4.81028 7.46421 4.87848 7.3525 4.92501C7.2408 4.97155 7.12098 4.99551 6.99997 4.99551C6.87896 4.99551 6.75915 4.97155 6.64745 4.92501C6.53574 4.87848 6.43436 4.81028 6.34914 4.72436L2.15081 0.526031C2.06559 0.440113 1.96421 0.371919 1.8525 0.325381C1.7408 0.278843 1.62098 0.254883 1.49997 0.254883C1.37896 0.254883 1.25915 0.278843 1.14744 0.325381C1.03574 0.371919 0.934356 0.440113 0.84914 0.526031C0.67841 0.69778 0.582581 0.930111 0.582581 1.17228C0.582581 1.41445 0.67841 1.64678 0.84914 1.81853L5.05664 6.02603C5.57227 6.54102 6.27122 6.83028 6.99997 6.83028C7.72873 6.83028 8.42768 6.54102 8.94331 6.02603L13.1508 1.81853C13.3215 1.64678 13.4174 1.41445 13.4174 1.17228C13.4174 0.930111 13.3215 0.69778 13.1508 0.526031Z" fill="white"/>
</svg>
