<svg width="32" height="32" viewBox="0 0 32 32" fill="none" xmlns="http://www.w3.org/2000/svg">
<circle cx="15.9574" cy="16.0836" r="14.8226" stroke="#C8C8C8"/>
<path d="M14.5416 20.0704C14.5549 19.2082 14.6446 18.5271 14.8106 18.0272C14.9767 17.5272 15.3154 16.973 15.8269 16.3644L17.1321 14.8972C17.6901 14.2089 17.969 13.4699 17.969 12.6801C17.969 11.9194 17.7864 11.3253 17.421 10.8978C17.0557 10.4631 16.5243 10.2457 15.8269 10.2457C15.1494 10.2457 14.6047 10.4413 14.1929 10.8326C13.7811 11.2238 13.5752 11.7491 13.5752 12.4084H11.7319C11.7452 11.2347 12.1271 10.2892 12.8777 9.5719C13.6349 8.84737 14.618 8.48511 15.8269 8.48511C17.0823 8.48511 18.0587 8.85462 18.7561 9.59364C19.4602 10.3254 19.8123 11.3325 19.8123 12.6149C19.8123 13.8829 19.2742 15.1327 18.1982 16.3644L17.1122 17.5381C16.6273 18.125 16.3848 18.9691 16.3848 20.0704H14.5416ZM14.4619 23.5155C14.4619 23.1895 14.5516 22.9178 14.7309 22.7004C14.9169 22.4758 15.1892 22.3635 15.5479 22.3635C15.9066 22.3635 16.1789 22.4758 16.3649 22.7004C16.5509 22.9178 16.6439 23.1895 16.6439 23.5155C16.6439 23.8415 16.5509 24.1132 16.3649 24.3306C16.1789 24.5407 15.9066 24.6458 15.5479 24.6458C15.1892 24.6458 14.9169 24.5407 14.7309 24.3306C14.5516 24.1132 14.4619 23.8415 14.4619 23.5155Z" fill="#747171"/>
</svg>
