<svg width="30" height="26" viewBox="0 0 30 26" fill="none" xmlns="http://www.w3.org/2000/svg">
<path d="M28.9029 0.448286C28.622 0.25114 28.2584 0.188347 27.9207 0.278867C26.6245 0.626063 24.9725 0.528 22.881 0.404045C21.5715 0.326369 20.0874 0.238296 18.3827 0.238296C17.0469 0.238296 15.8467 0.787735 15.0258 1.65624C14.205 0.787735 13.0049 0.238296 11.6689 0.238296C9.96449 0.238296 8.48012 0.326369 7.17059 0.404045C5.0791 0.528204 3.42711 0.626267 2.13091 0.278867C1.79325 0.188347 1.42959 0.25114 1.14898 0.448286C0.868143 0.645635 0.70314 0.9543 0.70314 1.28213V18.5991C0.70008 19.7164 1.16427 20.7673 2.01005 21.5584C2.85583 22.3494 3.98134 22.7851 5.17898 22.7851H13.2914C13.9095 22.7851 14.3847 22.7859 14.3847 22.2094C14.3847 21.6328 13.9095 21.585 13.2914 21.585C13.2914 21.585 6.73435 21.6028 5.17898 21.585C3.6236 21.5672 3.03918 20.6821 2.66876 20.2311C2.29834 19.7801 1.98929 19.1631 1.99082 18.6018V17.1581C3.14618 18.4496 4.36402 18.6097 5.17898 18.6097H13.5152C13.8526 18.6097 15.5995 18.6582 15.6355 18.5241C15.6574 18.4428 15.6642 18.3582 15.6642 18.2705V3.52092C15.6642 2.36985 17.1486 1.4366 18.3827 1.4366C20.0161 1.4366 21.4627 1.52129 22.739 1.59693C24.408 1.69601 26.7806 1.78065 28.0676 1.65038V10.0503C28.0676 10.6269 28.0893 11.0941 28.7074 11.0941C29.3254 11.0941 29.3485 10.6269 29.3485 10.0503V1.28213C29.3485 0.9543 29.1835 0.645635 28.9029 0.448286ZM5.17898 17.4164C3.94506 17.4164 1.99082 16.6784 1.99082 14.4344V1.65038C3.27784 1.78065 5.64339 1.69601 7.31243 1.59693C8.58896 1.52129 10.0355 1.4366 11.6689 1.4366C12.9029 1.4366 14.3847 2.36985 14.3847 3.52092V17.4342C14.2562 17.4173 13.6477 17.4164 13.5152 17.4164H5.17898ZM12.0046 5.69431C12.0046 6.27087 11.5037 6.29111 10.8857 6.29111H6.0182C5.40015 6.29111 4.89924 6.27087 4.89924 5.69431C4.89924 5.11776 5.40015 5.09211 6.0182 5.09211H10.8857C11.5037 5.09211 12.0046 5.11776 12.0046 5.69431ZM10.3262 9.86296C10.3262 10.4395 9.82528 10.4687 9.20723 10.4687H6.0182C5.40015 10.4687 4.89924 10.4395 4.89924 9.86296C4.89924 9.2864 5.40015 9.26744 6.0182 9.26744H9.20723C9.82528 9.26744 10.3262 9.2864 10.3262 9.86296ZM23.6189 13.5241L17.4757 19.2422C17.3453 19.3637 17.2489 19.5133 17.1953 19.6778L15.8574 23.7865C15.7389 24.1508 15.8423 24.5465 16.1271 24.8189C16.3406 25.023 16.6306 25.1339 16.9283 25.1339C17.0277 25.1339 17.1282 25.1215 17.2268 25.0958L21.7433 23.9288C21.9291 23.8807 22.0984 23.7887 22.235 23.6615L28.3655 17.9537C29.6741 16.7327 29.6741 14.7459 28.3655 13.5249C27.0566 12.3039 24.9269 12.3039 23.6189 13.5241ZM21.2323 22.6667L17.1953 23.7865L18.3677 19.9945L23.3998 15.3449L26.4171 18.1507L21.2323 22.6667ZM27.7348 16.8363L27.1545 17.4164L24.0968 14.4413L25.2139 13.5241C26.213 12.8678 27.2985 13.7046 27.7348 14.1118C28.1712 14.5187 29.0034 15.4916 27.7348 16.8363Z" fill="#FF8E00"/>
</svg>
