<svg width="14" height="10" viewBox="0 0 14 10" fill="none" xmlns="http://www.w3.org/2000/svg">
<path d="M7 0.425781C3.91208 0.425781 1.25071 2.24609 0.0281607 4.87292C-0.0093869 4.95252 -0.0093869 5.04564 0.0281607 5.12674C1.25071 7.75356 3.9121 9.57388 7 9.57388C10.0879 9.57388 12.7493 7.75357 13.9718 5.12674C14.0094 5.04714 14.0094 4.95402 13.9718 4.87292C12.7493 2.24609 10.0879 0.425781 7 0.425781ZM7 8.1561C5.25629 8.1561 3.8445 6.74279 3.8445 5.00058C3.8445 3.25687 5.25779 1.84508 7 1.84508C8.74371 1.84508 10.1555 3.25837 10.1555 5.00058C10.1555 6.74279 8.74221 8.1561 7 8.1561Z" fill="white"/>
<path d="M7.00053 7.01862C8.11618 7.01862 9.02059 6.11421 9.02059 4.99857C9.02059 3.88292 8.11618 2.97852 7.00053 2.97852C5.88488 2.97852 4.98047 3.88292 4.98047 4.99857C4.98047 6.11421 5.88488 7.01862 7.00053 7.01862Z" fill="white"/>
</svg>
