<svg width="28" height="31" viewBox="0 0 28 31" fill="none" xmlns="http://www.w3.org/2000/svg">
<path d="M13.6503 16.516C13.6833 16.516 13.7162 16.516 13.7558 16.516C13.769 16.516 13.7822 16.516 13.7953 16.516C13.8151 16.516 13.8415 16.516 13.8612 16.516C15.7924 16.4853 17.3545 15.852 18.5079 14.6407C21.0455 11.9723 20.6237 7.39777 20.5775 6.96122C20.4127 3.68406 18.7518 2.11619 17.3809 1.38452C16.3593 0.837301 15.1663 0.542172 13.8349 0.517578H13.7887C13.7822 0.517578 13.769 0.517578 13.7624 0.517578H13.7228C12.9912 0.517578 11.5544 0.628251 10.1769 1.35992C8.79274 2.0916 7.10543 3.65947 6.94066 6.96122C6.89452 7.39777 6.47269 11.9723 9.01025 14.6407C10.1571 15.852 11.7192 16.4853 13.6503 16.516ZM8.70047 7.11493C8.70047 7.09649 8.70706 7.07804 8.70706 7.06575C8.92456 2.65726 12.2794 2.18383 13.7162 2.18383H13.7426C13.7558 2.18383 13.7756 2.18383 13.7953 2.18383C15.5749 2.22072 18.6002 2.89705 18.8045 7.06575C18.8045 7.08419 18.8045 7.10264 18.8111 7.11493C18.8177 7.15797 19.2791 11.339 17.1831 13.5401C16.3527 14.4132 15.2454 14.8436 13.7887 14.8559C13.7756 14.8559 13.769 14.8559 13.7558 14.8559C13.7426 14.8559 13.736 14.8559 13.7228 14.8559C12.2728 14.8436 11.1589 14.4132 10.335 13.5401C8.24568 11.3513 8.69388 7.15183 8.70047 7.11493Z" fill="#FF8E00"/>
<path d="M27.2997 24.1031C27.2997 24.0969 27.2997 24.0908 27.2997 24.0846C27.2997 24.0354 27.2931 23.9862 27.2931 23.9309C27.2536 22.7135 27.1679 19.8667 24.3074 18.9568C24.2876 18.9506 24.2612 18.9445 24.2415 18.9383C21.2689 18.2312 18.7973 16.6326 18.7709 16.6142C18.3688 16.3498 17.8152 16.442 17.5318 16.8171C17.2484 17.1921 17.3472 17.7086 17.7493 17.973C17.8613 18.0468 20.4846 19.7499 23.7669 20.5369C25.3026 21.0473 25.474 22.5782 25.5201 23.9801C25.5201 24.0354 25.5201 24.0846 25.5267 24.1338C25.5333 24.6872 25.4938 25.5418 25.3883 26.0337C24.3206 26.5994 20.1352 28.5546 13.7683 28.5546C7.42772 28.5546 3.21605 26.5932 2.14171 26.0276C2.03625 25.5357 1.99012 24.681 2.0033 24.1277C2.0033 24.0785 2.00989 24.0293 2.00989 23.9739C2.05603 22.5721 2.22739 21.0411 3.76311 20.5308C7.04544 19.7438 9.66868 18.0345 9.78073 17.9669C10.1828 17.7025 10.2816 17.186 9.99823 16.8109C9.71482 16.4359 9.16117 16.3436 8.75911 16.608C8.73275 16.6265 6.27429 18.2251 3.28855 18.9322C3.26219 18.9383 3.24241 18.9445 3.22264 18.9506C0.36213 19.8667 0.276447 22.7135 0.236901 23.9248C0.236901 23.9801 0.236901 24.0293 0.230309 24.0785C0.230309 24.0846 0.230309 24.0908 0.230309 24.0969C0.223718 24.4166 0.217128 26.0583 0.566453 26.8822C0.632363 27.0421 0.751002 27.1773 0.909187 27.2696C1.10692 27.3925 5.84587 30.2085 13.7749 30.2085C21.7039 30.2085 26.4429 27.3864 26.6406 27.2696C26.7922 27.1773 26.9174 27.0421 26.9833 26.8822C27.3129 26.0644 27.3063 24.4228 27.2997 24.1031Z" fill="#FF8E00"/>
</svg>
