<svg width="24" height="31" viewBox="0 0 24 31" fill="none" xmlns="http://www.w3.org/2000/svg">
<path d="M12.3824 0.792969C6.02642 0.792969 0.855469 5.61674 0.855469 11.5459C0.855469 18.9042 11.171 29.7067 11.6101 30.1629C12.0227 30.5915 12.7429 30.5908 13.1547 30.1629C13.5939 29.7067 23.9094 18.9042 23.9094 11.5459C23.9092 5.61674 18.7383 0.792969 12.3824 0.792969ZM12.3824 16.956C9.18455 16.956 6.58298 14.5291 6.58298 11.5459C6.58298 8.56278 9.18462 6.13587 12.3824 6.13587C15.5802 6.13587 18.1818 8.56284 18.1818 11.546C18.1818 14.5291 15.5802 16.956 12.3824 16.956Z" fill="#FF8E00"/>
</svg>
