<svg width="98" height="30" viewBox="0 0 98 30" fill="none" xmlns="http://www.w3.org/2000/svg">
<path d="M3.92188 25.8203H17.3984V28.8867H0.152344V0.449219H3.92188V25.8203ZM42.2617 15.5859C42.2617 18.3724 41.793 20.8073 40.8555 22.8906C39.918 24.9609 38.5898 26.543 36.8711 27.6367C35.1523 28.7305 33.1471 29.2773 30.8555 29.2773C28.6159 29.2773 26.6302 28.7305 24.8984 27.6367C23.1667 26.5299 21.819 24.9609 20.8555 22.9297C19.9049 20.8854 19.4167 18.5221 19.3906 15.8398V13.7891C19.3906 11.0547 19.8659 8.63932 20.8164 6.54297C21.7669 4.44661 23.1081 2.84505 24.8398 1.73828C26.5846 0.61849 28.5768 0.0585938 30.8164 0.0585938C33.0951 0.0585938 35.1003 0.611979 36.832 1.71875C38.5768 2.8125 39.918 4.40755 40.8555 6.50391C41.793 8.58724 42.2617 11.0156 42.2617 13.7891V15.5859ZM38.5312 13.75C38.5312 10.3776 37.8542 7.79297 36.5 5.99609C35.1458 4.1862 33.2513 3.28125 30.8164 3.28125C28.4466 3.28125 26.5781 4.1862 25.2109 5.99609C23.8568 7.79297 23.1602 10.293 23.1211 13.4961V15.5859C23.1211 18.8542 23.8047 21.4258 25.1719 23.3008C26.5521 25.1628 28.4466 26.0938 30.8555 26.0938C33.2773 26.0938 35.1523 25.2148 36.4805 23.457C37.8086 21.6862 38.4922 19.1536 38.5312 15.8594V13.75ZM68.8828 25.1562C67.9193 26.5365 66.5716 27.5716 64.8398 28.2617C63.1211 28.9388 61.1159 29.2773 58.8242 29.2773C56.5065 29.2773 54.4492 28.737 52.6523 27.6562C50.8555 26.5625 49.4622 25.013 48.4727 23.0078C47.4961 21.0026 46.9948 18.6784 46.9688 16.0352V13.5547C46.9688 9.27083 47.9648 5.95052 49.957 3.59375C51.9622 1.23698 54.7747 0.0585938 58.3945 0.0585938C61.3633 0.0585938 63.7526 0.820312 65.5625 2.34375C67.3724 3.85417 68.4792 6.0026 68.8828 8.78906H65.1328C64.4297 5.02604 62.1901 3.14453 58.4141 3.14453C55.901 3.14453 53.9935 4.02995 52.6914 5.80078C51.4023 7.55859 50.7513 10.1107 50.7383 13.457V15.7812C50.7383 18.9714 51.4674 21.5104 52.9258 23.3984C54.3841 25.2734 56.3568 26.2109 58.8438 26.2109C60.25 26.2109 61.4805 26.0547 62.5352 25.7422C63.5898 25.4297 64.4622 24.9023 65.1523 24.1602V17.7734H58.5703V14.7266H68.8828V25.1562ZM97.0273 15.5859C97.0273 18.3724 96.5586 20.8073 95.6211 22.8906C94.6836 24.9609 93.3555 26.543 91.6367 27.6367C89.918 28.7305 87.9128 29.2773 85.6211 29.2773C83.3815 29.2773 81.3958 28.7305 79.6641 27.6367C77.9323 26.5299 76.5846 24.9609 75.6211 22.9297C74.6706 20.8854 74.1823 18.5221 74.1562 15.8398V13.7891C74.1562 11.0547 74.6315 8.63932 75.582 6.54297C76.5326 4.44661 77.8737 2.84505 79.6055 1.73828C81.3503 0.61849 83.3424 0.0585938 85.582 0.0585938C87.8607 0.0585938 89.8659 0.611979 91.5977 1.71875C93.3424 2.8125 94.6836 4.40755 95.6211 6.50391C96.5586 8.58724 97.0273 11.0156 97.0273 13.7891V15.5859ZM93.2969 13.75C93.2969 10.3776 92.6198 7.79297 91.2656 5.99609C89.9115 4.1862 88.0169 3.28125 85.582 3.28125C83.2122 3.28125 81.3438 4.1862 79.9766 5.99609C78.6224 7.79297 77.9258 10.293 77.8867 13.4961V15.5859C77.8867 18.8542 78.5703 21.4258 79.9375 23.3008C81.3177 25.1628 83.2122 26.0938 85.6211 26.0938C88.043 26.0938 89.918 25.2148 91.2461 23.457C92.5742 21.6862 93.2578 19.1536 93.2969 15.8594V13.75Z" fill="white"/>
</svg>
