<svg width="17" height="16" viewBox="0 0 17 16" fill="none" xmlns="http://www.w3.org/2000/svg">
<path d="M15.7418 7.16828H9.75869V1.58682C9.75869 1.33257 9.38859 0.78125 8.64841 0.78125C7.90822 0.78125 7.53812 1.3326 7.53812 1.58682V7.16831H1.55496C1.28243 7.16828 0.691406 7.51354 0.691406 8.20399C0.691406 8.89445 1.28243 9.23974 1.55496 9.23974H7.53815V14.8212C7.53815 15.0754 7.90822 15.6268 8.64844 15.6268C9.38865 15.6268 9.75873 15.0754 9.75873 14.8212V9.23974H15.7419C16.0144 9.23974 16.6055 8.89451 16.6055 8.20399C16.6055 7.51347 16.0143 7.16828 15.7418 7.16828Z" fill="white"/>
</svg>
