<svg width="20" height="19" viewBox="0 0 20 19" fill="none" xmlns="http://www.w3.org/2000/svg">
<path d="M8.27185 14.5808C10.0812 14.5808 11.7261 13.9823 13.0091 12.9696L18.7661 18.3401C18.8977 18.4629 19.0622 18.5243 19.2431 18.5243C19.424 18.5243 19.5885 18.4629 19.7201 18.3401C19.9833 18.0946 19.9833 17.6957 19.7201 17.4502L13.9631 12.0797C15.0322 10.8828 15.6902 9.33303 15.6902 7.6605C15.6902 3.83978 12.3676 0.740234 8.27185 0.740234C4.19259 0.740234 0.853516 3.85512 0.853516 7.6605C0.853516 11.4812 4.19259 14.5808 8.27185 14.5808ZM8.27185 1.99847C11.6274 1.99847 14.3414 4.54561 14.3414 7.6605C14.3414 10.7907 11.6274 13.3225 8.27185 13.3225C4.91633 13.3225 2.2023 10.7754 2.2023 7.6605C2.2023 4.54561 4.93278 1.99847 8.27185 1.99847Z" fill="#D8D8D8"/>
</svg>
