<svg width="33" height="18" viewBox="0 0 33 18" fill="none" xmlns="http://www.w3.org/2000/svg">
<path d="M31.5231 7.96595C29.7368 5.82941 27.4229 4.06215 24.8319 2.85537C22.1869 1.62347 19.3415 0.984303 16.3711 0.950784C16.2893 0.948697 15.9608 0.948697 15.879 0.950784C12.9086 0.984361 10.0631 1.62347 7.41817 2.85537C4.8271 4.06215 2.51341 5.82935 0.727056 7.96595C0.0388979 8.78901 0.0388979 9.93867 0.727056 10.7617C2.51335 12.8983 4.8271 14.6655 7.41817 15.8723C10.0631 17.1042 12.9086 17.7434 15.879 17.7769C15.9608 17.779 16.2893 17.779 16.3711 17.7769C19.3414 17.7433 22.1869 17.1042 24.8319 15.8723C27.4229 14.6655 29.7367 12.8983 31.5231 10.7617C32.2112 9.93855 32.2112 8.78901 31.5231 7.96595ZM7.99661 14.7917C5.57718 13.6648 3.41647 12.0144 1.74804 10.0189C1.4256 9.63317 1.4256 9.0945 1.74804 8.70881C3.41641 6.7133 5.57711 5.06289 7.99661 3.93602C8.68377 3.61603 9.38548 3.3393 10.1002 3.10501C8.26149 4.64686 7.10306 6.88135 7.10306 9.36381C7.10306 11.8464 8.26155 14.081 10.1004 15.6228C9.38573 15.3886 8.68384 15.1117 7.99661 14.7917ZM16.1251 16.5722C11.8642 16.5722 8.39782 13.3385 8.39782 9.36375C8.39782 5.38897 11.8642 2.15536 16.1251 2.15536C20.386 2.15536 23.8524 5.38903 23.8524 9.36381C23.8524 13.3386 20.386 16.5722 16.1251 16.5722ZM30.5021 10.0188C28.8338 12.0143 26.6731 13.6647 24.2536 14.7916C23.5672 15.1112 22.8659 15.3868 22.1521 15.6208C23.9895 14.079 25.1471 11.8452 25.1471 9.36375C25.1471 6.88095 23.9884 4.64617 22.1494 3.10432C22.8643 3.33866 23.5663 3.61574 24.2536 3.9359C26.6731 5.06277 28.8338 6.71318 30.5022 8.70869C30.8246 9.09444 30.8246 9.63312 30.5021 10.0188Z" fill="#FF8E00"/>
</svg>
