<svg width="411" height="349" viewBox="0 0 411 349" fill="none" xmlns="http://www.w3.org/2000/svg">
<path d="M350.647 616.976C285.037 605.198 228.523 547.61 182.524 483.281C136.602 419.057 101.3 348.016 109.365 281.463C117.43 214.91 168.92 152.482 230.756 114.724C292.668 77.0693 364.877 63.7981 434.326 73.5658C503.852 83.438 570.436 116.321 617.703 170.736C664.971 225.151 692.816 301.173 680.912 369.737C668.979 438.481 617.115 499.739 554.011 547.411C490.725 595.056 416.229 628.935 350.647 616.976Z" fill="#C81F56"/>
<path d="M56.22 68.2826C56.22 73.7626 54.34 78.1226 50.58 81.3626C46.86 84.5626 41.46 86.3626 34.38 86.7626V91.3826H23.52V86.7626C16.44 86.2426 11.02 84.4026 7.26 81.2426C3.54 78.0826 1.68 73.7626 1.68 68.2826C1.68 62.8026 3.54 58.4826 7.26 55.3226C10.98 52.1226 16.4 50.2626 23.52 49.7426V45.4226L34.38 45.4226V49.7426C41.46 50.2226 46.86 52.0626 50.58 55.2626C54.34 58.4226 56.22 62.7626 56.22 68.2826ZM34.38 77.5226C37.94 77.1226 40.54 76.1626 42.18 74.6426C43.86 73.1226 44.7 70.9826 44.7 68.2226C44.7 65.4626 43.84 63.3426 42.12 61.8626C40.44 60.3826 37.86 59.4426 34.38 59.0426V77.5226ZM13.2 68.2826C13.2 71.0026 14.06 73.1026 15.78 74.5826C17.5 76.0626 20.08 77.0226 23.52 77.4626L23.52 59.0426C19.92 59.4426 17.3 60.3826 15.66 61.8626C14.02 63.3426 13.2 65.4826 13.2 68.2826ZM61.1306 56.8826H72.4706V73.9226L86.0906 56.8826H96.5906L96.5906 89.4026H85.1906L85.1906 72.3026L71.6906 89.4026L61.1306 89.4026V56.8826ZM103.656 56.8826H114.996V68.9426H126.696V56.8826H138.096V89.4026H126.696V78.0026H114.996V89.4026L103.656 89.4026L103.656 56.8826ZM145.185 56.8826H156.525V73.9226L170.145 56.8826H180.645V89.4026H169.245V72.3026L155.745 89.4026H145.185V56.8826ZM239.25 56.8826V89.4026H187.71V56.8826H199.05V80.2826H207.87V56.8826L219.21 56.8826V80.2826H227.97V56.8826L239.25 56.8826Z" fill="white"/>
<path d="M324.929 327.553H339.19L361.608 261.613L299.298 257.831L324.929 327.553Z" fill="url(#paint0_linear)"/>
<path d="M399.536 139.108C399.603 144.675 399.603 253.641 344.29 271.335C288.973 289.029 263.991 196.833 265.971 131.17L399.536 139.108Z" fill="url(#paint1_linear)"/>
<path d="M376.278 337.555H287.844V348.291H376.278V337.555Z" fill="url(#paint2_linear)"/>
<path d="M287.844 337.555H376.278L353.894 325.548H310.224L287.844 337.555Z" fill="url(#paint3_linear)"/>
<path d="M405.945 123.645C410.802 123.94 414.775 127.536 414.775 131.632V140.016C414.775 144.113 410.799 147.253 405.939 146.992L254.34 138.835C249.484 138.574 245.507 135.006 245.507 130.91V121.336C245.507 117.239 249.481 114.126 254.337 114.422L405.945 123.645Z" fill="url(#paint4_linear)"/>
<path d="M305.12 279.996C308.65 279.996 311.698 277.763 312.11 274.737C312.55 271.483 309.773 268.543 305.91 268.17C305.178 268.097 254.302 262.724 249.477 234.881C248.662 230.187 248.754 224.052 253.804 221.493C257.968 219.377 264.79 220.051 269.668 223.055C272.439 224.762 275.477 227.752 274.186 232.307C273.281 235.493 275.619 238.691 279.402 239.451C283.185 240.214 286.986 238.245 287.893 235.059C290.237 226.804 286.531 218.737 277.987 213.478C268.496 207.635 255.563 206.749 246.527 211.328C241.247 214.004 232.801 220.844 235.529 236.591C238.227 252.159 251.227 264.63 273.125 272.658C288.847 278.421 303.68 279.897 304.304 279.956C304.578 279.984 304.849 279.996 305.12 279.996Z" fill="url(#paint5_linear)"/>
<path d="M357.881 279.996C354.347 279.996 351.3 277.763 350.894 274.737C350.448 271.483 353.225 268.543 357.088 268.17C357.826 268.097 408.698 262.724 413.524 234.881C414.336 230.187 414.243 224.052 409.2 221.493C405.032 219.377 398.208 220.051 393.333 223.055C390.562 224.762 387.523 227.752 388.815 232.307C389.719 235.493 387.382 238.691 383.599 239.451C379.816 240.214 376.012 238.245 375.107 235.059C372.767 226.804 376.467 218.737 385.011 213.478C394.505 207.635 407.44 206.749 416.47 211.328C421.751 214.004 430.199 220.844 427.471 236.591C424.771 252.159 411.774 264.63 389.876 272.658C374.151 278.421 359.317 279.897 358.693 279.956C358.419 279.984 358.149 279.996 357.881 279.996Z" fill="url(#paint6_linear)"/>
<defs>
<linearGradient id="paint0_linear" x1="309.436" y1="257.761" x2="473.887" y2="468.491" gradientUnits="userSpaceOnUse">
<stop stop-color="#FEB447"/>
<stop offset="1" stop-color="#FE840E"/>
</linearGradient>
<linearGradient id="paint1_linear" x1="276.354" y1="106.683" x2="393.246" y2="318.412" gradientUnits="userSpaceOnUse">
<stop stop-color="#FEB447"/>
<stop offset="1" stop-color="#FE840E"/>
</linearGradient>
<linearGradient id="paint2_linear" x1="331.219" y1="329.11" x2="336.463" y2="414.997" gradientUnits="userSpaceOnUse">
<stop stop-color="#FEB447"/>
<stop offset="1" stop-color="#FE840E"/>
</linearGradient>
<linearGradient id="paint3_linear" x1="292.805" y1="294.675" x2="350.728" y2="352.598" gradientUnits="userSpaceOnUse">
<stop stop-color="#FEB447"/>
<stop offset="1" stop-color="#FE840E"/>
</linearGradient>
<linearGradient id="paint4_linear" x1="255.402" y1="69.7407" x2="424.123" y2="194.806" gradientUnits="userSpaceOnUse">
<stop stop-color="#FEB447"/>
<stop offset="1" stop-color="#FE840E"/>
</linearGradient>
<linearGradient id="paint5_linear" x1="235.169" y1="200.238" x2="378.812" y2="379.977" gradientUnits="userSpaceOnUse">
<stop stop-color="#FEB447"/>
<stop offset="1" stop-color="#FE840E"/>
</linearGradient>
<linearGradient id="paint6_linear" x1="351.015" y1="200.238" x2="494.66" y2="379.974" gradientUnits="userSpaceOnUse">
<stop stop-color="#FEB447"/>
<stop offset="1" stop-color="#FE840E"/>
</linearGradient>
</defs>
</svg>
