<svg width="345" height="346" viewBox="0 0 345 346" fill="none" xmlns="http://www.w3.org/2000/svg">
<circle cx="1.5" cy="1.90234" r="1.5" fill="#E3E3E3"/>
<circle cx="19.5" cy="1.90234" r="1.5" fill="#E3E3E3"/>
<circle cx="37.5" cy="1.90234" r="1.5" fill="#E3E3E3"/>
<circle cx="55.5" cy="1.90234" r="1.5" fill="#E3E3E3"/>
<circle cx="73.5" cy="1.90234" r="1.5" fill="#E3E3E3"/>
<circle cx="91.5" cy="1.90234" r="1.5" fill="#E3E3E3"/>
<circle cx="109.5" cy="1.90234" r="1.5" fill="#E3E3E3"/>
<circle cx="127.5" cy="1.90234" r="1.5" fill="#E3E3E3"/>
<circle cx="145.5" cy="1.90234" r="1.5" fill="#E3E3E3"/>
<circle cx="163.5" cy="1.90234" r="1.5" fill="#E3E3E3"/>
<circle cx="181.5" cy="1.90234" r="1.5" fill="#E3E3E3"/>
<circle cx="199.5" cy="1.90234" r="1.5" fill="#E3E3E3"/>
<circle cx="217.5" cy="1.90234" r="1.5" fill="#E3E3E3"/>
<circle cx="235.5" cy="1.90234" r="1.5" fill="#E3E3E3"/>
<circle cx="253.5" cy="1.90234" r="1.5" fill="#E3E3E3"/>
<circle cx="271.5" cy="1.90234" r="1.5" fill="#E3E3E3"/>
<circle cx="289.5" cy="1.90234" r="1.5" fill="#E3E3E3"/>
<circle cx="307.5" cy="1.90234" r="1.5" fill="#E3E3E3"/>
<circle cx="325.5" cy="1.90234" r="1.5" fill="#E3E3E3"/>
<circle cx="343.5" cy="1.90234" r="1.5" fill="#E3E3E3"/>
<circle cx="1.5" cy="19.9023" r="1.5" fill="#E3E3E3"/>
<circle cx="19.5" cy="19.9023" r="1.5" fill="#E3E3E3"/>
<circle cx="37.5" cy="19.9023" r="1.5" fill="#E3E3E3"/>
<circle cx="55.5" cy="19.9023" r="1.5" fill="#E3E3E3"/>
<circle cx="73.5" cy="19.9023" r="1.5" fill="#E3E3E3"/>
<circle cx="91.5" cy="19.9023" r="1.5" fill="#E3E3E3"/>
<circle cx="109.5" cy="19.9023" r="1.5" fill="#E3E3E3"/>
<circle cx="127.5" cy="19.9023" r="1.5" fill="#E3E3E3"/>
<circle cx="145.5" cy="19.9023" r="1.5" fill="#E3E3E3"/>
<circle cx="163.5" cy="19.9023" r="1.5" fill="#E3E3E3"/>
<circle cx="181.5" cy="19.9023" r="1.5" fill="#E3E3E3"/>
<circle cx="199.5" cy="19.9023" r="1.5" fill="#E3E3E3"/>
<circle cx="217.5" cy="19.9023" r="1.5" fill="#E3E3E3"/>
<circle cx="235.5" cy="19.9023" r="1.5" fill="#E3E3E3"/>
<circle cx="253.5" cy="19.9023" r="1.5" fill="#E3E3E3"/>
<circle cx="271.5" cy="19.9023" r="1.5" fill="#E3E3E3"/>
<circle cx="289.5" cy="19.9023" r="1.5" fill="#E3E3E3"/>
<circle cx="307.5" cy="19.9023" r="1.5" fill="#E3E3E3"/>
<circle cx="325.5" cy="19.9023" r="1.5" fill="#E3E3E3"/>
<circle cx="343.5" cy="19.9023" r="1.5" fill="#E3E3E3"/>
<circle cx="1.5" cy="37.9023" r="1.5" fill="#E3E3E3"/>
<circle cx="19.5" cy="37.9023" r="1.5" fill="#E3E3E3"/>
<circle cx="37.5" cy="37.9023" r="1.5" fill="#E3E3E3"/>
<circle cx="55.5" cy="37.9023" r="1.5" fill="#E3E3E3"/>
<circle cx="73.5" cy="37.9023" r="1.5" fill="#E3E3E3"/>
<circle cx="91.5" cy="37.9023" r="1.5" fill="#E3E3E3"/>
<circle cx="109.5" cy="37.9023" r="1.5" fill="#E3E3E3"/>
<circle cx="127.5" cy="37.9023" r="1.5" fill="#E3E3E3"/>
<circle cx="145.5" cy="37.9023" r="1.5" fill="#E3E3E3"/>
<circle cx="163.5" cy="37.9023" r="1.5" fill="#E3E3E3"/>
<circle cx="181.5" cy="37.9023" r="1.5" fill="#E3E3E3"/>
<circle cx="199.5" cy="37.9023" r="1.5" fill="#E3E3E3"/>
<circle cx="217.5" cy="37.9023" r="1.5" fill="#E3E3E3"/>
<circle cx="235.5" cy="37.9023" r="1.5" fill="#E3E3E3"/>
<circle cx="253.5" cy="37.9023" r="1.5" fill="#E3E3E3"/>
<circle cx="271.5" cy="37.9023" r="1.5" fill="#E3E3E3"/>
<circle cx="289.5" cy="37.9023" r="1.5" fill="#E3E3E3"/>
<circle cx="307.5" cy="37.9023" r="1.5" fill="#E3E3E3"/>
<circle cx="325.5" cy="37.9023" r="1.5" fill="#E3E3E3"/>
<circle cx="343.5" cy="37.9023" r="1.5" fill="#E3E3E3"/>
<circle cx="1.5" cy="55.9023" r="1.5" fill="#E3E3E3"/>
<circle cx="19.5" cy="55.9023" r="1.5" fill="#E3E3E3"/>
<circle cx="37.5" cy="55.9023" r="1.5" fill="#E3E3E3"/>
<circle cx="55.5" cy="55.9023" r="1.5" fill="#E3E3E3"/>
<circle cx="73.5" cy="55.9023" r="1.5" fill="#E3E3E3"/>
<circle cx="91.5" cy="55.9023" r="1.5" fill="#E3E3E3"/>
<circle cx="109.5" cy="55.9023" r="1.5" fill="#E3E3E3"/>
<circle cx="127.5" cy="55.9023" r="1.5" fill="#E3E3E3"/>
<circle cx="145.5" cy="55.9023" r="1.5" fill="#E3E3E3"/>
<circle cx="163.5" cy="55.9023" r="1.5" fill="#E3E3E3"/>
<circle cx="181.5" cy="55.9023" r="1.5" fill="#E3E3E3"/>
<circle cx="199.5" cy="55.9023" r="1.5" fill="#E3E3E3"/>
<circle cx="217.5" cy="55.9023" r="1.5" fill="#E3E3E3"/>
<circle cx="235.5" cy="55.9023" r="1.5" fill="#E3E3E3"/>
<circle cx="253.5" cy="55.9023" r="1.5" fill="#E3E3E3"/>
<circle cx="271.5" cy="55.9023" r="1.5" fill="#E3E3E3"/>
<circle cx="289.5" cy="55.9023" r="1.5" fill="#E3E3E3"/>
<circle cx="307.5" cy="55.9023" r="1.5" fill="#E3E3E3"/>
<circle cx="325.5" cy="55.9023" r="1.5" fill="#E3E3E3"/>
<circle cx="343.5" cy="55.9023" r="1.5" fill="#E3E3E3"/>
<circle cx="1.5" cy="73.9023" r="1.5" fill="#E3E3E3"/>
<circle cx="19.5" cy="73.9023" r="1.5" fill="#E3E3E3"/>
<circle cx="37.5" cy="73.9023" r="1.5" fill="#E3E3E3"/>
<circle cx="55.5" cy="73.9023" r="1.5" fill="#E3E3E3"/>
<circle cx="73.5" cy="73.9023" r="1.5" fill="#E3E3E3"/>
<circle cx="91.5" cy="73.9023" r="1.5" fill="#E3E3E3"/>
<circle cx="109.5" cy="73.9023" r="1.5" fill="#E3E3E3"/>
<circle cx="127.5" cy="73.9023" r="1.5" fill="#E3E3E3"/>
<circle cx="145.5" cy="73.9023" r="1.5" fill="#E3E3E3"/>
<circle cx="163.5" cy="73.9023" r="1.5" fill="#E3E3E3"/>
<circle cx="181.5" cy="73.9023" r="1.5" fill="#E3E3E3"/>
<circle cx="199.5" cy="73.9023" r="1.5" fill="#E3E3E3"/>
<circle cx="217.5" cy="73.9023" r="1.5" fill="#E3E3E3"/>
<circle cx="235.5" cy="73.9023" r="1.5" fill="#E3E3E3"/>
<circle cx="253.5" cy="73.9023" r="1.5" fill="#E3E3E3"/>
<circle cx="271.5" cy="73.9023" r="1.5" fill="#E3E3E3"/>
<circle cx="289.5" cy="73.9023" r="1.5" fill="#E3E3E3"/>
<circle cx="307.5" cy="73.9023" r="1.5" fill="#E3E3E3"/>
<circle cx="325.5" cy="73.9023" r="1.5" fill="#E3E3E3"/>
<circle cx="343.5" cy="73.9023" r="1.5" fill="#E3E3E3"/>
<circle cx="1.5" cy="91.9023" r="1.5" fill="#E3E3E3"/>
<circle cx="19.5" cy="91.9023" r="1.5" fill="#E3E3E3"/>
<circle cx="37.5" cy="91.9023" r="1.5" fill="#E3E3E3"/>
<circle cx="55.5" cy="91.9023" r="1.5" fill="#E3E3E3"/>
<circle cx="73.5" cy="91.9023" r="1.5" fill="#E3E3E3"/>
<circle cx="91.5" cy="91.9023" r="1.5" fill="#E3E3E3"/>
<circle cx="109.5" cy="91.9023" r="1.5" fill="#E3E3E3"/>
<circle cx="127.5" cy="91.9023" r="1.5" fill="#E3E3E3"/>
<circle cx="145.5" cy="91.9023" r="1.5" fill="#E3E3E3"/>
<circle cx="163.5" cy="91.9023" r="1.5" fill="#E3E3E3"/>
<circle cx="181.5" cy="91.9023" r="1.5" fill="#E3E3E3"/>
<circle cx="199.5" cy="91.9023" r="1.5" fill="#E3E3E3"/>
<circle cx="217.5" cy="91.9023" r="1.5" fill="#E3E3E3"/>
<circle cx="235.5" cy="91.9023" r="1.5" fill="#E3E3E3"/>
<circle cx="253.5" cy="91.9023" r="1.5" fill="#E3E3E3"/>
<circle cx="271.5" cy="91.9023" r="1.5" fill="#E3E3E3"/>
<circle cx="289.5" cy="91.9023" r="1.5" fill="#E3E3E3"/>
<circle cx="307.5" cy="91.9023" r="1.5" fill="#E3E3E3"/>
<circle cx="325.5" cy="91.9023" r="1.5" fill="#E3E3E3"/>
<circle cx="343.5" cy="91.9023" r="1.5" fill="#E3E3E3"/>
<circle cx="1.5" cy="109.902" r="1.5" fill="#E3E3E3"/>
<circle cx="19.5" cy="109.902" r="1.5" fill="#E3E3E3"/>
<circle cx="37.5" cy="109.902" r="1.5" fill="#E3E3E3"/>
<circle cx="55.5" cy="109.902" r="1.5" fill="#E3E3E3"/>
<circle cx="73.5" cy="109.902" r="1.5" fill="#E3E3E3"/>
<circle cx="91.5" cy="109.902" r="1.5" fill="#E3E3E3"/>
<circle cx="109.5" cy="109.902" r="1.5" fill="#E3E3E3"/>
<circle cx="127.5" cy="109.902" r="1.5" fill="#E3E3E3"/>
<circle cx="145.5" cy="109.902" r="1.5" fill="#E3E3E3"/>
<circle cx="163.5" cy="109.902" r="1.5" fill="#E3E3E3"/>
<circle cx="181.5" cy="109.902" r="1.5" fill="#E3E3E3"/>
<circle cx="199.5" cy="109.902" r="1.5" fill="#E3E3E3"/>
<circle cx="217.5" cy="109.902" r="1.5" fill="#E3E3E3"/>
<circle cx="235.5" cy="109.902" r="1.5" fill="#E3E3E3"/>
<circle cx="253.5" cy="109.902" r="1.5" fill="#E3E3E3"/>
<circle cx="271.5" cy="109.902" r="1.5" fill="#E3E3E3"/>
<circle cx="289.5" cy="109.902" r="1.5" fill="#E3E3E3"/>
<circle cx="307.5" cy="109.902" r="1.5" fill="#E3E3E3"/>
<circle cx="325.5" cy="109.902" r="1.5" fill="#E3E3E3"/>
<circle cx="343.5" cy="109.902" r="1.5" fill="#E3E3E3"/>
<circle cx="1.5" cy="127.902" r="1.5" fill="#E3E3E3"/>
<circle cx="19.5" cy="127.902" r="1.5" fill="#E3E3E3"/>
<circle cx="37.5" cy="127.902" r="1.5" fill="#E3E3E3"/>
<circle cx="55.5" cy="127.902" r="1.5" fill="#E3E3E3"/>
<circle cx="73.5" cy="127.902" r="1.5" fill="#E3E3E3"/>
<circle cx="91.5" cy="127.902" r="1.5" fill="#E3E3E3"/>
<circle cx="109.5" cy="127.902" r="1.5" fill="#E3E3E3"/>
<circle cx="127.5" cy="127.902" r="1.5" fill="#E3E3E3"/>
<circle cx="145.5" cy="127.902" r="1.5" fill="#E3E3E3"/>
<circle cx="163.5" cy="127.902" r="1.5" fill="#E3E3E3"/>
<circle cx="181.5" cy="127.902" r="1.5" fill="#E3E3E3"/>
<circle cx="199.5" cy="127.902" r="1.5" fill="#E3E3E3"/>
<circle cx="217.5" cy="127.902" r="1.5" fill="#E3E3E3"/>
<circle cx="235.5" cy="127.902" r="1.5" fill="#E3E3E3"/>
<circle cx="253.5" cy="127.902" r="1.5" fill="#E3E3E3"/>
<circle cx="271.5" cy="127.902" r="1.5" fill="#E3E3E3"/>
<circle cx="289.5" cy="127.902" r="1.5" fill="#E3E3E3"/>
<circle cx="307.5" cy="127.902" r="1.5" fill="#E3E3E3"/>
<circle cx="325.5" cy="127.902" r="1.5" fill="#E3E3E3"/>
<circle cx="343.5" cy="127.902" r="1.5" fill="#E3E3E3"/>
<circle cx="1.5" cy="145.902" r="1.5" fill="#E3E3E3"/>
<circle cx="19.5" cy="145.902" r="1.5" fill="#E3E3E3"/>
<circle cx="37.5" cy="145.902" r="1.5" fill="#E3E3E3"/>
<circle cx="55.5" cy="145.902" r="1.5" fill="#E3E3E3"/>
<circle cx="73.5" cy="145.902" r="1.5" fill="#E3E3E3"/>
<circle cx="91.5" cy="145.902" r="1.5" fill="#E3E3E3"/>
<circle cx="109.5" cy="145.902" r="1.5" fill="#E3E3E3"/>
<circle cx="127.5" cy="145.902" r="1.5" fill="#E3E3E3"/>
<circle cx="145.5" cy="145.902" r="1.5" fill="#E3E3E3"/>
<circle cx="163.5" cy="145.902" r="1.5" fill="#E3E3E3"/>
<circle cx="181.5" cy="145.902" r="1.5" fill="#E3E3E3"/>
<circle cx="199.5" cy="145.902" r="1.5" fill="#E3E3E3"/>
<circle cx="217.5" cy="145.902" r="1.5" fill="#E3E3E3"/>
<circle cx="235.5" cy="145.902" r="1.5" fill="#E3E3E3"/>
<circle cx="253.5" cy="145.902" r="1.5" fill="#E3E3E3"/>
<circle cx="271.5" cy="145.902" r="1.5" fill="#E3E3E3"/>
<circle cx="289.5" cy="145.902" r="1.5" fill="#E3E3E3"/>
<circle cx="307.5" cy="145.902" r="1.5" fill="#E3E3E3"/>
<circle cx="325.5" cy="145.902" r="1.5" fill="#E3E3E3"/>
<circle cx="343.5" cy="145.902" r="1.5" fill="#E3E3E3"/>
<circle cx="1.5" cy="163.902" r="1.5" fill="#E3E3E3"/>
<circle cx="19.5" cy="163.902" r="1.5" fill="#E3E3E3"/>
<circle cx="37.5" cy="163.902" r="1.5" fill="#E3E3E3"/>
<circle cx="55.5" cy="163.902" r="1.5" fill="#E3E3E3"/>
<circle cx="73.5" cy="163.902" r="1.5" fill="#E3E3E3"/>
<circle cx="91.5" cy="163.902" r="1.5" fill="#E3E3E3"/>
<circle cx="109.5" cy="163.902" r="1.5" fill="#E3E3E3"/>
<circle cx="127.5" cy="163.902" r="1.5" fill="#E3E3E3"/>
<circle cx="145.5" cy="163.902" r="1.5" fill="#E3E3E3"/>
<circle cx="163.5" cy="163.902" r="1.5" fill="#E3E3E3"/>
<circle cx="181.5" cy="163.902" r="1.5" fill="#E3E3E3"/>
<circle cx="199.5" cy="163.902" r="1.5" fill="#E3E3E3"/>
<circle cx="217.5" cy="163.902" r="1.5" fill="#E3E3E3"/>
<circle cx="235.5" cy="163.902" r="1.5" fill="#E3E3E3"/>
<circle cx="253.5" cy="163.902" r="1.5" fill="#E3E3E3"/>
<circle cx="271.5" cy="163.902" r="1.5" fill="#E3E3E3"/>
<circle cx="289.5" cy="163.902" r="1.5" fill="#E3E3E3"/>
<circle cx="307.5" cy="163.902" r="1.5" fill="#E3E3E3"/>
<circle cx="325.5" cy="163.902" r="1.5" fill="#E3E3E3"/>
<circle cx="343.5" cy="163.902" r="1.5" fill="#E3E3E3"/>
<circle cx="1.5" cy="181.902" r="1.5" fill="#E3E3E3"/>
<circle cx="19.5" cy="181.902" r="1.5" fill="#E3E3E3"/>
<circle cx="37.5" cy="181.902" r="1.5" fill="#E3E3E3"/>
<circle cx="55.5" cy="181.902" r="1.5" fill="#E3E3E3"/>
<circle cx="73.5" cy="181.902" r="1.5" fill="#E3E3E3"/>
<circle cx="91.5" cy="181.902" r="1.5" fill="#E3E3E3"/>
<circle cx="109.5" cy="181.902" r="1.5" fill="#E3E3E3"/>
<circle cx="127.5" cy="181.902" r="1.5" fill="#E3E3E3"/>
<circle cx="145.5" cy="181.902" r="1.5" fill="#E3E3E3"/>
<circle cx="163.5" cy="181.902" r="1.5" fill="#E3E3E3"/>
<circle cx="181.5" cy="181.902" r="1.5" fill="#E3E3E3"/>
<circle cx="199.5" cy="181.902" r="1.5" fill="#E3E3E3"/>
<circle cx="217.5" cy="181.902" r="1.5" fill="#E3E3E3"/>
<circle cx="235.5" cy="181.902" r="1.5" fill="#E3E3E3"/>
<circle cx="253.5" cy="181.902" r="1.5" fill="#E3E3E3"/>
<circle cx="271.5" cy="181.902" r="1.5" fill="#E3E3E3"/>
<circle cx="289.5" cy="181.902" r="1.5" fill="#E3E3E3"/>
<circle cx="307.5" cy="181.902" r="1.5" fill="#E3E3E3"/>
<circle cx="325.5" cy="181.902" r="1.5" fill="#E3E3E3"/>
<circle cx="343.5" cy="181.902" r="1.5" fill="#E3E3E3"/>
<circle cx="1.5" cy="199.902" r="1.5" fill="#E3E3E3"/>
<circle cx="19.5" cy="199.902" r="1.5" fill="#E3E3E3"/>
<circle cx="37.5" cy="199.902" r="1.5" fill="#E3E3E3"/>
<circle cx="55.5" cy="199.902" r="1.5" fill="#E3E3E3"/>
<circle cx="73.5" cy="199.902" r="1.5" fill="#E3E3E3"/>
<circle cx="91.5" cy="199.902" r="1.5" fill="#E3E3E3"/>
<circle cx="109.5" cy="199.902" r="1.5" fill="#E3E3E3"/>
<circle cx="127.5" cy="199.902" r="1.5" fill="#E3E3E3"/>
<circle cx="145.5" cy="199.902" r="1.5" fill="#E3E3E3"/>
<circle cx="163.5" cy="199.902" r="1.5" fill="#E3E3E3"/>
<circle cx="181.5" cy="199.902" r="1.5" fill="#E3E3E3"/>
<circle cx="199.5" cy="199.902" r="1.5" fill="#E3E3E3"/>
<circle cx="217.5" cy="199.902" r="1.5" fill="#E3E3E3"/>
<circle cx="235.5" cy="199.902" r="1.5" fill="#E3E3E3"/>
<circle cx="253.5" cy="199.902" r="1.5" fill="#E3E3E3"/>
<circle cx="271.5" cy="199.902" r="1.5" fill="#E3E3E3"/>
<circle cx="289.5" cy="199.902" r="1.5" fill="#E3E3E3"/>
<circle cx="307.5" cy="199.902" r="1.5" fill="#E3E3E3"/>
<circle cx="325.5" cy="199.902" r="1.5" fill="#E3E3E3"/>
<circle cx="343.5" cy="199.902" r="1.5" fill="#E3E3E3"/>
<circle cx="1.5" cy="217.902" r="1.5" fill="#E3E3E3"/>
<circle cx="19.5" cy="217.902" r="1.5" fill="#E3E3E3"/>
<circle cx="37.5" cy="217.902" r="1.5" fill="#E3E3E3"/>
<circle cx="55.5" cy="217.902" r="1.5" fill="#E3E3E3"/>
<circle cx="73.5" cy="217.902" r="1.5" fill="#E3E3E3"/>
<circle cx="91.5" cy="217.902" r="1.5" fill="#E3E3E3"/>
<circle cx="109.5" cy="217.902" r="1.5" fill="#E3E3E3"/>
<circle cx="127.5" cy="217.902" r="1.5" fill="#E3E3E3"/>
<circle cx="145.5" cy="217.902" r="1.5" fill="#E3E3E3"/>
<circle cx="163.5" cy="217.902" r="1.5" fill="#E3E3E3"/>
<circle cx="181.5" cy="217.902" r="1.5" fill="#E3E3E3"/>
<circle cx="199.5" cy="217.902" r="1.5" fill="#E3E3E3"/>
<circle cx="217.5" cy="217.902" r="1.5" fill="#E3E3E3"/>
<circle cx="235.5" cy="217.902" r="1.5" fill="#E3E3E3"/>
<circle cx="253.5" cy="217.902" r="1.5" fill="#E3E3E3"/>
<circle cx="271.5" cy="217.902" r="1.5" fill="#E3E3E3"/>
<circle cx="289.5" cy="217.902" r="1.5" fill="#E3E3E3"/>
<circle cx="307.5" cy="217.902" r="1.5" fill="#E3E3E3"/>
<circle cx="325.5" cy="217.902" r="1.5" fill="#E3E3E3"/>
<circle cx="343.5" cy="217.902" r="1.5" fill="#E3E3E3"/>
<circle cx="1.5" cy="235.902" r="1.5" fill="#E3E3E3"/>
<circle cx="19.5" cy="235.902" r="1.5" fill="#E3E3E3"/>
<circle cx="37.5" cy="235.902" r="1.5" fill="#E3E3E3"/>
<circle cx="55.5" cy="235.902" r="1.5" fill="#E3E3E3"/>
<circle cx="73.5" cy="235.902" r="1.5" fill="#E3E3E3"/>
<circle cx="91.5" cy="235.902" r="1.5" fill="#E3E3E3"/>
<circle cx="109.5" cy="235.902" r="1.5" fill="#E3E3E3"/>
<circle cx="127.5" cy="235.902" r="1.5" fill="#E3E3E3"/>
<circle cx="145.5" cy="235.902" r="1.5" fill="#E3E3E3"/>
<circle cx="163.5" cy="235.902" r="1.5" fill="#E3E3E3"/>
<circle cx="181.5" cy="235.902" r="1.5" fill="#E3E3E3"/>
<circle cx="199.5" cy="235.902" r="1.5" fill="#E3E3E3"/>
<circle cx="217.5" cy="235.902" r="1.5" fill="#E3E3E3"/>
<circle cx="235.5" cy="235.902" r="1.5" fill="#E3E3E3"/>
<circle cx="253.5" cy="235.902" r="1.5" fill="#E3E3E3"/>
<circle cx="271.5" cy="235.902" r="1.5" fill="#E3E3E3"/>
<circle cx="289.5" cy="235.902" r="1.5" fill="#E3E3E3"/>
<circle cx="307.5" cy="235.902" r="1.5" fill="#E3E3E3"/>
<circle cx="325.5" cy="235.902" r="1.5" fill="#E3E3E3"/>
<circle cx="343.5" cy="235.902" r="1.5" fill="#E3E3E3"/>
<circle cx="1.5" cy="253.902" r="1.5" fill="#E3E3E3"/>
<circle cx="19.5" cy="253.902" r="1.5" fill="#E3E3E3"/>
<circle cx="37.5" cy="253.902" r="1.5" fill="#E3E3E3"/>
<circle cx="55.5" cy="253.902" r="1.5" fill="#E3E3E3"/>
<circle cx="73.5" cy="253.902" r="1.5" fill="#E3E3E3"/>
<circle cx="91.5" cy="253.902" r="1.5" fill="#E3E3E3"/>
<circle cx="109.5" cy="253.902" r="1.5" fill="#E3E3E3"/>
<circle cx="127.5" cy="253.902" r="1.5" fill="#E3E3E3"/>
<circle cx="145.5" cy="253.902" r="1.5" fill="#E3E3E3"/>
<circle cx="163.5" cy="253.902" r="1.5" fill="#E3E3E3"/>
<circle cx="181.5" cy="253.902" r="1.5" fill="#E3E3E3"/>
<circle cx="199.5" cy="253.902" r="1.5" fill="#E3E3E3"/>
<circle cx="217.5" cy="253.902" r="1.5" fill="#E3E3E3"/>
<circle cx="235.5" cy="253.902" r="1.5" fill="#E3E3E3"/>
<circle cx="253.5" cy="253.902" r="1.5" fill="#E3E3E3"/>
<circle cx="271.5" cy="253.902" r="1.5" fill="#E3E3E3"/>
<circle cx="289.5" cy="253.902" r="1.5" fill="#E3E3E3"/>
<circle cx="307.5" cy="253.902" r="1.5" fill="#E3E3E3"/>
<circle cx="325.5" cy="253.902" r="1.5" fill="#E3E3E3"/>
<circle cx="343.5" cy="253.902" r="1.5" fill="#E3E3E3"/>
<circle cx="1.5" cy="271.902" r="1.5" fill="#E3E3E3"/>
<circle cx="19.5" cy="271.902" r="1.5" fill="#E3E3E3"/>
<circle cx="37.5" cy="271.902" r="1.5" fill="#E3E3E3"/>
<circle cx="55.5" cy="271.902" r="1.5" fill="#E3E3E3"/>
<circle cx="73.5" cy="271.902" r="1.5" fill="#E3E3E3"/>
<circle cx="91.5" cy="271.902" r="1.5" fill="#E3E3E3"/>
<circle cx="109.5" cy="271.902" r="1.5" fill="#E3E3E3"/>
<circle cx="127.5" cy="271.902" r="1.5" fill="#E3E3E3"/>
<circle cx="145.5" cy="271.902" r="1.5" fill="#E3E3E3"/>
<circle cx="163.5" cy="271.902" r="1.5" fill="#E3E3E3"/>
<circle cx="181.5" cy="271.902" r="1.5" fill="#E3E3E3"/>
<circle cx="199.5" cy="271.902" r="1.5" fill="#E3E3E3"/>
<circle cx="217.5" cy="271.902" r="1.5" fill="#E3E3E3"/>
<circle cx="235.5" cy="271.902" r="1.5" fill="#E3E3E3"/>
<circle cx="253.5" cy="271.902" r="1.5" fill="#E3E3E3"/>
<circle cx="271.5" cy="271.902" r="1.5" fill="#E3E3E3"/>
<circle cx="289.5" cy="271.902" r="1.5" fill="#E3E3E3"/>
<circle cx="307.5" cy="271.902" r="1.5" fill="#E3E3E3"/>
<circle cx="325.5" cy="271.902" r="1.5" fill="#E3E3E3"/>
<circle cx="343.5" cy="271.902" r="1.5" fill="#E3E3E3"/>
<circle cx="1.5" cy="289.902" r="1.5" fill="#E3E3E3"/>
<circle cx="19.5" cy="289.902" r="1.5" fill="#E3E3E3"/>
<circle cx="37.5" cy="289.902" r="1.5" fill="#E3E3E3"/>
<circle cx="55.5" cy="289.902" r="1.5" fill="#E3E3E3"/>
<circle cx="73.5" cy="289.902" r="1.5" fill="#E3E3E3"/>
<circle cx="91.5" cy="289.902" r="1.5" fill="#E3E3E3"/>
<circle cx="109.5" cy="289.902" r="1.5" fill="#E3E3E3"/>
<circle cx="127.5" cy="289.902" r="1.5" fill="#E3E3E3"/>
<circle cx="145.5" cy="289.902" r="1.5" fill="#E3E3E3"/>
<circle cx="163.5" cy="289.902" r="1.5" fill="#E3E3E3"/>
<circle cx="181.5" cy="289.902" r="1.5" fill="#E3E3E3"/>
<circle cx="199.5" cy="289.902" r="1.5" fill="#E3E3E3"/>
<circle cx="217.5" cy="289.902" r="1.5" fill="#E3E3E3"/>
<circle cx="235.5" cy="289.902" r="1.5" fill="#E3E3E3"/>
<circle cx="253.5" cy="289.902" r="1.5" fill="#E3E3E3"/>
<circle cx="271.5" cy="289.902" r="1.5" fill="#E3E3E3"/>
<circle cx="289.5" cy="289.902" r="1.5" fill="#E3E3E3"/>
<circle cx="307.5" cy="289.902" r="1.5" fill="#E3E3E3"/>
<circle cx="325.5" cy="289.902" r="1.5" fill="#E3E3E3"/>
<circle cx="343.5" cy="289.902" r="1.5" fill="#E3E3E3"/>
<circle cx="1.5" cy="307.902" r="1.5" fill="#E3E3E3"/>
<circle cx="19.5" cy="307.902" r="1.5" fill="#E3E3E3"/>
<circle cx="37.5" cy="307.902" r="1.5" fill="#E3E3E3"/>
<circle cx="55.5" cy="307.902" r="1.5" fill="#E3E3E3"/>
<circle cx="73.5" cy="307.902" r="1.5" fill="#E3E3E3"/>
<circle cx="91.5" cy="307.902" r="1.5" fill="#E3E3E3"/>
<circle cx="109.5" cy="307.902" r="1.5" fill="#E3E3E3"/>
<circle cx="127.5" cy="307.902" r="1.5" fill="#E3E3E3"/>
<circle cx="145.5" cy="307.902" r="1.5" fill="#E3E3E3"/>
<circle cx="163.5" cy="307.902" r="1.5" fill="#E3E3E3"/>
<circle cx="181.5" cy="307.902" r="1.5" fill="#E3E3E3"/>
<circle cx="199.5" cy="307.902" r="1.5" fill="#E3E3E3"/>
<circle cx="217.5" cy="307.902" r="1.5" fill="#E3E3E3"/>
<circle cx="235.5" cy="307.902" r="1.5" fill="#E3E3E3"/>
<circle cx="253.5" cy="307.902" r="1.5" fill="#E3E3E3"/>
<circle cx="271.5" cy="307.902" r="1.5" fill="#E3E3E3"/>
<circle cx="289.5" cy="307.902" r="1.5" fill="#E3E3E3"/>
<circle cx="307.5" cy="307.902" r="1.5" fill="#E3E3E3"/>
<circle cx="325.5" cy="307.902" r="1.5" fill="#E3E3E3"/>
<circle cx="343.5" cy="307.902" r="1.5" fill="#E3E3E3"/>
<circle cx="1.5" cy="325.902" r="1.5" fill="#E3E3E3"/>
<circle cx="19.5" cy="325.902" r="1.5" fill="#E3E3E3"/>
<circle cx="37.5" cy="325.902" r="1.5" fill="#E3E3E3"/>
<circle cx="55.5" cy="325.902" r="1.5" fill="#E3E3E3"/>
<circle cx="73.5" cy="325.902" r="1.5" fill="#E3E3E3"/>
<circle cx="91.5" cy="325.902" r="1.5" fill="#E3E3E3"/>
<circle cx="109.5" cy="325.902" r="1.5" fill="#E3E3E3"/>
<circle cx="127.5" cy="325.902" r="1.5" fill="#E3E3E3"/>
<circle cx="145.5" cy="325.902" r="1.5" fill="#E3E3E3"/>
<circle cx="163.5" cy="325.902" r="1.5" fill="#E3E3E3"/>
<circle cx="181.5" cy="325.902" r="1.5" fill="#E3E3E3"/>
<circle cx="199.5" cy="325.902" r="1.5" fill="#E3E3E3"/>
<circle cx="217.5" cy="325.902" r="1.5" fill="#E3E3E3"/>
<circle cx="235.5" cy="325.902" r="1.5" fill="#E3E3E3"/>
<circle cx="253.5" cy="325.902" r="1.5" fill="#E3E3E3"/>
<circle cx="271.5" cy="325.902" r="1.5" fill="#E3E3E3"/>
<circle cx="289.5" cy="325.902" r="1.5" fill="#E3E3E3"/>
<circle cx="307.5" cy="325.902" r="1.5" fill="#E3E3E3"/>
<circle cx="325.5" cy="325.902" r="1.5" fill="#E3E3E3"/>
<circle cx="343.5" cy="325.902" r="1.5" fill="#E3E3E3"/>
<circle cx="1.5" cy="343.902" r="1.5" fill="#E3E3E3"/>
<circle cx="19.5" cy="343.902" r="1.5" fill="#E3E3E3"/>
<circle cx="37.5" cy="343.902" r="1.5" fill="#E3E3E3"/>
<circle cx="55.5" cy="343.902" r="1.5" fill="#E3E3E3"/>
<circle cx="73.5" cy="343.902" r="1.5" fill="#E3E3E3"/>
<circle cx="91.5" cy="343.902" r="1.5" fill="#E3E3E3"/>
<circle cx="109.5" cy="343.902" r="1.5" fill="#E3E3E3"/>
<circle cx="127.5" cy="343.902" r="1.5" fill="#E3E3E3"/>
<circle cx="145.5" cy="343.902" r="1.5" fill="#E3E3E3"/>
<circle cx="163.5" cy="343.902" r="1.5" fill="#E3E3E3"/>
<circle cx="181.5" cy="343.902" r="1.5" fill="#E3E3E3"/>
<circle cx="199.5" cy="343.902" r="1.5" fill="#E3E3E3"/>
<circle cx="217.5" cy="343.902" r="1.5" fill="#E3E3E3"/>
<circle cx="235.5" cy="343.902" r="1.5" fill="#E3E3E3"/>
<circle cx="253.5" cy="343.902" r="1.5" fill="#E3E3E3"/>
<circle cx="271.5" cy="343.902" r="1.5" fill="#E3E3E3"/>
<circle cx="289.5" cy="343.902" r="1.5" fill="#E3E3E3"/>
<circle cx="307.5" cy="343.902" r="1.5" fill="#E3E3E3"/>
<circle cx="325.5" cy="343.902" r="1.5" fill="#E3E3E3"/>
<circle cx="343.5" cy="343.902" r="1.5" fill="#E3E3E3"/>
</svg>
