<svg width="59" height="55" viewBox="0 0 59 55" fill="none" xmlns="http://www.w3.org/2000/svg">
<circle cx="29.4127" cy="27.5589" r="27.0338" fill="white"/>
<g clip-path="url(#clip0)">
<path d="M0.391113 30.0785C0.765522 29.7578 1.09067 29.3295 1.52025 29.1343C4.88993 27.6145 8.2596 26.0906 11.6687 24.6684C13.59 23.8716 15.6512 23.9134 17.6947 24.0708C19.4446 24.2142 21.1412 24.6066 22.6014 25.6205C23.4955 26.2234 24.306 26.9442 25.0114 27.7639C26.1839 29.1722 27.8037 29.5566 29.4097 30.0267C29.5654 30.0705 29.8038 29.9311 29.9635 29.8275C32.3281 28.3515 34.6672 26.8595 37.024 25.3835C38.4194 24.4895 40.0424 24.0264 41.6943 24.0509C42.9929 24.0708 44.0944 24.5349 44.7033 25.8317C45.2768 25.6584 45.8187 25.4333 46.3822 25.3416C47.1705 25.2301 47.9587 25.1185 48.7469 25.2161C50.1263 25.3894 50.6978 25.9432 51.3579 27.3236C52.3058 27.1244 53.226 26.8376 54.166 26.726C55.776 26.5527 57.0982 27.1244 57.9396 28.5905C58.7811 30.0566 58.521 31.4589 57.5455 32.6939C56.8868 33.5521 56.1012 34.3026 55.2163 34.919C48.5545 39.3889 41.8703 43.827 35.1638 48.2332C33.5006 49.3327 31.6936 49.9781 29.658 49.763C28.1969 49.5797 26.7822 49.123 25.4863 48.4164C22.2014 46.7133 18.881 45.07 15.6532 43.2633C13.9191 42.2932 12.4333 42.2374 10.8765 43.5262C10.1316 44.1596 9.27838 44.6357 8.47045 45.1457C7.66252 45.6556 6.76591 45.3449 6.57476 44.4425C6.52375 44.207 6.54932 43.9611 6.64767 43.7414C6.74602 43.5218 6.91189 43.3401 7.12061 43.2234C8.41133 42.3629 9.70403 41.5044 11.0302 40.7016C12.5574 39.7753 14.1358 39.9048 15.6749 40.6877C18.9834 42.3848 22.2802 44.1098 25.5849 45.8189C26.1721 46.1217 26.7633 46.4145 27.3584 46.6974C29.6166 47.7651 31.7823 47.6675 33.9007 46.2592C38.9631 42.9007 44.0511 39.5861 49.1154 36.2297C50.9441 35.0186 52.7413 33.7557 54.5325 32.4868C54.9241 32.1882 55.2729 31.8362 55.569 31.441C55.9632 30.955 56.2686 30.4072 55.8863 29.7698C55.504 29.1323 54.8833 29.0168 54.2094 29.0945C52.7827 29.2638 51.5471 29.9192 50.3805 30.702C46.9833 32.9947 43.5348 35.1859 40.2557 37.632C38.5985 38.865 36.8742 39.2714 34.9352 39.2594C32.6119 39.2455 30.2886 39.2734 27.9673 39.2355C25.6459 39.1977 23.3364 38.6658 21.0703 38.0782C20.7625 38.0075 20.4941 37.8184 20.322 37.5511C20.1498 37.2837 20.0874 36.9591 20.1481 36.646C20.3155 35.9687 20.9363 35.65 21.7738 35.8153C23.1374 36.0962 24.4951 36.4129 25.8686 36.65C26.743 36.794 27.6272 36.8686 28.5131 36.8731C31.0059 36.893 33.4987 36.891 36.0013 36.8312C36.6417 36.8153 37.29 36.5962 37.9088 36.391C38.4527 36.2117 38.6714 35.7177 38.6734 35.166C38.6822 34.9157 38.6187 34.6682 38.4906 34.4538C38.3625 34.2395 38.1754 34.0674 37.9521 33.9588C37.0713 33.4907 36.1136 33.4429 35.15 33.3951C31.8512 33.2465 28.6058 32.4989 25.5691 31.188C24.9661 30.9251 24.4557 30.4231 23.9335 29.9929C23.6197 29.7167 23.3302 29.4135 23.0684 29.0865C21.492 27.2479 19.417 26.5647 17.0937 26.3994C14.7693 26.2397 12.4434 26.6884 10.3405 27.7021C7.74331 28.9152 5.12048 30.0765 2.51342 31.2697C1.45522 31.7557 1.07293 31.6681 0.402937 30.7657L0.391113 30.0785ZM41.04 34.1899C43.6215 32.435 46.2384 30.6641 48.8396 28.8714C48.9194 28.8009 48.984 28.7143 49.0291 28.6173C49.0742 28.5203 49.0989 28.4148 49.1016 28.3077C49.1016 27.7499 48.7174 27.5806 48.2326 27.5507C46.8709 27.4611 45.6709 27.9491 44.5693 28.6802C42.9929 29.7339 41.4598 30.8335 39.907 31.9191C39.8265 31.978 39.7519 32.0447 39.6843 32.1183L41.04 34.1899ZM33.0612 30.7637C33.0868 30.7896 33.1124 30.8355 33.14 30.8374C34.3401 30.937 35.5421 31.0366 36.7442 31.1203C36.8554 31.1172 36.9632 31.0804 37.0536 31.0147C38.8245 29.7877 40.594 28.556 42.3623 27.3196C42.4325 27.2788 42.4892 27.2179 42.5252 27.1446C42.5611 27.0713 42.5748 26.9888 42.5645 26.9076C42.5542 26.8264 42.5203 26.7501 42.4671 26.6884C42.4139 26.6267 42.3439 26.5822 42.2657 26.5607C42.0382 26.468 41.7933 26.4272 41.5484 26.4412C41.0065 26.489 40.4351 26.497 39.9365 26.6882C37.4201 27.6483 35.2919 29.2917 33.0612 30.7598V30.7637Z" fill="#0D386B"/>
<path d="M30.4994 7.53556C30.7812 2.93414 34.3933 0.480053 37.6152 0.525868C41.0302 0.575667 44.0609 3.28273 44.453 6.72085C44.8452 10.159 42.7662 13.6927 38.6576 14.5791C39.2113 20.059 35.3352 23.6106 31.329 23.9871C29.2499 24.1786 27.1771 23.559 25.5353 22.2553C23.8936 20.9517 22.8072 19.0627 22.4989 16.9754C21.8407 12.2465 25.3917 7.5993 30.4994 7.53556ZM36.6772 10.2864L36.6575 10.2665C37.0102 10.8024 37.3945 11.3203 37.7019 11.882C37.7273 11.9475 37.7653 12.0074 37.8137 12.058C37.8621 12.1086 37.9199 12.1491 37.9838 12.1771C38.0477 12.205 38.1165 12.2199 38.1861 12.2209C38.2558 12.2219 38.3249 12.2089 38.3896 12.1828C40.2005 11.7326 41.4637 10.641 41.9721 8.81838C42.8529 5.65515 40.2853 2.62937 37.026 2.92817C34.8071 3.12736 32.874 5.2727 32.9173 7.49771C32.9173 7.65906 32.9961 7.92598 33.0966 7.95985C34.4938 8.42397 35.6209 9.29047 36.6772 10.2864ZM36.3303 15.8201C36.3389 14.6632 36.0077 13.5297 35.3786 12.5631C34.7496 11.5965 33.851 10.8404 32.7965 10.3904C31.7421 9.94033 30.5793 9.81667 29.4553 10.035C28.3313 10.2534 27.2967 10.804 26.4824 11.617C25.6682 12.4301 25.1108 13.4691 24.881 14.6025C24.6512 15.7359 24.7593 16.9128 25.1915 17.9841C25.6237 19.0554 26.3606 19.973 27.309 20.6207C28.2574 21.2684 29.3746 21.6171 30.5191 21.6227C31.2797 21.6357 32.0351 21.4951 32.7412 21.2091C33.4473 20.9231 34.0898 20.4975 34.631 19.9573C35.1723 19.417 35.6014 18.773 35.8932 18.0629C36.185 17.3528 36.3336 16.591 36.3303 15.8221V15.8201Z" fill="#0D386B"/>
<path d="M31.6131 12.5433V18.9515H29.5203V14.7464H27.8887C28.6237 13.9915 29.207 13.2286 29.9519 12.6987C30.3282 12.4318 31.0002 12.5852 31.6131 12.5433Z" fill="#0D386B"/>
<path d="M36.6773 10.2864V6.72483H35.2368C35.7728 6.18302 36.2457 5.78463 36.6162 5.30855C37.1128 4.67511 37.7434 4.9739 38.3779 4.89423V10.2725H36.6497L36.6773 10.2864Z" fill="#0D386B"/>
</g>
<defs>
<clipPath id="clip0">
<rect width="58.0431" height="49.2969" fill="white" transform="translate(0.391113 0.525879)"/>
</clipPath>
</defs>
</svg>
