<svg width="69" height="55" viewBox="0 0 69 55" fill="none" xmlns="http://www.w3.org/2000/svg">
<circle cx="37.4127" cy="27.719" r="27.0338" fill="white"/>
<g clip-path="url(#clip0)">
<path d="M68.421 30.2284C68.4427 29.3734 68.1489 28.5403 67.5954 27.8873C67.2788 27.5224 66.9213 27.1949 66.5298 26.9114C65.1636 25.9266 63.7704 24.9777 62.4042 24.0018C62.1398 23.8099 61.9157 23.5681 61.7446 23.2901C60.5377 21.3094 59.3599 19.3107 58.1552 17.3322C57.8043 16.7725 57.42 16.2343 57.0043 15.7207C56.8748 15.5966 56.7016 15.5283 56.522 15.5305C54.2629 15.5193 52.0015 15.5305 49.7425 15.5305H49.3678V15.1209C49.3678 13.7444 49.3678 12.3702 49.3678 10.996C49.3543 10.1813 49.3274 9.36661 49.2467 8.55864C49.2305 8.27407 49.1048 8.00672 48.8958 7.81238C48.6868 7.61805 48.4106 7.51175 48.125 7.51567C47.6763 7.51567 47.2433 7.46867 46.8036 7.46867C42.5748 7.45972 38.3595 7.46867 34.1307 7.43957C33.9136 7.43182 33.698 7.47711 33.5025 7.57152C33.307 7.66592 33.1375 7.80656 33.009 7.9812C32.8587 8.15121 32.7597 8.36022 32.7236 8.58402C32.6875 8.80783 32.7156 9.03727 32.8048 9.24575C32.8676 9.46938 33.0007 9.66702 33.1844 9.80963C33.3681 9.95224 33.5929 10.0323 33.8256 10.0381C34.189 10.0604 34.5502 10.103 34.9136 10.103C38.6406 10.1209 42.3677 10.135 46.0947 10.1455H46.5052V34.5793L25.6627 34.586H17.2118C16.4491 34.4898 15.7581 34.8098 15.4911 35.3604C15.3676 35.631 15.3376 35.9349 15.4059 36.2243C15.3943 36.3591 15.4143 36.4947 15.4642 36.6205C15.5606 36.8201 15.7111 36.9888 15.8986 37.1075C16.0861 37.2262 16.3032 37.2901 16.5253 37.2919C16.6618 37.2712 16.801 37.2757 16.9359 37.3054C16.9791 37.3151 17.0218 37.327 17.0637 37.3412C17.0637 38.5408 17.0951 39.7293 17.0637 40.9222C17.0413 41.5198 17.1445 42.0077 17.6179 42.4128C17.7585 42.5606 17.9521 42.6467 18.1563 42.6523C19.0155 42.6702 19.8747 42.7217 20.7339 42.7239C21.0996 42.7239 21.2522 42.8537 21.3778 43.2006C22.2392 45.591 23.9308 47.1151 26.3649 47.8291C26.6161 47.9007 26.8763 47.9433 27.1298 47.9992H28.3884C28.8034 47.903 29.2297 47.8403 29.6335 47.7038C31.8948 46.9316 33.4024 45.3873 34.201 43.1514C34.2187 43.0492 34.2752 42.9577 34.3588 42.896C34.4423 42.8343 34.5466 42.8071 34.6497 42.8202C41.5369 42.8366 42.5836 42.841 48.0509 42.847C48.5131 42.847 48.9752 42.894 49.4374 42.9052C49.5455 42.8991 49.6524 42.9306 49.7399 42.9942C49.8274 43.0579 49.8901 43.1498 49.9174 43.2544C50.8529 45.5708 52.4525 47.1756 54.9269 47.8157C55.1894 47.8851 55.4564 47.9343 55.7211 47.9925H56.9796C57.3992 47.9158 57.8142 47.8157 58.2225 47.6926C60.2415 46.9607 61.7312 45.6313 62.5164 43.6281C62.7788 42.9567 63.149 42.8134 63.7906 42.8202C64.9796 42.8313 66.1709 42.7843 67.3576 42.7262C67.6339 42.6992 67.8918 42.5761 68.0862 42.3784C68.2806 42.1808 68.3991 41.9212 68.421 41.6451C68.4587 41.3174 68.4797 40.988 68.4838 40.6581C68.4614 37.18 68.4344 33.7042 68.421 30.2284ZM21.0615 40.009L19.8186 39.9285V37.3255H22.3537L21.0615 40.009ZM30.2594 44.51C29.7271 44.9064 29.0932 45.1446 28.431 45.1971C26.8786 45.3761 25.5146 45.0359 24.5253 43.7266C23.9151 42.9231 23.7984 41.9988 23.8321 41.0408C23.8994 39.1339 24.9381 37.8403 26.7485 37.4777C28.4422 37.1375 30.0261 37.5269 31.0513 38.9974C31.5029 39.6491 31.7332 40.428 31.7086 41.2199C31.7086 42.5851 31.2958 43.7042 30.2527 44.51H30.2594ZM49.6034 40.1165C48.4188 40.1165 47.1738 40.1165 45.9287 40.1165C43.1595 40.106 44.8115 40.0993 40.6239 40.0829C38.6519 40.0829 36.68 40.0717 34.7058 40.0829C34.6564 40.0912 34.6059 40.0897 34.5571 40.0784C34.5083 40.0671 34.4623 40.0463 34.4216 40.0172C34.3809 39.9881 34.3464 39.9512 34.3201 39.9087C34.2938 39.8662 34.2762 39.8189 34.2683 39.7696C34.1417 39.3612 33.9873 38.9619 33.8062 38.5744C33.6245 38.1939 33.3912 37.8358 33.1332 37.4016C41.4674 37.2718 43.9461 37.2875 50.835 37.3591L49.6034 40.1165ZM56.3066 45.2441C53.9152 45.2105 52.365 43.6774 52.3695 41.287C52.374 38.8967 53.9174 37.3837 56.2662 37.3636C58.6958 37.3389 60.412 39.1205 60.2191 41.2691C60.3918 43.7109 58.5276 45.2642 56.3066 45.2441ZM65.6638 40.1277C65.5068 40.1277 65.3587 40.1277 65.2152 40.1277C64.5422 40.1098 63.8691 40.0963 63.1961 40.0628C63.1373 40.0567 63.0806 40.038 63.0298 40.0079C62.9791 39.9777 62.9355 39.9369 62.9022 39.8882C62.5096 39.0936 62.1372 38.2924 61.7581 37.4911C61.7475 37.4441 61.7415 37.3961 61.7401 37.3479H65.6616L65.6638 40.1277ZM65.6369 34.586H49.388V18.2655H54.3369C54.6443 18.2655 54.9539 18.2901 55.2612 18.2655C55.3577 18.2553 55.4549 18.2767 55.5382 18.3263C55.6216 18.3759 55.6865 18.4512 55.7233 18.5408C57.0798 20.8386 58.4438 23.1342 59.8153 25.4275C59.9167 25.5946 60.0519 25.7387 60.2124 25.8505C61.8874 27.0084 63.5678 28.1581 65.2533 29.2995C65.3712 29.3706 65.4685 29.4712 65.5354 29.5913C65.6023 29.7115 65.6365 29.847 65.6347 29.9844C65.6496 31.4765 65.6609 32.9686 65.6683 34.4607C65.6637 34.504 65.6523 34.5462 65.6347 34.586H65.6369Z" fill="#0D386B"/>
<path d="M40.5718 16.0023H21.2408C20.4924 16.0023 19.8857 16.6075 19.8857 17.3541C19.8857 18.1007 20.4924 18.706 21.2408 18.706H40.5718C41.3201 18.706 41.9268 18.1007 41.9268 17.3541C41.9268 16.6075 41.3201 16.0023 40.5718 16.0023Z" fill="#0D386B"/>
<path d="M33.332 25.4561H14.001C13.2527 25.4561 12.646 26.0613 12.646 26.8079C12.646 27.5545 13.2527 28.1598 14.001 28.1598H33.332C34.0804 28.1598 34.6871 27.5545 34.6871 26.8079C34.6871 26.0613 34.0804 25.4561 33.332 25.4561Z" fill="#0D386B"/>
</g>
<defs>
<clipPath id="clip0">
<rect width="67.5845" height="40.5507" fill="white" transform="translate(0.89502 7.43958)"/>
</clipPath>
</defs>
</svg>
