<svg width="55" height="55" viewBox="0 0 55 55" fill="none" xmlns="http://www.w3.org/2000/svg">
<circle cx="27.4127" cy="27.4819" r="27.0338" fill="white"/>
<g clip-path="url(#clip0)">
<path d="M26.2122 48.5673C25.739 48.5118 25.2543 48.4658 24.7887 48.4008C18.8263 47.589 14.0416 44.7729 10.4345 39.9523C8.22238 37.03 6.85402 33.5578 6.47815 29.9129C5.83439 23.8844 7.44377 18.5105 11.3523 13.8584C14.4752 10.1501 18.4412 7.75515 23.2004 6.83239C30.0441 5.50759 36.1598 7.1521 41.4017 11.7429C45.2796 15.1353 47.6343 19.4448 48.2742 24.5563C49.2494 32.3424 46.6591 38.8228 40.6469 43.8712C37.5335 46.4882 33.8798 47.9528 29.8372 48.439C29.431 48.4869 29.0229 48.529 28.6167 48.575L26.2122 48.5673ZM46.0287 27.5084C46.0517 17.2929 37.727 8.92679 27.4997 8.89042C25.0514 8.88312 22.6255 9.35801 20.3609 10.288C18.0963 11.2179 16.0373 12.5847 14.3016 14.3102C12.5658 16.0357 11.1874 18.086 10.2451 20.3441C9.30284 22.6021 8.81511 25.0236 8.80983 27.4701C8.78876 37.7028 17.1499 46.0804 27.3944 46.0996C37.6389 46.1187 46 37.7583 46.0287 27.5084Z" fill="#0D386B"/>
<path d="M27.4155 4.35508C26.2238 4.35508 25.0321 4.35508 23.8404 4.35508C23.5698 4.35468 23.3058 4.2713 23.0841 4.11621C22.8624 3.96112 22.6937 3.74179 22.6008 3.48783C22.5042 3.23491 22.4866 2.95869 22.5502 2.69556C22.6138 2.43242 22.7557 2.19471 22.9571 2.01371C23.1903 1.78813 23.5024 1.66243 23.827 1.66337C26.2193 1.66337 28.6123 1.66337 31.006 1.66337C31.3519 1.66588 31.6829 1.80457 31.9271 2.04935C32.1714 2.29413 32.3092 2.62527 32.3107 2.97093C32.32 3.14641 32.2937 3.32196 32.2334 3.48703C32.1731 3.65209 32.08 3.80328 31.9598 3.93149C31.8395 4.0597 31.6946 4.1623 31.5336 4.23312C31.3727 4.30394 31.199 4.34151 31.0232 4.34359C29.8219 4.36082 28.6206 4.34359 27.4193 4.34359L27.4155 4.35508Z" fill="#0D386B"/>
<path d="M40.2827 6.50116C40.293 6.26477 40.3723 6.03656 40.5109 5.84469C40.6494 5.65281 40.8412 5.50567 41.0625 5.42142C41.2997 5.30937 41.5664 5.27533 41.8242 5.32417C42.082 5.37301 42.3178 5.50223 42.4975 5.69327C43.5034 6.65049 44.5035 7.60771 45.5055 8.56494C45.8159 8.86168 46.132 9.15459 46.4386 9.45707C46.5624 9.57557 46.6617 9.71733 46.7306 9.87423C46.7995 10.0311 46.8367 10.2001 46.8401 10.3714C46.8436 10.5427 46.8131 10.713 46.7505 10.8725C46.6879 11.032 46.5944 11.1777 46.4754 11.301C46.3564 11.4243 46.2142 11.523 46.0569 11.5913C45.8996 11.6596 45.7304 11.6962 45.559 11.699C45.3875 11.7018 45.2172 11.6708 45.0578 11.6077C44.8983 11.5446 44.753 11.4507 44.6299 11.3313C43.3175 10.0869 42.0147 8.83487 40.7061 7.58666C40.5595 7.44831 40.4455 7.27918 40.3723 7.09146C40.2991 6.90375 40.2685 6.70213 40.2827 6.50116Z" fill="#0D386B"/>
<path d="M27.879 27.92L30.134 26.0649C30.6839 25.6112 34.3931 22.5634 34.9526 22.1231C35.1246 21.9808 35.3303 21.885 35.5499 21.8447C35.7696 21.8045 35.9959 21.8211 36.2073 21.8931C36.4186 21.9651 36.608 22.0901 36.7573 22.256C36.9066 22.4219 37.0108 22.6233 37.0601 22.841C37.1232 23.0859 37.112 23.344 37.0281 23.5826C36.9442 23.8211 36.7913 24.0294 36.5888 24.1811C35.2898 25.2532 30.8199 28.9098 29.519 29.9799C29.1875 30.2537 28.858 30.5294 28.5227 30.7993C27.8464 31.3449 27.0302 31.2416 26.5167 30.539C24.3651 27.5926 20.0256 21.5755 17.8778 18.6234C17.7695 18.4838 17.6904 18.3239 17.6451 18.1532C17.5998 17.9825 17.5893 17.8044 17.6142 17.6295C17.6391 17.4546 17.6989 17.2866 17.7901 17.1352C17.8812 16.9839 18.0019 16.8524 18.1448 16.7485C18.2878 16.6446 18.4502 16.5705 18.6224 16.5305C18.7945 16.4906 18.973 16.4855 19.1472 16.5158C19.3213 16.546 19.4876 16.6109 19.6362 16.7066C19.7848 16.8023 19.9126 16.9268 20.0121 17.0727C21.7365 19.4313 25.6469 24.8626 27.3693 27.2193L27.879 27.92Z" fill="#0D386B"/>
</g>
<defs>
<clipPath id="clip0">
<rect width="42.1409" height="46.9116" fill="white" transform="translate(6.34033 1.66336)"/>
</clipPath>
</defs>
</svg>
