<svg width="51" height="30" viewBox="0 0 51 30" fill="none" xmlns="http://www.w3.org/2000/svg">
<path d="M35.2501 0C31.4501 0 27.9501 1.39999 25.2501 3.79999C22.6501 1.39999 19.1502 0 15.3502 0C7.15022 0 0.450195 6.70003 0.450195 14.9C0.450195 23.1 7.15022 29.8 15.3502 29.8C19.1502 29.8 22.6501 28.4 25.2501 26C27.8501 28.4 31.3501 29.8 35.2501 29.8C43.4501 29.8 50.1502 23.1 50.1502 14.9C50.1502 6.70003 43.4501 0 35.2501 0ZM6.75018 18.9L7.6502 13.1L5.55017 18.9H4.45019L4.35022 13.1L3.35022 18.9H1.85022L3.1502 11.3H5.45019L5.55017 16L7.1502 11.3H9.6502L8.35022 18.9H6.75018ZM12.1502 18.9V18.3C11.7502 18.8 11.1502 19 10.4502 19C9.55019 19 8.95019 18.3 8.95019 17.3C8.95019 15.8 9.95018 14.9 11.7501 14.9C11.9501 14.9 12.1502 14.9 12.4502 14.9C12.5502 14.7 12.5501 14.6 12.5501 14.5C12.5501 14.1 12.2501 13.9 11.5501 13.9C10.7501 13.9 10.1502 14.1 9.85022 14.2C9.85022 14.1 10.0501 12.8 10.0501 12.8C10.8501 12.6 11.3502 12.5 11.9502 12.5C13.3502 12.5 14.0501 13.1 14.0501 14.3C14.0501 14.6 14.0502 15 13.9502 15.5C13.8502 16.4 13.5502 18.3 13.4502 18.8C13.2502 18.9 12.1502 18.9 12.1502 18.9ZM16.9502 15.2C17.7502 15.6 18.0501 16.1 18.0501 16.9C18.0501 18.3 17.2501 19 15.5501 19C14.5501 19 14.2502 18.9 13.8502 18.8C13.8502 18.7 14.0501 17.4 14.0501 17.4C14.5501 17.6 15.0501 17.6 15.5501 17.6C16.1501 17.6 16.4502 17.4 16.4502 17C16.4502 16.7 16.3502 16.6 15.6502 16.3C14.7502 15.9 14.4502 15.4 14.4502 14.6C14.4502 13.5 15.0502 12.5 16.8502 12.5C17.2502 12.5 17.8501 12.6 18.2501 12.6L18.0501 14C17.6501 13.9 17.2502 13.9 16.8502 13.9C16.3502 13.9 16.0501 14.1 16.0501 14.4C16.1501 14.8 16.2502 14.9 16.9502 15.2ZM20.4502 17.5C20.6502 17.5 20.7502 17.5 20.8502 17.4L20.6502 18.8C20.2502 18.9 19.8502 19 19.4502 19C18.6502 19 18.1502 18.5 18.1502 17.6C18.1502 17.3 18.2502 16.6 18.3502 16C18.4502 15.4 19.0501 11.8 19.0501 11.8H20.6502L20.4502 12.7H21.2501L21.0501 14.2H20.2501C20.0501 15.4 19.7501 16.8 19.7501 17C19.9501 17.3 20.1502 17.5 20.4502 17.5ZM24.2501 17.6C24.8501 17.6 25.3502 17.5 25.9502 17.2L25.6502 18.7C25.0502 18.9 24.5502 18.9 23.9502 18.9C22.1502 18.9 21.2501 18 21.2501 16.2C21.2501 14.1 22.4501 12.5 24.0501 12.5C25.3501 12.5 26.2501 13.4 26.2501 14.7C26.2501 15.2 26.1501 15.6 26.0501 16.2H22.8502C22.7502 17.2 23.3501 17.6 24.2501 17.6ZM27.8502 18.9H26.2501L26.3502 18.5C26.6502 16.6 26.9502 14.7 27.1502 12.8H28.6502C28.6502 13.1 28.5501 13.4 28.5501 13.7C29.0501 13 29.4502 12.6 30.1502 12.7C29.9502 13 29.6501 13.7 29.5501 14.5C28.5501 14.4 28.4502 15.1 27.8502 18.9ZM34.0501 18.8C33.4501 19 33.0502 19 32.6502 19C30.9502 19 29.8502 17.7 29.8502 15.7C29.8502 13 31.3501 11.1 33.5501 11.1C34.2501 11.1 35.0502 11.4 35.3502 11.5L35.0501 13.1C34.4501 12.8 34.0502 12.7 33.6502 12.7C32.4502 12.7 31.5501 13.9 31.5501 15.5C31.5501 16.6 32.1501 17.3 33.0501 17.3C33.4501 17.3 33.8502 17.2 34.4502 16.9L34.0501 18.8ZM39.0501 18.9C38.8501 18.9 37.7501 18.9 37.7501 18.9V18.3C37.3501 18.8 36.7501 19 36.0501 19C35.1501 19 34.5501 18.3 34.5501 17.3C34.5501 15.8 35.5502 14.9 37.3502 14.9C37.5502 14.9 37.7501 14.9 38.0501 14.9C38.1501 14.7 38.1502 14.6 38.1502 14.5C38.1502 14.1 37.8502 13.9 37.1502 13.9C36.3502 13.9 35.7502 14.1 35.4502 14.2C35.4502 14.1 35.6502 12.8 35.6502 12.8C36.4502 12.6 36.9501 12.5 37.5501 12.5C38.9501 12.5 39.6502 13.1 39.6502 14.3C39.6502 14.6 39.6501 15 39.5501 15.5C39.3501 16.5 39.0501 18.4 39.0501 18.9ZM41.2501 18.9H39.6502L39.7501 18.5C40.0501 16.6 40.3501 14.7 40.5501 12.8H42.0501C42.0501 13.1 41.9502 13.4 41.9502 13.7C42.4502 13 42.8501 12.6 43.5501 12.7C43.3501 13 43.0502 13.7 42.9502 14.5C41.9502 14.4 41.7501 15.1 41.2501 18.9ZM46.0501 18.9L46.1502 18.3C45.7502 18.8 45.2502 19 44.6502 19C43.4502 19 42.6502 18 42.6502 16.4C42.6502 14.4 43.8501 12.6 45.2501 12.6C45.8501 12.6 46.3501 12.9 46.7501 13.4L47.1502 11.2H48.7501L47.5501 18.8H46.0501V18.9Z" fill="#FDD418"/>
</svg>
