<svg width="83" height="84" viewBox="0 0 83 84" fill="none" xmlns="http://www.w3.org/2000/svg">
<g opacity="0.6">
<path fill-rule="evenodd" clip-rule="evenodd" d="M52.9854 71.7521C36.486 78.0856 17.9766 69.8447 11.6431 53.3453C5.30953 36.8458 13.5504 18.3365 30.0499 12.0029C46.5493 5.66939 65.0587 13.9103 71.3922 30.4097C77.7258 46.9092 69.4848 65.4185 52.9854 71.7521Z" fill="#1786C4"/>
<path fill-rule="evenodd" clip-rule="evenodd" d="M55.4707 15.9552L49.4213 18.2773L43.6199 31.7409C41.8689 35.8041 37.191 37.5998 33.1712 35.7518L19.851 29.6283L13.8017 31.9504L31.3359 40.0111C37.683 42.9289 45.0694 40.0936 47.8338 33.6781L55.4707 15.9552ZM27.4861 67.8295L33.5353 65.5074L39.3839 51.9342C41.1347 47.8711 45.8125 46.0754 49.8326 47.9234L63.2611 54.0967L69.3105 51.7746L51.6681 43.6641C45.3208 40.7463 37.9344 43.5817 35.17 49.9971L27.4861 67.8295Z" fill="white"/>
</g>
</svg>
