<svg width="104" height="104" viewBox="0 0 104 104" fill="none" xmlns="http://www.w3.org/2000/svg">
<g opacity="0.6">
<path fill-rule="evenodd" clip-rule="evenodd" d="M103.559 52.2569C103.559 80.8331 80.3935 103.998 51.8173 103.998C23.2411 103.998 0.0760498 80.8331 0.0760498 52.2569C0.0760498 23.6807 23.2411 0.515625 51.8173 0.515625C80.3935 0.515625 103.559 23.6807 103.559 52.2569Z" fill="#FFC246"/>
<path fill-rule="evenodd" clip-rule="evenodd" d="M74.9781 45.1912C76.0478 37.924 70.5694 33.9958 63.0488 31.3769L65.48 21.5563L59.4181 20.0178L57.0193 29.642L52.2865 28.4962L54.6529 18.8393L48.7207 17.3335L46.2895 27.1541L34.2954 24.2079L32.8366 30.624C32.8366 30.624 37.2453 31.6388 37.148 31.7043C38.8231 31.9565 40.0236 33.4683 39.9034 35.1742L33.4201 62.2136C33.2486 62.7695 32.8651 63.2337 32.3544 63.5039C31.8436 63.7741 31.2474 63.828 30.6971 63.6539L26.0616 62.5409L23.1117 69.4153L30.8592 71.3795L35.1058 72.4925L32.6421 82.313L38.5744 83.7861L41.0056 73.9655L45.8032 75.3404L43.372 85.161L49.3366 86.6668L51.8003 76.6826C61.9466 78.6467 69.5645 77.861 72.7737 68.597C75.3671 61.1333 72.7737 56.8123 67.3278 54.0298C71.5679 53.1769 74.7084 49.5487 74.9781 45.1912ZM61.3955 64.4396C59.5477 71.9032 47.0998 67.7131 43.0802 66.862L46.3218 53.7679C50.2442 54.6517 63.1784 56.6158 61.2658 64.4396H61.3955ZM63.2113 45.093C61.558 51.8692 51.1848 48.3665 47.8459 47.5809L50.6661 35.5998C54.0374 36.4509 64.8321 38.0222 63.0816 45.093H63.2113Z" fill="white"/>
</g>
</svg>
