<svg width="56" height="56" viewBox="0 0 56 56" fill="none" xmlns="http://www.w3.org/2000/svg">
<g opacity="0.6">
<path fill-rule="evenodd" clip-rule="evenodd" d="M55.7214 27.8607C55.7214 43.2479 43.2479 55.7214 27.8607 55.7214C12.4735 55.7214 0 43.2479 0 27.8607C0 12.4735 12.4735 0 27.8607 0C43.2479 0 55.7214 12.4735 55.7214 27.8607Z" fill="#5D8BAD"/>
<path fill-rule="evenodd" clip-rule="evenodd" d="M26.7595 11.2447L26.7653 11.2445C27.1846 11.226 27.7334 11.2019 28.1489 11.2002C29.6207 11.2061 30.3893 11.7822 30.0886 12.9119C29.7181 14.2986 27.8255 16.1808 25.2836 17.8673C24.8031 18.0958 24.3075 17.4474 24.41 17.1719C24.4305 17.1317 24.4591 17.0963 24.494 17.0677C26.7142 15.5954 28.3665 13.9525 28.6941 12.7414C28.9809 11.644 28.1183 11.1492 26.5431 11.2629L26.7595 11.2447ZM26.3799 11.2766L26.5431 11.2629C26.4895 11.2668 26.4351 11.2713 26.3799 11.2766ZM36.2561 15.0713C36.5409 14.0088 36.1855 13.2764 35.3321 12.88C35.0579 12.7488 34.7186 12.6059 34.3979 12.4707L34.3978 12.4707L34.3978 12.4707L34.3976 12.4706C34.3077 12.4327 34.2193 12.3955 34.1342 12.3593C34.0687 12.3307 34.0006 12.3021 33.9284 12.2753L34.1342 12.3593C34.9406 12.7322 35.2766 13.4217 35.0095 14.4237C34.2123 17.4205 28.3246 22.0685 21.8639 24.8065C20.7399 25.2898 19.5882 25.7057 18.4148 26.0521C18.3132 26.0884 18.2253 26.1549 18.1628 26.2428C17.904 26.6123 18.0048 27.5077 18.6239 27.4186C19.8707 27.052 21.0946 26.6114 22.289 26.0991C29.1562 23.1914 35.4077 18.2553 36.2561 15.0713ZM42.7637 19.9603L42.9703 20.3551C43.0967 20.7009 43.1428 20.8273 43.1608 20.9576C43.1711 21.0327 43.1721 21.1091 43.1736 21.2294C43.1713 21.2513 43.1615 21.2718 43.1459 21.2874C42.9586 21.2244 42.505 20.3635 42.4621 19.9864C42.465 19.6702 42.3893 19.3582 42.242 19.0784L42.7637 19.9603ZM42.1757 18.9667L42.242 19.0784C42.221 19.0398 42.1992 19.0028 42.1757 18.9667ZM44.2716 23.7592C44.369 24.1329 44.3556 24.5688 44.2237 25.0669C43.3837 28.2039 38.0445 32.804 31.578 36.1981C30.8555 36.4996 30.4128 35.9545 30.5859 35.4892C30.6564 35.314 30.7872 35.1698 30.9547 35.0827C37.5295 31.6324 42.9603 26.9558 43.8071 23.7667C43.9486 23.2362 43.9563 22.7753 43.8418 22.3841L43.9007 22.563C44.0296 22.9542 44.1765 23.4002 44.2716 23.7592ZM43.8071 22.2776L43.8418 22.3841C43.8313 22.348 43.8197 22.3125 43.8071 22.2776ZM15.1941 17.5994C15.1781 17.6596 15.166 17.7207 15.158 17.7825C15.1233 17.9836 15.1692 18.1902 15.2857 18.3578C15.8048 19.0642 17.7528 18.9021 20.2805 17.8354C21.0757 17.4952 21.8479 17.1036 22.5922 16.6629C22.7527 16.5243 22.6384 16.3101 22.5847 16.2303C22.5309 16.1506 22.2654 15.8482 22.037 15.9322C21.4454 16.2809 20.8317 16.5906 20.1998 16.8594C18.1922 17.7119 16.6423 17.8413 16.229 17.2794C16.1181 17.1282 16.0896 16.9283 16.1568 16.6763C16.2589 16.3586 16.4234 16.0645 16.6406 15.8112C17.018 15.3593 17.4449 14.9511 17.9133 14.5942C19.098 13.7398 20.3744 13.02 21.7186 12.4483C21.8874 12.3762 22.0507 12.3152 22.2136 12.2544L22.2136 12.2543C22.2614 12.2365 22.3092 12.2186 22.357 12.2005C24.3521 11.5479 25.6583 11.7487 25.387 12.7658C25.3038 13.0807 25.0795 13.4343 24.7435 13.8366C24.8863 13.9836 25.6634 14.1634 26.0036 13.9954C26.4177 13.5208 26.6974 13.0723 26.8024 12.6809C27.1132 11.5126 25.7751 11.2002 23.6322 11.7747C23.4654 11.8196 23.3699 11.8483 23.2534 11.8833L23.2534 11.8833L23.2534 11.8833L23.2531 11.8834C23.2019 11.8988 23.1466 11.9154 23.0794 11.9351C22.8593 11.9998 22.7854 12.0241 22.5427 12.109C22.2999 12.1938 22.1697 12.2417 22.0017 12.3063C21.8327 12.3693 21.7152 12.4179 21.4884 12.5116L21.4506 12.5272C21.2956 12.5935 21.2192 12.6278 21.0979 12.6823L21.0222 12.7162C20.8517 12.7926 20.7811 12.8271 20.6131 12.9094C20.4968 12.9664 20.4316 13 20.3501 13.0421C20.3139 13.0608 20.2745 13.0811 20.2259 13.1059C20.0679 13.1866 20.0075 13.2193 19.8478 13.3083C19.7419 13.3674 19.6808 13.4032 19.6074 13.4461L19.6074 13.4462L19.6073 13.4462L19.607 13.4464C19.57 13.468 19.5298 13.4916 19.4791 13.5208C19.3279 13.6082 19.2733 13.6409 19.1128 13.7417C19.0016 13.8116 18.9416 13.8508 18.8635 13.9019L18.8635 13.9019C18.829 13.9245 18.7909 13.9494 18.7432 13.9803C18.5958 14.0759 18.5368 14.1171 18.3955 14.2158L18.3719 14.2322C18.2365 14.3271 18.1688 14.3769 18.0688 14.4505L17.9805 14.5153C17.8596 14.6038 17.7944 14.6546 17.6942 14.7326L17.6941 14.7327L17.6941 14.7327L17.6941 14.7327L17.5924 14.8118C17.441 14.9329 17.3661 14.9952 17.2555 15.0874L17.1648 15.1628C16.996 15.3031 16.9204 15.3669 16.7389 15.5349C16.4014 15.8345 16.0888 16.1609 15.804 16.5109C15.6009 16.7571 15.4299 17.028 15.2949 17.3172C15.254 17.4085 15.2203 17.5028 15.1941 17.5994ZM13.2931 20.2711C13.3042 20.1818 13.3216 20.0934 13.3452 20.0065C13.3832 19.8672 13.4317 19.731 13.4905 19.5992C13.5796 19.4161 13.7131 19.1792 13.8156 19.0037C13.8929 18.8713 13.9936 18.7288 14.0969 18.5828L14.0969 18.5828L14.0969 18.5828C14.1305 18.5352 14.1644 18.4873 14.1978 18.4393L14.2363 18.3838C14.3606 18.2051 14.4884 18.0212 14.601 17.869L14.832 17.5691L14.8362 17.5641C14.7112 17.7261 14.5994 17.8926 14.4872 18.0597L14.4872 18.0597L14.4872 18.0597L14.4872 18.0597L14.4872 18.0597L14.4872 18.0597L14.4872 18.0597L14.4872 18.0597L14.4872 18.0597L14.4872 18.0597L14.4872 18.0597L14.4872 18.0597L14.4347 18.1377C14.276 18.385 14.1527 18.6533 14.0685 18.9348C13.9626 19.3321 14.008 19.6504 14.1844 19.8898C14.727 20.6297 16.5146 20.6138 18.928 19.8133C19.2783 19.7629 19.2447 20.4071 19.2439 20.4139C19.2136 20.7649 19.1674 21.2949 16.098 21.6737C15.2176 21.7812 14.0508 21.7728 13.4939 21.1211L13.4804 21.1026C13.4045 20.9955 13.3498 20.8749 13.3192 20.7473C13.3192 20.7426 13.3173 20.7382 13.3154 20.7335C13.3139 20.7299 13.3123 20.7262 13.3116 20.7221C13.2886 20.5729 13.2824 20.4216 13.2931 20.2711ZM12.07 22.7068C12.0406 22.8172 12.0185 22.9294 12.0037 23.0427C11.9516 23.4627 12.0347 23.8121 12.238 24.0893C13.1856 25.3802 16.7448 25.0837 21.3649 23.1267C27.2157 20.6474 32.549 16.4353 33.2731 13.7199C33.5344 12.7406 33.1606 12.0922 32.2483 11.7562L32.22 11.7484C32.0614 11.7045 31.8924 11.6577 31.6015 11.5975C31.2087 11.5147 31.19 11.516 31.0409 11.5259L31.0387 11.5261C31.8241 11.815 32.1651 12.4096 31.9266 13.305C31.2646 15.7869 26.3891 19.6378 21.0373 21.9055C16.8195 23.6928 13.5644 23.9666 12.6975 22.7841C12.4648 22.4666 12.4043 22.0441 12.5446 21.5175C12.5777 21.395 12.6183 21.2746 12.6664 21.1572C12.6958 21.0875 12.7261 21.0186 12.7546 20.9548C12.7219 21.0228 12.6933 21.0908 12.6664 21.1572C12.5168 21.5033 12.3594 21.9087 12.2243 22.2564L12.2243 22.2565L12.2243 22.2565L12.2243 22.2566L12.154 22.4372C12.1215 22.5279 12.0935 22.6178 12.07 22.7068ZM11.324 25.9992L11.4592 25.0913L11.5777 24.4874C11.5877 24.4412 11.5995 24.3942 11.6121 24.3463C11.5921 24.4387 11.578 24.5324 11.5639 24.6261C11.555 24.6855 11.5461 24.745 11.5357 24.804C11.4995 25.2298 11.5869 25.5893 11.7969 25.8749C11.9587 26.0892 12.1692 26.262 12.411 26.3788C12.6226 26.5678 12.5109 27.2968 12.5092 27.3027C12.4714 27.5253 12.3958 27.7865 12.2505 27.7638C11.9915 27.6337 11.7688 27.4415 11.602 27.2044V27.2322C11.5825 27.2056 11.5669 27.1767 11.5513 27.1478C11.5426 27.1318 11.534 27.1158 11.5247 27.1003C11.5203 27.0927 11.5157 27.0852 11.5111 27.0777L11.5111 27.0777C11.5012 27.0614 11.4914 27.0453 11.4827 27.0281C11.4762 27.015 11.4701 27.0058 11.4645 26.9973C11.4593 26.9893 11.4544 26.982 11.45 26.9726C11.3992 26.8561 11.3634 26.7336 11.3433 26.6081C11.3396 26.5897 11.3376 26.5706 11.3355 26.5515C11.3343 26.5401 11.3331 26.5287 11.3315 26.5174C11.3221 26.4643 11.3154 26.4108 11.3114 26.357C11.3054 26.2362 11.3096 26.1151 11.324 25.995V25.9992ZM11.3685 29.9924C11.3743 30.0132 11.3801 30.0339 11.3878 30.0534V30.0492L11.3949 30.0673L11.3949 30.0674C11.3989 30.0779 11.4029 30.0883 11.4071 30.0979C11.4542 30.2116 11.5143 30.3196 11.5861 30.4196C11.5857 30.4126 11.5857 30.4056 11.5861 30.3986C12.8016 32.0952 17.4335 31.7206 23.4531 29.174C31.0688 25.9429 38.0057 20.4643 38.9449 16.935C39.2028 15.97 38.9852 15.2502 38.3796 14.7798L37.7075 14.2759L37.1329 13.8879C37.4312 14.1071 37.9839 14.5144 37.9352 15.4778C37.6613 20.9984 16.2801 34.1529 11.513 29.0497C11.3218 28.7837 11.2138 28.4678 11.2012 28.142C11.2008 28.1064 11.2005 28.0716 11.2005 28.0376C11.1997 28.0725 11.1999 28.1073 11.2012 28.142C11.2056 28.4573 11.228 28.829 11.2487 29.1713L11.2487 29.1713L11.2487 29.1713L11.2487 29.1714C11.2545 29.2673 11.2601 29.3609 11.2652 29.4503V29.4671C11.2711 29.4999 11.2711 29.536 11.2711 29.5679C11.2753 29.5755 11.2753 29.5814 11.2753 29.5889C11.2769 29.6018 11.28 29.615 11.2832 29.6288C11.2865 29.6429 11.2899 29.6576 11.2921 29.6729C11.3059 29.7678 11.3275 29.8613 11.3567 29.9526C11.361 29.9657 11.3648 29.9791 11.3685 29.9924ZM12.2548 33.6028L12.2414 33.5851L12.2363 33.5784L12.2304 33.5709L12.2204 33.5566C12.104 33.4183 12.0225 33.2541 11.9826 33.0778C11.9505 32.9601 11.9149 32.8326 11.878 32.7006L11.8779 32.7003L11.8779 32.7002L11.8779 32.7002C11.7794 32.3474 11.6717 31.9619 11.5967 31.6409C11.6498 31.8537 11.7434 32.0544 11.8726 32.2321L11.8919 32.2581C13.204 33.974 18.0048 33.565 24.2092 30.9378C32.1256 27.5782 39.3364 21.8845 40.3159 18.2133C40.5385 17.3734 40.4184 16.7183 40.0076 16.2387L40.1604 16.4031L40.1639 16.4069L40.1664 16.4096L40.1673 16.4105C40.4306 16.6933 40.7213 17.0055 40.9417 17.2676C41.3533 17.7564 41.4718 18.425 41.2458 19.2716C40.247 23.0167 32.8917 28.8263 24.8166 32.2472C18.4786 34.9349 13.5837 35.3481 12.2523 33.591L12.2548 33.6028ZM39.9018 16.1254L40.0076 16.2387C39.974 16.2001 39.9396 16.1615 39.9018 16.1254ZM11.5828 31.5803C11.5871 31.6006 11.5917 31.6208 11.5967 31.6409L11.5828 31.5803ZM13.2914 36.0922C13.5014 36.5458 13.5711 36.5962 13.5711 36.5962V36.592C13.6696 36.7052 13.7757 36.8115 13.8887 36.9103C15.5687 38.3289 20.314 37.8065 26.3673 35.2523C31.226 33.1938 35.8285 30.2844 38.9861 27.4631L38.9863 27.4629C39.114 27.284 39.307 27.0136 39.1432 26.5695C39.0676 26.3646 38.8316 25.9186 38.2822 26.2083C35.1262 29.0245 30.5321 31.9289 25.6818 33.9841C19.2228 36.7188 14.2398 37.1337 12.9134 35.3279C13.0243 35.5687 13.1422 35.8081 13.2671 36.046L13.2914 36.0922ZM15.1302 38.7975C14.9546 38.5909 14.7815 38.3818 14.6396 38.1979C14.6303 38.1869 14.6219 38.1752 14.6135 38.1634C14.6203 38.1722 14.6274 38.1804 14.6345 38.1886C14.6417 38.1968 14.6488 38.205 14.6555 38.2138C15.4435 39.2074 17.3932 39.4913 20.1157 39.0428C20.6651 39.0134 21.0263 39.472 21.0927 39.5963C21.1691 39.7407 21.2489 39.9969 20.9154 40.0943C18.3458 40.5143 16.4717 40.2783 15.6417 39.3922C15.4847 39.2141 15.304 39.0008 15.1302 38.7933V38.7975ZM17.2149 40.8911C17.178 40.8641 17.1425 40.8362 17.1083 40.8074V40.8032C17.1426 40.8319 17.1782 40.8613 17.2149 40.8911ZM17.2149 40.8911C18.7916 42.0491 22.7929 41.6412 27.9052 39.6173C28.6757 39.3806 28.933 39.8953 28.9359 39.9012L28.9359 39.9012C28.9788 40.0045 29.0334 40.2682 28.5999 40.4832C23.695 42.4251 19.8485 42.8232 18.3054 41.7338C18.2012 41.6533 18.0866 41.5662 17.9679 41.476L17.9677 41.4758L17.9676 41.4758L17.9675 41.4756C17.7146 41.2834 17.4434 41.0772 17.2149 40.8911ZM39.8514 39.5543C39.7437 39.7282 39.6103 39.8848 39.4557 40.0188C37.8538 41.3072 35.7411 42.5821 33.5277 43.5203C31.662 44.3106 30.0306 44.7323 28.8235 44.7936C28.3909 44.802 27.8407 44.8028 27.3678 44.7936C28.7597 44.7936 30.7421 44.3157 33.0388 43.3431C35.5471 42.2798 37.9412 40.8351 39.759 39.3754C39.8027 39.3459 39.8494 39.3211 39.8984 39.3015L39.9346 39.3678C39.9117 39.4307 39.8839 39.4916 39.8514 39.5501V39.5543ZM27.0771 44.7869C27.1704 44.7936 27.2678 44.7936 27.3678 44.7936L27.0771 44.7869ZM24.9474 44.5265C29.5281 45.2622 41.0339 39.5291 43.5414 34.4057C43.6918 34.0657 43.8378 33.6249 43.9681 33.2315L43.9684 33.2306L43.971 33.2227C43.9912 33.1618 44.011 33.1021 44.0303 33.0441C44.0495 32.9913 44.0671 32.939 44.0832 32.8872C44.066 32.9377 44.0483 32.9901 44.0303 33.0441C43.0079 35.8601 37.6453 40.025 31.7777 42.5116C28.1538 44.0468 25.1572 44.5952 23.491 44.1879C23.4488 44.177 23.4074 44.1661 23.3673 44.1553C23.4077 44.1668 23.449 44.1777 23.491 44.1879C23.932 44.3023 24.4806 44.4234 24.9103 44.5183L24.9105 44.5183L24.9474 44.5265ZM44.6905 29.9464L44.6905 29.9465C44.6526 30.2577 44.6119 30.5921 44.5656 30.8605C44.5513 30.9445 44.5329 31.0235 44.5102 31.1083C43.6878 34.1907 37.6337 38.9723 30.9857 41.7884C26.6638 43.6202 23.1542 44.1695 21.4565 43.48C21.388 43.4482 21.3158 43.4149 21.2411 43.3804L21.2404 43.3801L21.2402 43.38C20.8575 43.2034 20.411 42.9972 20.0696 42.8181C25.9019 45.2471 43.9011 35.4119 44.7605 29.326L44.7403 29.5469C44.7241 29.6698 44.7076 29.8057 44.6905 29.9464ZM38.6197 34.9349C41.8614 32.542 44.1841 30.0332 44.6965 28.1115H44.6973C44.772 27.8452 44.8063 27.5691 44.799 27.2926L44.7679 26.7517L44.6689 25.7952C44.7024 26.1353 44.6708 26.4788 44.5755 26.8072C44.0455 28.796 41.643 31.3947 38.2829 33.8724C38.1111 34.0111 37.9912 34.2038 37.9427 34.4192C37.8637 34.7929 38.0947 35.2565 38.6197 34.9349Z" fill="white"/>
</g>
</svg>
