<svg width="32" height="32" viewBox="0 0 32 32" fill="none" xmlns="http://www.w3.org/2000/svg">
<path d="M26.6668 3.20007H5.33364C4.16052 3.20007 3.2002 4.16039 3.2002 5.33351V26.667C3.2002 27.8394 4.16052 28.8001 5.33364 28.8001H26.6668C27.8399 28.8001 28.8002 27.8394 28.8002 26.667V5.33351C28.8002 4.16039 27.8399 3.20007 26.6668 3.20007ZM26.6668 26.667H18.1336V18.1332H23.4668V16.0001H18.1336V13.8666C18.1336 12.099 19.5669 10.6666 21.3336 10.6666H23.4668V8.53319H21.3336C18.3887 8.53351 16.0002 10.9204 16.0002 13.8666V16.0001H13.8668V18.1332H16.0002V26.667H5.33364V5.33351H26.6668V26.667Z" fill="#5D3DE3"/>
</svg>
