<svg width="32" height="32" viewBox="0 0 32 32" fill="none" xmlns="http://www.w3.org/2000/svg">
<path d="M22.4002 3.19971H9.60019C6.08052 3.19971 3.2002 6.08003 3.2002 9.59971V22.4003C3.2002 25.9191 6.08052 28.8003 9.60019 28.8003H22.4002C25.9199 28.8003 28.8002 25.9191 28.8002 22.4003V9.59971C28.8002 6.08003 25.9199 3.19971 22.4002 3.19971ZM26.6668 22.4003C26.6668 24.7523 24.7535 26.6669 22.4002 26.6669H9.60019C7.24788 26.6669 5.33364 24.7523 5.33364 22.4003V9.59971C5.33364 7.24707 7.24788 5.33315 9.60019 5.33315H22.4002C24.7535 5.33315 26.6668 7.24707 26.6668 9.59971V22.4003Z" fill="#5D3DE3"/>
<path d="M22.933 10.6662C23.8167 10.6662 24.533 9.94984 24.533 9.06619C24.533 8.18253 23.8167 7.46619 22.933 7.46619C22.0494 7.46619 21.333 8.18253 21.333 9.06619C21.333 9.94984 22.0494 10.6662 22.933 10.6662Z" fill="#5D3DE3"/>
<path d="M15.9996 9.59973C12.4642 9.59973 9.59961 12.4647 9.59961 15.9997C9.59961 19.5335 12.4642 22.4004 15.9996 22.4004C19.534 22.4004 22.3996 19.5335 22.3996 15.9997C22.3996 12.4647 19.534 9.59973 15.9996 9.59973ZM15.9996 20.2669C13.6434 20.2669 11.733 18.3565 11.733 15.9997C11.733 13.6429 13.6434 11.7332 15.9996 11.7332C18.3558 11.7332 20.2662 13.6429 20.2662 15.9997C20.2662 18.3565 18.3558 20.2669 15.9996 20.2669Z" fill="#5D3DE3"/>
</svg>
