<svg width="51" height="49" viewBox="0 0 51 49" fill="none" xmlns="http://www.w3.org/2000/svg">
<path fill-rule="evenodd" clip-rule="evenodd" d="M25.5297 1.73362C25.3072 1.91082 24.8601 2.86447 24.6897 3.52562C24.5134 4.2093 24.4162 5.13939 24.4646 5.67817C24.5335 6.44384 24.6246 6.85055 24.9682 7.92568C25.7132 10.2564 25.9889 11.5264 26.0404 12.8639C26.0677 13.5739 26.0531 13.8891 25.9758 14.2552C25.7113 15.5075 24.9856 16.2288 23.8762 16.342C22.3627 16.4964 21.2172 15.7877 20.6845 14.367C20.5769 14.08 20.4311 13.7954 20.3604 13.7344C20.1681 13.5683 19.7743 13.5889 19.5908 13.7746C19.1688 14.2017 18.8645 16.791 19.0534 18.3468C19.176 19.3566 19.1197 19.277 19.676 19.2272C20.9049 19.1171 22.279 19.4366 24.843 20.4286C27.6579 21.5176 29.706 22.0727 32.1295 22.4034C33.5259 22.594 37.2946 22.5431 38.0179 22.324C38.2321 22.2591 38.5058 20.7351 38.5078 19.5969C38.5102 18.2668 38.2139 17.0037 37.6041 15.7445C37.0805 14.663 36.803 14.4097 36.3513 14.6009C36.1397 14.6905 36.0726 14.8059 35.8838 15.4056C35.7305 15.8923 35.4021 16.4665 35.022 16.9125C34.4239 17.6143 33.4667 17.8376 32.6611 17.4632C31.9811 17.1471 31.6852 16.746 31.5583 15.9677C31.4605 15.3685 31.548 14.5619 31.9067 12.757C32.5763 9.3872 32.626 8.71985 32.2847 7.6863C32.0909 7.09916 31.8739 6.84941 31.5577 6.84941C31.2785 6.84941 31.1616 6.93855 30.9552 7.30878C30.7203 7.73011 30.339 8.08199 29.8854 8.29598C29.5886 8.43603 29.4462 8.46192 28.971 8.46249C28.4706 8.46312 28.363 8.44147 28.0015 8.26756C26.6904 7.6368 26.24 6.18231 26.3968 3.08637L26.4544 1.95071L26.2575 1.77268C26.0184 1.55648 25.7691 1.54305 25.5297 1.73362ZM10.4741 18.9456C10.0514 19.1716 9.87831 19.7318 10.0911 20.1857C10.2772 20.5827 11.7212 21.8154 12.8466 22.5378C13.606 23.0254 14.6821 23.5873 14.735 23.5238C14.7604 23.4933 14.8321 23.2974 14.8942 23.0885C14.9562 22.8796 15.1046 22.4998 15.2238 22.2444C15.343 21.9891 15.4312 21.7729 15.4197 21.7639C15.4082 21.7549 15.1176 21.5991 14.7739 21.4177C13.8996 20.9561 13.0463 20.361 12.2354 19.6471C11.8539 19.3114 11.4667 18.9869 11.375 18.9262C11.1563 18.7813 10.7658 18.7897 10.4741 18.9456ZM19.4427 20.4654C18.2745 20.6205 17.28 21.2364 16.6602 22.1884C16.007 23.1918 15.7766 24.0412 15.8236 25.2727C15.8725 26.5498 16.1866 27.2936 17.0562 28.1913C18.4175 29.5966 20.6919 30.4358 24.1863 30.8222C25.3917 30.9555 28.1186 30.9727 29.0335 30.8528C33.6937 30.2421 37.6834 28.255 40.8264 24.9791C41.9851 23.7714 42.1274 23.5305 41.9207 23.1259C41.7445 22.7809 41.5606 22.7656 40.5933 23.0159C39.5419 23.2879 38.3368 23.5233 37.4145 23.6369C36.3324 23.7702 33.0058 23.7515 31.9419 23.6064C29.3909 23.2582 27.0035 22.5962 24.038 21.4147C22.0794 20.6344 20.5493 20.3183 19.4427 20.4654ZM18.0512 23.7186C18.1479 23.7692 18.2634 23.8998 18.308 24.0088C18.3768 24.1769 18.3734 24.2578 18.2856 24.5397C17.9707 25.5511 18.3892 26.4155 19.5182 27.0855C20.7582 27.8213 22.9023 28.3345 25.3372 28.4781C25.719 28.5006 26.1079 28.5581 26.2015 28.6059C26.5442 28.7809 26.6024 29.1922 26.3308 29.5189L26.1613 29.7229L25.3145 29.6831C23.058 29.5772 20.8861 29.0965 19.4016 28.3747C18.297 27.8375 17.627 27.2157 17.2188 26.349C17.0354 25.9596 17.0249 25.8965 17.0249 25.1777C17.0249 24.494 17.0406 24.3864 17.1813 24.1015C17.4014 23.6559 17.6893 23.5292 18.0512 23.7186Z" fill="#1B1B1B"/>
<path fill-rule="evenodd" clip-rule="evenodd" d="M10.4741 18.9457C10.0514 19.1717 9.87831 19.7319 10.0911 20.1858C10.2772 20.5829 11.7212 21.8155 12.8466 22.538C13.606 23.0255 14.6821 23.5874 14.735 23.524C14.7604 23.4934 14.8321 23.2976 14.8942 23.0886C14.9562 22.8797 15.1046 22.4999 15.2238 22.2446C15.343 21.9892 15.4312 21.773 15.4197 21.7641C15.4082 21.7551 15.1176 21.5993 14.7739 21.4178C13.8996 20.9562 13.0463 20.3611 12.2354 19.6473C11.8539 19.3115 11.4667 18.9871 11.375 18.9263C11.1563 18.7814 10.7658 18.7899 10.4741 18.9457ZM19.4427 20.4655C18.2745 20.6207 17.28 21.2365 16.6602 22.1885C16.007 23.192 15.7766 24.0413 15.8236 25.2728C15.8725 26.5499 16.1866 27.2938 17.0562 28.1914C18.4175 29.5967 20.6919 30.436 24.1863 30.8224C25.3917 30.9556 28.1186 30.9729 29.0335 30.8529C33.6937 30.2423 37.6834 28.2551 40.8264 24.9793C41.9851 23.7715 42.1274 23.5306 41.9207 23.126C41.7445 22.781 41.5606 22.7657 40.5933 23.016C39.5419 23.2881 38.3368 23.5234 37.4145 23.637C36.3324 23.7703 33.0058 23.7517 31.9419 23.6065C29.3909 23.2583 27.0035 22.5963 24.038 21.4148C22.0794 20.6345 20.5493 20.3184 19.4427 20.4655ZM18.0512 23.7188C18.1479 23.7693 18.2634 23.9 18.308 24.009C18.3768 24.177 18.3734 24.2579 18.2856 24.5398C17.9707 25.5512 18.3892 26.4156 19.5182 27.0856C20.7582 27.8215 22.9023 28.3346 25.3372 28.4782C25.719 28.5007 26.1079 28.5583 26.2015 28.6061C26.5442 28.781 26.6024 29.1923 26.3308 29.519L26.1613 29.723L25.3145 29.6833C23.058 29.5773 20.8861 29.0967 19.4016 28.3748C18.297 27.8376 17.627 27.2158 17.2188 26.3491C17.0354 25.9598 17.0249 25.8966 17.0249 25.1779C17.0249 24.4941 17.0406 24.3865 17.1813 24.1016C17.4014 23.6561 17.6893 23.5293 18.0512 23.7188Z" fill="#E07153"/>
<path d="M11.284 44.98C10.58 45.74 9.632 46.12 8.44 46.12C7.248 46.12 6.3 45.74 5.596 44.98C4.892 44.22 4.54 43.16 4.54 41.8C4.54 40.44 4.892 39.38 5.596 38.62C6.3 37.86 7.248 37.48 8.44 37.48C9.632 37.48 10.58 37.86 11.284 38.62C11.988 39.38 12.34 40.44 12.34 41.8C12.34 43.16 11.988 44.22 11.284 44.98ZM6.688 44.032C7.12 44.544 7.704 44.8 8.44 44.8C9.176 44.8 9.76 44.544 10.192 44.032C10.624 43.512 10.84 42.768 10.84 41.8C10.84 40.832 10.624 40.092 10.192 39.58C9.76 39.06 9.176 38.8 8.44 38.8C7.704 38.8 7.12 39.06 6.688 39.58C6.256 40.092 6.04 40.832 6.04 41.8C6.04 42.768 6.256 43.512 6.688 44.032ZM16.3628 46.12C15.4508 46.12 14.7228 45.828 14.1788 45.244C13.6348 44.66 13.3628 43.852 13.3628 42.82C13.3628 41.788 13.6348 40.98 14.1788 40.396C14.7228 39.812 15.4508 39.52 16.3628 39.52C17.1068 39.52 17.7228 39.72 18.2108 40.12C18.6988 40.512 19.0228 41.012 19.1828 41.62H17.8028C17.4908 41.06 17.0108 40.78 16.3628 40.78C15.8748 40.78 15.4828 40.96 15.1868 41.32C14.8908 41.672 14.7428 42.172 14.7428 42.82C14.7428 43.468 14.8908 43.972 15.1868 44.332C15.4828 44.684 15.8748 44.86 16.3628 44.86C17.0108 44.86 17.4908 44.58 17.8028 44.02H19.1828C19.0228 44.628 18.6988 45.132 18.2108 45.532C17.7228 45.924 17.1068 46.12 16.3628 46.12ZM21.4647 46V40.9H19.4247V39.64H24.8847V40.9H22.8447V46H21.4647ZM25.78 48.4V39.64H26.92L27.1 40.42H27.16C27.352 40.156 27.608 39.94 27.928 39.772C28.256 39.604 28.62 39.52 29.02 39.52C29.852 39.52 30.52 39.808 31.024 40.384C31.528 40.96 31.78 41.772 31.78 42.82C31.78 43.868 31.528 44.68 31.024 45.256C30.52 45.832 29.852 46.12 29.02 46.12C28.612 46.12 28.244 46.036 27.916 45.868C27.596 45.692 27.364 45.496 27.22 45.28H27.16V48.4H25.78ZM27.616 44.344C27.92 44.688 28.308 44.86 28.78 44.86C29.252 44.86 29.64 44.688 29.944 44.344C30.248 43.992 30.4 43.484 30.4 42.82C30.4 42.156 30.248 41.652 29.944 41.308C29.64 40.956 29.252 40.78 28.78 40.78C28.308 40.78 27.92 40.956 27.616 41.308C27.312 41.652 27.16 42.156 27.16 42.82C27.16 43.484 27.312 43.992 27.616 44.344ZM37.9296 45.244C37.3856 45.828 36.6576 46.12 35.7456 46.12C34.8336 46.12 34.1056 45.828 33.5616 45.244C33.0176 44.66 32.7456 43.852 32.7456 42.82C32.7456 41.788 33.0176 40.98 33.5616 40.396C34.1056 39.812 34.8336 39.52 35.7456 39.52C36.6576 39.52 37.3856 39.812 37.9296 40.396C38.4736 40.98 38.7456 41.788 38.7456 42.82C38.7456 43.852 38.4736 44.66 37.9296 45.244ZM34.5816 44.344C34.8856 44.688 35.2736 44.86 35.7456 44.86C36.2176 44.86 36.6056 44.688 36.9096 44.344C37.2136 43.992 37.3656 43.484 37.3656 42.82C37.3656 42.156 37.2136 41.652 36.9096 41.308C36.6056 40.956 36.2176 40.78 35.7456 40.78C35.2736 40.78 34.8856 40.956 34.5816 41.308C34.2776 41.652 34.1256 42.156 34.1256 42.82C34.1256 43.484 34.2776 43.992 34.5816 44.344ZM42.7546 46.12C41.8186 46.12 41.0746 45.832 40.5226 45.256C39.9786 44.672 39.7066 43.86 39.7066 42.82C39.7066 41.788 39.9786 40.98 40.5226 40.396C41.0666 39.812 41.7946 39.52 42.7066 39.52C43.6346 39.52 44.3666 39.82 44.9026 40.42C45.4386 41.02 45.7066 41.76 45.7066 42.64L45.6466 43.24H41.1466C41.1786 43.728 41.3386 44.12 41.6266 44.416C41.9146 44.712 42.2946 44.86 42.7666 44.86C43.3026 44.86 43.7426 44.62 44.0866 44.14H45.5866C45.3946 44.724 45.0586 45.2 44.5786 45.568C44.1066 45.936 43.4986 46.12 42.7546 46.12ZM41.1466 42.16H44.2666C44.2026 41.752 44.0346 41.42 43.7626 41.164C43.4906 40.908 43.1386 40.78 42.7066 40.78C42.2986 40.78 41.9586 40.904 41.6866 41.152C41.4226 41.392 41.2426 41.728 41.1466 42.16Z" fill="#1B1B1B"/>
</svg>
