<svg width="19" height="18" viewBox="0 0 19 18" fill="none" xmlns="http://www.w3.org/2000/svg">
<g opacity="0.6">
<path fill-rule="evenodd" clip-rule="evenodd" d="M9.69241 17.9221C14.5047 17.9221 18.4058 14.021 18.4058 9.20871C18.4058 4.39643 14.5047 0.4953 9.69241 0.4953C4.88013 0.4953 0.979004 4.39643 0.979004 9.20871C0.979004 14.021 4.88013 17.9221 9.69241 17.9221ZM9.69238 15.5457C13.1922 15.5457 16.0294 12.7085 16.0294 9.20868C16.0294 5.70884 13.1922 2.87166 9.69238 2.87166C6.19254 2.87166 3.35536 5.70884 3.35536 9.20868C3.35536 12.7085 6.19254 15.5457 9.69238 15.5457Z" fill="#C4C4C4"/>
<rect x="7.31592" y="5.24805" width="2.37638" height="5.5449" fill="#C4C4C4"/>
<rect x="13.3394" y="10.3143" width="2.37638" height="5.5449" transform="rotate(110.014 13.3394 10.3143)" fill="#C4C4C4"/>
</g>
</svg>
